<?xml version="1.0" encoding="UTF-8"?>
<svg id="Layer_1" xmlns="http://www.w3.org/2000/svg" xmlns:xlink="http://www.w3.org/1999/xlink" version="1.1" viewBox="0 0 1280 800">
  <!-- Generator: Adobe Illustrator 29.8.2, SVG Export Plug-In . SVG Version: 2.1.1 Build 3)  -->
  <defs>
    <style>
      .st0, .st1 {
        fill: none;
      }

      .st2 {
        clip-path: url(#clippath-1);
      }

      .st3 {
        clip-path: url(#clippath-3);
      }

      .st4 {
        clip-path: url(#clippath-4);
      }

      .st5 {
        clip-path: url(#clippath-2);
      }

      .st6 {
        clip-path: url(#clippath-7);
      }

      .st7 {
        clip-path: url(#clippath-6);
      }

      .st8 {
        clip-path: url(#clippath-5);
      }

      .st9 {
        fill: #fff;
      }

      .st1 {
        stroke: #fff;
        stroke-width: .5px;
      }

      .st10 {
        clip-path: url(#clippath);
      }
    </style>
    <clipPath id="clippath">
      <rect class="st0" width="1280" height="800"/>
    </clipPath>
    <clipPath id="clippath-1">
      <rect class="st0" width="1280" height="800"/>
    </clipPath>
    <clipPath id="clippath-2">
      <rect class="st0" width="1280" height="800"/>
    </clipPath>
    <clipPath id="clippath-3">
      <rect class="st0" width="1280" height="800"/>
    </clipPath>
    <clipPath id="clippath-4">
      <rect class="st0" width="1280" height="800"/>
    </clipPath>
    <clipPath id="clippath-5">
      <rect class="st0" width="1280" height="800"/>
    </clipPath>
    <clipPath id="clippath-6">
      <rect class="st0" width="1280" height="800"/>
    </clipPath>
    <clipPath id="clippath-7">
      <rect class="st0" width="1280" height="800"/>
    </clipPath>
  </defs>
  <g class="st10">
    <rect x="-3" y="-3" width="1286" height="806"/>
  </g>
  <path class="st1" d="M640,736.08V63.92M44.09,400h1191.83"/>
  <g class="st2">
    <path class="st9" d="M278.98,614.05l10.55-5.55c8.49-4.51,12.15-10.67,12.15-16.74,0-8.72-7.47-16.27-17.98-16.27-7.63,0-14.33,3.35-19.31,8.02l.16,11.84c4.52-4.83,9.81-7.87,14.56-7.87s8.64,2.49,8.64,7.24c0,3.5-1.95,6.54-5.37,10.43-4.83,5.6-12.46,13.24-18.53,19v2.1c13-.7,25.77-.7,38.77,0v-12.61c-7.86.56-15.71.87-23.63.41"/>
    <path class="st9" d="M250.36,528.69c6.68,0,9.39,5.39,9.44,13.08h-19.67c.33-7.73,3.58-13.08,10.23-13.08M271.15,554.7c-4.36,3.81-9.97,7.01-16.82,7.01-8.18,0-13.39-4.44-14.33-13.7h31.69v-2.02c0-15.26-7.24-26.08-21.65-26.08-13.24,0-22.27,10.74-22.27,25.46,0,15.73,9.81,25.62,23.82,25.62,7.63,0,14.09-2.18,19.54-6.7v-9.58Z"/>
    <path class="st9" d="M202.79,528.92c6.67,0,9.38,5.44,9.44,13.08h-19.67c.33-7.69,3.59-13.08,10.23-13.08M202.48,520.12c-13.24,0-22.27,10.74-22.27,25.38,0,15.81,9.81,25.69,23.83,25.69,7.63,0,14.09-2.18,19.54-6.7v-9.58c-4.36,3.82-9.97,7.09-16.82,7.09-8.18,0-13.39-4.52-14.33-13.78h31.69v-2.02c0-15.26-7.24-26.08-21.65-26.08"/>
    <path class="st9" d="M152.49,559.06h-9c-.39-7.06-.59-14.15-.61-21.26h10.55c5.61,0,11.29,2.8,11.29,10.51s-5.76,10.74-12.22,10.74M150.47,513.66c5.92,0,9.34,2.73,9.34,8.49,0,7.09-3.89,9.11-10.28,9.11h-6.62c.07-5.88.28-11.75.6-17.6h6.95ZM163.24,533.67c6.15-2.34,8.8-6.62,8.8-13.55,0-10.04-9.19-15.96-19.08-15.96h-23.12c1.71,21.57,1.71,43.21,0,64.78h26.08c12.07,0,20.94-5.22,20.94-17.99,0-9.26-5.14-14.87-13.62-17.28"/>
    <path class="st9" d="M376.03,561.47c-6.77,0-10.28-7.47-10.28-16.35s3.66-15.57,10.28-15.57c7.01,0,10.43,6.38,10.43,15.49,0,9.58-3.35,16.43-10.43,16.43M376.11,519.89c-12.3,0-23.05,9.5-23.05,25.23s10.2,25.85,23.05,25.85,23.2-9.19,23.2-25.85c0-15.81-10.82-25.23-23.2-25.23"/>
    <path class="st9" d="M431.08,521.53c-1.87,12.69-5.53,25.85-9.27,37.76-3.74-11.91-7.4-25.07-9.27-37.76h-14.56c6.15,15.81,10.98,31.61,15.03,47.42h17.05c4.05-15.8,8.88-31.61,14.95-47.42h-13.94Z"/>
    <path class="st9" d="M466.04,528.69c6.68,0,9.39,5.39,9.44,13.08h-19.67c.33-7.73,3.58-13.08,10.23-13.08M465.73,519.89c-13.24,0-22.27,10.74-22.27,25.46,0,15.73,9.81,25.62,23.83,25.62,7.63,0,14.09-2.18,19.54-6.7v-9.58c-4.36,3.81-9.97,7.01-16.82,7.01-8.18,0-13.39-4.44-14.33-13.7h31.69v-2.02c0-15.26-7.24-26.08-21.64-26.08"/>
    <path class="st9" d="M532.84,568.94c-1.56-10.67-1.56-21.33-1.17-32,.62-16.19-12.85-19.7-22.58-15.26l-4.96,6.25c.17-2.13.37-4.27.6-6.4h-14.02c1.71,15.81,1.71,31.61,0,47.42h14.02c-1.34-12.36-1.63-24.72-.88-37.08,7.54-3.94,15.85-3.46,16.14,4.92.39,10.74.39,21.41-1.17,32.16h14.02Z"/>
    <path class="st9" d="M326.28,601.96l-4.9,4.61v-17.54c8.33-.23,16.66-.23,25.15.23v-12.22c-11.68.47-23.12.47-34.8,0v32.86c2.88-.7,6.31-1.17,9.34-1.17,7.24,0,13.55,2.33,13.55,9.03,0,5.14-4.67,9.03-12.22,9.03-4.67,0-9.5-1.17-13.55-3.27v10.12c4.44,2.65,10.98,4.36,16.74,4.36,14.72,0,23.59-8.72,23.59-19.93,0-13.39-11.83-18.76-22.89-16.12"/>
    <path class="st9" d="M295.45,511.02h-14.02c.35,3.96.63,7.92.84,11.88-3.61-.09-7.21-.26-10.8-.51v9.58c3.71-.26,7.42-.43,11.14-.52.33,12.5-.06,25-1.17,37.5h14.02c-1.11-12.5-1.5-25-1.17-37.5,3.72.09,7.43.26,11.14.52v-9.58c-3.59.25-7.2.42-10.8.51.21-3.96.48-7.92.84-11.88"/>
    <path class="st9" d="M348.7,536.94c.62-16.2-12.85-19.7-22.58-15.26l-5.55,6.99c.17-7.71.57-15.41,1.19-23.11h-14.02c1.71,21.1,1.71,42.28,0,63.38h14.02c-1-12.28-1.41-24.58-1.25-36.88,7.64-4.15,16.22-3.79,16.51,4.72.39,10.74.39,21.41-1.17,32.16h14.01c-1.56-10.67-1.56-21.33-1.17-32"/>
    <path class="st9" d="M376.03,617.37c-6.77,0-10.28-7.48-10.28-16.35s3.66-15.57,10.28-15.57c7.01,0,10.43,6.38,10.43,15.49,0,9.58-3.35,16.43-10.43,16.43M376.11,575.8c-12.3,0-23.05,9.5-23.05,25.23s10.2,25.85,23.05,25.85,23.2-9.19,23.2-25.85c0-15.81-10.82-25.23-23.2-25.23"/>
  </g>
  <polygon class="st9" points="163.53 187.92 146.07 187.92 146.07 174.84 139.1 174.84 139.1 209.53 146.07 209.53 146.07 189.95 163.53 189.95 163.53 209.53 170.5 209.53 170.5 174.84 163.53 174.84 163.53 187.92"/>
  <path class="st9" d="M195.58,196.92h-14.5l7.13-15.68,7.37,15.68ZM180.16,198.96h16.38l4.97,10.57h7.67l-16.29-34.69h-3.99l-16.29,34.69h2.74l4.8-10.57Z"/>
  <g class="st5">
    <path class="st9" d="M219.83,265.29c0,6.66-1.8,11.28-5.79,14.49-2.98,2.03-7.13,2.97-11.2,2.97s-8.22-.94-11.2-2.97c-3.99-3.21-5.79-7.83-5.79-14.49v-47.77h-13v41.89c0,9.71,3.13,16.44,10.34,21.06,5.17,3.05,12.45,4.46,19.65,4.46s14.49-1.41,19.65-4.46c7.2-4.62,10.34-11.35,10.34-21.06v-41.89h-13v47.77Z"/>
  </g>
  <rect class="st9" x="211.06" y="174.84" width="6.97" height="34.69"/>
  <g class="st3">
    <path class="st9" d="M144.89,245l-10.18-1.96c-9.63-1.88-14.49-5.72-14.49-12.29,0-7.67,6.26-12.68,15.58-12.68,10.73,0,17.46,6.58,17.46,19.5h12.61c0-14.72-13.78-21.77-27.72-21.77s-27.25,7.05-27.25,20.28c0,11.67,10.73,16.99,19.81,18.87l11.9,2.51c9.71,2.04,14.64,5.95,14.64,12.61,0,7.75-6.5,12.76-16.13,12.76-11.35,0-18.56-7.13-18.56-20.36h-13.08c0,14.17,10.96,22.55,29.6,22.55,16.99,0,28.19-7.44,28.19-20.05,0-13.47-12.69-18.09-22.4-19.97"/>
  </g>
  <polygon class="st9" points="118.42 209.53 125.39 209.53 125.39 175.86 136.51 178.29 136.51 174.84 107.3 174.84 107.3 178.29 118.42 175.86 118.42 209.53"/>
  <g class="st4">
    <path class="st9" d="M314.11,176.72c5.95,0,9.08,3.68,9.08,8.93,0,5.64-3.13,9-9.08,9h-6.27v-17.93h6.27ZM307.85,196.53h8.3c8.69,0,14.17-3.76,14.17-10.88s-5.48-10.81-14.17-10.81h-15.27v34.69h6.97v-13Z"/>
  </g>
  <polygon class="st9" points="363.21 283.45 413.01 283.45 413.01 273.74 376.21 281.65 376.21 245.24 404.87 249.62 404.87 239.05 376.21 243.44 376.21 219.32 413.01 227.23 413.01 217.52 363.21 217.52 363.21 283.45"/>
  <g class="st8">
    <path class="st9" d="M274.88,207.02c-5.72,0-9.55-4.39-9.55-9.95,0-9.4,9.48-19.81,18.79-19.81,5.64,0,9.48,4.31,9.48,9.95,0,9.4-9.48,19.81-18.71,19.81M279.58,173.9c-10.81,0-18.71,8.14-18.71,18.25s7.91,18.32,18.71,18.32,18.32-8.14,18.32-18.32c.23-10.1-7.91-18.25-18.32-18.25"/>
    <path class="st9" d="M313.95,256.36v-36.49h11.75c12.37,0,18.79,7.12,18.79,18.24s-6.42,18.25-18.79,18.25h-11.75ZM357.81,238.03c0-13.39-10.34-20.52-26.39-20.52h-30.46v65.93h13v-24.73c4.86,14.88,17.63,24.73,34.85,24.73h5.48v-11.51h-6.89c-15.42,0-25.68-4.13-31.78-13.23h15.81c16.05,0,26.39-7.2,26.39-20.67"/>
    <path class="st9" d="M264.47,256.36h-11.75v-36.49h11.75c12.37,0,18.79,7.13,18.79,18.24s-6.42,18.25-18.79,18.25M270.18,217.52h-30.46v65.93h13v-24.74h17.46c16.05,0,26.39-7.2,26.39-20.67s-10.34-20.52-26.39-20.52"/>
    <path class="st9" d="M242.62,176.72c5.95,0,9.08,3.68,9.08,8.93,0,5.64-3.13,9-9.08,9h-6.26v-17.93h6.26ZM244.65,196.53c8.69,0,14.17-3.76,14.17-10.88s-5.48-10.81-14.17-10.81h-15.27v34.69h6.97v-13h8.3Z"/>
  </g>
  <polygon class="st9" points="484.74 217.75 458.68 273.15 432.83 217.52 419.28 217.52 419.28 283.45 423.27 283.45 421.96 224.59 449.35 283.45 456.87 283.45 484.74 225.56 484.74 283.45 497.58 283.45 497.58 217.52 484.74 217.52 484.74 217.75"/>
  <polygon class="st9" points="555.38 227.23 555.38 217.52 505.57 217.52 505.57 283.45 555.38 283.45 555.38 273.74 518.57 281.65 518.57 245.24 547.23 249.62 547.23 239.05 518.57 243.44 518.57 219.32 555.38 227.23"/>
  <g class="st7">
    <path class="st9" d="M794.56,216.9c.83,1.57,2.16,2.75,3.99,3.52,1.83.77,4.25,1.16,7.26,1.16h97.97c3.01,0,5.43-.39,7.26-1.16,1.83-.78,3.16-1.95,3.99-3.52s1.25-3.6,1.25-6.08v-5.45c0-2.44-.42-4.43-1.26-5.98-.84-1.55-2.18-2.7-4.01-3.46-1.83-.75-4.24-1.13-7.23-1.13h-97.97c-2.99,0-5.4.38-7.23,1.13-1.83.75-3.16,1.91-4,3.46-.84,1.55-1.26,3.54-1.26,5.98v5.45c0,2.48.42,4.51,1.25,6.08M788,230.18c-4.72-1.96-8.25-4.8-10.6-8.52-2.35-3.72-3.52-8.23-3.52-13.53s1.17-9.79,3.51-13.49c2.34-3.7,5.87-6.52,10.6-8.46,4.73-1.94,10.62-2.91,17.66-2.91h98.3c7.05,0,12.93.97,17.66,2.91,4.73,1.94,8.26,4.76,10.6,8.46,2.34,3.7,3.51,8.2,3.51,13.49s-1.18,9.8-3.52,13.53c-2.35,3.72-5.88,6.56-10.6,8.52-4.72,1.96-10.6,2.94-17.65,2.94h-98.3c-7.04,0-12.93-.98-17.65-2.94"/>
  </g>
  <polygon class="st9" points="958.61 186.26 958.61 232.02 941.53 232.02 941.53 184.37 979.11 184.37 1017.16 230.13 1017.16 184.37 1034.24 184.37 1034.24 232.02 996.66 232.02 958.61 186.26"/>
  <polygon class="st9" points="1133.6 184.37 1133.6 195.33 1057.94 195.33 1057.94 202.51 1132.37 202.51 1132.37 213.38 1057.94 213.38 1057.94 221.06 1133.6 221.06 1133.6 232.02 1040.89 232.02 1040.89 184.37 1133.6 184.37"/>
  <polygon class="st9" points="851.3 284.69 835.35 284.69 835.35 239.72 827.05 284.69 798.47 284.69 790.16 239.72 790.16 284.69 774.54 284.69 774.54 237.03 805.28 237.03 813.09 282.73 820.9 237.03 851.3 237.03 851.3 284.69"/>
  <polygon class="st9" points="934.22 248.33 904.44 248.33 904.44 273.39 934.22 273.39 934.22 284.69 857.78 284.69 857.78 273.39 887.49 273.39 887.49 248.33 857.78 248.33 857.78 237.03 934.22 237.03 934.22 248.33"/>
  <polygon class="st9" points="940.86 270.73 974.29 265.88 1010.81 261.09 1010.81 260.63 974.29 255.84 940.86 250.99 940.86 236.7 1037.23 253.71 1133.6 236.7 1133.6 250.99 1100.17 255.84 1063.65 260.63 1063.65 261.09 1100.17 265.88 1133.6 270.73 1133.6 285.02 1037.23 268 940.86 285.02 940.86 270.73"/>
  <g class="st6">
    <path class="st9" d="M802.05,608.53c10.82,0,21.22-3.05,30.1-9.15v-7.35c-8.46,8.88-18.59,13.18-28.85,13.18-23.86,0-36.34-21.78-36.34-42.59,0-19.28,10.54-37.87,32.74-37.87,11.37,0,23.58,5.83,33.01,18.31v-13.59c-9.85-5.69-20.25-8.32-30.38-8.32-30.52,0-45.92,21.92-45.92,43.83s15.12,43.56,45.64,43.56M838.95,606.45h50.08v-9.71l-40.09,8.04v-81.57h-9.99v83.23ZM913.03,606.45c3.75,1.11,8.6,2.22,13.46,2.22,13.87,0,26.22-10.54,26.22-23.3,0-7.49-2.77-12.76-10.13-19.14l-12.48-10.96c-6.38-5.27-9.57-9.43-9.57-15.54,0-7.07,4.85-13.18,12.62-13.18,6.1,0,10.68,3.33,16.37,8.18l2.64-10.82c-4.44-1.67-7.91-2.64-12.62-2.64-14.57,0-25.94,10.82-25.94,24,0,7.35,3.47,12.76,10.68,18.87l12.35,10.54c5.55,4.85,8.88,9.71,8.88,15.68,0,7.35-6.24,13.32-14.29,13.32-3.19,0-6.52-1.25-9.85-3.19l-31.07-67.28h-2.77l-26.36,56.6,8.18-1.66,5.69-15.4h22.75l15.26,33.71ZM882.65,529.6l24.97-4.44-1.53-5.83-24.14,7.21.69,3.05ZM876.68,568.44l8.6-23.3,10.54,23.3h-19.14ZM969.62,607.83c13.87,0,26.22-9.71,26.22-23.3,0-7.49-2.91-12.76-11.65-20.25l-10.96-9.29c-6.24-5.41-9.99-9.71-9.99-15.81,0-6.94,5.69-12.62,12.62-12.62s12.9,4.58,19.97,10.96v-13.46c-4.58-1.8-8.74-2.77-13.59-2.77-14.57,0-25.94,10.12-25.94,24,0,7.35,3.75,12.76,12.35,19.98l10.96,9.29c5.69,4.85,8.88,9.29,8.88,15.26,0,7.07-5.69,12.76-12.62,12.76-6.24,0-12.76-3.75-18.03-8.05l-1.66,11.1c3.74,1.11,8.6,2.22,13.46,2.22M1005.27,606.45h9.99v-83.09h-9.99v83.09ZM1068.53,608.53c11.1,0,21.78-3.19,30.8-9.71v-7.49c-8.6,9.43-19,13.87-29.55,13.87-23.86,0-36.34-21.78-36.34-42.59,0-19.28,10.54-37.87,32.74-37.87,9.29,0,19.14,3.88,27.61,12.07v-10.13c-8.19-3.75-16.65-5.55-24.97-5.55-30.52,0-45.91,21.92-45.91,43.83s15.12,43.56,45.64,43.56M1139.69,606.45h11.38l-38.15-83.92h-3.05l-31.21,68.39,8.74-2.64,9.29-24.41h24.14l18.87,42.59ZM1098.49,559.42l9.43-24.83,10.96,24.83h-20.39Z"/>
  </g>
</svg>