<?xml version="1.0" encoding="UTF-8"?>
<svg id="Layer_1" xmlns="http://www.w3.org/2000/svg" version="1.1" viewBox="0 0 1280 800">
  <!-- Generator: Adobe Illustrator 29.8.2, SVG Export Plug-In . SVG Version: 2.1.1 Build 3)  -->
  <defs>
    <style>
      .st0 {
        fill: #fbfbfb;
      }
    </style>
  </defs>
  <rect class="st0" width="1280" height="800"/>
  <g>
    <path d="M119.11,174.77c-9.73,0-10.37-1.28-10.37-11.52v-20.48l31.75,42.88h30.21v-10.88c-1.54-.77-6.78-4.1-13.31-8.7l-31.11-21.76h.9c12.03,0,17.15-1.41,20.87-2.69,11.78-4.74,17.92-14.85,17.92-25.22s-6.14-19.84-17.54-24.58c-4.1-1.66-8.96-2.69-21.25-2.69h-52.23v10.88c11.78,0,12.67,1.28,12.67,11.52v51.71c0,10.24-.9,11.52-12.67,11.52v10.88h44.16v-10.88ZM108.74,102.57h12.54c6.66,0,11.14.9,13.95,2.56,4.35,2.82,6.53,7.55,6.53,12.67s-2.18,9.98-6.53,12.8c-2.82,1.79-7.3,2.56-13.95,2.56h-12.54v-30.59Z"/>
    <path d="M209.47,188.21c14.98,0,25.22-9.73,30.21-22.91l-9.22-4.22c-3.71,6.91-9.86,9.98-16.38,9.98-9.6,0-16.51-7.68-17.92-18.56h42.24c.51-2.05.77-4.22.77-6.4,0-13.95-9.98-27.78-28.8-27.78s-33.79,14.85-33.79,35.33c.13,19.58,14.21,34.56,32.9,34.56ZM208.32,130.22c6.27,0,10.5,4.48,10.62,11.39h-22.4c1.41-7.17,5.63-11.39,11.78-11.39Z"/>
    <path d="M281.28,188.21c14.98,0,25.35-9.73,30.21-22.91l-9.22-4.22c-3.46,6.14-9.09,9.73-16.13,9.73-10.75,0-18.18-9.73-18.18-22.53,0-10.5,5.25-17.41,13.06-17.41,4.86,0,7.94,3.2,8.7,8.19,1.15,6.02,4.99,9.86,10.62,9.86,6.4,0,10.75-4.74,10.75-11.01,0-11.39-14.08-19.58-28.55-19.58-19.2,0-34.18,14.46-34.18,35.33.13,19.46,14.21,34.56,32.9,34.56Z"/>
    <path d="M354.62,188.21c19.71,0,34.82-14.08,34.82-34.69s-14.59-35.2-34.95-35.2-34.82,13.44-34.82,34.69,14.34,35.2,34.95,35.2ZM354.37,130.86c8.96,0,13.57,9.09,13.57,23.04s-4.48,21.76-13.06,21.76c-9.09,0-13.57-8.83-13.57-23.04s4.35-21.76,13.06-21.76Z"/>
    <path d="M405.82,167.21c0,7.68-1.02,8.7-9.73,8.7v9.73h39.3v-9.73c-8.83,0-9.86-1.02-9.86-8.7v-18.82c0-5.5,3.84-8.7,8.7-8.7,3.71,0,6.14.9,9.6.9,6.27,0,11.52-5.12,11.52-11.26s-5.38-10.88-11.78-10.88c-7.3,0-13.18,4.61-17.02,13.06h-1.28l.26-13.18h-2.56c-7.55,2.56-19.07,5.25-27.78,7.04v9.73h10.62v32.13Z"/>
    <path d="M486.33,188.21c8.19,0,15.1-3.71,19.2-9.98h1.02v.13h.26l-.13,8.96,30.21-1.66v-9.73c-9.47-.13-10.62-1.02-10.62-8.19v-80.52h-2.56c-7.55,2.43-19.07,5.25-27.78,6.91v9.73h10.62v16.26c-4.1-1.15-8.19-1.79-12.16-1.79-19.58,0-35.07,14.21-35.07,37.25,0,21.38,12.8,32.64,27.01,32.64ZM495.04,130.22c4.35,0,8.45,1.79,11.52,4.86v29.06c-3.33,5.12-8.32,8.06-13.31,8.06-8.96,0-12.8-9.22-12.8-20.48s4.22-21.51,14.59-21.51Z"/>
    <path d="M603.09,188.21c8.96,0,20.23-3.2,30.34-10.62l7.42,8.06h28.67v-9.73c-3.46-1.92-10.37-6.66-16.38-11.39l-4.35-3.33c3.2-4.86,5.89-10.37,7.81-16.77,1.79-6.53,4.48-8.58,11.39-8.96v-9.86h-33.03v9.86c5.5.26,7.3,2.56,7.3,7.42.13,3.33-1.41,6.91-3.71,10.37l-24.83-18.94c12.54-6.53,21.51-13.95,21.51-25.98,0-12.8-12.67-21.25-27.01-21.25-16.51,0-28.8,9.73-28.8,24.19,0,8.19,3.97,14.34,11.14,20.99-13.95,7.42-20.74,16.13-20.74,27.91,0,16.26,14.46,28.03,33.28,28.03ZM608.09,99.11c4.48,0,8.83,3.33,8.83,9.6s-3.97,12.03-11.01,16.13c-4.1-4.99-7.04-10.24-7.04-15.49,0-6.66,4.48-10.24,9.22-10.24ZM600.41,141.36l23.68,25.86c-4.99,3.2-10.5,5.12-15.62,5.12-9.6,0-16.77-6.27-16.77-15.62,0-6.27,2.82-11.14,8.7-15.36Z"/>
    <path d="M738.03,174.77h-4.74c-4.48-.13-6.53-1.28-6.53-4.22,0-1.41.64-3.58,1.54-5.89l2.18-5.63h36.99l1.92,4.86c.77,2.18,1.66,4.61,1.66,6.27,0,3.07-2.05,4.48-6.91,4.61h-4.74v10.88h46.34v-10.88c-7.42,0-10.24-2.3-13.83-11.52l-29.57-74.63h-19.84l-28.93,73.73c-3.84,9.73-6.66,12.42-14.21,12.42v10.88h38.66v-10.88ZM749.04,111.53l13.31,34.43h-26.75l13.44-34.43Z"/>
    <path d="M821.74,167.21c0,7.68-1.02,8.7-9.73,8.7v9.73h39.3v-9.73c-8.83,0-9.86-1.02-9.86-8.7v-18.82c0-5.5,3.84-8.7,8.7-8.7,3.71,0,6.14.9,9.6.9,6.27,0,11.52-5.12,11.52-11.26s-5.38-10.88-11.78-10.88c-7.3,0-13.18,4.61-17.03,13.06h-1.28l.26-13.18h-2.56c-7.55,2.56-19.07,5.25-27.78,7.04v9.73h10.62v32.13Z"/>
    <path d="M908.4,188.21c14.98,0,25.34-9.73,30.21-22.91l-9.22-4.22c-3.46,6.14-9.09,9.73-16.13,9.73-10.75,0-18.18-9.73-18.18-22.53,0-10.5,5.25-17.41,13.06-17.41,4.86,0,7.94,3.2,8.7,8.19,1.15,6.02,4.99,9.86,10.62,9.86,6.4,0,10.75-4.74,10.75-11.01,0-11.39-14.08-19.58-28.54-19.58-19.2,0-34.18,14.46-34.18,35.33.13,19.46,14.21,34.56,32.9,34.56Z"/>
    <path d="M953.2,167.21c0,7.68-1.02,8.7-9.73,8.7v9.73h38.53v-9.73c-8.06,0-8.96-1.02-8.96-8.7v-24.83c3.33-4.99,8.19-8.06,13.44-8.06,3.2,0,6.02,1.02,7.81,3.33,2.05,2.18,2.94,5.38,2.94,9.73v19.84c0,7.68-.9,8.7-9.09,8.7v9.73h38.53v-9.73c-8.7,0-9.73-1.02-9.73-8.7v-23.55c0-7.81-2.18-13.95-6.27-18.18-4.1-4.48-10.37-7.17-17.28-7.17-8.19,0-15.23,3.71-19.33,9.98h-1.28l.26-41.09h-2.56c-7.68,2.43-19.2,5.25-27.91,6.91v9.73h10.62v63.36Z"/>
    <path d="M1042.54,167.21c0,7.68-1.02,8.7-9.73,8.7v9.73h39.04v-9.73c-8.58,0-9.6-1.02-9.6-8.7v-48.9h-2.56c-7.55,2.56-19.07,5.25-27.78,7.04v9.73h10.62v32.13Z"/>
    <path d="M1052.01,111.02c7.55,0,13.83-6.14,13.83-13.57s-6.27-13.31-13.83-13.31-13.95,6.14-13.95,13.31,6.27,13.57,13.95,13.57Z"/>
    <path d="M1081.06,138.67l19.07,47.49h18.95l18.82-46.72c2.94-7.55,4.86-8.7,9.86-8.7v-9.86h-29.06v9.86h3.2c2.18,0,3.58.9,3.58,2.69,0,1.02-.51,2.3-1.28,4.22l-11.01,27.91-10.75-27.52c-.77-2.3-1.28-3.33-1.28-4.48,0-1.54,1.15-2.82,3.46-2.82h2.82v-9.86h-35.97v9.86c4.99,0,6.78,1.15,9.6,7.94Z"/>
    <path d="M1183.72,188.21c14.98,0,25.22-9.73,30.21-22.91l-9.22-4.22c-3.71,6.91-9.86,9.98-16.38,9.98-9.6,0-16.51-7.68-17.92-18.56h42.24c.51-2.05.77-4.22.77-6.4,0-13.95-9.98-27.78-28.8-27.78s-33.79,14.85-33.79,35.33c.13,19.58,14.21,34.56,32.9,34.56ZM1182.57,130.22c6.27,0,10.5,4.48,10.62,11.39h-22.4c1.41-7.17,5.63-11.39,11.78-11.39Z"/>
    <path d="M79.42,252.59h12.54c7.17-15.49,13.95-21.38,29.31-21.76l-11.39,60.55c-1.92,10.24-3.46,11.39-16.77,11.39l-2.18,10.88h50.69l2.18-10.88c-13.31,0-14.46-.9-12.54-11.14l11.39-60.8c16.26.13,20.99,5.25,21.76,21.76h12.03v-35.46h-84.23l-12.8,35.46Z"/>
    <path d="M218.56,302.77c-11.52,0-12.42-.9-10.5-11.14l9.86-52.23c1.92-10.24,3.33-11.39,14.72-11.39l1.92-10.88h-46.59l-1.92,10.88c11.52,0,12.29.9,10.37,11.14l-9.73,52.23c-1.92,10.24-3.33,11.39-14.72,11.39l-1.92,10.88h46.59l1.92-10.88Z"/>
    <path d="M225.47,302.77l-2.05,10.88h40.83l2.05-10.88c-11.52,0-11.9-.77-8.45-10.62l19.84-57.73,4.35,79.75h18.18l37.25-79.75v56.71c0,10.37-.9,11.65-12.16,11.65l-1.92,10.88h46.21l1.92-10.88c-11.39,0-12.93-.9-12.93-11.39v-51.71c0-10.37.77-11.65,12.16-11.65l1.92-10.88h-42.63l-28.93,61.96-3.33-61.96h-43.78l-1.92,10.88c11.52,0,11.78.77,8.45,10.62l-18.43,53.25c-3.33,9.86-5.38,10.88-16.64,10.88Z"/>
    <path d="M393.66,291.37c-1.92,10.24-3.46,11.39-14.72,11.39l-2.05,10.88h86.53l12.8-35.46h-12.54c-7.42,16-14.34,21.76-30.85,21.76h-19.33l5.25-27.78h7.17c10.11,0,11.26.9,9.34,13.82h10.88l6.14-41.22h-10.88c-1.92,13.06-3.33,13.82-13.57,13.82h-6.66l5.25-27.78h17.79c16.64,0,21.5,5.12,22.4,21.76h11.9v-35.46h-83.59l-1.92,10.88c11.39,0,12.29.9,10.37,11.14l-9.73,52.23Z"/>
    <path d="M539.58,228.01l1.92-10.88h-46.59l-1.92,10.88c11.52,0,12.29.9,10.37,11.14l-9.73,52.23c-1.92,10.24-3.33,11.39-14.72,11.39l-1.92,10.88h83.33l14.46-40.07h-12.54c-7.94,19.71-15.49,26.37-33.41,26.37h-15.36l11.39-60.55c1.92-10.24,3.33-11.39,14.72-11.39Z"/>
    <path d="M588.48,228.01c11.39,0,12.29.9,10.37,11.14l-9.73,52.23c-1.92,10.24-3.46,11.39-14.72,11.39l-2.05,10.88h86.53l12.8-35.46h-12.54c-7.42,16-14.34,21.76-30.85,21.76h-19.33l5.25-27.78h7.17c10.11,0,11.26.9,9.34,13.82h10.88l6.14-41.22h-10.88c-1.92,13.06-3.33,13.82-13.57,13.82h-6.66l5.25-27.78h17.79c16.64,0,21.5,5.12,22.4,21.76h11.9v-35.46h-83.59l-1.92,10.88Z"/>
    <path d="M699.33,303.92c8.45,8.83,18.3,12.29,28.16,12.29,19.33,0,35.71-12.42,35.71-30.47,0-11.52-6.66-19.58-18.31-25.86l-14.98-8.58c-6.53-3.71-10.62-6.78-10.62-12.16,0-6.78,6.4-10.75,14.46-10.75,13.7,0,22.66,12.54,29.44,24.19h11.26v-35.71h-9.34l-7.42,8.83c-7.68-7.55-17.28-10.5-26.88-10.5-19.46,0-33.79,11.65-33.79,28.67,0,11.39,6.4,19.07,18.05,25.47l14.34,8.32c7.3,4.22,11.01,7.94,11.01,13.06,0,6.66-6.14,11.65-14.98,11.65-14.85,0-25.73-14.21-32.64-28.8h-11.26v40.32h9.34l8.45-9.98Z"/>
    <path d="M854.85,285.74c0-11.52-6.66-19.58-18.31-25.86l-14.98-8.58c-6.53-3.71-10.62-6.78-10.62-12.16,0-6.78,6.4-10.75,14.46-10.75,13.7,0,22.66,12.54,29.44,24.19h11.26v-35.71h-9.34l-7.42,8.83c-7.68-7.55-17.28-10.5-26.88-10.5-19.46,0-33.79,11.65-33.79,28.67,0,11.39,6.4,19.07,18.05,25.47l14.34,8.32c7.3,4.22,11.01,7.94,11.01,13.06,0,6.66-6.14,11.65-14.98,11.65-14.85,0-25.73-14.21-32.64-28.8h-11.26v40.32h9.34l8.45-9.98c8.45,8.83,18.3,12.29,28.16,12.29,19.33,0,35.71-12.42,35.71-30.47Z"/>
    <path d="M908.09,291.37c-1.92,10.24-3.46,11.39-14.72,11.39l-2.05,10.88h86.53l12.8-35.46h-12.54c-7.42,16-14.34,21.76-30.85,21.76h-19.33l5.25-27.78h7.17c10.11,0,11.26.9,9.34,13.82h10.88l6.14-41.22h-10.88c-1.92,13.06-3.33,13.82-13.57,13.82h-6.66l5.25-27.78h17.79c16.64,0,21.5,5.12,22.4,21.76h11.9v-35.46h-83.59l-1.92,10.88c11.39,0,12.29.9,10.37,11.14l-9.73,52.23Z"/>
    <path d="M1008.19,291.37c-1.92,10.24-3.46,11.39-14.72,11.39l-2.05,10.88h44.67l1.66-10.88c-9.47,0-10.11-.9-8.19-11.14l3.97-21.25,27.01,43.27h27.14l2.05-10.88c-1.41-.77-6.02-4.1-11.78-8.7l-27.39-21.76h3.07c12.16,0,17.41-1.28,21.25-2.69,12.54-4.86,20.61-16,20.61-27.52,0-9.09-5.25-17.92-15.23-22.27-3.97-1.54-8.83-2.69-21.12-2.69h-49.79l-1.92,10.88c11.52,0,12.29.9,10.37,11.14l-9.6,52.23ZM1040.96,230.57h11.26c6.66,0,11.01.77,13.7,2.56,3.58,2.3,5.25,6.27,5.25,10.75,0,5.5-2.82,11.52-8.06,14.72-3.07,1.79-7.55,2.56-14.21,2.56h-13.7l5.76-30.59Z"/>
    <path d="M1202.88,302.77c-7.68,0-9.6-1.54-11.65-11.26l-15.62-74.88h-19.84l-43.65,75.27c-5.25,8.96-8.32,10.88-15.75,10.88l-1.92,10.88h39.81l1.92-10.88h-5.25c-3.33-.13-5.25-1.02-5.25-3.33,0-1.41.77-3.33,2.43-6.4l3.46-6.02h37.12l.9,4.48c.26,1.41.64,3.58.64,4.99,0,4.1-2.3,6.14-6.78,6.27h-6.02l-2.05,10.88h45.57l1.92-10.88ZM1139.13,273.96l20.1-34.69,6.91,34.69h-27.01Z"/>
    <path d="M178.96,434.35c6.14-4.74,9.73-11.26,9.73-19.46,0-14.72-11.78-22.27-25.6-23.43v-1.28c11.39-1.54,20.86-8.83,20.74-20.86,0-7.81-3.46-13.82-9.22-17.79-6.4-4.74-15.23-6.4-27.65-6.4h-48.64v10.88c11.78,0,12.67,1.28,12.67,11.52v51.71c0,10.24-.9,11.52-12.67,11.52v10.88h50.95c14.34,0,23.3-2.43,29.7-7.3ZM132.11,358.44h11.26c6.4,0,10.5,1.28,13.18,3.46,2.69,2.3,4.1,5.5,4.1,9.34,0,4.1-1.41,7.3-4.22,9.73-2.69,2.43-6.78,3.71-13.06,3.71h-11.26v-26.24ZM132.11,428.33v-30.34h12.93c7.04,0,11.9,1.54,15.23,4.35,2.94,2.69,4.61,6.4,4.61,11.01,0,4.1-1.41,7.81-3.97,10.5-3.46,3.33-8.45,4.48-14.59,4.48h-14.21Z"/>
    <path d="M231.31,444.21c14.98,0,25.22-9.73,30.21-22.91l-9.22-4.22c-3.71,6.91-9.86,9.98-16.38,9.98-9.6,0-16.51-7.68-17.92-18.56h42.24c.51-2.05.77-4.22.77-6.4,0-13.95-9.98-27.78-28.8-27.78s-33.79,14.85-33.79,35.33c.13,19.58,14.21,34.56,32.9,34.56ZM230.16,386.22c6.27,0,10.5,4.48,10.62,11.39h-22.4c1.41-7.17,5.63-11.39,11.78-11.39Z"/>
    <path d="M272.91,441.65h51.84l7.17-27.14h-10.24c-3.07,9.09-7.04,11.26-16.38,11.26h-10.88l34.56-35.97v-12.93h-52.74l-7.17,27.27h10.24c3.07-9.09,7.04-11.39,16.26-11.39h11.9l-34.56,35.97v12.93Z"/>
    <path d="M402.06,402.09c0-13.95-9.98-27.78-28.8-27.78s-33.79,14.85-33.79,35.33c.13,19.58,14.21,34.56,32.9,34.56,14.98,0,25.22-9.73,30.21-22.91l-9.22-4.22c-3.71,6.91-9.86,9.98-16.38,9.98-9.6,0-16.51-7.68-17.92-18.56h42.24c.51-2.05.77-4.22.77-6.4ZM359.44,397.61c1.41-7.17,5.63-11.39,11.78-11.39s10.5,4.48,10.62,11.39h-22.4Z"/>
    <path d="M434.7,343.21c-7.68,2.43-19.2,5.25-27.91,6.91v9.73h10.62v63.36c0,7.68-1.02,8.7-9.73,8.7v9.73h39.3v-9.73c-8.83,0-9.73-1.02-9.73-8.7v-80h-2.56Z"/>
    <path d="M494.11,374.7c-7.55,0-13.82,6.14-13.82,13.31s6.27,13.57,13.82,13.57,13.95-6.14,13.95-13.57-6.27-13.31-13.95-13.31Z"/>
    <path d="M494.11,417.07c-7.55,0-13.82,6.14-13.82,13.31s6.27,13.57,13.82,13.57,13.95-6.14,13.95-13.57-6.27-13.31-13.95-13.31Z"/>
    <path d="M558.62,430.77h-10.62v10.88h59.27v-10.88h-7.3c-9.6,0-9.98-.38-9.98-10.37v-76.55h-11.14l-36.87,30.34,8.06,10.11,18.94-15.62v51.71c0,9.98-.51,10.37-10.37,10.37Z"/>
    <path d="M614.3,371.12l9.6,6.91c6.53-8.83,13.82-14.85,22.4-14.85s15.62,6.27,15.62,15.62c0,4.48-1.54,9.22-5.25,14.21-3.84,5.38-9.22,10.62-16.9,17.15l-24.19,20.74v10.75h69.51l8.45-31.87h-11.26c-3.71,10.88-8.45,13.7-20.22,13.7h-18.69l14.08-9.98c9.6-6.53,16.26-12.93,20.87-19.07,4.22-5.63,7.3-12.03,7.3-19.97,0-17.92-14.85-31.36-32.13-31.36-16.26,0-30.34,11.65-39.17,28.03Z"/>
    <path d="M742.56,343.21c-24.07,0-39.68,19.71-39.68,50.43s15.75,50.56,39.81,50.56,39.55-19.71,39.55-50.56-15.49-50.43-39.68-50.43ZM742.69,430.38c-11.26,0-16-12.54-16-36.99s4.61-36.48,15.87-36.48,15.87,12.42,15.87,36.99-4.74,36.48-15.75,36.48Z"/>
    <rect x="797.98" y="394.03" width="40.96" height="16.9"/>
    <path d="M883.87,444.21c14.98,0,25.34-9.73,30.21-22.91l-9.22-4.22c-3.46,6.14-9.09,9.73-16.13,9.73-10.75,0-18.18-9.73-18.18-22.53,0-10.5,5.25-17.41,13.06-17.41,4.86,0,7.94,3.2,8.7,8.19,1.15,6.02,4.99,9.86,10.62,9.86,6.4,0,10.75-4.74,10.75-11.01,0-11.39-14.08-19.58-28.54-19.58-19.2,0-34.18,14.46-34.18,35.33.13,19.46,14.21,34.56,32.9,34.56Z"/>
    <path d="M918.94,431.92v9.73h39.3v-9.73c-8.83,0-9.73-1.02-9.73-8.7v-80h-2.56c-7.68,2.43-19.2,5.25-27.91,6.91v9.73h10.62v63.36c0,7.68-1.02,8.7-9.73,8.7Z"/>
    <path d="M964.38,431.92v9.73h39.04v-9.73c-8.58,0-9.6-1.02-9.6-8.7v-48.9h-2.56c-7.55,2.56-19.07,5.25-27.78,7.04v9.73h10.62v32.13c0,7.68-1.02,8.7-9.73,8.7Z"/>
    <path d="M997.4,353.45c0-7.17-6.27-13.31-13.83-13.31s-13.95,6.14-13.95,13.31,6.27,13.57,13.95,13.57,13.83-6.14,13.83-13.57Z"/>
    <path d="M1070.49,421.29l-9.22-4.22c-3.46,6.14-9.09,9.73-16.13,9.73-10.75,0-18.18-9.73-18.18-22.53,0-10.5,5.25-17.41,13.06-17.41,4.86,0,7.94,3.2,8.7,8.19,1.15,6.02,4.99,9.86,10.62,9.86,6.4,0,10.75-4.74,10.75-11.01,0-11.39-14.08-19.58-28.54-19.58-19.2,0-34.18,14.46-34.18,35.33.13,19.46,14.21,34.56,32.9,34.56,14.98,0,25.34-9.73,30.21-22.91Z"/>
    <path d="M1129.63,441.65h27.52v-9.73c-1.66-.77-6.4-3.97-12.29-7.94l-23.68-16,19.33-14.21c7.04-5.25,10.37-6.78,14.98-7.04v-9.86h-39.55v9.86h1.28c2.94,0,5.25,1.02,5.25,3.58,0,1.92-1.28,3.84-3.97,6.14l-13.57,10.5v-63.75h-2.56c-7.68,2.43-19.2,5.25-27.91,6.91v9.73h10.62v63.36c0,7.68-1.02,8.7-9.73,8.7v9.73h36.23v-9.73c-6.02,0-6.66-1.02-6.66-8.7v-14.59l24.71,33.03Z"/>
    <path d="M1204.51,402.22l-12.42-4.61c-4.74-1.79-8.19-3.33-8.32-6.78s3.33-5.25,7.42-5.25c7.68-.13,14.34,4.86,22.79,14.72h10.24l-6.53-24.71h-8.19l-3.2,4.48c-5.12-3.97-11.65-5.76-17.92-5.76-13.31,0-24.83,7.3-24.71,20.1.13,10.88,8.32,17.03,19.84,21.25l12.29,4.48c5.25,1.92,8.32,3.71,8.32,7.17.13,3.46-3.71,5.5-8.06,5.5-8.19,0-16.51-6.53-24.71-16.9h-10.24l7.17,27.01h8.06l3.71-4.99c5.89,4.22,12.42,6.27,18.94,6.27,13.18,0,25.6-7.81,25.35-21.25-.13-10.75-8.96-16.77-19.84-20.74Z"/>
    <path d="M95.68,558.77h-10.62l-1.92,10.88h59.65l1.92-10.88h-7.42c-9.6,0-9.86-.26-8.06-10.11l14.46-76.8h-11.14l-44.42,28.16,6.53,10.62,23.17-14.59-9.86,52.23c-1.79,9.86-2.56,10.5-12.29,10.5Z"/>
    <path d="M236.87,509.36c0-25.09-14.46-38.15-33.79-38.15-37.89,0-48.26,44.42-48.26,62.98,0,24.96,14.46,38.02,33.92,38.02,37.76,0,48.13-44.67,48.13-62.85ZM177.6,540.08c0-10.37,4.99-55.3,24.32-55.3,7.42,0,12.03,5.38,12.03,18.3,0,10.5-5.12,55.43-24.32,55.43-7.42,0-12.03-5.5-12.03-18.43Z"/>
    <path d="M340.67,558.77l-1.92,10.88h46.59l1.92-10.88c-11.52,0-12.42-.9-10.5-11.14l9.86-52.23c1.92-10.24,3.33-11.39,14.72-11.39l1.92-10.88h-46.59l-1.92,10.88c11.52,0,12.29.9,10.37,11.14l-3.46,18.82h-42.24l3.46-18.56c1.92-10.24,3.33-11.39,14.72-11.39l1.92-10.88h-46.59l-1.92,10.88c11.52,0,12.29.9,10.37,11.14l-9.73,52.23c-1.92,10.24-3.33,11.39-14.72,11.39l-1.92,10.88h46.59l1.92-10.88c-11.52,0-12.42-.9-10.5-11.14l3.84-20.23h42.24l-3.71,19.97c-1.92,10.24-3.33,11.39-14.72,11.39Z"/>
    <path d="M460.74,504.88h-52.1l-9.86,27.27h10.24c3.71-9.09,8.06-11.26,17.28-11.26h11.39l-41.22,35.84v12.93h51.84l9.6-27.27h-10.24c-3.71,9.09-7.94,11.39-17.28,11.39h-11.26l41.6-35.97v-12.93Z"/>
    <path d="M521.4,558.77l-2.18,10.88h50.69l2.18-10.88c-13.31,0-14.46-.9-12.54-11.14l11.39-60.8c16.26.13,20.99,5.25,21.76,21.76h12.03v-35.46h-84.23l-12.8,35.46h12.54c7.17-15.49,13.95-21.38,29.31-21.76l-11.39,60.55c-1.92,10.24-3.46,11.39-16.77,11.39Z"/>
    <path d="M633.27,572.21c24.83,0,39.04-21.25,39.04-39.94s-14.34-29.95-31.49-29.95c-23.68,0-38.79,19.97-38.79,39.94s13.95,29.95,31.23,29.95ZM640.31,514.86c6.66,0,10.5,5.12,10.5,14.98s-4.61,29.83-16.9,29.83c-6.53,0-10.37-4.86-10.37-14.34,0-11.14,4.61-30.46,16.77-30.46Z"/>
    <path d="M723.9,562.35h1.28l-1.92,8.83,30.72-1.54,1.92-9.73c-9.09.13-10.37-1.02-9.09-7.81l8.96-48.51-31.11,2.56-1.79,9.86c9.6,0,10.5.9,9.09,8.58l-4.48,23.81c-4.22,5.63-9.22,8.32-13.83,8.32-5.25,0-8.58-3.46-8.58-8.96l.51-4.61,7.42-39.55-31.11,2.56-1.79,9.86c9.6,0,10.5.9,8.96,8.58l-4.22,22.66c-.26,1.79-.51,3.71-.51,5.25-.13,12.29,8.58,19.71,19.46,19.71,7.3,0,14.21-3.33,20.1-9.86Z"/>
    <path d="M819.77,502.32c-7.68,0-13.83,5.38-17.67,12.8h-1.41l2.69-12.8-2.56.13c-8.19,2.43-20.22,5.12-29.44,6.78l-1.92,9.86h10.62l-5.89,32.13c-1.54,7.81-2.43,8.7-11.39,8.7l-1.92,9.73h39.68l1.92-9.73c-8.58-.13-9.73-.64-8.32-8.32l3.46-18.43c1.02-5.25,5.38-9.47,10.75-9.47,3.71,0,6.02.9,10.11.9,7.94,0,12.29-6.02,12.29-11.52s-4.86-10.75-11.01-10.75Z"/>
    <path d="M866.23,572.21c24.32,0,37.89-22.66,37.89-42.63,0-14.85-7.81-27.27-22.53-27.27-7.68,0-14.21,3.46-19.84,9.98h-1.15l7.94-41.09-2.56.13c-8.19,2.43-20.22,5.12-29.44,6.78l-1.79,9.73h10.62l-12.8,68.23h-.13c8.71,10.24,20.99,16.13,33.79,16.13ZM858.3,525.61c3.71-4.1,8.19-7.3,13.57-7.3,7.68,0,10.75,6.53,10.75,14.46,0,9.98-5.12,27.26-18.18,27.26-4.74,0-8.58-2.3-11.39-6.14l5.25-28.29Z"/>
    <path d="M947.64,502.32l-2.56.13c-8.19,2.43-20.22,5.12-29.44,6.78l-1.92,9.86h10.62l-5.89,32.13c-1.54,7.81-2.43,8.7-11.39,8.7l-1.92,9.73h39.68l1.92-9.73c-8.58-.13-9.73-.64-8.32-8.32l9.22-49.28Z"/>
    <path d="M954.68,481.45c0-7.17-6.27-13.31-13.82-13.31s-13.95,6.14-13.95,13.31,6.27,13.57,13.95,13.57,13.82-6.14,13.82-13.57Z"/>
    <path d="M999.22,471.21h-2.56c-8.19,2.43-20.23,5.25-29.31,6.91l-1.92,9.73h10.62l-11.9,63.36c-1.41,7.81-2.43,8.7-11.39,8.7l-1.79,9.73h39.68l1.79-9.73c-8.45-.13-9.6-.64-8.19-8.19l14.98-80.52Z"/>
    <path d="M1044.92,471.21h-2.56c-8.19,2.43-20.23,5.25-29.31,6.91l-1.92,9.73h10.62l-11.9,63.36c-1.41,7.81-2.43,8.7-11.39,8.7l-1.79,9.73h39.68l1.79-9.73c-8.45-.13-9.6-.64-8.19-8.19l14.98-80.52Z"/>
    <path d="M1077.94,572.21c24.83,0,39.04-21.25,39.04-39.94s-14.34-29.95-31.49-29.95c-23.68,0-38.79,19.97-38.79,39.94s13.95,29.95,31.23,29.95ZM1084.98,514.86c6.66,0,10.5,5.12,10.5,14.98s-4.61,29.83-16.9,29.83c-6.53,0-10.37-4.86-10.37-14.34,0-11.14,4.61-30.46,16.77-30.46Z"/>
    <path d="M1157.56,502.44c-8.19,2.43-20.22,5.12-29.44,6.78l-1.92,9.86h10.62l-5.89,32.13c-1.54,7.81-2.43,8.7-11.39,8.7l-1.92,9.73h39.43l1.79-9.73c-8.19-.13-9.34-.64-7.94-8.32l4.86-25.99c4.61-5.25,9.73-7.68,14.34-7.68,5.5,0,9.09,3.58,9.09,9.86,0,1.28-.26,2.82-.51,4.48l-3.58,18.95c-1.41,7.81-2.3,8.7-10.62,8.7l-1.66,9.73h38.79l1.79-9.73c-8.58-.13-9.6-.64-8.19-8.19l3.97-21.63c.51-2.43.77-4.61.77-6.78,0-12.93-9.47-20.99-20.87-20.99-7.55,0-14.59,3.58-19.84,9.98h-1.28l2.18-9.98-2.56.13Z"/>
    <path d="M117.06,612.52c12.67,0,22.15,8.06,34.05,24.07h12.16l-9.47-35.71h-9.73l-4.99,6.66c-7.04-5.89-16-8.32-24.58-8.32-18.05,0-33.03,9.98-33.03,27.27,0,15.62,11.14,23.81,27.01,29.7l17.92,6.78c9.86,3.58,14.59,7.17,14.59,13.06,0,6.53-5.89,10.5-14.46,10.5-14.21,0-26.5-11.39-38.15-28.93h-12.16l10.88,40.32h9.6l5.5-7.42c8.45,6.53,17.79,9.73,27.27,9.73,17.79,0,33.92-10.88,33.79-28.67,0-15.87-11.26-24.19-27.27-30.34l-18.05-6.79c-8.96-3.2-14.21-6.27-14.21-12.29s5.63-9.6,13.31-9.6Z"/>
    <path d="M243.78,679.73v-48.13l-30.34,2.56v9.86c9.47,0,10.62,1.02,10.62,8.19v24.19c-3.46,5.38-8.32,7.94-12.8,7.94-2.94,0-5.63-1.15-7.3-3.33-1.79-2.18-2.69-5.25-2.69-9.6v-39.81l-30.34,2.56v9.86c9.47,0,10.62,1.02,10.62,8.19v23.3c0,7.68,2.05,13.57,6.02,17.67,3.97,4.48,9.98,7.04,16.64,7.04,8.06,0,14.59-3.71,18.82-9.86h1.28l-.26,8.96,30.34-1.66v-9.73c-9.47-.13-10.62-1.02-10.62-8.19Z"/>
    <path d="M304.83,630.32c-8.19,0-15.1,3.71-19.2,9.98h-1.28l.26-9.98h-2.56c-7.55,2.56-19.07,5.25-27.78,7.04v9.73h10.62v61.57c0,7.68-1.02,8.7-9.73,8.7v9.73h39.3v-9.73c-8.83,0-9.86-1.02-9.86-8.7v-10.24c4.1,1.15,8.19,1.79,12.16,1.79,19.58,0,35.07-14.21,35.07-37.25,0-21.38-12.8-32.64-27.01-32.64ZM296.13,688.3c-4.35,0-8.45-1.79-11.52-4.86v-29.06c3.33-5.12,8.32-8.06,13.31-8.06,8.96,0,12.8,9.22,12.8,20.48s-4.22,21.5-14.59,21.5Z"/>
    <path d="M377.66,683.05c-9.6,0-16.51-7.68-17.92-18.56h42.24c.51-2.05.77-4.22.77-6.4,0-13.95-9.98-27.78-28.8-27.78s-33.79,14.85-33.79,35.33c.13,19.58,14.21,34.56,32.9,34.56,14.98,0,25.22-9.73,30.21-22.91l-9.22-4.22c-3.71,6.91-9.86,9.98-16.38,9.98ZM371.9,642.22c6.27,0,10.5,4.48,10.62,11.39h-22.4c1.41-7.17,5.63-11.39,11.78-11.39Z"/>
    <path d="M458.04,630.44c-7.3,0-13.18,4.61-17.02,13.06h-1.28l.26-13.18h-2.56c-7.55,2.56-19.07,5.25-27.78,7.04v9.73h10.62v32.13c0,7.68-1.02,8.7-9.73,8.7v9.73h39.3v-9.73c-8.83,0-9.86-1.02-9.86-8.7v-18.82c0-5.5,3.84-8.7,8.7-8.7,3.71,0,6.14.9,9.6.9,6.27,0,11.52-5.12,11.52-11.26s-5.38-10.88-11.78-10.88Z"/>
    <rect x="475.71" y="650.03" width="40.96" height="16.9"/>
    <path d="M568.63,683.95h-11.52v-60.42c0-10.24.77-11.52,12.54-11.52v-10.88h-46.34v10.88c11.78,0,12.67,1.28,12.67,11.52v51.71c0,10.24-.9,11.52-12.67,11.52v10.88h80.64l10.75-40.07h-12.16c-6.02,19.2-14.98,26.37-33.92,26.37Z"/>
    <path d="M688.96,679.73v-48.13l-30.34,2.56v9.86c9.47,0,10.62,1.02,10.62,8.19v24.19c-3.46,5.38-8.32,7.94-12.8,7.94-2.94,0-5.63-1.15-7.3-3.33-1.79-2.18-2.69-5.25-2.69-9.6v-39.81l-30.34,2.56v9.86c9.47,0,10.62,1.02,10.62,8.19v23.3c0,7.68,2.05,13.57,6.02,17.67,3.97,4.48,9.98,7.04,16.64,7.04,8.06,0,14.59-3.71,18.82-9.86h1.28l-.26,8.96,30.34-1.66v-9.73c-9.47-.13-10.62-1.02-10.62-8.19Z"/>
    <path d="M819.39,679.21v-24.07c0-7.68-2.18-13.7-6.14-17.79-3.97-4.48-10.11-7.04-16.9-7.04-8.7,0-15.62,3.97-20.22,10.62h-1.28c-.64-1.15-1.54-2.3-2.43-3.33-4.1-4.61-10.37-7.3-17.28-7.3-8.06,0-14.85,3.71-19.33,9.98h-1.28l.26-9.98h-2.56c-7.55,2.56-19.07,5.25-27.78,7.04v9.73h10.62v32.13c0,7.68-1.02,8.7-9.73,8.7v9.73h38.27v-9.73c-7.94,0-8.83-1.02-8.83-8.7v-24.96c3.46-5.38,8.32-7.94,12.8-7.94,2.94,0,5.63,1.02,7.42,3.33,1.66,2.05,2.56,5.12,2.56,9.47v20.1c0,7.68-.77,8.7-8.71,8.7v9.73h36.87v-9.73c-7.55,0-8.32-1.02-8.32-8.7v-25.99c3.2-4.48,7.94-6.91,12.16-6.91,2.94,0,5.5,1.02,7.3,3.33,1.79,2.05,2.69,5.12,2.69,9.47v20.1c0,7.68-.77,8.7-8.32,8.7v9.73h37.89v-9.73c-8.83,0-9.73-1.02-9.73-8.7Z"/>
    <path d="M864.31,679.21v-48.9h-2.56c-7.55,2.56-19.07,5.25-27.78,7.04v9.73h10.62v32.13c0,7.68-1.02,8.7-9.73,8.7v9.73h39.04v-9.73c-8.58,0-9.6-1.02-9.6-8.7Z"/>
    <path d="M854.07,596.14c-7.68,0-13.95,6.14-13.95,13.31s6.27,13.57,13.95,13.57,13.83-6.14,13.83-13.57-6.27-13.31-13.83-13.31Z"/>
    <path d="M990.78,601.13h-40.19v10.88c11.78,0,12.54,1.28,12.54,11.52v44.03l-49.03-66.44h-33.92v10.88c11.78,0,12.67,1.28,12.67,11.52v51.71c0,10.24-.9,11.52-12.67,11.52v10.88h40.32v-10.88c-11.78,0-12.67-1.28-12.67-11.52v-47.23l51.71,70.15h18.69v-74.63c0-10.24.77-11.52,12.54-11.52v-10.88Z"/>
    <path d="M1024.44,630.32c-19.84,0-34.82,13.44-34.82,34.69s14.34,35.2,34.95,35.2,34.82-14.08,34.82-34.69-14.59-35.2-34.95-35.2ZM1024.82,687.66c-9.09,0-13.57-8.83-13.57-23.04s4.35-21.76,13.06-21.76,13.57,9.09,13.57,23.04-4.48,21.76-13.06,21.76Z"/>
    <path d="M1109.3,642.73h3.2c2.18,0,3.58.9,3.58,2.69,0,1.02-.51,2.3-1.28,4.22l-11.01,27.91-10.75-27.52c-.77-2.3-1.28-3.33-1.28-4.48,0-1.54,1.15-2.82,3.46-2.82h2.82v-9.86h-35.97v9.86c4.99,0,6.78,1.15,9.6,7.94l19.07,47.49h18.95l18.82-46.72c2.94-7.55,4.86-8.71,9.86-8.71v-9.86h-29.06v9.86Z"/>
    <path d="M1199.03,680.62v-2.82l.26-17.79v-3.33c.13-16.64-11.39-26.37-26.24-26.37s-26.24,8.58-32.26,22.91l8.32,5.38c4.99-7.17,11.52-11.39,18.18-11.39,5.63,0,11.9,3.2,11.9,10.75v2.69l-14.98,3.46c-13.82,3.07-21.5,10.24-21.5,19.71s7.3,16.38,17.54,16.38c6.53,0,13.57-2.94,18.18-9.86h1.28l-.13,8.83,27.78-1.54v-9.73c-6.91-.26-8.32-1.41-8.32-7.3ZM1170.36,685.74c-3.46,0-6.27-2.18-6.27-6.02s2.82-6.53,9.6-8.7l5.5-1.79.13,10.75c-2.3,3.71-5.63,5.76-8.96,5.76Z"/>
  </g>
</svg>