<?xml version="1.0" encoding="UTF-8"?>
<svg id="Layer_1" xmlns="http://www.w3.org/2000/svg" xmlns:xlink="http://www.w3.org/1999/xlink" version="1.1" viewBox="0 0 1280 800">
  <!-- Generator: Adobe Illustrator 29.8.2, SVG Export Plug-In . SVG Version: 2.1.1 Build 3)  -->
  <defs>
    <style>
      .st0 {
        fill: none;
      }

      .st1 {
        clip-path: url(#clippath-1);
      }

      .st2 {
        fill: #fbfbfb;
      }

      .st3 {
        clip-path: url(#clippath);
      }
    </style>
    <clipPath id="clippath">
      <rect class="st0" width="1280" height="800"/>
    </clipPath>
    <clipPath id="clippath-1">
      <rect class="st0" width="1280" height="800"/>
    </clipPath>
  </defs>
  <g class="st3">
    <rect x="-3" y="-3" width="1286" height="806"/>
  </g>
  <rect width="1280" height="800"/>
  <g class="st1">
    <path class="st2" d="M544.75,673.1c.96-5.72,4.18-9.19,9-9.19,5.08,0,8.1,4.05,8.1,9.12v.06h-17.09ZM554.52,695.59c5.98,0,10.6-3.6,13.43-10.02l-1.67-.77c-2.44,4.43-6.17,6.68-10.79,6.68-6.23,0-10.99-5.91-10.99-14.84v-1.22h22.75c.07-.26.07-.45.07-.71,0-7.45-4.95-13.11-12.4-13.11-8.67,0-14.84,7.26-14.84,17.09s5.97,16.9,14.46,16.9M508.99,678.69c0-8.8,4.43-14.78,10.92-14.84,3.47-.06,6.43,1.54,8.48,4.5v18.06c-2.51,3.66-5.85,5.59-9.51,5.59-6.36,0-9.9-5.59-9.9-13.3M519.91,661.6c-8.55,0-15.68,7-15.68,18.06,0,9.51,5.27,15.94,13.11,15.94,4.24,0,7.84-1.99,10.54-5.59h.64l-.13,5.01,9.9-.71.06-1.73c-3.98-.19-5.78-1.03-5.78-3.41v-44.27h-1.28c-2.51,1.8-5.65,2.83-8.67,3.28v1.74h5.78v14.01c-2.83-1.54-5.66-2.31-8.48-2.31M485.15,693.15c-7.9,0-11.44-9.57-11.44-16.77s3.79-12.4,9.9-12.4c7.84,0,11.31,9.7,11.31,16.77s-3.6,12.4-9.77,12.4M484.38,695.59c8.61,0,15.1-7.07,15.1-17.22,0-9.38-6.3-16.83-15.1-16.83s-15.29,7.07-15.29,17.03,6.36,17.03,15.29,17.03M453.7,695.59c5.59,0,10.79-3.53,10.79-9.25,0-4.82-3.66-7.65-8.8-9.51l-6.3-2.25c-3.66-1.35-5.97-3.02-5.97-5.85.06-2.89,2.76-4.95,6.42-4.95,4.82,0,8.03,3.21,12.4,9.44h1.86l-2.96-10.99h-1.48l-1.86,2.44c-2.51-2.18-5.46-3.15-8.29-3.15-5.4,0-10.09,3.47-10.09,8.48,0,4.69,3.34,7.39,8.29,9.12l6.42,2.31c4.18,1.48,6.43,3.34,6.36,6.3,0,3.08-3.08,5.46-7,5.46-5.59,0-9.32-4.05-13.56-10.35h-1.86l3.28,12.08h1.41l2.06-2.83c2.64,2.38,5.85,3.47,8.87,3.47M428.08,654.53c2.25,0,4.11-1.86,4.11-4.11s-1.86-4.05-4.11-4.05-4.11,1.86-4.11,4.05,1.86,4.11,4.11,4.11M420.3,694.3h15.49v-1.73c-4.63-.26-5.59-1.35-5.59-3.6v-27.37h-1.29c-2.51,1.74-5.65,2.83-8.67,3.28v1.74h5.78v22.36c0,2.25-.96,3.34-5.72,3.6v1.73ZM393.39,688.84v-18.06c2.51-3.66,5.85-5.59,9.51-5.59,6.36,0,9.9,5.59,9.9,13.3,0,8.8-4.43,14.78-10.92,14.84-3.47.06-6.43-1.54-8.48-4.5M383.49,709.08h15.61v-1.74c-4.69-.26-5.72-1.35-5.72-3.6v-10.47c2.83,1.54,5.65,2.31,8.48,2.31,8.55,0,15.68-7,15.68-18.06,0-9.51-5.27-15.93-13.11-15.93-4.24,0-7.84,1.99-10.54,5.59h-.64l.13-5.59h-1.28c-2.44,1.74-5.66,2.83-8.68,3.28v1.74h5.78v37.14c0,2.25-.96,3.34-5.72,3.6v1.74ZM378.29,694.3l3.98-14.84h-2.06c-2.44,8.22-6.81,12.34-14.59,12.34h-13.49v-20.43h8.55c4.18,0,5.53,1.35,5.72,8.61h1.93v-19.85h-1.93c-.19,7.32-1.54,8.74-5.72,8.74h-8.55v-20.56h12.15c7.77,0,12.21,4.11,14.58,12.4h2.06l-3.92-14.84h-36.95v1.93c6.36.19,7.58,1.54,7.58,5.72v33.16c0,4.11-1.22,5.53-7.58,5.72v1.93h38.23ZM319.44,643.54v1.86c5.46-.45,6.88,2.12,6.88,6.04v15.23c0,3.86,1.67,7.26,5.85,7.71v.51c-4.18.45-5.85,3.86-5.85,7.71v15.23c0,3.92-1.41,6.49-6.88,6.04v1.86c7.39.9,11.18-2.57,11.18-9.7v-15.23c0-3.98,1.99-5.01,6.3-5.01v-2.31c-4.31,0-6.3-1.03-6.3-5.01v-15.23c0-7.13-3.79-10.6-11.18-9.7M310.36,695.59c4.5,0,7.77-3.21,9.57-9.06l-1.73-.58c-1.48,3.98-3.66,6.04-6.62,6.04-4.11,0-4.82-3.92-4.88-7.32v-1.41l.06-17.73h11.63v-2.63h-11.57v-10.28h-1.74c-.77,5.78-4.18,9.57-8.74,11.18v1.73h6.36l-.32,19.47v.9c0,6.23,3.08,9.7,7.97,9.7M279.81,694.3h14.46v-1.73c-3.02-.19-4.63-1.29-6.36-3.6l-8.61-11.56,7.58-9.25c1.93-2.38,3.6-3.41,6.62-3.53v-1.73h-12.47v1.73l1.8.06c1.29.06,2.06.51,2.06,1.29,0,.58-.45,1.28-1.29,2.38l-5.85,7.2-5.27-7.13c-.9-1.16-1.22-1.74-1.22-2.31,0-.9.77-1.35,2.12-1.41l1.8-.06v-1.73h-14.33v1.73c2.76.13,4.43,1.16,6.17,3.47l7.77,10.54-8.35,10.34c-1.93,2.38-3.47,3.34-6.36,3.6v1.73h12.34v-1.73l-1.73-.19c-1.48-.13-2.18-.51-2.18-1.29,0-.51.26-1.16,1.16-2.25l6.81-8.35,6.1,8.35c.71,1.03,1.09,1.74,1.09,2.25,0,.77-.71,1.22-1.93,1.29l-1.93.19v1.73ZM235.83,673.1c.96-5.72,4.18-9.19,9-9.19,5.08,0,8.1,4.05,8.1,9.12v.06h-17.09ZM245.6,695.59c5.98,0,10.6-3.6,13.43-10.02l-1.67-.77c-2.44,4.43-6.17,6.68-10.8,6.68-6.23,0-10.99-5.91-10.99-14.84v-1.22h22.75c.06-.26.06-.45.06-.71,0-7.45-4.95-13.11-12.4-13.11-8.67,0-14.84,7.26-14.84,17.09s5.98,16.9,14.46,16.9M220.61,695.46h2.06v-41.96c0-4.18,1.22-5.53,7.58-5.72v-1.93h-17.73v1.93c6.43.19,7.58,1.54,7.58,5.72v33.61l-30.59-41.25h-11.57v1.93c6.36.19,7.58,1.54,7.58,5.72v33.16c0,4.11-1.22,5.53-7.58,5.72v1.93h17.73v-1.93c-6.43-.19-7.58-1.61-7.58-5.72v-35.08l32.51,43.89ZM176.09,705.74v-1.86c-5.46.45-6.88-2.12-6.88-6.04v-15.23c0-3.86-1.67-7.26-5.85-7.71v-.51c4.18-.45,5.85-3.86,5.85-7.71v-15.23c0-3.92,1.41-6.49,6.88-6.04v-1.86c-7.39-.9-11.18,2.57-11.18,9.7v15.23c0,3.98-1.99,5.01-6.3,5.01v2.31c4.31,0,6.3,1.03,6.3,5.01v15.23c0,7.13,3.79,10.6,11.18,9.7"/>
    <path class="st2" d="M471.6,589c0-5.08,3.47-8.03,7.13-8.03s7,2.89,7,7.58c0,5.46-4.37,8.93-9.19,11.37-3.09-3.73-4.95-7.2-4.95-10.92M467.04,614.83c0-5.85,3.28-9.32,8.35-12.01l16.06,17.54c-3.28,3.6-7.58,5.53-12.59,5.53-6.75,0-11.89-4.82-11.82-11.05M477.38,629.55c5.85,0,11.37-2.63,15.55-7.52l5.78,6.3h8.22v-1.8c-1.8-.58-5.08-2.96-8.1-5.85l-3.02-2.76c1.99-3.41,3.53-7.52,4.43-11.95.77-3.98,1.99-4.95,6.62-5.08v-1.8h-15.49v1.8c4.56.13,5.72.96,5.65,4.43,0,3.86-1.03,7.71-2.83,11.05l-16.13-14.91c5.98-2.96,11.95-7.2,11.95-13.24,0-5.27-4.69-9.38-10.99-9.38-6.62,0-11.76,4.37-11.76,10.54,0,4.69,3.02,8.61,6.55,11.89-6.49,3.34-11.69,7.97-11.69,14.84,0,7.52,6.36,13.43,15.23,13.43M425.66,628.32h15.61v-1.74c-4.69-.26-5.72-1.35-5.72-3.6v-44.08h-1.29c-2.51,1.8-5.65,2.83-8.67,3.28v1.74h5.78v39.07c0,2.25-.96,3.34-5.72,3.6v1.74ZM399.98,621.06c0-2.57,1.8-4.95,7.71-6.75l6.17-1.86v8.03c-2.51,3.66-5.53,5.59-8.55,5.59s-5.33-2.06-5.33-5.01M413.85,628.97l9.19-.64v-1.74c-4.11-.38-5.08-1.41-5.08-3.6v-1.16l.13-13.43v-1.35c.06-8.42-5.08-11.44-10.15-11.44-5.66,0-11.18,3.79-14.2,10.22l1.67.9c2.63-4.76,7.07-7.13,11.05-7.13,3.6,0,7.39,2.06,7.39,7.26v3.66l-8.1,2.18c-6.88,1.86-10.73,5.27-10.73,9.57,0,3.79,3.09,7.32,7.84,7.32,2.96,0,7.13-1.29,10.41-5.59h.64l-.06,4.95ZM365.07,602.49l10.67,26.99h1.93l10.67-26.99c1.03-2.63,2.51-3.73,5.2-3.86v-1.74h-12.02v1.74l1.8.13c1.61.13,2.89.51,2.89,1.86,0,.51-.26,1.16-.58,2.06l-7.97,20.37-7.84-20.18c-.38-1.03-.58-1.67-.58-2.25,0-1.22,1.16-1.74,2.89-1.86l1.74-.13v-1.74h-14.01v1.74c2.63.13,4.18,1.29,5.2,3.86M335.28,628.32h15.61v-1.74c-4.69-.26-5.72-1.35-5.72-3.6v-14.78c0-3.4,2.31-6.43,5.53-6.43,1.35,0,2.51.38,3.79.38,1.86,0,3.34-1.41,3.34-3.34s-1.67-3.21-3.86-3.21c-2.89,0-5.65,2.18-8.29,6.75h-.64l.13-6.75h-1.29c-2.51,1.73-5.65,2.83-8.68,3.28v1.74h5.78v22.36c0,2.25-.96,3.34-5.72,3.6v1.74ZM309.39,607.12c.96-5.72,4.18-9.19,9-9.19,5.08,0,8.1,4.05,8.1,9.12v.06h-17.09ZM319.16,629.61c5.98,0,10.6-3.6,13.43-10.02l-1.67-.77c-2.44,4.43-6.17,6.68-10.79,6.68-6.23,0-10.99-5.91-10.99-14.84v-1.22h22.75c.06-.26.06-.45.06-.71,0-7.45-4.95-13.11-12.4-13.11-8.67,0-14.84,7.26-14.84,17.09s5.98,16.9,14.46,16.9M292.14,629.61c4.5,0,7.77-3.21,9.57-9.06l-1.73-.58c-1.48,3.98-3.66,6.04-6.62,6.04-4.11,0-4.82-3.92-4.88-7.32v-1.41l.06-17.73h11.63v-2.64h-11.57v-10.28h-1.73c-.77,5.78-4.18,9.57-8.74,11.18v1.74h6.36l-.32,19.47v.9c0,6.23,3.08,9.7,7.97,9.7M242.4,628.32h15.61v-1.74c-4.69-.26-5.72-1.35-5.72-3.6v-18.18c2.38-3.34,5.65-5.46,9.38-5.46,2.44,0,4.37.77,5.78,2.31,1.41,1.61,1.99,3.85,1.99,6.62v14.71c0,2.25-.96,3.34-5.72,3.6v1.74h15.61v-1.74c-4.69-.26-5.72-1.35-5.72-3.6v-15.93c0-3.47-.9-6.36-2.64-8.29-1.93-2.06-4.76-3.15-7.84-3.15-4.05,0-7.65,1.99-10.35,5.59h-.64l.13-5.59h-1.29c-2.51,1.73-5.65,2.83-8.67,3.28v1.74h5.78v22.36c0,2.25-.96,3.34-5.72,3.6v1.74ZM218.98,628.32h19.66v-1.93c-6.36-.19-7.58-1.61-7.58-5.72v-33.16c0-4.18,1.22-5.53,7.58-5.72v-1.93h-19.66v1.93c6.36.19,7.58,1.54,7.58,5.72v33.16c0,4.11-1.22,5.53-7.58,5.72v1.93Z"/>
    <path class="st2" d="M524.14,570.06v1.86c5.85-.45,10.41-4.56,10.41-9.96,0-3.47-2.44-6.75-5.66-6.75-2.38,0-3.92,1.86-3.92,3.79s1.35,3.53,3.4,3.86c1.54.19,2.38,1.03,2.38,2.31,0,2.25-3.21,4.69-6.62,4.88M508.59,563.63c5.59,0,10.79-3.53,10.79-9.25,0-4.82-3.66-7.65-8.8-9.51l-6.3-2.25c-3.66-1.35-5.98-3.02-5.98-5.85.06-2.89,2.76-4.95,6.43-4.95,4.82,0,8.03,3.21,12.4,9.45h1.86l-2.96-10.99h-1.48l-1.86,2.44c-2.51-2.18-5.46-3.15-8.29-3.15-5.4,0-10.09,3.47-10.09,8.48,0,4.69,3.34,7.39,8.29,9.12l6.42,2.31c4.18,1.48,6.43,3.34,6.36,6.3,0,3.08-3.09,5.46-7,5.46-5.59,0-9.32-4.05-13.56-10.35h-1.86l3.28,12.08h1.41l2.06-2.83c2.63,2.38,5.85,3.47,8.87,3.47M465.56,541.14c.96-5.72,4.18-9.19,8.99-9.19,5.08,0,8.1,4.05,8.1,9.12v.07h-17.09ZM475.33,563.63c5.98,0,10.6-3.6,13.43-10.02l-1.67-.77c-2.44,4.43-6.17,6.68-10.79,6.68-6.23,0-10.99-5.91-10.99-14.84v-1.22h22.75c.06-.26.06-.45.06-.71,0-7.45-4.95-13.11-12.4-13.11-8.67,0-14.84,7.26-14.84,17.09s5.98,16.9,14.46,16.9M429.8,546.73c0-8.8,4.43-14.78,10.92-14.84,3.47-.06,6.43,1.54,8.48,4.5v18.05c-2.51,3.66-5.85,5.59-9.51,5.59-6.36,0-9.89-5.59-9.89-13.3M440.72,529.64c-8.55,0-15.68,7-15.68,18.06,0,9.51,5.27,15.93,13.11,15.93,4.24,0,7.84-1.99,10.54-5.59h.64l-.13,5.01,9.9-.71.07-1.74c-3.98-.19-5.78-1.03-5.78-3.41v-44.27h-1.29c-2.51,1.8-5.65,2.83-8.67,3.28v1.74h5.78v14.01c-2.83-1.54-5.65-2.31-8.48-2.31M400.34,555.09c0-2.57,1.8-4.95,7.71-6.75l6.17-1.86v8.03c-2.51,3.66-5.53,5.59-8.55,5.59s-5.33-2.06-5.33-5.01M414.22,562.99l9.19-.64v-1.74c-4.11-.39-5.08-1.41-5.08-3.6v-1.16l.13-13.43v-1.35c.06-8.42-5.08-11.44-10.15-11.44-5.65,0-11.18,3.79-14.2,10.22l1.67.9c2.63-4.76,7.07-7.13,11.05-7.13,3.6,0,7.39,2.06,7.39,7.26v3.66l-8.1,2.18c-6.88,1.86-10.73,5.27-10.73,9.57,0,3.79,3.08,7.32,7.84,7.32,2.96,0,7.13-1.29,10.41-5.59h.64l-.06,4.95ZM377.6,563.63c5.97,0,10.6-3.6,13.43-10.02l-1.67-.77c-2.44,4.43-6.1,6.62-10.79,6.68-6.17,0-10.99-5.91-10.99-15.03,0-7.26,4.05-12.53,10.15-12.53,3.15,0,5.27,1.41,5.65,4.76.32,2.57,1.67,4.05,3.6,4.05s3.21-1.41,3.21-3.4c0-4.31-5.72-7.77-11.89-7.77-8.74,0-15.16,6.94-15.16,17.16s5.98,16.9,14.46,16.9M335.84,541.14c.96-5.72,4.18-9.19,8.99-9.19,5.08,0,8.1,4.05,8.1,9.12v.07h-17.09ZM345.6,563.63c5.98,0,10.6-3.6,13.43-10.02l-1.67-.77c-2.44,4.43-6.17,6.68-10.79,6.68-6.23,0-10.99-5.91-10.99-14.84v-1.22h22.75c.06-.26.06-.45.06-.71,0-7.45-4.95-13.11-12.4-13.11-8.68,0-14.84,7.26-14.84,17.09s5.98,16.9,14.46,16.9M299.97,559.84h-8.29v-43.5h7.45c7.58,0,13.43,2.7,17.03,7.45,2.83,3.73,4.3,8.67,4.3,14.52s-1.16,10.15-3.4,13.62c-3.34,5.14-9.06,7.9-17.09,7.9M295.47,562.35c11.57,0,19.79-.84,25.83-9,3.02-4.11,4.63-9.25,4.63-14.97,0-6.75-1.99-12.53-5.98-16.9-6.75-7.33-15.23-7.58-25.32-7.58h-15.04v1.93c6.36.19,7.58,1.54,7.58,5.72v33.15c0,4.11-1.22,5.53-7.58,5.72v1.93h15.87ZM196,521.35l16.77,42.15h1.93l16.9-42.15c1.74-4.37,2.89-5.4,6.68-5.53h1.09c4.69,0,5.65,1.09,5.65,5.14v34.31c0,4.05-.96,5.14-5.65,5.14h-3.98v1.93h23.77v-1.93h-4.05c-4.56,0-5.59-.96-5.59-5.14v-34.31c0-4.18,1.03-5.14,5.59-5.14h4.05v-1.93h-37.01v1.93l2.06.13c3.6.19,5.27,1.09,5.27,2.89,0,.71-.26,1.54-.64,2.51l-14.01,35.28-13.88-35.34c-.45-1.09-.64-1.86-.64-2.57,0-1.8,1.48-2.64,4.76-2.76l2.12-.13v-1.93h-17.93v1.93c3.79.13,5.01,1.16,6.75,5.53"/>
    <path class="st2" d="M535.51,508.06h2.89c4.24-4.56,12.46-16.26,12.46-31.36s-8.22-26.79-12.46-31.36h-2.89c5.91,7.65,10.67,17.61,10.67,31.36s-4.76,23.71-10.67,31.36M524.72,497.65c5.59,0,10.79-3.53,10.79-9.25,0-4.82-3.66-7.65-8.8-9.51l-6.3-2.25c-3.66-1.35-5.98-3.02-5.98-5.85.06-2.89,2.76-4.95,6.42-4.95,4.82,0,8.03,3.21,12.4,9.45h1.86l-2.96-10.99h-1.48l-1.86,2.44c-2.51-2.18-5.46-3.15-8.29-3.15-5.4,0-10.09,3.47-10.09,8.48,0,4.69,3.34,7.39,8.29,9.12l6.43,2.31c4.18,1.48,6.42,3.34,6.36,6.3,0,3.08-3.08,5.46-7,5.46-5.59,0-9.32-4.05-13.56-10.35h-1.86l3.28,12.08h1.41l2.06-2.83c2.63,2.38,5.85,3.47,8.87,3.47M506.43,508.06h2.89c-5.91-7.65-10.67-17.61-10.67-31.36s4.76-23.71,10.67-31.36h-2.89c-4.24,4.56-12.47,16.26-12.47,31.36s8.22,26.79,12.47,31.36M454.71,496.37h15.61v-1.73c-4.69-.26-5.72-1.35-5.72-3.6v-18.18c2.38-3.34,5.66-5.46,9.38-5.46,2.44,0,4.37.77,5.78,2.31,1.41,1.61,1.99,3.85,1.99,6.62v14.71c0,2.25-.96,3.34-5.72,3.6v1.73h15.61v-1.73c-4.69-.26-5.72-1.35-5.72-3.6v-15.93c0-3.47-.9-6.36-2.64-8.29-1.93-2.06-4.75-3.15-7.84-3.15-4.05,0-7.65,1.99-10.35,5.59h-.64l.13-5.59h-1.28c-2.51,1.73-5.65,2.83-8.67,3.28v1.73h5.78v22.36c0,2.25-.96,3.34-5.72,3.6v1.73ZM438.08,495.21c-7.9,0-11.44-9.57-11.44-16.77s3.79-12.4,9.89-12.4c7.84,0,11.31,9.7,11.31,16.77s-3.6,12.4-9.77,12.4M437.31,497.65c8.61,0,15.1-7.07,15.1-17.22,0-9.38-6.3-16.83-15.1-16.83s-15.29,7.07-15.29,17.03,6.36,17.03,15.29,17.03M412.76,456.59c2.25,0,4.11-1.86,4.11-4.11s-1.86-4.05-4.11-4.05-4.11,1.86-4.11,4.05,1.86,4.11,4.11,4.11M404.99,496.37h15.49v-1.73c-4.63-.26-5.59-1.35-5.59-3.6v-27.37h-1.29c-2.51,1.73-5.65,2.83-8.67,3.28v1.73h5.78v22.36c0,2.25-.96,3.34-5.72,3.6v1.73ZM393.22,497.65c4.5,0,7.77-3.21,9.57-9.06l-1.73-.58c-1.48,3.98-3.66,6.04-6.62,6.04-4.11,0-4.82-3.92-4.88-7.33v-1.41l.06-17.73h11.63v-2.63h-11.57v-10.28h-1.74c-.77,5.78-4.18,9.57-8.74,11.18v1.73h6.36l-.32,19.47v.9c0,6.23,3.08,9.7,7.97,9.7M357.06,489.11c0-2.57,1.8-4.95,7.71-6.75l6.17-1.86v8.03c-2.51,3.66-5.53,5.59-8.55,5.59s-5.33-2.06-5.33-5.01M370.94,497.01l9.19-.64v-1.73c-4.11-.39-5.08-1.41-5.08-3.6v-1.16l.13-13.43v-1.35c.07-8.42-5.08-11.44-10.15-11.44-5.65,0-11.18,3.79-14.2,10.22l1.67.9c2.64-4.76,7.07-7.13,11.05-7.13,3.6,0,7.39,2.06,7.39,7.26v3.66l-8.1,2.19c-6.88,1.86-10.73,5.27-10.73,9.57,0,3.79,3.08,7.33,7.84,7.33,2.96,0,7.13-1.29,10.41-5.59h.64l-.06,4.95ZM326.99,496.37h15.61v-1.73c-4.69-.26-5.72-1.35-5.72-3.6v-14.78c0-3.4,2.31-6.42,5.53-6.42,1.35,0,2.51.38,3.79.38,1.86,0,3.34-1.41,3.34-3.34s-1.67-3.21-3.85-3.21c-2.89,0-5.66,2.18-8.29,6.75h-.64l.13-6.75h-1.29c-2.51,1.73-5.65,2.83-8.67,3.28v1.73h5.78v22.36c0,2.25-.96,3.34-5.72,3.6v1.73ZM301.1,475.16c.96-5.72,4.18-9.19,9-9.19,5.08,0,8.1,4.05,8.1,9.12v.06h-17.09ZM310.87,497.65c5.98,0,10.6-3.6,13.43-10.02l-1.67-.77c-2.44,4.43-6.17,6.68-10.8,6.68-6.23,0-10.99-5.91-10.99-14.84v-1.22h22.75c.06-.26.06-.45.06-.71,0-7.45-4.95-13.11-12.4-13.11-8.67,0-14.84,7.26-14.84,17.09s5.98,16.9,14.46,16.9M258.11,496.37h15.61v-1.73c-4.69-.26-5.72-1.35-5.72-3.6v-18.18c2.38-3.34,5.65-5.46,9.38-5.46,2.44,0,4.37.77,5.78,2.31,1.41,1.61,1.99,3.85,1.99,6.62v14.71c0,2.25-.96,3.34-5.72,3.6v1.73h15.61v-1.73c-4.69-.26-5.72-1.35-5.72-3.6v-15.93c0-3.47-.9-6.36-2.63-8.29-1.93-2.06-4.76-3.15-7.84-3.15-4.05,0-7.65,1.99-10.34,5.59h-.64l.13-5.59h-1.29c-2.51,1.73-5.65,2.83-8.67,3.28v1.73h5.78v22.36c0,2.25-.96,3.34-5.72,3.6v1.73ZM232.21,475.16c.96-5.72,4.18-9.19,9-9.19,5.08,0,8.1,4.05,8.1,9.12v.06h-17.09ZM241.98,497.65c5.98,0,10.6-3.6,13.43-10.02l-1.67-.77c-2.44,4.43-6.17,6.68-10.79,6.68-6.23,0-10.99-5.91-10.99-14.84v-1.22h22.75c.06-.26.06-.45.06-.71,0-7.45-4.95-13.11-12.4-13.11-8.68,0-14.84,7.26-14.84,17.09s5.98,16.9,14.46,16.9M199.8,497.65c6.49,0,12.59-2.57,17.29-7.45v-8.16c0-4.18,1.03-5.53,6.17-5.72v-1.93h-18.31v1.93c6.49.19,7.71,1.54,7.71,5.72v8.74c-3.28,1.99-7.26,3.08-11.18,3.08-10.54,0-20.24-8.42-20.24-23.07,0-11.63,7.13-21.4,18.18-21.4,8.1,0,12.59,5.2,17.41,13.37h2.06l-4.11-15.42h-1.67l-2.12,2.89c-3.34-2.25-7.33-3.28-11.44-3.28-12.27,0-23.45,10.73-23.45,25.51s10.28,25.19,23.71,25.19"/>
    <path class="st2" d="M476.29,446.13c1.54,0,3.15-.45,4.5-1.22,2.83-1.54,4.95-4.37,6.68-8.48l13.24-31.93c1.09-2.57,2.51-3.66,5.2-3.79v-1.74h-11.95v1.74l1.8.13c1.61.13,2.89.51,2.89,1.86,0,.51-.26,1.16-.64,2.06l-7.84,19.28-7.9-19.15c-.39-1.03-.64-1.61-.64-2.18,0-1.22,1.22-1.74,2.89-1.86l1.8-.13v-1.74h-14.01v1.74c2.63.13,4.11,1.29,5.2,3.79l10.41,25-2.44,5.65c-1.61,3.79-3.21,5.78-5.33,5.78-.84,0-1.54-.32-2.51-.96-1.03-.71-1.8-1.03-2.83-1.03-1.8,0-3.4,1.48-3.4,3.34,0,2.06,1.99,3.86,4.88,3.86M447.63,430.39h15.61v-1.74c-4.69-.26-5.72-1.35-5.72-3.6v-14.78c0-3.41,2.31-6.43,5.53-6.43,1.35,0,2.51.39,3.79.39,1.86,0,3.34-1.41,3.34-3.34s-1.67-3.21-3.86-3.21c-2.89,0-5.65,2.18-8.29,6.75h-.64l.13-6.75h-1.29c-2.51,1.73-5.65,2.83-8.67,3.28v1.74h5.78v22.36c0,2.25-.96,3.34-5.72,3.6v1.74ZM423.73,431.67c4.43,0,7.77-2.38,10.15-5.59h.64l-.13,5.01,9.96-.71v-1.74c-3.92-.19-5.78-1.03-5.78-3.41v-26.92l-9.96,1.28v1.74c4.05.07,5.78,1.09,5.78,3.28v17.86c-2.18,3.15-5.4,5.46-9.25,5.46-2.18,0-3.98-.77-5.33-2.25-1.35-1.54-1.93-3.79-1.93-6.49v-20.88l-9.89,1.28v1.74c3.98.07,5.72,1.09,5.72,3.28v15.94c0,3.4.83,6.17,2.57,8.1,1.8,1.99,4.5,3.02,7.45,3.02M396.79,431.67c4.5,0,7.77-3.21,9.57-9.06l-1.74-.58c-1.48,3.98-3.66,6.04-6.62,6.04-4.11,0-4.82-3.92-4.88-7.33v-1.41l.06-17.74h11.63v-2.63h-11.57v-10.28h-1.74c-.77,5.78-4.18,9.57-8.74,11.18v1.73h6.36l-.32,19.47v.9c0,6.23,3.08,9.7,7.97,9.7M347.05,430.39h15.61v-1.74c-4.69-.26-5.72-1.35-5.72-3.6v-18.18c2.38-3.34,5.65-5.46,9.38-5.46,2.44,0,4.37.77,5.78,2.31,1.41,1.61,1.99,3.86,1.99,6.62v14.71c0,2.25-.96,3.34-5.72,3.6v1.74h15.61v-1.74c-4.69-.26-5.72-1.35-5.72-3.6v-15.93c0-3.47-.9-6.36-2.64-8.29-1.93-2.06-4.76-3.15-7.84-3.15-4.05,0-7.65,1.99-10.35,5.59h-.64l.13-5.59h-1.29c-2.51,1.73-5.65,2.83-8.67,3.28v1.74h5.78v22.36c0,2.25-.96,3.34-5.72,3.6v1.74ZM321.16,409.18c.96-5.72,4.18-9.19,9-9.19,5.08,0,8.1,4.05,8.1,9.12v.06h-17.09ZM330.93,431.67c5.98,0,10.6-3.6,13.43-10.02l-1.67-.77c-2.44,4.43-6.17,6.68-10.79,6.68-6.23,0-10.99-5.91-10.99-14.84v-1.22h22.75c.07-.26.07-.45.07-.71,0-7.45-4.95-13.11-12.4-13.11-8.67,0-14.84,7.26-14.84,17.09s5.98,16.9,14.46,16.9M291.36,431.67c8.42,0,15.42-4.5,19.92-12.79l-1.74-.96c-3.66,5.91-10.02,9.25-16.38,9.25-9.77,0-20.05-7.77-20.05-22.17,0-12.21,7.65-21.59,18.38-21.59,8.03,0,12.85,5.46,17.28,13.17l.13.19h2.06l-4.11-15.42h-1.67l-2.12,2.83c-3.21-2.06-7.13-3.21-11.31-3.21-12.4,0-23.58,10.54-23.58,25.77s10.35,24.93,23.2,24.93M234.08,434.5l10.15-12.34v12.34h-10.15ZM244.17,445.17h3.85v-7.65h4.43v-3.08h-4.43v-15.29h-3.85l-12.85,15.55v2.83h12.85v7.65ZM235.24,407.96h15.49v-1.86h-2.44c-2.57,0-3.09-.32-3.09-2.76v-21.72h-1.99l-9.57,7.71,1.29,1.54,6.43-5.08v17.54c0,2.38-.39,2.76-3.08,2.76h-3.02v1.86ZM222.65,414.65h40.93v-2.25h-40.93v2.25Z"/>
    <path class="st2" d="M531.68,372.12v1.86c5.85-.45,10.41-4.56,10.41-9.96,0-3.47-2.44-6.75-5.65-6.75-2.38,0-3.92,1.86-3.92,3.79s1.35,3.53,3.4,3.85c1.54.19,2.38,1.03,2.38,2.31,0,2.25-3.21,4.69-6.62,4.88M492.4,364.41h15.49v-1.73c-4.63-.26-5.59-1.35-5.59-3.6v-16.71l-.06-1.73c2.06-2.96,5.21-5.2,9.06-5.2,2.18,0,3.98.71,5.33,2.25,1.35,1.48,1.93,3.73,1.93,6.43v14.97c0,2.25-.96,3.34-5.65,3.6v1.73h15.55v-1.73c-4.76-.26-5.72-1.35-5.72-3.6v-16.26c0-3.47-.84-6.17-2.57-8.1-1.8-1.99-4.5-3.02-7.45-3.02-4.56,0-8.03,2.44-10.41,6.04h-.71c-.39-1.16-.96-2.12-1.8-3.02-1.8-1.99-4.5-3.02-7.45-3.02-4.43,0-7.77,2.31-10.22,5.59h-.64l.13-5.59h-1.29c-2.51,1.73-5.65,2.83-8.67,3.28v1.73h5.78v22.36c0,2.25-.96,3.34-5.72,3.6v1.73h15.61v-1.73c-4.69-.26-5.72-1.35-5.72-3.6v-18.25c2.18-3.08,5.4-5.4,9.25-5.4,2.18,0,3.98.71,5.33,2.25,1.35,1.48,1.93,3.73,1.93,6.43v14.97c0,2.25-1.03,3.34-5.72,3.6v1.73ZM447.82,365.7c4.43,0,7.77-2.38,10.15-5.59h.64l-.13,5.01,9.96-.71v-1.73c-3.92-.19-5.78-1.03-5.78-3.41v-26.92l-9.96,1.29v1.73c4.05.06,5.78,1.09,5.78,3.28v17.86c-2.19,3.15-5.4,5.46-9.25,5.46-2.18,0-3.98-.77-5.33-2.25-1.35-1.54-1.93-3.79-1.93-6.49v-20.88l-9.89,1.29v1.73c3.98.06,5.72,1.09,5.72,3.28v15.93c0,3.41.83,6.17,2.57,8.1,1.8,1.99,4.5,3.02,7.45,3.02M424.77,324.64c2.25,0,4.11-1.86,4.11-4.11s-1.86-4.05-4.11-4.05-4.11,1.86-4.11,4.05,1.86,4.11,4.11,4.11M416.99,364.41h15.49v-1.73c-4.63-.26-5.59-1.35-5.59-3.6v-27.37h-1.29c-2.51,1.73-5.65,2.83-8.67,3.28v1.73h5.78v22.36c0,2.25-.96,3.34-5.72,3.6v1.73ZM376.9,364.41h15.61v-1.73c-4.69-.26-5.72-1.35-5.72-3.6v-18.18c2.38-3.34,5.65-5.46,9.38-5.46,2.44,0,4.37.77,5.78,2.31,1.41,1.61,1.99,3.85,1.99,6.62v14.71c0,2.25-.96,3.34-5.72,3.6v1.73h15.61v-1.73c-4.69-.26-5.72-1.35-5.72-3.6v-15.93c0-3.47-.9-6.36-2.63-8.29-1.93-2.06-4.76-3.15-7.84-3.15-4.05,0-7.65,1.99-10.35,5.59h-.64l.13-5.59h-1.29c-2.51,1.73-5.65,2.83-8.67,3.28v1.73h5.78v22.36c0,2.25-.96,3.34-5.72,3.6v1.73ZM336.8,364.41h15.61v-1.73c-4.69-.26-5.72-1.35-5.72-3.6v-18.18c2.38-3.34,5.65-5.46,9.38-5.46,2.44,0,4.37.77,5.78,2.31,1.41,1.61,1.99,3.85,1.99,6.62v14.71c0,2.25-.96,3.34-5.72,3.6v1.73h15.61v-1.73c-4.69-.26-5.72-1.35-5.72-3.6v-15.93c0-3.47-.9-6.36-2.63-8.29-1.93-2.06-4.75-3.15-7.84-3.15-4.05,0-7.65,1.99-10.35,5.59h-.64l.13-5.59h-1.29c-2.51,1.73-5.65,2.83-8.67,3.28v1.73h5.78v22.36c0,2.25-.96,3.34-5.72,3.6v1.73ZM310.91,343.21c.96-5.72,4.18-9.19,8.99-9.19,5.08,0,8.1,4.05,8.1,9.12v.06h-17.09ZM320.68,365.7c5.97,0,10.6-3.6,13.43-10.02l-1.67-.77c-2.44,4.43-6.17,6.68-10.8,6.68-6.23,0-10.99-5.91-10.99-14.84v-1.22h22.75c.06-.26.06-.45.06-.71,0-7.45-4.95-13.11-12.4-13.11-8.67,0-14.84,7.26-14.84,17.09s5.98,16.9,14.46,16.9M289,364.41h15.61v-1.73c-4.69-.26-5.72-1.35-5.72-3.6v-44.08h-1.29c-2.51,1.8-5.65,2.83-8.67,3.28v1.73h5.78v39.07c0,2.25-.96,3.34-5.72,3.6v1.73ZM270.63,364.41h15.61v-1.73c-4.69-.26-5.72-1.35-5.72-3.6v-44.08h-1.29c-2.51,1.8-5.65,2.83-8.67,3.28v1.73h5.78v39.07c0,2.25-.96,3.34-5.72,3.6v1.73ZM260.16,324.64c2.25,0,4.11-1.86,4.11-4.11s-1.86-4.05-4.11-4.05-4.11,1.86-4.11,4.05,1.86,4.11,4.11,4.11M252.39,364.41h15.49v-1.73c-4.63-.26-5.59-1.35-5.59-3.6v-27.37h-1.29c-2.51,1.73-5.65,2.83-8.67,3.28v1.73h5.78v22.36c0,2.25-.96,3.34-5.72,3.6v1.73ZM213.65,365.57h1.67l17.28-45.62,3.73,36.82c.45,4.18-.71,5.53-7.13,5.72v1.93h19.73v-1.93c-6.36-.19-7.65-1.54-8.03-5.72l-3.4-33.15c-.45-4.18.77-5.53,7.13-5.72v-1.93h-13.11l-15.94,41.89-15.68-41.89h-13.3v1.93c6.36.19,7.58,1.54,7.13,5.72l-3.41,33.15c-.38,4.18-1.67,5.53-8.03,5.72v1.93h17.73v-1.93c-6.36-.19-7.58-1.54-7.13-5.72l3.79-36.75,16.96,45.56Z"/>
    <path class="st2" d="M478.3,306.14v1.86c5.85-.45,10.41-4.56,10.41-9.96,0-3.47-2.44-6.75-5.65-6.75-2.38,0-3.92,1.86-3.92,3.79s1.35,3.53,3.4,3.86c1.54.19,2.38,1.03,2.38,2.31,0,2.25-3.21,4.69-6.62,4.88M438.19,298.43h15.61v-1.73c-4.69-.26-5.72-1.35-5.72-3.6v-18.18c2.38-3.34,5.65-5.46,9.38-5.46,2.44,0,4.37.77,5.78,2.31,1.41,1.61,1.99,3.86,1.99,6.62v14.71c0,2.25-.96,3.34-5.72,3.6v1.73h15.61v-1.73c-4.69-.26-5.72-1.35-5.72-3.6v-15.93c0-3.47-.9-6.36-2.63-8.29-1.93-2.06-4.75-3.15-7.84-3.15-4.05,0-7.65,1.99-10.34,5.59h-.64l.13-22.3h-1.29c-2.51,1.8-5.65,2.83-8.67,3.28v1.73h5.78v39.07c0,2.25-.96,3.34-5.72,3.6v1.73ZM423.64,299.72c5.98,0,10.6-3.6,13.43-10.02l-1.67-.77c-2.44,4.43-6.1,6.62-10.79,6.68-6.17,0-10.99-5.91-10.99-15.04,0-7.26,4.05-12.53,10.15-12.53,3.15,0,5.27,1.41,5.65,4.76.32,2.57,1.67,4.05,3.6,4.05s3.21-1.41,3.21-3.41c0-4.31-5.72-7.78-11.89-7.78-8.74,0-15.16,6.94-15.16,17.16s5.98,16.9,14.46,16.9M390.25,297.27c-7.9,0-11.44-9.57-11.44-16.77s3.79-12.4,9.89-12.4c7.84,0,11.31,9.7,11.31,16.77s-3.6,12.4-9.77,12.4M389.48,299.72c8.61,0,15.1-7.07,15.1-17.22,0-9.38-6.3-16.84-15.1-16.84s-15.29,7.07-15.29,17.03,6.36,17.03,15.29,17.03M345.42,292.97v-18.06c2.51-3.66,5.85-5.59,9.51-5.59,6.36,0,9.9,5.59,9.9,13.3,0,8.8-4.43,14.78-10.92,14.84-3.47.06-6.42-1.54-8.48-4.5M335.53,313.21h15.61v-1.74c-4.69-.26-5.72-1.35-5.72-3.6v-10.47c2.83,1.54,5.65,2.31,8.48,2.31,8.55,0,15.68-7,15.68-18.05,0-9.51-5.27-15.93-13.11-15.93-4.24,0-7.84,1.99-10.54,5.59h-.64l.13-5.59h-1.29c-2.44,1.73-5.65,2.83-8.67,3.28v1.73h5.78v37.14c0,2.25-.96,3.34-5.72,3.6v1.74ZM330.32,298.43l3.98-14.84h-2.06c-2.44,8.23-6.81,12.34-14.59,12.34h-13.49v-20.43h8.55c4.18,0,5.53,1.35,5.72,8.61h1.93v-19.85h-1.93c-.19,7.33-1.54,8.74-5.72,8.74h-8.55v-20.56h12.14c7.77,0,12.21,4.11,14.59,12.4h2.06l-3.92-14.84h-36.95v1.93c6.36.19,7.58,1.54,7.58,5.72v33.16c0,4.11-1.22,5.53-7.58,5.72v1.93h38.23ZM254.24,287.31v-1.73l7.97-7.13c3.86-3.47,5.72-6.04,5.72-9.06,0-3.21-2.06-5.46-5.27-5.46-2.76,0-5.14,1.73-7.07,4.37l-1.41-.9c2.31-4.11,5.65-7.13,9.9-7.13s8.29,3.4,8.29,7.9c0,3.53-2.31,6.94-7.77,11.18l-5.78,4.56h8.03c3.28,0,4.82-1.29,5.78-4.37h1.74l-2.06,7.77h-18.06ZM264.26,300.36c14.39,0,26.15-11.76,26.15-26.22s-11.76-26.15-26.15-26.15-26.22,11.76-26.22,26.15,11.76,26.22,26.22,26.22"/>
    <path class="st2" d="M525.22,240.16v1.86c5.85-.45,10.41-4.56,10.41-9.96,0-3.47-2.44-6.75-5.65-6.75-2.38,0-3.92,1.86-3.92,3.79s1.35,3.53,3.41,3.85c1.54.19,2.38,1.03,2.38,2.31,0,2.25-3.21,4.69-6.62,4.88M498.18,211.25c.96-5.72,4.18-9.19,9-9.19,5.08,0,8.1,4.05,8.1,9.12v.06h-17.09ZM507.94,233.74c5.98,0,10.6-3.6,13.43-10.02l-1.67-.77c-2.44,4.43-6.17,6.68-10.79,6.68-6.23,0-10.99-5.91-10.99-14.84v-1.22h22.75c.07-.26.07-.45.07-.71,0-7.45-4.95-13.11-12.4-13.11-8.67,0-14.84,7.26-14.84,17.09s5.98,16.9,14.46,16.9M474.12,220.95c-5.33,0-7.84-4.95-7.84-9.77,0-5.27,3.02-8.61,7.45-8.61,5.14,0,7.9,4.43,7.9,9.64s-3.02,8.74-7.52,8.74M472.9,245.88c-4.69,0-9.19-1.61-9.19-6.23,0-3.66,2.76-5.27,6.36-7h10.67c3.73,0,6.3,1.86,6.3,5.14,0,5.78-8.55,8.1-14.14,8.1M471.36,248.19c7.65,0,19.79-3.6,19.79-12.14,0-4.76-3.79-7.58-9.32-7.58h-13.49c-2.51,0-4.37-1.03-4.37-3.08,0-1.73,1.41-2.57,3.98-3.53,1.67.83,3.73,1.28,6.04,1.28,7.2,0,12.53-4.63,12.53-11.18,0-3.02-1.22-5.91-3.28-7.58v-.71h8.8v-5.4h-1.29c-2.89,1.74-6.3,2.96-10.28,3.53-1.86-.83-3.98-1.41-6.49-1.41-7.39,0-12.66,4.76-12.66,11.37,0,3.66,1.61,6.88,4.5,8.74v.58c-3.53,1.28-5.66,2.96-5.66,5.78,0,3.08,2.57,5.01,5.72,5.33v.71c-4.5,2.06-7.07,4.24-7.07,7.65,0,5.72,6.81,7.65,12.53,7.65M422.1,213.82l9.57-24.1,9.45,24.1h-19.02ZM450.5,225l-16.77-42.15h-1.93l-16.9,42.15c-1.74,4.37-2.89,5.4-6.68,5.53v1.93h16.13v-1.93l-2.06-.13c-3.6-.19-5.27-1.09-5.27-2.89,0-.71.26-1.54.64-2.51l3.47-8.74h20.95l3.47,8.8c.45,1.09.64,1.86.64,2.57,0,1.8-1.48,2.63-4.76,2.76l-2.12.13v1.93h17.93v-1.93c-3.79-.13-5.01-1.16-6.75-5.53M377.44,240.16v1.86c5.85-.45,10.41-4.56,10.41-9.96,0-3.47-2.44-6.75-5.66-6.75-2.38,0-3.92,1.86-3.92,3.79s1.35,3.53,3.4,3.85c1.54.19,2.38,1.03,2.38,2.31,0,2.25-3.21,4.69-6.62,4.88M344.8,216.84c0-8.8,4.43-14.78,10.92-14.84,3.47-.06,6.42,1.54,8.48,4.5v18.06c-2.51,3.66-5.85,5.59-9.51,5.59-6.36,0-9.89-5.59-9.89-13.3M355.72,199.75c-8.55,0-15.68,7-15.68,18.06,0,9.51,5.27,15.93,13.11,15.93,4.24,0,7.84-1.99,10.54-5.59h.64l-.13,5.01,9.9-.71.06-1.73c-3.98-.19-5.78-1.03-5.78-3.41v-44.27h-1.29c-2.51,1.8-5.65,2.83-8.67,3.28v1.73h5.78v14.01c-2.83-1.54-5.65-2.31-8.48-2.31M320.96,231.3c-7.9,0-11.44-9.57-11.44-16.77s3.79-12.4,9.9-12.4c7.84,0,11.31,9.7,11.31,16.77s-3.6,12.4-9.77,12.4M320.19,233.74c8.61,0,15.1-7.07,15.1-17.22,0-9.38-6.3-16.84-15.1-16.84s-15.29,7.07-15.29,17.03,6.36,17.03,15.29,17.03M295.64,192.68c2.25,0,4.11-1.86,4.11-4.11s-1.86-4.05-4.11-4.05-4.11,1.86-4.11,4.05,1.86,4.11,4.11,4.11M287.87,232.45h15.49v-1.73c-4.63-.26-5.59-1.35-5.59-3.6v-27.37h-1.29c-2.51,1.73-5.65,2.83-8.67,3.28v1.73h5.78v22.36c0,2.25-.96,3.34-5.72,3.6v1.73ZM262.38,232.45h15.61v-1.73c-4.69-.26-5.72-1.35-5.72-3.6v-14.78c0-3.41,2.31-6.42,5.53-6.42,1.35,0,2.51.39,3.79.39,1.86,0,3.34-1.41,3.34-3.34s-1.67-3.21-3.86-3.21c-2.89,0-5.65,2.18-8.29,6.75h-.64l.13-6.75h-1.28c-2.51,1.73-5.65,2.83-8.67,3.28v1.73h5.78v22.36c0,2.25-.96,3.34-5.72,3.6v1.73ZM236.48,211.25c.96-5.72,4.18-9.19,9-9.19,5.08,0,8.1,4.05,8.1,9.12v.06h-17.09ZM246.25,233.74c5.98,0,10.6-3.6,13.43-10.02l-1.67-.77c-2.44,4.43-6.17,6.68-10.8,6.68-6.23,0-10.99-5.91-10.99-14.84v-1.22h22.75c.06-.26.06-.45.06-.71,0-7.45-4.95-13.11-12.4-13.11-8.68,0-14.84,7.26-14.84,17.09s5.98,16.9,14.46,16.9M201.92,211.96v-25.51h4.82c5.01,0,8.35.71,10.99,2.06,3.98,2.12,5.91,6.1,5.91,10.73s-1.93,8.48-5.91,10.67c-2.44,1.35-5.85,2.06-10.99,2.06h-4.82ZM189.84,232.45h19.66v-1.93c-6.36-.19-7.58-1.61-7.58-5.72v-10.41h6.17c5.53,0,9.51-.71,12.79-2.25,5.59-2.57,8.35-7.52,8.35-12.92s-2.76-10.54-8.42-12.98c-3.08-1.54-7.2-2.25-13.17-2.25h-17.8v1.93c6.36.19,7.58,1.54,7.58,5.72v33.16c0,4.11-1.22,5.53-7.58,5.72v1.93Z"/>
    <path class="st2" d="M527.74,174.18v1.86c5.85-.45,10.41-4.56,10.41-9.96,0-3.47-2.44-6.75-5.66-6.75-2.38,0-3.92,1.86-3.92,3.79s1.35,3.53,3.4,3.85c1.54.19,2.38,1.03,2.38,2.31,0,2.25-3.21,4.69-6.62,4.88M501.64,159.21c0-2.57,1.8-4.95,7.71-6.75l6.17-1.86v8.03c-2.51,3.66-5.53,5.59-8.55,5.59s-5.33-2.06-5.33-5.01M515.52,167.12l9.19-.64v-1.73c-4.11-.39-5.08-1.41-5.08-3.6v-1.16l.13-13.43v-1.35c.06-8.42-5.08-11.44-10.15-11.44-5.65,0-11.18,3.79-14.2,10.22l1.67.9c2.64-4.75,7.07-7.13,11.05-7.13,3.6,0,7.39,2.06,7.39,7.26v3.66l-8.1,2.18c-6.88,1.86-10.73,5.27-10.73,9.57,0,3.79,3.08,7.33,7.84,7.33,2.96,0,7.13-1.29,10.41-5.59h.64l-.07,4.95ZM471.58,166.47h15.61v-1.73c-4.69-.26-5.72-1.35-5.72-3.6v-14.78c0-3.4,2.31-6.42,5.53-6.42,1.35,0,2.51.39,3.79.39,1.86,0,3.34-1.41,3.34-3.34s-1.67-3.21-3.86-3.21c-2.89,0-5.65,2.18-8.29,6.75h-.64l.13-6.75h-1.28c-2.51,1.73-5.65,2.83-8.67,3.28v1.74h5.78v22.36c0,2.25-.96,3.34-5.72,3.6v1.73ZM465.26,166.47l3.98-14.84h-2.06c-2.44,8.23-6.81,12.34-14.59,12.34h-13.49v-20.43h8.55c4.18,0,5.53,1.35,5.72,8.61h1.93v-19.86h-1.93c-.19,7.33-1.54,8.74-5.72,8.74h-8.55v-20.56h12.14c7.77,0,12.21,4.11,14.59,12.4h2.06l-3.92-14.84h-36.95v1.93c6.36.19,7.58,1.54,7.58,5.72v33.16c0,4.11-1.22,5.53-7.58,5.72v1.93h38.23ZM394.65,174.18v1.86c5.85-.45,10.41-4.56,10.41-9.96,0-3.47-2.44-6.75-5.65-6.75-2.38,0-3.92,1.86-3.92,3.79s1.35,3.53,3.41,3.85c1.54.19,2.38,1.03,2.38,2.31,0,2.25-3.21,4.69-6.62,4.88M354.54,166.47h15.61v-1.73c-4.69-.26-5.72-1.35-5.72-3.6v-18.18c2.38-3.34,5.66-5.46,9.38-5.46,2.44,0,4.37.77,5.78,2.31,1.41,1.61,1.99,3.86,1.99,6.62v14.71c0,2.25-.96,3.34-5.72,3.6v1.73h15.61v-1.73c-4.69-.26-5.72-1.35-5.72-3.6v-15.93c0-3.47-.9-6.36-2.64-8.29-1.93-2.06-4.75-3.15-7.84-3.15-4.05,0-7.65,1.99-10.34,5.59h-.64l.13-5.59h-1.28c-2.51,1.73-5.65,2.83-8.67,3.28v1.74h5.78v22.36c0,2.25-.96,3.34-5.72,3.6v1.73ZM337.92,165.32c-7.9,0-11.44-9.57-11.44-16.77s3.79-12.4,9.89-12.4c7.84,0,11.31,9.7,11.31,16.77s-3.6,12.4-9.77,12.4M337.15,167.76c8.61,0,15.1-7.07,15.1-17.22,0-9.38-6.3-16.84-15.1-16.84s-15.29,7.07-15.29,17.03,6.36,17.03,15.29,17.03M294.52,145.27c.96-5.72,4.18-9.19,9-9.19,5.08,0,8.1,4.05,8.1,9.12v.06h-17.09ZM304.29,167.76c5.98,0,10.6-3.6,13.43-10.02l-1.67-.77c-2.44,4.43-6.17,6.68-10.8,6.68-6.23,0-10.99-5.91-10.99-14.84v-1.22h22.75c.06-.26.06-.45.06-.71,0-7.45-4.95-13.11-12.4-13.11-8.67,0-14.84,7.26-14.84,17.09s5.98,16.9,14.46,16.9M253.38,147.84l9.57-24.1,9.45,24.1h-19.02ZM281.78,159.02l-16.77-42.15h-1.93l-16.9,42.15c-1.74,4.37-2.89,5.4-6.68,5.53v1.93h16.13v-1.93l-2.06-.13c-3.6-.19-5.27-1.09-5.27-2.89,0-.71.26-1.54.64-2.51l3.47-8.74h20.95l3.47,8.8c.45,1.09.64,1.86.64,2.57,0,1.8-1.48,2.63-4.75,2.76l-2.12.13v1.93h17.93v-1.93c-3.79-.13-5.01-1.16-6.75-5.53M207.49,155.36h15.49v-1.86h-2.44c-2.57,0-3.08-.39-3.08-2.83v-22.17h-1.99l-9.57,7.84,1.29,1.61,6.43-5.21v17.93c0,2.38-.39,2.83-3.08,2.83h-3.02v1.86ZM214.82,168.4c14.39,0,26.15-11.76,26.15-26.22s-11.76-26.15-26.15-26.15-26.22,11.76-26.22,26.15,11.76,26.22,26.22,26.22M214.82,165.7c-12.98,0-23.52-10.54-23.52-23.52s10.54-23.45,23.52-23.45,23.45,10.54,23.45,23.45-10.54,23.52-23.45,23.52"/>
    <path class="st2" d="M1076.1,656.26l11.24,1.93.26.96-7.84,8.1,3.85,2.83,5.27-10.02,1.03-.06,5.27,10.02,3.85-2.83-7.9-8.16.32-.9,11.05-1.93-1.48-4.56-10.22,5.01-.71-.51,1.61-11.25h-4.76l1.61,11.18-.84.64-10.15-5.01-1.48,4.56ZM1039.47,694.3h15.61v-1.74c-4.69-.26-5.72-1.35-5.72-3.6v-18.18c2.38-3.34,5.66-5.46,9.38-5.46,2.44,0,4.37.77,5.78,2.31,1.41,1.61,1.99,3.86,1.99,6.62v14.72c0,2.25-.96,3.34-5.72,3.6v1.74h15.61v-1.74c-4.69-.26-5.72-1.35-5.72-3.6v-15.93c0-3.47-.9-6.36-2.63-8.29-1.93-2.06-4.76-3.15-7.84-3.15-4.05,0-7.65,1.99-10.34,5.59h-.64l.13-5.59h-1.29c-2.51,1.73-5.65,2.83-8.67,3.28v1.74h5.78v22.36c0,2.25-.96,3.34-5.72,3.6v1.74ZM1022.2,693.15c-7.9,0-11.44-9.57-11.44-16.77s3.79-12.4,9.9-12.4c7.84,0,11.31,9.7,11.31,16.77s-3.6,12.4-9.77,12.4M1021.43,695.59c8.61,0,15.1-7.07,15.1-17.22,0-9.38-6.3-16.84-15.1-16.84s-15.29,7.07-15.29,17.03,6.36,17.03,15.29,17.03M996.24,654.53c2.25,0,4.11-1.86,4.11-4.11s-1.86-4.05-4.11-4.05-4.11,1.86-4.11,4.05,1.86,4.11,4.11,4.11M988.46,694.3h15.49v-1.74c-4.63-.26-5.59-1.35-5.59-3.6v-27.37h-1.29c-2.51,1.73-5.65,2.83-8.67,3.28v1.74h5.78v22.36c0,2.25-.96,3.34-5.72,3.6v1.74ZM973.78,695.59c5.59,0,10.79-3.53,10.79-9.25,0-4.82-3.66-7.65-8.8-9.51l-6.3-2.25c-3.66-1.35-5.98-3.02-5.98-5.85.06-2.89,2.76-4.95,6.42-4.95,4.82,0,8.03,3.21,12.4,9.44h1.86l-2.96-10.99h-1.48l-1.86,2.44c-2.51-2.18-5.46-3.15-8.29-3.15-5.4,0-10.09,3.47-10.09,8.48,0,4.69,3.34,7.39,8.29,9.12l6.43,2.31c4.18,1.48,6.43,3.34,6.36,6.3,0,3.08-3.09,5.46-7,5.46-5.59,0-9.32-4.05-13.56-10.34h-1.86l3.28,12.08h1.41l2.06-2.83c2.64,2.38,5.85,3.47,8.87,3.47M942.16,695.59c5.59,0,10.79-3.53,10.79-9.25,0-4.82-3.66-7.65-8.8-9.51l-6.3-2.25c-3.66-1.35-5.97-3.02-5.97-5.85.06-2.89,2.76-4.95,6.42-4.95,4.82,0,8.03,3.21,12.4,9.44h1.86l-2.96-10.99h-1.48l-1.86,2.44c-2.51-2.18-5.46-3.15-8.29-3.15-5.4,0-10.09,3.47-10.09,8.48,0,4.69,3.34,7.39,8.29,9.12l6.42,2.31c4.18,1.48,6.43,3.34,6.36,6.3,0,3.08-3.08,5.46-7,5.46-5.59,0-9.32-4.05-13.56-10.34h-1.86l3.28,12.08h1.41l2.06-2.83c2.64,2.38,5.85,3.47,8.87,3.47M898.49,673.1c.96-5.72,4.18-9.19,9-9.19,5.08,0,8.1,4.05,8.1,9.13v.06h-17.09ZM908.26,695.59c5.97,0,10.6-3.6,13.43-10.02l-1.67-.77c-2.44,4.43-6.17,6.68-10.79,6.68-6.23,0-10.99-5.91-10.99-14.84v-1.22h22.75c.06-.26.06-.45.06-.71,0-7.45-4.95-13.11-12.4-13.11-8.67,0-14.84,7.26-14.84,17.09s5.98,16.9,14.46,16.9M869.07,694.3h15.61v-1.74c-4.69-.26-5.72-1.35-5.72-3.6v-14.78c0-3.4,2.31-6.43,5.53-6.43,1.35,0,2.51.38,3.79.38,1.86,0,3.34-1.41,3.34-3.34s-1.67-3.21-3.85-3.21c-2.89,0-5.65,2.18-8.29,6.75h-.64l.13-6.75h-1.28c-2.51,1.73-5.65,2.83-8.67,3.28v1.74h5.78v22.36c0,2.25-.96,3.34-5.72,3.6v1.74ZM847.2,682.8c-5.33,0-7.84-4.95-7.84-9.77,0-5.27,3.02-8.61,7.45-8.61,5.14,0,7.9,4.43,7.9,9.64s-3.02,8.74-7.52,8.74M845.98,707.73c-4.69,0-9.19-1.61-9.19-6.23,0-3.66,2.76-5.27,6.36-7h10.67c3.73,0,6.3,1.86,6.3,5.14,0,5.78-8.55,8.1-14.14,8.1M844.44,710.05c7.65,0,19.79-3.6,19.79-12.14,0-4.75-3.79-7.58-9.32-7.58h-13.49c-2.51,0-4.37-1.03-4.37-3.08,0-1.74,1.41-2.57,3.98-3.53,1.67.83,3.73,1.28,6.04,1.28,7.2,0,12.53-4.63,12.53-11.18,0-3.02-1.22-5.91-3.28-7.58v-.71h8.8v-5.4h-1.28c-2.89,1.73-6.3,2.96-10.28,3.53-1.86-.84-3.98-1.41-6.49-1.41-7.39,0-12.66,4.76-12.66,11.37,0,3.66,1.61,6.88,4.5,8.74v.58c-3.53,1.29-5.66,2.96-5.66,5.78,0,3.08,2.57,5.01,5.72,5.33v.71c-4.5,2.06-7.07,4.24-7.07,7.65,0,5.72,6.81,7.65,12.53,7.65M814.38,693.15c-7.9,0-11.44-9.57-11.44-16.77s3.79-12.4,9.9-12.4c7.84,0,11.31,9.7,11.31,16.77s-3.6,12.4-9.77,12.4M813.61,695.59c8.61,0,15.1-7.07,15.1-17.22,0-9.38-6.3-16.84-15.1-16.84s-15.29,7.07-15.29,17.03,6.36,17.03,15.29,17.03M773.71,694.3h15.61v-1.74c-4.69-.26-5.72-1.35-5.72-3.6v-14.78c0-3.4,2.31-6.43,5.53-6.43,1.35,0,2.51.38,3.79.38,1.86,0,3.34-1.41,3.34-3.34s-1.67-3.21-3.85-3.21c-2.89,0-5.66,2.18-8.29,6.75h-.64l.13-6.75h-1.28c-2.51,1.73-5.66,2.83-8.67,3.28v1.74h5.78v22.36c0,2.25-.96,3.34-5.72,3.6v1.74ZM741.66,673.81v-25.51h4.82c5.01,0,8.35.71,10.99,2.06,3.98,2.12,5.91,6.1,5.91,10.73s-1.93,8.48-5.91,10.67c-2.44,1.35-5.85,2.06-10.99,2.06h-4.82ZM729.58,694.3h19.66v-1.93c-6.36-.19-7.58-1.61-7.58-5.72v-10.41h6.17c5.53,0,9.51-.71,12.79-2.25,5.59-2.57,8.35-7.52,8.35-12.92s-2.76-10.54-8.42-12.98c-3.08-1.54-7.2-2.25-13.17-2.25h-17.8v1.93c6.36.19,7.58,1.54,7.58,5.72v33.16c0,4.11-1.22,5.53-7.58,5.72v1.93Z"/>
    <path class="st2" d="M1052.1,636.04v1.86c5.85-.45,10.41-4.56,10.41-9.96,0-3.47-2.44-6.75-5.66-6.75-2.38,0-3.92,1.86-3.92,3.79s1.35,3.53,3.41,3.86c1.54.19,2.38,1.03,2.38,2.31,0,2.25-3.21,4.69-6.62,4.88M1024.54,607.12c.96-5.72,4.18-9.19,8.99-9.19,5.08,0,8.1,4.05,8.1,9.12v.06h-17.09ZM1034.3,629.61c5.98,0,10.6-3.6,13.43-10.02l-1.67-.77c-2.44,4.43-6.17,6.68-10.79,6.68-6.23,0-10.99-5.91-10.99-14.84v-1.22h22.75c.06-.26.06-.45.06-.71,0-7.45-4.95-13.11-12.4-13.11-8.68,0-14.84,7.26-14.84,17.09s5.98,16.9,14.46,16.9M1002.04,629.61c5.98,0,10.6-3.6,13.43-10.02l-1.67-.77c-2.44,4.43-6.1,6.62-10.79,6.68-6.17,0-10.99-5.91-10.99-15.04,0-7.26,4.05-12.53,10.15-12.53,3.15,0,5.27,1.41,5.65,4.75.32,2.57,1.67,4.05,3.6,4.05s3.21-1.41,3.21-3.4c0-4.31-5.72-7.78-11.89-7.78-8.74,0-15.16,6.94-15.16,17.16s5.98,16.9,14.46,16.9M948.83,628.32h15.61v-1.74c-4.69-.26-5.72-1.35-5.72-3.6v-18.18c2.38-3.34,5.65-5.46,9.38-5.46,2.44,0,4.37.77,5.78,2.31,1.41,1.61,1.99,3.86,1.99,6.62v14.71c0,2.25-.96,3.34-5.72,3.6v1.74h15.61v-1.74c-4.69-.26-5.72-1.35-5.72-3.6v-15.93c0-3.47-.9-6.36-2.63-8.29-1.93-2.06-4.76-3.15-7.84-3.15-4.05,0-7.65,1.99-10.34,5.59h-.64l.13-5.59h-1.29c-2.51,1.74-5.65,2.83-8.67,3.28v1.74h5.78v22.36c0,2.25-.96,3.34-5.72,3.6v1.74ZM922.42,607.12c.96-5.72,4.18-9.19,9-9.19,5.08,0,8.1,4.05,8.1,9.12v.06h-17.09ZM932.19,629.61c5.97,0,10.6-3.6,13.43-10.02l-1.67-.77c-2.44,4.43-6.17,6.68-10.79,6.68-6.23,0-10.99-5.91-10.99-14.84v-1.22h22.75c.06-.26.06-.45.06-.71,0-7.45-4.95-13.11-12.4-13.11-8.67,0-14.84,7.26-14.84,17.09s5.98,16.9,14.46,16.9M894.88,629.61c4.43,0,7.78-2.38,10.15-5.59h.64l-.13,5.01,9.96-.71v-1.74c-3.92-.19-5.78-1.03-5.78-3.4v-26.92l-9.96,1.29v1.74c4.05.06,5.78,1.09,5.78,3.28v17.86c-2.18,3.15-5.4,5.46-9.25,5.46-2.18,0-3.98-.77-5.33-2.25-1.35-1.54-1.93-3.79-1.93-6.49v-20.88l-9.9,1.29v1.74c3.98.06,5.72,1.09,5.72,3.28v15.93c0,3.4.84,6.17,2.57,8.1,1.8,1.99,4.5,3.02,7.45,3.02M850.46,612.71c0-8.8,4.43-14.78,10.92-14.84,3.47-.06,6.43,1.54,8.48,4.5v18.06c-2.51,3.66-5.85,5.59-9.51,5.59-6.36,0-9.9-5.59-9.9-13.3M861.38,595.62c-8.55,0-15.68,7-15.68,18.06,0,9.51,5.27,15.93,13.11,15.93,4.24,0,7.84-1.99,10.54-5.59h.64l-.13,13.75c0,2.25-1.03,3.34-5.72,3.6v1.74h15.61v-1.74c-4.76-.26-5.72-1.35-5.72-3.6v-42.15h-1.73l-2.12,2.51c-2.89-1.67-5.85-2.51-8.8-2.51M817.79,607.12c.96-5.72,4.18-9.19,8.99-9.19,5.08,0,8.1,4.05,8.1,9.12v.06h-17.09ZM827.55,629.61c5.98,0,10.6-3.6,13.43-10.02l-1.67-.77c-2.44,4.43-6.17,6.68-10.8,6.68-6.23,0-10.99-5.91-10.99-14.84v-1.22h22.75c.06-.26.06-.45.06-.71,0-7.45-4.95-13.11-12.4-13.11-8.67,0-14.84,7.26-14.84,17.09s5.98,16.9,14.46,16.9M792.2,629.61c8.8,0,15.36-5.46,15.36-13.49,0-6.88-5.08-11.05-12.66-13.81l-9.45-3.34c-5.98-2.12-8.99-5.01-8.99-9.19,0-5.08,4.37-8.48,10.35-8.48,7.45,0,11.89,4.69,17.8,13.43h2.06l-4.11-15.42h-1.67l-2.89,3.92c-3.47-3.15-7.39-4.31-11.31-4.31-8.16,0-14.65,5.14-14.65,12.59,0,6.23,4.69,10.28,11.69,12.72l9.77,3.47c6.75,2.38,9.57,5.53,9.57,9.89,0,5.53-4.37,9.51-11.37,9.51-8.42,0-13.62-5.72-19.08-14.14l-.64-1.03h-2.06l4.5,16.96h1.67l3.15-4.3c3.66,3.34,8.29,5.01,12.98,5.01"/>
    <path class="st2" d="M1080.59,570.06v1.86c5.85-.45,10.41-4.56,10.41-9.96,0-3.47-2.44-6.75-5.66-6.75-2.38,0-3.92,1.86-3.92,3.79s1.35,3.53,3.41,3.86c1.54.19,2.38,1.03,2.38,2.31,0,2.25-3.21,4.69-6.62,4.88M1046.35,555.28v-34.31c0-4.18,1.03-5.14,5.59-5.14h4.76c4.69,0,5.65,1.09,5.65,5.14v34.31c0,4.05-.96,5.14-5.65,5.14h-4.76c-4.56,0-5.59-.96-5.59-5.14M1012.55,536.32l11.37-13.94c3.86-4.82,6.3-6.43,9.7-6.55h2.57c4.69,0,5.66,1.09,5.66,5.14v34.31c0,4.05-.96,5.14-5.66,5.14h-1.03c-3.66-.32-5.2-1.35-8.48-5.65l-14.14-18.44ZM984.47,560.42v1.93h17.54v-1.93l-2.38-.26c-2.25-.19-3.6-.77-3.6-2.31,0-1.03.58-2.19,1.8-3.73l11.63-14.46,10.92,14.46c1.35,1.67,1.93,3.08,1.93,4.05,0,1.41-1.28,1.8-3.47,2.06l-2.38.19v1.93h60.01v-1.93h-4.05c-4.56,0-5.59-.96-5.59-5.14v-34.31c0-4.18,1.03-5.14,5.59-5.14h4.05v-1.93h-59.76v1.93l2.06.13c2.51.13,3.98.83,3.98,2.31,0,.84-.58,2.06-1.73,3.53l-10.15,12.59-9.83-12.98c-1.03-1.41-1.54-2.44-1.54-3.21,0-1.41,1.29-2.12,3.86-2.25l2.12-.13v-1.93h-19.47v1.93c3.79.32,6.23,1.67,10.34,6.94l11.37,15.04-13.11,16c-3.34,4.05-5.78,6.17-10.15,6.62M977.08,536.45h-31.55v3.34h31.55v-3.34ZM893.1,536.32l11.37-13.94c3.86-4.82,6.3-6.43,9.7-6.55h2.57c4.69,0,5.66,1.09,5.66,5.14v34.31c0,4.05-.96,5.14-5.66,5.14h-1.03c-3.66-.32-5.21-1.35-8.48-5.65l-14.14-18.44ZM865.02,560.42v1.93h17.54v-1.93l-2.38-.26c-2.25-.19-3.6-.77-3.6-2.31,0-1.03.58-2.19,1.8-3.73l11.63-14.46,10.92,14.46c1.35,1.67,1.93,3.08,1.93,4.05,0,1.41-1.28,1.8-3.47,2.06l-2.38.19v1.93h39.52v-1.93h-4.05c-4.56,0-5.59-.96-5.59-5.14v-34.31c0-4.18,1.03-5.14,5.59-5.14h4.05v-1.93h-39.26v1.93l2.06.13c2.51.13,3.98.83,3.98,2.31,0,.84-.58,2.06-1.73,3.53l-10.15,12.59-9.83-12.98c-1.03-1.41-1.54-2.44-1.54-3.21,0-1.41,1.29-2.12,3.86-2.25l2.12-.13v-1.93h-19.47v1.93c3.79.32,6.23,1.67,10.34,6.94l11.37,15.04-13.11,16c-3.34,4.05-5.78,6.17-10.15,6.62M839.64,563.05c2.18,0,4.05-1.8,4.05-4.05s-1.86-4.11-4.05-4.11c-2.38,0-4.18,1.8-4.18,4.11s1.8,4.05,4.18,4.05M815.84,562.35h15.61v-1.74c-4.69-.26-5.72-1.35-5.72-3.6v-44.08h-1.28c-2.51,1.8-5.65,2.83-8.67,3.28v1.74h5.78v39.07c0,2.25-.96,3.34-5.72,3.6v1.74ZM798.29,561.19c-7.9,0-11.44-9.57-11.44-16.77s3.79-12.4,9.9-12.4c7.84,0,11.31,9.7,11.31,16.77s-3.6,12.4-9.77,12.4M797.52,563.63c8.61,0,15.1-7.07,15.1-17.22,0-9.38-6.3-16.83-15.1-16.83s-15.29,7.07-15.29,17.03,6.36,17.03,15.29,17.03M745.65,521.35l16.77,42.15h1.93l16.9-42.15c1.73-4.37,2.89-5.4,6.68-5.53v-1.93h-16.13v1.93l2.06.13c3.6.19,5.27,1.09,5.27,2.89,0,.71-.26,1.54-.64,2.51l-14.01,35.28-13.88-35.34c-.45-1.09-.64-1.86-.64-2.57,0-1.8,1.48-2.64,4.76-2.76l2.12-.13v-1.93h-17.93v1.93c3.79.13,5.01,1.16,6.75,5.53"/>
    <path class="st2" d="M1041.56,504.08v1.86c5.85-.45,10.41-4.56,10.41-9.96,0-3.47-2.44-6.75-5.66-6.75-2.38,0-3.92,1.86-3.92,3.79s1.35,3.53,3.41,3.86c1.54.19,2.38,1.03,2.38,2.31,0,2.25-3.21,4.69-6.62,4.88M1000.94,496.37h15.61v-1.73c-4.69-.26-5.72-1.35-5.72-3.6v-18.18c2.38-3.34,5.65-5.46,9.38-5.46,2.44,0,4.37.77,5.78,2.31,1.41,1.61,1.99,3.86,1.99,6.62v14.71c0,2.25-.96,3.34-5.72,3.6v1.73h15.61v-1.73c-4.69-.26-5.72-1.35-5.72-3.6v-15.93c0-3.47-.9-6.36-2.63-8.29-1.93-2.06-4.76-3.15-7.84-3.15-4.05,0-7.65,1.99-10.34,5.59h-.64l.13-5.59h-1.28c-2.51,1.73-5.65,2.83-8.67,3.28v1.74h5.78v22.36c0,2.25-.96,3.34-5.72,3.6v1.73ZM983.81,495.21c-7.9,0-11.44-9.57-11.44-16.77s3.79-12.4,9.9-12.4c7.84,0,11.31,9.7,11.31,16.77s-3.6,12.4-9.77,12.4M983.04,497.65c8.61,0,15.1-7.07,15.1-17.22,0-9.38-6.3-16.83-15.1-16.83s-15.29,7.07-15.29,17.03,6.36,17.03,15.29,17.03M957.97,456.59c2.25,0,4.11-1.86,4.11-4.11s-1.86-4.05-4.11-4.05-4.11,1.86-4.11,4.05,1.86,4.11,4.11,4.11M950.2,496.37h15.48v-1.73c-4.63-.26-5.59-1.35-5.59-3.6v-27.37h-1.28c-2.51,1.73-5.66,2.83-8.67,3.28v1.74h5.78v22.36c0,2.25-.96,3.34-5.72,3.6v1.73ZM937.92,497.65c4.5,0,7.77-3.21,9.57-9.06l-1.73-.58c-1.48,3.98-3.66,6.04-6.62,6.04-4.11,0-4.82-3.92-4.88-7.33v-1.41l.06-17.73h11.63v-2.63h-11.57v-10.28h-1.73c-.77,5.78-4.18,9.57-8.74,11.18v1.73h6.36l-.32,19.47v.9c0,6.23,3.08,9.7,7.97,9.7M901.24,489.11c0-2.57,1.8-4.95,7.71-6.75l6.17-1.86v8.03c-2.51,3.66-5.53,5.59-8.55,5.59s-5.33-2.06-5.33-5.01M915.12,497.01l9.19-.64v-1.73c-4.11-.39-5.08-1.41-5.08-3.6v-1.16l.13-13.43v-1.35c.06-8.42-5.08-11.44-10.15-11.44-5.65,0-11.18,3.79-14.2,10.22l1.67.9c2.63-4.76,7.07-7.13,11.05-7.13,3.6,0,7.39,2.06,7.39,7.26v3.66l-8.1,2.18c-6.88,1.86-10.73,5.27-10.73,9.57,0,3.79,3.08,7.33,7.84,7.33,2.96,0,7.13-1.29,10.41-5.59h.64l-.06,4.95ZM870.66,496.37h15.61v-1.73c-4.69-.26-5.72-1.35-5.72-3.6v-14.78c0-3.4,2.31-6.42,5.53-6.42,1.35,0,2.51.38,3.79.38,1.86,0,3.34-1.41,3.34-3.34s-1.67-3.21-3.85-3.21c-2.89,0-5.65,2.18-8.29,6.75h-.64l.13-6.75h-1.29c-2.51,1.73-5.65,2.83-8.67,3.28v1.74h5.78v22.36c0,2.25-.96,3.34-5.72,3.6v1.73ZM846.25,497.65c4.43,0,7.77-2.38,10.15-5.59h.64l-.13,5.01,9.96-.71v-1.73c-3.92-.19-5.78-1.03-5.78-3.41v-26.92l-9.96,1.28v1.74c4.05.06,5.78,1.09,5.78,3.28v17.86c-2.18,3.15-5.4,5.46-9.25,5.46-2.18,0-3.98-.77-5.33-2.25-1.35-1.54-1.93-3.79-1.93-6.49v-20.88l-9.9,1.28v1.74c3.98.06,5.72,1.09,5.72,3.28v15.93c0,3.4.84,6.17,2.57,8.1,1.8,1.99,4.5,3.02,7.45,3.02M799.97,493.86h-8.29v-43.5h7.45c7.58,0,13.43,2.7,17.03,7.45,2.83,3.73,4.3,8.67,4.3,14.52s-1.16,10.15-3.4,13.62c-3.34,5.14-9.06,7.9-17.09,7.9M795.47,496.37c11.57,0,19.79-.83,25.83-9,3.02-4.11,4.63-9.25,4.63-14.97,0-6.75-1.99-12.53-5.98-16.9-6.75-7.33-15.23-7.58-25.32-7.58h-15.04v1.93c6.36.19,7.58,1.54,7.58,5.72v33.16c0,4.11-1.22,5.53-7.58,5.72v1.93h15.87Z"/>
    <path class="st2" d="M1096.65,438.1v1.86c5.85-.45,10.41-4.56,10.41-9.96,0-3.47-2.44-6.75-5.65-6.75-2.38,0-3.92,1.86-3.92,3.79s1.35,3.53,3.41,3.86c1.54.19,2.38,1.03,2.38,2.31,0,2.25-3.21,4.69-6.62,4.88M1069.61,409.18c.96-5.72,4.18-9.19,9-9.19,5.08,0,8.1,4.05,8.1,9.12v.06h-17.09ZM1079.38,431.67c5.98,0,10.6-3.6,13.43-10.02l-1.67-.77c-2.44,4.43-6.17,6.68-10.79,6.68-6.23,0-10.99-5.91-10.99-14.84v-1.22h22.75c.06-.26.06-.45.06-.71,0-7.45-4.95-13.11-12.4-13.11-8.67,0-14.84,7.26-14.84,17.09s5.98,16.9,14.46,16.9M1047.7,430.39h15.61v-1.73c-4.69-.26-5.72-1.35-5.72-3.6v-44.08h-1.29c-2.51,1.8-5.65,2.83-8.67,3.28v1.74h5.78v39.07c0,2.25-.96,3.34-5.72,3.6v1.73ZM1033.15,431.67c5.98,0,10.6-3.6,13.43-10.02l-1.67-.77c-2.44,4.43-6.1,6.62-10.8,6.68-6.17,0-10.99-5.91-10.99-15.04,0-7.26,4.05-12.53,10.15-12.53,3.15,0,5.27,1.41,5.66,4.76.32,2.57,1.67,4.05,3.6,4.05s3.21-1.41,3.21-3.4c0-4.3-5.72-7.77-11.89-7.77-8.74,0-15.17,6.94-15.17,17.16s5.98,16.9,14.46,16.9M988.59,446.13c1.54,0,3.15-.45,4.5-1.22,2.83-1.54,4.95-4.37,6.68-8.48l13.24-31.93c1.09-2.57,2.51-3.66,5.21-3.79v-1.73h-11.95v1.73l1.8.13c1.61.13,2.89.51,2.89,1.86,0,.51-.26,1.16-.64,2.06l-7.84,19.28-7.9-19.15c-.39-1.03-.64-1.61-.64-2.18,0-1.22,1.22-1.74,2.89-1.86l1.8-.13v-1.73h-14.01v1.73c2.64.13,4.11,1.29,5.21,3.79l10.41,24.99-2.44,5.65c-1.61,3.79-3.21,5.78-5.33,5.78-.84,0-1.54-.32-2.51-.96-1.03-.71-1.8-1.03-2.83-1.03-1.8,0-3.4,1.48-3.4,3.34,0,2.06,1.99,3.86,4.88,3.86M961.85,431.67c8.42,0,15.42-4.5,19.92-12.79l-1.74-.96c-3.66,5.91-10.02,9.25-16.38,9.25-9.77,0-20.05-7.77-20.05-22.17,0-12.21,7.65-21.59,18.38-21.59,8.03,0,12.85,5.46,17.28,13.17l.13.19h2.06l-4.11-15.42h-1.67l-2.12,2.83c-3.21-2.06-7.13-3.21-11.31-3.21-12.4,0-23.58,10.54-23.58,25.77s10.34,24.93,23.2,24.93M867.08,413.23l49.03-1.41-13.43,14.78,1.54,1.41,18.57-16.71v-1.16l-18.57-16.71-1.54,1.41,13.43,14.78-49.03-1.48v5.08ZM844.21,431.67c4.5,0,7.77-3.21,9.57-9.06l-1.74-.58c-1.48,3.98-3.66,6.04-6.62,6.04-4.11,0-4.82-3.92-4.88-7.33v-1.41l.06-17.73h11.63v-2.63h-11.57v-10.28h-1.73c-.77,5.78-4.18,9.57-8.74,11.18v1.73h6.36l-.32,19.47v.9c0,6.23,3.08,9.7,7.97,9.7M816.79,431.67c5.59,0,10.79-3.53,10.79-9.25,0-4.82-3.66-7.65-8.8-9.51l-6.3-2.25c-3.66-1.35-5.98-3.02-5.98-5.85.06-2.89,2.76-4.95,6.42-4.95,4.82,0,8.03,3.21,12.4,9.45h1.86l-2.96-10.99h-1.48l-1.86,2.44c-2.51-2.18-5.46-3.15-8.29-3.15-5.4,0-10.09,3.47-10.09,8.48,0,4.69,3.34,7.39,8.29,9.12l6.42,2.31c4.18,1.48,6.43,3.34,6.36,6.3,0,3.08-3.08,5.46-7,5.46-5.59,0-9.32-4.05-13.56-10.35h-1.86l3.28,12.08h1.41l2.06-2.83c2.64,2.38,5.85,3.47,8.87,3.47M782.44,429.23c-7.9,0-11.44-9.57-11.44-16.77s3.79-12.4,9.9-12.4c7.84,0,11.31,9.7,11.31,16.77s-3.6,12.4-9.77,12.4M781.67,431.67c8.61,0,15.1-7.07,15.1-17.22,0-9.38-6.3-16.83-15.1-16.83s-15.29,7.07-15.29,17.03,6.36,17.03,15.29,17.03M736.59,409.89v-25.51h4.82c5.01,0,8.35.71,10.99,2.06,3.98,2.12,5.91,6.1,5.91,10.73s-1.93,8.48-5.91,10.67c-2.44,1.35-5.85,2.06-10.99,2.06h-4.82ZM724.51,430.39h19.66v-1.93c-6.36-.19-7.58-1.61-7.58-5.72v-10.41h6.17c5.53,0,9.51-.71,12.79-2.25,5.59-2.57,8.35-7.52,8.35-12.92s-2.76-10.54-8.42-12.98c-3.08-1.54-7.2-2.25-13.17-2.25h-17.8v1.93c6.36.19,7.58,1.54,7.58,5.72v33.16c0,4.11-1.22,5.53-7.58,5.72v1.93Z"/>
    <path class="st2" d="M1055.63,372.12v1.86c5.85-.45,10.41-4.56,10.41-9.96,0-3.47-2.44-6.75-5.66-6.75-2.38,0-3.92,1.86-3.92,3.79s1.35,3.53,3.41,3.86c1.54.19,2.38,1.03,2.38,2.31,0,2.25-3.21,4.69-6.62,4.88M1042.22,365.69c4.5,0,7.77-3.21,9.57-9.06l-1.73-.58c-1.48,3.98-3.66,6.04-6.62,6.04-4.11,0-4.82-3.92-4.88-7.33v-1.41l.06-17.73h11.63v-2.63h-11.57v-10.28h-1.73c-.77,5.78-4.18,9.57-8.74,11.18v1.73h6.36l-.32,19.47v.9c0,6.23,3.08,9.7,7.97,9.7M991.96,364.41h15.61v-1.73c-4.69-.26-5.72-1.35-5.72-3.6v-18.18c2.38-3.34,5.66-5.46,9.38-5.46,2.44,0,4.37.77,5.78,2.31,1.41,1.61,1.99,3.86,1.99,6.62v14.71c0,2.25-.96,3.34-5.72,3.6v1.73h15.61v-1.73c-4.69-.26-5.72-1.35-5.72-3.6v-15.93c0-3.47-.9-6.36-2.64-8.29-1.93-2.06-4.75-3.15-7.84-3.15-4.05,0-7.65,1.99-10.34,5.59h-.64l.13-5.59h-1.28c-2.51,1.73-5.65,2.83-8.67,3.28v1.74h5.78v22.36c0,2.25-.96,3.34-5.72,3.6v1.73ZM965.55,343.21c.96-5.72,4.18-9.19,8.99-9.19,5.08,0,8.1,4.05,8.1,9.12v.06h-17.09ZM975.32,365.69c5.98,0,10.6-3.6,13.43-10.02l-1.67-.77c-2.44,4.43-6.17,6.68-10.79,6.68-6.23,0-10.99-5.91-10.99-14.84v-1.22h22.75c.06-.26.06-.45.06-.71,0-7.45-4.95-13.11-12.4-13.11-8.67,0-14.84,7.26-14.84,17.09s5.98,16.9,14.46,16.9M922.87,364.41h15.49v-1.73c-4.63-.26-5.59-1.35-5.59-3.6v-16.71l-.07-1.73c2.06-2.96,5.21-5.21,9.06-5.21,2.18,0,3.98.71,5.33,2.25,1.35,1.48,1.93,3.73,1.93,6.43v14.97c0,2.25-.96,3.34-5.65,3.6v1.73h15.55v-1.73c-4.75-.26-5.72-1.35-5.72-3.6v-16.26c0-3.47-.83-6.17-2.57-8.1-1.8-1.99-4.5-3.02-7.45-3.02-4.56,0-8.03,2.44-10.41,6.04h-.71c-.39-1.16-.96-2.12-1.8-3.02-1.8-1.99-4.5-3.02-7.45-3.02-4.43,0-7.78,2.31-10.22,5.59h-.64l.13-5.59h-1.28c-2.51,1.73-5.66,2.83-8.67,3.28v1.74h5.78v22.36c0,2.25-.96,3.34-5.72,3.6v1.73h15.61v-1.73c-4.69-.26-5.72-1.35-5.72-3.6v-18.25c2.18-3.08,5.4-5.4,9.25-5.4,2.18,0,3.98.71,5.33,2.25,1.35,1.48,1.93,3.73,1.93,6.43v14.97c0,2.25-1.03,3.34-5.72,3.6v1.73ZM880.45,352.91c-5.33,0-7.84-4.95-7.84-9.77,0-5.27,3.02-8.61,7.45-8.61,5.14,0,7.9,4.43,7.9,9.64s-3.02,8.74-7.52,8.74M879.23,377.84c-4.69,0-9.19-1.61-9.19-6.23,0-3.66,2.76-5.27,6.36-7h10.67c3.73,0,6.3,1.86,6.3,5.14,0,5.78-8.55,8.1-14.14,8.1M877.68,380.15c7.65,0,19.79-3.6,19.79-12.14,0-4.76-3.79-7.58-9.32-7.58h-13.49c-2.51,0-4.37-1.03-4.37-3.08,0-1.74,1.41-2.57,3.98-3.53,1.67.83,3.73,1.29,6.04,1.29,7.2,0,12.53-4.63,12.53-11.18,0-3.02-1.22-5.91-3.28-7.58v-.71h8.8v-5.4h-1.28c-2.89,1.73-6.3,2.96-10.28,3.53-1.86-.83-3.98-1.41-6.49-1.41-7.39,0-12.66,4.75-12.66,11.37,0,3.66,1.61,6.88,4.5,8.74v.58c-3.53,1.28-5.66,2.96-5.66,5.78,0,3.08,2.57,5.01,5.72,5.33v.71c-4.5,2.06-7.07,4.24-7.07,7.65,0,5.72,6.81,7.65,12.53,7.65M840.34,357.15c0-2.57,1.8-4.95,7.71-6.75l6.17-1.86v8.03c-2.51,3.66-5.53,5.59-8.55,5.59s-5.33-2.06-5.33-5.01M854.22,365.05l9.19-.64v-1.73c-4.11-.39-5.08-1.41-5.08-3.6v-1.16l.13-13.43v-1.35c.07-8.42-5.08-11.44-10.15-11.44-5.65,0-11.18,3.79-14.2,10.22l1.67.9c2.64-4.76,7.07-7.13,11.05-7.13,3.6,0,7.39,2.06,7.39,7.26v3.66l-8.1,2.18c-6.88,1.86-10.73,5.27-10.73,9.57,0,3.79,3.08,7.33,7.84,7.33,2.96,0,7.13-1.29,10.41-5.59h.64l-.06,4.95ZM809.76,364.41h15.61v-1.73c-4.69-.26-5.72-1.35-5.72-3.6v-14.78c0-3.4,2.31-6.42,5.53-6.42,1.35,0,2.51.38,3.79.38,1.86,0,3.34-1.41,3.34-3.34s-1.67-3.21-3.86-3.21c-2.89,0-5.65,2.18-8.29,6.75h-.64l.13-6.75h-1.29c-2.51,1.73-5.65,2.83-8.67,3.28v1.74h5.78v22.36c0,2.25-.96,3.34-5.72,3.6v1.73ZM765.54,364.41h19.66v-1.93c-6.36-.19-7.58-1.61-7.58-5.72v-15.29h9.7c4.18,0,5.53,1.35,5.72,8.61h1.93v-19.85h-1.93c-.19,7.32-1.54,8.74-5.72,8.74h-9.7v-20.56h12.85c7.77,0,12.14,4.11,14.59,12.4h2.06l-3.98-14.84h-37.59v1.93c6.36.19,7.58,1.54,7.58,5.72v33.16c0,4.11-1.22,5.53-7.58,5.72v1.93Z"/>
    <path class="st2" d="M1102.1,306.14v1.86c5.85-.45,10.41-4.56,10.41-9.96,0-3.47-2.44-6.75-5.65-6.75-2.38,0-3.92,1.86-3.92,3.79s1.35,3.53,3.41,3.86c1.54.19,2.38,1.03,2.38,2.31,0,2.25-3.21,4.69-6.62,4.88M1085.35,299.72h5.14l-1.54-32.77,14.52,1.54v-5.08l-14.46,1.48,1.48-15.87h-5.14l1.41,15.87-14.39-1.48v5.08l14.46-1.54-1.48,32.77ZM1040.3,277.23c.96-5.72,4.18-9.19,9-9.19,5.08,0,8.1,4.05,8.1,9.12v.06h-17.09ZM1050.07,299.72c5.98,0,10.6-3.6,13.43-10.02l-1.67-.77c-2.44,4.43-6.17,6.68-10.8,6.68-6.23,0-10.99-5.91-10.99-14.84v-1.22h22.75c.06-.26.06-.45.06-.71,0-7.45-4.95-13.11-12.4-13.11-8.67,0-14.84,7.26-14.84,17.09s5.97,16.9,14.46,16.9M1019.65,299.72c5.59,0,10.8-3.53,10.8-9.25,0-4.82-3.66-7.65-8.8-9.51l-6.3-2.25c-3.66-1.35-5.97-3.02-5.97-5.85.06-2.89,2.76-4.95,6.43-4.95,4.82,0,8.03,3.21,12.4,9.45h1.86l-2.96-10.99h-1.48l-1.86,2.44c-2.51-2.18-5.46-3.15-8.29-3.15-5.4,0-10.09,3.47-10.09,8.48,0,4.69,3.34,7.39,8.29,9.12l6.42,2.31c4.18,1.48,6.43,3.34,6.36,6.3,0,3.08-3.08,5.46-7,5.46-5.59,0-9.32-4.05-13.56-10.34h-1.86l3.28,12.08h1.41l2.06-2.83c2.63,2.38,5.85,3.47,8.87,3.47M985.61,298.43h15.61v-1.73c-4.69-.26-5.72-1.35-5.72-3.6v-44.08h-1.29c-2.51,1.8-5.65,2.83-8.67,3.28v1.73h5.78v39.07c0,2.25-.96,3.34-5.72,3.6v1.73ZM961.61,299.72c4.43,0,7.78-2.38,10.15-5.59h.64l-.13,5.01,9.96-.71v-1.73c-3.92-.19-5.78-1.03-5.78-3.41v-26.92l-9.96,1.29v1.73c4.05.06,5.78,1.09,5.78,3.28v17.86c-2.18,3.15-5.4,5.46-9.25,5.46-2.18,0-3.98-.77-5.33-2.25-1.35-1.54-1.93-3.79-1.93-6.49v-20.88l-9.9,1.29v1.73c3.98.06,5.72,1.09,5.72,3.28v15.94c0,3.4.83,6.17,2.57,8.1,1.8,1.99,4.5,3.02,7.45,3.02M914.43,277.93v-25.51h4.82c5.01,0,8.35.71,10.99,2.06,3.98,2.12,5.91,6.1,5.91,10.73s-1.93,8.48-5.91,10.67c-2.44,1.35-5.85,2.06-10.99,2.06h-4.82ZM902.35,298.43h19.66v-1.93c-6.36-.19-7.58-1.61-7.58-5.72v-10.41h6.17c5.53,0,9.51-.71,12.79-2.25,5.59-2.57,8.35-7.52,8.35-12.91s-2.76-10.54-8.42-12.98c-3.08-1.54-7.2-2.25-13.17-2.25h-17.8v1.93c6.36.19,7.58,1.54,7.58,5.72v33.16c0,4.11-1.22,5.53-7.58,5.72v1.93ZM868.94,306.14v1.86c5.85-.45,10.41-4.56,10.41-9.96,0-3.47-2.44-6.75-5.65-6.75-2.38,0-3.92,1.86-3.92,3.79s1.35,3.53,3.41,3.86c1.54.19,2.38,1.03,2.38,2.31,0,2.25-3.21,4.69-6.62,4.88M850.74,297.27c-7.9,0-11.44-9.57-11.44-16.77s3.79-12.4,9.9-12.4c7.84,0,11.31,9.7,11.31,16.77s-3.6,12.4-9.77,12.4M849.97,299.72c8.61,0,15.1-7.07,15.1-17.22,0-9.38-6.3-16.83-15.1-16.83s-15.29,7.07-15.29,17.03,6.36,17.03,15.29,17.03M795.92,298.43h15.61v-1.73c-4.69-.26-5.72-1.35-5.72-3.6v-18.18c2.38-3.34,5.66-5.46,9.38-5.46,2.44,0,4.37.77,5.78,2.31,1.41,1.61,1.99,3.85,1.99,6.62v14.71c0,2.25-.96,3.34-5.72,3.6v1.73h15.61v-1.73c-4.69-.26-5.72-1.35-5.72-3.6v-15.93c0-3.47-.9-6.36-2.64-8.29-1.93-2.06-4.75-3.15-7.84-3.15-4.05,0-7.65,1.99-10.34,5.59h-.64l.13-22.3h-1.28c-2.51,1.8-5.65,2.83-8.67,3.28v1.73h5.78v39.07c0,2.25-.96,3.34-5.72,3.6v1.73ZM780.86,299.72c5.98,0,10.6-3.6,13.43-10.02l-1.67-.77c-2.44,4.43-6.11,6.62-10.8,6.68-6.17,0-10.99-5.91-10.99-15.04,0-7.26,4.05-12.53,10.15-12.53,3.15,0,5.27,1.41,5.66,4.76.32,2.57,1.67,4.05,3.6,4.05s3.21-1.41,3.21-3.41c0-4.3-5.72-7.77-11.89-7.77-8.74,0-15.16,6.94-15.16,17.16s5.97,16.9,14.46,16.9M757.29,298.43l3.98-14.84h-2.06c-2.44,8.22-6.81,12.34-14.59,12.34h-13.49v-20.43h8.55c4.18,0,5.53,1.35,5.72,8.61h1.93v-19.85h-1.93c-.19,7.33-1.54,8.74-5.72,8.74h-8.55v-20.56h12.14c7.78,0,12.21,4.11,14.59,12.4h2.06l-3.92-14.84h-36.95v1.93c6.36.19,7.58,1.54,7.58,5.72v33.16c0,4.11-1.22,5.53-7.58,5.72v1.93h38.23Z"/>
    <path class="st2" d="M1037.62,240.16v1.86c5.85-.45,10.41-4.56,10.41-9.96,0-3.47-2.44-6.75-5.66-6.75-2.38,0-3.92,1.86-3.92,3.79s1.35,3.53,3.41,3.85c1.54.19,2.38,1.03,2.38,2.31,0,2.25-3.21,4.69-6.62,4.88M1024.2,233.74c4.5,0,7.78-3.21,9.57-9.06l-1.73-.58c-1.48,3.98-3.66,6.04-6.62,6.04-4.11,0-4.82-3.92-4.88-7.33v-1.41l.07-17.73h11.63v-2.63h-11.57v-10.28h-1.73c-.77,5.78-4.18,9.57-8.74,11.18v1.73h6.36l-.32,19.47v.9c0,6.23,3.08,9.7,7.97,9.7M973.95,232.45h15.61v-1.73c-4.69-.26-5.72-1.35-5.72-3.6v-18.18c2.38-3.34,5.65-5.46,9.38-5.46,2.44,0,4.37.77,5.78,2.31,1.41,1.61,1.99,3.86,1.99,6.62v14.71c0,2.25-.96,3.34-5.72,3.6v1.73h15.61v-1.73c-4.69-.26-5.72-1.35-5.72-3.6v-15.93c0-3.47-.9-6.36-2.63-8.29-1.93-2.06-4.76-3.15-7.84-3.15-4.05,0-7.65,1.99-10.35,5.59h-.64l.13-5.59h-1.29c-2.51,1.73-5.65,2.83-8.67,3.28v1.74h5.78v22.36c0,2.25-.96,3.34-5.72,3.6v1.73ZM947.54,211.25c.96-5.72,4.18-9.19,8.99-9.19,5.08,0,8.1,4.05,8.1,9.12v.06h-17.09ZM957.31,233.74c5.98,0,10.6-3.6,13.43-10.02l-1.67-.77c-2.44,4.43-6.17,6.68-10.79,6.68-6.23,0-10.99-5.91-10.99-14.84v-1.22h22.75c.06-.26.06-.45.06-.71,0-7.45-4.95-13.11-12.4-13.11-8.67,0-14.84,7.26-14.84,17.09s5.98,16.9,14.46,16.9M904.86,232.45h15.48v-1.73c-4.63-.26-5.59-1.35-5.59-3.6v-16.71l-.06-1.73c2.06-2.96,5.2-5.21,9.06-5.21,2.18,0,3.98.71,5.33,2.25,1.35,1.48,1.93,3.73,1.93,6.43v14.97c0,2.25-.96,3.34-5.65,3.6v1.73h15.55v-1.73c-4.76-.26-5.72-1.35-5.72-3.6v-16.26c0-3.47-.84-6.17-2.57-8.1-1.8-1.99-4.5-3.02-7.45-3.02-4.56,0-8.03,2.44-10.41,6.04h-.71c-.38-1.16-.96-2.12-1.8-3.02-1.8-1.99-4.5-3.02-7.45-3.02-4.43,0-7.78,2.31-10.22,5.59h-.64l.13-5.59h-1.29c-2.51,1.73-5.65,2.83-8.67,3.28v1.74h5.78v22.36c0,2.25-.96,3.34-5.72,3.6v1.73h15.61v-1.73c-4.69-.26-5.72-1.35-5.72-3.6v-18.25c2.18-3.08,5.4-5.4,9.25-5.4,2.18,0,3.98.71,5.33,2.25,1.35,1.48,1.93,3.73,1.93,6.43v14.97c0,2.25-1.03,3.34-5.72,3.6v1.73ZM867.04,231.3c-7.9,0-11.44-9.57-11.44-16.77s3.79-12.4,9.89-12.4c7.84,0,11.31,9.7,11.31,16.77s-3.6,12.4-9.77,12.4M866.27,233.74c8.61,0,15.1-7.07,15.1-17.22,0-9.38-6.3-16.84-15.1-16.84s-15.29,7.07-15.29,17.03,6.36,17.03,15.29,17.03M813.81,233.61h1.67l17.28-45.62,3.73,36.82c.45,4.18-.71,5.53-7.13,5.72v1.93h19.73v-1.93c-6.36-.19-7.65-1.54-8.03-5.72l-3.41-33.16c-.45-4.18.77-5.53,7.13-5.72v-1.93h-13.11l-15.93,41.89-15.68-41.89h-13.3v1.93c6.36.19,7.58,1.54,7.13,5.72l-3.41,33.16c-.39,4.18-1.67,5.53-8.03,5.72v1.93h17.73v-1.93c-6.36-.19-7.58-1.54-7.13-5.72l3.79-36.75,16.96,45.56Z"/>
    <path class="st2" d="M1070.39,174.18v1.86c5.85-.45,10.41-4.56,10.41-9.96,0-3.47-2.44-6.75-5.65-6.75-2.38,0-3.92,1.86-3.92,3.79s1.35,3.53,3.41,3.85c1.54.19,2.38,1.03,2.38,2.31,0,2.25-3.21,4.69-6.62,4.88M1035.34,147.26l19.98-25.51v25.51h-19.98ZM1055.32,166.47h4.43v-15.16h7.65v-4.05h-7.65v-29.24h-4.37l-23.33,29.81v3.47h23.26v15.16ZM994.05,166.47h30.97l3.6-13.3h-1.99c-1.73,6.17-5.08,9.12-11.31,9.12h-15.74l9.51-8.16c4.88-4.18,9.06-8.42,11.57-11.95,2.7-3.6,4.24-7.39,4.3-11.18.06-8.1-6.17-13.94-13.69-13.94s-12.91,5.33-16.96,12.59l1.67,1.09c3.28-5.2,8.1-8.93,13.56-8.93,5.97,0,10.09,4.5,10.09,10.8-.06,3.21-1.09,6.49-3.28,9.57-2.51,3.66-5.46,6.68-9.32,10.28l-12.98,12.08v1.93ZM974.44,167.76c9.38,0,16.64-7,16.64-15.87s-7.07-15.74-15.74-15.74c-3.66,0-7.9,1.22-11.31,4.18l-.45-.13,2.76-18.05h21.98l.64-4.11h-24.99l-3.28,24.99,1.99.64c3.02-2.64,7-4.24,10.8-4.24,7.13,0,12.21,5.33,12.21,12.21s-5.59,11.95-12.66,11.95c-5.59,0-10.67-3.28-13.75-7.9l-1.61,1.03c3.66,6.49,9.77,11.05,16.77,11.05M923.21,141.86c0-13.17,2.96-22.55,11.76-22.55,5.01,0,8.23,3.15,10.02,8.48l-20.63,26.34c-.77-3.53-1.16-7.71-1.16-12.27M935.09,165.45c-4.88,0-8.03-3.08-9.83-8.16l20.56-26.35c.77,3.41,1.09,7.45,1.09,11.95,0,12.91-3.15,22.55-11.82,22.55M935.09,167.76c10.67,0,17.28-9.7,17.28-25.38s-6.62-25.38-17.35-25.38-17.35,9.7-17.35,25.38,6.68,25.38,17.41,25.38M881.71,141.86c0-13.17,2.96-22.55,11.76-22.55,5.01,0,8.22,3.15,10.02,8.48l-20.63,26.34c-.77-3.53-1.16-7.71-1.16-12.27M893.6,165.45c-4.88,0-8.03-3.08-9.83-8.16l20.56-26.35c.77,3.41,1.09,7.45,1.09,11.95,0,12.91-3.15,22.55-11.82,22.55M893.6,167.76c10.67,0,17.28-9.7,17.28-25.38s-6.62-25.38-17.35-25.38-17.35,9.7-17.35,25.38,6.68,25.38,17.41,25.38M845.55,164.55v1.93h6.62l21.52-45.11v-3.34h-30.26l-3.53,13.3h1.99c1.73-6.17,5.08-9.06,11.31-9.06h17.93l-18.83,32.26c-2.57,4.43-5.65,9-6.75,10.02M825.77,150.22h-23.13v2.44h23.13v-2.44ZM814.84,143.09c-6.17,0-8.93-7.78-8.93-13.56s2.96-9.89,7.65-9.89c6.17,0,8.93,7.84,8.93,13.62s-2.83,9.83-7.65,9.83M814.2,145.27c7.26,0,12.46-5.78,12.46-14.07,0-7.65-4.95-13.75-12.46-13.75s-12.53,5.78-12.53,13.94c0,7.71,4.95,13.88,12.53,13.88M790.1,167.63h1.99v-41.96c0-4.18,1.03-5.53,6.62-5.72v-1.93h-16.9v1.93c6.36.19,7.58,1.54,7.58,5.72l.06,32.9-27.37-40.54h-11.31v1.93c6.36.19,7.58,1.54,7.58,5.72v33.16c0,4.11-1.22,5.53-7.58,5.72v1.93h17.8v-1.93c-6.36-.19-7.58-1.61-7.58-5.72v-34.25l29.11,43.05Z"/>
  </g>
</svg>