<?xml version="1.0" encoding="UTF-8"?>
<svg id="Layer_1" xmlns="http://www.w3.org/2000/svg" xmlns:xlink="http://www.w3.org/1999/xlink" version="1.1" viewBox="0 0 1280 800">
  <!-- Generator: Adobe Illustrator 29.8.2, SVG Export Plug-In . SVG Version: 2.1.1 Build 3)  -->
  <defs>
    <style>
      .st0 {
        fill: none;
      }

      .st1 {
        fill: #fbfbfb;
      }

      .st2 {
        clip-path: url(#clippath);
      }
    </style>
    <clipPath id="clippath">
      <rect class="st0" width="1280" height="800"/>
    </clipPath>
  </defs>
  <g class="st2">
    <rect x="-3" y="-3" width="1286" height="806"/>
  </g>
  <rect width="1280" height="800"/>
  <g>
    <path class="st1" d="M207.28,168.4c14.39,0,26.15-11.76,26.15-26.22s-11.76-26.15-26.15-26.15-26.22,11.76-26.22,26.15,11.76,26.22,26.22,26.22ZM207.28,120.08c12.08,0,21.98,9.9,21.98,22.1s-9.9,22.17-21.98,22.17-22.04-9.9-22.04-22.17,9.9-22.1,22.04-22.1Z"/>
    <path class="st1" d="M205.29,134.48v15.1c0,2.51-.32,2.83-2.96,2.83h-2.96v2.96h16.26v-2.96h-2.18c-2.51,0-2.89-.26-2.89-2.83v-21.08h-2.76l-10.09,8.16,1.86,2.44,5.72-4.63Z"/>
    <path class="st1" d="M232.41,166.47h17.48v-3.34l-2.06-.06c-2.89-.06-4.37-.9-4.37-2.7,0-.96.32-2.19.96-3.73l1.99-5.01h20.18l1.93,4.95c.58,1.54.9,2.76.9,3.73,0,1.86-1.35,2.7-4.11,2.76l-2.06.06v3.34h19.79v-3.34c-3.53,0-5.08-1.35-7.26-6.75l-15.87-39.32h-4.37l-15.87,39.32c-2.12,5.33-3.53,6.75-7.26,6.75v3.34ZM256.57,126.25l8.29,21.01h-16.71l8.42-21.01Z"/>
    <path class="st1" d="M299.55,167.76c6.49,0,11.31-4.05,14.07-10.67l-2.89-1.35c-2.25,4.24-5.72,6.17-9.77,6.17-6.3,0-10.35-5.91-10.35-13.3v-.06h22.23c.06-.58.06-1.22.06-1.86,0-7.58-5.27-13.3-12.92-13.3-8.93,0-15.55,7.33-15.55,17.35.06,9.9,6.43,17.03,15.1,17.03ZM298.78,137.24c3.92,0,6.81,2.7,7.07,7.45h-14.84c.96-4.5,3.73-7.45,7.77-7.45Z"/>
    <path class="st1" d="M333.61,167.76c8.48,0,16.19-7,16.19-17.28s-7.45-17.16-16.19-17.16-16.19,6.81-16.19,17.16,7.39,17.28,16.19,17.28ZM333.35,137.37c6.62,0,9.77,7,9.77,14.01s-3.28,12.27-9.12,12.27c-6.68,0-9.83-6.75-9.83-13.94s3.34-12.34,9.19-12.34Z"/>
    <path class="st1" d="M357.7,158.96c0,2.89-1.67,4.56-5.4,4.56v2.96h16.77v-2.96c-3.73,0-5.4-1.67-5.4-4.56v-14.84c1.8-2.83,4.63-5.33,8.8-5.33,2.12,0,3.73.64,4.88,1.86,1.35,1.35,1.93,3.28,1.93,5.72v12.59c0,2.89-1.67,4.56-5.4,4.56v2.96h16.77v-2.96c-3.73,0-5.4-1.67-5.4-4.56v-14.59c0-3.28-1.03-5.98-2.76-7.84-1.93-1.99-4.88-3.15-8.03-3.15-4.43,0-7.97,2.12-10.28,5.33h-.64l.13-5.33h-1.29c-2.89,1.61-6.88,2.76-10.35,3.34v2.96h5.65v19.28Z"/>
    <path class="st1" d="M405.9,165.7c0-4.37-2.96-8.16-6.81-8.16-2.96,0-4.88,2.31-4.88,4.75,0,2.06,1.28,4.18,3.98,4.69,1.73.32,2.51,1.09,2.51,2.31,0,2.51-3.53,4.95-7.39,5.14v2.76c6.88-.26,12.59-5.01,12.59-11.5Z"/>
    <path class="st1" d="M472.33,150.54h-3.53c-2.57,8.22-6.49,11.44-14.01,11.44h-12.85v-17.48h5.27c4.88,0,7.07,1.48,7.07,7.77h3.34v-20.11h-3.34c0,6.36-2.19,7.84-7.07,7.84h-5.27v-17.48h11.44c7.52,0,11.44,3.21,14.01,11.44h3.53l-4.3-15.94h-38.55v3.34c5.78,0,7.13,2.18,7.13,7.07v27.63c0,4.88-1.35,7.07-7.13,7.07v3.34h39.97l4.3-15.94Z"/>
    <path class="st1" d="M480.11,158.96c0,2.89-1.67,4.56-5.4,4.56v2.96h16.77v-2.96c-3.73,0-5.4-1.67-5.4-4.56v-12.53c0-3.47,1.93-5.59,5.08-5.59,1.29,0,2.57.45,3.85.45,2.25,0,3.92-1.8,3.92-4.05s-1.8-3.86-4.43-3.86c-2.83,0-5.65,1.93-7.9,5.98h-.64l.13-5.98h-1.29c-2.89,1.61-6.88,2.76-10.35,3.34v2.96h5.65v19.28Z"/>
    <path class="st1" d="M513.33,139.04c3.41,0,6.75,1.86,6.75,6.49v2.7l-7.58,1.99c-7.2,1.8-11.12,5.27-11.12,9.9,0,4.11,3.28,7.65,8.16,7.65,3.15,0,7.07-1.41,9.96-5.33h.64l-.06,4.75,10.67-.71v-2.96c-3.34-.26-4.75-1.8-4.75-4.24v-1.28l.13-11.18v-1.41c.06-8.35-5.14-12.02-11.18-12.02s-11.63,3.98-14.78,10.6l2.83,1.73c2.51-4.31,6.36-6.68,10.34-6.68ZM520.07,156.77c-1.61,3.73-4.5,5.98-7.52,5.98-2.44,0-4.37-1.67-4.37-4.11s1.8-4.18,6.62-5.72l5.27-1.54v5.4Z"/>
    <path class="st1" d="M546.23,165.7c0-4.37-2.96-8.16-6.81-8.16-2.96,0-4.88,2.31-4.88,4.75,0,2.06,1.28,4.18,3.98,4.69,1.73.32,2.51,1.09,2.51,2.31,0,2.51-3.53,4.95-7.39,5.14v2.76c6.88-.26,12.59-5.01,12.59-11.5Z"/>
    <path class="st1" d="M202.59,215.12c4.88,0,7.97-.58,10.41-1.48,6.62-2.51,9.83-8.29,9.83-14.07s-3.21-11.69-9.83-14.07c-2.44-.96-5.46-1.48-10.41-1.48h-20.95v3.34c5.78,0,7.13,2.18,7.13,7.07v27.63c0,4.88-1.35,7.07-7.13,7.07v3.34h21.01v-3.34c-5.78,0-7.13-2.18-7.13-7.07v-6.94h7.07ZM195.53,188.51h5.46c4.63,0,7.58.71,9.32,1.67,3.21,1.86,4.63,5.65,4.63,9.38s-1.41,7.33-4.63,9.38c-1.73.9-4.69,1.67-9.32,1.67h-5.46v-22.1Z"/>
    <path class="st1" d="M253.61,214.54c.06-.58.06-1.22.06-1.86,0-7.58-5.27-13.3-12.92-13.3-8.93,0-15.55,7.33-15.55,17.35.06,9.9,6.43,17.03,15.1,17.03,6.49,0,11.31-4.05,14.07-10.67l-2.89-1.35c-2.25,4.24-5.72,6.17-9.77,6.17-6.3,0-10.35-5.91-10.35-13.3v-.06h22.23ZM239.54,203.23c3.92,0,6.81,2.7,7.07,7.45h-14.84c.96-4.5,3.73-7.45,7.77-7.45Z"/>
    <path class="st1" d="M267.3,199.37c-2.89,1.61-6.88,2.76-10.35,3.34v2.96h5.65v19.28c0,2.89-1.67,4.56-5.4,4.56v2.96h16.77v-2.96c-3.73,0-5.4-1.67-5.4-4.56v-12.53c0-3.47,1.93-5.59,5.08-5.59,1.29,0,2.57.45,3.85.45,2.25,0,3.92-1.8,3.92-4.05s-1.8-3.86-4.43-3.86c-2.83,0-5.65,1.93-7.9,5.98h-.64l.13-5.98h-1.29Z"/>
    <path class="st1" d="M289.53,224.95c0,2.89-1.67,4.56-5.4,4.56v2.96h16.77v-2.96c-3.73,0-5.4-1.67-5.4-4.56v-25.57h-1.29c-2.89,1.61-6.88,2.76-10.35,3.34v2.96h5.65v19.28Z"/>
    <path class="st1" d="M287.28,188.51c0,2.76,2.31,5.08,5.14,5.08s5.21-2.31,5.21-5.08-2.38-5.01-5.21-5.01-5.14,2.31-5.14,5.01Z"/>
    <path class="st1" d="M318.51,199.31c-8.55,0-16.19,6.81-16.19,17.16s7.39,17.28,16.19,17.28,16.19-7,16.19-17.28-7.45-17.16-16.19-17.16ZM318.89,229.64c-6.68,0-9.83-6.75-9.83-13.94s3.34-12.34,9.19-12.34c6.62,0,9.77,7,9.77,14.01s-3.28,12.27-9.12,12.27Z"/>
    <path class="st1" d="M355.26,199.37c-9.32,0-16.26,7.52-16.26,18.18s5.72,16.19,13.24,16.19c4.24,0,7.77-2.12,10.09-5.33h.64l-.06,4.82,11.57-.77v-2.96c-3.66.06-5.59-1.54-5.59-4.37v-42.09h-1.29c-2.89,1.61-6.88,2.76-10.35,3.34v2.96h5.65v11.76c-2.51-1.16-5.08-1.73-7.65-1.73ZM362.91,222.95c-2.19,3.47-5.27,5.4-8.74,5.4-5.33,0-8.74-4.5-8.74-11.95,0-7.9,3.86-13.17,9.9-13.24,3.02-.06,5.72,1.35,7.58,3.79v16Z"/>
    <path class="st1" d="M377.24,240.43v2.76c6.88-.26,12.59-5.01,12.59-11.5,0-4.37-2.96-8.16-6.81-8.16-2.96,0-4.88,2.31-4.88,4.75,0,2.06,1.28,4.18,3.98,4.69,1.73.32,2.51,1.09,2.51,2.31,0,2.51-3.53,4.95-7.39,5.14Z"/>
    <path class="st1" d="M427.8,229.12l-2.06-.06c-2.89-.06-4.37-.9-4.37-2.7,0-.96.32-2.19.96-3.73l1.99-5.01h20.18l1.93,4.95c.58,1.54.9,2.76.9,3.73,0,1.86-1.35,2.7-4.11,2.76l-2.06.06v3.34h19.79v-3.34c-3.53,0-5.08-1.35-7.26-6.75l-15.87-39.32h-4.37l-15.87,39.32c-2.12,5.33-3.53,6.75-7.26,6.75v3.34h17.48v-3.34ZM434.49,192.24l8.29,21.01h-16.71l8.42-21.01Z"/>
    <path class="st1" d="M462.44,240.5c0,5.59,6.88,7.71,13.94,7.71,8.67,0,20.18-3.47,20.18-12.21,0-5.59-4.75-8.1-10.15-8.1l-12.85-.06c-2.57,0-4.24-.9-4.24-2.7,0-1.54,1.35-2.25,3.28-3.02,1.67.64,3.6.96,5.72.96,7.77,0,13.36-4.3,13.36-10.92,0-2.7-.9-4.95-2.63-6.55v-.77h8.16v-6.94h-1.41c-3.02,1.54-6.68,2.83-10.6,3.73-2.06-.9-4.5-1.48-6.94-1.48-7.97,0-13.62,4.69-13.62,11.5,0,3.6,1.61,6.75,4.69,8.74v.77c-3.53,1.28-5.4,3.28-5.4,5.98,0,2.89,2.25,4.95,5.27,5.4v.77c-4.24,1.67-6.75,3.85-6.75,7.2ZM478.18,203.74c4.11,0,6.68,3.21,6.68,8.03s-2.57,7.65-6.55,7.65c-4.37,0-6.75-3.28-6.75-7.9s2.51-7.77,6.62-7.77ZM474.32,233.56h9.96c3.73,0,6.3,1.22,6.3,4.24,0,4.69-6.75,6.49-12.66,6.49-4.82,0-8.74-1.29-8.74-5.14,0-2.89,2.12-4.24,5.14-5.59Z"/>
    <path class="st1" d="M527.27,214.54c.06-.58.06-1.22.06-1.86,0-7.58-5.27-13.3-12.92-13.3-8.93,0-15.55,7.33-15.55,17.35.06,9.9,6.43,17.03,15.1,17.03,6.49,0,11.31-4.05,14.07-10.67l-2.89-1.35c-2.25,4.24-5.72,6.17-9.77,6.17-6.3,0-10.35-5.91-10.35-13.3v-.06h22.23ZM513.2,203.23c3.92,0,6.81,2.7,7.07,7.45h-14.84c.96-4.5,3.73-7.45,7.77-7.45Z"/>
    <path class="st1" d="M544.17,231.69c0-4.37-2.96-8.16-6.81-8.16-2.96,0-4.88,2.31-4.88,4.75,0,2.06,1.28,4.18,3.98,4.69,1.73.32,2.51,1.09,2.51,2.31,0,2.51-3.53,4.95-7.39,5.14v2.76c6.88-.26,12.59-5.01,12.59-11.5Z"/>
    <path class="st1" d="M259.52,300.38c14.39,0,26.15-11.76,26.15-26.22s-11.76-26.15-26.15-26.15-26.22,11.76-26.22,26.15,11.76,26.22,26.22,26.22ZM259.33,260.29c4.69,0,8.8,3.53,8.8,8.22,0,3.6-2.31,6.81-7.52,10.6l-4.95,3.73h6.49c3.28,0,4.56-.96,5.53-3.92h2.63l-2.25,8.42h-18.96v-2.63l7.39-6.43c3.34-2.89,5.65-5.46,5.65-8.35s-1.86-4.69-4.63-4.69c-2.44,0-4.63,1.48-6.49,4.05l-2.25-1.54c2.44-4.37,6.1-7.45,10.54-7.45Z"/>
    <path class="st1" d="M287.6,295.11v3.34h39.97l4.3-15.94h-3.53c-2.57,8.22-6.49,11.44-14.01,11.44h-12.85v-17.48h5.27c4.88,0,7.07,1.48,7.07,7.77h3.34v-20.11h-3.34c0,6.36-2.18,7.84-7.07,7.84h-5.27v-17.48h11.44c7.52,0,11.44,3.21,14.01,11.44h3.53l-4.31-15.94h-38.55v3.34c5.78,0,7.13,2.18,7.13,7.07v27.63c0,4.88-1.35,7.07-7.13,7.07Z"/>
    <path class="st1" d="M333.35,271.66h5.65v34.06c0,2.89-1.67,4.56-5.4,4.56v2.96h16.77v-2.96c-3.73,0-5.4-1.67-5.4-4.56v-7.71c2.51,1.16,5.08,1.73,7.65,1.73,9.32,0,16.26-7.52,16.26-18.18s-5.72-16.19-13.24-16.19c-4.24,0-7.77,2.12-10.09,5.33h-.71l.13-5.33h-1.29c-2.89,1.61-6.88,2.76-10.34,3.34v2.96ZM344.98,276.16c2.18-3.47,5.27-5.4,8.74-5.4,5.33,0,8.74,4.5,8.74,11.95,0,7.9-3.86,13.17-9.9,13.24-3.02.06-5.72-1.35-7.58-3.79v-16Z"/>
    <path class="st1" d="M389.38,299.74c8.48,0,16.19-7,16.19-17.28s-7.45-17.16-16.19-17.16-16.19,6.81-16.19,17.16,7.39,17.28,16.19,17.28ZM389.12,269.35c6.62,0,9.77,7,9.77,14.01s-3.28,12.27-9.12,12.27c-6.68,0-9.83-6.75-9.83-13.94s3.34-12.34,9.19-12.34Z"/>
    <path class="st1" d="M424.85,299.74c6.49,0,11.37-4.05,14.07-10.67l-2.89-1.35c-2.19,4.11-5.46,6.1-9.77,6.17-6.17,0-10.41-5.91-10.41-13.43,0-6.43,3.6-11.18,9-11.18,2.96,0,4.82,1.48,5.33,4.5.45,2.7,1.99,4.18,4.18,4.18,2.38,0,4.05-1.73,4.05-4.18,0-4.82-6.1-8.48-12.59-8.48-8.87,0-16.06,6.81-16.06,17.48.06,9.77,6.43,16.96,15.1,16.96Z"/>
    <path class="st1" d="M450.36,249.04c-2.89,1.61-6.88,2.76-10.35,3.34v2.96h5.65v35.6c0,2.89-1.67,4.56-5.4,4.56v2.96h16.77v-2.96c-3.73,0-5.4-1.67-5.4-4.56v-14.84c1.8-2.83,4.63-5.33,8.8-5.33,2.12,0,3.73.64,4.88,1.86,1.35,1.35,1.93,3.28,1.93,5.72v12.59c0,2.89-1.67,4.56-5.4,4.56v2.96h16.77v-2.96c-3.73,0-5.4-1.67-5.4-4.56v-14.59c0-3.28-1.03-5.98-2.76-7.84-1.93-1.99-4.88-3.15-8.03-3.15-4.43,0-7.97,2.12-10.28,5.33h-.64l.13-21.65h-1.29Z"/>
    <path class="st1" d="M481.27,306.42v2.76c6.88-.26,12.59-5.01,12.59-11.5,0-4.37-2.96-8.16-6.81-8.16-2.96,0-4.88,2.31-4.88,4.75,0,2.06,1.28,4.18,3.98,4.69,1.73.32,2.51,1.09,2.51,2.31,0,2.51-3.53,4.95-7.39,5.14Z"/>
    <path class="st1" d="M194.95,361.1c-5.78,0-6.81-2.18-6.36-7l3.34-32.38,14.97,43.5h3.34l15.42-43.56,3.28,32.45c.45,4.82-.58,7-6.36,7v3.34h21.08v-3.34c-5.78,0-7.45-2.18-7.9-7l-2.89-27.76c-.45-4.82.58-7,6.36-7v-3.34h-16.13l-13.17,37.27-12.85-37.27h-16.58v3.34c5.78,0,6.81,2.18,6.36,7l-2.89,27.76c-.45,4.82-2.12,7-7.9,7v3.34h18.89v-3.34Z"/>
    <path class="st1" d="M246.67,361.49v2.96h16.77v-2.96c-3.73,0-5.4-1.67-5.4-4.56v-25.57h-1.29c-2.89,1.61-6.88,2.76-10.35,3.34v2.96h5.65v19.28c0,2.89-1.67,4.56-5.4,4.56Z"/>
    <path class="st1" d="M260.17,320.49c0-2.7-2.38-5.01-5.21-5.01s-5.14,2.31-5.14,5.01,2.31,5.08,5.14,5.08,5.21-2.31,5.21-5.08Z"/>
    <path class="st1" d="M275.91,315.03c-2.89,1.61-6.88,2.76-10.35,3.34v2.96h5.65v35.6c0,2.89-1.67,4.56-5.4,4.56v2.96h16.77v-2.96c-3.73,0-5.4-1.67-5.4-4.56v-41.89h-1.29Z"/>
    <path class="st1" d="M284.71,321.33h5.65v35.6c0,2.89-1.67,4.56-5.4,4.56v2.96h16.77v-2.96c-3.73,0-5.4-1.67-5.4-4.56v-41.89h-1.29c-2.89,1.61-6.88,2.76-10.35,3.34v2.96Z"/>
    <path class="st1" d="M331.74,346.52c.06-.58.06-1.22.06-1.86,0-7.58-5.27-13.3-12.92-13.3-8.93,0-15.55,7.33-15.55,17.35.06,9.9,6.43,17.03,15.1,17.03,6.49,0,11.31-4.05,14.07-10.67l-2.89-1.35c-2.25,4.24-5.72,6.17-9.77,6.17-6.3,0-10.35-5.91-10.35-13.3v-.06h22.23ZM317.67,335.21c3.92,0,6.81,2.7,7.07,7.45h-14.84c.96-4.5,3.73-7.45,7.77-7.45Z"/>
    <path class="st1" d="M345.43,331.35c-2.89,1.61-6.88,2.76-10.35,3.34v2.96h5.65v19.28c0,2.89-1.67,4.56-5.4,4.56v2.96h16.77v-2.96c-3.73,0-5.4-1.67-5.4-4.56v-14.84c1.8-2.83,4.63-5.33,8.8-5.33,2.12,0,3.73.64,4.88,1.86,1.35,1.35,1.93,3.28,1.93,5.72v12.59c0,2.89-1.67,4.56-5.4,4.56v2.96h16.77v-2.96c-3.73,0-5.4-1.67-5.4-4.56v-14.59c0-3.28-1.03-5.98-2.76-7.84-1.93-1.99-4.88-3.15-8.03-3.15-4.43,0-7.97,2.12-10.28,5.33h-.64l.13-5.33h-1.29Z"/>
    <path class="st1" d="M388.29,336.69h-.64l.13-5.33h-1.29c-2.89,1.61-6.88,2.76-10.35,3.34v2.96h5.65v19.28c0,2.89-1.67,4.56-5.4,4.56v2.96h16.77v-2.96c-3.73,0-5.4-1.67-5.4-4.56v-14.84c1.8-2.83,4.63-5.33,8.8-5.33,2.12,0,3.73.64,4.88,1.86,1.35,1.35,1.93,3.28,1.93,5.72v12.59c0,2.89-1.67,4.56-5.4,4.56v2.96h16.77v-2.96c-3.73,0-5.4-1.67-5.4-4.56v-14.59c0-3.28-1.03-5.98-2.76-7.84-1.93-1.99-4.88-3.15-8.03-3.15-4.43,0-7.97,2.12-10.28,5.33Z"/>
    <path class="st1" d="M417.2,337.65h5.65v19.28c0,2.89-1.67,4.56-5.4,4.56v2.96h16.77v-2.96c-3.73,0-5.4-1.67-5.4-4.56v-25.57h-1.29c-2.89,1.61-6.88,2.76-10.35,3.34v2.96Z"/>
    <path class="st1" d="M430.95,320.49c0-2.7-2.38-5.01-5.21-5.01s-5.14,2.31-5.14,5.01,2.31,5.08,5.14,5.08,5.21-2.31,5.21-5.08Z"/>
    <path class="st1" d="M433.59,336.24c3.66,0,5.59,1.54,5.59,4.37v14.59c0,3.15.9,5.72,2.63,7.52,1.8,1.93,4.63,3.02,7.71,3.02,4.31,0,7.58-2.12,10.09-5.33h.64l-.13,4.82,11.57-.77v-2.96c-3.66.06-5.59-1.54-5.59-4.37v-25.12l-11.57,1.29v2.96c3.66,0,5.59,1.54,5.59,4.37v14.33c-2.25,3.6-5.59,5.4-8.67,5.4-1.8,0-3.41-.58-4.56-1.86s-1.73-3.15-1.73-5.59v-20.88l-11.57,1.29v2.96Z"/>
    <path class="st1" d="M486.53,336.69h-.64l.06-5.33h-1.29c-2.89,1.61-6.88,2.76-10.35,3.34v2.96h5.65v19.28c0,2.89-1.67,4.56-5.4,4.56v2.96h16.77v-2.96c-3.73,0-5.4-1.67-5.4-4.56v-14.78c2.25-3.53,5.53-5.4,8.67-5.4,1.8,0,3.41.58,4.56,1.86,1.16,1.29,1.73,3.15,1.73,5.59v12.72c0,2.89-1.67,4.56-5.4,4.56v2.96h16.51v-2.96c-3.53,0-5.14-1.67-5.14-4.56v-15.16c1.93-3.08,5.2-5.01,8.42-5.01,1.8,0,3.34.51,4.5,1.8,1.22,1.29,1.86,3.21,1.86,5.65v12.72c0,2.89-1.61,4.56-5.14,4.56v2.96h16.51v-2.96c-3.73,0-5.4-1.67-5.4-4.56v-15.04c0-3.15-.9-5.72-2.63-7.52-1.86-1.93-4.75-3.02-7.84-3.02-4.37,0-7.84,2.18-10.34,5.78h-.71c-.39-1.03-.96-1.99-1.73-2.76-1.86-1.93-4.69-3.02-7.77-3.02-4.3,0-7.58,2.06-10.09,5.33Z"/>
    <path class="st1" d="M548.35,363.67c0-4.37-2.96-8.16-6.81-8.16-2.96,0-4.88,2.31-4.88,4.75,0,2.06,1.28,4.18,3.98,4.69,1.73.32,2.51,1.09,2.51,2.31,0,2.51-3.53,4.95-7.39,5.14v2.76c6.88-.26,12.59-5.01,12.59-11.5Z"/>
    <path class="st1" d="M238.58,381.66l-10.09,8.03,1.86,2.38,5.72-4.56v14.84c0,2.44-.32,2.76-2.96,2.76h-2.96v2.89h16.26v-2.89h-2.18c-2.51,0-2.89-.26-2.89-2.76v-20.69h-2.76Z"/>
    <rect class="st1" x="217.5" y="412.12" width="41.89" height="2.96"/>
    <path class="st1" d="M248.6,434.16h-4.5v-14.97h-5.33l-12.4,14.97v3.92h12.4v7.13h5.33v-7.13h4.5v-3.92ZM238.9,434.16h-8.67l8.67-10.47v10.47Z"/>
    <path class="st1" d="M308.16,417.97l-3.21-1.67c-3.34,5.72-9.38,8.74-15.23,8.74-9.25,0-18.57-7.2-18.57-20.24,0-10.79,6.62-19.47,16.51-19.47,7.77,0,12.4,5.4,16.71,12.59h3.53l-4.37-16.32h-2.83l-1.99,2.7c-3.15-2.18-7-3.28-11.24-3.28-12.66,0-23.77,10.73-23.77,25.77s10.86,24.93,23.71,24.93c9,0,16.32-5.01,20.75-13.75Z"/>
    <path class="st1" d="M342.15,421.05l-2.89-1.35c-2.25,4.24-5.72,6.17-9.77,6.17-6.3,0-10.35-5.91-10.35-13.3v-.06h22.23c.06-.58.06-1.22.06-1.86,0-7.58-5.27-13.3-12.92-13.3-8.93,0-15.55,7.32-15.55,17.35.06,9.89,6.43,17.03,15.1,17.03,6.49,0,11.31-4.05,14.07-10.67ZM327.31,401.2c3.92,0,6.81,2.7,7.07,7.45h-14.84c.96-4.5,3.73-7.45,7.77-7.45Z"/>
    <path class="st1" d="M375.18,400.49c-1.93-1.99-4.88-3.15-8.03-3.15-4.43,0-7.97,2.12-10.28,5.33h-.64l.13-5.33h-1.29c-2.89,1.61-6.88,2.76-10.35,3.34v2.96h5.65v19.28c0,2.89-1.67,4.56-5.4,4.56v2.96h16.77v-2.96c-3.73,0-5.4-1.67-5.4-4.56v-14.84c1.8-2.83,4.63-5.33,8.8-5.33,2.12,0,3.73.64,4.88,1.86,1.35,1.35,1.93,3.28,1.93,5.72v12.59c0,2.89-1.67,4.56-5.4,4.56v2.96h16.77v-2.96c-3.73,0-5.4-1.67-5.4-4.56v-14.59c0-3.28-1.03-5.98-2.76-7.84Z"/>
    <path class="st1" d="M391.44,388.28c-1.41,5.4-4.82,9.32-9.06,11.57v2.96h6.04l-.32,16.77v1.09c0,7.2,3.6,11.05,9.38,11.05,5.2,0,8.8-3.53,10.6-9.32l-2.83-1.09c-1.35,3.21-3.47,5.2-6.3,5.2-3.98,0-4.69-3.47-4.75-6.94v-1.03l.06-15.74h12.14v-4.18h-12.02v-10.35h-2.96Z"/>
    <path class="st1" d="M409.17,402.23c3.66,0,5.59,1.54,5.59,4.37v14.59c0,3.15.9,5.72,2.63,7.52,1.8,1.93,4.63,3.02,7.71,3.02,4.31,0,7.58-2.12,10.09-5.33h.64l-.13,4.82,11.57-.77v-2.96c-3.66.06-5.59-1.54-5.59-4.37v-25.12l-11.57,1.29v2.96c3.66,0,5.59,1.54,5.59,4.37v14.33c-2.25,3.6-5.59,5.4-8.67,5.4-1.8,0-3.41-.58-4.56-1.86s-1.73-3.15-1.73-5.59v-20.88l-11.57,1.29v2.96Z"/>
    <path class="st1" d="M466.61,404.8c1.29,0,2.57.45,3.85.45,2.25,0,3.92-1.8,3.92-4.05s-1.8-3.85-4.43-3.85c-2.83,0-5.65,1.93-7.9,5.98h-.64l.13-5.98h-1.29c-2.89,1.61-6.88,2.76-10.35,3.34v2.96h5.65v19.28c0,2.89-1.67,4.56-5.4,4.56v2.96h16.77v-2.96c-3.73,0-5.4-1.67-5.4-4.56v-12.53c0-3.47,1.93-5.59,5.08-5.59Z"/>
    <path class="st1" d="M484.67,439.62c-.96,0-1.8-.45-2.51-1.03-.9-.71-1.8-1.22-3.28-1.22-2.38,0-4.18,1.86-4.18,4.05,0,2.44,2.18,4.75,5.91,4.75,2.18,0,4.24-.64,5.91-1.67,2.83-1.74,5.08-4.88,6.81-8.93l12.79-29.75c1.22-2.89,2.96-4.24,5.2-4.24v-2.96h-12.92v2.96l1.29.06c1.73.06,2.7.58,2.7,1.67,0,.45-.13.9-.32,1.41l-7.2,17.22-7.07-16.71c-.39-.96-.51-1.41-.51-1.8,0-.96.84-1.73,2.7-1.8l1.29-.06v-2.96h-15.1v2.96c2.25,0,4.05,1.41,5.27,4.24l10.22,23.71-2.06,4.69c-1.41,3.21-2.63,5.4-4.95,5.4Z"/>
    <path class="st1" d="M190.26,497.71c7,0,13.69-2.89,18.51-8.16v-5.65c0-4.88,1.16-7.07,5.98-7.07v-3.34h-20.11v3.34c6.17,0,7.58,2.18,7.58,7.07v5.85c-2.83,1.54-6.17,2.44-9.45,2.44-10.02,0-18.96-8.03-18.96-21.53,0-10.47,6.23-19.34,16.38-19.34,7.71,0,12.08,5.08,16.58,12.46l.13.13h3.53l-4.37-16.32h-2.83l-1.99,2.7c-3.21-2.31-7.13-3.28-11.18-3.28-12.53,0-23.84,10.86-23.84,25.51s10.54,25.19,24.03,25.19Z"/>
    <path class="st1" d="M247.19,478.5c.06-.58.06-1.22.06-1.86,0-7.58-5.27-13.3-12.92-13.3-8.93,0-15.55,7.32-15.55,17.35.06,9.89,6.43,17.03,15.1,17.03,6.49,0,11.31-4.05,14.07-10.67l-2.89-1.35c-2.25,4.24-5.72,6.17-9.77,6.17-6.3,0-10.35-5.91-10.35-13.3v-.06h22.23ZM233.11,467.19c3.92,0,6.81,2.7,7.07,7.45h-14.84c.96-4.5,3.73-7.45,7.77-7.45Z"/>
    <path class="st1" d="M272.37,493.47v2.96h16.77v-2.96c-3.73,0-5.4-1.67-5.4-4.56v-14.59c0-3.28-1.03-5.98-2.76-7.84-1.93-1.99-4.88-3.15-8.03-3.15-4.43,0-7.97,2.12-10.28,5.33h-.64l.13-5.33h-1.29c-2.89,1.61-6.88,2.76-10.35,3.34v2.96h5.65v19.28c0,2.89-1.67,4.56-5.4,4.56v2.96h16.77v-2.96c-3.73,0-5.4-1.67-5.4-4.56v-14.84c1.8-2.83,4.63-5.33,8.8-5.33,2.12,0,3.73.64,4.88,1.86,1.35,1.35,1.93,3.28,1.93,5.72v12.59c0,2.89-1.67,4.56-5.4,4.56Z"/>
    <path class="st1" d="M305.59,497.71c6.49,0,11.31-4.05,14.07-10.67l-2.89-1.35c-2.25,4.24-5.72,6.17-9.77,6.17-6.3,0-10.35-5.91-10.35-13.3v-.06h22.23c.06-.58.06-1.22.06-1.86,0-7.58-5.27-13.3-12.92-13.3-8.93,0-15.55,7.32-15.55,17.35.06,9.89,6.43,17.03,15.1,17.03ZM304.82,467.19c3.92,0,6.81,2.7,7.07,7.45h-14.84c.96-4.5,3.73-7.45,7.77-7.45Z"/>
    <path class="st1" d="M338.94,470.79c1.29,0,2.57.45,3.85.45,2.25,0,3.92-1.8,3.92-4.05s-1.8-3.85-4.43-3.85c-2.83,0-5.65,1.93-7.9,5.98h-.64l.13-5.98h-1.29c-2.89,1.61-6.88,2.76-10.35,3.34v2.96h5.65v19.28c0,2.89-1.67,4.56-5.4,4.56v2.96h16.77v-2.96c-3.73,0-5.4-1.67-5.4-4.56v-12.53c0-3.47,1.93-5.59,5.08-5.59Z"/>
    <path class="st1" d="M367.28,492.38h.64l-.06,4.75,10.67-.71v-2.96c-3.34-.26-4.75-1.8-4.75-4.24v-1.29l.13-11.18v-1.41c.06-8.35-5.14-12.02-11.18-12.02s-11.63,3.98-14.78,10.6l2.83,1.74c2.51-4.31,6.36-6.68,10.34-6.68,3.41,0,6.75,1.86,6.75,6.49v2.7l-7.58,1.99c-7.2,1.8-11.12,5.27-11.12,9.9,0,4.11,3.28,7.65,8.16,7.65,3.15,0,7.07-1.41,9.96-5.33ZM360.34,492.7c-2.44,0-4.37-1.67-4.37-4.11s1.8-4.18,6.62-5.72l5.27-1.54v5.4c-1.61,3.73-4.5,5.98-7.52,5.98Z"/>
    <path class="st1" d="M403.52,488.39l-2.83-1.09c-1.35,3.21-3.47,5.2-6.3,5.2-3.98,0-4.69-3.47-4.75-6.94v-1.03l.06-15.74h12.14v-4.18h-12.02v-10.35h-2.96c-1.41,5.4-4.82,9.32-9.06,11.57v2.96h6.04l-.32,16.77v1.09c0,7.2,3.6,11.05,9.38,11.05,5.2,0,8.8-3.53,10.6-9.32Z"/>
    <path class="st1" d="M413.67,457.55c2.83,0,5.21-2.31,5.21-5.08s-2.38-5.01-5.21-5.01-5.14,2.31-5.14,5.01,2.31,5.08,5.14,5.08Z"/>
    <path class="st1" d="M405.12,469.63h5.65v19.28c0,2.89-1.67,4.56-5.4,4.56v2.96h16.77v-2.96c-3.73,0-5.4-1.67-5.4-4.56v-25.57h-1.29c-2.89,1.61-6.88,2.76-10.35,3.34v2.96Z"/>
    <path class="st1" d="M423.5,480.42c0,10.15,7.39,17.28,16.19,17.28s16.19-7,16.19-17.28-7.45-17.16-16.19-17.16-16.19,6.81-16.19,17.16ZM449.2,481.32c0,7.33-3.28,12.27-9.12,12.27-6.68,0-9.83-6.75-9.83-13.94s3.34-12.34,9.19-12.34c6.62,0,9.77,7,9.77,14.01Z"/>
    <path class="st1" d="M475.16,493.47c-3.73,0-5.4-1.67-5.4-4.56v-14.84c1.8-2.83,4.63-5.33,8.8-5.33,2.12,0,3.73.64,4.88,1.86,1.35,1.35,1.93,3.28,1.93,5.72v12.59c0,2.89-1.67,4.56-5.4,4.56v2.96h16.77v-2.96c-3.73,0-5.4-1.67-5.4-4.56v-14.59c0-3.28-1.03-5.98-2.76-7.84-1.93-1.99-4.88-3.15-8.03-3.15-4.43,0-7.97,2.12-10.28,5.33h-.64l.13-5.33h-1.29c-2.89,1.61-6.88,2.76-10.35,3.34v2.96h5.65v19.28c0,2.89-1.67,4.56-5.4,4.56v2.96h16.77v-2.96Z"/>
    <path class="st1" d="M516.54,508.12c-5.85-7.52-10.6-17.54-10.6-31.36s4.75-23.84,10.6-31.36h-4.95c-4.56,4.82-12.34,16.51-12.34,31.36s7.77,26.54,12.34,31.36h4.95Z"/>
    <path class="st1" d="M534.92,478.11l-6.17-2.31c-3.15-1.16-5.2-2.51-5.2-4.82s2.31-3.92,5.33-3.92c3.73,0,7.2,2.25,11.76,8.42l.06.13h3.08l-3.08-11.63h-2.44l-1.61,2.25c-2.51-1.99-5.53-2.96-8.29-2.96-5.85,0-10.92,3.53-10.92,9.06,0,5.01,3.6,7.9,8.74,9.77l6.17,2.25c3.53,1.29,5.46,2.76,5.46,5.14,0,2.63-2.57,4.3-5.72,4.3-4.24,0-8.48-2.89-12.92-9.45h-3.08l3.41,12.72h2.44l1.8-2.44c2.76,2.06,5.91,3.15,8.87,3.15,5.78,0,11.37-3.73,11.37-9.83,0-5.01-3.92-7.9-9.06-9.83Z"/>
    <path class="st1" d="M548.99,445.41h-4.95c5.85,7.52,10.6,17.54,10.6,31.36s-4.75,23.84-10.6,31.36h4.95c4.56-4.82,12.34-16.51,12.34-31.36s-7.77-26.54-12.34-31.36Z"/>
    <path class="st1" d="M255.22,559.07h-3.66c-4.63,0-5.4-.64-5.4-5.14v-31.49c0-4.5.77-5.14,5.4-5.14h3.66v-3.34h-39.2v3.34l2.06.06c2.89.06,4.37.9,4.37,2.7,0,.96-.32,2.18-.96,3.73l-12.14,30.39-11.95-30.33c-.58-1.54-.9-2.76-.9-3.73,0-1.86,1.35-2.7,4.11-2.76l2.06-.06v-3.34h-19.79v3.34c3.53,0,5.08,1.35,7.26,6.75l15.87,39.32h4.37l15.87-39.32c2.12-5.33,3.53-6.75,7.26-6.75h.58c4.75,0,5.53.71,5.53,5.14v31.49c0,4.43-.77,5.14-5.53,5.14h-3.66v3.34h24.8v-3.34Z"/>
    <path class="st1" d="M321.72,550.33c1.8-3.66,2.7-7.71,2.7-12.14,0-6.23-1.86-11.89-5.85-16.32-5.65-6.36-13.69-7.9-24.1-7.9h-18.31v3.34c5.78,0,7.13,2.18,7.13,7.07v27.63c0,4.88-1.35,7.07-7.13,7.07v3.34h20.05c14.84,0,21.46-3.86,25.51-12.08ZM314.27,549.37c-2.83,5.4-8.29,8.55-16.64,8.55h-7.58v-39.45h6.1c7.07,0,12.53,2.12,15.87,6.3,2.96,3.66,4.5,8.22,4.5,13.75,0,4.24-.77,7.9-2.25,10.86Z"/>
    <path class="st1" d="M344.21,563.7c6.49,0,11.31-4.05,14.07-10.67l-2.89-1.35c-2.25,4.24-5.72,6.17-9.77,6.17-6.3,0-10.35-5.91-10.35-13.3v-.06h22.23c.06-.58.06-1.22.06-1.86,0-7.58-5.27-13.3-12.92-13.3-8.93,0-15.55,7.32-15.55,17.35.06,9.89,6.43,17.03,15.1,17.03ZM343.44,533.18c3.92,0,6.81,2.7,7.07,7.45h-14.84c.96-4.5,3.73-7.45,7.77-7.45Z"/>
    <path class="st1" d="M377.17,533.24c2.96,0,4.82,1.48,5.33,4.5.45,2.7,1.99,4.18,4.18,4.18,2.38,0,4.05-1.74,4.05-4.18,0-4.82-6.1-8.48-12.59-8.48-8.87,0-16.06,6.81-16.06,17.48.06,9.77,6.43,16.96,15.1,16.96,6.49,0,11.37-4.05,14.07-10.67l-2.89-1.35c-2.19,4.11-5.46,6.1-9.77,6.17-6.17,0-10.41-5.91-10.41-13.43,0-6.43,3.6-11.18,9-11.18Z"/>
    <path class="st1" d="M403.77,563.7c3.15,0,7.07-1.41,9.96-5.33h.64l-.06,4.75,10.67-.71v-2.96c-3.34-.26-4.75-1.8-4.75-4.24v-1.29l.13-11.18v-1.41c.06-8.35-5.14-12.02-11.18-12.02s-11.63,3.98-14.78,10.6l2.83,1.74c2.51-4.31,6.36-6.68,10.34-6.68,3.41,0,6.75,1.86,6.75,6.49v2.7l-7.58,1.99c-7.2,1.8-11.12,5.27-11.12,9.9,0,4.11,3.28,7.65,8.16,7.65ZM409.04,548.86l5.27-1.54v5.4c-1.61,3.73-4.5,5.98-7.52,5.98-2.44,0-4.37-1.67-4.37-4.11s1.8-4.18,6.62-5.72Z"/>
    <path class="st1" d="M462.05,562.41v-2.96c-3.66.06-5.59-1.54-5.59-4.37v-42.09h-1.29c-2.89,1.61-6.88,2.76-10.35,3.34v2.96h5.65v11.76c-2.51-1.16-5.08-1.73-7.65-1.73-9.32,0-16.26,7.52-16.26,18.18s5.72,16.19,13.24,16.19c4.24,0,7.77-2.12,10.09-5.33h.64l-.06,4.82,11.57-.77ZM450.49,552.9c-2.19,3.47-5.27,5.4-8.74,5.4-5.33,0-8.74-4.5-8.74-11.95,0-7.9,3.86-13.17,9.9-13.24,3.02-.06,5.72,1.35,7.58,3.79v16Z"/>
    <path class="st1" d="M478.63,563.7c6.49,0,11.31-4.05,14.07-10.67l-2.89-1.35c-2.25,4.24-5.72,6.17-9.77,6.17-6.3,0-10.35-5.91-10.35-13.3v-.06h22.23c.06-.58.06-1.22.06-1.86,0-7.58-5.27-13.3-12.92-13.3-8.93,0-15.55,7.32-15.55,17.35.06,9.89,6.43,17.03,15.1,17.03ZM477.86,533.18c3.92,0,6.81,2.7,7.07,7.45h-14.84c.96-4.5,3.73-7.45,7.77-7.45Z"/>
    <path class="st1" d="M524.32,553.93c0-5.01-3.92-7.9-9.06-9.83l-6.17-2.31c-3.15-1.16-5.2-2.51-5.2-4.82s2.31-3.92,5.33-3.92c3.73,0,7.2,2.25,11.76,8.42l.06.13h3.08l-3.08-11.63h-2.44l-1.61,2.25c-2.51-1.99-5.53-2.96-8.29-2.96-5.85,0-10.92,3.53-10.92,9.06,0,5.01,3.6,7.9,8.74,9.77l6.17,2.25c3.53,1.29,5.46,2.76,5.46,5.14,0,2.63-2.57,4.3-5.72,4.3-4.24,0-8.48-2.89-12.92-9.45h-3.08l3.41,12.72h2.44l1.8-2.44c2.76,2.06,5.91,3.15,8.87,3.15,5.78,0,11.37-3.73,11.37-9.83Z"/>
    <path class="st1" d="M528.81,570.38v2.76c6.88-.26,12.59-5.01,12.59-11.5,0-4.37-2.96-8.16-6.81-8.16-2.96,0-4.88,2.31-4.88,4.75,0,2.06,1.28,4.18,3.98,4.69,1.73.32,2.51,1.09,2.51,2.31,0,2.51-3.53,4.95-7.39,5.14Z"/>
    <path class="st1" d="M234.46,583.3v-3.34h-21.01v3.34c5.78,0,7.13,2.18,7.13,7.07v27.63c0,4.88-1.35,7.07-7.13,7.07v3.34h21.01v-3.34c-5.78,0-7.13-2.19-7.13-7.07v-27.63c0-4.88,1.35-7.07,7.13-7.07Z"/>
    <path class="st1" d="M259.46,625.45v2.96h16.77v-2.96c-3.73,0-5.4-1.67-5.4-4.56v-14.59c0-3.28-1.03-5.98-2.76-7.84-1.93-1.99-4.88-3.15-8.03-3.15-4.43,0-7.97,2.12-10.28,5.33h-.64l.13-5.33h-1.29c-2.89,1.61-6.88,2.76-10.35,3.34v2.96h5.65v19.28c0,2.89-1.67,4.56-5.4,4.56v2.96h16.77v-2.96c-3.73,0-5.4-1.67-5.4-4.56v-14.84c1.8-2.83,4.63-5.33,8.8-5.33,2.12,0,3.73.64,4.88,1.86,1.35,1.35,1.93,3.28,1.93,5.72v12.59c0,2.89-1.67,4.56-5.4,4.56Z"/>
    <path class="st1" d="M280.92,618.64c0,7.2,3.6,11.05,9.38,11.05,5.2,0,8.8-3.53,10.6-9.32l-2.83-1.09c-1.35,3.21-3.47,5.2-6.3,5.2-3.98,0-4.69-3.47-4.75-6.94v-1.03l.06-15.74h12.14v-4.18h-12.02v-10.35h-2.96c-1.41,5.4-4.82,9.32-9.06,11.57v2.96h6.04l-.32,16.77v1.09Z"/>
    <path class="st1" d="M318.51,629.69c6.49,0,11.31-4.05,14.07-10.67l-2.89-1.35c-2.25,4.24-5.72,6.17-9.77,6.17-6.3,0-10.35-5.91-10.35-13.3v-.06h22.23c.06-.58.06-1.22.06-1.86,0-7.58-5.27-13.3-12.92-13.3-8.93,0-15.55,7.32-15.55,17.35.06,9.89,6.43,17.03,15.1,17.03ZM317.74,599.17c3.92,0,6.81,2.7,7.07,7.45h-14.84c.96-4.5,3.73-7.45,7.77-7.45Z"/>
    <path class="st1" d="M351.86,602.77c1.29,0,2.57.45,3.85.45,2.25,0,3.92-1.8,3.92-4.05s-1.8-3.85-4.43-3.85c-2.83,0-5.65,1.93-7.9,5.98h-.64l.13-5.98h-1.29c-2.89,1.61-6.88,2.76-10.35,3.34v2.96h5.65v19.28c0,2.89-1.67,4.56-5.4,4.56v2.96h16.77v-2.96c-3.73,0-5.4-1.67-5.4-4.56v-12.53c0-3.47,1.93-5.59,5.08-5.59Z"/>
    <path class="st1" d="M366.7,603.86l10.09,25.32h4.3l10.09-25.32c1.16-2.96,2.96-4.31,5.2-4.31v-2.96h-12.85v2.96l1.29.06c1.73.06,2.7.58,2.7,1.67,0,.45-.13.9-.32,1.41l-7.13,18.44-7-17.86c-.39-.96-.51-1.48-.51-1.86,0-.96.84-1.73,2.7-1.8l1.29-.06v-2.96h-15.1v2.96c2.25,0,4.11,1.41,5.27,4.31Z"/>
    <path class="st1" d="M427.36,628.4v-2.96c-3.34-.26-4.75-1.8-4.75-4.24v-1.29l.13-11.18v-1.41c.06-8.35-5.14-12.02-11.18-12.02s-11.63,3.98-14.78,10.6l2.83,1.74c2.51-4.31,6.36-6.68,10.34-6.68,3.41,0,6.75,1.86,6.75,6.49v2.7l-7.58,1.99c-7.2,1.8-11.12,5.27-11.12,9.9,0,4.11,3.28,7.65,8.16,7.65,3.15,0,7.07-1.41,9.96-5.33h.64l-.06,4.75,10.67-.71ZM416.69,618.7c-1.61,3.73-4.5,5.98-7.52,5.98-2.44,0-4.37-1.67-4.37-4.11s1.8-4.18,6.62-5.72l5.27-1.54v5.4Z"/>
    <path class="st1" d="M446.38,625.45c-3.73,0-5.4-1.67-5.4-4.56v-41.89h-1.29c-2.89,1.61-6.88,2.76-10.35,3.34v2.96h5.65v35.6c0,2.89-1.67,4.56-5.4,4.56v2.96h16.77v-2.96Z"/>
    <path class="st1" d="M482.87,629.69c5.2,0,10.79-2.25,15.42-6.62l4.82,5.33h10.79v-2.96c-1.67-.71-5.2-3.21-8.22-5.85l-2.63-2.31c1.73-2.76,3.08-5.98,4.05-9.64.9-4.18,2.12-5.14,6.36-5.27v-3.15h-16.45v3.15c4.05.13,5.27,1.16,5.33,4.31.06,2.63-.84,5.46-2.31,8.03l-14.78-12.79c6.17-3.08,11.57-7.13,11.57-13.11s-5.33-9.9-11.95-9.9c-7.26,0-12.72,4.56-12.72,11.12,0,4.43,2.51,8.03,6.17,11.37-6.81,3.53-11.24,8.1-11.24,14.59,0,7.71,6.68,13.69,15.81,13.69ZM484.67,582.53c3.15,0,6.04,2.38,6.04,6.55,0,4.63-3.41,7.78-7.77,10.09-2.7-3.28-4.5-6.36-4.5-9.7,0-4.43,3.02-6.94,6.23-6.94ZM481.07,604.05l14.59,16.13c-3.08,2.7-6.81,4.24-10.86,4.24-6.04,0-10.6-4.24-10.6-9.9,0-4.82,2.51-7.9,6.88-10.47Z"/>
    <path class="st1" d="M155.56,654.04v13.24c0,3.98-1.99,5.46-6.62,5.46v3.98c4.63,0,6.62,1.48,6.62,5.46v13.24c0,7.71,4.88,12.02,12.98,10.54v-3.28c-5.4.51-7-2.06-7-6.62v-13.04c0-3.79-1.67-7.26-5.78-7.97v-.64c4.11-.71,5.78-4.18,5.78-7.97v-13.04c0-4.56,1.61-7.13,7-6.62v-3.28c-8.1-1.48-12.98,2.83-12.98,10.54Z"/>
    <path class="st1" d="M207.03,649.29c5.78,0,7.13,2.18,7.13,7.07v27.44l-27.5-37.85h-14.2v3.34c5.78,0,7.13,2.18,7.13,7.07v27.63c0,4.88-1.35,7.07-7.13,7.07v3.34h18.89v-3.34c-5.78,0-7.13-2.19-7.13-7.07v-29.81l29.81,41h4.75v-38.81c0-4.88,1.35-7.07,7.13-7.07v-3.34h-18.89v3.34Z"/>
    <path class="st1" d="M243.14,689.83c-6.3,0-10.35-5.91-10.35-13.3v-.06h22.23c.06-.58.06-1.22.06-1.86,0-7.58-5.27-13.3-12.92-13.3-8.93,0-15.55,7.32-15.55,17.35.06,9.89,6.43,17.03,15.1,17.03,6.49,0,11.31-4.05,14.07-10.67l-2.89-1.35c-2.25,4.24-5.72,6.17-9.77,6.17ZM240.95,665.16c3.92,0,6.81,2.7,7.07,7.45h-14.84c.96-4.5,3.73-7.45,7.77-7.45Z"/>
    <path class="st1" d="M286.51,687.65l-8.16-10.28,7.2-8.16c1.93-2.18,3.92-3.66,6.81-3.66v-2.96h-13.49v2.96l.96.06c1.22.06,1.73.45,1.73,1.16,0,.64-.45,1.35-1.22,2.25l-4.75,5.53-4.18-5.4c-.77-.96-1.09-1.61-1.09-2.18,0-.84.58-1.29,1.86-1.35l.96-.06v-2.96h-15.55v2.96c2.57,0,4.56,1.48,6.36,3.79l7.45,9.45-7.77,9c-1.93,2.18-3.98,3.66-6.68,3.66v2.96h13.43v-2.96l-.9-.06c-1.35-.13-1.86-.51-1.86-1.16,0-.58.32-1.22,1.22-2.25l5.4-6.3,4.75,6.17c.71.9,1.09,1.73,1.09,2.25,0,.71-.51,1.16-1.93,1.29l-.9.06v2.96h15.74v-2.96c-2.7,0-4.69-1.48-6.49-3.79Z"/>
    <path class="st1" d="M317.74,685.27c-1.35,3.21-3.47,5.2-6.3,5.2-3.98,0-4.69-3.47-4.75-6.94v-1.03l.06-15.74h12.14v-4.18h-12.02v-10.35h-2.96c-1.41,5.4-4.82,9.32-9.06,11.57v2.96h6.04l-.32,16.77v1.09c0,7.2,3.6,11.05,9.38,11.05,5.2,0,8.8-3.53,10.6-9.32l-2.83-1.09Z"/>
    <path class="st1" d="M332.84,667.28v-13.24c0-7.71-4.88-12.02-12.98-10.54v3.28c5.4-.51,7,2.06,7,6.62v13.04c0,3.79,1.67,7.26,5.78,7.97v.64c-4.11.71-5.78,4.18-5.78,7.97v13.04c0,4.56-1.61,7.13-7,6.62v3.28c8.1,1.48,12.98-2.83,12.98-10.54v-13.24c0-3.98,1.99-5.46,6.62-5.46v-3.98c-4.63,0-6.62-1.48-6.62-5.46Z"/>
    <path class="st1" d="M366.95,689.89h-12.85v-17.48h5.27c4.88,0,7.07,1.48,7.07,7.78h3.34v-20.11h-3.34c0,6.36-2.18,7.84-7.07,7.84h-5.27v-17.48h11.44c7.52,0,11.44,3.21,14.01,11.44h3.53l-4.31-15.94h-38.55v3.34c5.78,0,7.13,2.18,7.13,7.07v27.63c0,4.88-1.35,7.07-7.13,7.07v3.34h39.97l4.3-15.94h-3.53c-2.57,8.22-6.49,11.44-14.01,11.44Z"/>
    <path class="st1" d="M408.27,661.3c-4.24,0-7.77,2.12-10.09,5.33h-.71l.13-5.33h-1.29c-2.89,1.61-6.88,2.76-10.34,3.34v2.96h5.65v34.05c0,2.89-1.67,4.56-5.4,4.56v2.96h16.77v-2.96c-3.73,0-5.4-1.67-5.4-4.56v-7.71c2.51,1.16,5.08,1.74,7.65,1.74,9.32,0,16.26-7.52,16.26-18.18s-5.72-16.19-13.24-16.19ZM405.19,691.89c-3.02.06-5.72-1.35-7.58-3.79v-16c2.18-3.47,5.27-5.4,8.74-5.4,5.33,0,8.74,4.5,8.74,11.95,0,7.9-3.86,13.17-9.9,13.24Z"/>
    <path class="st1" d="M435.83,686.88v-25.57h-1.29c-2.89,1.61-6.88,2.76-10.35,3.34v2.96h5.65v19.28c0,2.89-1.67,4.56-5.4,4.56v2.96h16.77v-2.96c-3.73,0-5.4-1.67-5.4-4.56Z"/>
    <path class="st1" d="M427.61,650.44c0,2.76,2.31,5.08,5.14,5.08s5.21-2.31,5.21-5.08-2.38-5.01-5.21-5.01-5.14,2.31-5.14,5.01Z"/>
    <path class="st1" d="M462.11,676.08l-6.17-2.31c-3.15-1.16-5.2-2.51-5.2-4.82s2.31-3.92,5.33-3.92c3.73,0,7.2,2.25,11.76,8.42l.06.13h3.08l-3.08-11.63h-2.44l-1.61,2.25c-2.51-1.99-5.53-2.96-8.29-2.96-5.85,0-10.92,3.53-10.92,9.06,0,5.01,3.6,7.9,8.74,9.77l6.17,2.25c3.53,1.29,5.46,2.76,5.46,5.14,0,2.63-2.57,4.3-5.72,4.3-4.24,0-8.48-2.89-12.92-9.45h-3.08l3.41,12.72h2.44l1.8-2.44c2.76,2.06,5.91,3.15,8.87,3.15,5.78,0,11.37-3.73,11.37-9.83,0-5.01-3.92-7.9-9.06-9.83Z"/>
    <path class="st1" d="M491.61,661.24c-8.55,0-16.19,6.81-16.19,17.16s7.39,17.28,16.19,17.28,16.19-7,16.19-17.28-7.45-17.16-16.19-17.16ZM491.99,691.57c-6.68,0-9.83-6.75-9.83-13.94s3.34-12.34,9.19-12.34c6.62,0,9.77,7,9.77,14.01s-3.28,12.27-9.12,12.27Z"/>
    <path class="st1" d="M541.98,687.07v-42.09h-1.29c-2.89,1.61-6.88,2.76-10.35,3.34v2.96h5.65v11.76c-2.51-1.16-5.08-1.73-7.65-1.73-9.32,0-16.26,7.52-16.26,18.18s5.72,16.19,13.24,16.19c4.24,0,7.77-2.12,10.09-5.33h.64l-.06,4.82,11.57-.77v-2.96c-3.66.06-5.59-1.54-5.59-4.37ZM536.01,684.88c-2.19,3.47-5.27,5.4-8.74,5.4-5.33,0-8.74-4.5-8.74-11.95,0-7.9,3.86-13.17,9.9-13.24,3.02-.06,5.72,1.35,7.58,3.79v16Z"/>
    <path class="st1" d="M565.56,689.83c-6.3,0-10.35-5.91-10.35-13.3v-.06h22.23c.06-.58.06-1.22.06-1.86,0-7.58-5.27-13.3-12.92-13.3-8.93,0-15.55,7.32-15.55,17.35.06,9.89,6.43,17.03,15.1,17.03,6.49,0,11.31-4.05,14.07-10.67l-2.89-1.35c-2.25,4.24-5.72,6.17-9.77,6.17ZM563.38,665.16c3.92,0,6.81,2.7,7.07,7.45h-14.84c.96-4.5,3.73-7.45,7.77-7.45Z"/>
    <path class="st1" d="M809.03,145.33c7.45,0,13.11-5.78,13.11-13.94s-5.27-13.88-13.11-13.88-13.04,5.59-13.04,13.88,5.14,13.94,13.04,13.94ZM808.65,120.92c5.14,0,7.45,6.17,7.45,11.82s-2.31,9.19-6.55,9.19c-5.14,0-7.45-6.04-7.45-11.76s2.44-9.25,6.55-9.25Z"/>
    <path class="st1" d="M974.79,167.82c9.64,0,17.48-6.94,17.48-16.38s-7.45-15.87-16.32-15.87c-3.66,0-7.58,1.09-10.79,3.66l-.45-.19,2.18-14.97h22.42l.84-5.98h-27.18l-2.83,25,3.15,1.03c2.89-2.25,6.55-3.6,10.02-3.6,6.49,0,11.5,4.5,11.5,10.79s-5.27,10.6-11.69,10.6c-5.2,0-10.09-2.89-13.24-7.13l-2.7,1.8c3.92,6.68,10.15,11.24,17.61,11.24Z"/>
    <path class="st1" d="M1010.91,124.13c5.46,0,9.32,3.92,9.32,9.51-.06,2.83-.96,5.72-3.02,8.55-2.31,3.28-5.2,6.1-9.06,9.57l-12.66,11.37v3.41h32.19l3.86-14.39h-3.34c-1.73,5.85-4.63,8.1-10.54,8.1h-13.75l8.67-6.81c4.88-3.79,8.74-7.58,11.18-10.92,2.51-3.28,4.05-6.81,4.11-10.73,0-8.42-6.62-14.65-14.59-14.65s-13.69,5.53-17.86,13.17l2.89,1.93c3.28-4.75,7.65-8.1,12.59-8.1Z"/>
    <path class="st1" d="M762.83,163.2c-5.78,0-7.13-2.18-7.13-7.07v-28.34l26.54,39.58h4.69v-38.87c0-4.88,1.16-7.07,6.17-7.07v-3.34h-17.99v3.34c5.78,0,7.13,2.18,7.13,7.07l.06,26.86-24.93-37.27h-13.43v3.34c5.78,0,7.13,2.18,7.13,7.07v27.63c0,4.88-1.35,7.07-7.13,7.07v3.34h18.89v-3.34Z"/>
    <path class="st1" d="M1058.25,166.54h6.55v-14.2h7.84v-5.91h-7.84v-28.34h-6.55l-22.81,28.72v5.53h22.81v14.2ZM1040.58,146.43l17.67-22.3v22.3h-17.67Z"/>
    <path class="st1" d="M1087.94,165.77c0-4.37-2.96-8.16-6.81-8.16-2.96,0-4.88,2.31-4.88,4.75,0,2.06,1.29,4.18,3.98,4.69,1.73.32,2.51,1.09,2.51,2.31,0,2.51-3.53,4.95-7.39,5.14v2.76c6.88-.26,12.59-5.01,12.59-11.5Z"/>
    <rect class="st1" x="796.89" y="149.64" width="24.35" height="4.05"/>
    <path class="st1" d="M891.18,167.82c11.18,0,18.25-9.83,18.25-25.38s-7.07-25.38-18.31-25.38-18.25,9.77-18.25,25.38,7.13,25.38,18.31,25.38ZM901.71,142.89c0,12.59-2.83,20.75-10.54,20.75-4.11,0-6.88-2.38-8.48-6.55l18.38-23.58c.45,2.76.64,5.91.64,9.38ZM891.05,121.24c4.31,0,7.07,2.44,8.74,6.94l-18.51,23.65c-.51-2.83-.71-6.17-.71-9.83,0-12.79,2.63-20.75,10.47-20.75Z"/>
    <path class="st1" d="M848.74,124.52h17.48l-18.44,29.24c-2.57,4.11-5.72,8.35-6.81,9.57v3.21h8.87l20.56-43.31v-5.14h-31.55l-3.86,14.33h3.34c1.73-5.78,4.56-7.9,10.41-7.9Z"/>
    <path class="st1" d="M934.02,167.82c11.18,0,18.25-9.83,18.25-25.38s-7.07-25.38-18.31-25.38-18.25,9.77-18.25,25.38,7.13,25.38,18.31,25.38ZM944.55,142.89c0,12.59-2.83,20.75-10.54,20.75-4.11,0-6.88-2.38-8.48-6.55l18.38-23.58c.45,2.76.64,5.91.64,9.38ZM933.89,121.24c4.31,0,7.07,2.44,8.74,6.94l-18.51,23.65c-.51-2.83-.71-6.17-.71-9.83,0-12.79,2.63-20.75,10.47-20.75Z"/>
    <path class="st1" d="M797.66,184.08h-16.58v3.34c5.78,0,6.81,2.18,6.36,7l-2.89,27.76c-.45,4.82-2.12,7-7.9,7v3.34h18.89v-3.34c-5.78,0-6.81-2.18-6.36-7l3.34-32.38,14.97,43.5h3.34l15.42-43.56,3.28,32.45c.45,4.82-.58,7-6.36,7v3.34h21.08v-3.34c-5.78,0-7.45-2.18-7.9-7l-2.89-27.76c-.45-4.82.58-7,6.36-7v-3.34h-16.13l-13.17,37.27-12.85-37.27Z"/>
    <path class="st1" d="M862.36,199.37c-8.55,0-16.19,6.81-16.19,17.16s7.39,17.28,16.19,17.28,16.19-7,16.19-17.28-7.45-17.16-16.19-17.16ZM862.75,229.7c-6.68,0-9.83-6.75-9.83-13.94s3.34-12.34,9.19-12.34c6.62,0,9.77,7,9.77,14.01s-3.28,12.27-9.12,12.27Z"/>
    <path class="st1" d="M893.53,204.77h-.64l.06-5.33h-1.29c-2.89,1.61-6.88,2.76-10.34,3.34v2.96h5.65v19.28c0,2.89-1.67,4.56-5.4,4.56v2.96h16.77v-2.96c-3.73,0-5.4-1.67-5.4-4.56v-14.78c2.25-3.53,5.53-5.4,8.67-5.4,1.8,0,3.41.58,4.56,1.86s1.74,3.15,1.74,5.59v12.72c0,2.89-1.67,4.56-5.4,4.56v2.96h16.51v-2.96c-3.53,0-5.14-1.67-5.14-4.56v-15.16c1.93-3.08,5.2-5.01,8.42-5.01,1.8,0,3.34.51,4.5,1.8,1.22,1.29,1.86,3.21,1.86,5.65v12.72c0,2.89-1.61,4.56-5.14,4.56v2.96h16.51v-2.96c-3.73,0-5.4-1.67-5.4-4.56v-15.04c0-3.15-.9-5.72-2.63-7.52-1.86-1.93-4.75-3.02-7.84-3.02-4.37,0-7.84,2.18-10.34,5.78h-.71c-.39-1.03-.96-1.99-1.73-2.76-1.86-1.93-4.69-3.02-7.78-3.02-4.3,0-7.58,2.06-10.09,5.33Z"/>
    <path class="st1" d="M970.38,214.6c.06-.58.06-1.22.06-1.86,0-7.58-5.27-13.3-12.92-13.3-8.93,0-15.55,7.33-15.55,17.35.06,9.9,6.43,17.03,15.1,17.03,6.49,0,11.31-4.05,14.07-10.67l-2.89-1.35c-2.25,4.24-5.72,6.17-9.77,6.17-6.3,0-10.34-5.91-10.34-13.3v-.06h22.23ZM956.3,203.29c3.92,0,6.81,2.7,7.07,7.45h-14.84c.96-4.5,3.73-7.45,7.77-7.45Z"/>
    <path class="st1" d="M984.58,199.44c-2.89,1.61-6.88,2.76-10.34,3.34v2.96h5.65v19.28c0,2.89-1.67,4.56-5.4,4.56v2.96h16.77v-2.96c-3.73,0-5.4-1.67-5.4-4.56v-14.84c1.8-2.83,4.63-5.33,8.8-5.33,2.12,0,3.73.64,4.88,1.86,1.35,1.35,1.93,3.28,1.93,5.72v12.59c0,2.89-1.67,4.56-5.4,4.56v2.96h16.77v-2.96c-3.73,0-5.4-1.67-5.4-4.56v-14.59c0-3.28-1.03-5.98-2.76-7.84-1.93-1.99-4.88-3.15-8.03-3.15-4.43,0-7.97,2.12-10.28,5.33h-.64l.13-5.33h-1.29Z"/>
    <path class="st1" d="M1021.46,190.38c-1.41,5.4-4.82,9.32-9.06,11.57v2.96h6.04l-.32,16.77v1.09c0,7.2,3.6,11.05,9.38,11.05,5.2,0,8.8-3.53,10.6-9.32l-2.83-1.09c-1.35,3.21-3.47,5.2-6.3,5.2-3.98,0-4.69-3.47-4.75-6.94v-1.03l.06-15.74h12.14v-4.18h-12.02v-10.34h-2.96Z"/>
    <path class="st1" d="M1041.57,240.5v2.76c6.88-.26,12.59-5.01,12.59-11.5,0-4.37-2.96-8.16-6.81-8.16-2.96,0-4.88,2.31-4.88,4.75,0,2.06,1.29,4.18,3.98,4.69,1.73.32,2.51,1.09,2.51,2.31,0,2.51-3.53,4.95-7.39,5.14Z"/>
    <path class="st1" d="M750.95,282.58h-3.53c-2.57,8.22-6.49,11.44-14.01,11.44h-12.85v-17.48h5.27c4.88,0,7.07,1.48,7.07,7.77h3.34v-20.11h-3.34c0,6.36-2.18,7.84-7.07,7.84h-5.27v-17.48h11.44c7.52,0,11.44,3.21,14.01,11.44h3.53l-4.31-15.94h-38.55v3.34c5.78,0,7.13,2.18,7.13,7.07v27.63c0,4.88-1.35,7.07-7.13,7.07v3.34h39.97l4.3-15.94Z"/>
    <path class="st1" d="M770.8,269.35c2.96,0,4.82,1.48,5.33,4.5.45,2.7,1.99,4.18,4.18,4.18,2.38,0,4.05-1.73,4.05-4.18,0-4.82-6.1-8.48-12.59-8.48-8.87,0-16.06,6.81-16.06,17.48.06,9.77,6.43,16.96,15.1,16.96,6.49,0,11.37-4.05,14.07-10.67l-2.89-1.35c-2.18,4.11-5.46,6.1-9.77,6.17-6.17,0-10.41-5.91-10.41-13.43,0-6.43,3.6-11.18,9-11.18Z"/>
    <path class="st1" d="M796.82,249.11c-2.89,1.61-6.88,2.76-10.34,3.34v2.96h5.65v35.6c0,2.89-1.67,4.56-5.4,4.56v2.96h16.77v-2.96c-3.73,0-5.4-1.67-5.4-4.56v-14.84c1.8-2.83,4.63-5.33,8.8-5.33,2.12,0,3.73.64,4.88,1.86,1.35,1.35,1.93,3.28,1.93,5.72v12.59c0,2.89-1.67,4.56-5.4,4.56v2.96h16.77v-2.96c-3.73,0-5.4-1.67-5.4-4.56v-14.59c0-3.28-1.03-5.98-2.76-7.84-1.93-1.99-4.88-3.15-8.03-3.15-4.43,0-7.97,2.12-10.28,5.33h-.64l.13-21.65h-1.29Z"/>
    <path class="st1" d="M826.89,282.52c0,10.15,7.39,17.28,16.19,17.28s16.19-7,16.19-17.28-7.45-17.16-16.19-17.16-16.19,6.81-16.19,17.16ZM852.6,283.42c0,7.33-3.28,12.27-9.12,12.27-6.68,0-9.83-6.75-9.83-13.94s3.34-12.34,9.19-12.34c6.62,0,9.77,7,9.77,14.01Z"/>
    <path class="st1" d="M862.81,306.49v2.76c6.88-.26,12.59-5.01,12.59-11.5,0-4.37-2.96-8.16-6.81-8.16-2.96,0-4.88,2.31-4.88,4.75,0,2.06,1.29,4.18,3.98,4.69,1.73.32,2.51,1.09,2.51,2.31,0,2.51-3.53,4.95-7.39,5.14Z"/>
    <path class="st1" d="M898.54,295.18v3.34h21.01v-3.34c-5.78,0-7.13-2.18-7.13-7.07v-6.94h7.07c4.88,0,7.97-.58,10.41-1.48,6.62-2.51,9.83-8.29,9.83-14.07s-3.21-11.69-9.83-14.07c-2.44-.96-5.46-1.48-10.41-1.48h-20.95v3.34c5.78,0,7.13,2.18,7.13,7.07v27.63c0,4.88-1.35,7.07-7.13,7.07ZM912.42,254.57h5.46c4.63,0,7.58.71,9.32,1.67,3.21,1.86,4.63,5.65,4.63,9.38s-1.41,7.33-4.63,9.38c-1.74.9-4.69,1.67-9.32,1.67h-5.46v-22.1Z"/>
    <path class="st1" d="M964.4,270.31c3.66,0,5.59,1.54,5.59,4.37v14.33c-2.25,3.6-5.59,5.4-8.67,5.4-1.8,0-3.41-.58-4.56-1.86s-1.74-3.15-1.74-5.59v-20.88l-11.57,1.29v2.96c3.66,0,5.59,1.54,5.59,4.37v14.59c0,3.15.9,5.72,2.63,7.52,1.8,1.93,4.63,3.02,7.71,3.02,4.3,0,7.58-2.12,10.09-5.33h.64l-.13,4.82,11.57-.77v-2.96c-3.66.06-5.59-1.54-5.59-4.37v-25.12l-11.57,1.29v2.96Z"/>
    <path class="st1" d="M994.66,249.11c-2.89,1.61-6.88,2.76-10.34,3.34v2.96h5.65v35.6c0,2.89-1.67,4.56-5.4,4.56v2.96h16.77v-2.96c-3.73,0-5.4-1.67-5.4-4.56v-41.89h-1.29Z"/>
    <path class="st1" d="M1019.85,295.88c-4.24,0-8.48-2.89-12.92-9.45h-3.08l3.41,12.72h2.44l1.8-2.44c2.76,2.06,5.91,3.15,8.87,3.15,5.78,0,11.37-3.73,11.37-9.83,0-5.01-3.92-7.9-9.06-9.83l-6.17-2.31c-3.15-1.16-5.2-2.51-5.2-4.82s2.31-3.92,5.33-3.92c3.73,0,7.2,2.25,11.76,8.42l.06.13h3.08l-3.08-11.63h-2.44l-1.61,2.25c-2.51-1.99-5.53-2.96-8.29-2.96-5.85,0-10.92,3.53-10.92,9.06,0,5.01,3.6,7.9,8.74,9.77l6.17,2.25c3.53,1.29,5.46,2.76,5.46,5.14,0,2.63-2.57,4.31-5.72,4.31Z"/>
    <path class="st1" d="M1051.85,299.8c6.49,0,11.31-4.05,14.07-10.67l-2.89-1.35c-2.25,4.24-5.72,6.17-9.77,6.17-6.3,0-10.34-5.91-10.34-13.3v-.06h22.23c.06-.58.06-1.22.06-1.86,0-7.58-5.27-13.3-12.92-13.3-8.93,0-15.55,7.33-15.55,17.35.06,9.9,6.43,17.03,15.1,17.03ZM1051.08,269.28c3.92,0,6.81,2.7,7.07,7.45h-14.84c.96-4.5,3.73-7.45,7.77-7.45Z"/>
    <polygon class="st1" points="1085.04 263.11 1085.04 269.92 1099.37 268.38 1097.76 299.8 1104.83 299.8 1103.16 268.38 1117.49 269.92 1117.49 263.11 1103.29 264.66 1104.77 249.11 1097.76 249.11 1099.24 264.66 1085.04 263.11"/>
    <path class="st1" d="M1121.92,289.59c-2.96,0-4.88,2.31-4.88,4.75,0,2.06,1.29,4.18,3.98,4.69,1.73.32,2.51,1.09,2.51,2.31,0,2.51-3.53,4.95-7.39,5.14v2.76c6.88-.26,12.59-5.01,12.59-11.5,0-4.37-2.96-8.16-6.81-8.16Z"/>
    <path class="st1" d="M778.96,361.17c-5.78,0-7.13-2.18-7.13-7.07v-11.57h6.1c4.88,0,7.07,1.48,7.07,7.77h3.34v-20.11h-3.34c0,6.36-2.18,7.84-7.07,7.84h-6.1v-17.48h12.21c7.52,0,11.44,3.21,14.01,11.44h3.53l-4.3-15.94h-39.32v3.34c5.78,0,7.13,2.18,7.13,7.07v27.63c0,4.88-1.35,7.07-7.13,7.07v3.34h21.01v-3.34Z"/>
    <path class="st1" d="M816.48,337.39h-.64l.13-5.98h-1.29c-2.89,1.61-6.88,2.76-10.34,3.34v2.96h5.65v19.28c0,2.89-1.67,4.56-5.4,4.56v2.96h16.77v-2.96c-3.73,0-5.4-1.67-5.4-4.56v-12.53c0-3.47,1.93-5.59,5.08-5.59,1.29,0,2.57.45,3.86.45,2.25,0,3.92-1.8,3.92-4.05s-1.8-3.86-4.43-3.86c-2.83,0-5.65,1.93-7.9,5.98Z"/>
    <path class="st1" d="M856.51,344.85v-1.41c.06-8.35-5.14-12.02-11.18-12.02s-11.63,3.98-14.78,10.6l2.83,1.73c2.51-4.31,6.36-6.68,10.35-6.68,3.41,0,6.75,1.86,6.75,6.49v2.7l-7.58,1.99c-7.2,1.8-11.12,5.27-11.12,9.9,0,4.11,3.28,7.65,8.16,7.65,3.15,0,7.07-1.41,9.96-5.33h.64l-.06,4.75,10.67-.71v-2.96c-3.34-.26-4.75-1.8-4.75-4.24v-1.29l.13-11.18ZM850.47,354.81c-1.61,3.73-4.5,5.98-7.52,5.98-2.44,0-4.37-1.67-4.37-4.11s1.8-4.18,6.62-5.72l5.27-1.54v5.4Z"/>
    <path class="st1" d="M885.69,333.67c-2.06-.9-4.5-1.48-6.94-1.48-7.97,0-13.62,4.69-13.62,11.5,0,3.6,1.61,6.75,4.69,8.74v.77c-3.53,1.28-5.4,3.28-5.4,5.98,0,2.89,2.25,4.95,5.27,5.4v.77c-4.24,1.67-6.75,3.85-6.75,7.2,0,5.59,6.88,7.71,13.94,7.71,8.67,0,20.18-3.47,20.18-12.21,0-5.59-4.75-8.1-10.15-8.1l-12.85-.06c-2.57,0-4.24-.9-4.24-2.7,0-1.54,1.35-2.25,3.28-3.02,1.67.64,3.6.96,5.72.96,7.77,0,13.37-4.3,13.37-10.92,0-2.7-.9-4.95-2.63-6.55v-.77h8.16v-6.94h-1.41c-3.02,1.54-6.68,2.83-10.6,3.73ZM874.83,365.6h9.96c3.73,0,6.3,1.22,6.3,4.24,0,4.69-6.75,6.49-12.66,6.49-4.82,0-8.74-1.29-8.74-5.14,0-2.89,2.12-4.24,5.14-5.59ZM878.81,351.46c-4.37,0-6.75-3.28-6.75-7.9s2.51-7.77,6.62-7.77,6.68,3.21,6.68,8.03-2.57,7.65-6.55,7.65Z"/>
    <path class="st1" d="M933.49,337.2h-.71c-.39-1.03-.96-1.99-1.73-2.76-1.86-1.93-4.69-3.02-7.78-3.02-4.3,0-7.58,2.06-10.09,5.33h-.64l.06-5.33h-1.29c-2.89,1.61-6.88,2.76-10.34,3.34v2.96h5.65v19.28c0,2.89-1.67,4.56-5.4,4.56v2.96h16.77v-2.96c-3.73,0-5.4-1.67-5.4-4.56v-14.78c2.25-3.53,5.53-5.4,8.67-5.4,1.8,0,3.41.58,4.56,1.86s1.74,3.15,1.74,5.59v12.72c0,2.89-1.67,4.56-5.4,4.56v2.96h16.51v-2.96c-3.53,0-5.14-1.67-5.14-4.56v-15.16c1.93-3.08,5.2-5.01,8.42-5.01,1.8,0,3.34.51,4.5,1.8,1.22,1.29,1.86,3.21,1.86,5.65v12.72c0,2.89-1.61,4.56-5.14,4.56v2.96h16.51v-2.96c-3.73,0-5.4-1.67-5.4-4.56v-15.04c0-3.15-.9-5.72-2.63-7.52-1.86-1.93-4.75-3.02-7.84-3.02-4.37,0-7.84,2.18-10.34,5.78Z"/>
    <path class="st1" d="M990.81,355.13l-2.89-1.35c-2.25,4.24-5.72,6.17-9.77,6.17-6.3,0-10.34-5.91-10.34-13.3v-.06h22.23c.06-.58.06-1.22.06-1.86,0-7.58-5.27-13.3-12.92-13.3-8.93,0-15.55,7.33-15.55,17.35.06,9.9,6.43,17.03,15.1,17.03,6.49,0,11.31-4.05,14.07-10.67ZM975.96,335.27c3.92,0,6.81,2.7,7.07,7.45h-14.84c.96-4.5,3.73-7.45,7.77-7.45Z"/>
    <path class="st1" d="M993.83,337.71h5.65v19.28c0,2.89-1.67,4.56-5.4,4.56v2.96h16.77v-2.96c-3.73,0-5.4-1.67-5.4-4.56v-14.84c1.8-2.83,4.63-5.33,8.8-5.33,2.12,0,3.73.64,4.88,1.86,1.35,1.35,1.93,3.28,1.93,5.72v12.59c0,2.89-1.67,4.56-5.4,4.56v2.96h16.77v-2.96c-3.73,0-5.4-1.67-5.4-4.56v-14.59c0-3.28-1.03-5.98-2.76-7.84-1.93-1.99-4.88-3.15-8.03-3.15-4.43,0-7.97,2.12-10.28,5.33h-.64l.13-5.33h-1.29c-2.89,1.61-6.88,2.76-10.34,3.34v2.96Z"/>
    <path class="st1" d="M1048.57,360.59c-3.98,0-4.69-3.47-4.75-6.94v-1.03l.06-15.74h12.14v-4.18h-12.02v-10.35h-2.96c-1.41,5.4-4.82,9.32-9.06,11.57v2.96h6.04l-.32,16.77v1.09c0,7.2,3.6,11.05,9.38,11.05,5.2,0,8.8-3.53,10.6-9.32l-2.83-1.09c-1.35,3.21-3.47,5.2-6.3,5.2Z"/>
    <path class="st1" d="M1066.95,355.58c-2.96,0-4.88,2.31-4.88,4.75,0,2.06,1.29,4.18,3.98,4.69,1.73.32,2.51,1.09,2.51,2.31,0,2.51-3.53,4.95-7.39,5.14v2.76c6.88-.26,12.59-5.01,12.59-11.5,0-4.37-2.96-8.16-6.81-8.16Z"/>
    <path class="st1" d="M989.57,446.24c2.18,0,4.24-.64,5.91-1.67,2.83-1.73,5.08-4.88,6.81-8.93l12.79-29.75c1.22-2.89,2.96-4.24,5.2-4.24v-2.96h-12.92v2.96l1.29.06c1.73.06,2.7.58,2.7,1.67,0,.45-.13.9-.32,1.41l-7.2,17.22-7.07-16.71c-.39-.96-.51-1.41-.51-1.8,0-.96.84-1.73,2.7-1.8l1.29-.06v-2.96h-15.1v2.96c2.25,0,4.05,1.41,5.27,4.24l10.22,23.71-2.06,4.69c-1.41,3.21-2.63,5.4-4.95,5.4-.96,0-1.8-.45-2.51-1.03-.9-.71-1.8-1.22-3.28-1.22-2.38,0-4.18,1.86-4.18,4.05,0,2.44,2.18,4.75,5.91,4.75Z"/>
    <path class="st1" d="M982.05,418.03l-3.21-1.67c-3.34,5.72-9.38,8.74-15.23,8.74-9.25,0-18.57-7.2-18.57-20.24,0-10.79,6.62-19.47,16.51-19.47,7.77,0,12.4,5.4,16.71,12.59h3.53l-4.37-16.32h-2.83l-1.99,2.7c-3.15-2.18-7-3.28-11.24-3.28-12.66,0-23.77,10.73-23.77,25.77s10.86,24.93,23.71,24.93c9,0,16.32-5.01,20.75-13.75Z"/>
    <path class="st1" d="M1061.25,381.09c-2.89,1.61-6.88,2.76-10.34,3.34v2.96h5.65v35.6c0,2.89-1.67,4.56-5.4,4.56v2.96h16.77v-2.96c-3.73,0-5.4-1.67-5.4-4.56v-41.89h-1.29Z"/>
    <path class="st1" d="M1049.87,421.12l-2.89-1.35c-2.18,4.11-5.46,6.1-9.77,6.17-6.17,0-10.41-5.91-10.41-13.43,0-6.43,3.6-11.18,9-11.18,2.96,0,4.82,1.48,5.33,4.5.45,2.7,1.99,4.18,4.18,4.18,2.38,0,4.05-1.73,4.05-4.18,0-4.82-6.1-8.48-12.59-8.48-8.87,0-16.06,6.81-16.06,17.48.06,9.77,6.43,16.96,15.1,16.96,6.49,0,11.37-4.05,14.07-10.67Z"/>
    <path class="st1" d="M827.13,402.87h6.04l-.32,16.77v1.09c0,7.2,3.6,11.05,9.38,11.05,5.2,0,8.8-3.53,10.6-9.32l-2.83-1.09c-1.35,3.21-3.47,5.2-6.3,5.2-3.98,0-4.69-3.47-4.75-6.94v-1.03l.06-15.74h12.14v-4.18h-12.02v-10.35h-2.96c-1.41,5.4-4.82,9.32-9.06,11.57v2.96Z"/>
    <path class="st1" d="M1107.98,421.57c-2.96,0-4.88,2.31-4.88,4.75,0,2.06,1.29,4.18,3.98,4.69,1.73.32,2.51,1.09,2.51,2.31,0,2.51-3.53,4.95-7.39,5.14v2.76c6.88-.26,12.59-5.01,12.59-11.5,0-4.37-2.96-8.16-6.81-8.16Z"/>
    <path class="st1" d="M792.87,414.5c0-10.15-7.45-17.16-16.19-17.16s-16.19,6.81-16.19,17.16,7.39,17.28,16.19,17.28,16.19-7,16.19-17.28ZM767.23,413.73c0-7.33,3.34-12.34,9.19-12.34,6.62,0,9.77,7,9.77,14.01s-3.28,12.27-9.12,12.27c-6.68,0-9.83-6.75-9.83-13.94Z"/>
    <path class="st1" d="M812.78,427.86c-4.24,0-8.48-2.89-12.92-9.45h-3.08l3.41,12.72h2.44l1.8-2.44c2.76,2.06,5.91,3.15,8.87,3.15,5.78,0,11.37-3.73,11.37-9.83,0-5.01-3.92-7.9-9.06-9.83l-6.17-2.31c-3.15-1.16-5.2-2.51-5.2-4.82s2.31-3.92,5.33-3.92c3.73,0,7.2,2.25,11.76,8.42l.06.13h3.08l-3.08-11.63h-2.44l-1.61,2.25c-2.51-1.99-5.53-2.96-8.29-2.96-5.85,0-10.92,3.53-10.92,9.06,0,5.01,3.6,7.9,8.74,9.77l6.17,2.25c3.53,1.29,5.46,2.76,5.46,5.14,0,2.63-2.57,4.31-5.72,4.31Z"/>
    <path class="st1" d="M1084.61,431.78c6.49,0,11.31-4.05,14.07-10.67l-2.89-1.35c-2.25,4.24-5.72,6.17-9.77,6.17-6.3,0-10.34-5.91-10.34-13.3v-.06h22.23c.06-.58.06-1.22.06-1.86,0-7.58-5.27-13.3-12.92-13.3-8.93,0-15.55,7.33-15.55,17.35.06,9.9,6.43,17.03,15.1,17.03ZM1083.84,401.26c3.92,0,6.81,2.7,7.07,7.45h-14.84c.96-4.5,3.73-7.45,7.77-7.45Z"/>
    <polygon class="st1" points="866.2 414.18 911.37 412.83 899.29 426.06 901.79 428.51 921.9 411.41 921.9 410.26 901.79 393.17 899.29 395.61 911.37 408.84 866.2 407.43 866.2 414.18"/>
    <path class="st1" d="M738.03,427.16c-5.78,0-7.13-2.18-7.13-7.07v-6.94h7.07c4.88,0,7.97-.58,10.41-1.48,6.62-2.51,9.83-8.29,9.83-14.07s-3.21-11.69-9.83-14.07c-2.44-.96-5.46-1.48-10.41-1.48h-20.95v3.34c5.78,0,7.13,2.18,7.13,7.07v27.63c0,4.88-1.35,7.07-7.13,7.07v3.34h21.01v-3.34ZM730.9,386.55h5.46c4.63,0,7.58.71,9.32,1.67,3.21,1.86,4.63,5.65,4.63,9.38s-1.41,7.33-4.63,9.38c-1.73.9-4.69,1.67-9.32,1.67h-5.46v-22.1Z"/>
    <path class="st1" d="M818.29,484.41c1.8-3.66,2.7-7.71,2.7-12.14,0-6.23-1.86-11.89-5.85-16.32-5.65-6.36-13.69-7.9-24.1-7.9h-18.31v3.34c5.78,0,7.13,2.18,7.13,7.07v27.63c0,4.88-1.35,7.07-7.13,7.07v3.34h20.05c14.84,0,21.46-3.86,25.51-12.08ZM786.61,452.54h6.1c7.07,0,12.53,2.12,15.87,6.3,2.96,3.66,4.5,8.22,4.5,13.75,0,4.24-.77,7.9-2.25,10.86-2.83,5.4-8.29,8.55-16.64,8.55h-7.58v-39.45Z"/>
    <path class="st1" d="M863.2,496.49v-2.96c-3.66.06-5.59-1.54-5.59-4.37v-25.12l-11.57,1.29v2.96c3.66,0,5.59,1.54,5.59,4.37v14.33c-2.25,3.6-5.59,5.4-8.67,5.4-1.8,0-3.41-.58-4.56-1.86s-1.74-3.15-1.74-5.59v-20.88l-11.57,1.29v2.96c3.66,0,5.59,1.54,5.59,4.37v14.59c0,3.15.9,5.72,2.63,7.52,1.8,1.93,4.63,3.02,7.71,3.02,4.3,0,7.58-2.12,10.09-5.33h.64l-.13,4.82,11.57-.77Z"/>
    <path class="st1" d="M883.05,470.85c1.29,0,2.57.45,3.86.45,2.25,0,3.92-1.8,3.92-4.05s-1.8-3.85-4.43-3.85c-2.83,0-5.65,1.93-7.9,5.98h-.64l.13-5.98h-1.29c-2.89,1.61-6.88,2.76-10.34,3.34v2.96h5.65v19.28c0,2.89-1.67,4.56-5.4,4.56v2.96h16.77v-2.96c-3.73,0-5.4-1.67-5.4-4.56v-12.53c0-3.47,1.93-5.59,5.08-5.59Z"/>
    <path class="st1" d="M923.15,496.49v-2.96c-3.34-.26-4.75-1.8-4.75-4.24v-1.29l.13-11.18v-1.41c.06-8.35-5.14-12.02-11.18-12.02s-11.63,3.98-14.78,10.6l2.83,1.74c2.51-4.31,6.36-6.68,10.35-6.68,3.41,0,6.75,1.86,6.75,6.49v2.7l-7.58,1.99c-7.2,1.8-11.12,5.27-11.12,9.9,0,4.11,3.28,7.65,8.16,7.65,3.15,0,7.07-1.41,9.96-5.33h.64l-.06,4.75,10.67-.71ZM912.48,486.79c-1.61,3.73-4.5,5.98-7.52,5.98-2.44,0-4.37-1.67-4.37-4.11s1.8-4.18,6.62-5.72l5.27-1.54v5.4Z"/>
    <path class="st1" d="M948.66,488.46l-2.83-1.09c-1.35,3.21-3.47,5.2-6.3,5.2-3.98,0-4.69-3.47-4.75-6.94v-1.03l.06-15.74h12.14v-4.18h-12.02v-10.35h-2.96c-1.41,5.4-4.82,9.32-9.06,11.57v2.96h6.04l-.32,16.77v1.09c0,7.2,3.6,11.05,9.38,11.05,5.2,0,8.8-3.53,10.6-9.32Z"/>
    <path class="st1" d="M950.97,493.53v2.96h16.77v-2.96c-3.73,0-5.4-1.67-5.4-4.56v-25.57h-1.29c-2.89,1.61-6.88,2.76-10.34,3.34v2.96h5.65v19.28c0,2.89-1.67,4.56-5.4,4.56Z"/>
    <path class="st1" d="M964.46,452.54c0-2.7-2.38-5.01-5.2-5.01s-5.14,2.31-5.14,5.01,2.31,5.08,5.14,5.08,5.2-2.31,5.2-5.08Z"/>
    <path class="st1" d="M1002.05,480.49c0-10.15-7.45-17.16-16.19-17.16s-16.19,6.81-16.19,17.16,7.39,17.28,16.19,17.28,16.19-7,16.19-17.28ZM976.41,479.72c0-7.33,3.34-12.34,9.19-12.34,6.62,0,9.77,7,9.77,14.01s-3.28,12.27-9.12,12.27c-6.68,0-9.83-6.75-9.83-13.94Z"/>
    <path class="st1" d="M1026.66,493.53v2.96h16.77v-2.96c-3.73,0-5.4-1.67-5.4-4.56v-14.59c0-3.28-1.03-5.98-2.76-7.84-1.93-1.99-4.88-3.15-8.03-3.15-4.43,0-7.97,2.12-10.28,5.33h-.64l.13-5.33h-1.29c-2.89,1.61-6.88,2.76-10.34,3.34v2.96h5.65v19.28c0,2.89-1.67,4.56-5.4,4.56v2.96h16.77v-2.96c-3.73,0-5.4-1.67-5.4-4.56v-14.84c1.8-2.83,4.63-5.33,8.8-5.33,2.12,0,3.73.64,4.88,1.86,1.35,1.35,1.93,3.28,1.93,5.72v12.59c0,2.89-1.67,4.56-5.4,4.56Z"/>
    <path class="st1" d="M1059.17,495.72c0-4.37-2.96-8.16-6.81-8.16-2.96,0-4.88,2.31-4.88,4.75,0,2.06,1.29,4.18,3.98,4.69,1.73.32,2.51,1.09,2.51,2.31,0,2.51-3.53,4.95-7.39,5.14v2.76c6.88-.26,12.59-5.01,12.59-11.5Z"/>
    <path class="st1" d="M750.05,517.43l2.06-.06v-3.34h-19.79v3.34c3.53,0,5.08,1.35,7.26,6.75l15.87,39.32h4.37l15.87-39.32c2.12-5.33,3.53-6.75,7.26-6.75v-3.34h-17.48v3.34l2.06.06c2.89.06,4.37.9,4.37,2.7,0,.96-.32,2.18-.96,3.73l-12.14,30.39-11.95-30.33c-.58-1.54-.9-2.76-.9-3.73,0-1.86,1.35-2.7,4.11-2.76Z"/>
    <path class="st1" d="M793.48,563.76c8.48,0,16.19-7,16.19-17.28s-7.45-17.16-16.19-17.16-16.19,6.81-16.19,17.16,7.39,17.28,16.19,17.28ZM793.22,533.37c6.62,0,9.77,7,9.77,14.01s-3.28,12.27-9.12,12.27c-6.68,0-9.83-6.75-9.83-13.94s3.34-12.34,9.19-12.34Z"/>
    <path class="st1" d="M812.76,559.52v2.96h16.77v-2.96c-3.73,0-5.4-1.67-5.4-4.56v-41.89h-1.29c-2.89,1.61-6.88,2.76-10.34,3.34v2.96h5.65v35.6c0,2.89-1.67,4.56-5.4,4.56Z"/>
    <path class="st1" d="M843.47,558.3c0-2.76-2.38-5.08-5.21-5.08s-5.14,2.31-5.14,5.08,2.31,5.08,5.14,5.08,5.21-2.31,5.21-5.08Z"/>
    <path class="st1" d="M934.97,517.37h3.66v-3.34h-42.02v3.28l1.8.06c2.38.13,3.53.96,3.53,2.31,0,.96-.64,2.06-1.74,3.47l-8.29,9.96-7.97-10.09c-1.03-1.41-1.61-2.57-1.61-3.28,0-1.22,1.03-2.12,3.21-2.31l1.86-.13v-3.28h-21.08v3.28c3.34.39,6.1,2.18,9.9,6.88l10.99,13.94-11.63,13.88c-3.79,4.5-6.43,6.55-10.6,7.2v3.28h19.21v-3.28l-2.12-.19c-2.18-.19-3.41-1.09-3.41-2.44,0-.9.51-1.86,1.61-3.21l9.9-11.89,9.38,11.89c1.16,1.48,1.74,2.7,1.74,3.6,0,1.22-.96,1.74-3.02,2.06l-2.18.19v3.28h42.54v-3.34h-3.66c-4.63,0-5.4-.64-5.4-5.14v-31.49c0-4.5.77-5.14,5.4-5.14ZM923.02,554c0,4.43-.77,5.14-5.53,5.14h-.96c-3.34-.58-5.53-2.38-9.06-6.68l-12.66-15.94,9.96-11.82c3.73-4.43,6.49-6.81,10.22-7.32h2.51c4.75,0,5.53.71,5.53,5.14v31.49Z"/>
    <rect class="st1" x="947.5" y="535.68" width="31.87" height="5.14"/>
    <path class="st1" d="M1078,517.37h3.66v-3.34h-63.48v3.28l1.8.06c2.38.13,3.53.96,3.53,2.31,0,.96-.64,2.06-1.74,3.47l-8.29,9.96-7.97-10.09c-1.03-1.41-1.61-2.57-1.61-3.28,0-1.22,1.03-2.12,3.21-2.31l1.86-.13v-3.28h-21.08v3.28c3.34.39,6.1,2.18,9.9,6.88l10.99,13.94-11.63,13.88c-3.79,4.5-6.43,6.55-10.6,7.2v3.28h19.21v-3.28l-2.12-.19c-2.18-.19-3.41-1.09-3.41-2.44,0-.9.51-1.86,1.61-3.21l9.9-11.89,9.38,11.89c1.16,1.48,1.74,2.7,1.74,3.6,0,1.22-.96,1.74-3.02,2.06l-2.18.19v3.28h64v-3.34h-3.66c-4.63,0-5.4-.64-5.4-5.14v-31.49c0-4.5.77-5.14,5.4-5.14ZM1044.59,554c0,4.43-.77,5.14-5.53,5.14h-.96c-3.34-.58-5.53-2.38-9.06-6.68l-12.66-15.94,9.96-11.82c3.73-4.43,6.49-6.81,10.22-7.32h2.51c4.75,0,5.53.71,5.53,5.14v31.49ZM1066.05,554c0,4.43-.77,5.14-5.53,5.14h-3.98c-4.63,0-5.4-.64-5.4-5.14v-31.49c0-4.5.77-5.14,5.4-5.14h3.98c4.75,0,5.53.71,5.53,5.14v31.49Z"/>
    <path class="st1" d="M1085.33,570.45v2.76c6.88-.26,12.59-5.01,12.59-11.5,0-4.37-2.96-8.16-6.81-8.16-2.96,0-4.88,2.31-4.88,4.75,0,2.06,1.29,4.18,3.98,4.69,1.73.32,2.51,1.09,2.51,2.31,0,2.51-3.53,4.95-7.39,5.14Z"/>
    <path class="st1" d="M786.8,625.51c-8.16,0-13.69-5.78-19.47-14.65h-3.53l4.82,17.99h2.83l2.89-3.92c3.86,3.21,8.55,4.82,13.3,4.82,8.87,0,16.06-5.53,16-13.88-.06-7.26-5.4-11.5-13.04-14.33l-9.32-3.34c-5.4-1.93-8.29-4.31-8.29-8.03,0-4.43,3.79-7,8.8-7,7.26,0,11.82,4.24,17.73,12.79h3.53l-4.37-16.32h-2.83l-2.63,3.53c-3.6-2.96-7.71-4.11-11.69-4.11-8.55,0-15.42,5.08-15.42,12.98,0,6.81,5.01,10.92,12.34,13.56l9.51,3.41c6.1,2.18,8.74,4.82,8.74,8.67,0,4.69-3.85,7.84-9.89,7.84Z"/>
    <path class="st1" d="M824.39,629.75c6.49,0,11.31-4.05,14.07-10.67l-2.89-1.35c-2.25,4.24-5.72,6.17-9.77,6.17-6.3,0-10.34-5.91-10.34-13.3v-.06h22.23c.06-.58.06-1.22.06-1.86,0-7.58-5.27-13.3-12.92-13.3-8.93,0-15.55,7.32-15.55,17.35.06,9.89,6.43,17.03,15.1,17.03ZM823.62,599.23c3.92,0,6.81,2.7,7.07,7.45h-14.84c.96-4.5,3.73-7.45,7.77-7.45Z"/>
    <path class="st1" d="M861.4,640.29v2.96h16.77v-2.96c-3.73,0-5.4-1.67-5.4-4.56v-40.35h-2.96l-1.99,2.18c-2.83-1.48-5.78-2.18-8.67-2.18-9.32,0-16.26,7.52-16.26,18.18s5.72,16.19,13.24,16.19c4.24,0,7.77-2.12,10.09-5.33h.71l-.06,11.31c-.06,2.89-1.73,4.56-5.46,4.56ZM866.8,618.96c-2.18,3.47-5.27,5.4-8.74,5.4-5.33,0-8.74-4.5-8.74-11.95,0-7.9,3.85-13.17,9.89-13.24,3.02-.06,5.72,1.35,7.58,3.79v16Z"/>
    <path class="st1" d="M903.36,624.42h.64l-.13,4.82,11.57-.77v-2.96c-3.66.06-5.59-1.54-5.59-4.37v-25.12l-11.57,1.29v2.96c3.66,0,5.59,1.54,5.59,4.37v14.33c-2.25,3.6-5.59,5.4-8.67,5.4-1.8,0-3.41-.58-4.56-1.86s-1.74-3.15-1.74-5.59v-20.88l-11.57,1.29v2.96c3.66,0,5.59,1.54,5.59,4.37v14.59c0,3.15.9,5.72,2.63,7.52,1.8,1.93,4.63,3.02,7.71,3.02,4.3,0,7.58-2.12,10.09-5.33Z"/>
    <path class="st1" d="M946.67,619.09l-2.89-1.35c-2.25,4.24-5.72,6.17-9.77,6.17-6.3,0-10.34-5.91-10.34-13.3v-.06h22.23c.06-.58.06-1.22.06-1.86,0-7.58-5.27-13.3-12.92-13.3-8.93,0-15.55,7.32-15.55,17.35.06,9.89,6.43,17.03,15.1,17.03,6.49,0,11.31-4.05,14.07-10.67ZM931.82,599.23c3.92,0,6.81,2.7,7.07,7.45h-14.84c.96-4.5,3.73-7.45,7.77-7.45Z"/>
    <path class="st1" d="M982.97,620.95v-14.59c0-3.28-1.03-5.98-2.76-7.84-1.93-1.99-4.88-3.15-8.03-3.15-4.43,0-7.97,2.12-10.28,5.33h-.64l.13-5.33h-1.29c-2.89,1.61-6.88,2.76-10.34,3.34v2.96h5.65v19.28c0,2.89-1.67,4.56-5.4,4.56v2.96h16.77v-2.96c-3.73,0-5.4-1.67-5.4-4.56v-14.84c1.8-2.83,4.63-5.33,8.8-5.33,2.12,0,3.73.64,4.88,1.86,1.35,1.35,1.93,3.28,1.93,5.72v12.59c0,2.89-1.67,4.56-5.4,4.56v2.96h16.77v-2.96c-3.73,0-5.4-1.67-5.4-4.56Z"/>
    <path class="st1" d="M1005.27,629.75c6.49,0,11.37-4.05,14.07-10.67l-2.89-1.35c-2.18,4.11-5.46,6.1-9.77,6.17-6.17,0-10.41-5.91-10.41-13.43,0-6.43,3.6-11.18,9-11.18,2.96,0,4.82,1.48,5.33,4.5.45,2.7,1.99,4.18,4.18,4.18,2.38,0,4.05-1.74,4.05-4.18,0-4.82-6.1-8.48-12.59-8.48-8.87,0-16.06,6.81-16.06,17.48.06,9.77,6.43,16.96,15.1,16.96Z"/>
    <path class="st1" d="M1051.85,610.54c.06-.58.06-1.22.06-1.86,0-7.58-5.27-13.3-12.92-13.3-8.93,0-15.55,7.32-15.55,17.35.06,9.89,6.43,17.03,15.1,17.03,6.49,0,11.31-4.05,14.07-10.67l-2.89-1.35c-2.25,4.24-5.72,6.17-9.77,6.17-6.3,0-10.34-5.91-10.34-13.3v-.06h22.23ZM1037.78,599.23c3.92,0,6.81,2.7,7.07,7.45h-14.84c.96-4.5,3.73-7.45,7.77-7.45Z"/>
    <path class="st1" d="M1056.67,636.43v2.76c6.88-.26,12.59-5.01,12.59-11.5,0-4.37-2.96-8.16-6.81-8.16-2.96,0-4.88,2.31-4.88,4.75,0,2.06,1.29,4.18,3.98,4.69,1.73.32,2.51,1.09,2.51,2.31,0,2.51-3.53,4.95-7.39,5.14Z"/>
    <path class="st1" d="M753.13,647.49c-2.44-.96-5.46-1.48-10.41-1.48h-20.95v3.34c5.78,0,7.13,2.18,7.13,7.07v27.63c0,4.88-1.35,7.07-7.13,7.07v3.34h21.01v-3.34c-5.78,0-7.13-2.19-7.13-7.07v-6.94h7.07c4.88,0,7.97-.58,10.41-1.48,6.62-2.51,9.83-8.29,9.83-14.07s-3.21-11.69-9.83-14.07ZM750.43,670.94c-1.74.9-4.69,1.67-9.32,1.67h-5.46v-22.1h5.46c4.63,0,7.58.71,9.32,1.67,3.21,1.86,4.63,5.65,4.63,9.38s-1.41,7.33-4.63,9.38Z"/>
    <path class="st1" d="M787.31,661.37c-2.83,0-5.65,1.93-7.9,5.98h-.64l.13-5.98h-1.29c-2.89,1.61-6.88,2.76-10.34,3.34v2.96h5.65v19.28c0,2.89-1.67,4.56-5.4,4.56v2.96h16.77v-2.96c-3.73,0-5.4-1.67-5.4-4.56v-12.53c0-3.47,1.93-5.59,5.08-5.59,1.29,0,2.57.45,3.86.45,2.25,0,3.92-1.8,3.92-4.05s-1.8-3.85-4.43-3.85Z"/>
    <path class="st1" d="M809.87,661.3c-8.55,0-16.19,6.81-16.19,17.16s7.39,17.28,16.19,17.28,16.19-7,16.19-17.28-7.45-17.16-16.19-17.16ZM810.25,691.63c-6.68,0-9.83-6.75-9.83-13.94s3.34-12.34,9.19-12.34c6.62,0,9.77,7,9.77,14.01s-3.28,12.27-9.12,12.27Z"/>
    <path class="st1" d="M851.63,663.62c-2.06-.9-4.5-1.48-6.94-1.48-7.97,0-13.62,4.69-13.62,11.5,0,3.6,1.61,6.75,4.69,8.74v.77c-3.53,1.29-5.4,3.28-5.4,5.98,0,2.89,2.25,4.95,5.27,5.4v.77c-4.24,1.67-6.75,3.86-6.75,7.2,0,5.59,6.88,7.71,13.94,7.71,8.67,0,20.18-3.47,20.18-12.21,0-5.59-4.75-8.1-10.15-8.1l-12.85-.06c-2.57,0-4.24-.9-4.24-2.7,0-1.54,1.35-2.25,3.28-3.02,1.67.64,3.6.96,5.72.96,7.77,0,13.37-4.31,13.37-10.92,0-2.7-.9-4.95-2.63-6.55v-.77h8.16v-6.94h-1.41c-3.02,1.54-6.68,2.83-10.6,3.73ZM840.77,695.55h9.96c3.73,0,6.3,1.22,6.3,4.24,0,4.69-6.75,6.49-12.66,6.49-4.82,0-8.74-1.29-8.74-5.14,0-2.89,2.12-4.24,5.14-5.59ZM844.76,681.41c-4.37,0-6.75-3.28-6.75-7.9s2.51-7.77,6.62-7.77,6.68,3.21,6.68,8.03-2.57,7.65-6.55,7.65Z"/>
    <path class="st1" d="M887.1,661.37c-2.83,0-5.65,1.93-7.9,5.98h-.64l.13-5.98h-1.29c-2.89,1.61-6.88,2.76-10.34,3.34v2.96h5.65v19.28c0,2.89-1.67,4.56-5.4,4.56v2.96h16.77v-2.96c-3.73,0-5.4-1.67-5.4-4.56v-12.53c0-3.47,1.93-5.59,5.08-5.59,1.29,0,2.57.45,3.86.45,2.25,0,3.92-1.8,3.92-4.05s-1.8-3.85-4.43-3.85Z"/>
    <path class="st1" d="M910.1,689.89c-6.3,0-10.34-5.91-10.34-13.3v-.06h22.23c.06-.58.06-1.22.06-1.86,0-7.58-5.27-13.3-12.92-13.3-8.93,0-15.55,7.32-15.55,17.35.06,9.89,6.43,17.03,15.1,17.03,6.49,0,11.31-4.05,14.07-10.67l-2.89-1.35c-2.25,4.24-5.72,6.17-9.77,6.17ZM907.92,665.22c3.92,0,6.81,2.7,7.07,7.45h-14.84c.96-4.5,3.73-7.45,7.77-7.45Z"/>
    <path class="st1" d="M945.96,676.14l-6.17-2.31c-3.15-1.16-5.2-2.51-5.2-4.82s2.31-3.92,5.33-3.92c3.73,0,7.2,2.25,11.76,8.42l.06.13h3.08l-3.08-11.63h-2.44l-1.61,2.25c-2.51-1.99-5.53-2.96-8.29-2.96-5.85,0-10.92,3.53-10.92,9.06,0,5.01,3.6,7.9,8.74,9.77l6.17,2.25c3.53,1.29,5.46,2.76,5.46,5.14,0,2.63-2.57,4.3-5.72,4.3-4.24,0-8.48-2.89-12.92-9.45h-3.08l3.41,12.72h2.44l1.8-2.44c2.76,2.06,5.91,3.15,8.87,3.15,5.78,0,11.37-3.73,11.37-9.83,0-5.01-3.92-7.9-9.06-9.83Z"/>
    <path class="st1" d="M978.79,676.14l-6.17-2.31c-3.15-1.16-5.2-2.51-5.2-4.82s2.31-3.92,5.33-3.92c3.73,0,7.2,2.25,11.76,8.42l.06.13h3.08l-3.08-11.63h-2.44l-1.61,2.25c-2.51-1.99-5.53-2.96-8.29-2.96-5.85,0-10.92,3.53-10.92,9.06,0,5.01,3.6,7.9,8.74,9.77l6.17,2.25c3.53,1.29,5.46,2.76,5.46,5.14,0,2.63-2.57,4.3-5.72,4.3-4.24,0-8.48-2.89-12.92-9.45h-3.08l3.41,12.72h2.44l1.8-2.44c2.76,2.06,5.91,3.15,8.87,3.15,5.78,0,11.37-3.73,11.37-9.83,0-5.01-3.92-7.9-9.06-9.83Z"/>
    <path class="st1" d="M994.79,650.51c0,2.76,2.31,5.08,5.14,5.08s5.2-2.31,5.2-5.08-2.38-5.01-5.2-5.01-5.14,2.31-5.14,5.01Z"/>
    <path class="st1" d="M1003.01,686.94v-25.57h-1.29c-2.89,1.61-6.88,2.76-10.34,3.34v2.96h5.65v19.28c0,2.89-1.67,4.56-5.4,4.56v2.96h16.77v-2.96c-3.73,0-5.4-1.67-5.4-4.56Z"/>
    <path class="st1" d="M1026.6,661.3c-8.55,0-16.19,6.81-16.19,17.16s7.39,17.28,16.19,17.28,16.19-7,16.19-17.28-7.45-17.16-16.19-17.16ZM1026.98,691.63c-6.68,0-9.83-6.75-9.83-13.94s3.34-12.34,9.19-12.34c6.62,0,9.77,7,9.77,14.01s-3.28,12.27-9.12,12.27Z"/>
    <path class="st1" d="M1078.9,686.94v-14.59c0-3.28-1.03-5.98-2.76-7.84-1.93-1.99-4.88-3.15-8.03-3.15-4.43,0-7.97,2.12-10.28,5.33h-.64l.13-5.33h-1.29c-2.89,1.61-6.88,2.76-10.34,3.34v2.96h5.65v19.28c0,2.89-1.67,4.56-5.4,4.56v2.96h16.77v-2.96c-3.73,0-5.4-1.67-5.4-4.56v-14.84c1.8-2.83,4.63-5.33,8.8-5.33,2.12,0,3.73.64,4.88,1.86,1.35,1.35,1.93,3.28,1.93,5.72v12.59c0,2.89-1.67,4.56-5.4,4.56v2.96h16.77v-2.96c-3.73,0-5.4-1.67-5.4-4.56Z"/>
    <polygon class="st1" points="1110.51 657.19 1108.52 650.96 1099.14 656.03 1098.43 655.52 1100.36 645.04 1093.81 645.04 1095.73 655.52 1095.09 655.97 1094.9 656.1 1085.58 651.02 1083.53 657.25 1094.13 658.67 1094.45 659.57 1086.74 666.89 1092.07 670.75 1096.7 661.11 1097.02 661.11 1097.6 661.11 1102.16 670.68 1107.49 666.83 1099.78 659.5 1100.1 658.6 1110.51 657.19"/>
  </g>
</svg>