<?xml version="1.0" encoding="UTF-8"?>
<svg id="Layer_1" xmlns="http://www.w3.org/2000/svg" xmlns:xlink="http://www.w3.org/1999/xlink" version="1.1" viewBox="0 0 1280 800">
  <!-- Generator: Adobe Illustrator 29.8.2, SVG Export Plug-In . SVG Version: 2.1.1 Build 3)  -->
  <defs>
    <style>
      .st0 {
        fill: none;
      }

      .st1 {
        fill: #fbfbfb;
      }

      .st2 {
        clip-path: url(#clippath);
      }
    </style>
    <clipPath id="clippath">
      <rect class="st0" width="1280" height="800"/>
    </clipPath>
  </defs>
  <rect class="st1" width="1280" height="800"/>
  <g class="st2">
    <path d="M1164.23,679.73c0-3.71,2.82-6.53,9.6-8.7l5.5-1.79.13,10.75c-2.3,3.71-5.63,5.76-8.96,5.76s-6.27-2.18-6.27-6.02M1179.71,699.18l27.78-1.54v-9.73c-6.91-.26-8.32-1.41-8.32-7.3v-2.82l.26-17.79v-3.33c.13-16.64-11.39-26.37-26.24-26.37s-26.24,8.58-32.26,22.91l8.32,5.38c4.99-7.17,11.52-11.39,18.18-11.39,5.63,0,11.9,3.2,11.9,10.75v2.69l-14.98,3.46c-13.82,3.07-21.5,10.24-21.5,19.71s7.3,16.38,17.54,16.38c6.53,0,13.57-2.94,18.18-9.86h1.28l-.13,8.83ZM1071.71,650.67l19.07,47.49h18.94l18.82-46.72c2.94-7.55,4.86-8.7,9.86-8.7v-9.86h-29.06v9.86h3.2c2.18,0,3.58.9,3.58,2.69,0,1.02-.51,2.3-1.28,4.22l-11.01,27.9-10.75-27.52c-.77-2.3-1.28-3.33-1.28-4.48,0-1.54,1.15-2.82,3.46-2.82h2.82v-9.86h-35.97v9.86c4.99,0,6.78,1.15,9.6,7.94M1024.91,687.66c-9.09,0-13.57-8.83-13.57-23.04s4.35-21.76,13.06-21.76,13.57,9.09,13.57,23.04-4.48,21.76-13.06,21.76M1024.65,700.21c19.71,0,34.82-14.08,34.82-34.69s-14.59-35.2-34.94-35.2-34.82,13.44-34.82,34.69,14.34,35.2,34.94,35.2M959.67,698.16h18.69v-74.62c0-10.24.77-11.52,12.54-11.52v-10.88h-40.19v10.88c11.78,0,12.54,1.28,12.54,11.52v44.03l-49.02-66.43h-33.92v10.88c11.78,0,12.67,1.28,12.67,11.52v51.71c0,10.24-.9,11.52-12.67,11.52v10.88h40.32v-10.88c-11.78,0-12.67-1.28-12.67-11.52v-47.23l51.71,70.14ZM854.1,623.02c7.55,0,13.82-6.14,13.82-13.57s-6.27-13.31-13.82-13.31-13.95,6.14-13.95,13.31,6.27,13.57,13.95,13.57M834.9,697.65h39.04v-9.73c-8.58,0-9.6-1.02-9.6-8.7v-48.9h-2.56c-7.55,2.56-19.07,5.25-27.78,7.04v9.73h10.62v32.13c0,7.68-1.02,8.7-9.73,8.7v9.73ZM748.77,697.65h36.86v-9.73c-7.55,0-8.32-1.02-8.32-8.7v-25.98c3.2-4.48,7.94-6.91,12.16-6.91,2.94,0,5.5,1.02,7.3,3.33,1.79,2.05,2.69,5.12,2.69,9.47v20.1c0,7.68-.77,8.7-8.32,8.7v9.73h37.89v-9.73c-8.83,0-9.73-1.02-9.73-8.7v-24.06c0-7.68-2.18-13.7-6.14-17.79-3.97-4.48-10.11-7.04-16.9-7.04-8.7,0-15.62,3.97-20.22,10.62h-1.28c-.64-1.15-1.54-2.3-2.43-3.33-4.1-4.61-10.37-7.3-17.28-7.3-8.06,0-14.85,3.71-19.33,9.98h-1.28l.26-9.98h-2.56c-7.55,2.56-19.07,5.25-27.78,7.04v9.73h10.62v32.13c0,7.68-1.02,8.7-9.73,8.7v9.73h38.27v-9.73c-7.94,0-8.83-1.02-8.83-8.7v-24.96c3.46-5.38,8.32-7.94,12.8-7.94,2.94,0,5.63,1.02,7.42,3.33,1.66,2.05,2.56,5.12,2.56,9.47v20.1c0,7.68-.77,8.7-8.7,8.7v9.73ZM649.23,700.21c8.06,0,14.59-3.71,18.82-9.86h1.28l-.26,8.96,30.34-1.66v-9.73c-9.47-.13-10.62-1.02-10.62-8.19v-48.13l-30.34,2.56v9.86c9.47,0,10.62,1.02,10.62,8.19v24.19c-3.46,5.38-8.32,7.94-12.8,7.94-2.94,0-5.63-1.15-7.3-3.33-1.79-2.18-2.69-5.25-2.69-9.6v-39.81l-30.34,2.56v9.86c9.47,0,10.62,1.02,10.62,8.19v23.3c0,7.68,2.05,13.57,6.02,17.66,3.97,4.48,9.98,7.04,16.64,7.04M603.83,697.65l10.75-40.06h-12.16c-6.02,19.2-14.98,26.37-33.92,26.37h-11.52v-60.42c0-10.24.77-11.52,12.54-11.52v-10.88h-46.34v10.88c11.78,0,12.67,1.28,12.67,11.52v51.71c0,10.24-.9,11.52-12.67,11.52v10.88h80.64ZM516.59,650.03h-40.96v16.9h40.96v-16.9ZM410.41,697.65h39.3v-9.73c-8.83,0-9.86-1.02-9.86-8.7v-18.82c0-5.5,3.84-8.7,8.7-8.7,3.71,0,6.14.9,9.6.9,6.27,0,11.52-5.12,11.52-11.26s-5.38-10.88-11.78-10.88c-7.3,0-13.18,4.61-17.02,13.06h-1.28l.26-13.18h-2.56c-7.55,2.56-19.07,5.25-27.78,7.04v9.73h10.62v32.13c0,7.68-1.02,8.7-9.73,8.7v9.73ZM360.1,653.61c1.41-7.17,5.63-11.39,11.78-11.39s10.5,4.48,10.62,11.39h-22.4ZM373.03,700.21c14.98,0,25.22-9.73,30.21-22.91l-9.22-4.22c-3.71,6.91-9.86,9.98-16.38,9.98-9.6,0-16.51-7.68-17.92-18.56h42.24c.51-2.05.77-4.22.77-6.4,0-13.95-9.98-27.78-28.8-27.78s-33.79,14.85-33.79,35.33c.13,19.58,14.21,34.56,32.9,34.56M284.64,683.44v-29.06c3.33-5.12,8.32-8.06,13.31-8.06,8.96,0,12.8,9.22,12.8,20.48s-4.22,21.5-14.59,21.5c-4.35,0-8.45-1.79-11.52-4.86M255.2,727.09h39.3v-9.73c-8.83,0-9.86-1.02-9.86-8.7v-10.24c4.1,1.15,8.19,1.79,12.16,1.79,19.58,0,35.07-14.21,35.07-37.25,0-21.38-12.8-32.64-27.01-32.64-8.19,0-15.1,3.71-19.2,9.98h-1.28l.26-9.98h-2.56c-7.55,2.56-19.07,5.25-27.78,7.04v9.73h10.62v61.57c0,7.68-1.02,8.7-9.73,8.7v9.73ZM204.33,700.21c8.06,0,14.59-3.71,18.82-9.86h1.28l-.26,8.96,30.34-1.66v-9.73c-9.47-.13-10.62-1.02-10.62-8.19v-48.13l-30.34,2.56v9.86c9.47,0,10.62,1.02,10.62,8.19v24.19c-3.46,5.38-8.32,7.94-12.8,7.94-2.94,0-5.63-1.15-7.3-3.33-1.79-2.18-2.69-5.25-2.69-9.6v-39.81l-30.34,2.56v9.86c9.47,0,10.62,1.02,10.62,8.19v23.3c0,7.68,2.05,13.57,6.02,17.66,3.97,4.48,9.98,7.04,16.64,7.04M129.47,700.21c17.79,0,33.92-10.88,33.79-28.67,0-15.87-11.26-24.19-27.26-30.34l-18.05-6.78c-8.96-3.2-14.21-6.27-14.21-12.29s5.63-9.6,13.31-9.6c12.67,0,22.14,8.06,34.05,24.06h12.16l-9.47-35.71h-9.73l-4.99,6.66c-7.04-5.89-16-8.32-24.58-8.32-18.05,0-33.02,9.98-33.02,27.26,0,15.62,11.14,23.81,27.01,29.7l17.92,6.78c9.86,3.58,14.59,7.17,14.59,13.06,0,6.53-5.89,10.5-14.46,10.5-14.21,0-26.5-11.39-38.14-28.93h-12.16l10.88,40.32h9.6l5.5-7.42c8.45,6.53,17.79,9.73,27.26,9.73"/>
    <path d="M1117.38,569.65h39.42l1.79-9.73c-8.19-.13-9.34-.64-7.94-8.32l4.86-25.98c4.61-5.25,9.73-7.68,14.34-7.68,5.5,0,9.09,3.58,9.09,9.86,0,1.28-.26,2.82-.51,4.48l-3.58,18.94c-1.41,7.81-2.3,8.7-10.62,8.7l-1.66,9.73h38.78l1.79-9.73c-8.58-.13-9.6-.64-8.19-8.19l3.97-21.63c.51-2.43.77-4.61.77-6.78,0-12.93-9.47-20.99-20.86-20.99-7.55,0-14.59,3.58-19.84,9.98h-1.28l2.18-9.98-2.56.13c-8.19,2.43-20.22,5.12-29.44,6.78l-1.92,9.86h10.62l-5.89,32.13c-1.54,7.81-2.43,8.7-11.39,8.7l-1.92,9.73ZM1078.34,559.66c-6.53,0-10.37-4.86-10.37-14.34,0-11.14,4.61-30.46,16.77-30.46,6.66,0,10.5,5.12,10.5,14.98s-4.61,29.82-16.9,29.82M1077.7,572.21c24.83,0,39.04-21.25,39.04-39.94s-14.34-29.95-31.49-29.95c-23.68,0-38.78,19.97-38.78,39.94s13.95,29.95,31.23,29.95M996.48,569.65h39.68l1.79-9.73c-8.45-.13-9.6-.64-8.19-8.19l14.98-80.51h-2.56c-8.19,2.43-20.22,5.25-29.31,6.91l-1.92,9.73h10.62l-11.9,63.36c-1.41,7.81-2.43,8.7-11.39,8.7l-1.79,9.73ZM950.79,569.65h39.68l1.79-9.73c-8.45-.13-9.6-.64-8.19-8.19l14.98-80.51h-2.56c-8.19,2.43-20.22,5.25-29.31,6.91l-1.92,9.73h10.62l-11.9,63.36c-1.41,7.81-2.43,8.7-11.39,8.7l-1.79,9.73ZM940.66,495.02c7.55,0,13.82-6.14,13.82-13.57s-6.27-13.31-13.82-13.31-13.95,6.14-13.95,13.31,6.27,13.57,13.95,13.57M904.95,569.65h39.68l1.92-9.73c-8.58-.13-9.73-.64-8.32-8.32l9.22-49.28-2.56.13c-8.19,2.43-20.22,5.12-29.44,6.78l-1.92,9.86h10.62l-5.89,32.13c-1.54,7.81-2.43,8.7-11.39,8.7l-1.92,9.73ZM852.85,553.9l5.25-28.29c3.71-4.1,8.19-7.3,13.57-7.3,7.68,0,10.75,6.53,10.75,14.46,0,9.98-5.12,27.26-18.17,27.26-4.74,0-8.58-2.3-11.39-6.14M866.04,572.21c24.32,0,37.89-22.66,37.89-42.62,0-14.85-7.81-27.26-22.53-27.26-7.68,0-14.21,3.46-19.84,9.98h-1.15l7.94-41.09-2.56.13c-8.19,2.43-20.22,5.12-29.44,6.78l-1.79,9.73h10.62l-12.8,68.22h-.13c8.7,10.24,20.99,16.13,33.79,16.13M760.76,569.65h39.68l1.92-9.73c-8.58-.13-9.73-.64-8.32-8.32l3.46-18.43c1.02-5.25,5.38-9.47,10.75-9.47,3.71,0,6.02.9,10.11.9,7.94,0,12.29-6.02,12.29-11.52s-4.86-10.75-11.01-10.75c-7.68,0-13.82,5.38-17.66,12.8h-1.41l2.69-12.8-2.56.13c-8.19,2.43-20.22,5.12-29.44,6.78l-1.92,9.86h10.62l-5.89,32.13c-1.54,7.81-2.43,8.7-11.39,8.7l-1.92,9.73ZM703.6,572.21c7.3,0,14.21-3.33,20.1-9.86h1.28l-1.92,8.83,30.72-1.54,1.92-9.73c-9.09.13-10.37-1.02-9.09-7.81l8.96-48.51-31.1,2.56-1.79,9.86c9.6,0,10.5.9,9.09,8.58l-4.48,23.81c-4.22,5.63-9.22,8.32-13.82,8.32-5.25,0-8.58-3.46-8.58-8.96l.51-4.61,7.42-39.55-31.1,2.56-1.79,9.86c9.6,0,10.5.9,8.96,8.58l-4.22,22.66c-.26,1.79-.51,3.71-.51,5.25-.13,12.29,8.58,19.71,19.46,19.71M633.77,559.66c-6.53,0-10.37-4.86-10.37-14.34,0-11.14,4.61-30.46,16.77-30.46,6.66,0,10.5,5.12,10.5,14.98s-4.61,29.82-16.9,29.82M633.13,572.21c24.83,0,39.04-21.25,39.04-39.94s-14.34-29.95-31.49-29.95c-23.68,0-38.78,19.97-38.78,39.94s13.95,29.95,31.23,29.95M519.21,569.65h50.69l2.18-10.88c-13.31,0-14.46-.9-12.54-11.14l11.39-60.8c16.26.13,20.99,5.25,21.76,21.76h12.03v-35.46h-84.22l-12.8,35.46h12.54c7.17-15.49,13.95-21.38,29.31-21.76l-11.39,60.54c-1.92,10.24-3.46,11.39-16.77,11.39l-2.18,10.88ZM406.95,569.65h51.84l9.6-27.26h-10.24c-3.71,9.09-7.94,11.39-17.28,11.39h-11.26l41.6-35.97v-12.93h-52.1l-9.86,27.26h10.24c3.71-9.09,8.06-11.26,17.28-11.26h11.39l-41.22,35.84v12.93ZM285.36,569.65h46.59l1.92-10.88c-11.52,0-12.42-.9-10.5-11.14l3.84-20.22h42.24l-3.71,19.97c-1.92,10.24-3.33,11.39-14.72,11.39l-1.92,10.88h46.59l1.92-10.88c-11.52,0-12.42-.9-10.5-11.14l9.86-52.22c1.92-10.24,3.33-11.39,14.72-11.39l1.92-10.88h-46.59l-1.92,10.88c11.52,0,12.29.9,10.37,11.14l-3.46,18.82h-42.24l3.46-18.56c1.92-10.24,3.33-11.39,14.72-11.39l1.92-10.88h-46.59l-1.92,10.88c11.52,0,12.29.9,10.37,11.14l-9.73,52.22c-1.92,10.24-3.33,11.39-14.72,11.39l-1.92,10.88ZM210.6,558.51c-7.42,0-12.03-5.5-12.03-18.43,0-10.37,4.99-55.3,24.32-55.3,7.42,0,12.03,5.38,12.03,18.3,0,10.5-5.12,55.42-24.32,55.42M209.7,572.21c37.76,0,48.13-44.67,48.13-62.85,0-25.09-14.46-38.14-33.79-38.14-37.89,0-48.26,44.42-48.26,62.98,0,24.96,14.46,38.02,33.92,38.02M83.52,569.65h68.74l11.39-31.87h-11.14c-4.74,11.26-8.96,13.7-20.74,13.7h-18.18l14.98-9.09c11.14-6.66,19.2-12.93,24.45-18.82,6.27-7.04,9.73-14.98,9.73-23.42,0-16.9-13.7-29.06-30.08-29.06-15.49,0-29.31,10.75-40.19,26.11l8.58,7.42c7.55-8.32,15.87-14.08,24.06-14.08s14.46,5.5,14.46,13.95c0,5.12-2.18,10.62-7.55,16.51-4.35,5.12-10.5,10.11-18.94,16.38l-29.57,21.5v10.75Z"/>
    <path d="M1178.3,444.21c13.19,0,25.6-7.81,25.34-21.25-.13-10.75-8.96-16.77-19.84-20.74l-12.42-4.61c-4.73-1.79-8.19-3.33-8.32-6.78-.13-3.46,3.33-5.25,7.42-5.25,7.68-.13,14.34,4.86,22.79,14.72h10.24l-6.53-24.7h-8.19l-3.2,4.48c-5.12-3.97-11.65-5.76-17.92-5.76-13.31,0-24.83,7.3-24.7,20.1.13,10.88,8.32,17.02,19.84,21.25l12.29,4.48c5.25,1.92,8.32,3.71,8.32,7.17.13,3.46-3.71,5.5-8.06,5.5-8.19,0-16.51-6.53-24.7-16.9h-10.24l7.17,27.01h8.06l3.71-4.99c5.89,4.22,12.42,6.27,18.94,6.27M1108.9,441.65h27.52v-9.73c-1.66-.77-6.4-3.97-12.29-7.94l-23.68-16,19.33-14.21c7.04-5.25,10.37-6.78,14.98-7.04v-9.86h-39.55v9.86h1.28c2.94,0,5.25,1.02,5.25,3.58,0,1.92-1.28,3.84-3.97,6.14l-13.57,10.5v-63.74h-2.56c-7.68,2.43-19.2,5.25-27.9,6.91v9.73h10.62v63.36c0,7.68-1.02,8.7-9.73,8.7v9.73h36.22v-9.73c-6.02,0-6.66-1.02-6.66-8.7v-14.59l24.7,33.02ZM1019.59,444.21c14.98,0,25.34-9.73,30.21-22.91l-9.22-4.22c-3.46,6.14-9.09,9.73-16.13,9.73-10.75,0-18.18-9.73-18.18-22.53,0-10.5,5.25-17.41,13.06-17.41,4.86,0,7.94,3.2,8.7,8.19,1.15,6.02,4.99,9.86,10.62,9.86,6.4,0,10.75-4.74,10.75-11.01,0-11.39-14.08-19.58-28.54-19.58-19.2,0-34.18,14.46-34.18,35.33.13,19.46,14.21,34.56,32.9,34.56M962.9,367.02c7.55,0,13.82-6.14,13.82-13.57s-6.27-13.31-13.82-13.31-13.95,6.14-13.95,13.31,6.27,13.57,13.95,13.57M943.7,441.65h39.04v-9.73c-8.58,0-9.6-1.02-9.6-8.7v-48.9h-2.56c-7.55,2.56-19.07,5.25-27.78,7.04v9.73h10.62v32.13c0,7.68-1.02,8.7-9.73,8.7v9.73ZM898.14,441.65h39.3v-9.73c-8.83,0-9.73-1.02-9.73-8.7v-80h-2.56c-7.68,2.43-19.2,5.25-27.9,6.91v9.73h10.62v63.36c0,7.68-1.02,8.7-9.73,8.7v9.73ZM863.1,444.21c14.98,0,25.34-9.73,30.21-22.91l-9.22-4.22c-3.46,6.14-9.09,9.73-16.13,9.73-10.75,0-18.18-9.73-18.18-22.53,0-10.5,5.25-17.41,13.06-17.41,4.86,0,7.94,3.2,8.7,8.19,1.15,6.02,4.99,9.86,10.62,9.86,6.4,0,10.75-4.74,10.75-11.01,0-11.39-14.08-19.58-28.54-19.58-19.2,0-34.18,14.46-34.18,35.33.13,19.46,14.21,34.56,32.9,34.56M817.33,394.03h-45.06v16.9h45.06v-16.9ZM716.4,430.38c-11.26,0-16-12.54-16-36.99s4.61-36.48,15.87-36.48,15.87,12.42,15.87,36.99-4.74,36.48-15.74,36.48M716.4,444.21c24.06,0,39.55-19.71,39.55-50.56s-15.49-50.43-39.68-50.43-39.68,19.71-39.68,50.43,15.74,50.56,39.81,50.56M627.57,430.51c-8.58,0-14.59-7.42-14.59-19.58,0-11.26,5.76-18.94,14.46-18.94s14.34,7.55,14.34,19.33-4.86,19.2-14.21,19.2M627.7,444.21c22.02,0,38.4-14.46,38.4-34.94s-14.98-31.23-31.1-31.23c-8.32,0-15.87,2.94-20.99,8.96l-.9-.38c4.61-19.71,23.55-30.72,48.38-28.93l.13-12.16c-38.78-4.74-72.83,18.05-72.83,57.47,0,23.94,15.1,41.22,38.91,41.22M525.22,441.65h59.26v-10.88h-7.3c-9.6,0-9.98-.38-9.98-10.37v-76.54h-11.14l-36.86,30.34,8.06,10.11,18.94-15.62v51.71c0,9.98-.51,10.37-10.37,10.37h-10.62v10.88ZM466.81,401.58c7.68,0,13.95-6.14,13.95-13.57s-6.27-13.31-13.95-13.31-13.82,6.14-13.82,13.31,6.27,13.57,13.82,13.57M466.81,443.95c7.68,0,13.95-6.14,13.95-13.57s-6.27-13.31-13.95-13.31-13.82,6.14-13.82,13.31,6.27,13.57,13.82,13.57M391.93,441.65h39.3v-9.73c-8.83,0-9.73-1.02-9.73-8.7v-80h-2.56c-7.68,2.43-19.2,5.25-27.9,6.91v9.73h10.62v63.36c0,7.68-1.02,8.7-9.73,8.7v9.73ZM343.79,397.61c1.41-7.17,5.63-11.39,11.78-11.39s10.5,4.48,10.62,11.39h-22.4ZM356.72,444.21c14.98,0,25.22-9.73,30.21-22.91l-9.22-4.22c-3.71,6.91-9.86,9.98-16.38,9.98-9.6,0-16.51-7.68-17.92-18.56h42.24c.51-2.05.77-4.22.77-6.4,0-13.95-9.98-27.78-28.8-27.78s-33.79,14.85-33.79,35.33c.13,19.58,14.21,34.56,32.9,34.56M257.17,441.65h51.84l7.17-27.14h-10.24c-3.07,9.09-7.04,11.26-16.38,11.26h-10.88l34.56-35.97v-12.93h-52.74l-7.17,27.26h10.24c3.07-9.09,7.04-11.39,16.26-11.39h11.9l-34.56,35.97v12.93ZM202.55,397.61c1.41-7.17,5.63-11.39,11.78-11.39s10.5,4.48,10.62,11.39h-22.4ZM215.47,444.21c14.98,0,25.22-9.73,30.21-22.91l-9.22-4.22c-3.71,6.91-9.86,9.98-16.38,9.98-9.6,0-16.51-7.68-17.92-18.56h42.24c.51-2.05.77-4.22.77-6.4,0-13.95-9.98-27.78-28.8-27.78s-33.79,14.85-33.79,35.33c.13,19.58,14.21,34.56,32.9,34.56M116.29,384.69v-26.24h11.26c6.4,0,10.5,1.28,13.18,3.46,2.69,2.3,4.1,5.5,4.1,9.34,0,4.1-1.41,7.3-4.22,9.73-2.69,2.43-6.78,3.71-13.06,3.71h-11.26ZM130.49,428.33h-14.21v-30.34h12.93c7.04,0,11.9,1.54,15.23,4.35,2.94,2.69,4.61,6.4,4.61,11.01,0,4.1-1.41,7.81-3.97,10.5-3.46,3.33-8.45,4.48-14.59,4.48M133.44,441.65c14.34,0,23.3-2.43,29.7-7.3,6.14-4.74,9.73-11.26,9.73-19.46,0-14.72-11.78-22.27-25.6-23.42v-1.28c11.39-1.54,20.86-8.83,20.74-20.86,0-7.81-3.46-13.82-9.22-17.79-6.4-4.74-15.23-6.4-27.65-6.4h-48.64v10.88c11.78,0,12.67,1.28,12.67,11.52v51.71c0,10.24-.9,11.52-12.67,11.52v10.88h50.94Z"/>
    <path d="M1140.67,273.97l20.1-34.69,6.91,34.69h-27.01ZM1192.77,291.5l-15.62-74.88h-19.84l-43.65,75.26c-5.25,8.96-8.32,10.88-15.74,10.88l-1.92,10.88h39.81l1.92-10.88h-5.25c-3.33-.13-5.25-1.02-5.25-3.33,0-1.41.77-3.33,2.43-6.4l3.46-6.02h37.12l.9,4.48c.26,1.41.64,3.58.64,4.99,0,4.1-2.3,6.14-6.78,6.27h-6.02l-2.05,10.88h45.57l1.92-10.88c-7.68,0-9.6-1.54-11.65-11.26M1036.64,261.17l5.76-30.59h11.26c6.66,0,11.01.77,13.7,2.56,3.58,2.3,5.25,6.27,5.25,10.75,0,5.5-2.82,11.52-8.06,14.72-3.07,1.79-7.55,2.56-14.21,2.56h-13.7ZM992.86,313.65h44.67l1.66-10.88c-9.47,0-10.11-.9-8.19-11.14l3.97-21.25,27.01,43.26h27.14l2.05-10.88c-1.41-.77-6.02-4.1-11.78-8.7l-27.39-21.76h3.07c12.16,0,17.41-1.28,21.25-2.69,12.54-4.86,20.61-16,20.61-27.52,0-9.09-5.25-17.92-15.23-22.27-3.97-1.54-8.83-2.69-21.12-2.69h-49.79l-1.92,10.88c11.52,0,12.29.9,10.37,11.14l-9.6,52.22c-1.92,10.24-3.46,11.39-14.72,11.39l-2.05,10.88ZM979.15,313.65l12.8-35.46h-12.54c-7.42,16-14.34,21.76-30.85,21.76h-19.33l5.25-27.78h7.17c10.11,0,11.26.9,9.34,13.82h10.88l6.14-41.22h-10.88c-1.92,13.06-3.33,13.82-13.57,13.82h-6.66l5.25-27.78h17.79c16.64,0,21.5,5.12,22.4,21.76h11.9v-35.46h-83.58l-1.92,10.88c11.39,0,12.29.9,10.37,11.14l-9.73,52.22c-1.92,10.24-3.46,11.39-14.72,11.39l-2.05,10.88h86.53ZM819.49,316.21c19.33,0,35.71-12.42,35.71-30.46,0-11.52-6.66-19.58-18.3-25.86l-14.98-8.58c-6.53-3.71-10.62-6.78-10.62-12.16,0-6.78,6.4-10.75,14.46-10.75,13.7,0,22.66,12.54,29.44,24.19h11.26v-35.71h-9.34l-7.42,8.83c-7.68-7.55-17.28-10.5-26.88-10.5-19.46,0-33.79,11.65-33.79,28.67,0,11.39,6.4,19.07,18.05,25.47l14.34,8.32c7.3,4.22,11.01,7.94,11.01,13.06,0,6.66-6.14,11.65-14.98,11.65-14.85,0-25.73-14.21-32.64-28.8h-11.26v40.32h9.34l8.45-9.98c8.45,8.83,18.3,12.29,28.16,12.29M727.93,316.21c19.33,0,35.71-12.42,35.71-30.46,0-11.52-6.66-19.58-18.3-25.86l-14.98-8.58c-6.53-3.71-10.62-6.78-10.62-12.16,0-6.78,6.4-10.75,14.46-10.75,13.7,0,22.66,12.54,29.44,24.19h11.26v-35.71h-9.34l-7.42,8.83c-7.68-7.55-17.28-10.5-26.88-10.5-19.46,0-33.79,11.65-33.79,28.67,0,11.39,6.4,19.07,18.05,25.47l14.34,8.32c7.3,4.22,11.01,7.94,11.01,13.06,0,6.66-6.14,11.65-14.98,11.65-14.85,0-25.73-14.21-32.64-28.8h-11.26v40.32h9.34l8.45-9.98c8.45,8.83,18.3,12.29,28.16,12.29M659.28,313.65l12.8-35.46h-12.54c-7.42,16-14.34,21.76-30.85,21.76h-19.33l5.25-27.78h7.17c10.11,0,11.26.9,9.34,13.82h10.88l6.14-41.22h-10.88c-1.92,13.06-3.33,13.82-13.57,13.82h-6.66l5.25-27.78h17.79c16.64,0,21.5,5.12,22.4,21.76h11.9v-35.46h-83.58l-1.92,10.88c11.39,0,12.29.9,10.37,11.14l-9.73,52.22c-1.92,10.24-3.46,11.39-14.72,11.39l-2.05,10.88h86.53ZM560.55,313.65l14.46-40.06h-12.54c-7.94,19.71-15.49,26.37-33.41,26.37h-15.36l11.39-60.54c1.92-10.24,3.33-11.39,14.72-11.39l1.92-10.88h-46.59l-1.92,10.88c11.52,0,12.29.9,10.37,11.14l-9.73,52.22c-1.92,10.24-3.33,11.39-14.72,11.39l-1.92,10.88h83.33ZM463.51,313.65l12.8-35.46h-12.54c-7.42,16-14.34,21.76-30.85,21.76h-19.33l5.25-27.78h7.17c10.11,0,11.26.9,9.35,13.82h10.88l6.14-41.22h-10.88c-1.92,13.06-3.33,13.82-13.57,13.82h-6.66l5.25-27.78h17.79c16.64,0,21.5,5.12,22.4,21.76h11.9v-35.46h-83.58l-1.92,10.88c11.39,0,12.29.9,10.37,11.14l-9.73,52.22c-1.92,10.24-3.46,11.39-14.72,11.39l-2.05,10.88h86.53ZM282.12,314.16h18.18l37.25-79.74v56.7c0,10.37-.9,11.65-12.16,11.65l-1.92,10.88h46.21l1.92-10.88c-11.39,0-12.93-.9-12.93-11.39v-51.71c0-10.37.77-11.65,12.16-11.65l1.92-10.88h-42.62l-28.93,61.95-3.33-61.95h-43.78l-1.92,10.88c11.52,0,11.78.77,8.45,10.62l-18.43,53.25c-3.33,9.86-5.38,10.88-16.64,10.88l-2.05,10.88h40.83l2.05-10.88c-11.52,0-11.9-.77-8.45-10.62l19.84-57.73,4.35,79.74ZM170.08,313.65h46.59l1.92-10.88c-11.52,0-12.42-.9-10.5-11.14l9.86-52.22c1.92-10.24,3.33-11.39,14.72-11.39l1.92-10.88h-46.59l-1.92,10.88c11.52,0,12.29.9,10.37,11.14l-9.73,52.22c-1.92,10.24-3.33,11.39-14.72,11.39l-1.92,10.88ZM90.94,313.65h50.69l2.18-10.88c-13.31,0-14.46-.9-12.54-11.14l11.39-60.8c16.26.13,20.99,5.25,21.76,21.76h12.03v-35.46h-84.22l-12.8,35.46h12.54c7.17-15.49,13.95-21.38,29.31-21.76l-11.39,60.54c-1.92,10.24-3.46,11.39-16.77,11.39l-2.18,10.88Z"/>
    <path d="M1159.75,141.61c1.41-7.17,5.63-11.39,11.78-11.39s10.5,4.48,10.62,11.39h-22.4ZM1172.67,188.21c14.98,0,25.22-9.73,30.21-22.91l-9.22-4.22c-3.71,6.91-9.86,9.98-16.38,9.98-9.6,0-16.51-7.68-17.92-18.56h42.24c.51-2.05.77-4.22.77-6.4,0-13.95-9.98-27.78-28.8-27.78s-33.79,14.85-33.79,35.33c.13,19.58,14.21,34.56,32.9,34.56M1070.09,138.67l19.07,47.49h18.94l18.82-46.72c2.94-7.55,4.86-8.7,9.86-8.7v-9.86h-29.06v9.86h3.2c2.18,0,3.58.9,3.58,2.69,0,1.02-.51,2.3-1.28,4.22l-11.01,27.9-10.75-27.52c-.77-2.3-1.28-3.33-1.28-4.48,0-1.54,1.15-2.82,3.46-2.82h2.82v-9.86h-35.97v9.86c4.99,0,6.78,1.15,9.6,7.94M1041.16,111.02c7.55,0,13.82-6.14,13.82-13.57s-6.27-13.31-13.82-13.31-13.95,6.14-13.95,13.31,6.27,13.57,13.95,13.57M1021.96,185.65h39.04v-9.73c-8.58,0-9.6-1.02-9.6-8.7v-48.9h-2.56c-7.55,2.56-19.07,5.25-27.78,7.04v9.73h10.62v32.13c0,7.68-1.02,8.7-9.73,8.7v9.73ZM932.53,185.65h38.53v-9.73c-8.06,0-8.96-1.02-8.96-8.7v-24.83c3.33-4.99,8.19-8.06,13.44-8.06,3.2,0,6.02,1.02,7.81,3.33,2.05,2.18,2.94,5.38,2.94,9.73v19.84c0,7.68-.9,8.7-9.09,8.7v9.73h38.53v-9.73c-8.7,0-9.73-1.02-9.73-8.7v-23.55c0-7.81-2.18-13.95-6.27-18.18-4.1-4.48-10.37-7.17-17.28-7.17-8.19,0-15.23,3.71-19.33,9.98h-1.28l.26-41.09h-2.56c-7.68,2.43-19.2,5.25-27.9,6.91v9.73h10.62v63.36c0,7.68-1.02,8.7-9.73,8.7v9.73ZM897.54,188.21c14.98,0,25.34-9.73,30.21-22.91l-9.22-4.22c-3.46,6.14-9.09,9.73-16.13,9.73-10.75,0-18.18-9.73-18.18-22.53,0-10.5,5.25-17.41,13.06-17.41,4.86,0,7.94,3.2,8.7,8.19,1.15,6.02,4.99,9.86,10.62,9.86,6.4,0,10.75-4.74,10.75-11.01,0-11.39-14.08-19.58-28.54-19.58-19.2,0-34.18,14.46-34.18,35.33.13,19.46,14.21,34.56,32.9,34.56M801.2,185.65h39.3v-9.73c-8.83,0-9.86-1.02-9.86-8.7v-18.82c0-5.5,3.84-8.7,8.7-8.7,3.71,0,6.14.9,9.6.9,6.27,0,11.52-5.12,11.52-11.26s-5.38-10.88-11.78-10.88c-7.3,0-13.18,4.61-17.02,13.06h-1.28l.26-13.18h-2.56c-7.55,2.56-19.07,5.25-27.78,7.04v9.73h10.62v32.13c0,7.68-1.02,8.7-9.73,8.7v9.73ZM724.72,145.97l13.44-34.43,13.31,34.43h-26.75ZM781.04,163.25l-29.57-74.62h-19.84l-28.93,73.73c-3.84,9.73-6.66,12.42-14.21,12.42v10.88h38.66v-10.88h-4.74c-4.48-.13-6.53-1.28-6.53-4.22,0-1.41.64-3.58,1.54-5.89l2.18-5.63h36.99l1.92,4.86c.77,2.18,1.66,4.61,1.66,6.27,0,3.07-2.05,4.48-6.91,4.61h-4.74v10.88h46.34v-10.88c-7.42,0-10.24-2.3-13.82-11.52M593.24,109.36c0-6.66,4.48-10.24,9.22-10.24,4.48,0,8.83,3.33,8.83,9.6s-3.97,12.03-11.01,16.13c-4.1-4.99-7.04-10.24-7.04-15.49M586.07,156.72c0-6.27,2.82-11.14,8.7-15.36l23.68,25.86c-4.99,3.2-10.5,5.12-15.62,5.12-9.6,0-16.77-6.27-16.77-15.62M597.46,188.21c8.96,0,20.22-3.2,30.34-10.62l7.42,8.06h28.67v-9.73c-3.46-1.92-10.37-6.66-16.38-11.39l-4.35-3.33c3.2-4.86,5.89-10.37,7.81-16.77,1.79-6.53,4.48-8.58,11.39-8.96v-9.86h-33.02v9.86c5.5.26,7.3,2.56,7.3,7.42.13,3.33-1.41,6.91-3.71,10.37l-24.83-18.94c12.54-6.53,21.5-13.95,21.5-25.98,0-12.8-12.67-21.25-27.01-21.25-16.51,0-28.8,9.73-28.8,24.19,0,8.19,3.97,14.34,11.14,20.99-13.95,7.42-20.74,16.13-20.74,27.9,0,16.26,14.46,28.03,33.28,28.03M480.06,151.73c0-11.65,4.22-21.5,14.59-21.5,4.35,0,8.45,1.79,11.52,4.86v29.06c-3.33,5.12-8.32,8.06-13.31,8.06-8.96,0-12.8-9.22-12.8-20.48M494.01,118.32c-19.58,0-35.07,14.21-35.07,37.25,0,21.38,12.8,32.64,27.01,32.64,8.19,0,15.1-3.71,19.2-9.98h1.02v.13h.26l-.13,8.96,30.21-1.66v-9.73c-9.47-.13-10.62-1.02-10.62-8.19v-80.51h-2.56c-7.55,2.43-19.07,5.25-27.78,6.91v9.73h10.62v16.26c-4.1-1.15-8.19-1.79-12.16-1.79M395.72,185.65h39.3v-9.73c-8.83,0-9.86-1.02-9.86-8.7v-18.82c0-5.5,3.84-8.7,8.7-8.7,3.71,0,6.14.9,9.6.9,6.27,0,11.52-5.12,11.52-11.26s-5.38-10.88-11.78-10.88c-7.3,0-13.18,4.61-17.02,13.06h-1.28l.26-13.18h-2.56c-7.55,2.56-19.07,5.25-27.78,7.04v9.73h10.62v32.13c0,7.68-1.02,8.7-9.73,8.7v9.73ZM354.6,175.66c-9.09,0-13.57-8.83-13.57-23.04s4.35-21.76,13.06-21.76,13.57,9.09,13.57,23.04-4.48,21.76-13.06,21.76M354.35,188.21c19.71,0,34.82-14.08,34.82-34.69s-14.59-35.2-34.94-35.2-34.82,13.44-34.82,34.69,14.34,35.2,34.94,35.2M281.13,188.21c14.98,0,25.34-9.73,30.21-22.91l-9.22-4.22c-3.46,6.14-9.09,9.73-16.13,9.73-10.75,0-18.18-9.73-18.18-22.53,0-10.5,5.25-17.41,13.06-17.41,4.86,0,7.94,3.2,8.7,8.19,1.15,6.02,4.99,9.86,10.62,9.86,6.4,0,10.75-4.74,10.75-11.01,0-11.39-14.08-19.58-28.54-19.58-19.2,0-34.18,14.46-34.18,35.33.13,19.46,14.21,34.56,32.9,34.56M196.51,141.61c1.41-7.17,5.63-11.39,11.78-11.39s10.5,4.48,10.62,11.39h-22.4ZM209.43,188.21c14.98,0,25.22-9.73,30.21-22.91l-9.22-4.22c-3.71,6.91-9.86,9.98-16.38,9.98-9.6,0-16.51-7.68-17.92-18.56h42.24c.51-2.05.77-4.22.77-6.4,0-13.95-9.98-27.78-28.8-27.78s-33.79,14.85-33.79,35.33c.13,19.58,14.21,34.56,32.9,34.56M108.74,133.17v-30.59h12.54c6.66,0,11.14.9,13.95,2.56,4.35,2.82,6.53,7.55,6.53,12.67s-2.18,9.98-6.53,12.8c-2.82,1.79-7.3,2.56-13.95,2.56h-12.54ZM74.94,185.65h44.16v-10.88c-9.73,0-10.37-1.28-10.37-11.52v-20.48l31.74,42.88h30.21v-10.88c-1.54-.77-6.78-4.1-13.31-8.7l-31.1-21.76h.9c12.03,0,17.15-1.41,20.86-2.69,11.78-4.74,17.92-14.85,17.92-25.22s-6.14-19.84-17.54-24.58c-4.1-1.66-8.96-2.69-21.25-2.69h-52.22v10.88c11.78,0,12.67,1.28,12.67,11.52v51.71c0,10.24-.9,11.52-12.67,11.52v10.88Z"/>
  </g>
</svg>