<?xml version="1.0" encoding="UTF-8"?>
<svg id="Layer_1" xmlns="http://www.w3.org/2000/svg" xmlns:xlink="http://www.w3.org/1999/xlink" version="1.1" viewBox="0 0 1280 800">
  <!-- Generator: Adobe Illustrator 29.8.2, SVG Export Plug-In . SVG Version: 2.1.1 Build 3)  -->
  <defs>
    <style>
      .st0 {
        fill: none;
      }

      .st1 {
        fill: #fbfbfb;
      }

      .st2 {
        clip-path: url(#clippath);
      }
    </style>
    <clipPath id="clippath">
      <rect class="st0" width="1280" height="800"/>
    </clipPath>
  </defs>
  <g class="st2">
    <rect x="-3" y="-3" width="1286" height="806"/>
  </g>
  <rect width="1280" height="800"/>
  <g>
    <path class="st1" d="M243.71,124.53l19.32,31.51v8.42q0,8.02-9.21,8.02v9.81h37.25v-9.81q-9.21,0-9.21-8.02v-9.21l19.22-30.71c4.06-6.44,4.95-7.13,10.4-7.13v-9.81h-30.91v9.81h3.76c2.28,0,3.37.69,3.37,2.08,0,.79-.4,1.88-1.19,3.27l-11.29,18.82-10.9-18.92c-.69-1.19-.99-2.18-.99-2.97,0-1.49,1.09-2.28,3.37-2.28h3.76v-9.81h-37.05v9.81c5.45,0,6.34.69,10.3,7.13Z"/>
    <path class="st1" d="M301.47,157.32c.1,15.06,11.39,26.95,26.25,26.95,12.29,0,20.51-8.12,24.17-18.33l-8.32-3.76c-2.58,4.95-7.03,7.03-11.59,7.03-6.54,0-11.39-4.66-12.88-11.69h31.8c.59-1.88.89-3.86.89-5.94,0-10.3-7.63-21.8-23.28-21.8s-27.05,11.49-27.05,27.54ZM327.03,140.28c4.36,0,7.13,3.17,7.13,7.63v.1h-15.16c1.09-4.85,3.86-7.73,8.03-7.73Z"/>
    <path class="st1" d="M378.06,144.64c3.86,0,8.72,2.28,8.72,7.53v1.19l-11.59,2.58c-10.6,2.28-16.45,7.83-16.45,15.26s5.94,13.08,13.97,13.08c5.05,0,10.3-2.28,13.47-7.43h.99l-.1,6.64,23.68-1.19v-8.82c-5.45,0-6.14-.3-6.14-5.25v-2.18l.2-12.38v-2.77c.2-12.78-9.11-21.1-21.5-21.1-11.69,0-21.3,6.84-26.06,18.23l7.53,4.76c3.76-5.05,8.52-8.12,13.28-8.12ZM381.92,171.69c-2.28,0-4.16-1.39-4.16-3.96s1.98-4.56,6.24-5.94l2.77-.99.1,8.22c-1.39,1.78-3.17,2.67-4.95,2.67Z"/>
    <path class="st1" d="M421.94,166.93q0,6.54-7.23,6.54v8.82h32.3v-8.82q-7.23,0-7.23-6.54v-12.58c0-3.76,2.87-6.04,6.24-6.04,3.17,0,5.05.69,8.02.69,5.45,0,10.11-4.46,10.11-9.71s-4.66-9.41-10.11-9.41c-6.14,0-10.7,3.86-13.47,10.5h-.99l.2-10.6h-1.98c-6.44,1.68-16.55,3.96-23.88,5.45v8.82h8.02v22.89Z"/>
    <path class="st1" d="M494.07,174.27c-6.34,0-12.68-5.25-18.82-12.48h-9.21l5.65,21.5h7.33l2.87-3.86c4.76,3.27,9.81,4.85,15.06,4.85,10.7,0,20.81-6.24,20.51-17.04-.1-8.52-7.33-13.28-15.95-16.45l-9.71-3.57c-3.17-1.19-5.65-1.98-5.75-4.26s2.18-3.27,4.76-3.27c6.04-.1,11,3.86,17.34,10.7h9.21l-5.15-19.62h-7.33l-2.48,3.37c-3.96-2.97-9.21-4.36-14.37-4.36-10.9,0-20.21,5.65-20.01,16.15.1,8.82,6.74,13.57,16.15,17.04l9.41,3.47c3.47,1.29,5.65,2.28,5.65,4.56.1,2.18-2.38,3.27-5.15,3.27Z"/>
    <path class="st1" d="M210.25,259.34c-9.11,0-9.11-.99-8.22-8.82l4.56-44.48,18.33,62.12h12.98l18.03-62.22,4.56,44.58c.79,7.83.89,8.82-8.22,8.82v8.42h35.87v-8.42c-9.12,0-10.4-.99-11.2-8.82l-4.06-40.22c-.79-7.83-.89-8.82,8.22-8.82v-8.42h-32.89l-14.07,49.64-14.37-49.64h-33.78v8.42c9.12,0,9.12.99,8.32,8.82l-4.16,40.22c-.79,7.83-2.08,8.82-11.2,8.82v8.42h31.31v-8.42Z"/>
    <path class="st1" d="M317.15,215.65c-15.36,0-26.95,10.4-26.95,26.85s11.1,27.25,27.05,27.25,26.95-10.9,26.95-26.85-11.29-27.25-27.05-27.25ZM317.44,260.03c-7.03,0-10.5-6.84-10.5-17.83s3.37-16.84,10.11-16.84,10.5,7.03,10.5,17.83-3.47,16.84-10.11,16.84Z"/>
    <path class="st1" d="M368.56,215.65c-5.85,1.98-14.76,4.06-21.5,5.45v7.53h8.22v24.87c0,5.94-.79,6.74-7.53,6.74v7.53h29.82v-7.53c-6.24,0-7.03-.79-7.03-6.74v-19.22c2.58-3.86,6.34-6.24,10.4-6.24,2.48,0,4.66.79,6.04,2.58,1.58,1.68,2.28,4.16,2.28,7.53v15.36c0,5.94-.69,6.74-7.03,6.74v7.53h29.82v-7.53c-6.74,0-7.53-.79-7.53-6.74v-18.23c0-6.04-1.68-10.8-4.85-14.07-3.17-3.47-8.02-5.55-13.38-5.55-6.34,0-11.79,2.87-14.96,7.73h-.99l.2-7.73h-1.98Z"/>
    <path class="st1" d="M426.62,201.68c-4.06,6.74-9.81,12.98-16.15,18.03v7.53h8.62l-.59,20.71v1.58c0,12.98,6.44,20.21,18.13,20.21,9.51,0,16.45-5.94,19.02-15.65l-7.23-2.87c-1.88,4.16-4.66,6.44-8.02,6.44-4.95,0-6.14-3.96-6.34-8.62v-1.59l.1-20.21h18.63v-9.61h-18.53v-15.95h-7.63Z"/>
    <path class="st1" d="M513.9,253.49v-18.23c0-6.04-1.68-10.8-4.85-14.07-3.17-3.47-8.02-5.55-13.38-5.55-6.34,0-11.79,2.87-14.96,7.73h-.99l.2-31.8h-1.98c-5.94,1.88-14.86,4.06-21.6,5.35v7.53h8.22v49.04c0,5.94-.79,6.74-7.53,6.74v7.53h29.82v-7.53c-6.24,0-6.94-.79-6.94-6.74v-19.22c2.58-3.86,6.34-6.24,10.4-6.24,2.48,0,4.66.79,6.04,2.58,1.58,1.68,2.28,4.16,2.28,7.53v15.36c0,5.94-.69,6.74-7.03,6.74v7.53h29.82v-7.53c-6.74,0-7.53-.79-7.53-6.74Z"/>
    <path class="st1" d="M557,237.25l-9.61-3.57c-3.67-1.39-6.34-2.58-6.44-5.25-.1-2.67,2.58-4.06,5.75-4.06,5.94-.1,11.1,3.77,17.64,11.39h7.93l-5.05-19.12h-6.34l-2.48,3.47c-3.96-3.07-9.02-4.46-13.87-4.46-10.3,0-19.22,5.65-19.12,15.56.1,8.42,6.44,13.18,15.36,16.45l9.51,3.47c4.06,1.49,6.44,2.87,6.44,5.55.1,2.68-2.87,4.26-6.24,4.26-6.34,0-12.78-5.05-19.12-13.08h-7.93l5.55,20.9h6.24l2.87-3.86c4.56,3.27,9.61,4.85,14.66,4.85,10.2,0,19.81-6.04,19.62-16.45-.1-8.32-6.94-12.98-15.36-16.05Z"/>
    <path class="st1" d="M245.85,285.36h1.68v-6.84h-28.73v6.84c5.45,0,7.43,2.77,9.71,9.91l19.42,58.95h10.6l13.67-41.81,13.77,41.81h10.7l19.02-59.25c2.18-6.84,4.26-9.61,9.61-9.61v-6.84h-26.25v6.84h3.07c3.67.2,5.25,1.49,5.25,4.06,0,1.29-.5,3.07-1.29,5.45l-12.98,40.42-12.98-40.03c-.89-2.48-1.39-4.36-1.39-5.75,0-2.58,1.58-3.96,5.45-4.16h2.58v-6.84h-29.43v6.84c4.95,0,6.84,2.58,8.82,8.62l1.39,4.36-11.99,36.66-12.98-39.53c-.69-2.28-1.19-4.06-1.19-5.45,0-2.77,1.59-4.46,4.46-4.66Z"/>
    <path class="st1" d="M317.28,328.76c.1,15.16,10.4,26.45,24.37,26.45,10.8,0,18.53-6.94,22.59-17.14l-5.85-2.67c-3.17,6.04-8.22,8.62-13.87,8.62-8.62,0-14.37-7.43-14.96-17.44h33.59c.2-1.19.3-2.58.3-3.96,0-11.2-7.93-20.9-21.1-20.9-14.27,0-25.07,11.29-25.07,27.05ZM350.17,319.45h-20.11c1.29-6.24,5.05-10.2,10.6-10.2s9.31,3.86,9.51,10.2Z"/>
    <path class="st1" d="M417.34,322.62c0-11.2-7.93-20.9-21.1-20.9-14.27,0-25.07,11.29-25.07,27.05.1,15.16,10.4,26.45,24.37,26.45,10.8,0,18.53-6.94,22.59-17.14l-5.85-2.67c-3.17,6.04-8.22,8.62-13.87,8.62-8.62,0-14.37-7.43-14.96-17.44h33.59c.2-1.19.3-2.58.3-3.96ZM383.95,319.45c1.29-6.24,5.05-10.2,10.6-10.2s9.31,3.86,9.51,10.2h-20.11Z"/>
    <path class="st1" d="M481.74,309.84v-6.14h-28.14v6.14h.79c2.58,0,4.46.79,4.46,2.77,0,1.29-.89,2.77-2.97,4.26l-12.78,9.61v-49.44h-1.98c-5.15,2.18-12.68,4.16-18.73,5.25v6.04h8.42v52.01c0,5.15-1.68,6.84-7.93,6.84v6.04h26.35v-6.04c-4.85,0-6.14-1.68-6.14-6.84v-12.78l21.5,25.66h18.43v-6.04c-1.19-.5-4.46-2.58-8.82-5.65l-20.41-14.37,16.74-11.99c5.05-3.67,8.02-5.15,11.2-5.35Z"/>
    <path class="st1" d="M507.89,308.94c5.85-.1,11.1,3.57,17.93,12.29h6.34l-4.95-18.53h-4.95l-2.48,3.37c-3.96-2.97-8.82-4.46-13.38-4.46-9.71,0-18.03,5.55-17.93,14.76,0,8.12,5.94,12.68,14.37,15.75l9.51,3.47c4.76,1.68,7.43,3.57,7.43,6.74,0,3.37-3.37,5.45-7.53,5.45-6.44,0-12.98-4.76-19.52-13.87h-6.34l5.35,20.31h5.05l2.87-3.86c4.36,3.27,9.31,4.95,14.07,4.95,9.61,0,18.73-5.94,18.63-15.85,0-8.02-6.54-12.58-14.66-15.65l-9.61-3.57c-4.26-1.58-7.13-3.17-7.23-6.24,0-3.17,3.07-5.05,7.03-5.05Z"/>
    <path class="st1" d="M333.59,420.08c2.77-5.65,4.16-11.89,4.16-18.73,0-9.61-2.87-18.33-9.02-25.17-8.72-9.81-21.1-12.19-37.15-12.19h-28.24v5.15c8.92,0,11,3.37,11,10.9v42.6c0,7.53-2.08,10.9-11,10.9v5.15h30.91c22.89,0,33.09-5.94,39.33-18.63ZM322.09,418.59c-4.36,8.32-12.78,13.18-25.66,13.18h-11.69v-60.83h9.41c10.9,0,19.32,3.27,24.47,9.71,4.56,5.65,6.94,12.68,6.94,21.2,0,6.54-1.19,12.19-3.47,16.74Z"/>
    <path class="st1" d="M373.41,432.46h.99l-.1,7.33,16.45-1.09v-4.56c-5.15-.4-7.33-2.77-7.33-6.54v-1.98l.2-17.24v-2.18c.1-12.88-7.93-18.53-17.24-18.53s-17.93,6.14-22.79,16.35l4.36,2.68c3.86-6.64,9.81-10.3,15.95-10.3,5.25,0,10.4,2.87,10.4,10.01v4.16l-11.69,3.07c-11.1,2.77-17.14,8.12-17.14,15.26,0,6.34,5.05,11.79,12.58,11.79,4.85,0,10.9-2.18,15.36-8.22ZM362.71,432.96c-3.77,0-6.74-2.58-6.74-6.34s2.77-6.44,10.2-8.82l8.12-2.38v8.32c-2.48,5.75-6.94,9.21-11.59,9.21Z"/>
    <path class="st1" d="M443.76,394.22v-4.56h-19.91v4.56l1.98.1c2.67.1,4.16.89,4.16,2.58,0,.69-.2,1.39-.5,2.18l-11.1,26.55-10.9-25.76c-.59-1.49-.79-2.18-.79-2.77,0-1.49,1.29-2.67,4.16-2.77l1.98-.1v-4.56h-23.28v4.56c3.47,0,6.24,2.18,8.12,6.54l15.75,36.56-3.17,7.23c-2.18,4.95-4.06,8.32-7.63,8.32-1.49,0-2.77-.69-3.86-1.58-1.39-1.09-2.77-1.88-5.05-1.88-3.67,0-6.44,2.87-6.44,6.24,0,3.77,3.37,7.33,9.12,7.33,3.37,0,6.54-.99,9.11-2.58,4.36-2.67,7.83-7.53,10.5-13.77l19.72-45.87c1.88-4.46,4.56-6.54,8.02-6.54Z"/>
    <path class="st1" d="M489.23,425.62c0-7.73-6.04-12.19-13.97-15.16l-9.51-3.57c-4.85-1.78-8.02-3.86-8.02-7.43s3.57-6.04,8.22-6.04c5.75,0,11.1,3.47,18.13,12.98l.1.2h4.76l-4.76-17.93h-3.77l-2.48,3.47c-3.86-3.07-8.52-4.56-12.78-4.56-9.02,0-16.84,5.45-16.84,13.97,0,7.73,5.55,12.19,13.47,15.06l9.51,3.47c5.45,1.98,8.42,4.26,8.42,7.93,0,4.06-3.96,6.64-8.82,6.64-6.54,0-13.08-4.46-19.91-14.56h-4.76l5.25,19.62h3.76l2.77-3.77c4.26,3.17,9.12,4.86,13.67,4.86,8.92,0,17.54-5.75,17.54-15.16Z"/>
    <path class="st1" d="M316.76,453.43v-3.96h-31.21v3.96c9.51.1,11.39,2.77,11.39,9.71v20.51h-40.92v-20.51c0-6.94,1.98-9.61,11.39-9.71v-3.96h-31.21v3.96c9.51.1,11.39,2.77,11.39,9.71v47.36c0,6.94-1.88,9.61-11.39,9.71v3.96h31.21v-3.96c-9.41-.1-11.39-2.77-11.39-9.71v-21.7h40.92v21.7c0,6.94-1.88,9.61-11.39,9.71v3.96h31.21v-3.96c-9.41-.1-11.39-2.77-11.39-9.71v-47.36c0-6.94,1.98-9.61,11.39-9.71Z"/>
    <path class="st1" d="M344.2,526.15c13.18,0,24.08-10.8,24.08-26.65,0-14.96-10.5-26.06-24.08-26.06s-24.17,10.7-24.17,26.25,10.5,26.45,24.17,26.45ZM343.41,478.2c11.2,0,16.45,13.18,16.45,24.08s-5.35,19.02-14.66,19.02c-11.39,0-16.64-12.88-16.64-23.98s5.65-19.12,14.86-19.12Z"/>
    <path class="st1" d="M381.95,485.73v23.68c0,5.05,1.29,9.21,3.96,12.09,2.77,2.97,7.03,4.66,11.59,4.66,6.84,0,11.89-3.47,15.65-8.42h.99l-.2,7.63,16.45-1.19v-3.47c-5.94-.1-8.82-1.88-8.82-5.85v-40.42l-16.35,1.98v3.47c5.94.1,8.72,1.98,8.72,5.85v25.17c-3.37,5.15-8.42,8.42-13.87,8.42-3.07,0-5.75-1.09-7.73-3.27-1.88-2.18-2.77-5.35-2.77-9.31v-32.3l-16.45,1.98v3.47c5.94.1,8.82,1.98,8.82,5.85Z"/>
    <path class="st1" d="M459.42,483.85c1.98,0,3.86.69,5.85.69,3.17,0,5.55-2.48,5.55-5.65s-2.58-5.45-6.34-5.45c-4.36,0-8.72,3.27-12.48,9.91h-.99l.2-9.91h-1.98c-4.06,2.67-9.51,4.36-14.46,5.15v3.47h8.82v32.4c0,3.96-1.98,6.04-8.62,6.24v3.47h24.87v-3.47c-6.64-.2-8.62-2.28-8.62-6.24v-21.3c0-5.25,3.27-9.31,8.22-9.31Z"/>
    <path class="st1" d="M498.36,521.5c-7.73,0-13.77-5.45-20.41-15.36h-3.67l5.05,19.02h2.87l2.97-4.06c4.16,3.37,9.02,5.15,13.67,5.15,8.82,0,17.04-5.65,17.04-14.76,0-7.53-5.75-11.89-13.67-14.76l-9.61-3.57c-5.35-1.98-8.72-4.36-8.72-8.32,0-4.16,3.96-6.94,9.11-6.94,6.74,0,11.89,4.26,18.82,13.97h3.57l-4.56-17.44h-2.97l-2.67,3.67c-3.86-3.27-8.42-4.75-12.78-4.75-8.62,0-16.05,5.45-16.05,13.47,0,7.53,5.25,11.79,12.98,14.56l9.81,3.47c5.94,2.18,9.21,4.75,9.21,8.92,0,4.56-4.46,7.73-10.01,7.73Z"/>
    <path class="st1" d="M254.41,606.67v2.97h30.42v-2.97c-9.81-.3-11.79-2.38-12.38-8.82l-5.25-51.12c-.69-6.44,1.19-8.52,11-8.82v-2.97h-20.21l-24.57,64.6-24.17-64.6h-20.51v2.97c9.81.3,11.69,2.38,11,8.82l-5.25,51.12c-.59,6.44-2.58,8.52-12.38,8.82v2.97h27.34v-2.97c-9.81-.3-11.69-2.38-11-8.82l5.85-56.67,26.16,70.24h2.58l26.65-70.34,5.75,56.77c.69,6.44-1.09,8.52-11,8.82Z"/>
    <path class="st1" d="M308.2,541.97c0-3.37-2.87-6.24-6.34-6.24s-6.34,2.87-6.34,6.24,2.87,6.34,6.34,6.34,6.34-2.87,6.34-6.34Z"/>
    <path class="st1" d="M289.88,606.97v2.67h23.88v-2.67c-7.13-.4-8.62-2.08-8.62-5.55v-42.21h-1.98c-3.86,2.68-8.72,4.36-13.38,5.05v2.68h8.92v34.48c0,3.47-1.49,5.15-8.82,5.55Z"/>
    <path class="st1" d="M351.3,606.97v2.67h24.08v-2.67c-7.23-.4-8.82-2.08-8.82-5.55v-24.57c0-5.35-1.39-9.81-4.06-12.78-2.97-3.17-7.33-4.86-12.09-4.86-6.24,0-11.79,3.07-15.95,8.62h-.99l.2-8.62h-1.98c-3.86,2.68-8.72,4.36-13.38,5.05v2.68h8.92v34.48c0,3.47-1.49,5.15-8.82,5.55v2.67h24.08v-2.67c-7.23-.4-8.82-2.08-8.82-5.55v-28.04c3.67-5.15,8.72-8.42,14.46-8.42,3.77,0,6.74,1.19,8.92,3.57,2.18,2.48,3.07,5.94,3.07,10.21v22.69c0,3.47-1.49,5.15-8.82,5.55Z"/>
    <path class="st1" d="M432.74,609.64v-2.67c-6.04-.3-8.92-1.58-8.92-5.25v-41.51l-15.36,1.98v2.67c6.24.1,8.92,1.68,8.92,5.05v27.54c-3.37,4.85-8.32,8.42-14.27,8.42-3.37,0-6.14-1.19-8.22-3.47-2.08-2.38-2.97-5.85-2.97-10.01v-32.2l-15.26,1.98v2.67c6.14.1,8.82,1.68,8.82,5.05v24.57c0,5.25,1.29,9.51,3.96,12.48,2.77,3.07,6.94,4.66,11.49,4.66,6.84,0,11.99-3.67,15.65-8.62h.99l-.2,7.73,15.36-1.09Z"/>
    <path class="st1" d="M469.3,596.76c-2.28,6.14-5.65,9.31-10.21,9.31-6.34,0-7.43-6.04-7.53-11.29v-2.18l.1-27.34h17.93v-4.06h-17.83v-15.85h-2.67c-1.19,8.92-6.44,14.76-13.47,17.24v2.67h9.81l-.5,30.02v1.39c0,9.61,4.76,14.96,12.29,14.96,6.94,0,11.99-4.95,14.76-13.97l-2.67-.89Z"/>
    <path class="st1" d="M501,605.28c-9.61,0-16.94-9.12-16.94-22.89v-1.88h35.07c.1-.4.1-.69.1-1.09,0-11.49-7.63-20.21-19.12-20.21-13.38,0-22.89,11.2-22.89,26.35s9.21,26.06,22.29,26.06c9.21,0,16.35-5.55,20.71-15.46l-2.58-1.19c-3.76,6.84-9.51,10.3-16.64,10.3ZM498.32,562.78c7.83,0,12.48,6.24,12.48,14.07v.1h-26.35c1.49-8.82,6.44-14.17,13.87-14.17Z"/>
    <path class="st1" d="M554.6,582.69l-9.71-3.47c-5.65-2.08-9.21-4.66-9.21-9.02.1-4.46,4.26-7.63,9.91-7.63,7.43,0,12.38,4.95,19.12,14.56h2.87l-4.56-16.94h-2.28l-2.87,3.76c-3.86-3.37-8.42-4.85-12.78-4.85-8.32,0-15.55,5.35-15.55,13.08,0,7.23,5.15,11.39,12.78,14.07l9.91,3.57c6.44,2.28,9.91,5.15,9.81,9.71,0,4.76-4.76,8.42-10.8,8.42-8.62,0-14.37-6.24-20.9-15.95h-2.87l5.05,18.63h2.18l3.17-4.36c4.06,3.67,9.02,5.35,13.67,5.35,8.62,0,16.64-5.45,16.64-14.27,0-7.43-5.65-11.79-13.57-14.66Z"/>
    <path class="st1" d="M226.27,655.61l-14.66-5.15c-9.51-3.37-14.27-8.22-14.27-14.96,0-8.22,7.13-14.07,16.94-14.07,11.59,0,18.33,7.43,27.25,20.81l.2.4h2.18l-6.14-23.18h-1.78l-4.56,6.24c-5.35-4.85-11.29-6.74-17.24-6.74-12.38,0-22.09,7.93-22.09,19.12,0,9.31,7.03,15.46,17.64,19.12l15.26,5.35c10.8,3.76,15.26,9.02,15.26,16.05,0,9.12-7.03,15.85-18.53,15.85s-18.82-6.64-25.96-16.74l-4.66-7.03h-2.18l6.74,25.46h1.78l5.05-6.84c5.55,5.25,12.58,7.83,19.81,7.83,13.47,0,23.28-8.42,23.28-20.51,0-10.4-7.63-16.84-19.32-21Z"/>
    <path class="st1" d="M277.69,691.87c-9.61,0-17.44-9.02-17.44-23.88l.1-2.67h35.37v-.2c0-11.49-7.33-20.21-18.73-20.21-13.18,0-22.49,11.2-22.49,26.25s8.92,25.96,21.9,25.96c8.92,0,15.85-5.25,20.31-14.96l-1.78-.89c-3.86,7.03-9.81,10.6-17.24,10.6ZM275.31,647.59c8.42,0,13.08,6.84,13.08,14.66v.59h-27.84c1.39-9.61,6.74-15.26,14.76-15.26Z"/>
    <path class="st1" d="M328.51,691.87c-9.61,0-17.34-9.02-17.34-24.17,0-11.69,6.44-20.21,16.35-20.21,4.95,0,8.42,2.08,9.02,7.53.4,3.86,2.28,6.14,5.15,6.14,2.68,0,4.36-1.98,4.36-4.76,0-6.24-8.52-11.49-17.83-11.49-13.38,0-22.89,10.8-22.89,26.25s8.92,25.96,21.9,25.96c8.92,0,15.85-5.25,20.31-14.96l-1.78-.89c-3.86,7.03-9.81,10.6-17.24,10.6Z"/>
    <path class="st1" d="M378.55,644.91c-12.88,0-22.99,11-22.99,26.16,0,14.17,9.21,26.06,22.99,26.06s22.69-10.9,22.69-26.55c0-13.97-9.02-25.66-22.69-25.66ZM380.03,694.45c-12.98,0-18.73-16.64-18.73-27.64,0-11.59,6.24-19.22,15.75-19.22,12.88,0,18.53,16.74,18.53,27.64s-5.75,19.22-15.55,19.22Z"/>
    <path class="st1" d="M453.84,688.31v-25.36c0-5.55-1.29-10.11-4.06-13.18-2.87-3.17-7.13-4.85-11.89-4.85-6.04,0-11.59,3.07-15.95,8.82h-.99l.2-8.82h-1.98c-3.57,2.87-7.93,4.46-12.29,5.05v1.88h9.02v36.46c0,3.07-1.09,4.46-9.02,4.95v1.88h23.28v-1.88c-7.93-.5-9.02-1.88-9.02-4.95v-30.32c4.06-5.45,9.31-8.42,14.86-8.42,3.96,0,7.13,1.29,9.41,3.86,2.28,2.67,3.17,6.44,3.17,10.9v23.98c0,3.07-1.09,4.46-9.02,4.95v1.88h23.28v-1.88c-7.93-.5-9.02-1.88-9.02-4.95Z"/>
    <path class="st1" d="M510.51,688.7v-69.75h-1.98c-3.57,2.87-7.93,4.46-12.29,5.05v1.88h9.02v23.08c-4.56-2.77-9.02-4.06-13.57-4.06-12.78,0-23.88,10.5-23.88,27.74,0,14.27,7.93,24.47,20.21,24.47,6.54,0,12.09-3.07,16.45-8.82h.99l-.2,7.93,14.27-1.09v-1.88c-6.24-.4-9.02-1.19-9.02-4.56ZM505.26,684.04c-4.06,5.65-9.31,8.72-15.16,8.72-10.5,0-16.05-9.41-16.05-21.5,0-14.07,7.23-23.88,17.54-23.98,5.65-.1,10.4,2.58,13.67,7.43v29.33Z"/>
    <path class="st1" d="M551.03,668.79l-9.81-3.47c-6.04-2.18-9.71-5.05-9.71-9.71.1-4.76,4.56-8.22,10.5-8.22,8.22,0,12.98,5.55,19.62,15.16h1.98l-4.46-16.64h-1.58l-3.07,4.06c-3.86-3.67-8.42-5.15-12.78-5.15-8.03,0-14.96,5.35-14.96,12.78,0,7.03,4.95,11.1,12.38,13.67l10.11,3.57c6.84,2.38,10.5,5.55,10.4,10.4,0,5.15-5.05,9.21-11.59,9.21-9.51,0-14.96-6.94-21.3-16.55h-2.08l4.85,18.23h1.59l3.17-4.56c4.06,3.76,9.11,5.55,13.77,5.55,8.52,0,16.25-5.35,16.25-13.97,0-7.23-5.35-11.59-13.28-14.37Z"/>
    <path class="st1" d="M1058.69,173.52q-6.64,0-5.55-6.24l3.27-18.92c2.87-3.27,6.54-4.85,9.51-4.85,4.06,0,6.24,2.87,6.24,7.13,0,.89-.1,1.88-.3,3.07l-2.28,12.98c-1.19,6.84-1.29,6.84-7.63,6.84l-1.39,8.82h31.41l1.59-8.82q-7.03,0-5.94-6.24l2.68-15.26c.3-1.78.5-3.47.5-5.15,0-10.6-7.73-17.04-16.84-17.04-5.85,0-11.29,2.77-14.76,7.43h-.99l1.49-7.43h-2.48c-6.74,1.68-16.84,3.96-24.27,5.45l-1.59,8.82h7.73l-3.96,22.59q-1.19,6.84-8.22,6.84l-1.59,8.82h31.9l1.49-8.82Z"/>
    <path class="st1" d="M922.96,178.08c4.85,4.46,10.5,6.24,15.55,6.24,12.19,0,21.5-7.63,21.6-16.84,0-6.84-4.56-11.29-11.79-15.36l-7.93-4.36c-2.77-1.59-4.95-2.68-4.95-4.56,0-1.98,1.78-2.97,4.16-2.97,6.14,0,11.2,5.25,15.55,10.9h8.82v-20.31h-7.33l-4.36,4.46c-4.46-3.76-10.4-5.45-15.16-5.45-12.68,0-20.61,7.83-20.71,16.45,0,6.54,4.06,11.29,11.69,15.26l7.93,4.26c2.87,1.49,4.85,2.77,4.85,4.56,0,2.18-1.98,3.17-4.46,3.17-6.24,0-12.38-5.85-17.04-12.48h-8.82v22.29h7.33l5.05-5.25Z"/>
    <path class="st1" d="M993.99,184.32c19.82,0,31.01-16.15,31.01-31.01s-11.59-23.48-25.46-23.48c-18.82,0-30.71,15.06-30.71,30.91s11.29,23.58,25.17,23.58ZM999.15,140.92c4.16,0,6.64,3.07,6.64,10.01,0,7.43-2.97,22.29-11.29,22.29-3.96,0-6.54-2.87-6.54-9.51,0-8.12,2.97-22.79,11.2-22.79Z"/>
    <path class="st1" d="M864.9,184.32c5.85,0,10.7-2.58,14.86-7.43h.99l-1.49,6.74,24.37-1.29,1.59-8.82c-4.76,0-5.45-.5-5.45-2.48,0-.89.1-1.59.4-3.17l4.36-24.87,2.38-13.18h-8.82l-4.76,3.96c-5.05-2.58-10.6-3.96-16.25-3.96-19.42,0-29.72,17.83-29.72,33.09,0,11.39,5.85,21.4,17.54,21.4ZM878.87,140.63c2.87,0,5.35,1.29,7.33,3.57l-3.76,21.8c-2.48,2.48-5.25,4.26-8.52,4.26-5.25,0-7.23-4.66-7.23-10.11,0-6.84,3.17-19.52,12.19-19.52Z"/>
    <path class="st1" d="M730.46,174.71c6.84,7.03,14.56,9.61,22.29,9.61,15.26,0,28.73-9.61,28.73-24.17,0-9.21-5.45-15.55-14.86-20.41l-11.49-6.14c-4.76-2.48-8.03-4.46-8.03-8.42,0-4.56,4.46-7.13,10.01-7.13,10.4,0,17.44,9.81,22.59,18.23h10.3v-28.63h-8.42l-5.85,6.54c-6.14-5.75-13.77-8.03-21.3-8.03-15.85,0-27.34,9.31-27.34,23.08,0,9.11,5.25,15.16,14.86,20.31l11,5.94c5.35,2.87,8.03,5.45,8.03,8.92,0,4.26-4.06,7.43-10.01,7.43-11.29,0-20.01-11.29-25.46-22.09h-10.3v32.6h8.42l6.84-7.63Z"/>
    <path class="st1" d="M812.99,184.32c11.59,0,20.21-6.34,25.66-16.15l-7.63-4.76c-3.67,4.26-7.93,6.24-12.38,6.24-7.23,0-11.29-5.15-11.59-12.09h33.39c.59-2.18.79-4.46.79-6.34,0-12.88-10.11-21.4-23.08-21.4-18.13,0-29.03,15.55-29.03,30.42s10.7,24.08,23.88,24.08ZM817.84,140.03c3.96,0,5.75,2.77,5.75,6.24,0,.59-.1,1.19-.1,1.78h-14.76c1.78-4.46,4.85-8.03,9.11-8.03Z"/>
    <path class="st1" d="M788.56,240.32h-9.71c-5.75,12.38-11.1,16.84-23.88,16.84h-14.96l4.06-21.5h5.55c7.83,0,8.72.69,7.23,10.7h8.42l4.75-31.9h-8.42c-1.49,10.11-2.58,10.7-10.5,10.7h-5.15l4.06-21.5h13.77c12.88,0,16.64,3.96,17.34,16.84h9.21v-27.44h-64.7l-1.49,8.42c8.82,0,9.51.69,8.02,8.62l-7.53,40.42c-1.49,7.93-2.67,8.82-11.39,8.82l-1.58,8.42h66.97l9.91-27.44Z"/>
    <path class="st1" d="M785.19,283.02l-1.39,7.53h30.71l1.39-7.53c-6.54-.1-7.43-.5-6.34-6.44l1.68-9.31c3.96,1.59,8.22,2.48,12.48,2.48,18.82,0,29.33-17.54,29.33-32.99,0-11.49-6.04-21.1-17.44-21.1-5.94,0-11,2.68-15.36,7.73h-.99l1.68-7.73-1.98.1c-6.34,1.88-15.65,3.96-22.79,5.25l-1.49,7.53,8.22.1-8.92,47.66c-1.09,6.04-1.88,6.74-8.82,6.74ZM817.49,233.78c2.87-3.17,6.44-5.75,10.6-5.75,5.94,0,8.32,5.05,8.32,11.2,0,7.73-3.96,21.1-14.07,21.1-3.67,0-6.74-1.78-8.82-4.76l3.96-21.8Z"/>
    <path class="st1" d="M859.49,246.56c0,14.86,10.8,23.18,24.17,23.18,19.22,0,30.22-16.45,30.22-30.91s-11.1-23.18-24.37-23.18c-18.33,0-30.02,15.46-30.02,30.91ZM897.24,236.95c0,7.93-3.57,23.08-13.08,23.08-5.05,0-8.02-3.76-8.02-11.1,0-8.62,3.57-23.58,12.98-23.58,5.15,0,8.12,3.96,8.12,11.59Z"/>
    <path class="st1" d="M920.32,246.16c0,14.56,10.01,23.58,22.79,23.58,10.9,0,19.22-5.94,24.87-15.46l-6.64-4.26c-3.86,4.76-8.52,6.84-13.08,6.84-6.64,0-11.59-4.95-11.59-13.67,0-7.13,3.76-18.13,11.79-18.13,3.57,0,5.94,2.28,6.14,6.54.3,4.76,3.07,8.42,8.02,8.42s8.52-3.76,8.52-8.82c0-9.21-11.49-15.56-22.09-15.56-17.73,0-28.73,15.75-28.73,30.52Z"/>
    <path class="st1" d="M971.25,260.23l-1.39,7.53h30.71l1.39-7.53c-6.64-.1-7.43-.5-6.34-6.44l3.76-20.11c3.57-4.06,7.53-5.94,11.1-5.94,4.26,0,7.03,2.77,7.03,7.63,0,.99-.2,2.18-.4,3.47l-2.77,14.66c-1.09,6.04-1.78,6.74-8.22,6.74l-1.29,7.53h30.02l1.39-7.53c-6.64-.1-7.43-.5-6.34-6.34l3.07-16.74c.4-1.88.59-3.57.59-5.25,0-10.01-7.33-16.25-16.15-16.25-5.85,0-11.29,2.77-15.36,7.73h-.99l6.14-31.8h-1.98c-6.34,1.88-15.65,4.06-22.69,5.35l-1.49,7.53h8.22l-9.21,49.04c-1.09,6.04-1.88,6.74-8.82,6.74Z"/>
    <path class="st1" d="M1091.13,242.4c.59-2.18.79-4.46.79-6.24,0-12.19-9.21-20.51-21.8-20.51-17.73,0-28.53,15.85-28.53,30.61s9.81,23.48,22.79,23.48c10.9,0,19.22-5.94,24.87-15.46l-6.64-4.26c-3.86,4.76-8.42,6.94-13.28,6.94-7.83,0-12.19-5.85-12.19-13.77v-.79h33.98ZM1069.63,224.56c4.26,0,6.74,2.97,6.74,7.23,0,.69-.1,1.39-.2,2.18h-17.24c2.08-5.25,5.85-9.41,10.7-9.41Z"/>
    <path class="st1" d="M825.56,285.36c8.42,0,9.91,1.49,8.22,9.41l-8.32,41.81c-1.49,7.83-3.86,9.81-12.29,9.81l-1.29,6.84h65.98l9.51-25.96h-7.73c-5.45,12.29-11.2,17.14-23.28,17.14h-18.82l4.85-24.17h7.53c7.73,0,9.51,1.49,8.03,11.29h6.84l4.95-31.41h-6.84c-1.49,9.91-3.96,11.39-11.69,11.39h-7.13l4.85-24.17h16.55c12.29,0,16.35,4.16,17.14,17.14h7.23v-25.96h-63.01l-1.29,6.84Z"/>
    <path class="st1" d="M889.17,347.19l-1.19,6.04h28.04l1.19-6.04c-5.65-.1-7.53-1.19-6.44-6.54l3.27-16.35c.89-4.66,4.56-8.62,9.21-8.62,2.68,0,4.46.79,7.23.79,4.85,0,7.93-3.86,7.93-7.63,0-3.96-3.37-7.13-7.63-7.13-5.55,0-10.5,4.46-13.18,9.02h-1.09l1.98-9.02h-1.98c-5.85,2.18-13.57,4.16-19.91,5.25l-1.19,6.04h8.32l-5.45,27.44c-1.09,5.35-2.68,6.74-9.11,6.74Z"/>
    <path class="st1" d="M937.32,334.6c0,11.49,6.04,20.61,17.04,20.61,6.04,0,11-2.77,15.55-7.93h.99l-1.68,7.13,19.62-1.19,1.19-6.04c-4.06-.1-5.94-1.19-5.94-3.96,0-.59.1-1.19.3-2.18l5.55-27.74,2.38-11.59h-6.04l-5.05,4.26c-4.66-2.77-9.81-4.26-15.26-4.26-17.93,0-28.63,17.24-28.63,32.89ZM977.05,315.48l-4.56,22.39c-3.17,3.76-7.33,7.03-12.19,7.03-6.64,0-9.51-5.55-9.51-12.38,0-8.72,4.76-23.08,16.05-23.08,4.36,0,7.93,2.18,10.2,6.04Z"/>
    <path class="st1" d="M730.8,411.55h-5.55c-5.85,13.28-11.2,17.24-22.89,17.24h-25.36l60.14-56.97v-7.83h-56.47l-8.92,24.57h5.55c4.26-10.11,9.51-14.66,18.92-14.66h28.63l-59.94,56.77v8.03h56.08l9.81-27.15Z"/>
    <path class="st1" d="M782.32,411.95c.59-2.28.79-4.46.79-6.14-.1-10.3-7.23-18.13-18.82-18.13-16.74,0-27.25,16.45-27.25,30.81,0,12.98,7.73,22.09,20.21,22.09,9.31,0,16.74-5.05,22.79-13.77l-4.06-2.87c-4.46,5.95-9.81,8.42-15.46,8.42-8.82,0-13.57-6.64-13.57-15.95,0-1.49.1-2.97.3-4.46h35.07ZM763.39,393.52c4.95,0,9.11,3.37,9.11,9.51,0,.99-.1,1.98-.2,2.97h-23.48c2.77-7.13,8.22-12.48,14.56-12.48Z"/>
    <path class="st1" d="M802.82,370.93c0,4.26,3.57,7.83,7.93,7.83s8.03-3.57,8.03-7.83-3.67-7.73-8.03-7.73-7.93,3.57-7.93,7.73Z"/>
    <path class="st1" d="M809.86,438.7l.99-4.56c-5.05-.1-7.93-1.78-6.93-6.74l8.42-39.73h-1.98c-5.15,2.48-11.59,4.26-17.24,5.15l-.99,4.56h8.72l-6.34,30.12c-.99,4.46-3.47,6.64-9.71,6.64l-.99,4.56h26.06Z"/>
    <path class="st1" d="M840.87,396.1h18.73l1.39-6.44h-18.72l3.47-15.95h-4.56c-4.16,8.52-11.2,14.56-18.73,17.64l-.99,4.76h10.2l-5.85,25.76c-.5,2.28-.79,4.36-.79,6.24,0,9.91,7.33,12.58,12.58,12.58,7.53,0,13.57-4.85,18.03-13.08l-3.96-2.38c-2.97,4.66-6.74,7.53-10.9,7.53s-6.04-2.28-6.04-6.14c0-1.59.4-3.47.79-5.65l5.35-24.87Z"/>
    <path class="st1" d="M877.43,456.93c-5.05-.1-7.93-1.78-6.94-6.74l2.87-13.57c4.36,2.58,9.21,4.06,14.27,4.06,17.04,0,28.14-16.74,28.14-32.79,0-11.69-6.54-20.21-17.04-20.21-6.04,0-11.29,2.87-15.95,8.22h-.99l1.98-8.22h-1.98c-5.15,2.48-11.59,4.26-17.24,5.15l-.99,4.56h8.72l-6.84,32.5-4.36,20.41c-.99,4.46-3.47,6.64-9.71,6.64l-.99,4.56h26.06l.99-4.56ZM880.1,404.92c3.77-4.75,8.62-8.92,14.56-8.92,7.33,0,10.9,6.04,10.9,13.57,0,10.11-5.94,25.07-18.33,25.07-5.35,0-9.61-2.87-11.79-7.73l4.66-22Z"/>
    <path class="st1" d="M975.71,388.67l-18.43,1.98-.99,4.56c6.04,0,8.12,2.58,7.13,7.03l-4.46,21.1c-5.55,6.54-10.01,9.31-14.66,9.31s-8.42-2.67-8.32-8.42c.1-1.29.3-2.77.59-4.26l6.64-31.31-18.43,1.98-.99,4.56c6.04,0,8.12,2.58,7.13,7.03l-4.36,20.51c-.3,1.39-.5,2.77-.5,3.96-.2,8.62,5.85,14.07,13.67,14.07,5.75,0,11.1-2.77,16.45-8.32h.99l-1.78,7.33,18.23-1.09.99-4.56c-5.45.1-8.22-2.08-7.23-6.34l8.32-39.13Z"/>
    <path class="st1" d="M1021.58,427.51c-.99,4.46-3.37,6.64-9.41,6.64l-.89,4.56h25.66l.99-4.56c-5.05-.1-7.93-1.78-6.94-6.74l4.26-20.01c.4-1.98.59-3.76.59-5.45.2-8.72-5.85-14.27-13.97-14.27-5.94,0-11.49,2.77-16.94,8.22h-.99l1.98-8.22h-1.98c-5.15,2.48-11.59,4.26-17.24,5.15l-.99,4.56h8.72l-6.34,30.12c-.99,4.46-3.47,6.64-9.71,6.64l-.99,4.56h25.96l.99-4.56c-5.05-.1-7.93-1.78-6.84-6.74l4.95-23.48c5.85-5.75,10.3-8.12,14.96-8.12s8.82,2.67,8.62,8.92c0,1.29-.2,2.67-.5,4.26l-3.96,18.53Z"/>
    <path class="st1" d="M1079.44,394.41h.89c2.48,0,4.16.2,4.16,1.68,0,1.19-1.29,3.07-3.96,4.66l-17.64,11.2,10.6-49.44h-1.98c-5.15,2.48-11.59,4.26-17.24,5.15l-.99,4.56h8.72l-11.79,55.28c-.99,4.46-3.47,6.64-9.71,6.64l-.99,4.56h25.07l.89-4.56c-4.36-.1-6.84-1.78-5.85-6.74l3.07-14.46,18.33,25.76h15.46l.99-4.36c-1.09-.5-3.57-2.18-7.03-5.25l-18.43-16.35,21.3-12.98c4.95-2.87,8.92-4.76,11.59-5.35l.99-4.76h-25.46l-.99,4.76Z"/>
    <path class="st1" d="M1126.99,396.1h18.73l1.39-6.44h-18.72l3.47-15.95h-4.56c-4.16,8.52-11.2,14.56-18.73,17.64l-.99,4.76h10.2l-5.85,25.76c-.5,2.28-.79,4.36-.79,6.24,0,9.91,7.33,12.58,12.58,12.58,7.53,0,13.57-4.85,18.03-13.08l-3.96-2.38c-2.97,4.66-6.74,7.53-10.9,7.53s-6.04-2.28-6.04-6.14c0-1.59.4-3.47.79-5.65l5.35-24.87Z"/>
    <path class="st1" d="M777.86,496.83h12.98c8.03,0,13.67-.99,18.33-2.97,10.7-4.26,16.25-13.87,16.25-22.99,0-7.83-3.86-15.06-12.19-18.53-3.96-1.78-9.51-2.87-18.03-2.87h-27.25l-.79,3.96c9.02.1,10.9,2.18,9.31,9.31l-10.11,47.75c-1.49,7.04-4.46,9.61-13.47,9.71l-.79,3.96h31.31l.79-3.96c-9.02-.1-10.8-2.18-9.31-9.31l2.97-14.07ZM786.78,454.62h6.14c7.53,0,12.29.99,15.65,2.87,4.56,2.67,6.74,7.53,6.74,13.08,0,6.64-3.07,14.17-10.21,17.93-3.57,1.98-8.72,3.17-16.25,3.17h-9.91l7.83-37.05Z"/>
    <path class="st1" d="M866.43,496.33c.4-1.88.59-3.77.59-5.25-.1-10.3-7.33-17.64-18.13-17.64-16.45,0-26.85,16.84-26.85,31.11,0,12.78,7.53,21.5,19.52,21.5,8.92,0,16.15-4.76,22.19-13.28l-3.07-2.18c-4.75,6.04-10.3,8.62-16.25,8.62-8.92,0-13.97-6.74-13.97-16.54,0-2.08.2-4.26.69-6.34h35.27ZM848.1,478c5.35,0,9.81,3.57,9.81,10.5,0,.99-.1,2.08-.3,3.17h-25.07c2.77-7.53,8.32-13.67,15.55-13.67Z"/>
    <path class="st1" d="M890.5,494.45c1.29-5.85,5.15-10.7,10.8-10.6,2.28.1,3.96.79,5.95.79,3.47,0,5.84-2.77,5.84-5.75s-2.67-5.45-6.14-5.45c-4.76,0-9.41,4.16-12.98,9.02h-1.09l2.08-9.02h-1.98c-4.75,2.67-10.5,4.36-15.65,5.15l-.79,3.47h8.82l-6.93,32.6c-.79,3.86-2.87,5.84-9.81,6.04l-.79,3.47h24.97l.79-3.47c-5.75-.3-8.32-1.49-7.33-5.85l4.26-20.41Z"/>
    <path class="st1" d="M933.01,449.67c-3.86,0-7.03,3.17-7.03,6.84s3.17,6.93,7.03,6.93,7.03-3.17,7.03-6.93-3.27-6.84-7.03-6.84Z"/>
    <path class="st1" d="M933.7,473.44h-1.98c-4.75,2.67-10.5,4.36-15.65,5.15l-.79,3.47h8.82l-6.93,32.6c-.79,3.86-2.87,5.84-9.81,6.04l-.79,3.47h24.97l.79-3.47c-5.75-.3-8.32-1.49-7.33-5.85l8.72-41.41Z"/>
    <path class="st1" d="M989.68,495.04c0-13.08-8.82-21.6-20.71-21.6-17.04,0-27.74,16.74-27.74,31.01,0,13.18,8.92,21.7,20.81,21.7,17.83,0,27.64-17.93,27.64-31.11ZM962.83,521.3c-8.42,0-12.68-6.94-12.68-16.25,0-10.21,5.25-26.85,18.13-26.85,8.42,0,12.48,6.93,12.48,16.45s-4.95,26.65-17.93,26.65Z"/>
    <path class="st1" d="M1037.13,453.13l-.79,3.47h8.82l-4.56,21.3c-4.36-2.87-9.21-4.46-14.37-4.46-17.04,0-28.24,16.64-28.24,32.79,0,11.59,6.34,19.91,16.84,19.91,6.34,0,11.69-2.97,16.54-8.52h.79v.1h.2l-1.78,7.53,16.84-1.09.69-3.47c-5.94-.1-8.42-1.78-7.53-5.75l6.64-31.31,7.53-35.67h-1.98c-4.75,2.67-10.5,4.36-15.65,5.15ZM1033.76,510.2c-3.86,4.56-9.02,9.21-15.36,9.21-7.93,0-11.79-6.34-11.79-14.56,0-10.6,6.34-26.85,19.72-26.85,5.75,0,10.21,3.17,12.48,8.52l-5.05,23.68Z"/>
    <path class="st1" d="M949.4,565.26h18.03l.89-4.06h-18.03l3.37-15.85h-2.68c-3.07,9.51-9.71,15.26-17.54,17.14l-.59,2.77h10.2l-6.64,29.82c-.5,1.98-.69,3.76-.69,5.35,0,7.73,4.76,11.2,10.8,11.2,6.44,0,11.79-4.36,16.15-12.48l-2.48-1.39c-3.27,5.45-7.03,8.52-11.1,8.52-4.66,0-6.44-2.87-6.44-7.03,0-1.59.3-3.47.69-5.55l6.04-28.43Z"/>
    <path class="st1" d="M1014.1,580.91c.3-1.59.5-3.17.5-4.56,0-10.3-7.33-17.14-17.54-17.14-16.35,0-26.55,17.04-26.55,31.21,0,12.58,7.43,21.2,19.02,21.2,8.52,0,15.55-4.56,21.7-13.08l-2.38-1.68c-4.95,6.24-10.7,8.82-16.74,8.82-9.11,0-14.27-6.74-14.27-16.84,0-2.48.4-5.25.99-7.93h35.27ZM996.37,562.68c5.65,0,10.3,3.86,10.3,11.29,0,.99-.1,2.08-.3,3.27h-26.35c2.87-7.83,8.52-14.56,16.35-14.56Z"/>
    <path class="st1" d="M921.27,609.64l.59-2.67c-4.56-.3-6.94-1.29-6.94-3.96,0-.4.1-.89.2-1.39l8.82-41.02h-2.77c-1.39,1.39-2.68,2.67-4.06,3.86-4.56-3.37-9.51-5.25-15.06-5.25-17.04,0-28.34,16.64-28.34,32.69,0,11.59,6.34,19.72,16.84,19.72,6.44,0,11.89-3.07,16.94-8.62h.99l-1.88,7.73,14.66-1.09ZM893.72,606.17c-8.42,0-12.58-6.64-12.58-15.36,0-10.9,6.64-28.14,20.81-28.14,6.14,0,10.7,3.37,12.98,9.21l-5.35,24.87c-3.76,4.46-9.21,9.41-15.85,9.41Z"/>
    <path class="st1" d="M868.07,564.76c0-8.82-2.77-15.85-7.73-20.71-6.74-7.43-16.94-9.11-30.22-9.11h-26.35l-.69,2.97c9.71.3,11.2,2.18,9.91,8.62l-10.9,51.32c-1.39,6.44-3.96,8.52-13.57,8.82l-.69,2.97h29.43c14.56,0,24.87-1.88,33.88-9.31,10.7-8.62,16.94-22.49,16.94-35.57ZM820.91,605.78h-13.47l14.27-67.07h11.1c10.4,0,18.23,3.17,22.49,9.02,2.77,3.57,4.46,8.92,4.46,15.65,0,11.29-4.16,24.77-12.48,32.89-6.04,6.04-14.37,9.51-26.35,9.51Z"/>
    <path class="st1" d="M1086.25,618.95h-1.98c-4.16,2.87-9.02,4.46-13.47,5.05l-.4,1.88h9.02l-13.18,62.22c-.59,2.97-1.98,4.66-10.11,5.15l-.4,1.88h23.38l.4-1.88c-6.74-.59-8.82-.99-8.03-4.56l14.76-69.75Z"/>
    <path class="st1" d="M886.86,644.91c-16.15,0-26.25,17.34-26.25,31.51,0,12.38,7.23,20.71,18.53,20.71,8.12,0,15.06-4.36,21.2-12.68l-1.68-1.19c-5.15,6.34-11,8.92-17.34,8.92-9.11,0-14.56-6.74-14.56-17.24,0-2.87.5-6.04,1.39-9.31h35.37c.2-1.29.3-2.68.3-3.86,0-10.3-7.33-16.84-16.94-16.84ZM896.77,662.84h-27.74c2.87-8.12,8.72-15.46,17.14-15.46,5.94,0,10.9,4.06,10.9,12.09,0,.99-.1,2.18-.3,3.37Z"/>
    <path class="st1" d="M804.71,688.7l5.35-25.46c.4-2.08.59-3.86.59-5.55-.1-7.73-5.65-12.78-13.18-12.78-6.04,0-11.49,2.87-17.34,8.82h-.99l2.08-8.72h-1.98c-4.16,2.87-9.02,4.46-13.47,5.05l-.4,1.88h9.02l-7.73,36.16c-.59,2.97-1.98,4.66-10.11,5.15l-.4,1.88h23.38l.4-1.88c-6.74-.59-8.82-.99-8.03-4.56l6.54-30.71c6.64-6.24,11.2-8.62,16.35-8.62s10.2,3.07,10.2,10.5c0,1.49-.2,3.07-.59,4.85l-4.95,23.38c-.59,2.97-1.98,4.66-10.11,5.15l-.4,1.88h23.38l.4-1.88c-6.74-.59-8.82-.99-8.03-4.56Z"/>
    <path class="st1" d="M765.72,620.44h-29.52l-.4,2.08c10.2.4,11.49,2.08,10.3,7.83l-11.69,54.89c-1.19,5.75-3.47,7.43-13.67,7.83l-.4,2.08h29.52l.4-2.08c-10.2-.4-11.49-2.08-10.3-7.83l11.69-54.89c1.19-5.75,3.47-7.43,13.67-7.83l.4-2.08Z"/>
    <path class="st1" d="M1051.47,646.89h-1.88l-3.67,3.67c-4.56-3.57-9.51-5.65-15.16-5.65-16.94,0-28.34,16.55-28.34,32.69,0,11.49,6.14,19.52,16.64,19.52,6.64,0,12.19-3.17,17.44-8.82h.99l-1.88,7.93,13.67-1.09.4-1.88c-4.95-.4-7.23-1.09-7.23-3.57,0-.4.1-.89.2-1.39l8.82-41.41ZM1038.39,683.25c-3.86,4.26-9.41,9.61-16.45,9.61-8.92,0-13.28-6.94-13.28-16.15,0-11.29,6.94-29.43,21.8-29.43,6.44,0,11.2,3.57,13.47,9.71l-5.55,26.26Z"/>
    <path class="st1" d="M843.44,631.14h-1.88c-2.58,10.01-9.02,15.55-17.04,16.94l-.4,1.88h10.2l-7.03,31.6c-.4,1.78-.59,3.47-.59,4.95,0,6.74,3.67,10.6,10.11,10.6,5.85,0,11-4.16,15.26-12.19l-1.78-.99c-3.37,5.85-7.13,8.92-11.2,8.92-4.95,0-6.64-3.17-6.64-7.33,0-1.68.3-3.47.69-5.55l6.24-29.92h17.83l.69-3.17h-17.83l3.37-15.75Z"/>
    <path class="st1" d="M1004.41,646.89h-18.13l-.4,1.88,2.87.3c2.87.2,4.16.79,4.16,2.28,0,1.09-.69,2.28-1.88,4.26l-19.72,32.79-5.85-32.69c-.2-.99-.3-1.88-.3-2.58,0-2.68,1.29-3.67,5.25-4.06l3.17-.3.4-1.88h-20.61l-.4,1.88c4.26.4,6.14,1.88,6.84,5.65l7.73,42.7h1.29l25.96-42.7c2.28-3.86,4.76-5.25,9.21-5.65l.4-1.88Z"/>
    <path class="st1" d="M944.27,644.91c-4.26,0-8.22,2.97-13.47,10.11h-.99l2.38-10.11h-1.98c-4.16,2.87-9.02,4.46-13.47,5.05l-.4,1.88h9.02l-7.73,36.26c-.59,2.97-1.98,4.66-10.11,5.15l-.4,1.88h23.38l.4-1.88c-6.74-.59-8.82-.99-8.03-4.56l5.05-23.48c1.39-6.94,5.25-11.79,11.49-11.49,2.18.1,3.57.59,5.05.59,3.17,0,5.25-2.38,5.25-4.85,0-2.67-2.48-4.56-5.45-4.56Z"/>
  </g>
</svg>