<?xml version="1.0" encoding="UTF-8"?>
<svg id="Layer_1" xmlns="http://www.w3.org/2000/svg" xmlns:xlink="http://www.w3.org/1999/xlink" version="1.1" viewBox="0 0 1280 800">
  <!-- Generator: Adobe Illustrator 29.8.2, SVG Export Plug-In . SVG Version: 2.1.1 Build 3)  -->
  <defs>
    <style>
      .st0 {
        fill: none;
      }

      .st1 {
        clip-path: url(#clippath-1);
      }

      .st2 {
        fill: #fbfbfb;
      }

      .st3 {
        clip-path: url(#clippath);
      }
    </style>
    <clipPath id="clippath">
      <rect class="st0" width="1280" height="800"/>
    </clipPath>
    <clipPath id="clippath-1">
      <rect class="st0" width="1280" height="800"/>
    </clipPath>
  </defs>
  <g class="st3">
    <rect x="-3" y="-3" width="1286" height="806"/>
  </g>
  <rect width="1280" height="800"/>
  <g class="st1">
    <path class="st2" d="M1052.88,670.49l.75.25c7.43,2.59,10.68,5.68,10.68,10.27,0,5.26-4.17,8.76-10.68,9.1l-.75-19.61ZM1035.26,645.45c0-5.01,4.34-8.01,10.27-8.1l.67,18.11-.67-.25c-6.68-2.42-10.27-5.17-10.27-9.77M1027.92,695.45h5.01l3.59-4.84c3.26,2.67,7.01,4.42,10.85,5.43l.33,10.43,6.68-.17-.33-9.51c11.52-.08,21.28-7.18,21.12-18.36,0-9.68-7.01-15.27-17.28-18.86l-5.42-1.92-.75-19.36c6.18,1.92,11.1,7.26,17.11,15.78h6.26l-5.93-22.2h-5.01l-3.34,4.42c-2.76-2.25-5.84-3.67-9.01-4.51l-.33-10.52-6.68.17.25,9.51c-11.27.08-20.45,6.59-20.45,17.19,0,9.26,6.68,14.69,16.53,18.2l5.51,1.92.75,21.2c-6.68-1.92-12.1-7.43-17.61-15.44l-2.25-3.34h-6.26l6.68,24.79ZM986.77,696.78c11.52,0,20.95-7.01,25.79-19.53l-4.93-2.09c-3.67,7.09-9.85,10.85-16.94,10.85-9.1,0-15.77-5.59-18.61-14.86h18.86l1.59-6.09h-21.62c-.17-1.5-.25-3.01-.25-4.59v-1.25h23.45l1.59-6.09h-24.2c2-9.01,7.68-15.27,15.94-15.27s13.35,6.01,18.61,14.52l1.08,1.67h6.26l-5.93-22.2h-5.01l-2.42,3.25c-3.67-2.67-8.26-4.17-13.19-4.17-12.18,0-22.53,8.85-26.29,22.2h-8.26l-1.58,6.09h8.6c-.17,1.59-.25,3.26-.25,5.01v.84h-6.93l-1.59,6.09h9.1c2.5,15.19,13.27,25.62,27.13,25.62M882.14,696.03c5.76.08,11.94-2.25,17.03-6.18l33.38,7.09,13.19-9.85-3.09-4.42c-2.34.58-6.18,1.09-12.6,1.09h-24.37c3.26-3.51,5.51-7.18,6.93-11.69l1.34-4.17h21.03l1.67-6.34h-20.78l4.42-14.19c2-6.43,4.17-9.1,8.18-9.1,2.67,0,4.42,1.34,5.93,4.09,1.42,2.67,3.42,4.34,6.18,4.34,3.34,0,6.18-2.5,6.18-6.18,0-6.43-8.01-9.6-15.52-9.6-12.35,0-20.95,7.85-24.12,19.28l-3.26,11.35h-9.68l-1.67,6.34h9.51l-1.84,6.51c-1.25,4.26-2.42,7.09-4.34,9.35h-13.69v12.27ZM836.72,695.11h28.71v-5.76c-7.59,0-8.68-1.84-8.68-8.26v-1.42h19.2v-6.18h-19.2v-1.59l2.59-4.17h16.61v-6.18h-12.85l10.1-16.44c3.51-5.68,4.92-6.93,9.43-7.34v-5.59h-23.04v5.59l2.17.08c2.92.08,4.51,1.08,4.51,2.84,0,.83-.33,2.09-1.34,3.76l-12.02,19.86-11.85-20.36c-.84-1.5-1.25-2.59-1.25-3.42,0-1.67,1.5-2.59,4.42-2.67l2.25-.08v-5.59h-27.04v5.59c4.92.33,6.18,1.67,9.26,6.68l10.27,17.11h-12.6v6.18h16.36l2.75,4.67v1.08h-19.11v6.18h19.11v1.42c0,6.43-1.17,8.26-8.76,8.26v5.76ZM788.78,688.52l26.71-24.12v-1.5l-26.71-24.12-4.59,4.42,15.19,16.78-56.17-1.92v11.02l56.25-1.92-15.27,16.86,4.59,4.51ZM709.25,637.86c7.09,0,11.52,6.09,11.52,14.52s-4.59,13.94-11.6,13.94c-6.59,0-11.43-5.26-11.43-14.19,0-8.35,4.34-14.27,11.52-14.27M709.17,630.84c-13.94,0-23.95,9.6-23.95,22.62s9.85,20.62,20.2,20.62c6.09,0,11.18-2.34,14.44-6.68l.75.33c-1.25,6.01-4.17,11.27-8.6,14.86-5.67,4.59-13.69,6.76-22.62,6.51v6.34c9.68.58,19.36-1.08,27.71-6.34,10.02-6.34,16.44-17.11,16.44-31.38,0-16.36-9.77-26.88-24.37-26.88M644.09,646.7c0-4.84,3.92-8.76,10.43-8.76s11.35,4.09,11.35,9.76c0,4.92-3.42,8.51-8.51,10.18l-3.17-1.25c-5.59-2.09-10.1-5.09-10.1-9.93M654.68,689.6c-7.59,0-12.77-5.01-12.69-11.02,0-5.43,3.67-9.43,9.6-11.02l3.92,1.5c5.84,2.25,10.85,5.51,10.85,11.02s-4.76,9.51-11.68,9.51M654.27,696.78c15.11,0,24.54-8.35,24.54-18.86,0-8.51-5.26-13.19-13.27-16.69v-.5c6.34-2.25,11.18-7.18,11.18-13.86,0-8.35-7.68-16.02-21.53-16.02s-23.04,7.43-23.04,17.86c0,7.1,4.34,12.1,11.27,15.52v.33c-7.6,2.42-13.1,7.85-13.1,15.11,0,9.1,8.85,17.11,23.95,17.11M585.64,689.77v5.34h14.36l25.46-54.67v-8.26h-42.57l-5.26,19.7h5.84c2.25-7.26,5.59-9.43,13.02-9.43h21.53l-23.45,35.3c-3.34,5.09-7.43,10.35-8.93,12.02M550.76,689.77c-7.09,0-11.52-6.09-11.52-14.52s4.59-13.94,11.6-13.94c6.59,0,11.43,5.26,11.43,14.19,0,8.35-4.34,14.27-11.52,14.27M550.84,696.78c13.94,0,23.95-9.6,23.95-22.62s-9.85-20.62-20.2-20.62c-6.09,0-11.18,2.34-14.44,6.68l-.75-.33c1.25-6.01,4.17-11.27,8.6-14.86,5.67-4.59,13.69-6.76,22.62-6.51v-6.34c-9.68-.58-19.36,1.08-27.71,6.34-10.02,6.34-16.44,17.11-16.44,31.38,0,16.36,9.77,26.87,24.37,26.87M494.78,696.78c12.85,0,23.62-9.01,23.62-21.78s-10.02-20.87-21.87-20.87c-4.67,0-9.43,1.34-13.35,4.17l-.67-.33,2.25-15.94h29.63l1.25-9.85h-37.64l-3.26,32.47,5.34,1.75c3.51-2.5,7.85-3.92,11.85-3.92,7.51,0,13.77,4.92,13.77,12.44s-6.26,12.18-13.77,12.18c-6.26,0-12.35-3.34-16.44-8.51l-4.51,3.42c5.43,8.85,13.61,14.77,23.79,14.77M423.74,668.24l20.37-25.54v25.54h-20.37ZM444.1,695.11h11.1v-17.53h10.43v-9.35h-10.43v-36.06h-11.1l-29.05,36.39v9.02h29.05v17.53ZM384.56,696.78c12.77,0,23.62-9.01,23.62-21.28s-10.85-19.11-21.28-17.69l18.53-17.78v-7.85h-39.31l-5.26,19.78h5.84c2.42-7.76,5.92-10.1,13.77-10.1h12.85l-18.7,19.7,2.75,3.42c2-.92,4.09-1.34,6.09-1.34,6.18,0,12.02,3.92,12.02,11.18s-6.34,12.27-13.77,12.27c-6.26,0-12.35-3.34-16.44-8.51l-4.51,3.42c5.43,8.85,13.6,14.77,23.79,14.77M305.85,695.11h43.65l5.17-19.78h-5.76c-2.34,7.35-5.76,9.77-13.44,9.77h-15.11l10.27-7.68c6.26-4.59,10.93-9.1,14.02-13.35,3.09-3.92,5.09-8.35,5.09-13.44,0-11.27-9.1-19.7-19.95-19.7-10.18,0-18.78,7.34-24.37,17.61l5.01,3.59c4.26-6.01,9.51-10.1,15.44-10.1,6.43,0,11.18,4.59,11.18,11.27-.08,3.26-1.17,6.68-3.67,10.18-2.75,3.84-6.43,7.43-11.43,11.77l-16.11,14.1v5.76ZM262.56,695.11h36.97v-5.76h-5.17c-6.09,0-6.76-.5-6.76-6.68v-51.41h-5.76l-23.12,19.36,4.42,5.34,13.35-11.18v37.89c0,6.09-.67,6.68-6.93,6.68h-7.01v5.76ZM215.27,663.4c0-16.36,3.34-25.62,12.35-25.62,4.84,0,8.09,2.84,10.01,8.18l-21.78,27.88c-.42-3.09-.58-6.59-.58-10.43M227.71,689.85c-4.76,0-7.93-2.67-9.93-7.68l21.7-27.71c.33,2.92.5,6.18.5,9.76,0,16.19-3.51,25.62-12.27,25.62M227.71,696.78c15.11,0,24.79-12.85,24.79-32.97s-9.68-32.97-24.87-32.97-24.79,12.77-24.79,32.97,9.76,32.97,24.87,32.97"/>
    <path class="st2" d="M907.31,604.45c4.26,0,7.85-3.5,7.85-7.68s-3.59-7.68-7.85-7.68-7.93,3.51-7.93,7.68,3.59,7.68,7.93,7.68M881.02,604.45c4.26,0,7.84-3.5,7.84-7.68s-3.59-7.68-7.84-7.68-7.93,3.51-7.93,7.68,3.59,7.68,7.93,7.68M854.64,604.45c4.26,0,7.84-3.5,7.84-7.68s-3.59-7.68-7.84-7.68-7.93,3.51-7.93,7.68,3.59,7.68,7.93,7.68M804.28,603.11h32.63l4.42-16.78h-5.34c-2,6.18-5.09,7.85-10.93,7.85h-9.43l23.87-25.62v-7.18h-33.22l-4.51,16.69h5.34c2.09-6.09,5.09-7.76,10.93-7.76h10.18l-23.95,25.54v7.26ZM759.09,623.56c3.34,0,6.68-1.08,9.26-2.75,3.59-2.42,6.68-6.76,9.18-12.35l16.19-36.64c1.75-4.01,3.51-5.34,6.51-5.34v-5.09h-17.86v5.09l1.92.08c1.84,0,2.84.58,2.84,1.92,0,.58-.17,1.33-.58,2.25l-8.26,19.36-8.1-18.86c-.58-1.42-.83-2-.83-2.59,0-1.17,1-2.09,2.92-2.09l1.75-.08v-5.09h-21.53v5.09c3.09,0,4.76,1.42,6.51,5.34l13.61,30.8-2,4.34c-1.75,4.01-3.26,6.43-6.01,6.43-1.33,0-2.42-.58-3.34-1.42-1.25-1-2.67-1.84-4.92-1.84-3.84,0-6.34,2.92-6.34,6.18,0,3.67,3.09,7.26,9.1,7.26M727.61,603.11h22.78v-5.09c-3.34,0-5.51-1.59-8.01-4.76l-10.1-12.44,9.02-10.01c2.67-2.92,4.76-4.34,8.35-4.34v-5.09h-18.28v5.01l1,.08c1.34,0,1.92.5,1.92,1.34,0,.67-.5,1.5-1.42,2.59l-5.26,6.01-4.51-5.93c-.92-1.08-1.25-1.84-1.25-2.5,0-.92.67-1.5,2-1.5l1.08-.08v-5.01h-22.62v5.09c3.34,0,5.51,1.5,7.93,4.59l9.52,11.85-9.93,10.77c-2.67,2.84-4.84,4.34-8.26,4.34v5.09h18.61v-5.01l-1.17-.08c-1.34-.08-2-.58-2-1.34s.33-1.42,1.5-2.67l5.84-6.68,5.17,6.59c.92,1.08,1.34,2,1.34,2.59,0,.83-.67,1.42-2.17,1.5l-1.08.08v5.01ZM660.81,571.15l.83,2.17-7.26,18.03-7.34-19.95c-.5-1.34-.75-2.17-.75-2.75,0-1.17.92-2.09,2.84-2.09l1.42-.08v-5.09h-20.87v5.09c3.17,0,5.01,1.5,6.51,5.51l11.6,31.8h8.6l8.51-21.53,7.85,21.53h8.68l11.69-31.88c1.5-4.01,3.26-5.43,6.43-5.43v-5.09h-17.53v5.09l1.84.08c1.92,0,2.92.58,2.92,1.92,0,.58-.25,1.33-.58,2.25l-7.34,20.53-7.18-19.86c-.58-1.34-.84-2.17-.84-2.75,0-1.17,1-2.09,2.92-2.09l1.84-.08v-5.09h-20.62v5.09c2.84,0,4.59,1.34,5.84,4.67M586.37,571.81l12.85,31.97h8.93l12.69-31.63c1.75-4.42,3.51-5.68,6.59-5.68v-5.09h-17.86v5.09l1.92.08c1.84,0,2.92.58,2.92,1.92,0,.58-.25,1.33-.58,2.25l-8.26,21.03-8.01-20.45c-.58-1.42-.83-2.09-.83-2.67,0-1.17,1-2.09,2.92-2.09l1.75-.08v-5.09h-21.53v5.09c3.09,0,4.92,1.34,6.51,5.34M550.27,604.78c5.42,0,9.68-2.59,12.69-6.68h.84l-.17,6.01,17.44-1v-5.09c-5.51,0-7.09-1.34-7.09-5.51v-31.97l-17.44,1.67v5.09c5.51,0,7.09,1.34,7.09,5.51v17.19c-2.5,4.09-6.34,6.09-9.77,6.09-2.17,0-4.01-.75-5.34-2.34-1.34-1.5-2-3.67-2-6.68v-26.54l-17.44,1.67v5.09c5.51,0,7.1,1.34,7.1,5.51v17.11c0,4.51,1.33,8.1,3.67,10.6,2.5,2.75,6.26,4.26,10.43,4.26M512.78,604.78c7.43,0,12.69-4.76,14.94-12.69l-4.92-1.92c-1.67,3.84-4.17,6.18-7.43,6.18-4.67,0-5.68-3.92-5.76-8.18v-1.34l.08-18.7h15.69v-6.76h-15.61v-13.52h-5.09c-2.59,6.43-7.26,11.6-12.69,15.11v5.17h7.51l-.42,19.53v1.42c0,10.1,5.01,15.69,13.69,15.69M473.12,604.86c8.1,0,15.77-5.01,15.69-13.35,0-6.76-5.51-10.6-12.35-13.19l-8.1-3c-3.59-1.34-6.01-2.67-6.09-5.26,0-2.67,2.59-4.26,5.93-4.26,4.92-.08,9.35,3,15.11,10.35h5.34l-4.17-15.61h-4.17l-2.09,2.84c-3.34-2.5-7.43-3.75-11.27-3.75-8.18,0-15.19,4.67-15.11,12.44,0,6.84,5.01,10.68,12.1,13.27l8.01,2.92c4.01,1.42,6.26,3,6.26,5.68,0,2.84-2.84,4.59-6.34,4.59-5.43,0-10.93-4.01-16.44-11.68h-5.34l4.51,17.11h4.26l2.42-3.26c3.67,2.76,7.85,4.17,11.85,4.17M412.51,603.11h23.7v-5.09c-5.26,0-6.68-1.42-6.68-5.76v-14.27c0-4.09,2.42-6.51,6.09-6.51,2,0,3.67.58,5.59.58,3.59,0,6.34-2.84,6.34-6.34s-2.92-6.01-6.76-6.01c-4.17,0-7.93,2.75-10.6,8.18h-.84l.17-8.18h-1.67c-4.34,1.84-10.68,3.51-15.86,4.42v5.09h7.18v23.04c0,4.34-1.42,5.76-6.68,5.76v5.09ZM375.78,581.66c0-8.93,3.84-15.52,11.1-15.61,3.42-.08,6.51,1.42,8.68,4.09v19.95c-2.42,3.84-6.09,6.01-9.93,6.01-6.43,0-9.85-5.93-9.85-14.44M386.63,559.71c-12.44,0-21.95,9.51-21.95,23.95,0,13.52,7.93,21.12,17.44,21.12,5.34,0,9.93-2.59,12.77-6.68h.92l-.17,13.35c0,4.34-1.42,5.76-6.76,5.76v5.09h23.7v-5.09c-5.26,0-6.68-1.42-6.68-5.76v-51.75h-5.09l-2.59,2.75c-3.76-1.84-7.68-2.75-11.6-2.75"/>
    <path class="st2" d="M1021.86,514.68v-19.95c2.42-3.84,6.09-6.01,9.93-6.01,6.43,0,9.85,5.93,9.85,14.44,0,8.93-3.84,15.53-11.1,15.61-3.42.08-6.51-1.42-8.68-4.09M1004.83,542.64h23.7v-5.09c-5.26,0-6.68-1.42-6.68-5.76v-8.26c2.92,1,5.93,1.59,8.93,1.59,12.44,0,21.95-9.52,21.95-23.95,0-13.52-7.93-21.12-17.44-21.12-5.34,0-9.93,2.59-12.77,6.68h-.83l.17-6.68h-1.67c-4.34,1.84-10.68,3.51-15.78,4.42v5.09h7.1v42.23c0,4.34-1.34,5.76-6.68,5.76v5.09ZM980.05,518.35c-7.26,0-10.77-7.26-10.77-16.61s3.59-15.11,10.18-15.11c7.26,0,10.85,7.51,10.85,16.69s-3.67,15.02-10.27,15.02M979.72,525.11c12.02,0,21.95-9.18,21.95-22.54s-9.68-22.62-21.95-22.62-21.87,8.85-21.87,22.45,9.43,22.7,21.87,22.7M903.56,523.44h23.45v-5.09c-5.09,0-6.43-1.42-6.43-5.76v-17.86c2.25-3.42,5.68-6.01,10.1-6.01,2.42,0,4.34.75,5.76,2.25,1.5,1.67,2.17,3.92,2.17,6.93v14.69c0,4.34-1.34,5.76-6.43,5.76v5.09h23.45v-5.09c-5.34,0-6.68-1.42-6.68-5.76v-17.19c0-4.67-1.42-8.43-3.84-11.02-2.59-2.75-6.59-4.34-10.93-4.34-5.51,0-10.1,2.59-12.94,6.68h-.83l.17-6.68h-1.67c-4.34,1.84-10.68,3.51-15.86,4.42v5.09h7.18v23.04c0,4.34-1.42,5.76-6.68,5.76v5.09ZM849.38,523.44h22.7v-5.09c-4.76,0-6.01-1.42-6.01-5.76v-18.36c2.42-3.51,6.01-5.51,9.43-5.51,2.09,0,4.01.67,5.34,2.25,1.34,1.5,2.09,3.76,2.09,6.76v14.86c0,4.34-1.33,5.76-6.09,5.76v5.09h23.04v-5.09c-5.26,0-6.68-1.42-6.68-5.76v-17.61c0-4.59-1.25-8.18-3.67-10.68-2.5-2.75-6.34-4.26-10.6-4.26-5.68,0-10.18,2.67-13.27,7.18h-.92c-.42-1-1.08-2-1.92-2.84-2.59-2.84-6.43-4.34-10.68-4.34-5.42,0-9.77,2.5-12.85,6.68h-.83l.17-6.68h-1.67c-4.34,1.84-10.68,3.51-15.86,4.42v5.09h7.18v23.04c0,4.34-1.42,5.76-6.68,5.76v5.09h23.37v-5.09c-5.01,0-6.34-1.42-6.34-5.76v-17.86c2.5-3.92,6.26-6.01,9.77-6.01,2.17,0,4.01.67,5.34,2.25,1.33,1.59,2,3.76,2,6.76v14.86c0,4.34-1.33,5.76-6.34,5.76v5.09ZM794.27,523.44h23.7v-5.09c-5.26,0-6.68-1.42-6.68-5.76v-53.33h-1.67c-4.34,1.84-10.68,3.5-15.77,4.42v5.09h7.09v43.82c0,4.34-1.42,5.76-6.68,5.76v5.09ZM776.02,523.44h15.52v-5.09c-1-.42-3.76-2.17-7.43-4.76l-17.19-12.1,14.1-10.1c4.26-3.09,6.76-4.34,9.43-4.51v-5.17h-23.7v5.17h.67c2.17,0,3.76.67,3.76,2.34,0,1.08-.75,2.34-2.5,3.59l-10.77,8.1v-41.65h-1.67c-4.34,1.84-10.68,3.5-15.78,4.42v5.09h7.09v43.82c0,4.34-1.42,5.76-6.68,5.76v5.09h22.2v-5.09c-4.09,0-5.17-1.42-5.17-5.76v-10.77l18.11,21.62ZM727.8,473.95c4.34,0,7.93-3.51,7.93-7.76s-3.59-7.6-7.93-7.6-7.85,3.51-7.85,7.6,3.59,7.76,7.85,7.76M715.86,543.89c11.94,0,17.36-8.76,17.36-20.86v-42.98h-1.67c-4.34,1.84-10.68,3.51-15.77,4.42v5.09h7.09v42.06c0,2.59-1.17,3.92-2.84,3.92-1.42,0-2.25-.83-3.26-2.42-1.42-2.25-3.26-3.59-5.76-3.59-3.42,0-6.18,2.59-6.18,6.18,0,2.09.92,3.92,2.5,5.34,2.09,1.75,5.17,2.84,8.51,2.84M702.98,473.95c4.34,0,7.93-3.51,7.93-7.76s-3.59-7.6-7.93-7.6-7.85,3.51-7.85,7.6,3.59,7.76,7.85,7.76M691.37,523.44h23.62v-5.09c-5.26,0-6.59-1.42-6.59-5.76v-32.55h-1.67c-4.34,1.84-10.68,3.51-15.86,4.42v5.09h7.18v23.04c0,4.34-1.42,5.76-6.68,5.76v5.09ZM635.66,523.44h23.45v-5.09c-5.09,0-6.43-1.42-6.43-5.76v-17.86c2.25-3.42,5.68-6.01,10.1-6.01,2.42,0,4.34.75,5.76,2.25,1.5,1.67,2.17,3.92,2.17,6.93v14.69c0,4.34-1.34,5.76-6.43,5.76v5.09h23.45v-5.09c-5.34,0-6.68-1.42-6.68-5.76v-17.19c0-4.67-1.42-8.43-3.84-11.02-2.59-2.75-6.59-4.34-10.93-4.34-5.51,0-10.1,2.59-12.94,6.68h-.84l.17-27.46h-1.67c-4.34,1.84-10.68,3.5-15.78,4.42v5.09h7.09v43.82c0,4.34-1.42,5.76-6.68,5.76v5.09ZM607.19,505.33c-5.01,0-7.68-3.76-7.68-9.26s2.75-9.1,7.6-9.1,7.51,3.67,7.51,9.35-2.75,9.01-7.43,9.01M607.27,537.38c-6.51,0-11.1-1.33-11.1-5.67,0-2.92,2-4.42,5.01-5.84h14.11c4.92,0,7.43,1.5,7.43,4.59,0,5.01-7.18,6.93-15.44,6.93M605.43,543.89c12.27,0,26.71-4.34,26.71-16.02,0-7.18-5.51-11.02-13.94-11.02l-16.19-.08c-3.51,0-5.51-1.08-5.51-3.17,0-1.92,1.75-2.75,3.84-3.42,2.09.67,4.42,1,7.01,1,10.52,0,18.28-5.42,18.28-14.1,0-3.17-1.08-5.84-3.17-7.68v-.92h10.35v-10.1h-1.75c-4.17,1.84-9.01,3.42-14.19,4.67-2.84-1.17-6.18-1.92-9.77-1.92-10.93,0-18.7,6.01-18.7,15.11,0,4.76,2.34,8.93,6.68,11.52v1c-4.92,1.67-7.26,4.59-7.26,8.1s2.59,6.43,6.43,7.18v1c-5.26,1.75-8.43,4.59-8.43,8.76,0,7.26,9.01,10.1,19.61,10.1M556.12,523.44h23.7v-5.09c-5.26,0-6.68-1.42-6.68-5.76v-24.12h11.77v-6.76h-11.77v-7.18c0-4.59,2.25-7.35,6.09-7.35,2.25,0,3.92,1.08,5.34,3.42,1.59,2.42,3.51,3.84,6.09,3.84,3.42,0,6.09-2.67,6.09-6.01,0-2.34-1.17-4.26-2.92-5.76-2.59-2.17-6.59-3.42-10.93-3.42-11.35,0-20.11,6.76-20.11,21.28v1.17h-7.18v6.76h7.18v24.12c0,4.34-1.42,5.76-6.68,5.76v5.09ZM522.47,494.98c1.08-5.26,4.26-8.6,8.93-8.6s7.85,3.26,8.01,8.6h-16.94ZM532.24,525.11c9.1,0,15.61-5.84,19.03-14.44l-4.92-2.25c-2.67,5.09-6.93,7.26-11.69,7.26-7.26,0-12.1-6.26-12.6-14.69h28.29c.17-1,.25-2.17.25-3.34,0-9.43-6.68-17.61-17.78-17.61-12.02,0-21.12,9.52-21.12,22.79.08,12.77,8.76,22.28,20.53,22.28M472.09,501.99c0-8.93,3.84-15.52,11.1-15.61,3.42-.08,6.51,1.42,8.68,4.09h.08v19.78c-2.42,4.01-6.18,6.18-10.02,6.18-6.43,0-9.85-5.93-9.85-14.44M482.94,480.04c-12.44,0-21.95,9.52-21.95,23.95,0,13.52,7.93,21.12,17.44,21.12,5.34,0,9.93-2.59,12.77-6.68h.83l-.08,6.01,17.36-1v-5.09c-5.51,0-7.09-1.34-7.09-5.51v-53.58h-1.67c-4.34,1.84-10.68,3.5-15.77,4.42v5.09h7.18v12.94c-2.92-1.09-6.01-1.67-9.01-1.67M436.73,525.11c9.1,0,15.61-5.84,19.03-14.44l-4.92-2.25c-2.59,4.76-6.51,7.18-11.6,7.18-7.51,0-12.69-6.93-12.69-16.02,0-7.6,4.09-12.94,10.1-12.94,3.51,0,5.68,2,6.34,5.59.67,3.76,2.92,5.93,6.09,5.93,3.67,0,6.18-2.67,6.18-6.26,0-6.84-8.51-11.93-17.53-11.93-11.93,0-21.53,9.18-21.53,22.87.08,12.69,8.76,22.28,20.53,22.28M379.49,514.68v-19.95c2.42-3.84,6.09-6.01,9.93-6.01,6.43,0,9.85,5.93,9.85,14.44,0,8.93-3.84,15.53-11.1,15.61-3.42.08-6.51-1.42-8.68-4.09M388.42,525.11c12.44,0,21.95-9.52,21.95-23.95,0-13.52-7.93-21.12-17.44-21.12-5.34,0-9.93,2.59-12.77,6.68h-.83l.17-27.46h-1.67c-4.34,1.84-10.77,3.5-15.86,4.42v5.09h7.18v48.58c5.84,5.01,12.6,7.76,19.28,7.76M327.17,501.99c0-8.93,3.84-15.52,11.1-15.61,3.42-.08,6.51,1.42,8.68,4.09v19.95c-2.42,3.84-6.09,6.01-9.93,6.01-6.43,0-9.85-5.93-9.85-14.44M338.02,480.04c-12.44,0-21.95,9.52-21.95,23.95,0,13.52,7.93,21.12,17.44,21.12,5.34,0,9.93-2.59,12.77-6.68h.92l-.08,5.93,15.94-.92v-5.09c-4.42-.25-5.76-1.59-5.76-5.17v-33.14h-5.09l-2.59,2.75c-3.76-1.84-7.68-2.75-11.6-2.75M283.96,512.51c0-2.84,2.09-4.84,7.43-6.59l5.26-1.59v7.18c-1.84,3.59-4.76,5.67-7.76,5.67-2.75,0-4.92-1.84-4.92-4.67M296.73,524.36l16.02-.92v-5.09c-4.42-.25-5.84-1.59-5.84-5.17v-1.67l.17-15.61v-2.17c0-9.18-5.26-13.69-14.86-13.69-5.26,0-11.02,1.5-15.19,4.09-4.17,2.59-5.84,5.76-5.84,8.51,0,3.34,2.5,6.01,6.01,6.01,3,0,5.84-2.09,6.18-6.26.33-4.01,3.17-6.09,6.84-6.09s6.43,2.34,6.43,5.93v7.26l-9.85,2.42c-9.18,2.25-14.19,6.76-14.19,12.85,0,5.67,4.51,10.35,11.02,10.35,4.17,0,9.01-1.92,12.35-6.68h.83l-.08,5.93ZM238.78,512.51c0-2.84,2.09-4.84,7.43-6.59l5.26-1.59v7.18c-1.84,3.59-4.76,5.67-7.76,5.67-2.75,0-4.92-1.84-4.92-4.67M251.55,524.36l16.02-.92v-5.09c-4.42-.25-5.84-1.59-5.84-5.17v-1.67l.17-13.1v-2c.08-10.85-7.01-16.36-15.77-16.36s-16.11,5.34-20.2,14.27l4.67,2.92c3.17-5.17,7.85-8.01,12.6-8.01,4.01,0,8.26,2.17,8.26,7.68v2.59l-9.85,2.42c-9.18,2.25-14.19,6.76-14.19,12.85,0,5.67,4.51,10.35,11.02,10.35,4.17,0,9.01-1.92,12.35-6.68h.83l-.08,5.93Z"/>
    <path class="st2" d="M982.81,445.11c4.26,0,7.84-3.51,7.84-7.68s-3.59-7.68-7.84-7.68-7.93,3.51-7.93,7.68,3.59,7.68,7.93,7.68M979.22,423.91h5.93l.83-7.09h5.26c9.43,0,15.61-5.42,15.61-13.94,0-12.1-12.85-23.37-25.04-23.37-5.93,0-8.35,3.26-8.35,6.43s2.25,6.18,6.59,6.18c3.26,0,5.01-1.75,8.35-1.75,5.17,0,9.35,3.42,9.35,9.01,0,4.76-3.26,7.85-7.76,7.85h-12.85l2.09,16.69ZM901.93,443.77h47.83l6.51-24.45h-6.18c-3.59,11.18-8.1,14.19-19.78,14.19h-15.94l39.81-44.32v-8.35h-49.74l-5.76,21.87h6.18c2.92-9.1,6.59-11.6,16.19-11.6h20.7l-39.81,44.32v8.35ZM851.06,443.77h28.71v-5.76c-7.59,0-8.76-1.84-8.76-8.26v-8.68l16.69-27.29c3.51-5.68,4.93-6.93,9.52-7.35v-5.59h-23.29v5.59l2.25.08c2.84.08,4.51,1.09,4.51,2.84,0,.83-.42,2.09-1.42,3.76l-11.85,19.7-11.85-20.2c-.83-1.5-1.25-2.59-1.25-3.42,0-1.67,1.5-2.59,4.42-2.67l2.25-.08v-5.59h-27.46v5.59c4.92.33,6.18,1.67,9.26,6.68l16.94,28.21v8.43c0,6.43-1.08,8.26-8.68,8.26v5.76ZM763.03,438.1v5.67h26.21v-5.67l-2.92-.17c-2.42-.17-3.84-1.17-3.84-2.67,0-.92.58-1.92,1.67-3.34l11.85-13.77,10.93,13.69c1.25,1.59,1.84,2.84,1.84,3.76,0,1.42-1.17,2.09-3.51,2.34l-3.09.17v5.67h29.71v-5.67c-4.51-.42-7.43-2.5-11.69-7.68l-16.36-20.28,13.6-15.52c4.59-5.26,8.18-7.85,12.85-8.1v-5.68h-26.21v5.68l2.59.08c2.59.08,3.92,1,3.92,2.5,0,1-.67,2.17-1.75,3.51l-10.02,11.68-9.18-11.77c-1.08-1.42-1.59-2.59-1.59-3.34,0-1.42,1.08-2.42,3.59-2.59l2.67-.08v-5.68h-29.8v5.68c4.34.33,7.76,2.42,12.1,7.76l14.44,18.11-15.69,17.78c-4.42,5.09-7.76,7.43-12.35,7.93M711.12,393.86l1.17,3.67-10.1,30.88-10.93-33.3c-.58-1.92-1-3.42-1-4.59,0-2.34,1.34-3.76,3.76-3.92h1.42v-5.76h-24.2v5.76c4.59,0,6.26,2.34,8.18,8.35l16.36,49.66h8.93l11.52-35.22,11.6,35.22h9.01l16.03-49.91c1.84-5.76,3.59-8.1,8.1-8.1v-5.76h-22.12v5.76h2.59c3.09.17,4.42,1.25,4.42,3.42,0,1.09-.42,2.59-1.09,4.59l-10.93,34.05-10.93-33.72c-.75-2.09-1.17-3.67-1.17-4.84,0-2.17,1.34-3.34,4.59-3.51h2.17v-5.76h-24.79v5.76c4.17,0,5.76,2.17,7.43,7.26M610.08,394.7l19.95,49.91h9.35l19.78-49.58c2.59-6.68,4.42-8.43,9.26-8.43v-5.76h-23.87v5.76h2.84c3.34.08,4.92,1,4.92,3.09,0,1.17-.33,2.59-1.09,4.34l-14.61,37.14-14.44-36.81c-.67-1.67-1.09-3.25-1.09-4.51,0-2.17,1.5-3.17,4.84-3.26h2.92v-5.76h-27.96v5.76c4.76,0,6.59,1.59,9.18,8.1M563.15,445.44c8.68,0,15.44-3.09,20.7-9.52,4.26-5.26,5.51-10.6,5.51-23.29v-17.78c0-6.43,1.08-8.26,8.68-8.26v-5.76h-26.21v5.76c7.59,0,8.68,1.84,8.68,8.26v22.03c0,12.27-5.76,18.78-16.86,18.78-7.93,0-14.02-4.09-15.69-11.6-.42-2-.59-4.34-.59-7.43v-21.78c0-6.43,1.17-8.26,8.76-8.26v-5.76h-28.96v5.76c7.59,0,8.76,1.84,8.76,8.26v21.28c0,4.67.33,8.35,1,11.35,2.76,12.02,13.19,17.95,26.21,17.95M479.06,443.77h30.8v-5.76c-8.51,0-9.76-1.84-9.76-8.26v-41.48h1.25c10.27,0,14.86,3.75,18.28,14.44h6.26l-5.93-21.87h-51.08l-5.84,21.87h6.18c3.42-10.68,8.01-14.44,18.28-14.44h1.34v41.48c0,6.43-1.34,8.26-9.77,8.26v5.76ZM436.66,445.44c11.6,0,21.53-7.1,21.45-18.36,0-9.93-7.18-15.36-17.36-19.2l-11.94-4.34c-6.43-2.34-10.02-4.84-10.02-9.26,0-4.92,4.26-7.68,10.1-7.68,8.85,0,14.86,5.42,22.62,16.11h6.18l-5.93-22.2h-5.01l-3.34,4.51c-4.67-3.84-10.18-5.43-15.52-5.43-11.43,0-20.78,6.51-20.78,17.28,0,9.52,6.84,14.86,16.78,18.53l12.02,4.42c7.18,2.59,10.43,5.43,10.43,9.85,0,5.17-4.42,8.6-11.1,8.6-10.02,0-17.61-7.51-25.12-18.95h-6.26l6.68,24.79h5.01l3.67-5.01c5.17,4.26,11.35,6.34,17.44,6.34M361.16,410.14v-22.12h8.93c4.92,0,8.18.67,10.02,1.84,3.34,1.92,4.84,5.42,4.84,9.18s-1.5,7.26-4.84,9.35c-1.84,1.09-5.09,1.75-10.02,1.75h-8.93ZM341.21,443.77h27.96v-5.76c-6.93,0-8.01-1.84-8.01-8.26v-14.02h.08l23.7,28.04h16.61v-5.76c-1-.42-4.34-2.59-9.43-6.18l-21.37-15.36h2.75c6.76,0,10.27-.75,12.94-1.67,7.6-3.01,11.52-9.6,11.52-16.27s-3.92-13.02-11.43-16.02c-2.75-1-6.09-1.67-13.02-1.67h-32.3v5.76c7.6,0,8.68,1.84,8.68,8.26v34.89c0,6.43-1.09,8.26-8.68,8.26v5.76ZM307.21,437.93c-12.35,0-19.2-11.6-19.2-26.46s6.84-24.37,18.53-24.37,19.11,11.35,19.11,26.46-6.84,24.37-18.45,24.37M317.56,461.72h16.78v-5.51c-.75-.08-5.67-2.42-21.2-11.35,15.02-2.76,25.62-15.61,25.62-32.22,0-18.78-13.52-33.05-31.97-33.05s-31.88,13.94-31.88,32.72,12.44,31.97,29.71,33.05l6.68,8.18c4.76,5.93,6.26,8.18,6.26,8.18"/>
    <path class="st2" d="M1113.36,329.29v-26.46h5.84c5.76,0,9.27.92,11.43,2.25,3.59,2.25,5.17,6.68,5.17,10.93s-1.58,8.51-5.17,10.93c-2.17,1.34-5.68,2.34-11.43,2.34h-5.84ZM1093.41,358.41h28.71v-5.76c-7.59,0-8.76-1.84-8.76-8.26v-7.85h8.76c6.84,0,11.18-.84,14.69-2.42,8.1-3.5,12.1-10.77,12.1-18.11s-4.01-14.77-12.1-18.11c-3.51-1.67-7.76-2.42-14.69-2.42h-28.71v5.76c7.6,0,8.68,1.84,8.68,8.26v34.89c0,6.43-1.08,8.26-8.68,8.26v5.76ZM1059.41,352.57c-12.35,0-19.2-11.6-19.2-26.46s6.84-24.37,18.53-24.37,19.11,11.35,19.11,26.46-6.84,24.37-18.44,24.37M1059.07,360.08c18.28,0,31.88-13.94,31.88-32.8s-13.52-33.05-31.97-33.05-31.88,13.94-31.88,32.72,13.52,33.13,31.97,33.13M1007.76,359.08h9.18v-49.58c0-6.43,1.09-8.26,8.76-8.26v-5.76h-25.46v5.76c7.59,0,8.76,1.84,8.76,8.26v32.13l-33.8-46.15h-20.28v5.76c7.6,0,8.68,1.84,8.68,8.26v34.89c0,6.43-1.08,8.26-8.68,8.26v5.76h25.37v-5.76c-7.6,0-8.76-1.84-8.76-8.26v-34.8l36.22,49.49ZM900.59,359.08h7.68l17.61-54.67,4.01,39.98c.67,6.51,0,8.26-7.59,8.26v5.76h28.79v-5.76c-7.6,0-9.18-1.75-9.85-8.26l-3.59-34.89c-.67-6.51,0-8.26,7.6-8.26v-5.76h-24.29l-14.52,45.4-14.35-45.4h-25.04v5.76c7.59,0,8.26,1.75,7.59,8.26l-3.59,34.89c-.67,6.51-2.25,8.26-9.85,8.26v5.76h25.46v-5.76c-7.6,0-8.26-1.75-7.6-8.26l4.09-39.81,17.44,54.5ZM853.91,358.41l6.51-24.46h-6.26c-3.76,12.35-9.6,17.03-21.95,17.03h-9.01v-41.48c0-6.43,1.17-8.26,8.76-8.26v-5.76h-28.71v5.76c7.6,0,8.68,1.84,8.68,8.26v34.89c0,6.43-1.08,8.26-8.68,8.26v5.76h50.66ZM782.7,358.41h17.03v-5.76c-1.17-.5-4.42-2.67-9.1-6.18l-26.21-19.78,19.2-15.86c7.68-6.59,12.6-9.52,15.61-9.6v-5.76h-26.21v5.76c3.34.17,4.84,1,4.84,2.75,0,1.33-.84,2.59-3.67,5.01l-19.7,17.28v-16.78c0-6.43,1.17-8.26,8.76-8.26v-5.76h-28.71v5.76c7.6,0,8.68,1.84,8.68,8.26v34.89c0,6.43-1.08,8.26-8.68,8.26v5.76h28.71v-5.76c-7.59,0-8.76-1.84-8.76-8.26v-17.28l28.21,31.3ZM702.6,360.08c5.26,0,9.85-1.59,13.35-4.92,3.84-3.84,6.18-9.85,6.18-18.2v-27.46c0-6.43,1.09-8.26,8.68-8.26v-5.76h-29.05v5.76c7.93,0,9.1,1.84,9.1,8.26v34.64c0,5.17-1.5,8.43-5.01,8.43-2.34,0-3.59-1.67-4.76-4.92-1.25-3.76-3.92-5.68-7.01-5.68-4.01,0-6.93,3.17-6.93,7.26,0,6.68,7.68,10.85,15.44,10.85M655.24,358.41h28.71v-5.76c-7.6,0-8.76-1.84-8.76-8.26v-34.89c0-6.43,1.17-8.26,8.76-8.26v-5.76h-28.71v5.76c7.59,0,8.68,1.84,8.68,8.26v34.89c0,6.43-1.09,8.26-8.68,8.26v5.76ZM580.38,358.41h28.71v-5.76c-7.6,0-8.76-1.84-8.76-8.26v-14.27h30.3v14.27c0,6.43-1.08,8.26-8.68,8.26v5.76h28.71v-5.76c-7.59,0-8.76-1.84-8.76-8.26v-34.89c0-6.43,1.17-8.26,8.76-8.26v-5.76h-28.71v5.76c7.59,0,8.68,1.84,8.68,8.26v13.35h-30.3v-13.35c0-6.43,1.17-8.26,8.76-8.26v-5.76h-28.71v5.76c7.6,0,8.68,1.84,8.68,8.26v34.89c0,6.43-1.09,8.26-8.68,8.26v5.76ZM546.95,360.08c9.6,0,18.78-4.09,25.2-11.18v-7.26c0-6.51,1-8.35,7.51-8.35v-5.76h-27.71v5.76c8.35,0,9.6,1.84,9.6,8.35v6.68c-3.26,1.67-6.93,2.67-10.6,2.67-12.35,0-23.12-10.1-23.2-26.54,0-12.44,7.26-23.12,19.36-23.12,9.68,0,15.27,6.68,21.03,16.02h6.26l-6.01-22.2h-5.01l-2.42,3.34c-4.17-3-9.1-4.26-14.52-4.26-16.69,0-31.05,14.27-31.05,33.14s14.02,32.72,31.55,32.72M452.23,358.41h28.88v-5.76c-7.76,0-8.93-1.84-8.93-8.26v-13.77h6.43c6.51,0,8.35,1.25,8.35,9.51h5.76v-26.46h-5.76c0,8.35-1.84,9.6-8.35,9.6h-6.43v-20.37h14.19c10.27,0,14.77,3.76,18.28,14.44h6.18l-5.84-21.87h-52.75v5.76c7.6,0,8.68,1.84,8.68,8.26v34.89c0,6.43-1.08,8.26-8.68,8.26v5.76ZM443.72,358.41l5.92-21.87h-6.26c-3.42,10.68-8.01,14.44-18.28,14.44h-14.86v-20.36h5.76c6.51,0,8.35,1.25,8.35,9.51h5.68v-26.46h-5.68c0,8.35-1.84,9.6-8.35,9.6h-5.76v-20.37h13.1c10.27,0,14.77,3.76,18.19,14.44h6.26l-5.84-21.87h-51.66v5.76c7.6,0,8.68,1.84,8.68,8.26v34.89c0,6.43-1.08,8.26-8.68,8.26v5.76h53.42ZM352.97,350.99h-9.76v-48.08h8.51c8.35,0,14.86,2.84,18.78,8.51,3.09,4.26,4.67,9.43,4.67,15.77,0,5.34-1,9.93-2.92,13.6-3.51,6.51-9.93,10.18-19.28,10.18M348.38,358.41c19.11,0,30.21-3.59,36.31-16.53,2.09-4.51,3.17-9.52,3.17-14.94,0-7.51-2.09-14.27-6.51-19.7-7.93-10.35-19.86-11.77-34.39-11.77h-23.7v5.76c7.59,0,8.68,1.84,8.68,8.26v34.89c0,6.43-1.09,8.26-8.68,8.26v5.76h25.12ZM292.06,360.08c12.19,0,22.2-7.09,27.79-19.11l-5.42-2.67c-4.01,7.01-11.18,10.77-18.61,10.77-11.77,0-22.62-9.26-22.62-24.62,0-13.27,8.1-23.12,19.53-23.12,9.52,0,15.27,6.68,20.95,16.02h6.26l-6.01-22.2h-5.01l-2.5,3.34c-4.09-2.92-9.18-4.26-14.44-4.26-16.69,0-31.05,14.02-31.05,33.39.08,18.7,14.36,32.47,31.13,32.47M218.99,322.02v-19.36h8.1c4.67,0,7.76.92,9.68,2.42,2.09,1.67,3.09,4.09,3.09,7.01s-1.08,5.43-3.17,7.26c-2.09,1.67-5.01,2.67-9.43,2.67h-8.26ZM229.26,351.24h-10.27v-22.03h9.18c5.09,0,8.51,1.08,10.93,3.09,2.25,2,3.51,4.76,3.51,8.18,0,2.92-1,5.59-3,7.6-2.42,2.34-6.09,3.17-10.35,3.17M230.76,358.41c8.51,0,14.27-1.59,18.36-4.67,4.01-3.09,6.34-7.43,6.34-12.77,0-9.52-7.26-14.44-16.19-15.27v-.83c7.18-1.09,13.19-5.93,13.19-13.52,0-5.09-2.25-9.01-5.93-11.68-4.17-3.09-9.68-4.17-17.44-4.17h-30.05v5.76c7.6,0,8.68,1.84,8.68,8.26v34.89c0,6.43-1.08,8.26-8.68,8.26v5.76h31.71ZM150.04,332.96l9.76-24.87,9.76,24.87h-19.53ZM186.34,344.56l-19.95-49.91h-9.35l-19.78,49.58c-2.59,6.68-4.42,8.43-9.26,8.43v5.76h23.87v-5.76h-2.84c-3.34-.08-4.92-1-4.92-3.09,0-1.17.33-2.59,1.08-4.34l2-5.09h25.21l1.84,4.76c.67,1.67,1.09,3.25,1.09,4.51,0,2.17-1.5,3.17-4.84,3.26h-2.92v5.76h27.96v-5.76c-4.76,0-6.59-1.59-9.18-8.1"/>
    <path class="st2" d="M1006.95,251.63c4.26,0,7.84-3.51,7.84-7.68s-3.59-7.68-7.84-7.68-7.93,3.51-7.93,7.68,3.59,7.68,7.93,7.68M1003.94,230.43h5.93l5.26-43.23-1.25-1.17-14.61,5.84,4.67,38.56ZM953.28,221.83c2.09-5.01,5.84-8.76,10.43-8.76,3.84,0,6.68,2.67,6.68,7.09l-.08,1.67h-17.03ZM958.96,251.88c8.51,0,15.11-4.59,20.03-12.27l-4.51-3.01c-3.51,4.51-7.68,6.43-12.1,6.43-7.01,0-10.85-5.26-10.85-12.44,0-.92.08-1.84.17-2.75h29.21c.33-1.67.5-3.42.5-4.76-.08-9.43-6.93-16.19-17.11-16.19-14.52,0-23.45,13.6-23.45,25.79,0,11.52,7.34,19.2,18.11,19.2M904.29,252.04c4.76,0,9.27-2.34,13.44-6.76h.83l-1.33,5.93,17.69-.92,1-5.09c-5.26.08-6.84-1.17-6.01-5.17l6.51-32.3-17.95,1.67-1,5.09c5.68,0,6.84,1.42,5.93,5.76l-3.34,16.78c-3.84,4.51-7.18,6.51-10.6,6.51-3.84,0-6.43-2.25-6.34-6.51.08-1,.17-2.09.42-3.26l5.17-26.04-17.86,1.67-1,5.09c5.68,0,6.84,1.42,5.93,5.76l-3.26,16.03c-.17,1.17-.33,2.34-.33,3.42-.17,7.59,5.26,12.35,12.1,12.35M851.59,232.85c0-7.35,4.01-19.45,13.52-19.45,3.67,0,6.68,1.92,8.6,5.17l-3.76,18.7c-2.76,3.17-6.26,6.01-10.35,6.01-5.59,0-8.01-4.67-8.01-10.43M864.36,206.89c-15.11,0-24.12,14.52-24.12,27.71,0,9.68,5.09,17.36,14.36,17.36,5.09,0,9.26-2.34,13.1-6.68h.83l-2.75,13.52c-.92,4.42-2.34,5.59-7.76,5.59l-1,5.18h23.62l1-5.18c-4.76,0-6.34-.92-5.43-5.51l8.43-42.23,1.92-9.77-5.09.08-4.17,3.51c-3.92-2.34-8.35-3.59-12.94-3.59M833.74,200.8c4.34,0,7.93-3.5,7.93-7.76s-3.59-7.6-7.93-7.6-7.85,3.51-7.85,7.6,3.59,7.76,7.85,7.76M810.7,250.29h23.7l1-5.09c-4.84-.08-6.34-1-5.51-5.51l6.59-32.8h-1.84c-4.76,1.84-11.27,3.51-16.53,4.34l-1.09,5.09,7.01.08-4.59,23.12c-.92,4.51-2.34,5.68-7.76,5.68l-1,5.09ZM783.84,250.29h23.7l1-5.09c-4.84-.08-6.43-1-5.51-5.51l10.68-53.58h-1.67c-4.84,1.84-11.35,3.51-16.69,4.42l-1,5.09h7.01l-8.76,43.9c-.92,4.51-2.34,5.68-7.76,5.68l-1,5.09ZM752.49,240.28l3.76-18.7c2.75-3.17,6.26-6.01,10.35-6.01,5.59,0,8.01,4.67,8.01,10.43,0,7.35-4.01,19.45-13.52,19.45-3.67,0-6.68-1.92-8.6-5.17M761.84,251.96c15.11,0,24.12-14.52,24.12-27.71,0-9.68-5.09-17.36-14.36-17.36-5.09,0-9.26,2.34-13.1,6.68h-.83l5.67-27.46h-1.67c-4.84,1.84-11.43,3.51-16.69,4.42l-1,5.09h6.93l-9.35,46.57c5.43,6.18,12.6,9.77,20.28,9.77M702.06,244.45c-10.27,0-15.52-7.68-15.52-18.78,0-9.26,5.26-32.13,23.12-32.13,10.18,0,15.44,7.68,15.44,18.86,0,9.1-5.09,32.05-23.04,32.05M701.48,251.96c24.96,0,36.72-23.29,36.72-38.23,0-19.2-15.11-27.63-28.04-27.63-23.2,0-36.56,21.03-36.56,38.06s12.44,27.79,27.88,27.79M612.92,200.13c0-5.09,3.51-7.85,7.09-7.85s6.76,2.59,6.76,7.43c0,5.09-3.42,8.93-8.6,11.77-3.09-3.76-5.26-7.43-5.26-11.35M607.83,231.85c0-5.17,2.59-8.85,7.35-11.77l17.19,18.95c-3.67,2.67-7.93,4.34-12.19,4.34-7.01,0-12.35-4.84-12.35-11.52M617.27,251.96c6.26,0,13.6-2.5,19.86-7.68l5.51,6.01h16.44v-5.09c-2.25-1.08-6.76-4.26-10.68-7.51l-3.17-2.59c2.09-3.42,3.84-7.26,5.17-11.68,1.17-4.92,2.84-6.18,7.85-6.34v-5.26h-21.45v5.26c4.42.08,5.76,1.5,5.84,5.17.08,2.76-1,5.68-2.75,8.51l-17.69-14.35c8.18-4.17,14.61-9.18,14.61-17.03s-7.59-13.35-16.61-13.35c-10.1,0-17.61,6.09-17.61,15.11,0,5.51,2.92,9.85,7.59,14.19-9.01,4.76-14.1,10.6-14.1,18.61,0,10.27,9.1,18.03,21.2,18.03M566.52,251.96c7.43,0,12.69-4.76,14.94-12.69l-4.92-1.92c-1.67,3.84-4.17,6.18-7.43,6.18-4.67,0-5.68-3.92-5.76-8.18v-1.34l.08-18.7h15.69v-6.76h-15.61v-13.52h-5.09c-2.59,6.43-7.26,11.6-12.69,15.11v5.17h7.51l-.42,19.53v1.42c0,10.1,5.01,15.69,13.69,15.69M495.12,250.29h23.45v-5.09c-5.09,0-6.43-1.42-6.43-5.76v-17.86c2.25-3.42,5.68-6.01,10.1-6.01,2.42,0,4.34.75,5.76,2.25,1.5,1.67,2.17,3.92,2.17,6.93v14.69c0,4.34-1.34,5.76-6.43,5.76v5.09h23.45v-5.09c-5.34,0-6.68-1.42-6.68-5.76v-17.19c0-4.67-1.42-8.43-3.84-11.02-2.59-2.75-6.59-4.34-10.93-4.34-5.51,0-10.1,2.59-12.94,6.68h-.84l.17-27.46h-1.67c-4.34,1.84-10.68,3.51-15.77,4.42v5.09h7.1v43.82c0,4.34-1.42,5.76-6.68,5.76v5.09ZM467.14,232.18c-5.01,0-7.68-3.76-7.68-9.26s2.75-9.1,7.6-9.1,7.51,3.67,7.51,9.35-2.76,9.01-7.43,9.01M467.23,264.23c-6.51,0-11.1-1.33-11.1-5.67,0-2.92,2-4.42,5.01-5.84h14.1c4.93,0,7.43,1.5,7.43,4.59,0,5.01-7.18,6.93-15.44,6.93M465.39,270.74c12.27,0,26.71-4.34,26.71-16.02,0-7.18-5.51-11.02-13.94-11.02l-16.19-.08c-3.51,0-5.51-1.09-5.51-3.17,0-1.92,1.75-2.75,3.84-3.42,2.09.67,4.42,1,7.01,1,10.52,0,18.28-5.42,18.28-14.11,0-3.17-1.08-5.84-3.17-7.68v-.92h10.35v-10.1h-1.75c-4.17,1.84-9.01,3.42-14.19,4.67-2.84-1.17-6.18-1.92-9.76-1.92-10.93,0-18.7,6.01-18.7,15.11,0,4.76,2.34,8.93,6.68,11.52v1c-4.92,1.67-7.26,4.59-7.26,8.1s2.59,6.43,6.43,7.18v1c-5.26,1.75-8.43,4.59-8.43,8.76,0,7.26,9.01,10.1,19.61,10.1M432.27,200.8c4.34,0,7.93-3.5,7.93-7.76s-3.59-7.6-7.93-7.6-7.84,3.51-7.84,7.6,3.59,7.76,7.84,7.76M420.67,250.29h23.62v-5.09c-5.26,0-6.59-1.42-6.59-5.76v-32.55h-1.67c-4.34,1.84-10.68,3.51-15.86,4.42v5.09h7.18v23.04c0,4.34-1.42,5.76-6.68,5.76v5.09ZM382.37,250.29h23.7v-5.09c-5.26,0-6.68-1.42-6.68-5.76v-14.27c0-4.09,2.42-6.51,6.09-6.51,2,0,3.67.59,5.59.59,3.59,0,6.34-2.84,6.34-6.34s-2.92-6.01-6.76-6.01c-4.17,0-7.93,2.75-10.6,8.18h-.83l.17-8.18h-1.67c-4.34,1.84-10.68,3.51-15.86,4.42v5.09h7.18v23.04c0,4.34-1.42,5.76-6.68,5.76v5.09ZM347.93,241.53v-19.95c2.42-3.84,6.09-6.01,9.93-6.01,6.43,0,9.85,5.93,9.85,14.44,0,8.93-3.84,15.52-11.1,15.61-3.42.08-6.51-1.42-8.68-4.09M330.91,269.49h23.7v-5.09c-5.26,0-6.68-1.42-6.68-5.76v-8.26c2.92,1,5.93,1.59,8.93,1.59,12.44,0,21.95-9.52,21.95-23.95,0-13.52-7.93-21.12-17.44-21.12-5.34,0-9.93,2.59-12.77,6.68h-.83l.17-6.68h-1.67c-4.34,1.84-10.68,3.51-15.77,4.42v5.09h7.09v42.23c0,4.34-1.33,5.76-6.68,5.76v5.09ZM297.76,251.96c8.68,0,15.44-3.09,20.7-9.52,4.26-5.26,5.51-10.6,5.51-23.29v-17.78c0-6.43,1.08-8.26,8.68-8.26v-5.76h-26.21v5.76c7.6,0,8.68,1.84,8.68,8.26v22.03c0,12.27-5.76,18.78-16.86,18.78-7.93,0-14.02-4.09-15.69-11.6-.42-2-.58-4.34-.58-7.43v-21.78c0-6.43,1.17-8.26,8.76-8.26v-5.76h-28.96v5.76c7.6,0,8.76,1.84,8.76,8.26v21.28c0,4.67.33,8.35,1,11.35,2.75,12.02,13.19,17.95,26.21,17.95"/>
    <path class="st2" d="M1050.6,142.16c1.08-5.26,4.26-8.6,8.93-8.6s7.85,3.26,8.01,8.6h-16.94ZM1060.37,172.29c9.1,0,15.61-5.84,19.03-14.44l-4.92-2.25c-2.67,5.09-6.93,7.26-11.69,7.26-7.26,0-12.1-6.26-12.6-14.69h28.29c.17-1,.25-2.17.25-3.34,0-9.43-6.68-17.61-17.78-17.61-12.02,0-21.12,9.51-21.12,22.78.08,12.77,8.76,22.29,20.53,22.29M1014.7,170.62h23.7v-5.09c-5.26,0-6.68-1.42-6.68-5.76v-53.33h-1.67c-4.34,1.84-10.68,3.51-15.77,4.42v5.09h7.09v43.82c0,4.34-1.42,5.76-6.68,5.76v5.09ZM975,191.07c3.34,0,6.68-1.09,9.26-2.76,3.59-2.42,6.68-6.76,9.18-12.35l16.19-36.64c1.75-4.01,3.51-5.34,6.51-5.34v-5.09h-17.86v5.09l1.92.08c1.84,0,2.84.58,2.84,1.92,0,.58-.17,1.34-.58,2.25l-8.26,19.36-8.1-18.86c-.58-1.42-.83-2-.83-2.59,0-1.17,1-2.09,2.92-2.09l1.75-.08v-5.09h-21.53v5.09c3.09,0,4.76,1.42,6.51,5.34l13.6,30.8-2,4.34c-1.75,4.01-3.26,6.43-6.01,6.43-1.34,0-2.42-.58-3.34-1.42-1.25-1-2.67-1.84-4.92-1.84-3.84,0-6.34,2.92-6.34,6.18,0,3.67,3.09,7.26,9.1,7.26M952.86,172.29c7.43,0,12.69-4.76,14.94-12.69l-4.92-1.92c-1.67,3.84-4.17,6.18-7.43,6.18-4.67,0-5.67-3.92-5.76-8.18v-1.34l.08-18.7h15.69v-6.76h-15.61v-13.52h-5.09c-2.59,6.43-7.26,11.6-12.69,15.11v5.17h7.51l-.42,19.53v1.42c0,10.1,5.01,15.69,13.69,15.69M906.19,172.29c11.6,0,21.53-7.1,21.45-18.36,0-9.93-7.18-15.36-17.36-19.2l-11.93-4.34c-6.43-2.34-10.02-4.84-10.02-9.26,0-4.92,4.26-7.68,10.1-7.68,8.85,0,14.86,5.43,22.62,16.11h6.18l-5.93-22.2h-5.01l-3.34,4.51c-4.67-3.84-10.18-5.42-15.52-5.42-11.43,0-20.78,6.51-20.78,17.28,0,9.51,6.84,14.86,16.78,18.53l12.02,4.42c7.18,2.59,10.43,5.42,10.43,9.85,0,5.17-4.42,8.6-11.1,8.6-10.02,0-17.61-7.51-25.12-18.95h-6.26l6.68,24.79h5.01l3.67-5.01c5.17,4.26,11.35,6.34,17.44,6.34M820.48,149.17c0-8.93,3.84-15.52,11.1-15.61,3.42-.08,6.51,1.42,8.68,4.09h.08v19.78c-2.42,4.01-6.18,6.18-10.02,6.18-6.43,0-9.85-5.92-9.85-14.44M831.33,127.22c-12.44,0-21.95,9.51-21.95,23.95,0,13.52,7.93,21.12,17.44,21.12,5.34,0,9.93-2.59,12.77-6.68h.83l-.08,6.01,17.36-1v-5.09c-5.51,0-7.09-1.34-7.09-5.51v-53.58h-1.67c-4.34,1.84-10.68,3.51-15.77,4.42v5.09h7.18v12.94c-2.92-1.09-6.01-1.67-9.01-1.67M783.73,170.62h23.7v-5.09c-5.26,0-6.68-1.42-6.68-5.76v-53.33h-1.67c-4.34,1.84-10.68,3.51-15.78,4.42v5.09h7.09v43.82c0,4.34-1.42,5.76-6.68,5.76v5.09ZM749.84,164.78c-12.35,0-19.2-11.6-19.2-26.46s6.84-24.37,18.53-24.37,19.11,11.35,19.11,26.46-6.84,24.37-18.45,24.37M749.51,172.29c18.28,0,31.88-13.94,31.88-32.8s-13.52-33.05-31.97-33.05-31.88,13.94-31.88,32.72,13.52,33.14,31.97,33.14M686.49,170.62h15.52v-5.09c-1-.42-3.76-2.17-7.43-4.76l-17.19-12.1,14.11-10.1c4.26-3.09,6.76-4.34,9.43-4.51v-5.17h-23.7v5.17h.67c2.17,0,3.76.67,3.76,2.34,0,1.09-.75,2.34-2.5,3.59l-10.77,8.1v-41.65h-1.67c-4.34,1.84-10.68,3.51-15.77,4.42v5.09h7.09v43.82c0,4.34-1.42,5.76-6.68,5.76v5.09h22.2v-5.09c-4.09,0-5.17-1.42-5.17-5.76v-10.77l18.11,21.62ZM636.68,121.13c4.34,0,7.93-3.51,7.93-7.76s-3.59-7.6-7.93-7.6-7.84,3.51-7.84,7.6,3.59,7.76,7.84,7.76M625.07,170.62h23.62v-5.09c-5.26,0-6.59-1.42-6.59-5.76v-32.55h-1.67c-4.34,1.84-10.68,3.51-15.86,4.42v5.09h7.18v23.04c0,4.34-1.42,5.76-6.68,5.76v5.09ZM569.86,170.62h23.45v-5.09c-5.09,0-6.43-1.42-6.43-5.76v-17.86c2.25-3.42,5.68-6.01,10.1-6.01,2.42,0,4.34.75,5.76,2.25,1.5,1.67,2.17,3.92,2.17,6.93v14.69c0,4.34-1.33,5.76-6.43,5.76v5.09h23.45v-5.09c-5.34,0-6.68-1.42-6.68-5.76v-17.19c0-4.67-1.42-8.43-3.84-11.02-2.59-2.76-6.59-4.34-10.93-4.34-5.51,0-10.1,2.59-12.94,6.68h-.83l.17-6.68h-1.67c-4.34,1.84-10.68,3.51-15.86,4.42v5.09h7.18v23.04c0,4.34-1.42,5.76-6.68,5.76v5.09ZM545.28,165.53c-7.26,0-10.77-7.26-10.77-16.61s3.59-15.11,10.18-15.11c7.26,0,10.85,7.51,10.85,16.69s-3.67,15.02-10.27,15.02M544.94,172.29c12.02,0,21.95-9.18,21.95-22.54s-9.68-22.62-21.95-22.62-21.87,8.85-21.87,22.45,9.43,22.7,21.87,22.7M486.54,170.62h23.7v-5.09c-5.26,0-6.68-1.42-6.68-5.76v-14.27c0-4.09,2.42-6.51,6.09-6.51,2,0,3.67.58,5.59.58,3.59,0,6.34-2.84,6.34-6.34s-2.92-6.01-6.76-6.01c-4.17,0-7.93,2.75-10.6,8.18h-.83l.17-8.18h-1.67c-4.34,1.84-10.68,3.51-15.86,4.42v5.09h7.18v23.04c0,4.34-1.42,5.76-6.68,5.76v5.09ZM431.33,170.62h23.45v-5.09c-5.09,0-6.43-1.42-6.43-5.76v-17.86c2.25-3.42,5.68-6.01,10.1-6.01,2.42,0,4.34.75,5.76,2.25,1.5,1.67,2.17,3.92,2.17,6.93v14.69c0,4.34-1.34,5.76-6.43,5.76v5.09h23.45v-5.09c-5.34,0-6.68-1.42-6.68-5.76v-17.19c0-4.67-1.42-8.43-3.84-11.02-2.59-2.76-6.59-4.34-10.93-4.34-5.51,0-10.1,2.59-12.94,6.68h-.84l.17-27.46h-1.67c-4.34,1.84-10.68,3.51-15.77,4.42v5.09h7.09v43.82c0,4.34-1.42,5.76-6.68,5.76v5.09ZM400.41,172.29c12.19,0,22.2-7.1,27.79-19.11l-5.42-2.67c-4.01,7.01-11.18,10.77-18.61,10.77-11.77,0-22.62-9.26-22.62-24.62,0-13.27,8.1-23.12,19.53-23.12,9.52,0,15.27,6.68,20.95,16.02h6.26l-6.01-22.2h-5.01l-2.5,3.34c-4.09-2.92-9.18-4.26-14.44-4.26-16.69,0-31.05,14.02-31.05,33.39.08,18.7,14.36,32.47,31.13,32.47M344.74,170.62l5.93-21.87h-6.26c-3.42,10.68-8.01,14.44-18.28,14.44h-14.86v-20.36h5.76c6.51,0,8.35,1.25,8.35,9.52h5.67v-26.46h-5.67c0,8.35-1.84,9.6-8.35,9.6h-5.76v-20.36h13.1c10.27,0,14.77,3.76,18.2,14.44h6.26l-5.84-21.87h-51.66v5.76c7.6,0,8.68,1.84,8.68,8.26v34.89c0,6.43-1.08,8.26-8.68,8.26v5.76h53.42ZM236.99,171.29h7.68l17.61-54.67,4.01,39.98c.67,6.51,0,8.26-7.6,8.26v5.76h28.8v-5.76c-7.6,0-9.18-1.75-9.85-8.26l-3.59-34.89c-.67-6.51,0-8.26,7.6-8.26v-5.76h-24.29l-14.52,45.4-14.35-45.4h-25.04v5.76c7.6,0,8.26,1.75,7.6,8.26l-3.59,34.89c-.67,6.51-2.25,8.26-9.85,8.26v5.76h25.46v-5.76c-7.6,0-8.26-1.75-7.6-8.26l4.09-39.81,17.44,54.5Z"/>
  </g>
</svg>