<?xml version="1.0" encoding="UTF-8"?>
<svg id="Layer_1" xmlns="http://www.w3.org/2000/svg" xmlns:xlink="http://www.w3.org/1999/xlink" version="1.1" viewBox="0 0 1280 800">
  <!-- Generator: Adobe Illustrator 29.8.2, SVG Export Plug-In . SVG Version: 2.1.1 Build 3)  -->
  <defs>
    <style>
      .st0 {
        fill: none;
      }

      .st1 {
        fill: #fbfbfb;
      }

      .st2 {
        clip-path: url(#clippath);
      }
    </style>
    <clipPath id="clippath">
      <rect class="st0" width="1280" height="800"/>
    </clipPath>
  </defs>
  <g class="st2">
    <rect x="-3" y="-3" width="1286" height="806"/>
  </g>
  <rect width="1280" height="800"/>
  <g>
    <path class="st1" d="M206.36,132.74v17.93c0,2.38-.39,2.83-3.08,2.83h-3.02v1.86h15.49v-1.86h-2.44c-2.57,0-3.08-.39-3.08-2.83v-22.17h-1.99l-9.57,7.84,1.29,1.61,6.43-5.2h-.03Z"/>
    <path class="st1" d="M207.59,168.4c14.39,0,26.15-11.76,26.15-26.22s-11.76-26.15-26.15-26.15-26.22,11.76-26.22,26.15,11.76,26.22,26.22,26.22ZM207.59,118.73c12.92,0,23.45,10.54,23.45,23.45s-10.54,23.52-23.45,23.52-23.52-10.54-23.52-23.52,10.54-23.45,23.52-23.45Z"/>
    <path class="st1" d="M232.32,166.47h16.13v-1.93l-2.06-.13c-3.6-.19-5.27-1.09-5.27-2.89,0-.71.26-1.54.64-2.51l3.47-8.74h20.95l3.47,8.8c.45,1.09.64,1.86.64,2.57,0,1.8-1.48,2.63-4.75,2.76l-2.12.13v1.93h17.93v-1.93c-3.79-.13-5.01-1.16-6.75-5.53l-16.77-42.15h-1.93l-16.9,42.15c-1.73,4.37-2.89,5.4-6.68,5.53v1.93h0ZM255.78,123.74l9.45,24.1h-19.02l9.57-24.1Z"/>
    <path class="st1" d="M297.16,167.76c5.98,0,10.6-3.6,13.43-10.02l-1.67-.77c-2.44,4.43-6.17,6.68-10.79,6.68-6.23,0-10.99-5.91-10.99-14.84v-1.22h22.75c.06-.26.06-.45.06-.71,0-7.45-4.95-13.11-12.4-13.11-8.67,0-14.84,7.26-14.84,17.09s5.98,16.9,14.46,16.9h0ZM296.39,136.08c5.08,0,8.1,4.05,8.1,9.12v.06h-17.09c.96-5.72,4.18-9.19,9-9.19h-.01Z"/>
    <path class="st1" d="M330.05,167.76c8.61,0,15.1-7.07,15.1-17.22,0-9.38-6.3-16.83-15.1-16.83s-15.29,7.07-15.29,17.03,6.36,17.03,15.29,17.03h0ZM329.28,136.15c7.84,0,11.31,9.7,11.31,16.77s-3.6,12.4-9.77,12.4c-7.9,0-11.44-9.57-11.44-16.77s3.79-12.4,9.9-12.4Z"/>
    <path class="st1" d="M353.19,161.14c0,2.25-.96,3.34-5.72,3.6v1.73h15.61v-1.73c-4.69-.26-5.72-1.35-5.72-3.6v-18.18c2.38-3.34,5.65-5.46,9.38-5.46,2.44,0,4.37.77,5.78,2.31,1.41,1.61,1.99,3.85,1.99,6.62v14.71c0,2.25-.96,3.34-5.72,3.6v1.73h15.61v-1.73c-4.69-.26-5.72-1.35-5.72-3.6v-15.94c0-3.47-.9-6.36-2.63-8.29-1.93-2.06-4.75-3.15-7.84-3.15-4.05,0-7.65,1.99-10.35,5.59h-.64l.13-5.59h-1.28c-2.51,1.73-5.65,2.83-8.67,3.28v1.73h5.78v22.36h.01Z"/>
    <path class="st1" d="M397.97,166.09c0-3.47-2.44-6.75-5.65-6.75-2.38,0-3.92,1.86-3.92,3.79s1.35,3.53,3.41,3.86c1.54.19,2.38,1.03,2.38,2.31,0,2.25-3.21,4.69-6.62,4.88v1.86c5.85-.45,10.41-4.56,10.41-9.96h-.01Z"/>
    <path class="st1" d="M462.16,151.63h-2.06c-2.44,8.22-6.81,12.34-14.59,12.34h-13.49v-20.43h8.55c4.18,0,5.53,1.35,5.72,8.61h1.93v-19.85h-1.93c-.19,7.33-1.54,8.74-5.72,8.74h-8.55v-20.56h12.14c7.77,0,12.21,4.11,14.59,12.4h2.06l-3.92-14.84h-36.95v1.93c6.36.19,7.58,1.54,7.58,5.72v33.16c0,4.11-1.22,5.53-7.58,5.72v1.93h38.23l3.98-14.84v-.03Z"/>
    <path class="st1" d="M470.26,161.14c0,2.25-.96,3.34-5.72,3.6v1.73h15.61v-1.73c-4.69-.26-5.72-1.35-5.72-3.6v-14.78c0-3.41,2.31-6.43,5.53-6.43,1.35,0,2.51.39,3.79.39,1.86,0,3.34-1.41,3.34-3.34s-1.67-3.21-3.85-3.21c-2.89,0-5.65,2.18-8.29,6.75h-.64l.13-6.75h-1.28c-2.51,1.73-5.65,2.83-8.67,3.28v1.73h5.78v22.36h0Z"/>
    <path class="st1" d="M501.1,137.75c3.6,0,7.39,2.06,7.39,7.26v3.66l-8.1,2.18c-6.88,1.86-10.73,5.27-10.73,9.57,0,3.79,3.08,7.33,7.84,7.33,2.96,0,7.13-1.29,10.41-5.59h.64l-.06,4.95,9.19-.64v-1.73c-4.11-.39-5.08-1.41-5.08-3.6v-1.16l.13-13.43v-1.35c.06-8.42-5.08-11.44-10.15-11.44-5.65,0-11.18,3.79-14.2,10.22l1.67.9c2.63-4.75,7.07-7.13,11.05-7.13h0ZM508.49,158.64c-2.51,3.66-5.53,5.59-8.55,5.59s-5.33-2.06-5.33-5.01c0-2.57,1.8-4.95,7.71-6.75l6.17-1.86v8.03h0Z"/>
    <path class="st1" d="M531.11,166.09c0-3.47-2.44-6.75-5.65-6.75-2.38,0-3.92,1.86-3.92,3.79s1.35,3.53,3.41,3.86c1.54.19,2.38,1.03,2.38,2.31,0,2.25-3.21,4.69-6.62,4.88v1.86c5.85-.45,10.41-4.56,10.41-9.96h0Z"/>
    <path class="st1" d="M200.84,214.41c5.53,0,9.51-.71,12.79-2.25,5.59-2.57,8.35-7.52,8.35-12.92s-2.76-10.54-8.42-12.98c-3.08-1.54-7.2-2.25-13.17-2.25h-17.8v1.93c6.36.19,7.58,1.54,7.58,5.72v33.16c0,4.11-1.22,5.53-7.58,5.72v1.93h19.66v-1.93c-6.36-.19-7.58-1.61-7.58-5.72v-10.41h6.17ZM194.67,186.46h4.82c5.01,0,8.35.71,10.99,2.06,3.98,2.12,5.91,6.1,5.91,10.73s-1.93,8.48-5.91,10.67c-2.44,1.35-5.85,2.06-10.99,2.06h-4.82v-25.51h0Z"/>
    <path class="st1" d="M251.79,213.57c.06-.26.06-.45.06-.71,0-7.45-4.95-13.11-12.4-13.11-8.67,0-14.84,7.26-14.84,17.09s5.98,16.9,14.46,16.9c5.98,0,10.6-3.6,13.43-10.02l-1.67-.77c-2.44,4.43-6.17,6.68-10.79,6.68-6.23,0-10.99-5.91-10.99-14.84v-1.22h22.75-.01ZM238.3,202.07c5.08,0,8.1,4.05,8.1,9.12v.06h-17.09c.96-5.72,4.18-9.19,9-9.19h-.01Z"/>
    <path class="st1" d="M263.81,199.76c-2.51,1.73-5.65,2.83-8.67,3.28v1.73h5.78v22.36c0,2.25-.96,3.34-5.72,3.6v1.73h15.61v-1.73c-4.69-.26-5.72-1.35-5.72-3.6v-14.78c0-3.41,2.31-6.43,5.53-6.43,1.35,0,2.51.39,3.79.39,1.86,0,3.34-1.41,3.34-3.34s-1.67-3.21-3.85-3.21c-2.89,0-5.65,2.18-8.29,6.75h-.64l.13-6.75h-1.29Z"/>
    <path class="st1" d="M292.53,188.58c0-2.18-1.86-4.05-4.11-4.05s-4.11,1.86-4.11,4.05,1.86,4.11,4.11,4.11,4.11-1.86,4.11-4.11Z"/>
    <path class="st1" d="M280.58,204.77h5.78v22.36c0,2.25-.96,3.34-5.72,3.6v1.73h15.49v-1.73c-4.63-.26-5.59-1.35-5.59-3.6v-27.37h-1.28c-2.51,1.73-5.65,2.83-8.67,3.28v1.73h0Z"/>
    <path class="st1" d="M297.73,216.72c0,9.51,6.36,17.03,15.29,17.03s15.1-7.07,15.1-17.22c0-9.38-6.3-16.83-15.1-16.83s-15.29,7.07-15.29,17.03h0ZM312.26,202.14c7.84,0,11.31,9.7,11.31,16.77s-3.6,12.4-9.77,12.4c-7.9,0-11.44-9.57-11.44-16.77s3.79-12.4,9.9-12.4Z"/>
    <path class="st1" d="M348.62,199.76c-8.55,0-15.68,7-15.68,18.06,0,9.51,5.27,15.94,13.11,15.94,4.24,0,7.84-1.99,10.54-5.59h.64l-.13,5.01,9.9-.71.06-1.73c-3.98-.19-5.78-1.03-5.78-3.41v-44.27h-1.29c-2.51,1.8-5.65,2.83-8.67,3.28v1.73h5.78v14.01c-2.83-1.54-5.65-2.31-8.48-2.31h0ZM357.1,224.56c-2.51,3.66-5.85,5.59-9.51,5.59-6.36,0-9.9-5.59-9.9-13.3,0-8.8,4.43-14.78,10.92-14.84,3.47-.06,6.43,1.54,8.48,4.5v18.06h0Z"/>
    <path class="st1" d="M370.34,240.17v1.86c5.85-.45,10.41-4.56,10.41-9.96,0-3.47-2.44-6.75-5.65-6.75-2.38,0-3.92,1.86-3.92,3.79s1.35,3.53,3.41,3.86c1.54.19,2.38,1.03,2.38,2.31,0,2.25-3.21,4.69-6.62,4.88h-.01Z"/>
    <path class="st1" d="M417.25,230.54l-2.06-.13c-3.6-.19-5.27-1.09-5.27-2.89,0-.71.26-1.54.64-2.51l3.47-8.74h20.95l3.47,8.8c.45,1.09.64,1.86.64,2.57,0,1.8-1.48,2.63-4.75,2.76l-2.12.13v1.93h17.93v-1.93c-3.79-.13-5.01-1.16-6.75-5.53l-16.77-42.15h-1.93l-16.9,42.15c-1.73,4.37-2.89,5.4-6.68,5.53v1.93h16.13v-1.93h0ZM424.57,189.73l9.45,24.1h-19.02l9.57-24.1h0Z"/>
    <path class="st1" d="M451.69,240.56c0,5.72,6.81,7.65,12.53,7.65,7.65,0,19.79-3.6,19.79-12.14,0-4.75-3.79-7.58-9.32-7.58h-13.49c-2.51,0-4.37-1.03-4.37-3.08,0-1.73,1.41-2.57,3.98-3.53,1.67.84,3.73,1.29,6.04,1.29,7.2,0,12.53-4.63,12.53-11.18,0-3.02-1.22-5.91-3.28-7.58v-.71h8.8v-5.4h-1.29c-2.89,1.73-6.3,2.96-10.28,3.53-1.86-.84-3.98-1.41-6.49-1.41-7.39,0-12.66,4.75-12.66,11.37,0,3.66,1.61,6.88,4.5,8.74v.58c-3.53,1.29-5.65,2.96-5.65,5.78,0,3.08,2.57,5.01,5.72,5.33v.71c-4.5,2.06-7.07,4.24-7.07,7.65v-.02ZM466.59,202.59c5.14,0,7.9,4.43,7.9,9.64s-3.02,8.74-7.52,8.74c-5.33,0-7.84-4.95-7.84-9.77,0-5.27,3.02-8.61,7.45-8.61h0ZM462.93,232.66h10.67c3.73,0,6.3,1.86,6.3,5.14,0,5.78-8.55,8.1-14.14,8.1-4.69,0-9.19-1.61-9.19-6.23,0-3.66,2.76-5.27,6.36-7h0Z"/>
    <path class="st1" d="M513.56,213.57c.06-.26.06-.45.06-.71,0-7.45-4.95-13.11-12.4-13.11-8.67,0-14.84,7.26-14.84,17.09s5.98,16.9,14.46,16.9c5.98,0,10.6-3.6,13.43-10.02l-1.67-.77c-2.44,4.43-6.17,6.68-10.79,6.68-6.23,0-10.99-5.91-10.99-14.84v-1.22h22.75-.01ZM500.07,202.07c5.08,0,8.1,4.05,8.1,9.12v.06h-17.09c.96-5.72,4.18-9.19,9-9.19h-.01Z"/>
    <path class="st1" d="M528.53,232.08c0-3.47-2.44-6.75-5.65-6.75-2.38,0-3.92,1.86-3.92,3.79s1.35,3.53,3.41,3.86c1.54.19,2.38,1.03,2.38,2.31,0,2.25-3.21,4.69-6.62,4.88v1.86c5.85-.45,10.41-4.56,10.41-9.96h0Z"/>
    <path class="st1" d="M257,300.38c14.39,0,26.15-11.76,26.15-26.22s-11.76-26.15-26.15-26.15-26.22,11.76-26.22,26.15,11.76,26.22,26.22,26.22ZM256.8,260.29c4.43,0,8.29,3.41,8.29,7.9,0,3.53-2.31,6.94-7.77,11.18l-5.78,4.56h8.03c3.28,0,4.82-1.29,5.78-4.37h1.73l-2.06,7.77h-18.06v-1.73l7.97-7.13c3.86-3.47,5.72-6.04,5.72-9.06,0-3.21-2.06-5.46-5.27-5.46-2.76,0-5.14,1.73-7.07,4.37l-1.41-.9c2.31-4.11,5.65-7.13,9.9-7.13h0Z"/>
    <path class="st1" d="M309.11,252.45c7.77,0,12.21,4.11,14.59,12.4h2.06l-3.92-14.84h-36.95v1.93c6.36.19,7.58,1.54,7.58,5.72v33.16c0,4.11-1.22,5.53-7.58,5.72v1.93h38.23l3.98-14.84h-2.06c-2.44,8.22-6.81,12.34-14.59,12.34h-13.49v-20.43h8.55c4.18,0,5.53,1.35,5.72,8.61h1.93v-19.85h-1.93c-.19,7.33-1.54,8.74-5.72,8.74h-8.55v-20.56h12.14v-.03Z"/>
    <path class="st1" d="M328.32,270.76h5.78v37.14c0,2.25-.96,3.34-5.72,3.6v1.73h15.61v-1.73c-4.69-.26-5.72-1.35-5.72-3.6v-10.47c2.83,1.54,5.65,2.31,8.48,2.31,8.55,0,15.68-7,15.68-18.06,0-9.51-5.27-15.94-13.11-15.94-4.24,0-7.84,1.99-10.54,5.59h-.64l.13-5.59h-1.29c-2.44,1.73-5.65,2.83-8.67,3.28v1.73h.01ZM338.28,274.94c2.51-3.66,5.85-5.59,9.51-5.59,6.36,0,9.9,5.59,9.9,13.3,0,8.8-4.43,14.78-10.92,14.84-3.47.06-6.43-1.54-8.48-4.5v-18.06h0Z"/>
    <path class="st1" d="M382.42,299.74c8.61,0,15.1-7.07,15.1-17.22,0-9.38-6.3-16.83-15.1-16.83s-15.29,7.07-15.29,17.03,6.36,17.03,15.29,17.03h0ZM381.65,268.13c7.84,0,11.31,9.7,11.31,16.77s-3.6,12.4-9.77,12.4c-7.9,0-11.44-9.57-11.44-16.77s3.79-12.4,9.9-12.4Z"/>
    <path class="st1" d="M416.8,268.06c3.15,0,5.27,1.41,5.65,4.75.32,2.57,1.67,4.05,3.6,4.05s3.21-1.41,3.21-3.41c0-4.31-5.72-7.77-11.89-7.77-8.74,0-15.16,6.94-15.16,17.16s5.98,16.9,14.46,16.9c5.98,0,10.6-3.6,13.43-10.02l-1.67-.77c-2.44,4.43-6.1,6.62-10.79,6.68-6.17,0-10.99-5.91-10.99-15.04,0-7.26,4.05-12.53,10.15-12.53h0Z"/>
    <path class="st1" d="M439.86,249.04c-2.51,1.8-5.65,2.83-8.67,3.28v1.73h5.78v39.07c0,2.25-.96,3.34-5.72,3.6v1.73h15.61v-1.73c-4.69-.26-5.72-1.35-5.72-3.6v-18.18c2.38-3.34,5.65-5.46,9.38-5.46,2.44,0,4.37.77,5.78,2.31,1.41,1.61,1.99,3.85,1.99,6.62v14.71c0,2.25-.96,3.34-5.72,3.6v1.73h15.61v-1.73c-4.69-.26-5.72-1.35-5.72-3.6v-15.94c0-3.47-.9-6.36-2.63-8.29-1.93-2.06-4.75-3.15-7.84-3.15-4.05,0-7.65,1.99-10.35,5.59h-.64l.13-22.3h-1.29.02Z"/>
    <path class="st1" d="M471.35,306.16v1.86c5.85-.45,10.41-4.56,10.41-9.96,0-3.47-2.44-6.75-5.65-6.75-2.38,0-3.92,1.86-3.92,3.79s1.35,3.53,3.41,3.86c1.54.19,2.38,1.03,2.38,2.31,0,2.25-3.21,4.69-6.62,4.88h-.01Z"/>
    <path class="st1" d="M192.74,362.52c-6.36-.19-7.58-1.54-7.13-5.72l3.79-36.75,16.96,45.56h1.67l17.28-45.62,3.73,36.82c.45,4.18-.71,5.53-7.13,5.72v1.93h19.73v-1.93c-6.36-.19-7.65-1.54-8.03-5.72l-3.41-33.16c-.45-4.18.77-5.53,7.13-5.72v-1.93h-13.11l-15.94,41.89-15.68-41.89h-13.3v1.93c6.36.19,7.58,1.54,7.13,5.72l-3.41,33.16c-.39,4.18-1.67,5.53-8.03,5.72v1.93h17.73v-1.93h.02Z"/>
    <path class="st1" d="M256.93,320.56c0-2.18-1.86-4.05-4.11-4.05s-4.11,1.86-4.11,4.05,1.86,4.11,4.11,4.11,4.11-1.86,4.11-4.11Z"/>
    <path class="st1" d="M245.05,362.71v1.73h15.49v-1.73c-4.63-.26-5.59-1.35-5.59-3.6v-27.37h-1.28c-2.51,1.73-5.65,2.83-8.67,3.28v1.73h5.78v22.36c0,2.25-.96,3.34-5.72,3.6h-.01Z"/>
    <path class="st1" d="M271.84,315.03c-2.51,1.8-5.65,2.83-8.67,3.28v1.73h5.78v39.07c0,2.25-.96,3.34-5.72,3.6v1.73h15.61v-1.73c-4.69-.26-5.72-1.35-5.72-3.6v-44.08h-1.29.01Z"/>
    <path class="st1" d="M290.15,315.03c-2.51,1.8-5.65,2.83-8.67,3.28v1.73h5.78v39.07c0,2.25-.96,3.34-5.72,3.6v1.73h15.61v-1.73c-4.69-.26-5.72-1.35-5.72-3.6v-44.08h-1.29.01Z"/>
    <path class="st1" d="M326,345.55c.06-.26.06-.45.06-.71,0-7.45-4.95-13.11-12.4-13.11-8.67,0-14.84,7.26-14.84,17.09s5.98,16.9,14.46,16.9c5.98,0,10.6-3.6,13.43-10.02l-1.67-.77c-2.44,4.43-6.17,6.68-10.79,6.68-6.23,0-10.99-5.91-10.99-14.84v-1.22h22.75,0ZM312.51,334.05c5.08,0,8.1,4.05,8.1,9.12v.06h-17.09c.96-5.72,4.18-9.19,9-9.19h-.01Z"/>
    <path class="st1" d="M329.48,362.71v1.73h15.61v-1.73c-4.69-.26-5.72-1.35-5.72-3.6v-18.18c2.38-3.34,5.65-5.46,9.38-5.46,2.44,0,4.37.77,5.78,2.31,1.41,1.61,1.99,3.85,1.99,6.62v14.71c0,2.25-.96,3.34-5.72,3.6v1.73h15.61v-1.73c-4.69-.26-5.72-1.35-5.72-3.6v-15.94c0-3.47-.9-6.36-2.63-8.29-1.93-2.06-4.75-3.15-7.84-3.15-4.05,0-7.65,1.99-10.35,5.59h-.64l.13-5.59h-1.28c-2.51,1.73-5.65,2.83-8.67,3.28v1.73h5.78v22.36c0,2.25-.96,3.34-5.72,3.6h.01Z"/>
    <path class="st1" d="M379.98,337.33h-.64l.13-5.59h-1.28c-2.51,1.73-5.65,2.83-8.67,3.28v1.73h5.78v22.36c0,2.25-.96,3.34-5.72,3.6v1.73h15.61v-1.73c-4.69-.26-5.72-1.35-5.72-3.6v-18.18c2.38-3.34,5.65-5.46,9.38-5.46,2.44,0,4.37.77,5.78,2.31,1.41,1.61,1.99,3.85,1.99,6.62v14.71c0,2.25-.96,3.34-5.72,3.6v1.73h15.61v-1.73c-4.69-.26-5.72-1.35-5.72-3.6v-15.94c0-3.47-.9-6.36-2.63-8.29-1.93-2.06-4.75-3.15-7.84-3.15-4.05,0-7.65,1.99-10.35,5.59h.01Z"/>
    <path class="st1" d="M421.55,320.56c0-2.18-1.86-4.05-4.11-4.05s-4.11,1.86-4.11,4.05,1.86,4.11,4.11,4.11,4.11-1.86,4.11-4.11Z"/>
    <path class="st1" d="M409.67,362.71v1.73h15.49v-1.73c-4.63-.26-5.59-1.35-5.59-3.6v-27.37h-1.28c-2.51,1.73-5.65,2.83-8.67,3.28v1.73h5.78v22.36c0,2.25-.96,3.34-5.72,3.6h0Z"/>
    <path class="st1" d="M424.76,335.4c3.98.06,5.72,1.09,5.72,3.28v15.94c0,3.41.84,6.17,2.57,8.1,1.8,1.99,4.5,3.02,7.45,3.02,4.43,0,7.77-2.38,10.15-5.59h.64l-.13,5.01,9.96-.71v-1.73c-3.92-.19-5.78-1.03-5.78-3.41v-26.92l-9.96,1.29v1.73c4.05.06,5.78,1.09,5.78,3.28v17.86c-2.18,3.15-5.4,5.46-9.25,5.46-2.18,0-3.98-.77-5.33-2.25-1.35-1.54-1.93-3.79-1.93-6.49v-20.88l-9.9,1.29v1.73h0Z"/>
    <path class="st1" d="M474.75,337.33h-.64l.13-5.59h-1.28c-2.51,1.73-5.65,2.83-8.67,3.28v1.73h5.78v22.36c0,2.25-.96,3.34-5.72,3.6v1.73h15.61v-1.73c-4.69-.26-5.72-1.35-5.72-3.6v-18.25c2.19-3.08,5.4-5.4,9.25-5.4,2.18,0,3.98.71,5.33,2.25,1.35,1.48,1.93,3.73,1.93,6.43v14.97c0,2.25-1.03,3.34-5.72,3.6v1.73h15.49v-1.73c-4.63-.26-5.59-1.35-5.59-3.6v-16.71l-.06-1.73c2.06-2.96,5.2-5.2,9.06-5.2,2.18,0,3.98.71,5.33,2.25,1.35,1.48,1.93,3.73,1.93,6.43v14.97c0,2.25-.96,3.34-5.65,3.6v1.73h15.55v-1.73c-4.75-.26-5.72-1.35-5.72-3.6v-16.26c0-3.47-.83-6.17-2.57-8.1-1.8-1.99-4.5-3.02-7.45-3.02-4.56,0-8.03,2.44-10.41,6.04h-.71c-.39-1.16-.96-2.12-1.8-3.02-1.8-1.99-4.5-3.02-7.45-3.02-4.43,0-7.77,2.31-10.22,5.59h0Z"/>
    <path class="st1" d="M525.13,361.1c0,1.93,1.35,3.53,3.41,3.86,1.54.19,2.38,1.03,2.38,2.31,0,2.25-3.21,4.69-6.62,4.88v1.86c5.85-.45,10.41-4.56,10.41-9.96,0-3.47-2.44-6.75-5.65-6.75-2.38,0-3.92,1.86-3.92,3.79h0Z"/>
    <rect class="st1" x="215.36" y="412.44" width="40.93" height="2.25"/>
    <path class="st1" d="M235.92,381.66l-9.57,7.71,1.29,1.54,6.43-5.08v17.54c0,2.38-.39,2.76-3.08,2.76h-3.02v1.86h15.49v-1.86h-2.44c-2.57,0-3.08-.32-3.08-2.76v-21.72h-2.02Z"/>
    <path class="st1" d="M240.74,445.21v-7.65h4.43v-3.08h-4.43v-15.29h-3.85l-12.85,15.55v2.83h12.85v7.65h3.85ZM226.8,434.55l10.15-12.34v12.34h-10.15Z"/>
    <path class="st1" d="M304.03,418.93l-1.73-.96c-3.66,5.91-10.02,9.25-16.38,9.25-9.77,0-20.05-7.77-20.05-22.17,0-12.21,7.65-21.59,18.38-21.59,8.03,0,12.85,5.46,17.28,13.17l.13.19h2.06l-4.11-15.42h-1.67l-2.12,2.83c-3.21-2.06-7.13-3.21-11.31-3.21-12.4,0-23.58,10.54-23.58,25.77s10.35,24.93,23.2,24.93c8.42,0,15.42-4.5,19.92-12.79h-.02Z"/>
    <path class="st1" d="M309.24,414.82c0,9.7,5.98,16.9,14.46,16.9,5.98,0,10.6-3.6,13.43-10.02l-1.67-.77c-2.44,4.43-6.17,6.68-10.79,6.68-6.23,0-10.99-5.91-10.99-14.84v-1.22h22.75c.06-.26.06-.45.06-.71,0-7.45-4.95-13.11-12.4-13.11-8.67,0-14.84,7.26-14.84,17.09h0ZM331.02,409.17v.06h-17.09c.96-5.72,4.18-9.19,9-9.19,5.08,0,8.1,4.05,8.1,9.12h-.01Z"/>
    <path class="st1" d="M350.23,403.32h-.64l.13-5.59h-1.28c-2.51,1.73-5.65,2.83-8.67,3.28v1.74h5.78v22.36c0,2.25-.96,3.34-5.72,3.6v1.74h15.61v-1.74c-4.69-.26-5.72-1.35-5.72-3.6v-18.18c2.38-3.34,5.65-5.46,9.38-5.46,2.44,0,4.37.77,5.78,2.31,1.41,1.61,1.99,3.86,1.99,6.62v14.71c0,2.25-.96,3.34-5.72,3.6v1.74h15.61v-1.74c-4.69-.26-5.72-1.35-5.72-3.6v-15.94c0-3.47-.9-6.36-2.63-8.29-1.93-2.06-4.75-3.15-7.84-3.15-4.05,0-7.65,1.99-10.35,5.59h.01Z"/>
    <path class="st1" d="M384.35,388.73c-.77,5.78-4.18,9.57-8.74,11.18v1.73h6.36l-.32,19.47v.9c0,6.23,3.08,9.7,7.97,9.7,4.5,0,7.77-3.21,9.57-9.06l-1.73-.58c-1.48,3.98-3.66,6.04-6.62,6.04-4.11,0-4.82-3.92-4.88-7.33v-1.41l.06-17.73h11.63v-2.63h-11.57v-10.28h-1.73,0Z"/>
    <path class="st1" d="M400.8,401.39c3.98.06,5.72,1.09,5.72,3.28v15.94c0,3.41.84,6.17,2.57,8.1,1.8,1.99,4.5,3.02,7.45,3.02,4.43,0,7.77-2.38,10.15-5.59h.64l-.13,5.01,9.96-.71v-1.74c-3.92-.19-5.78-1.03-5.78-3.41v-26.92l-9.96,1.29v1.73c4.05.06,5.78,1.09,5.78,3.28v17.86c-2.18,3.15-5.4,5.46-9.25,5.46-2.18,0-3.98-.77-5.33-2.25-1.35-1.54-1.93-3.79-1.93-6.49v-20.88l-9.9,1.29v1.73h0Z"/>
    <path class="st1" d="M455.8,403.9c1.35,0,2.51.39,3.79.39,1.86,0,3.34-1.41,3.34-3.34s-1.67-3.21-3.85-3.21c-2.89,0-5.65,2.18-8.29,6.75h-.64l.13-6.75h-1.28c-2.51,1.73-5.65,2.83-8.67,3.28v1.74h5.78v22.36c0,2.25-.96,3.34-5.72,3.6v1.74h15.61v-1.74c-4.69-.26-5.72-1.35-5.72-3.6v-14.78c0-3.41,2.31-6.43,5.53-6.43h0Z"/>
    <path class="st1" d="M498.66,400.75v-1.73h-11.95v1.73l1.8.13c1.61.13,2.89.51,2.89,1.86,0,.51-.26,1.16-.64,2.06l-7.84,19.28-7.9-19.15c-.39-1.03-.64-1.61-.64-2.18,0-1.22,1.22-1.74,2.89-1.86l1.8-.13v-1.73h-14.01v1.73c2.63.13,4.11,1.29,5.21,3.79l10.41,25-2.44,5.65c-1.61,3.79-3.21,5.78-5.33,5.78-.84,0-1.54-.32-2.51-.96-1.03-.71-1.8-1.03-2.83-1.03-1.8,0-3.41,1.48-3.41,3.34,0,2.06,1.99,3.86,4.88,3.86,1.54,0,3.15-.45,4.5-1.22,2.83-1.54,4.95-4.37,6.68-8.48l13.24-31.93c1.09-2.57,2.51-3.66,5.2-3.79v-.02Z"/>
    <path class="st1" d="M192.49,497.71c6.49,0,12.59-2.57,17.28-7.45v-8.16c0-4.18,1.03-5.53,6.17-5.72v-1.93h-18.31v1.93c6.49.19,7.71,1.54,7.71,5.72v8.74c-3.28,1.99-7.26,3.08-11.18,3.08-10.54,0-20.24-8.42-20.24-23.07,0-11.63,7.13-21.4,18.18-21.4,8.1,0,12.59,5.21,17.41,13.37h2.06l-4.11-15.42h-1.67l-2.12,2.89c-3.34-2.25-7.32-3.28-11.44-3.28-12.27,0-23.45,10.73-23.45,25.51s10.28,25.19,23.71,25.19h0Z"/>
    <path class="st1" d="M234.7,497.71c5.98,0,10.6-3.6,13.43-10.02l-1.67-.77c-2.44,4.43-6.17,6.68-10.79,6.68-6.23,0-10.99-5.91-10.99-14.84v-1.22h22.75c.06-.26.06-.45.06-.71,0-7.45-4.95-13.11-12.4-13.11-8.67,0-14.84,7.26-14.84,17.09s5.98,16.9,14.46,16.9h-.01ZM233.93,466.03c5.08,0,8.1,4.05,8.1,9.12v.06h-17.09c.96-5.72,4.18-9.19,9-9.19h-.01Z"/>
    <path class="st1" d="M272.16,494.69v1.74h15.61v-1.74c-4.69-.26-5.72-1.35-5.72-3.6v-15.94c0-3.47-.9-6.36-2.63-8.29-1.93-2.06-4.75-3.15-7.84-3.15-4.05,0-7.65,1.99-10.35,5.59h-.64l.13-5.59h-1.28c-2.51,1.74-5.65,2.83-8.67,3.28v1.74h5.78v22.36c0,2.25-.96,3.34-5.72,3.6v1.74h15.61v-1.74c-4.69-.26-5.72-1.35-5.72-3.6v-18.18c2.38-3.34,5.65-5.46,9.38-5.46,2.44,0,4.37.77,5.78,2.31,1.41,1.61,1.99,3.86,1.99,6.62v14.71c0,2.25-.96,3.34-5.72,3.6h.01Z"/>
    <path class="st1" d="M303.65,497.71c5.98,0,10.6-3.6,13.43-10.02l-1.67-.77c-2.44,4.43-6.17,6.68-10.79,6.68-6.23,0-10.99-5.91-10.99-14.84v-1.22h22.75c.06-.26.06-.45.06-.71,0-7.45-4.95-13.11-12.4-13.11-8.67,0-14.84,7.26-14.84,17.09s5.98,16.9,14.46,16.9h0ZM302.88,466.03c5.08,0,8.1,4.05,8.1,9.12v.06h-17.09c.96-5.72,4.18-9.19,9-9.19h-.01Z"/>
    <path class="st1" d="M335.2,469.89c1.35,0,2.51.39,3.79.39,1.86,0,3.34-1.41,3.34-3.34s-1.67-3.21-3.85-3.21c-2.89,0-5.65,2.18-8.29,6.75h-.64l.13-6.75h-1.28c-2.51,1.74-5.65,2.83-8.67,3.28v1.74h5.78v22.36c0,2.25-.96,3.34-5.72,3.6v1.74h15.61v-1.74c-4.69-.26-5.72-1.35-5.72-3.6v-14.78c0-3.41,2.31-6.43,5.53-6.43h0Z"/>
    <path class="st1" d="M363.15,492.12h.64l-.06,4.95,9.19-.64v-1.74c-4.11-.38-5.08-1.41-5.08-3.6v-1.16l.13-13.43v-1.35c.06-8.42-5.08-11.44-10.15-11.44-5.65,0-11.18,3.79-14.2,10.22l1.67.9c2.63-4.75,7.07-7.13,11.05-7.13,3.6,0,7.39,2.06,7.39,7.26v3.66l-8.1,2.18c-6.88,1.86-10.73,5.27-10.73,9.57,0,3.79,3.08,7.33,7.84,7.33,2.96,0,7.13-1.29,10.41-5.59h0ZM349.84,489.16c0-2.57,1.8-4.95,7.71-6.75l6.17-1.86v8.03c-2.51,3.66-5.53,5.59-8.55,5.59s-5.33-2.06-5.33-5.01h0Z"/>
    <path class="st1" d="M395.66,488.65l-1.73-.58c-1.48,3.98-3.66,6.04-6.62,6.04-4.11,0-4.82-3.92-4.88-7.33v-1.41l.06-17.73h11.63v-2.63h-11.57v-10.28h-1.73c-.77,5.78-4.18,9.57-8.74,11.18v1.74h6.36l-.32,19.47v.9c0,6.23,3.08,9.7,7.97,9.7,4.5,0,7.77-3.21,9.57-9.06h0Z"/>
    <path class="st1" d="M405.62,448.49c-2.25,0-4.11,1.86-4.11,4.05s1.86,4.11,4.11,4.11,4.11-1.86,4.11-4.11-1.86-4.05-4.11-4.05Z"/>
    <path class="st1" d="M397.78,468.73h5.78v22.36c0,2.25-.96,3.34-5.72,3.6v1.74h15.49v-1.74c-4.63-.26-5.59-1.35-5.59-3.6v-27.37h-1.28c-2.51,1.74-5.65,2.83-8.67,3.28v1.74h0Z"/>
    <path class="st1" d="M430.23,497.71c8.61,0,15.1-7.07,15.1-17.22,0-9.38-6.3-16.83-15.1-16.83s-15.29,7.07-15.29,17.03,6.36,17.03,15.29,17.03h0ZM429.46,466.1c7.84,0,11.31,9.7,11.31,16.77s-3.6,12.4-9.77,12.4c-7.9,0-11.44-9.57-11.44-16.77s3.79-12.4,9.9-12.4Z"/>
    <path class="st1" d="M484.65,494.69c-4.69-.26-5.72-1.35-5.72-3.6v-15.94c0-3.47-.9-6.36-2.63-8.29-1.93-2.06-4.75-3.15-7.84-3.15-4.05,0-7.65,1.99-10.35,5.59h-.64l.13-5.59h-1.28c-2.51,1.74-5.65,2.83-8.67,3.28v1.74h5.78v22.36c0,2.25-.96,3.34-5.72,3.6v1.74h15.61v-1.74c-4.69-.26-5.72-1.35-5.72-3.6v-18.18c2.38-3.34,5.65-5.46,9.38-5.46,2.44,0,4.37.77,5.78,2.31,1.41,1.61,1.99,3.86,1.99,6.62v14.71c0,2.25-.96,3.34-5.72,3.6v1.74h15.61v-1.74h.01Z"/>
    <path class="st1" d="M487.03,476.76c0,15.1,8.22,26.79,12.47,31.36h2.89c-5.91-7.65-10.67-17.61-10.67-31.36s4.75-23.71,10.67-31.36h-2.89c-4.24,4.56-12.47,16.26-12.47,31.36Z"/>
    <path class="st1" d="M513.95,465.9c4.82,0,8.03,3.21,12.4,9.45h1.86l-2.96-10.99h-1.48l-1.86,2.44c-2.51-2.18-5.46-3.15-8.29-3.15-5.4,0-10.09,3.47-10.09,8.48,0,4.69,3.34,7.39,8.29,9.12l6.43,2.31c4.18,1.48,6.43,3.34,6.36,6.3,0,3.08-3.08,5.46-7,5.46-5.59,0-9.32-4.05-13.56-10.34h-1.86l3.28,12.08h1.41l2.06-2.83c2.63,2.38,5.85,3.47,8.87,3.47,5.59,0,10.79-3.53,10.79-9.25,0-4.82-3.66-7.65-8.8-9.51l-6.3-2.25c-3.66-1.35-5.98-3.02-5.98-5.85.06-2.89,2.76-4.95,6.43-4.95h0Z"/>
    <path class="st1" d="M531.49,445.41h-2.89c5.91,7.65,10.67,17.61,10.67,31.36s-4.75,23.71-10.67,31.36h2.89c4.24-4.56,12.47-16.26,12.47-31.36s-8.22-26.79-12.47-31.36h0Z"/>
    <path class="st1" d="M251.86,560.49h-4.05c-4.56,0-5.59-.96-5.59-5.14v-34.31c0-4.18,1.03-5.14,5.59-5.14h4.05v-1.93h-37.01v1.93l2.06.13c3.6.19,5.27,1.09,5.27,2.89,0,.71-.26,1.54-.64,2.51l-14.01,35.28-13.88-35.34c-.45-1.09-.64-1.86-.64-2.57,0-1.8,1.48-2.63,4.75-2.76l2.12-.13v-1.93h-17.93v1.93c3.79.13,5.01,1.16,6.75,5.53l16.77,42.15h1.93l16.9-42.15c1.73-4.37,2.89-5.4,6.68-5.53h1.09c4.69,0,5.65,1.09,5.65,5.14v34.31c0,4.05-.96,5.14-5.65,5.14h-3.98v1.93h23.77v-1.93h0Z"/>
    <path class="st1" d="M313.99,553.42c3.02-4.11,4.63-9.25,4.63-14.97,0-6.75-1.99-12.53-5.98-16.9-6.75-7.33-15.23-7.58-25.32-7.58h-15.04v1.93c6.36.19,7.58,1.54,7.58,5.72v33.16c0,4.11-1.22,5.53-7.58,5.72v1.93h15.87c11.57,0,19.79-.83,25.83-9h.01ZM292.66,559.91h-8.29v-43.5h7.45c7.58,0,13.43,2.7,17.03,7.45,2.83,3.73,4.3,8.67,4.3,14.52s-1.16,10.15-3.41,13.62c-3.34,5.14-9.06,7.9-17.09,7.9h.01Z"/>
    <path class="st1" d="M350.1,552.9c-2.44,4.43-6.17,6.68-10.79,6.68-6.23,0-10.99-5.91-10.99-14.84v-1.22h22.75c.06-.26.06-.45.06-.71,0-7.45-4.95-13.11-12.4-13.11-8.67,0-14.84,7.26-14.84,17.09s5.98,16.9,14.46,16.9c5.98,0,10.6-3.6,13.43-10.02l-1.67-.77h0ZM337.57,532.02c5.08,0,8.1,4.05,8.1,9.12v.06h-17.09c.96-5.72,4.18-9.19,9-9.19h-.01Z"/>
    <path class="st1" d="M370.47,532.02c3.15,0,5.27,1.41,5.65,4.75.32,2.57,1.67,4.05,3.6,4.05s3.21-1.41,3.21-3.41c0-4.3-5.72-7.77-11.89-7.77-8.74,0-15.16,6.94-15.16,17.16s5.98,16.9,14.46,16.9c5.98,0,10.6-3.6,13.43-10.02l-1.67-.77c-2.44,4.43-6.1,6.62-10.79,6.68-6.17,0-10.99-5.91-10.99-15.04,0-7.26,4.05-12.53,10.15-12.53h0Z"/>
    <path class="st1" d="M416.16,562.41v-1.74c-4.11-.38-5.08-1.41-5.08-3.6v-1.16l.13-13.43v-1.35c.06-8.42-5.08-11.44-10.15-11.44-5.65,0-11.18,3.79-14.2,10.22l1.67.9c2.63-4.75,7.07-7.13,11.05-7.13,3.6,0,7.39,2.06,7.39,7.26v3.66l-8.1,2.18c-6.88,1.86-10.73,5.27-10.73,9.57,0,3.79,3.08,7.33,7.84,7.33,2.96,0,7.13-1.29,10.41-5.59h.64l-.06,4.95,9.19-.64h0ZM406.97,554.57c-2.51,3.66-5.53,5.59-8.55,5.59s-5.33-2.06-5.33-5.01c0-2.57,1.8-4.95,7.71-6.75l6.17-1.86v8.03h0Z"/>
    <path class="st1" d="M451.88,562.41l.06-1.74c-3.98-.19-5.78-1.03-5.78-3.41v-44.27h-1.29c-2.51,1.8-5.65,2.83-8.67,3.28v1.73h5.78v14.01c-2.83-1.54-5.65-2.31-8.48-2.31-8.55,0-15.68,7-15.68,18.06,0,9.51,5.27,15.94,13.11,15.94,4.24,0,7.84-1.99,10.54-5.59h.64l-.13,5.01,9.9-.71h0ZM441.99,554.51c-2.51,3.66-5.85,5.59-9.51,5.59-6.36,0-9.9-5.59-9.9-13.3,0-8.8,4.43-14.78,10.92-14.84,3.47-.06,6.43,1.54,8.48,4.5v18.06h0Z"/>
    <path class="st1" d="M480.92,543.52c.06-.26.06-.45.06-.71,0-7.45-4.95-13.11-12.4-13.11-8.67,0-14.84,7.26-14.84,17.09s5.98,16.9,14.46,16.9c5.98,0,10.6-3.6,13.43-10.02l-1.67-.77c-2.44,4.43-6.17,6.68-10.79,6.68-6.23,0-10.99-5.91-10.99-14.84v-1.22h22.75,0ZM467.43,532.02c5.08,0,8.1,4.05,8.1,9.12v.06h-17.09c.96-5.72,4.18-9.19,9-9.19h-.01Z"/>
    <path class="st1" d="M490.56,563.06l2.06-2.83c2.63,2.38,5.85,3.47,8.87,3.47,5.59,0,10.79-3.53,10.79-9.25,0-4.82-3.66-7.65-8.8-9.51l-6.3-2.25c-3.66-1.35-5.98-3.02-5.98-5.85.06-2.89,2.76-4.95,6.43-4.95,4.82,0,8.03,3.21,12.4,9.45h1.86l-2.96-10.99h-1.48l-1.86,2.44c-2.51-2.18-5.46-3.15-8.29-3.15-5.4,0-10.09,3.47-10.09,8.48,0,4.69,3.34,7.39,8.29,9.12l6.43,2.31c4.18,1.48,6.43,3.34,6.36,6.3,0,3.08-3.08,5.46-7,5.46-5.59,0-9.32-4.05-13.56-10.34h-1.86l3.28,12.08h1.41Z"/>
    <path class="st1" d="M517.1,570.12v1.86c5.85-.45,10.41-4.56,10.41-9.96,0-3.47-2.44-6.75-5.65-6.75-2.38,0-3.92,1.86-3.92,3.79s1.35,3.53,3.41,3.85c1.54.19,2.38,1.03,2.38,2.31,0,2.25-3.21,4.69-6.62,4.88v.02Z"/>
    <path class="st1" d="M231.36,581.88v-1.93h-19.66v1.93c6.36.19,7.58,1.54,7.58,5.72v33.16c0,4.11-1.22,5.53-7.58,5.72v1.93h19.66v-1.93c-6.36-.19-7.58-1.61-7.58-5.72v-33.16c0-4.18,1.22-5.53,7.58-5.72Z"/>
    <path class="st1" d="M256.42,626.67v1.74h15.61v-1.74c-4.69-.26-5.72-1.35-5.72-3.6v-15.94c0-3.47-.9-6.36-2.63-8.29-1.93-2.06-4.75-3.15-7.84-3.15-4.05,0-7.65,1.99-10.35,5.59h-.64l.13-5.59h-1.28c-2.51,1.74-5.65,2.83-8.67,3.28v1.74h5.78v22.36c0,2.25-.96,3.34-5.72,3.6v1.74h15.61v-1.74c-4.69-.26-5.72-1.35-5.72-3.6v-18.18c2.38-3.34,5.65-5.46,9.38-5.46,2.44,0,4.37.77,5.78,2.31,1.41,1.61,1.99,3.86,1.99,6.62v14.71c0,2.25-.96,3.34-5.72,3.6h.01Z"/>
    <path class="st1" d="M276.92,619.99c0,6.23,3.08,9.7,7.97,9.7,4.5,0,7.77-3.21,9.57-9.06l-1.73-.58c-1.48,3.98-3.66,6.04-6.62,6.04-4.11,0-4.82-3.92-4.88-7.33v-1.41l.06-17.73h11.63v-2.63h-11.57v-10.28h-1.73c-.77,5.78-4.18,9.57-8.74,11.18v1.74h6.36l-.32,19.47v.9h0Z"/>
    <path class="st1" d="M311.93,629.69c5.98,0,10.6-3.6,13.43-10.02l-1.67-.77c-2.44,4.43-6.17,6.68-10.79,6.68-6.23,0-10.99-5.91-10.99-14.84v-1.22h22.75c.06-.26.06-.45.06-.71,0-7.45-4.95-13.11-12.4-13.11-8.67,0-14.84,7.26-14.84,17.09s5.98,16.9,14.46,16.9h0ZM311.16,598.01c5.08,0,8.1,4.05,8.1,9.12v.06h-17.09c.96-5.72,4.18-9.19,9-9.19h-.01Z"/>
    <path class="st1" d="M343.48,601.87c1.35,0,2.51.39,3.79.39,1.86,0,3.34-1.41,3.34-3.34s-1.67-3.21-3.85-3.21c-2.89,0-5.65,2.18-8.29,6.75h-.64l.13-6.75h-1.28c-2.51,1.74-5.65,2.83-8.67,3.28v1.74h5.78v22.36c0,2.25-.96,3.34-5.72,3.6v1.74h15.61v-1.74c-4.69-.26-5.72-1.35-5.72-3.6v-14.78c0-3.41,2.31-6.43,5.53-6.43h0Z"/>
    <path class="st1" d="M357.81,602.57l10.67,26.99h1.93l10.67-26.99c1.03-2.63,2.51-3.73,5.2-3.86v-1.74h-12.02v1.74l1.8.13c1.61.13,2.89.51,2.89,1.86,0,.51-.26,1.16-.58,2.06l-7.97,20.37-7.84-20.18c-.39-1.03-.58-1.67-.58-2.25,0-1.22,1.16-1.74,2.89-1.86l1.73-.13v-1.74h-14.01v1.74c2.63.13,4.18,1.29,5.2,3.86h.02Z"/>
    <path class="st1" d="M415.83,628.4v-1.74c-4.11-.38-5.08-1.41-5.08-3.6v-1.16l.13-13.43v-1.35c.06-8.42-5.08-11.44-10.15-11.44-5.65,0-11.18,3.79-14.2,10.22l1.67.9c2.63-4.75,7.07-7.13,11.05-7.13,3.6,0,7.39,2.06,7.39,7.26v3.66l-8.1,2.18c-6.88,1.86-10.73,5.27-10.73,9.57,0,3.79,3.08,7.33,7.84,7.33,2.96,0,7.13-1.29,10.41-5.59h.64l-.06,4.95,9.19-.64h0ZM406.65,620.56c-2.51,3.66-5.53,5.59-8.55,5.59s-5.33-2.06-5.33-5.01c0-2.57,1.8-4.95,7.71-6.75l6.17-1.86v8.03h0Z"/>
    <path class="st1" d="M434.02,626.67c-4.69-.26-5.72-1.35-5.72-3.6v-44.08h-1.29c-2.51,1.8-5.65,2.83-8.67,3.28v1.73h5.78v39.07c0,2.25-.96,3.34-5.72,3.6v1.74h15.61v-1.74h.01Z"/>
    <path class="st1" d="M499.69,626.6c-1.8-.58-5.08-2.96-8.1-5.85l-3.02-2.76c1.99-3.41,3.53-7.52,4.43-11.95.77-3.98,1.99-4.95,6.62-5.08v-1.8h-15.49v1.8c4.56.13,5.72.96,5.65,4.43,0,3.86-1.03,7.71-2.83,11.05l-16.13-14.91c5.98-2.96,11.95-7.2,11.95-13.24,0-5.27-4.69-9.38-10.99-9.38-6.62,0-11.76,4.37-11.76,10.54,0,4.69,3.02,8.61,6.55,11.89-6.49,3.34-11.69,7.97-11.69,14.84,0,7.52,6.36,13.43,15.23,13.43,5.85,0,11.37-2.63,15.55-7.52l5.78,6.3h8.22v-1.8h.03ZM464.34,589.08c0-5.08,3.47-8.03,7.13-8.03s7,2.89,7,7.58c0,5.46-4.37,8.93-9.19,11.37-3.08-3.73-4.95-7.2-4.95-10.92h.01ZM471.61,625.96c-6.75,0-11.89-4.82-11.82-11.05,0-5.85,3.28-9.32,8.35-12.02l16.06,17.54c-3.28,3.6-7.58,5.53-12.59,5.53Z"/>
    <path class="st1" d="M158.82,653.33v15.23c0,3.98-1.99,5.01-6.3,5.01v2.31c4.31,0,6.3,1.03,6.3,5.01v15.23c0,7.13,3.79,10.6,11.18,9.7v-1.86c-5.46.45-6.88-2.12-6.88-6.04v-15.23c0-3.86-1.67-7.26-5.85-7.71v-.51c4.18-.45,5.85-3.86,5.85-7.71v-15.23c0-3.92,1.41-6.49,6.88-6.04v-1.86c-7.39-.9-11.18,2.57-11.18,9.7h0Z"/>
    <path class="st1" d="M206.43,647.87c6.43.19,7.58,1.54,7.58,5.72v33.61l-30.58-41.25h-11.57v1.93c6.36.19,7.58,1.54,7.58,5.72v33.16c0,4.11-1.22,5.53-7.58,5.72v1.93h17.73v-1.93c-6.43-.19-7.58-1.61-7.58-5.72v-35.08l32.51,43.89h2.06v-41.96c0-4.18,1.22-5.53,7.58-5.72v-1.93h-17.73v1.93-.02Z"/>
    <path class="st1" d="M240.55,691.57c-6.23,0-10.99-5.91-10.99-14.84v-1.22h22.75c.06-.26.06-.45.06-.71,0-7.45-4.95-13.11-12.4-13.11-8.67,0-14.84,7.26-14.84,17.09s5.98,16.9,14.46,16.9c5.98,0,10.6-3.6,13.43-10.02l-1.67-.77c-2.44,4.43-6.17,6.68-10.79,6.68h-.01ZM238.81,664c5.08,0,8.1,4.05,8.1,9.12v.06h-17.09c.96-5.72,4.18-9.19,9-9.19h-.01Z"/>
    <path class="st1" d="M281.93,689.06l-8.61-11.57,7.58-9.25c1.93-2.38,3.6-3.41,6.62-3.53v-1.74h-12.47v1.74l1.8.06c1.29.06,2.06.51,2.06,1.29,0,.58-.45,1.29-1.29,2.38l-5.85,7.2-5.27-7.13c-.9-1.16-1.22-1.74-1.22-2.31,0-.9.77-1.35,2.12-1.41l1.8-.06v-1.74h-14.33v1.74c2.76.13,4.43,1.16,6.17,3.47l7.77,10.54-8.35,10.34c-1.93,2.38-3.47,3.34-6.36,3.6v1.74h12.34v-1.74l-1.73-.19c-1.48-.13-2.18-.51-2.18-1.29,0-.51.26-1.16,1.16-2.25l6.81-8.35,6.1,8.35c.71,1.03,1.09,1.74,1.09,2.25,0,.77-.71,1.22-1.93,1.29l-1.93.19v1.74h14.46v-1.74c-3.02-.19-4.63-1.28-6.36-3.6v-.02Z"/>
    <path class="st1" d="M312.19,686.04c-1.48,3.98-3.66,6.04-6.62,6.04-4.11,0-4.82-3.92-4.88-7.33v-1.41l.06-17.73h11.63v-2.63h-11.57v-10.28h-1.73c-.77,5.78-4.18,9.57-8.74,11.18v1.74h6.36l-.32,19.47v.9c0,6.23,3.08,9.7,7.97,9.7,4.5,0,7.77-3.21,9.57-9.06l-1.73-.58h0Z"/>
    <path class="st1" d="M324.66,668.56v-15.23c0-7.13-3.79-10.6-11.18-9.7v1.86c5.46-.45,6.88,2.12,6.88,6.04v15.23c0,3.86,1.67,7.26,5.85,7.71v.51c-4.18.45-5.85,3.86-5.85,7.71v15.23c0,3.92-1.41,6.49-6.88,6.04v1.86c7.39.9,11.18-2.57,11.18-9.7v-15.23c0-3.98,1.99-5.01,6.3-5.01v-2.31c-4.31,0-6.3-1.03-6.3-5.01h0Z"/>
    <path class="st1" d="M357.36,691.89h-13.49v-20.43h8.55c4.18,0,5.53,1.35,5.72,8.61h1.93v-19.85h-1.93c-.19,7.33-1.54,8.74-5.72,8.74h-8.55v-20.56h12.14c7.77,0,12.21,4.11,14.59,12.4h2.06l-3.92-14.84h-36.95v1.93c6.36.19,7.58,1.54,7.58,5.72v33.16c0,4.11-1.22,5.53-7.58,5.72v1.93h38.23l3.98-14.84h-2.06c-2.44,8.22-6.81,12.34-14.59,12.34v-.03Z"/>
    <path class="st1" d="M396.23,661.69c-4.24,0-7.84,1.99-10.54,5.59h-.64l.13-5.59h-1.29c-2.44,1.74-5.65,2.83-8.67,3.28v1.74h5.78v37.14c0,2.25-.96,3.34-5.72,3.6v1.73h15.61v-1.73c-4.69-.26-5.72-1.35-5.72-3.6v-10.47c2.83,1.54,5.65,2.31,8.48,2.31,8.55,0,15.68-7,15.68-18.06,0-9.51-5.27-15.94-13.11-15.94h.01ZM393.66,693.43c-3.47.06-6.43-1.54-8.48-4.5v-18.06c2.51-3.66,5.85-5.59,9.51-5.59,6.36,0,9.9,5.59,9.9,13.3,0,8.8-4.43,14.78-10.92,14.84h0Z"/>
    <path class="st1" d="M422,689.06v-27.37h-1.28c-2.51,1.74-5.65,2.83-8.67,3.28v1.74h5.78v22.36c0,2.25-.96,3.34-5.72,3.6v1.74h15.49v-1.74c-4.63-.26-5.59-1.35-5.59-3.6h0Z"/>
    <path class="st1" d="M419.88,654.62c2.25,0,4.11-1.86,4.11-4.11s-1.86-4.05-4.11-4.05-4.11,1.86-4.11,4.05,1.86,4.11,4.11,4.11Z"/>
    <path class="st1" d="M447.57,676.92l-6.3-2.25c-3.66-1.35-5.98-3.02-5.98-5.85.06-2.89,2.76-4.95,6.43-4.95,4.82,0,8.03,3.21,12.4,9.45h1.86l-2.96-10.99h-1.48l-1.86,2.44c-2.51-2.18-5.46-3.15-8.29-3.15-5.4,0-10.09,3.47-10.09,8.48,0,4.69,3.34,7.39,8.29,9.12l6.43,2.31c4.18,1.48,6.43,3.34,6.36,6.3,0,3.08-3.08,5.46-7,5.46-5.59,0-9.32-4.05-13.56-10.34h-1.86l3.28,12.08h1.41l2.06-2.83c2.63,2.38,5.85,3.47,8.87,3.47,5.59,0,10.79-3.53,10.79-9.25,0-4.82-3.66-7.65-8.8-9.51h0Z"/>
    <path class="st1" d="M476.29,661.62c-8.42,0-15.29,7.07-15.29,17.03s6.36,17.03,15.29,17.03,15.1-7.07,15.1-17.22c0-9.38-6.3-16.83-15.1-16.83h0ZM477.07,693.24c-7.9,0-11.44-9.57-11.44-16.77s3.79-12.4,9.9-12.4c7.84,0,11.31,9.7,11.31,16.77s-3.6,12.4-9.77,12.4Z"/>
    <path class="st1" d="M524.55,689.25v-44.27h-1.29c-2.51,1.8-5.65,2.83-8.67,3.28v1.73h5.78v14.01c-2.83-1.54-5.65-2.31-8.48-2.31-8.55,0-15.68,7-15.68,18.06,0,9.51,5.27,15.94,13.11,15.94,4.24,0,7.84-1.99,10.54-5.59h.64l-.13,5.01,9.9-.71.06-1.74c-3.98-.19-5.78-1.03-5.78-3.41h0ZM520.37,686.49c-2.51,3.66-5.85,5.59-9.51,5.59-6.36,0-9.9-5.59-9.9-13.3,0-8.8,4.43-14.78,10.92-14.84,3.47-.06,6.43,1.54,8.48,4.5v18.06h.01Z"/>
    <path class="st1" d="M547.49,691.57c-6.23,0-10.99-5.91-10.99-14.84v-1.22h22.75c.06-.26.06-.45.06-.71,0-7.45-4.95-13.11-12.4-13.11-8.67,0-14.84,7.26-14.84,17.09s5.98,16.9,14.46,16.9c5.98,0,10.6-3.6,13.43-10.02l-1.67-.77c-2.44,4.43-6.17,6.68-10.79,6.68h-.01ZM545.75,664c5.08,0,8.1,4.05,8.1,9.12v.06h-17.09c.96-5.72,4.18-9.19,9-9.19h0Z"/>
    <path class="st1" d="M1031.05,166.54h4.43v-15.16h7.65v-4.05h-7.65v-29.24h-4.37l-23.32,29.81v3.47h23.26v15.16h0ZM1011.07,147.33l19.98-25.51v25.51h-19.98Z"/>
    <path class="st1" d="M910.82,167.82c10.67,0,17.28-9.7,17.28-25.38s-6.62-25.38-17.35-25.38-17.35,9.7-17.35,25.38,6.68,25.38,17.41,25.38h0ZM922.65,142.96c0,12.92-3.15,22.55-11.82,22.55-4.88,0-8.03-3.08-9.83-8.16l20.56-26.34c.77,3.41,1.09,7.45,1.09,11.95ZM910.7,119.38c5.01,0,8.22,3.15,10.02,8.48l-20.63,26.34c-.77-3.53-1.16-7.71-1.16-12.27,0-13.17,2.96-22.55,11.76-22.55h0Z"/>
    <path class="st1" d="M1004.35,153.24h-1.99c-1.73,6.17-5.08,9.12-11.31,9.12h-15.74l9.51-8.16c4.88-4.18,9.06-8.42,11.57-11.95,2.7-3.6,4.24-7.39,4.31-11.18.06-8.1-6.17-13.94-13.69-13.94s-12.92,5.33-16.96,12.59l1.67,1.09c3.28-5.2,8.1-8.93,13.56-8.93,5.98,0,10.09,4.5,10.09,10.79-.06,3.21-1.09,6.49-3.28,9.57-2.51,3.66-5.46,6.68-9.32,10.28l-12.98,12.08v1.93h30.97l3.6-13.3h0Z"/>
    <path class="st1" d="M950.17,167.82c9.38,0,16.64-7,16.64-15.87s-7.07-15.74-15.74-15.74c-3.66,0-7.9,1.22-11.31,4.18l-.45-.13,2.76-18.06h21.98l.64-4.11h-25l-3.28,25,1.99.64c3.02-2.63,7-4.24,10.79-4.24,7.13,0,12.21,5.33,12.21,12.21s-5.59,11.95-12.66,11.95c-5.59,0-10.67-3.28-13.75-7.9l-1.61,1.03c3.66,6.49,9.77,11.05,16.77,11.05h.02Z"/>
    <path class="st1" d="M789.93,145.33c7.26,0,12.47-5.78,12.47-14.07,0-7.65-4.95-13.75-12.47-13.75s-12.53,5.78-12.53,13.94c0,7.71,4.95,13.88,12.53,13.88h0ZM789.29,119.7c6.17,0,8.93,7.84,8.93,13.62s-2.83,9.83-7.65,9.83c-6.17,0-8.93-7.77-8.93-13.56s2.96-9.9,7.65-9.9h0Z"/>
    <path class="st1" d="M828.93,122.33h17.93l-18.83,32.26c-2.57,4.43-5.65,9-6.75,10.02v1.93h6.62l21.53-45.11v-3.34h-30.26l-3.53,13.3h1.99c1.73-6.17,5.08-9.06,11.31-9.06h0Z"/>
    <path class="st1" d="M1056.52,166.15c0-3.47-2.44-6.75-5.65-6.75-2.38,0-3.92,1.86-3.92,3.79s1.35,3.53,3.41,3.86c1.54.19,2.38,1.03,2.38,2.31,0,2.25-3.21,4.69-6.62,4.88v1.86c5.85-.45,10.41-4.56,10.41-9.96h-.01Z"/>
    <rect class="st1" x="778.36" y="150.28" width="23.13" height="2.44"/>
    <path class="st1" d="M869.33,167.82c10.67,0,17.28-9.7,17.28-25.38s-6.62-25.38-17.35-25.38-17.35,9.7-17.35,25.38,6.68,25.38,17.41,25.38h0ZM881.15,142.96c0,12.92-3.15,22.55-11.82,22.55-4.88,0-8.03-3.08-9.83-8.16l20.56-26.34c.77,3.41,1.09,7.45,1.09,11.95ZM869.2,119.38c5.01,0,8.22,3.15,10.02,8.48l-20.63,26.34c-.77-3.53-1.16-7.71-1.16-12.27,0-13.17,2.96-22.55,11.76-22.55h0Z"/>
    <path class="st1" d="M744.31,164.61c-6.36-.19-7.58-1.61-7.58-5.72v-34.25l29.11,43.05h1.99v-41.96c0-4.18,1.03-5.53,6.62-5.72v-1.93h-16.9v1.93c6.36.19,7.58,1.54,7.58,5.72l.06,32.9-27.37-40.54h-11.31v1.93c6.36.19,7.58,1.54,7.58,5.72v33.16c0,4.11-1.22,5.53-7.58,5.72v1.93h17.8v-1.93h0Z"/>
    <path class="st1" d="M762.49,186.01c6.36.19,7.58,1.54,7.13,5.72l-3.41,33.16c-.39,4.18-1.67,5.53-8.03,5.72v1.93h17.73v-1.93c-6.36-.19-7.58-1.54-7.13-5.72l3.79-36.75,16.96,45.56h1.67l17.28-45.62,3.73,36.82c.45,4.18-.71,5.53-7.13,5.72v1.93h19.73v-1.93c-6.36-.19-7.65-1.54-8.03-5.72l-3.41-33.16c-.45-4.18.77-5.53,7.13-5.72v-1.93h-13.11l-15.94,41.89-15.68-41.89h-13.3v1.93h.02Z"/>
    <path class="st1" d="M826.75,216.79c0,9.51,6.36,17.03,15.29,17.03s15.1-7.07,15.1-17.22c0-9.38-6.3-16.83-15.1-16.83s-15.29,7.07-15.29,17.03h0ZM852.58,218.97c0,7.32-3.6,12.4-9.77,12.4-7.9,0-11.44-9.57-11.44-16.77s3.79-12.4,9.9-12.4c7.84,0,11.31,9.7,11.31,16.77Z"/>
    <path class="st1" d="M870.38,205.41h-.64l.13-5.59h-1.29c-2.51,1.73-5.65,2.83-8.67,3.28v1.73h5.78v22.36c0,2.25-.96,3.34-5.72,3.6v1.73h15.61v-1.73c-4.69-.26-5.72-1.35-5.72-3.6v-18.25c2.18-3.08,5.4-5.4,9.25-5.4,2.18,0,3.98.71,5.33,2.25,1.35,1.48,1.93,3.73,1.93,6.43v14.97c0,2.25-1.03,3.34-5.72,3.6v1.73h15.49v-1.73c-4.63-.26-5.59-1.35-5.59-3.6v-16.71l-.06-1.73c2.06-2.96,5.21-5.2,9.06-5.2,2.18,0,3.98.71,5.33,2.25,1.35,1.48,1.93,3.73,1.93,6.43v14.97c0,2.25-.96,3.34-5.65,3.6v1.73h15.55v-1.73c-4.75-.26-5.72-1.35-5.72-3.6v-16.26c0-3.47-.83-6.17-2.57-8.1-1.8-1.99-4.5-3.02-7.45-3.02-4.56,0-8.03,2.44-10.41,6.04h-.71c-.39-1.16-.96-2.12-1.8-3.02-1.8-1.99-4.5-3.02-7.45-3.02-4.43,0-7.77,2.31-10.22,5.59h0Z"/>
    <path class="st1" d="M945.88,213.64c.06-.26.06-.45.06-.71,0-7.45-4.95-13.11-12.4-13.11-8.67,0-14.84,7.26-14.84,17.09s5.98,16.9,14.46,16.9c5.98,0,10.6-3.6,13.43-10.02l-1.67-.77c-2.44,4.43-6.17,6.68-10.79,6.68-6.23,0-10.99-5.91-10.99-14.84v-1.22h22.75-.01ZM932.38,202.14c5.08,0,8.1,4.05,8.1,9.12v.06h-17.09c.96-5.72,4.18-9.19,9-9.19h0Z"/>
    <path class="st1" d="M958.4,199.82c-2.51,1.73-5.65,2.83-8.67,3.28v1.73h5.78v22.36c0,2.25-.96,3.34-5.72,3.6v1.73h15.61v-1.73c-4.69-.26-5.72-1.35-5.72-3.6v-18.18c2.38-3.34,5.65-5.46,9.38-5.46,2.44,0,4.37.77,5.78,2.31,1.41,1.61,1.99,3.85,1.99,6.62v14.71c0,2.25-.96,3.34-5.72,3.6v1.73h15.61v-1.73c-4.69-.26-5.72-1.35-5.72-3.6v-15.94c0-3.47-.9-6.36-2.63-8.29-1.93-2.06-4.75-3.15-7.84-3.15-4.05,0-7.65,1.99-10.34,5.59h-.64l.13-5.59h-1.29,0Z"/>
    <path class="st1" d="M994.84,190.83c-.77,5.78-4.18,9.57-8.74,11.18v1.73h6.36l-.32,19.47v.9c0,6.23,3.08,9.7,7.97,9.7,4.5,0,7.77-3.21,9.57-9.06l-1.74-.58c-1.48,3.98-3.66,6.04-6.62,6.04-4.11,0-4.82-3.92-4.88-7.33v-1.41l.06-17.73h11.63v-2.63h-11.57v-10.28h-1.73.01Z"/>
    <path class="st1" d="M1013.47,240.24v1.86c5.85-.45,10.41-4.56,10.41-9.96,0-3.47-2.44-6.75-5.65-6.75-2.38,0-3.92,1.86-3.92,3.79s1.35,3.53,3.41,3.86c1.54.19,2.38,1.03,2.38,2.31,0,2.25-3.21,4.69-6.62,4.88h0Z"/>
    <path class="st1" d="M742.51,283.68h-2.06c-2.44,8.22-6.81,12.34-14.59,12.34h-13.49v-20.43h8.55c4.18,0,5.53,1.35,5.72,8.61h1.93v-19.85h-1.93c-.19,7.33-1.54,8.74-5.72,8.74h-8.55v-20.56h12.14c7.78,0,12.21,4.11,14.59,12.4h2.06l-3.92-14.84h-36.95v1.93c6.36.19,7.58,1.54,7.58,5.72v33.16c0,4.11-1.22,5.53-7.58,5.72v1.93h38.23l3.98-14.84v-.03Z"/>
    <path class="st1" d="M762.17,268.13c3.15,0,5.27,1.41,5.65,4.75.32,2.57,1.67,4.05,3.6,4.05s3.21-1.41,3.21-3.41c0-4.31-5.72-7.77-11.89-7.77-8.74,0-15.16,6.94-15.16,17.16s5.98,16.9,14.46,16.9c5.98,0,10.6-3.6,13.43-10.02l-1.67-.77c-2.44,4.43-6.1,6.62-10.79,6.68-6.17,0-10.99-5.91-10.99-15.04,0-7.26,4.05-12.53,10.15-12.53h0Z"/>
    <path class="st1" d="M785.75,249.11c-2.51,1.8-5.65,2.83-8.67,3.28v1.73h5.78v39.07c0,2.25-.96,3.34-5.72,3.6v1.73h15.61v-1.73c-4.69-.26-5.72-1.35-5.72-3.6v-18.18c2.38-3.34,5.65-5.46,9.38-5.46,2.44,0,4.37.77,5.78,2.31,1.41,1.61,1.99,3.85,1.99,6.62v14.71c0,2.25-.96,3.34-5.72,3.6v1.73h15.61v-1.73c-4.69-.26-5.72-1.35-5.72-3.6v-15.94c0-3.47-.9-6.36-2.63-8.29-1.93-2.06-4.75-3.15-7.84-3.15-4.05,0-7.65,1.99-10.35,5.59h-.64l.13-22.3h-1.29.02Z"/>
    <path class="st1" d="M831.25,265.75c-8.42,0-15.29,7.07-15.29,17.03s6.36,17.03,15.29,17.03,15.1-7.07,15.1-17.22c0-9.38-6.3-16.83-15.1-16.83h0ZM832.02,297.36c-7.9,0-11.44-9.57-11.44-16.77s3.79-12.4,9.9-12.4c7.84,0,11.31,9.7,11.31,16.77s-3.6,12.4-9.77,12.4Z"/>
    <path class="st1" d="M850.27,306.23v1.86c5.85-.45,10.41-4.56,10.41-9.96,0-3.47-2.44-6.75-5.65-6.75-2.38,0-3.92,1.86-3.92,3.79s1.35,3.53,3.41,3.86c1.54.19,2.38,1.03,2.38,2.31,0,2.25-3.21,4.69-6.62,4.88h0Z"/>
    <path class="st1" d="M876.68,296.59v1.93h19.66v-1.93c-6.36-.19-7.58-1.61-7.58-5.72v-10.41h6.17c5.53,0,9.51-.71,12.79-2.25,5.59-2.57,8.35-7.52,8.35-12.92s-2.76-10.54-8.42-12.98c-3.08-1.54-7.2-2.25-13.17-2.25h-17.8v1.93c6.36.19,7.58,1.54,7.58,5.72v33.16c0,4.11-1.22,5.53-7.58,5.72h0ZM888.76,252.51h4.82c5.01,0,8.35.71,10.99,2.06,3.98,2.12,5.91,6.1,5.91,10.73s-1.93,8.48-5.91,10.67c-2.44,1.35-5.85,2.06-10.99,2.06h-4.82v-25.51h0Z"/>
    <path class="st1" d="M920.18,269.48c3.98.06,5.72,1.09,5.72,3.28v15.94c0,3.41.83,6.17,2.57,8.1,1.8,1.99,4.5,3.02,7.45,3.02,4.43,0,7.78-2.38,10.15-5.59h.64l-.13,5.01,9.96-.71v-1.73c-3.92-.19-5.78-1.03-5.78-3.41v-26.92l-9.96,1.29v1.73c4.05.06,5.78,1.09,5.78,3.28v17.86c-2.18,3.15-5.4,5.46-9.25,5.46-2.18,0-3.98-.77-5.33-2.25-1.35-1.54-1.93-3.79-1.93-6.49v-20.88l-9.9,1.29v1.73h.01Z"/>
    <path class="st1" d="M968.5,249.11c-2.51,1.8-5.65,2.83-8.67,3.28v1.73h5.78v39.07c0,2.25-.96,3.34-5.72,3.6v1.73h15.61v-1.73c-4.69-.26-5.72-1.35-5.72-3.6v-44.08h-1.29,0Z"/>
    <path class="st1" d="M993.75,297.43c-5.59,0-9.32-4.05-13.56-10.35h-1.86l3.28,12.08h1.41l2.06-2.83c2.63,2.38,5.85,3.47,8.87,3.47,5.59,0,10.79-3.53,10.79-9.25,0-4.82-3.66-7.65-8.8-9.51l-6.3-2.25c-3.66-1.35-5.98-3.02-5.98-5.85.06-2.89,2.76-4.95,6.43-4.95,4.82,0,8.03,3.21,12.4,9.45h1.86l-2.96-10.99h-1.48l-1.86,2.44c-2.51-2.18-5.46-3.15-8.29-3.15-5.4,0-10.09,3.47-10.09,8.48,0,4.69,3.34,7.39,8.29,9.12l6.42,2.31c4.18,1.48,6.43,3.34,6.36,6.3,0,3.08-3.08,5.46-7,5.46v.02Z"/>
    <path class="st1" d="M1009.94,282.9c0,9.7,5.98,16.9,14.46,16.9,5.98,0,10.6-3.6,13.43-10.02l-1.67-.77c-2.44,4.43-6.17,6.68-10.79,6.68-6.23,0-10.99-5.91-10.99-14.84v-1.22h22.75c.06-.26.06-.45.06-.71,0-7.45-4.95-13.11-12.4-13.11-8.67,0-14.84,7.26-14.84,17.09h-.01ZM1023.63,268.13c5.08,0,8.1,4.05,8.1,9.12v.06h-17.09c.96-5.72,4.18-9.19,9-9.19h0Z"/>
    <polygon class="st1" points="1047.39 263.5 1047.39 268.58 1061.84 267.03 1060.37 299.8 1065.51 299.8 1063.96 267.03 1078.49 268.58 1078.49 263.5 1064.03 264.98 1065.51 249.11 1060.37 249.11 1061.78 264.98 1047.39 263.5"/>
    <path class="st1" d="M1081.89,291.39c-2.38,0-3.92,1.86-3.92,3.79s1.35,3.53,3.41,3.86c1.54.19,2.38,1.03,2.38,2.31,0,2.25-3.21,4.69-6.62,4.88v1.86c5.85-.45,10.41-4.56,10.41-9.96,0-3.47-2.44-6.75-5.65-6.75h-.01Z"/>
    <path class="st1" d="M741.22,317.99c6.36.19,7.58,1.54,7.58,5.72v33.16c0,4.11-1.22,5.53-7.58,5.72v1.93h19.66v-1.93c-6.36-.19-7.58-1.61-7.58-5.72v-15.29h9.7c4.18,0,5.53,1.35,5.72,8.61h1.93v-19.85h-1.93c-.19,7.33-1.54,8.74-5.72,8.74h-9.7v-20.56h12.85c7.78,0,12.14,4.11,14.59,12.4h2.06l-3.98-14.84h-37.59v1.93-.02Z"/>
    <path class="st1" d="M795.9,338.55h-.64l.13-6.75h-1.29c-2.51,1.73-5.65,2.83-8.67,3.28v1.73h5.78v22.36c0,2.25-.96,3.34-5.72,3.6v1.73h15.61v-1.73c-4.69-.26-5.72-1.35-5.72-3.6v-14.78c0-3.41,2.31-6.43,5.53-6.43,1.35,0,2.51.39,3.79.39,1.86,0,3.34-1.41,3.34-3.34s-1.67-3.21-3.86-3.21c-2.89,0-5.65,2.18-8.29,6.75h0Z"/>
    <path class="st1" d="M839.15,364.51v-1.73c-4.11-.39-5.08-1.41-5.08-3.6v-1.16l.13-13.43v-1.35c.06-8.42-5.08-11.44-10.15-11.44-5.65,0-11.18,3.79-14.2,10.22l1.67.9c2.63-4.75,7.07-7.13,11.05-7.13,3.6,0,7.39,2.06,7.39,7.26v3.66l-8.1,2.18c-6.88,1.86-10.73,5.27-10.73,9.57,0,3.79,3.08,7.33,7.84,7.33,2.96,0,7.13-1.29,10.41-5.59h.64l-.06,4.95,9.19-.64h0ZM829.96,356.67c-2.51,3.66-5.53,5.59-8.55,5.59s-5.33-2.06-5.33-5.01c0-2.57,1.8-4.95,7.71-6.75l6.17-1.86v8.03Z"/>
    <path class="st1" d="M840.88,372.6c0,5.72,6.81,7.65,12.53,7.65,7.65,0,19.79-3.6,19.79-12.14,0-4.75-3.79-7.58-9.32-7.58h-13.49c-2.51,0-4.37-1.03-4.37-3.08,0-1.73,1.41-2.57,3.98-3.53,1.67.84,3.73,1.29,6.04,1.29,7.2,0,12.53-4.63,12.53-11.18,0-3.02-1.22-5.91-3.28-7.58v-.71h8.8v-5.4h-1.29c-2.89,1.73-6.3,2.96-10.28,3.53-1.86-.84-3.98-1.41-6.49-1.41-7.39,0-12.66,4.75-12.66,11.37,0,3.66,1.61,6.88,4.5,8.74v.58c-3.53,1.29-5.65,2.96-5.65,5.78,0,3.08,2.57,5.01,5.72,5.33v.71c-4.5,2.06-7.07,4.24-7.07,7.65v-.02ZM855.79,334.63c5.14,0,7.9,4.43,7.9,9.64s-3.02,8.74-7.52,8.74c-5.33,0-7.84-4.95-7.84-9.77,0-5.27,3.02-8.61,7.45-8.61h.01ZM852.13,364.7h10.67c3.73,0,6.3,1.86,6.3,5.14,0,5.78-8.55,8.1-14.14,8.1-4.69,0-9.19-1.61-9.19-6.23,0-3.66,2.76-5.27,6.36-7h0Z"/>
    <path class="st1" d="M908.48,337.84h-.71c-.39-1.16-.96-2.12-1.8-3.02-1.8-1.99-4.5-3.02-7.45-3.02-4.43,0-7.77,2.31-10.22,5.59h-.64l.13-5.59h-1.29c-2.51,1.73-5.65,2.83-8.67,3.28v1.73h5.78v22.36c0,2.25-.96,3.34-5.72,3.6v1.73h15.61v-1.73c-4.69-.26-5.72-1.35-5.72-3.6v-18.25c2.18-3.08,5.4-5.4,9.25-5.4,2.18,0,3.98.71,5.33,2.25,1.35,1.48,1.93,3.73,1.93,6.43v14.97c0,2.25-1.03,3.34-5.72,3.6v1.73h15.49v-1.73c-4.63-.26-5.59-1.35-5.59-3.6v-16.71l-.06-1.73c2.06-2.96,5.21-5.2,9.06-5.2,2.18,0,3.98.71,5.33,2.25,1.35,1.48,1.93,3.73,1.93,6.43v14.97c0,2.25-.96,3.34-5.65,3.6v1.73h15.55v-1.73c-4.75-.26-5.72-1.35-5.72-3.6v-16.26c0-3.47-.83-6.17-2.57-8.1-1.8-1.99-4.5-3.02-7.45-3.02-4.56,0-8.03,2.44-10.41,6.04h0Z"/>
    <path class="st1" d="M964.51,355.77l-1.67-.77c-2.44,4.43-6.17,6.68-10.79,6.68-6.23,0-10.99-5.91-10.99-14.84v-1.22h22.75c.06-.26.06-.45.06-.71,0-7.45-4.95-13.11-12.4-13.11-8.67,0-14.84,7.26-14.84,17.09s5.98,16.9,14.46,16.9c5.98,0,10.6-3.6,13.43-10.02h-.01ZM950.31,334.12c5.08,0,8.1,4.05,8.1,9.12v.06h-17.09c.96-5.72,4.18-9.19,9-9.19h0Z"/>
    <path class="st1" d="M967.66,336.81h5.78v22.36c0,2.25-.96,3.34-5.72,3.6v1.73h15.61v-1.73c-4.69-.26-5.72-1.35-5.72-3.6v-18.18c2.38-3.34,5.65-5.46,9.38-5.46,2.44,0,4.37.77,5.78,2.31,1.41,1.61,1.99,3.85,1.99,6.62v14.71c0,2.25-.96,3.34-5.72,3.6v1.73h15.61v-1.73c-4.69-.26-5.72-1.35-5.72-3.6v-15.94c0-3.47-.9-6.36-2.63-8.29-1.93-2.06-4.75-3.15-7.84-3.15-4.05,0-7.65,1.99-10.34,5.59h-.64l.13-5.59h-1.29c-2.51,1.73-5.65,2.83-8.67,3.28v1.73h0Z"/>
    <path class="st1" d="M1012.76,322.81c-.77,5.78-4.18,9.57-8.74,11.18v1.73h6.36l-.32,19.47v.9c0,6.23,3.08,9.7,7.97,9.7,4.5,0,7.77-3.21,9.57-9.06l-1.74-.58c-1.48,3.98-3.66,6.04-6.62,6.04-4.11,0-4.82-3.92-4.88-7.33v-1.41l.06-17.73h11.63v-2.63h-11.57v-10.28h-1.73.01Z"/>
    <path class="st1" d="M1036.15,357.38c-2.38,0-3.92,1.86-3.92,3.79s1.35,3.53,3.41,3.86c1.54.19,2.38,1.03,2.38,2.31,0,2.25-3.21,4.69-6.62,4.88v1.86c5.85-.45,10.41-4.56,10.41-9.96,0-3.47-2.44-6.75-5.65-6.75h-.01Z"/>
    <path class="st1" d="M1022.29,421.76l-1.67-.77c-2.44,4.43-6.1,6.62-10.79,6.68-6.17,0-10.99-5.91-10.99-15.04,0-7.26,4.05-12.53,10.15-12.53,3.15,0,5.27,1.41,5.65,4.75.32,2.57,1.67,4.05,3.6,4.05s3.21-1.41,3.21-3.41c0-4.31-5.72-7.77-11.89-7.77-8.74,0-15.16,6.94-15.16,17.16s5.98,16.9,14.46,16.9c5.98,0,10.6-3.6,13.43-10.02h0Z"/>
    <path class="st1" d="M792.31,429.41c-5.59,0-9.32-4.05-13.56-10.35h-1.86l3.28,12.08h1.41l2.06-2.83c2.63,2.38,5.85,3.47,8.87,3.47,5.59,0,10.79-3.53,10.79-9.25,0-4.82-3.66-7.65-8.8-9.51l-6.3-2.25c-3.66-1.35-5.98-3.02-5.98-5.85.06-2.89,2.76-4.95,6.43-4.95,4.82,0,8.03,3.21,12.4,9.45h1.86l-2.96-10.99h-1.48l-1.86,2.44c-2.51-2.18-5.46-3.15-8.29-3.15-5.4,0-10.09,3.47-10.09,8.48,0,4.69,3.34,7.39,8.29,9.12l6.43,2.31c4.18,1.48,6.43,3.34,6.36,6.3,0,3.08-3.08,5.46-7,5.46v.02Z"/>
    <path class="st1" d="M811.96,422.08c0,6.23,3.08,9.7,7.97,9.7,4.5,0,7.77-3.21,9.57-9.06l-1.73-.58c-1.48,3.98-3.66,6.04-6.62,6.04-4.11,0-4.82-3.92-4.88-7.33v-1.41l.06-17.73h11.63v-2.63h-11.57v-10.28h-1.73c-.77,5.78-4.18,9.57-8.74,11.18v1.73h6.36l-.32,19.47v.9h0Z"/>
    <path class="st1" d="M1039.03,428.76c-4.69-.26-5.72-1.35-5.72-3.6v-44.08h-1.29c-2.51,1.8-5.65,2.83-8.67,3.28v1.73h5.78v39.07c0,2.25-.96,3.34-5.72,3.6v1.73h15.61v-1.73h.01Z"/>
    <path class="st1" d="M757.38,397.73c-8.42,0-15.29,7.07-15.29,17.03s6.36,17.03,15.29,17.03,15.1-7.07,15.1-17.22c0-9.38-6.3-16.83-15.1-16.83h0ZM758.15,429.34c-7.9,0-11.44-9.57-11.44-16.77s3.79-12.4,9.9-12.4c7.84,0,11.31,9.7,11.31,16.77s-3.6,12.4-9.77,12.4Z"/>
    <path class="st1" d="M968.16,441.04c-.84,0-1.54-.32-2.51-.96-1.03-.71-1.8-1.03-2.83-1.03-1.8,0-3.41,1.48-3.41,3.34,0,2.06,1.99,3.86,4.88,3.86,1.54,0,3.15-.45,4.5-1.22,2.83-1.54,4.95-4.37,6.68-8.48l13.24-31.93c1.09-2.57,2.51-3.66,5.2-3.79v-1.73h-11.95v1.73l1.8.13c1.61.13,2.89.51,2.89,1.86,0,.51-.26,1.16-.64,2.06l-7.84,19.28-7.9-19.15c-.39-1.03-.64-1.61-.64-2.18,0-1.22,1.22-1.73,2.89-1.86l1.8-.13v-1.73h-14.01v1.73c2.63.13,4.11,1.29,5.2,3.79l10.41,25-2.44,5.65c-1.61,3.79-3.21,5.78-5.33,5.78v-.02Z"/>
    <path class="st1" d="M1055.09,431.78c5.98,0,10.6-3.6,13.43-10.02l-1.67-.77c-2.44,4.43-6.17,6.68-10.79,6.68-6.23,0-10.99-5.91-10.99-14.84v-1.22h22.75c.06-.26.06-.45.06-.71,0-7.45-4.95-13.11-12.4-13.11-8.67,0-14.84,7.26-14.84,17.09s5.98,16.9,14.46,16.9h-.01ZM1054.32,400.11c5.08,0,8.1,4.05,8.1,9.12v.06h-17.09c.96-5.72,4.18-9.19,9-9.19h-.01Z"/>
    <polygon class="st1" points="842.8 413.34 891.82 411.93 878.39 426.71 879.94 428.12 898.51 411.41 898.51 410.26 879.94 393.55 878.39 394.96 891.82 409.74 842.8 408.27 842.8 413.34"/>
    <path class="st1" d="M957.49,419l-1.73-.96c-3.66,5.91-10.02,9.25-16.38,9.25-9.77,0-20.05-7.77-20.05-22.17,0-12.21,7.65-21.59,18.38-21.59,8.03,0,12.85,5.46,17.28,13.17l.13.19h2.06l-4.11-15.42h-1.67l-2.12,2.83c-3.21-2.06-7.13-3.21-11.31-3.21-12.4,0-23.58,10.54-23.58,25.77s10.34,24.93,23.2,24.93c8.42,0,15.42-4.5,19.92-12.79h-.02Z"/>
    <path class="st1" d="M719.89,428.57c-6.36-.19-7.58-1.61-7.58-5.72v-10.41h6.17c5.53,0,9.51-.71,12.79-2.25,5.59-2.57,8.35-7.52,8.35-12.92s-2.76-10.54-8.42-12.98c-3.08-1.54-7.2-2.25-13.17-2.25h-17.8v1.93c6.36.19,7.58,1.54,7.58,5.72v33.16c0,4.11-1.22,5.53-7.58,5.72v1.93h19.66v-1.93h0ZM712.31,384.49h4.82c5.01,0,8.35.71,10.99,2.06,3.98,2.12,5.91,6.1,5.91,10.73s-1.93,8.48-5.91,10.67c-2.44,1.35-5.85,2.06-10.99,2.06h-4.82v-25.51h0Z"/>
    <path class="st1" d="M1077.12,423.37c-2.38,0-3.92,1.86-3.92,3.79s1.35,3.53,3.41,3.86c1.54.19,2.38,1.03,2.38,2.31,0,2.25-3.21,4.69-6.62,4.88v1.86c5.85-.45,10.41-4.56,10.41-9.96,0-3.47-2.44-6.75-5.65-6.75h-.01Z"/>
    <path class="st1" d="M797,487.49c3.02-4.11,4.63-9.25,4.63-14.97,0-6.75-1.99-12.53-5.98-16.9-6.75-7.33-15.23-7.58-25.32-7.58h-15.04v1.93c6.36.19,7.58,1.54,7.58,5.72v33.16c0,4.11-1.22,5.53-7.58,5.72v1.93h15.87c11.57,0,19.79-.83,25.83-9h0ZM775.66,493.98h-8.29v-43.5h7.45c7.58,0,13.43,2.7,17.03,7.45,2.83,3.73,4.31,8.67,4.31,14.52s-1.16,10.15-3.41,13.62c-3.34,5.14-9.06,7.9-17.09,7.9h0Z"/>
    <path class="st1" d="M832.08,492.18h.64l-.13,5.01,9.96-.71v-1.74c-3.92-.19-5.78-1.03-5.78-3.41v-26.92l-9.96,1.29v1.74c4.05.06,5.78,1.09,5.78,3.28v17.86c-2.18,3.15-5.4,5.46-9.25,5.46-2.18,0-3.98-.77-5.33-2.25-1.35-1.54-1.93-3.79-1.93-6.49v-20.88l-9.9,1.29v1.74c3.98.06,5.72,1.09,5.72,3.28v15.94c0,3.41.83,6.17,2.57,8.1,1.8,1.99,4.5,3.02,7.45,3.02,4.43,0,7.78-2.38,10.15-5.59v-.02Z"/>
    <path class="st1" d="M861.7,469.95c1.35,0,2.51.39,3.79.39,1.86,0,3.34-1.41,3.34-3.34s-1.67-3.21-3.86-3.21c-2.89,0-5.65,2.18-8.29,6.75h-.64l.13-6.75h-1.29c-2.51,1.74-5.65,2.83-8.67,3.28v1.74h5.78v22.36c0,2.25-.96,3.34-5.72,3.6v1.74h15.61v-1.74c-4.69-.26-5.72-1.35-5.72-3.6v-14.78c0-3.41,2.31-6.43,5.53-6.43h0Z"/>
    <path class="st1" d="M899.93,496.49v-1.74c-4.11-.38-5.08-1.41-5.08-3.6v-1.16l.13-13.43v-1.35c.06-8.42-5.08-11.44-10.15-11.44-5.65,0-11.18,3.79-14.2,10.22l1.67.9c2.63-4.75,7.07-7.13,11.05-7.13,3.6,0,7.39,2.06,7.39,7.26v3.66l-8.1,2.18c-6.88,1.86-10.73,5.27-10.73,9.57,0,3.79,3.08,7.33,7.84,7.33,2.96,0,7.13-1.29,10.41-5.59h.64l-.06,4.95,9.19-.64h0ZM890.74,488.65c-2.51,3.66-5.53,5.59-8.55,5.59s-5.33-2.06-5.33-5.01c0-2.57,1.8-4.95,7.71-6.75l6.17-1.86v8.03Z"/>
    <path class="st1" d="M923.13,488.71l-1.74-.58c-1.48,3.98-3.66,6.04-6.62,6.04-4.11,0-4.82-3.92-4.88-7.33v-1.41l.06-17.73h11.63v-2.63h-11.57v-10.28h-1.73c-.77,5.78-4.18,9.57-8.74,11.18v1.74h6.36l-.32,19.47v.9c0,6.23,3.08,9.7,7.97,9.7,4.5,0,7.77-3.21,9.57-9.06h.01Z"/>
    <path class="st1" d="M937.71,452.6c0-2.18-1.86-4.05-4.11-4.05s-4.11,1.86-4.11,4.05,1.86,4.11,4.11,4.11,4.11-1.86,4.11-4.11Z"/>
    <path class="st1" d="M925.83,494.75v1.74h15.49v-1.74c-4.63-.26-5.59-1.35-5.59-3.6v-27.37h-1.29c-2.51,1.74-5.65,2.83-8.67,3.28v1.74h5.78v22.36c0,2.25-.96,3.34-5.72,3.6h0Z"/>
    <path class="st1" d="M973.82,480.55c0-9.38-6.3-16.83-15.1-16.83s-15.29,7.07-15.29,17.03,6.36,17.03,15.29,17.03,15.1-7.07,15.1-17.22h0ZM948.06,478.56c0-7.45,3.79-12.4,9.9-12.4,7.84,0,11.31,9.7,11.31,16.77s-3.6,12.4-9.77,12.4c-7.9,0-11.44-9.57-11.44-16.77Z"/>
    <path class="st1" d="M998.05,494.75v1.74h15.61v-1.74c-4.69-.26-5.72-1.35-5.72-3.6v-15.94c0-3.47-.9-6.36-2.63-8.29-1.93-2.06-4.75-3.15-7.84-3.15-4.05,0-7.65,1.99-10.34,5.59h-.64l.13-5.59h-1.29c-2.51,1.74-5.65,2.83-8.67,3.28v1.74h5.78v22.36c0,2.25-.96,3.34-5.72,3.6v1.74h15.61v-1.74c-4.69-.26-5.72-1.35-5.72-3.6v-18.18c2.38-3.34,5.65-5.46,9.38-5.46,2.44,0,4.37.77,5.78,2.31,1.41,1.61,1.99,3.86,1.99,6.62v14.71c0,2.25-.96,3.34-5.72,3.6h0Z"/>
    <path class="st1" d="M1027.73,496.1c0-3.47-2.44-6.75-5.65-6.75-2.38,0-3.92,1.86-3.92,3.79s1.35,3.53,3.41,3.85c1.54.19,2.38,1.03,2.38,2.31,0,2.25-3.21,4.69-6.62,4.88v1.86c5.85-.45,10.41-4.56,10.41-9.96v.02Z"/>
    <path class="st1" d="M730.43,516.09l2.12-.13v-1.93h-17.93v1.93c3.79.13,5.01,1.16,6.75,5.53l16.77,42.15h1.93l16.9-42.15c1.74-4.37,2.89-5.4,6.68-5.53v-1.93h-16.13v1.93l2.06.13c3.6.19,5.27,1.09,5.27,2.89,0,.71-.26,1.54-.64,2.51l-14.01,35.28-13.88-35.34c-.45-1.09-.64-1.86-.64-2.57,0-1.8,1.48-2.63,4.75-2.76h0Z"/>
    <path class="st1" d="M773.29,563.76c8.61,0,15.1-7.07,15.1-17.22,0-9.38-6.3-16.83-15.1-16.83s-15.29,7.07-15.29,17.03,6.36,17.03,15.29,17.03h0ZM772.51,532.15c7.84,0,11.31,9.7,11.31,16.77s-3.6,12.4-9.77,12.4c-7.9,0-11.44-9.57-11.44-16.77s3.79-12.4,9.9-12.4Z"/>
    <path class="st1" d="M791.66,560.74v1.74h15.61v-1.74c-4.69-.26-5.72-1.35-5.72-3.6v-44.08h-1.29c-2.51,1.8-5.65,2.83-8.67,3.28v1.73h5.78v39.07c0,2.25-.96,3.34-5.72,3.6h0Z"/>
    <path class="st1" d="M819.48,559.14c0-2.31-1.86-4.11-4.05-4.11-2.38,0-4.18,1.8-4.18,4.11s1.8,4.05,4.18,4.05c2.18,0,4.05-1.8,4.05-4.05Z"/>
    <path class="st1" d="M908.28,515.96h4.05v-1.93h-39.26v1.93l2.06.13c2.51.13,3.98.83,3.98,2.31,0,.84-.58,2.06-1.73,3.53l-10.15,12.59-9.83-12.98c-1.03-1.41-1.54-2.44-1.54-3.21,0-1.41,1.29-2.12,3.85-2.25l2.12-.13v-1.93h-19.47v1.93c3.79.32,6.23,1.67,10.35,6.94l11.37,15.04-13.11,16c-3.34,4.05-5.78,6.17-10.15,6.62v1.93h17.54v-1.93l-2.38-.26c-2.25-.19-3.6-.77-3.6-2.31,0-1.03.58-2.18,1.8-3.73l11.63-14.46,10.92,14.46c1.35,1.67,1.93,3.08,1.93,4.05,0,1.41-1.29,1.8-3.47,2.06l-2.38.19v1.93h39.52v-1.93h-4.05c-4.56,0-5.59-.96-5.59-5.14v-34.31c0-4.18,1.03-5.14,5.59-5.14h0ZM898.2,555.41c0,4.05-.96,5.14-5.65,5.14h-1.03c-3.66-.32-5.21-1.35-8.48-5.65l-14.14-18.44,11.37-13.94c3.86-4.82,6.3-6.42,9.7-6.55h2.57c4.69,0,5.65,1.09,5.65,5.14v34.31h.01Z"/>
    <rect class="st1" x="921.27" y="536.58" width="31.55" height="3.34"/>
    <path class="st1" d="M1048.17,515.96h4.05v-1.93h-59.76v1.93l2.06.13c2.51.13,3.98.83,3.98,2.31,0,.84-.58,2.06-1.73,3.53l-10.15,12.59-9.83-12.98c-1.03-1.41-1.54-2.44-1.54-3.21,0-1.41,1.29-2.12,3.85-2.25l2.12-.13v-1.93h-19.47v1.93c3.79.32,6.23,1.67,10.35,6.94l11.37,15.04-13.11,16c-3.34,4.05-5.78,6.17-10.15,6.62v1.93h17.54v-1.93l-2.38-.26c-2.25-.19-3.6-.77-3.6-2.31,0-1.03.58-2.18,1.8-3.73l11.63-14.46,10.92,14.46c1.35,1.67,1.93,3.08,1.93,4.05,0,1.41-1.29,1.8-3.47,2.06l-2.38.19v1.93h60.01v-1.93h-4.05c-4.56,0-5.59-.96-5.59-5.14v-34.31c0-4.18,1.03-5.14,5.59-5.14h.01ZM1017.58,555.41c0,4.05-.96,5.14-5.65,5.14h-1.03c-3.66-.32-5.21-1.35-8.48-5.65l-14.14-18.44,11.37-13.94c3.86-4.82,6.3-6.42,9.7-6.55h2.57c4.69,0,5.65,1.09,5.65,5.14v34.31h.01ZM1038.08,555.41c0,4.05-.96,5.14-5.65,5.14h-4.75c-4.56,0-5.59-.96-5.59-5.14v-34.31c0-4.18,1.03-5.14,5.59-5.14h4.75c4.69,0,5.65,1.09,5.65,5.14v34.31Z"/>
    <path class="st1" d="M1056.33,570.19v1.86c5.85-.45,10.41-4.56,10.41-9.96,0-3.47-2.44-6.75-5.65-6.75-2.38,0-3.92,1.86-3.92,3.79s1.35,3.53,3.41,3.85c1.54.19,2.38,1.03,2.38,2.31,0,2.25-3.21,4.69-6.62,4.88v.02Z"/>
    <path class="st1" d="M751.83,629.04l3.15-4.3c3.66,3.34,8.29,5.01,12.98,5.01,8.8,0,15.36-5.46,15.36-13.49,0-6.88-5.08-11.05-12.66-13.82l-9.45-3.34c-5.98-2.12-9-5.01-9-9.19,0-5.08,4.37-8.48,10.34-8.48,7.45,0,11.89,4.69,17.8,13.43h2.06l-4.11-15.42h-1.67l-2.89,3.92c-3.47-3.15-7.39-4.31-11.31-4.31-8.16,0-14.65,5.14-14.65,12.59,0,6.23,4.69,10.28,11.69,12.72l9.77,3.47c6.75,2.38,9.57,5.53,9.57,9.9,0,5.53-4.37,9.51-11.37,9.51-8.42,0-13.62-5.72-19.08-14.14l-.64-1.03h-2.06l4.5,16.96h1.67Z"/>
    <path class="st1" d="M803.36,629.75c5.98,0,10.6-3.6,13.43-10.02l-1.67-.77c-2.44,4.43-6.17,6.68-10.79,6.68-6.23,0-10.99-5.91-10.99-14.84v-1.22h22.75c.06-.26.06-.45.06-.71,0-7.45-4.95-13.11-12.4-13.11-8.67,0-14.84,7.26-14.84,17.09s5.98,16.9,14.46,16.9h-.01ZM802.58,598.07c5.08,0,8.1,4.05,8.1,9.12v.06h-17.09c.96-5.72,4.18-9.19,9-9.19h0Z"/>
    <path class="st1" d="M839.98,641.51v1.73h15.61v-1.73c-4.75-.26-5.72-1.35-5.72-3.6v-42.15h-1.73l-2.12,2.51c-2.89-1.67-5.85-2.51-8.8-2.51-8.54,0-15.68,7-15.68,18.06,0,9.51,5.27,15.94,13.11,15.94,4.24,0,7.84-1.99,10.54-5.59h.64l-.13,13.75c0,2.25-1.03,3.34-5.72,3.6h0ZM845.7,620.56c-2.51,3.66-5.85,5.59-9.51,5.59-6.36,0-9.9-5.59-9.9-13.3,0-8.8,4.43-14.78,10.92-14.84,3.47-.06,6.43,1.54,8.48,4.5v18.06h.01Z"/>
    <path class="st1" d="M891.38,628.47v-1.74c-3.92-.19-5.78-1.03-5.78-3.41v-26.92l-9.96,1.29v1.74c4.05.06,5.78,1.09,5.78,3.28v17.86c-2.18,3.15-5.4,5.46-9.25,5.46-2.18,0-3.98-.77-5.33-2.25-1.35-1.54-1.93-3.79-1.93-6.49v-20.88l-9.9,1.29v1.74c3.98.06,5.72,1.09,5.72,3.28v15.94c0,3.41.83,6.17,2.57,8.1,1.8,1.99,4.5,3.02,7.45,3.02,4.43,0,7.78-2.38,10.15-5.59h.64l-.13,5.01,9.96-.71v-.02Z"/>
    <path class="st1" d="M921.52,619.73l-1.67-.77c-2.44,4.43-6.17,6.68-10.79,6.68-6.23,0-10.99-5.91-10.99-14.84v-1.22h22.75c.06-.26.06-.45.06-.71,0-7.45-4.95-13.11-12.4-13.11-8.67,0-14.84,7.26-14.84,17.09s5.98,16.9,14.46,16.9c5.98,0,10.6-3.6,13.43-10.02h-.01ZM907.32,598.07c5.08,0,8.1,4.05,8.1,9.12v.06h-17.09c.96-5.72,4.18-9.19,9-9.19h0Z"/>
    <path class="st1" d="M956.02,623.13v-15.94c0-3.47-.9-6.36-2.63-8.29-1.93-2.06-4.75-3.15-7.84-3.15-4.05,0-7.65,1.99-10.34,5.59h-.64l.13-5.59h-1.29c-2.51,1.74-5.65,2.83-8.67,3.28v1.74h5.78v22.36c0,2.25-.96,3.34-5.72,3.6v1.74h15.61v-1.74c-4.69-.26-5.72-1.35-5.72-3.6v-18.18c2.38-3.34,5.65-5.46,9.38-5.46,2.44,0,4.37.77,5.78,2.31,1.41,1.61,1.99,3.86,1.99,6.62v14.71c0,2.25-.96,3.34-5.72,3.6v1.74h15.61v-1.74c-4.69-.26-5.72-1.35-5.72-3.6h0Z"/>
    <path class="st1" d="M978.06,629.75c5.98,0,10.6-3.6,13.43-10.02l-1.67-.77c-2.44,4.43-6.1,6.62-10.79,6.68-6.17,0-10.99-5.91-10.99-15.04,0-7.26,4.05-12.53,10.15-12.53,3.15,0,5.27,1.41,5.65,4.75.32,2.57,1.67,4.05,3.6,4.05s3.21-1.41,3.21-3.41c0-4.3-5.72-7.77-11.89-7.77-8.74,0-15.16,6.94-15.16,17.16s5.98,16.9,14.46,16.9h0Z"/>
    <path class="st1" d="M1023.11,609.58c.06-.26.06-.45.06-.71,0-7.45-4.95-13.11-12.4-13.11-8.67,0-14.84,7.26-14.84,17.09s5.98,16.9,14.46,16.9c5.98,0,10.6-3.6,13.43-10.02l-1.67-.77c-2.44,4.43-6.17,6.68-10.79,6.68-6.23,0-10.99-5.91-10.99-14.84v-1.22h22.75-.01ZM1009.61,598.07c5.08,0,8.1,4.05,8.1,9.12v.06h-17.09c.96-5.72,4.18-9.19,9-9.19h0Z"/>
    <path class="st1" d="M1028.18,636.18v1.86c5.85-.45,10.41-4.56,10.41-9.96,0-3.47-2.44-6.75-5.65-6.75-2.38,0-3.92,1.86-3.92,3.79s1.35,3.53,3.41,3.85c1.54.19,2.38,1.03,2.38,2.31,0,2.25-3.21,4.69-6.62,4.88v.02Z"/>
    <path class="st1" d="M736.6,648.26c-3.08-1.54-7.2-2.25-13.17-2.25h-17.8v1.93c6.36.19,7.58,1.54,7.58,5.72v33.16c0,4.11-1.22,5.53-7.58,5.72v1.93h19.66v-1.93c-6.36-.19-7.58-1.61-7.58-5.72v-10.41h6.17c5.53,0,9.51-.71,12.79-2.25,5.59-2.57,8.35-7.52,8.35-12.92s-2.76-10.54-8.42-12.98h0ZM733.51,671.9c-2.44,1.35-5.85,2.06-10.99,2.06h-4.82v-25.51h4.82c5.01,0,8.35.71,10.99,2.06,3.98,2.12,5.91,6.1,5.91,10.73s-1.93,8.48-5.91,10.67h0Z"/>
    <path class="st1" d="M768.4,661.75c-2.89,0-5.65,2.18-8.29,6.75h-.64l.13-6.75h-1.29c-2.51,1.74-5.65,2.83-8.67,3.28v1.74h5.78v22.36c0,2.25-.96,3.34-5.72,3.6v1.74h15.61v-1.74c-4.69-.26-5.72-1.35-5.72-3.6v-14.78c0-3.41,2.31-6.43,5.53-6.43,1.35,0,2.51.39,3.79.39,1.86,0,3.34-1.41,3.34-3.34s-1.67-3.21-3.86-3.21h0Z"/>
    <path class="st1" d="M789.67,661.69c-8.42,0-15.29,7.07-15.29,17.03s6.36,17.03,15.29,17.03,15.1-7.07,15.1-17.22c0-9.38-6.3-16.83-15.1-16.83h0ZM790.44,693.3c-7.9,0-11.44-9.57-11.44-16.77s3.79-12.4,9.9-12.4c7.84,0,11.31,9.7,11.31,16.77s-3.6,12.4-9.77,12.4Z"/>
    <path class="st1" d="M829.64,663.81c-1.86-.83-3.98-1.41-6.49-1.41-7.39,0-12.66,4.75-12.66,11.37,0,3.66,1.61,6.88,4.5,8.74v.58c-3.53,1.29-5.65,2.96-5.65,5.78,0,3.08,2.57,5.01,5.72,5.33v.71c-4.5,2.06-7.07,4.24-7.07,7.65,0,5.72,6.81,7.65,12.53,7.65,7.65,0,19.79-3.6,19.79-12.14,0-4.75-3.79-7.58-9.32-7.58h-13.49c-2.51,0-4.37-1.03-4.37-3.08,0-1.73,1.41-2.57,3.98-3.53,1.67.83,3.73,1.28,6.04,1.28,7.2,0,12.53-4.63,12.53-11.18,0-3.02-1.22-5.91-3.28-7.58v-.71h8.8v-5.4h-1.29c-2.89,1.74-6.3,2.96-10.28,3.53h.01ZM819.23,694.65h10.67c3.73,0,6.3,1.86,6.3,5.14,0,5.78-8.55,8.1-14.14,8.1-4.69,0-9.19-1.61-9.19-6.23,0-3.66,2.76-5.27,6.36-7h0ZM823.28,682.96c-5.33,0-7.84-4.95-7.84-9.77,0-5.27,3.02-8.61,7.45-8.61,5.14,0,7.9,4.43,7.9,9.64s-3.02,8.74-7.52,8.74h.01Z"/>
    <path class="st1" d="M863.82,661.75c-2.89,0-5.65,2.18-8.29,6.75h-.64l.13-6.75h-1.29c-2.51,1.74-5.65,2.83-8.67,3.28v1.74h5.78v22.36c0,2.25-.96,3.34-5.72,3.6v1.74h15.61v-1.74c-4.69-.26-5.72-1.35-5.72-3.6v-14.78c0-3.41,2.31-6.43,5.53-6.43,1.35,0,2.51.39,3.79.39,1.86,0,3.34-1.41,3.34-3.34s-1.67-3.21-3.86-3.21h0Z"/>
    <path class="st1" d="M885.34,691.63c-6.23,0-10.99-5.91-10.99-14.84v-1.22h22.75c.06-.26.06-.45.06-.71,0-7.45-4.95-13.11-12.4-13.11-8.67,0-14.84,7.26-14.84,17.09s5.98,16.9,14.46,16.9c5.98,0,10.6-3.6,13.43-10.02l-1.67-.77c-2.44,4.43-6.17,6.68-10.79,6.68h-.01ZM883.61,664.06c5.08,0,8.1,4.05,8.1,9.12v.06h-17.09c.96-5.72,4.18-9.19,9-9.19h0Z"/>
    <path class="st1" d="M920.3,676.98l-6.3-2.25c-3.66-1.35-5.98-3.02-5.98-5.85.06-2.89,2.76-4.95,6.43-4.95,4.82,0,8.03,3.21,12.4,9.45h1.86l-2.96-10.99h-1.48l-1.86,2.44c-2.51-2.18-5.46-3.15-8.29-3.15-5.4,0-10.09,3.47-10.09,8.48,0,4.69,3.34,7.39,8.29,9.12l6.42,2.31c4.18,1.48,6.43,3.34,6.36,6.3,0,3.08-3.08,5.46-7,5.46-5.59,0-9.32-4.05-13.56-10.34h-1.86l3.28,12.08h1.41l2.06-2.83c2.63,2.38,5.85,3.47,8.87,3.47,5.59,0,10.79-3.53,10.79-9.25,0-4.82-3.66-7.65-8.8-9.51h.01Z"/>
    <path class="st1" d="M951.98,676.98l-6.3-2.25c-3.66-1.35-5.98-3.02-5.98-5.85.06-2.89,2.76-4.95,6.43-4.95,4.82,0,8.03,3.21,12.4,9.45h1.86l-2.96-10.99h-1.48l-1.86,2.44c-2.51-2.18-5.46-3.15-8.29-3.15-5.4,0-10.09,3.47-10.09,8.48,0,4.69,3.34,7.39,8.29,9.12l6.42,2.31c4.18,1.48,6.43,3.34,6.36,6.3,0,3.08-3.08,5.46-7,5.46-5.59,0-9.32-4.05-13.56-10.34h-1.86l3.28,12.08h1.41l2.06-2.83c2.63,2.38,5.85,3.47,8.87,3.47,5.59,0,10.79-3.53,10.79-9.25,0-4.82-3.66-7.65-8.8-9.51h.01Z"/>
    <path class="st1" d="M968.36,650.57c0,2.25,1.86,4.11,4.11,4.11s4.11-1.86,4.11-4.11-1.86-4.05-4.11-4.05-4.11,1.86-4.11,4.05Z"/>
    <path class="st1" d="M974.59,689.12v-27.37h-1.29c-2.51,1.74-5.65,2.83-8.67,3.28v1.74h5.78v22.36c0,2.25-.96,3.34-5.72,3.6v1.74h15.49v-1.74c-4.63-.26-5.59-1.35-5.59-3.6h0Z"/>
    <path class="st1" d="M997.72,661.69c-8.42,0-15.29,7.07-15.29,17.03s6.36,17.03,15.29,17.03,15.1-7.07,15.1-17.22c0-9.38-6.3-16.83-15.1-16.83h0ZM998.5,693.3c-7.9,0-11.44-9.57-11.44-16.77s3.79-12.4,9.9-12.4c7.84,0,11.31,9.7,11.31,16.77s-3.6,12.4-9.77,12.4Z"/>
    <path class="st1" d="M1047.01,689.12v-15.94c0-3.47-.9-6.36-2.63-8.29-1.93-2.06-4.75-3.15-7.84-3.15-4.05,0-7.65,1.99-10.34,5.59h-.64l.13-5.59h-1.29c-2.51,1.74-5.65,2.83-8.67,3.28v1.74h5.78v22.36c0,2.25-.96,3.34-5.72,3.6v1.74h15.61v-1.74c-4.69-.26-5.72-1.35-5.72-3.6v-18.18c2.38-3.34,5.65-5.46,9.38-5.46,2.44,0,4.37.77,5.78,2.31,1.41,1.61,1.99,3.86,1.99,6.62v14.71c0,2.25-.96,3.34-5.72,3.6v1.74h15.61v-1.74c-4.69-.26-5.72-1.35-5.72-3.6h0Z"/>
    <polygon class="st1" points="1078.24 656.35 1076.76 651.79 1066.54 656.8 1065.83 656.29 1067.44 645.04 1062.69 645.04 1064.29 656.23 1063.46 656.87 1053.3 651.86 1051.83 656.42 1063.07 658.35 1063.33 659.31 1055.49 667.41 1059.34 670.23 1064.61 660.21 1065.64 660.14 1070.91 670.17 1074.77 667.34 1066.86 659.18 1067.18 658.28 1078.24 656.35"/>
  </g>
</svg>