<?xml version="1.0" encoding="UTF-8"?>
<svg id="Layer_1" xmlns="http://www.w3.org/2000/svg" xmlns:xlink="http://www.w3.org/1999/xlink" version="1.1" viewBox="0 0 1280 800">
  <!-- Generator: Adobe Illustrator 29.8.2, SVG Export Plug-In . SVG Version: 2.1.1 Build 3)  -->
  <defs>
    <style>
      .st0 {
        fill: none;
      }

      .st1 {
        fill: #fbfbfb;
      }

      .st2 {
        clip-path: url(#clippath);
      }
    </style>
    <clipPath id="clippath">
      <rect class="st0" width="1280" height="800"/>
    </clipPath>
  </defs>
  <rect class="st1" width="1280" height="800"/>
  <g class="st2">
    <path d="M1184.61,654h37.76l4.48-16.77h-5.25c-1.92,5.89-4.48,7.81-11.01,7.81h-12.93l9.86-7.42c10.37-7.55,14.98-13.95,14.98-21.12,0-9.34-8.19-16.38-17.54-16.38-8.83,0-16.13,6.14-20.99,14.85l4.48,3.07c3.71-5.12,8.06-8.06,12.93-8.06,5.5,0,9.22,3.84,9.22,9.34s-4.61,10.88-11.26,16.64l-14.72,12.8v5.25ZM1107.94,697.65h32.9v-5.89c-7.04,0-10.24-3.33-10.24-9.09v-30.21c3.84-6.14,10.37-9.98,16.77-9.98,3.58,0,6.66,1.02,8.96,3.58,2.43,2.56,3.71,6.4,3.71,11.26v25.34c0,5.76-3.2,9.09-10.24,9.09v5.89h32.9v-5.89c-7.42,0-10.75-3.33-10.75-9.09v-29.95c0-6.27-1.79-11.39-5.25-14.98-3.71-3.84-9.47-6.02-15.62-6.02-8.7,0-15.61,4.35-20.61,11.52h-1.41c-.77-2.05-1.92-3.97-3.46-5.5-3.71-3.84-9.34-6.02-15.49-6.02-8.58,0-15.1,4.1-20.1,10.62h-1.28l.13-10.62h-2.56c-5.76,3.2-13.7,5.5-20.61,6.66v5.89h11.26v38.4c0,5.76-3.33,9.09-10.75,9.09v5.89h33.41v-5.89c-7.42,0-10.75-3.33-10.75-9.09v-29.44c4.48-7.04,11.01-10.75,17.28-10.75,3.58,0,6.78,1.15,9.09,3.71,2.3,2.56,3.45,6.27,3.45,11.14v25.34c0,5.76-3.33,9.09-10.75,9.09v5.89ZM984.77,697.65h32.9v-5.89c-7.04,0-10.24-3.33-10.24-9.09v-30.21c3.84-6.14,10.37-9.98,16.77-9.98,3.58,0,6.66,1.02,8.96,3.58,2.43,2.56,3.71,6.4,3.71,11.26v25.34c0,5.76-3.2,9.09-10.24,9.09v5.89h32.9v-5.89c-7.42,0-10.75-3.33-10.75-9.09v-29.95c0-6.27-1.79-11.39-5.25-14.98-3.71-3.84-9.47-6.02-15.62-6.02-8.7,0-15.62,4.35-20.61,11.52h-1.41c-.77-2.05-1.92-3.97-3.46-5.5-3.71-3.84-9.34-6.02-15.49-6.02-8.58,0-15.1,4.1-20.1,10.62h-1.28l.13-10.62h-2.56c-5.76,3.2-13.7,5.5-20.61,6.66v5.89h11.26v38.4c0,5.76-3.33,9.09-10.75,9.09v5.89h33.41v-5.89c-7.42,0-10.75-3.33-10.75-9.09v-29.44c4.48-7.04,11.01-10.75,17.28-10.75,3.58,0,6.78,1.15,9.09,3.71,2.3,2.56,3.46,6.27,3.46,11.14v25.34c0,5.76-3.33,9.09-10.75,9.09v5.89ZM934.25,596.01l-37.5,124.93h8.7l37.5-124.93h-8.7ZM877.54,699.18h9.47v-77.31c0-9.73,2.69-14.08,14.21-14.08v-6.66h-37.63v6.66c11.52,0,14.21,4.35,14.21,14.08v54.66l-54.78-75.39h-28.29v6.66c11.52,0,14.21,4.35,14.21,14.08v55.04c0,9.73-2.69,14.08-14.21,14.08v6.66h37.63v-6.66c-11.52,0-14.21-4.35-14.21-14.08v-59.39l59.39,81.66ZM730.47,700.21c19.2,0,34.82-13.82,34.82-32.64s-14.85-31.62-32.51-31.62c-7.3,0-15.1,2.18-21.5,7.3l-.9-.38,4.35-29.82h44.67l1.66-11.9h-54.14l-5.63,49.79,6.27,2.05c5.76-4.48,13.06-7.17,19.97-7.17,12.93,0,22.91,8.96,22.91,21.5s-10.5,21.12-23.3,21.12c-10.37,0-20.1-5.76-26.37-14.21l-5.38,3.58c7.81,13.31,20.22,22.4,35.07,22.4M675.33,699.44c5.63,0,10.37-4.61,10.37-10.11s-4.74-10.11-10.37-10.11-10.24,4.61-10.24,10.11,4.61,10.11,10.24,10.11M624.21,691.63c-15.1,0-20.74-16.77-20.74-42.88s5.25-41.22,20.48-41.22,20.86,16.26,20.86,43.01c0,24.83-5.63,41.09-20.61,41.09M624.21,700.21c22.27,0,36.35-19.58,36.35-50.56s-14.08-50.56-36.48-50.56-36.35,19.46-36.35,50.56,14.21,50.56,36.48,50.56M499.41,729.01c4.35,0,8.45-1.28,11.78-3.33,5.63-3.46,10.11-9.73,13.57-17.79l25.47-59.26c2.43-5.76,5.89-8.45,10.37-8.45v-5.89h-25.73v5.89l2.56.13c3.46.13,5.38,1.15,5.38,3.33,0,.9-.26,1.79-.64,2.82l-14.34,34.3-14.08-33.28c-.77-1.92-1.02-2.82-1.02-3.58,0-1.92,1.66-3.46,5.38-3.58l2.56-.13v-5.89h-30.08v5.89c4.48,0,8.06,2.82,10.5,8.45l20.35,47.23-4.1,9.34c-2.82,6.4-5.25,10.75-9.86,10.75-1.92,0-3.58-.9-4.99-2.05-1.79-1.41-3.58-2.43-6.53-2.43-4.74,0-8.32,3.71-8.32,8.06,0,4.86,4.35,9.47,11.78,9.47M466.59,700.21c10.37,0,17.54-7.04,21.12-18.56l-5.63-2.18c-2.69,6.4-6.91,10.37-12.54,10.37-7.94,0-9.34-6.91-9.47-13.82v-2.05l.13-31.36h24.19v-8.32h-23.94v-20.61h-5.89c-2.82,10.75-9.6,18.56-18.05,23.04v5.89h12.03l-.64,33.41v2.18c0,14.34,7.17,22.02,18.69,22.02M419.59,620.21c5.63,0,10.37-4.61,10.37-10.11s-4.74-9.98-10.37-9.98-10.24,4.61-10.24,9.98,4.61,10.11,10.24,10.11M403.08,697.65h33.41v-5.89c-7.42,0-10.75-3.33-10.75-9.09v-50.94h-2.56c-5.76,3.2-13.7,5.5-20.61,6.66v5.89h11.26v38.4c0,5.76-3.33,9.09-10.75,9.09v5.89ZM338.39,665.65c0-15.74,7.68-26.24,19.71-26.37,6.02-.13,11.39,2.69,15.1,7.55v31.87c-4.35,6.91-10.5,10.75-17.41,10.75-10.62,0-17.41-8.96-17.41-23.81M357.98,631.73c-18.56,0-32.38,14.98-32.38,36.22s11.39,32.26,26.37,32.26c8.45,0,15.49-4.22,20.1-10.62h1.28l-.13,9.6,23.04-1.54v-5.89c-7.3.13-11.14-3.07-11.14-8.7v-83.84h-2.56c-5.76,3.2-13.7,5.5-20.61,6.66v5.89h11.26v23.42c-4.99-2.3-10.11-3.46-15.23-3.46M304.58,620.21c5.63,0,10.37-4.61,10.37-10.11s-4.74-9.98-10.37-9.98-10.24,4.61-10.24,9.98,4.61,10.11,10.24,10.11M288.06,697.65h33.41v-5.89c-7.42,0-10.75-3.33-10.75-9.09v-50.94h-2.56c-5.76,3.2-13.7,5.5-20.61,6.66v5.89h11.26v38.4c0,5.76-3.33,9.09-10.75,9.09v5.89ZM243.27,671.66c-8.7,0-13.44-6.53-13.44-15.74s4.99-15.49,13.18-15.49,13.31,6.4,13.31,16-5.12,15.23-13.06,15.23M242.5,721.2c-9.6,0-17.41-2.56-17.41-10.24,0-5.76,4.22-8.45,10.24-11.14h19.84c7.42,0,12.54,2.43,12.54,8.45,0,9.34-13.44,12.93-25.22,12.93M239.43,729.01c17.28,0,40.19-6.91,40.19-24.32,0-11.14-9.47-16.13-20.22-16.13l-25.6-.13c-5.12,0-8.45-1.79-8.45-5.38,0-3.07,2.69-4.48,6.53-6.02,3.33,1.28,7.17,1.92,11.39,1.92,15.49,0,26.62-8.58,26.62-21.76,0-5.38-1.79-9.86-5.25-13.06v-1.54h16.26v-13.82h-2.82c-6.02,3.07-13.31,5.63-21.12,7.42-4.1-1.79-8.96-2.94-13.82-2.94-15.87,0-27.14,9.34-27.14,22.91,0,7.17,3.2,13.44,9.34,17.41v1.54c-7.04,2.56-10.75,6.53-10.75,11.9,0,5.76,4.48,9.86,10.5,10.75v1.54c-8.45,3.33-13.44,7.68-13.44,14.34,0,11.14,13.7,15.36,27.78,15.36M190.75,620.21c5.63,0,10.37-4.61,10.37-10.11s-4.74-9.98-10.37-9.98-10.24,4.61-10.24,9.98,4.61,10.11,10.24,10.11M174.24,697.65h33.41v-5.89c-7.42,0-10.75-3.33-10.75-9.09v-50.94h-2.56c-5.76,3.2-13.7,5.5-20.61,6.66v5.89h11.26v38.4c0,5.76-3.33,9.09-10.75,9.09v5.89ZM104.48,646.83v-36.99h14.85c8.32,0,13.7,1.15,16.64,2.82,5.89,3.2,8.32,9.22,8.32,15.49s-2.43,12.29-8.32,15.87c-2.94,1.66-8.32,2.82-16.64,2.82h-14.85ZM76.83,697.65h41.86v-6.66c-11.52,0-14.21-4.35-14.21-14.08v-22.27h.13l40.83,43.01h20.86v-6.66c-1.41-.51-6.66-3.84-15.49-10.37l-34.43-25.34h7.42c8.83,0,14.34-.9,18.82-2.56,11.52-4.35,17.41-14.46,17.41-24.58s-5.89-20.1-17.41-24.45c-4.48-1.66-9.86-2.56-18.82-2.56h-46.98v6.66c11.52,0,14.21,4.35,14.21,14.08v55.04c0,9.73-2.69,14.08-14.21,14.08v6.66Z"/>
    <path d="M1120.59,569.65h32.26l1.15-5.89c-6.02-.13-9.47-2.3-8.19-8.7l6.4-29.57c6.91-8.19,12.54-11.39,18.18-11.39,6.14,0,11.01,3.46,10.88,11.26-.13,1.66-.38,3.46-.77,5.5l-5.25,24.32c-1.15,5.76-4.22,8.58-11.78,8.58l-1.15,5.89h32.77l1.28-5.89c-6.53-.13-10.24-2.3-8.96-8.7l5.63-26.11c.51-2.56.77-4.74.77-6.66.26-11.52-7.68-18.69-18.18-18.69-8.06,0-15.23,3.97-22.27,11.78h-1.28c-2.18-7.3-8.7-11.78-17.02-11.78-7.68,0-14.59,3.58-21.5,10.75h-1.28l2.43-10.62h-2.56c-6.66,3.2-14.98,5.5-22.27,6.66l-1.28,5.89h11.26l-8.19,38.91c-1.28,5.76-4.48,8.58-12.54,8.58l-1.28,5.89h33.15l1.15-5.89c-6.14-.13-9.6-2.3-8.32-8.7l6.27-29.06c7.04-8.19,12.8-11.9,18.94-11.9s10.75,3.33,10.62,10.37c-.13,1.79-.26,3.71-.64,5.63l-5.38,25.09c-1.15,5.76-4.35,8.58-11.9,8.58l-1.15,5.89ZM1026.4,572.33c7.42,0,14.34-3.58,21.25-10.75h1.28l-2.3,9.47,23.55-1.41,1.28-5.89c-7.04.13-10.62-2.69-9.34-8.19l10.75-50.56-23.81,2.56-1.28,5.89c7.81,0,10.5,3.33,9.22,9.09l-5.76,27.26c-7.17,8.45-12.93,12.03-18.94,12.03s-10.88-3.46-10.75-10.88c.13-1.66.38-3.58.77-5.5l8.58-40.45-23.81,2.56-1.28,5.89c7.81,0,10.5,3.33,9.22,9.09l-5.63,26.5c-.38,1.79-.64,3.58-.64,5.12-.26,11.14,7.55,18.18,17.66,18.18M994.73,492.21c5.63,0,10.37-4.61,10.37-10.11s-4.74-9.98-10.37-9.98-10.24,4.61-10.24,9.98,4.61,10.11,10.24,10.11M959.92,569.65h33.66l1.28-5.89c-6.53-.13-10.24-2.3-8.96-8.7l10.88-51.33h-2.56c-6.66,3.2-14.98,5.5-22.27,6.66l-1.28,5.89h11.26l-8.19,38.91c-1.28,5.76-4.48,8.58-12.54,8.58l-1.28,5.89ZM875.62,569.65h33.54l1.28-5.89c-6.53-.13-10.24-2.3-8.83-8.7l6.4-30.34c7.55-7.42,13.31-10.5,19.33-10.5s11.39,3.46,11.14,11.52c0,1.66-.26,3.46-.64,5.5l-5.12,23.94c-1.28,5.76-4.35,8.58-12.16,8.58l-1.15,5.89h33.15l1.28-5.89c-6.53-.13-10.24-2.3-8.96-8.7l5.5-25.86c.51-2.56.77-4.86.77-7.04.26-11.26-7.55-18.43-18.05-18.43-7.68,0-14.85,3.58-21.89,10.62h-1.28l2.56-10.62h-2.56c-6.66,3.2-14.98,5.5-22.27,6.66l-1.28,5.89h11.26l-8.19,38.91c-1.28,5.76-4.48,8.58-12.54,8.58l-1.28,5.89ZM817.74,543.92c0-13.06,7.68-32.38,23.68-32.38,6.91,0,12.42,3.71,15.23,10.11l-5.89,28.16c-4.99,6.27-11.26,11.65-18.94,11.65-9.47,0-14.08-7.81-14.08-17.54M840.91,503.73c-22.02,0-36.35,21.63-36.35,42.37,0,15.1,8.45,26.11,22.02,26.11,7.81,0,14.59-3.71,20.61-10.62h1.28l-2.3,9.47,21.89-1.41,1.28-5.89c-4.74-.13-7.94-2.05-7.94-6.14,0-.64.13-1.28.26-2.05l8.06-37.89,2.94-13.95h-5.89c-2.05,1.92-4.22,3.84-6.53,5.76-5.89-3.71-12.42-5.76-19.33-5.76M772.4,572.21c9.73,0,17.54-6.27,23.3-16.9l-5.12-3.07c-3.84,6.02-8.7,9.73-14.08,9.73s-7.81-2.94-7.81-7.94c0-2.05.51-4.48,1.02-7.3l6.91-32.13h24.19l1.79-8.32h-24.19l4.48-20.61h-5.89c-5.38,11.01-14.46,18.82-24.19,22.78l-1.28,6.14h13.18l-7.55,33.28c-.64,2.94-1.02,5.63-1.02,8.06,0,12.8,9.47,16.26,16.26,16.26M740.2,492.21c5.63,0,10.37-4.61,10.37-10.11s-4.74-9.98-10.37-9.98-10.24,4.61-10.24,9.98,4.61,10.11,10.24,10.11M705.38,569.65h33.66l1.28-5.89c-6.53-.13-10.24-2.3-8.96-8.7l10.88-51.33h-2.56c-6.66,3.2-14.98,5.5-22.27,6.66l-1.28,5.89h11.26l-8.19,38.91c-1.28,5.76-4.48,8.58-12.54,8.58l-1.28,5.89ZM631.92,569.65h44.16l1.54-6.66c-11.65,0-14.59-3.07-12.42-13.44l14.46-67.46h4.35c15.1,0,20.86,5.76,21.89,22.78h6.66v-31.74h-77.31l-11.52,31.74h7.17c6.66-15.74,14.85-22.78,29.57-22.78h5.5l-14.21,66.69c-2.18,9.98-6.91,14.21-18.3,14.21l-1.54,6.66ZM534.65,543.92c0-13.06,7.68-32.38,23.68-32.38,6.91,0,12.42,3.71,15.23,9.98l-6.02,28.29c-4.86,6.27-11.14,11.65-18.82,11.65-9.47,0-14.08-7.81-14.08-17.54M557.81,503.73c-22.02,0-36.35,21.63-36.35,42.37,0,15.1,8.45,26.11,22.02,26.11,7.81,0,14.59-3.71,20.61-10.62h1.28l-2.3,9.47,23.68-1.41,1.28-5.89c-7.04.13-10.62-2.69-9.47-8.19l8.06-37.89,9.86-46.46h-2.56c-6.66,3.2-14.98,5.5-22.27,6.66l-1.28,5.89h11.26l-5.38,25.22c-5.63-3.33-11.9-5.25-18.43-5.25M468.52,527.41c3.58-9.22,10.62-16.13,18.82-16.13,6.4,0,11.78,4.35,11.78,12.29,0,1.28-.13,2.56-.26,3.84h-30.34ZM479.4,572.08c12.03,0,21.63-6.53,29.44-17.79l-5.25-3.71c-5.76,7.68-12.67,10.88-19.97,10.88-11.39,0-17.54-8.58-17.54-20.61,0-1.92.13-3.84.38-5.76h45.31c.77-2.94,1.02-5.76,1.02-7.94-.13-13.31-9.34-23.42-24.32-23.42-21.63,0-35.2,21.25-35.2,39.81,0,16.77,9.98,28.54,26.11,28.54M365.39,569.65h33.66l1.28-5.89c-6.53-.13-10.24-2.3-8.96-8.7l6.53-30.21c7.55-7.55,13.31-10.62,19.33-10.62s11.39,3.46,11.14,11.52c0,1.66-.26,3.46-.64,5.5l-5.12,23.94c-1.28,5.76-4.35,8.58-12.16,8.58l-1.15,5.89h33.15l1.28-5.89c-6.53-.13-10.24-2.3-8.96-8.7l5.5-25.86c.51-2.56.77-4.86.77-7.04.26-11.26-7.55-18.43-18.05-18.43-7.68,0-14.85,3.58-21.89,10.62h-1.28l9.34-43.14h-2.56c-6.66,3.2-14.98,5.5-22.27,6.66l-1.28,5.89h11.26l-15.1,71.42c-1.28,5.76-4.48,8.58-12.54,8.58l-1.28,5.89ZM337.17,572.21c13.57,0,23.3-9.47,23.42-19.97,0-8.06-5.12-13.06-13.31-18.05l-10.5-6.14c-4.86-2.82-7.3-5.12-7.3-8.83,0-4.86,4.35-8.19,10.5-8.19,7.81,0,14.21,5.25,21.12,17.92h5.76v-23.94h-4.86l-5.38,6.53c-5.25-5.76-12.29-8.06-18.43-8.06-12.67,0-22.02,8.32-22.14,18.82,0,7.94,4.74,13.06,12.93,17.66l10.24,5.89c5.12,2.94,8.19,5.25,8.19,9.22-.13,5.5-5.12,9.34-11.78,9.34-8.7,0-15.62-6.27-22.66-19.71h-5.76v26.24h4.86l6.14-7.3c5.5,5.89,12.29,8.58,18.94,8.58M252.45,572.33c7.42,0,14.34-3.58,21.25-10.75h1.28l-2.3,9.47,23.55-1.41,1.28-5.89c-7.04.13-10.62-2.69-9.34-8.19l10.75-50.56-23.81,2.56-1.28,5.89c7.81,0,10.5,3.33,9.22,9.09l-5.76,27.26c-7.17,8.45-12.93,12.03-18.94,12.03s-10.88-3.46-10.75-10.88c.13-1.66.38-3.58.77-5.5l8.58-40.45-23.81,2.56-1.28,5.89c7.81,0,10.5,3.33,9.22,9.09l-5.63,26.5c-.38,1.79-.64,3.58-.64,5.12-.26,11.14,7.55,18.18,17.66,18.18M165.59,569.65h33.66l1.28-5.89c-6.53-.13-10.24-2.3-8.96-8.7l4.99-23.55c1.54-6.78,6.4-12.93,13.31-12.93,2.94,0,5.38,1.15,8.45,1.15,4.61,0,8.06-3.97,8.06-8.19s-3.71-7.81-8.58-7.81c-6.66,0-13.18,6.27-16.26,10.62h-1.54l2.43-10.62h-2.56c-6.66,3.2-14.98,5.5-22.27,6.66l-1.28,5.89h11.26l-8.19,38.91c-1.28,5.76-4.48,8.58-12.54,8.58l-1.28,5.89ZM113.2,514.86l7.04-33.15h12.42c7.81,0,12.93,1.28,16.13,3.84,2.69,2.43,4.1,5.63,4.1,9.73,0,4.48-1.41,10.11-7.3,14.85-3.84,2.82-9.09,4.74-16.38,4.74h-16ZM122.41,561.07h-19.07l7.94-37.38h13.44c8.58,0,14.21,1.54,17.92,4.86,3.07,2.94,4.61,6.78,4.61,11.52,0,5.76-2.3,11.39-6.78,15.49-4.48,3.84-11.01,5.5-18.05,5.5M123.69,569.65c11.9,0,20.61-2.18,27.26-6.91,8.96-6.14,12.03-15.1,12.03-22.02,0-12.03-8.7-18.69-20.22-20.61l.26-1.28c13.18-.77,25.09-9.73,25.09-23.17,0-6.78-2.82-12.16-7.3-15.87-5.76-4.86-13.82-6.66-25.22-6.66h-41.47l-1.41,6.66c10.75,0,13.57,3.07,11.39,13.44l-11.78,55.55c-2.18,9.98-6.66,14.21-17.28,14.21l-1.41,6.66h50.05Z"/>
    <path d="M1167.67,464.94h9.86c9.09-9.6,24.58-32.9,24.58-62.46s-15.49-52.86-24.58-62.46h-9.86c11.65,14.98,21.12,34.94,21.12,62.46s-9.47,47.49-21.12,62.46M1123.72,398.25c1.92-8.96,7.42-14.85,15.49-14.85s13.57,5.38,14.08,14.85h-29.57ZM1140.74,444.21c12.93,0,22.53-8.06,28.03-21.25l-5.76-2.69c-4.48,8.45-11.39,12.29-19.46,12.29-12.54,0-20.61-11.78-20.61-26.5v-.13h44.29c.13-1.15.13-2.43.13-3.71,0-15.1-10.5-26.5-25.73-26.5-17.79,0-30.98,14.59-30.98,34.56.13,19.71,12.8,33.92,30.08,33.92M1075.03,444.21c12.93,0,22.66-8.06,28.03-21.25l-5.76-2.69c-4.35,8.19-10.88,12.16-19.46,12.29-12.29,0-20.74-11.78-20.74-26.75,0-12.8,7.17-22.27,17.92-22.27,5.89,0,9.6,2.94,10.62,8.96.9,5.38,3.97,8.32,8.32,8.32,4.74,0,8.06-3.46,8.06-8.32,0-9.6-12.16-16.9-25.09-16.9-17.66,0-32,13.57-32,34.82.13,19.46,12.8,33.79,30.08,33.79M1024.49,364.21c5.63,0,10.37-4.61,10.37-10.11s-4.74-9.98-10.37-9.98-10.24,4.61-10.24,9.98,4.61,10.11,10.24,10.11M1007.98,441.65h33.41v-5.89c-7.42,0-10.75-3.33-10.75-9.09v-50.94h-2.56c-5.76,3.2-13.7,5.5-20.61,6.66v5.89h11.26v38.4c0,5.76-3.33,9.09-10.75,9.09v5.89ZM982.69,444.21c10.37,0,17.54-7.04,21.12-18.56l-5.63-2.18c-2.69,6.4-6.91,10.37-12.54,10.37-7.94,0-9.34-6.91-9.47-13.82v-2.05l.13-31.36h24.19v-8.32h-23.94v-20.61h-5.89c-2.82,10.75-9.6,18.56-18.05,23.04v5.89h12.03l-.64,33.41v2.18c0,14.34,7.17,22.02,18.69,22.02M924.58,444.33c11.52,0,22.66-7.42,22.66-19.58,0-9.98-7.81-15.74-18.05-19.58l-12.29-4.61c-6.27-2.3-10.37-4.99-10.37-9.6s4.61-7.81,10.62-7.81c7.42,0,14.34,4.48,23.42,16.77l.13.26h6.14l-6.14-23.17h-4.86l-3.2,4.48c-4.99-3.97-11.01-5.89-16.51-5.89-11.65,0-21.76,7.04-21.76,18.05,0,9.98,7.17,15.74,17.41,19.46l12.29,4.48c7.04,2.56,10.88,5.5,10.88,10.24,0,5.25-5.12,8.58-11.39,8.58-8.45,0-16.9-5.76-25.73-18.82h-6.14l6.78,25.34h4.86l3.58-4.86c5.5,4.1,11.78,6.27,17.66,6.27M853.86,441.65h33.41v-5.89c-7.42,0-10.75-3.33-10.75-9.09v-83.46h-2.56c-5.76,3.2-13.7,5.5-20.61,6.66v5.89h11.26v70.91c0,5.76-3.33,9.09-10.75,9.09v5.89ZM818.98,436.01c-13.31,0-19.58-13.44-19.58-27.78s6.66-24.58,18.3-24.58c13.18,0,19.46,13.95,19.46,27.9s-6.53,24.45-18.18,24.45M818.21,444.21c16.9,0,32.26-13.95,32.26-34.43s-14.85-34.18-32.26-34.18-32.26,13.57-32.26,34.18,14.72,34.43,32.26,34.43M743.98,444.21c17.66,0,32-11.01,31.87-27.65-.13-14.46-10.75-22.91-25.98-28.54l-18.56-6.66c-10.75-3.84-16.51-8.58-16.51-16,0-8.83,7.55-13.95,17.54-13.95,14.46,0,23.55,8.45,35.33,25.47h7.04l-8.7-32.51h-5.63l-5.25,7.04c-7.17-5.89-15.36-8.19-23.3-8.19-17.02,0-30.72,10.11-30.72,25.86,0,13.57,9.98,21.76,24.58,27.01l18.94,6.78c12.16,4.35,17.41,9.6,17.41,17.28,0,9.34-7.68,15.62-19.71,15.62-16.26,0-27.26-11.52-38.78-29.18h-7.04l9.6,35.84h5.63l5.76-7.81c7.68,6.4,17.02,9.6,26.5,9.6M673.33,340.01l-37.5,124.93h8.7l37.5-124.93h-8.7ZM592.82,441.65h31.36v-5.89c-5.38,0-9.34-2.94-12.93-7.55l-16.26-20.48,14.34-16.26c3.84-4.35,7.81-7.3,13.57-7.3v-5.89h-26.88v5.89l1.92.13c2.43.13,3.46.9,3.46,2.3,0,1.28-.9,2.69-2.43,4.48l-9.47,11.01-8.32-10.75c-1.54-1.92-2.18-3.2-2.18-4.35,0-1.66,1.15-2.56,3.71-2.69l1.92-.13v-5.89h-30.98v5.89c5.12,0,9.09,2.94,12.67,7.55l14.85,18.82-15.49,17.92c-3.84,4.35-7.94,7.3-13.31,7.3v5.89h26.75v-5.89l-1.79-.13c-2.69-.26-3.71-1.02-3.71-2.3,0-1.15.64-2.43,2.43-4.48l10.75-12.54,9.47,12.29c1.41,1.79,2.18,3.46,2.18,4.48,0,1.41-1.02,2.3-3.84,2.56l-1.79.13v5.89ZM519.46,436.01c-13.31,0-19.58-13.44-19.58-27.78s6.66-24.58,18.3-24.58c13.18,0,19.46,13.95,19.46,27.9s-6.53,24.45-18.18,24.45M518.7,444.21c16.9,0,32.26-13.95,32.26-34.43s-14.85-34.18-32.26-34.18-32.26,13.57-32.26,34.18,14.72,34.43,32.26,34.43M407.08,441.65h33.41v-5.89c-7.42,0-10.75-3.33-10.75-9.09v-29.57c3.58-5.63,9.22-10.62,17.54-10.62,4.22,0,7.42,1.28,9.73,3.71,2.69,2.69,3.84,6.53,3.84,11.39v25.09c0,5.76-3.33,9.09-10.75,9.09v5.89h33.41v-5.89c-7.42,0-10.75-3.33-10.75-9.09v-29.06c0-6.53-2.05-11.9-5.5-15.62-3.84-3.97-9.73-6.27-16-6.27-8.83,0-15.87,4.22-20.48,10.62h-1.28l.26-10.62h-2.56c-5.76,3.2-13.7,5.5-20.61,6.66v5.89h11.26v38.4c0,5.76-3.33,9.09-10.75,9.09v5.89ZM384,364.21c5.63,0,10.37-4.61,10.37-10.11s-4.74-9.98-10.37-9.98-10.24,4.61-10.24,9.98,4.61,10.11,10.24,10.11M367.49,441.65h33.41v-5.89c-7.42,0-10.75-3.33-10.75-9.09v-50.94h-2.56c-5.76,3.2-13.7,5.5-20.61,6.66v5.89h11.26v38.4c0,5.76-3.33,9.09-10.75,9.09v5.89ZM317.01,444.21c8.58,0,15.1-4.22,20.1-10.62h1.28l-.26,9.6,23.04-1.54v-5.89c-7.3.13-11.14-3.07-11.14-8.7v-50.05l-23.04,2.56v5.89c7.3,0,11.14,3.07,11.14,8.7v28.54c-4.48,7.17-11.14,10.75-17.28,10.75-3.58,0-6.78-1.15-9.09-3.71-2.3-2.56-3.46-6.27-3.46-11.14v-41.6l-23.04,2.56v5.89c7.3,0,11.14,3.07,11.14,8.7v29.06c0,6.27,1.79,11.39,5.25,14.98,3.58,3.84,9.22,6.02,15.36,6.02M230.03,409.65c0-15.74,7.68-26.24,19.71-26.37,6.02-.13,11.39,2.69,15.1,7.55v31.87c-4.35,6.91-10.5,10.75-17.41,10.75-10.62,0-17.41-8.96-17.41-23.81M249.62,375.73c-18.56,0-32.38,14.98-32.38,36.22s11.39,32.26,26.37,32.26c8.45,0,15.49-4.22,20.1-10.62h1.41l-.13,22.53c-.13,5.76-3.46,9.09-10.88,9.09v5.89h33.41v-5.89c-7.42,0-10.75-3.33-10.75-9.09v-80.38h-5.89l-3.97,4.35c-5.63-2.94-11.52-4.35-17.28-4.35M199.67,441.65l8.58-31.74h-7.04c-5.12,16.38-12.93,22.78-27.9,22.78h-25.6v-34.82h10.5c9.73,0,14.08,2.94,14.08,15.49h6.66v-40.06h-6.66c0,12.67-4.35,15.62-14.08,15.62h-10.5v-34.82h22.78c14.98,0,22.78,6.4,27.9,22.78h7.04l-8.58-31.74h-76.8v6.66c11.52,0,14.21,4.35,14.21,14.08v55.04c0,9.73-2.69,14.08-14.21,14.08v6.66h79.62ZM104.39,464.94h9.86c-11.65-14.98-21.12-34.94-21.12-62.46s9.47-47.49,21.12-62.46h-9.86c-9.09,9.6-24.58,32.9-24.58,62.46s15.49,52.86,24.58,62.46"/>
    <path d="M1179.71,313.65l11.52-31.74h-7.17c-6.66,15.74-14.85,22.78-29.57,22.78h-27.39l7.42-34.82h10.37c9.73,0,13.44,2.94,11.39,15.49h6.78l6.66-40.06h-6.78c-2.05,12.67-6.91,15.62-16.64,15.62h-9.98l7.42-34.82h23.04c15.1,0,20.86,5.76,21.89,22.78h6.66v-31.74h-77.57l-1.41,6.66c10.75,0,13.57,3.07,11.39,13.44l-11.78,55.55c-2.18,9.98-6.66,14.21-17.28,14.21l-1.41,6.66h82.43ZM1066.81,315.18h9.47l16.38-77.18c2.18-9.98,6.66-14.21,17.28-14.21l1.41-6.66h-37.89l-1.41,6.66c10.75,0,13.57,3.07,11.39,13.44l-12.03,56.58-37.5-76.67h-26.62l-1.41,6.66c10.75,0,13.57,3.07,11.39,13.44l-11.78,55.55c-2.18,9.98-6.66,14.21-17.28,14.21l-1.41,6.66h37.89l1.41-6.66c-10.75,0-13.57-3.07-11.39-13.44l12.54-59.14,39.55,80.77ZM932.29,307.25c-18.05,0-26.24-13.7-26.24-31.49,0-14.72,8.83-51.58,39.17-51.58,17.66,0,26.24,13.44,26.24,31.36,0,14.72-8.58,51.71-39.17,51.71M931.01,316.21c37.5,0,56.45-35.58,56.45-59.65,0-28.8-22.14-41.34-41.09-41.34-34.56,0-56.19,31.49-56.19,59.39,0,24.45,16.51,41.6,40.83,41.6M793.66,313.65h72.45l12.67-35.07h-7.17c-7.55,17.15-14.46,22.27-29.57,22.27h-32.77l77.7-73.6v-10.11h-72.96l-11.52,31.74h7.17c5.51-13.06,12.29-18.94,24.45-18.94h36.99l-77.44,73.34v10.37ZM773.18,313.65l11.52-31.74h-7.17c-6.66,15.74-14.85,22.78-29.57,22.78h-27.39l7.42-34.82h10.37c9.73,0,13.44,2.94,11.39,15.49h6.78l6.66-40.06h-6.78c-2.05,12.67-6.91,15.62-16.64,15.62h-9.98l7.42-34.82h23.04c15.1,0,20.86,5.76,21.89,22.78h6.66v-31.74h-77.57l-1.41,6.66c10.75,0,13.57,3.07,11.39,13.44l-11.78,55.55c-2.18,9.98-6.66,14.21-17.28,14.21l-1.41,6.66h82.43ZM604.86,315.31h9.22l44.29-86.66v63.87c0,10.24-3.97,14.46-14.59,14.46l-1.41,6.66h41.86l1.41-6.66c-10.75,0-13.82-3.07-13.82-13.7v-55.04c0-10.24,3.97-14.46,14.59-14.46l1.41-6.66h-33.28l-38.02,74.62-6.27-74.62h-33.41l-1.41,6.66c10.75,0,13.18,2.94,9.6,12.93l-20.74,56.58c-3.46,9.6-8.32,13.7-18.94,13.7l-1.41,6.66h38.02l1.41-6.66c-10.75,0-13.31-2.94-9.73-12.93l24.06-65.54,7.17,86.78ZM494.79,313.65h42.11l1.41-6.66c-10.75,0-13.57-3.07-11.39-13.44l11.78-55.55c2.18-9.98,6.66-14.21,17.28-14.21l1.41-6.66h-42.11l-1.41,6.66c10.75,0,13.57,3.07,11.39,13.44l-11.78,55.55c-2.18,9.98-6.66,14.21-17.28,14.21l-1.41,6.66ZM419.91,313.65h44.16l1.54-6.66c-11.65,0-14.59-3.07-12.42-13.44l14.46-67.46h4.35c15.1,0,20.86,5.76,21.89,22.78h6.66v-31.74h-77.31l-11.52,31.74h7.17c6.66-15.74,14.85-22.78,29.57-22.78h5.5l-14.21,66.69c-2.18,9.98-6.91,14.21-18.3,14.21l-1.54,6.66ZM349.12,315.44c5.63,0,10.37-4.61,10.37-10.11s-4.74-10.11-10.37-10.11-10.24,4.61-10.24,10.11,4.61,10.11,10.24,10.11M263.49,313.65h44.16l1.54-6.66c-11.65,0-14.59-3.07-12.42-13.44l14.46-67.46h4.35c15.1,0,20.86,5.76,21.89,22.78h6.66v-31.74h-77.31l-11.52,31.74h7.17c6.66-15.74,14.85-22.78,29.57-22.78h5.5l-14.21,66.69c-2.18,9.98-6.91,14.21-18.3,14.21l-1.54,6.66ZM212.16,315.18h9.47l16.38-77.18c2.18-9.98,6.66-14.21,17.28-14.21l1.41-6.66h-37.89l-1.41,6.66c10.75,0,13.57,3.07,11.39,13.44l-12.03,56.58-37.5-76.67h-26.62l-1.41,6.66c10.75,0,13.57,3.07,11.39,13.44l-11.78,55.55c-2.18,9.98-6.66,14.21-17.28,14.21l-1.41,6.66h37.89l1.41-6.66c-10.75,0-13.57-3.07-11.39-13.44l12.54-59.14,39.55,80.77ZM80.96,313.65h42.11l1.41-6.66c-10.75,0-13.57-3.07-11.39-13.44l11.78-55.55c2.18-9.98,6.66-14.21,17.28-14.21l1.41-6.66h-42.11l-1.41,6.66c10.75,0,13.57,3.07,11.39,13.44l-11.78,55.55c-2.18,9.98-6.66,14.21-17.28,14.21l-1.41,6.66Z"/>
    <path d="M1184.3,188.21c10.37,0,17.54-7.04,21.12-18.56l-5.63-2.18c-2.69,6.4-6.91,10.37-12.54,10.37-7.94,0-9.34-6.91-9.47-13.82v-2.05l.13-31.36h24.19v-8.32h-23.94v-20.61h-5.89c-2.82,10.75-9.6,18.56-18.05,23.04v5.89h12.03l-.64,33.41v2.18c0,14.34,7.17,22.02,18.69,22.02M1137.05,108.21c5.63,0,10.37-4.61,10.37-10.11s-4.74-9.98-10.37-9.98-10.24,4.61-10.24,9.98,4.61,10.11,10.24,10.11M1120.53,185.65h33.41v-5.89c-7.42,0-10.75-3.33-10.75-9.09v-50.94h-2.56c-5.76,3.2-13.7,5.5-20.61,6.66v5.89h11.27v38.4c0,5.76-3.33,9.09-10.75,9.09v5.89ZM1037.31,185.65h33.41v-5.89c-7.42,0-10.75-3.33-10.75-9.09v-29.57c3.58-5.63,9.22-10.62,17.54-10.62,4.22,0,7.42,1.28,9.73,3.71,2.69,2.69,3.84,6.53,3.84,11.39v25.09c0,5.76-3.33,9.09-10.75,9.09v5.89h33.41v-5.89c-7.42,0-10.75-3.33-10.75-9.09v-29.06c0-6.53-2.05-11.9-5.5-15.62-3.84-3.97-9.73-6.27-16-6.27-8.83,0-15.87,4.22-20.48,10.62h-1.28l.26-10.62h-2.56c-5.76,3.2-13.7,5.5-20.61,6.66v5.89h11.26v38.4c0,5.76-3.33,9.09-10.75,9.09v5.89ZM984.76,188.21c12.8,0,22.78-4.61,30.46-14.08,6.27-7.68,8.06-15.49,8.06-34.18v-30.08c0-9.73,2.69-14.08,14.21-14.08v-6.66h-38.4v6.66c11.52,0,14.21,4.35,14.21,14.08v36.22c0,20.22-9.34,30.72-28.03,30.72-13.44,0-23.17-7.3-25.98-19.07-.77-3.33-1.02-7.3-1.02-12.54v-35.33c0-9.73,2.69-14.08,14.21-14.08v-6.66h-41.98v6.66c11.52,0,14.21,4.35,14.21,14.08v35.07c0,7.04.51,12.54,1.54,17.02,4.22,17.79,19.97,26.24,38.53,26.24M846.91,206.64c4.35,0,8.45-1.28,11.78-3.33,5.63-3.46,10.11-9.73,13.57-17.79l20.86-48.9c2.43-5.76,5.89-8.45,10.37-8.45v-5.89h-25.73v5.89l2.56.13c3.46.13,5.38,1.15,5.38,3.33,0,.9-.26,1.79-.64,2.82l-14.08,34.82-14.34-33.79c-.77-1.92-1.02-2.82-1.02-3.58,0-1.92,1.66-3.46,5.38-3.58l2.56-.13v-5.89h-30.08v5.89c4.48,0,8.06,2.82,10.5,8.45l20.61,47.62c-2.56,5.63-5.38,9.34-9.6,9.34-4.48,0-5.5-4.48-11.52-4.48-4.74,0-8.32,3.71-8.32,8.06,0,4.86,4.35,9.47,11.78,9.47M779.75,185.65h33.41v-5.89c-7.42,0-10.75-3.33-10.75-9.09v-24.96c0-6.91,3.84-11.14,10.11-11.14,2.56,0,5.12.9,7.68.9,4.48,0,7.81-3.58,7.81-8.06s-3.58-7.68-8.83-7.68c-5.63,0-11.26,3.84-15.74,11.9h-1.28l.26-11.9h-2.56c-5.76,3.2-13.7,5.5-20.61,6.66v5.89h11.26v38.4c0,5.76-3.33,9.09-10.75,9.09v5.89ZM753.69,188.21c10.37,0,17.54-7.04,21.12-18.56l-5.63-2.18c-2.69,6.4-6.91,10.37-12.54,10.37-7.94,0-9.34-6.91-9.47-13.82v-2.05l.13-31.36h24.19v-8.32h-23.94v-20.61h-5.89c-2.82,10.75-9.6,18.56-18.05,23.04v5.89h12.03l-.64,33.41v2.18c0,14.34,7.17,22.02,18.69,22.02M673.46,142.25c1.92-8.96,7.42-14.85,15.49-14.85s13.57,5.38,14.08,14.85h-29.57ZM690.48,188.21c12.93,0,22.53-8.06,28.03-21.25l-5.76-2.69c-4.48,8.45-11.39,12.29-19.46,12.29-12.54,0-20.61-11.78-20.61-26.5v-.13h44.29c.13-1.15.13-2.43.13-3.71,0-15.1-10.5-26.5-25.73-26.5-17.79,0-30.98,14.59-30.98,34.56.13,19.71,12.8,33.92,30.08,33.92M579.64,185.65h32.9v-5.89c-7.04,0-10.24-3.33-10.24-9.09v-30.21c3.84-6.14,10.37-9.98,16.77-9.98,3.58,0,6.66,1.02,8.96,3.58,2.43,2.56,3.71,6.4,3.71,11.26v25.34c0,5.76-3.2,9.09-10.24,9.09v5.89h32.9v-5.89c-7.42,0-10.75-3.33-10.75-9.09v-29.95c0-6.27-1.79-11.39-5.25-14.98-3.71-3.84-9.47-6.02-15.62-6.02-8.7,0-15.62,4.35-20.61,11.52h-1.41c-.77-2.05-1.92-3.97-3.46-5.5-3.71-3.84-9.34-6.02-15.49-6.02-8.58,0-15.1,4.1-20.1,10.62h-1.28l.13-10.62h-2.56c-5.76,3.2-13.7,5.5-20.61,6.66v5.89h11.26v38.4c0,5.76-3.33,9.09-10.75,9.09v5.89h33.41v-5.89c-7.42,0-10.75-3.33-10.75-9.09v-29.44c4.48-7.04,11.01-10.75,17.28-10.75,3.58,0,6.78,1.15,9.09,3.71,2.3,2.56,3.46,6.27,3.46,11.14v25.34c0,5.76-3.33,9.09-10.75,9.09v5.89ZM498.27,180.01c-13.31,0-19.58-13.44-19.58-27.78s6.66-24.58,18.3-24.58c13.18,0,19.46,13.95,19.46,27.9s-6.53,24.45-18.18,24.45M497.5,188.21c16.9,0,32.26-13.95,32.26-34.43s-14.85-34.18-32.26-34.18-32.26,13.57-32.26,34.18,14.72,34.43,32.26,34.43M383.07,185.65h33.41v-5.89c-7.42,0-10.75-3.33-10.75-9.09v-29.57c3.58-5.63,9.22-10.62,17.54-10.62,4.22,0,7.42,1.28,9.73,3.71,2.69,2.69,3.84,6.53,3.84,11.39v25.09c0,5.76-3.33,9.09-10.75,9.09v5.89h33.41v-5.89c-7.42,0-10.75-3.33-10.75-9.09v-29.06c0-6.53-2.05-11.9-5.5-15.62-3.84-3.97-9.73-6.27-16-6.27-8.83,0-15.87,4.22-20.48,10.62h-1.28l.26-10.62h-2.56c-5.76,3.2-13.7,5.5-20.61,6.66v5.89h11.26v38.4c0,5.76-3.33,9.09-10.75,9.09v5.89ZM343.43,180.01c-13.31,0-19.58-13.44-19.58-27.78s6.66-24.58,18.3-24.58c13.18,0,19.46,13.95,19.46,27.9s-6.53,24.45-18.18,24.45M342.66,188.21c16.9,0,32.26-13.95,32.26-34.43s-14.85-34.18-32.26-34.18-32.26,13.57-32.26,34.18,14.72,34.43,32.26,34.43M258.45,185.65h33.41v-5.89c-7.42,0-10.75-3.33-10.75-9.09v-24.96c0-6.91,3.84-11.14,10.11-11.14,2.56,0,5.12.9,7.68.9,4.48,0,7.81-3.58,7.81-8.06s-3.58-7.68-8.83-7.68c-5.63,0-11.26,3.84-15.74,11.9h-1.28l.26-11.9h-2.56c-5.76,3.2-13.7,5.5-20.61,6.66v5.89h11.26v38.4c0,5.76-3.33,9.09-10.75,9.09v5.89ZM175.22,185.65h33.41v-5.89c-7.42,0-10.75-3.33-10.75-9.09v-29.57c3.58-5.63,9.22-10.62,17.54-10.62,4.22,0,7.42,1.28,9.73,3.71,2.69,2.69,3.84,6.53,3.84,11.39v25.09c0,5.76-3.33,9.09-10.75,9.09v5.89h33.41v-5.89c-7.42,0-10.75-3.33-10.75-9.09v-29.06c0-6.53-2.05-11.9-5.5-15.62-3.84-3.97-9.73-6.27-16-6.27-8.83,0-15.87,4.22-20.48,10.62h-1.28l.26-43.14h-2.56c-5.76,3.2-13.7,5.5-20.61,6.66v5.89h11.26v70.91c0,5.76-3.33,9.09-10.75,9.09v5.89ZM127.7,188.21c17.92,0,32.51-9.98,41.34-27.39l-6.4-3.33c-6.66,11.39-18.69,17.41-30.34,17.41-18.43,0-36.99-14.34-36.99-40.32,0-21.5,13.18-38.78,32.9-38.78,15.49,0,24.7,10.75,33.28,25.09h7.04l-8.7-32.51h-5.63l-3.97,5.38c-6.27-4.35-13.95-6.53-22.4-6.53-25.22,0-47.36,21.38-47.36,51.33s21.63,49.66,47.23,49.66"/>
  </g>
</svg>