<?xml version="1.0" encoding="UTF-8"?>
<svg id="Layer_1" xmlns="http://www.w3.org/2000/svg" version="1.1" viewBox="0 0 1280 800">
  <!-- Generator: Adobe Illustrator 29.8.2, SVG Export Plug-In . SVG Version: 2.1.1 Build 3)  -->
  <defs>
    <style>
      .st0 {
        fill: #fbfbfb;
      }
    </style>
  </defs>
  <rect class="st0" width="1280" height="800"/>
  <g>
    <path d="M127.12,188.21c16.77,0,30.72-8.96,39.68-25.47l-3.46-1.92c-7.3,11.78-19.97,18.43-32.64,18.43-19.46,0-39.94-15.49-39.94-44.16,0-24.32,15.23-43.01,36.61-43.01,16,0,25.6,10.88,34.43,26.24l.26.38h4.1l-8.19-30.72h-3.33l-4.22,5.63c-6.4-4.1-14.21-6.4-22.53-6.4-24.71,0-46.98,20.99-46.98,51.33s20.61,49.67,46.21,49.67Z"/>
    <path d="M184.72,175.02c0,4.48-1.92,6.66-11.39,7.17v3.46h31.11v-3.46c-9.34-.51-11.39-2.69-11.39-7.17v-36.23c4.74-6.66,11.26-10.88,18.69-10.88,4.86,0,8.7,1.54,11.52,4.61,2.82,3.2,3.97,7.68,3.97,13.18v29.31c0,4.48-1.92,6.66-11.39,7.17v3.46h31.11v-3.46c-9.34-.51-11.39-2.69-11.39-7.17v-31.75c0-6.91-1.79-12.67-5.25-16.51-3.84-4.1-9.47-6.27-15.62-6.27-8.06,0-15.23,3.97-20.61,11.14h-1.28l.26-44.42h-2.56c-4.99,3.58-11.26,5.63-17.28,6.53v3.46h11.52v77.83Z"/>
    <path d="M265.61,175.02c0,4.48-1.92,6.66-11.39,7.17v3.46h31.11v-3.46c-9.34-.51-11.39-2.69-11.39-7.17v-29.44c0-6.78,4.61-12.8,11.01-12.8,2.69,0,4.99.77,7.55.77,3.71,0,6.66-2.82,6.66-6.66s-3.33-6.4-7.68-6.4c-5.76,0-11.26,4.35-16.51,13.44h-1.28l.26-13.44h-2.56c-4.99,3.46-11.26,5.63-17.28,6.53v3.46h11.52v44.55Z"/>
    <path d="M333.45,188.21c17.15,0,30.08-14.08,30.08-34.31,0-18.69-12.54-33.54-30.08-33.54s-30.47,14.08-30.47,33.92,12.67,33.92,30.47,33.92ZM331.92,125.23c15.62,0,22.53,19.33,22.53,33.41s-7.17,24.71-19.46,24.71c-15.74,0-22.79-19.07-22.79-33.41s7.55-24.71,19.71-24.71Z"/>
    <path d="M380.56,175.02c0,4.48-1.92,6.66-11.39,7.17v3.46h31.11v-3.46c-9.34-.51-11.39-2.69-11.39-7.17v-36.23c4.74-6.66,11.26-10.88,18.69-10.88,4.86,0,8.7,1.54,11.52,4.61,2.82,3.2,3.97,7.68,3.97,13.18v29.31c0,4.48-1.92,6.66-11.39,7.17v3.46h31.11v-3.46c-9.34-.51-11.39-2.69-11.39-7.17v-31.75c0-6.91-1.79-12.67-5.25-16.51-3.84-4.1-9.47-6.27-15.62-6.27-8.06,0-15.23,3.97-20.61,11.14h-1.28l.26-11.14h-2.56c-4.99,3.46-11.26,5.63-17.28,6.53v3.46h11.52v44.55Z"/>
    <path d="M476.81,188.21c17.15,0,30.08-14.08,30.08-34.31,0-18.69-12.54-33.54-30.08-33.54s-30.47,14.08-30.47,33.92,12.67,33.92,30.47,33.92ZM475.28,125.23c15.62,0,22.53,19.33,22.53,33.41s-7.17,24.71-19.46,24.71c-15.74,0-22.79-19.07-22.79-33.41s7.55-24.71,19.71-24.71Z"/>
    <path d="M523.91,175.02c0,4.48-1.92,6.66-11.39,7.17v3.46h31.11v-3.46c-9.34-.51-11.39-2.69-11.39-7.17v-36.35c4.35-6.14,10.75-10.75,18.43-10.75,4.35,0,7.94,1.41,10.62,4.48,2.69,2.94,3.84,7.42,3.84,12.8v29.83c0,4.48-2.05,6.66-11.39,7.17v3.46h30.85v-3.46c-9.22-.51-11.14-2.69-11.14-7.17v-33.28l-.13-3.46c4.1-5.89,10.37-10.37,18.05-10.37,4.35,0,7.94,1.41,10.62,4.48,2.69,2.94,3.84,7.42,3.84,12.8v29.83c0,4.48-1.92,6.66-11.26,7.17v3.46h30.98v-3.46c-9.47-.51-11.39-2.69-11.39-7.17v-32.39c0-6.91-1.66-12.29-5.12-16.13-3.58-3.97-8.96-6.02-14.85-6.02-9.09,0-16,4.86-20.74,12.03h-1.41c-.77-2.3-1.92-4.22-3.58-6.02-3.58-3.97-8.96-6.02-14.85-6.02-8.83,0-15.49,4.61-20.35,11.14h-1.28l.26-11.14h-2.56c-4.99,3.46-11.26,5.63-17.28,6.53v3.46h11.52v44.55Z"/>
    <path d="M658.19,188.21c11.9,0,21.12-7.17,26.75-19.97l-3.33-1.54c-4.86,8.83-12.29,13.31-21.5,13.31-12.42,0-21.89-11.78-21.89-29.57v-2.43h45.31c.13-.51.13-.9.13-1.41,0-14.85-9.86-26.11-24.71-26.11-17.28,0-29.57,14.46-29.57,34.05s11.9,33.67,28.8,33.67ZM656.65,125.1c10.11,0,16.13,8.06,16.13,18.18v.13h-34.05c1.92-11.39,8.32-18.3,17.92-18.3Z"/>
    <path d="M701.58,167.09v1.79c0,12.42,6.14,19.33,15.87,19.33,8.96,0,15.49-6.4,19.07-18.05l-3.46-1.15c-2.94,7.94-7.3,12.03-13.18,12.03-8.19,0-9.6-7.81-9.73-14.59v-2.82l.13-35.33h23.17v-5.25h-23.04v-20.48h-3.46c-1.54,11.52-8.32,19.07-17.41,22.27v3.46h12.67l-.64,38.79Z"/>
    <path d="M753.16,175.02c0,4.48-1.92,6.66-11.39,7.17v3.46h31.11v-3.46c-9.34-.51-11.39-2.69-11.39-7.17v-29.44c0-6.78,4.61-12.8,11.01-12.8,2.69,0,4.99.77,7.55.77,3.71,0,6.66-2.82,6.66-6.66s-3.33-6.4-7.68-6.4c-5.76,0-11.26,4.35-16.51,13.44h-1.28l.26-13.44h-2.56c-4.99,3.46-11.26,5.63-17.28,6.53v3.46h11.52v44.55Z"/>
    <path d="M807.56,206.64c-1.66,0-3.07-.64-4.99-1.92-2.05-1.41-3.58-2.05-5.63-2.05-3.58,0-6.78,2.94-6.78,6.66,0,4.1,3.97,7.68,9.73,7.68,3.07,0,6.27-.9,8.96-2.43,5.63-3.07,9.86-8.7,13.31-16.9l26.37-63.62c2.18-5.12,4.99-7.3,10.37-7.55v-3.46h-23.81v3.46l3.58.26c3.2.26,5.76,1.02,5.76,3.71,0,1.02-.51,2.3-1.28,4.1l-15.62,38.4-15.75-38.15c-.77-2.05-1.28-3.2-1.28-4.35,0-2.43,2.43-3.46,5.76-3.71l3.58-.26v-3.46h-27.91v3.46c5.25.26,8.19,2.56,10.37,7.55l20.74,49.79-4.86,11.26c-3.2,7.55-6.4,11.52-10.62,11.52Z"/>
    <path d="M892.55,104.36v42.24c0,7.3.51,13.06,1.66,17.54,4.22,15.87,18.3,24.06,35.84,24.06,12.03,0,21.38-4.48,28.16-13.06,5.5-7.04,8.06-16.13,8.06-32.51v-38.27c0-8.32,2.43-11.01,15.1-11.39v-3.84h-35.84v3.84c12.67.38,15.1,3.07,15.1,11.39v42.88c0,22.02-10.5,34.18-30.46,34.18-15.49,0-24.58-9.34-27.14-19.71-1.02-4.22-1.54-9.09-1.54-15.74v-41.6c0-8.32,2.43-11.01,15.11-11.39v-3.84h-39.17v3.84c12.67.38,15.1,3.07,15.1,11.39Z"/>
    <path d="M980.87,130.48h11.52v44.55c0,4.48-1.92,6.66-11.39,7.17v3.46h31.11v-3.46c-9.34-.51-11.39-2.69-11.39-7.17v-36.23c4.74-6.66,11.26-10.88,18.69-10.88,4.86,0,8.7,1.54,11.52,4.61,2.82,3.2,3.97,7.68,3.97,13.18v29.31c0,4.48-1.92,6.66-11.39,7.17v3.46h31.11v-3.46c-9.34-.51-11.39-2.69-11.39-7.17v-31.75c0-6.91-1.79-12.67-5.25-16.51-3.84-4.1-9.47-6.27-15.62-6.27-8.06,0-15.23,3.97-20.61,11.14h-1.28l.26-11.14h-2.56c-4.99,3.46-11.26,5.63-17.28,6.53v3.46Z"/>
    <path d="M1077.38,106.41c4.48,0,8.19-3.71,8.19-8.19s-3.71-8.06-8.19-8.06-8.19,3.71-8.19,8.06,3.71,8.19,8.19,8.19Z"/>
    <path d="M1073.28,175.02c0,4.48-1.92,6.66-11.39,7.17v3.46h30.85v-3.46c-9.22-.51-11.14-2.69-11.14-7.17v-54.53h-2.56c-4.99,3.46-11.26,5.63-17.28,6.53v3.46h11.52v44.55Z"/>
    <path d="M1105.28,167.09v1.79c0,12.42,6.14,19.33,15.87,19.33,8.96,0,15.49-6.4,19.07-18.05l-3.46-1.15c-2.94,7.94-7.3,12.03-13.18,12.03-8.19,0-9.6-7.81-9.73-14.59v-2.82l.13-35.33h23.17v-5.25h-23.04v-20.48h-3.46c-1.54,11.52-8.32,19.07-17.41,22.27v3.46h12.67l-.64,38.79Z"/>
    <path d="M1178.11,183.47c-11.14,0-18.56-8.06-27.01-20.61h-3.71l6.53,24.07h2.82l4.1-5.63c5.25,4.74,11.65,6.91,17.66,6.91,11.14,0,21.5-7.04,21.5-18.43,0-9.6-7.3-15.23-17.54-18.94l-12.54-4.48c-7.3-2.69-11.9-6.02-11.9-11.65.13-5.76,5.5-9.86,12.8-9.86,9.6,0,16,6.4,24.71,18.82h3.71l-5.89-21.89h-2.94l-3.71,4.86c-4.99-4.35-10.88-6.27-16.51-6.27-10.75,0-20.1,6.91-20.1,16.9,0,9.34,6.66,14.72,16.51,18.18l12.8,4.61c8.32,2.94,12.8,6.66,12.67,12.54,0,6.14-6.14,10.88-13.95,10.88Z"/>
    <path d="M109.33,221.99h6.66v76.42c0,8.19-2.43,11.01-15.49,11.39v3.84h39.94v-3.84c-13.06-.38-15.49-3.2-15.49-11.39v-76.42h6.66c15.49,0,24.32,8.19,29.06,24.71h4.1l-7.94-29.57h-72.71l-7.94,29.57h4.1c4.86-16.51,13.57-24.71,29.06-24.71Z"/>
    <path d="M181.78,303.02c0,4.48-1.92,6.66-11.39,7.17v3.46h30.85v-3.46c-9.22-.51-11.14-2.69-11.14-7.17v-54.53h-2.56c-4.99,3.46-11.26,5.63-17.28,6.53v3.46h11.52v44.55Z"/>
    <path d="M177.68,226.22c0,4.48,3.71,8.19,8.19,8.19s8.19-3.71,8.19-8.19-3.71-8.06-8.19-8.06-8.19,3.71-8.19,8.06Z"/>
    <path d="M227.22,259.63h-1.28l.26-11.14h-2.56c-4.99,3.46-11.26,5.63-17.28,6.53v3.46h11.52v44.55c0,4.48-1.92,6.66-11.39,7.17v3.46h31.11v-3.46c-9.34-.51-11.39-2.69-11.39-7.17v-36.35c4.35-6.14,10.75-10.75,18.43-10.75,4.35,0,7.94,1.41,10.62,4.48,2.69,2.94,3.84,7.42,3.84,12.8v29.83c0,4.48-2.05,6.66-11.39,7.17v3.46h30.85v-3.46c-9.22-.51-11.14-2.69-11.14-7.17v-33.28l-.13-3.46c4.1-5.89,10.37-10.37,18.05-10.37,4.35,0,7.94,1.41,10.62,4.48,2.69,2.94,3.84,7.42,3.84,12.8v29.83c0,4.48-1.92,6.66-11.26,7.17v3.46h30.98v-3.46c-9.47-.51-11.39-2.69-11.39-7.17v-32.39c0-6.91-1.66-12.29-5.12-16.13-3.58-3.97-8.96-6.02-14.85-6.02-9.09,0-16,4.86-20.74,12.03h-1.41c-.77-2.3-1.92-4.22-3.58-6.02-3.58-3.97-8.96-6.02-14.85-6.02-8.83,0-15.49,4.61-20.35,11.14Z"/>
    <path d="M380.82,276.01c.13-.51.13-.9.13-1.41,0-14.85-9.86-26.11-24.71-26.11-17.28,0-29.57,14.46-29.57,34.05s11.9,33.67,28.8,33.67c11.9,0,21.12-7.17,26.75-19.97l-3.33-1.54c-4.86,8.83-12.29,13.31-21.5,13.31-12.42,0-21.89-11.78-21.89-29.57v-2.43h45.31ZM353.94,253.1c10.11,0,16.13,8.06,16.13,18.18v.13h-34.05c1.92-11.39,8.32-18.3,17.92-18.3Z"/>
    <path d="M470.29,220.07c16.13,0,25.09,10.37,34.69,26.62h4.1l-8.19-30.72h-3.33l-4.22,5.76c-6.66-4.48-14.59-6.53-22.79-6.53-24.45,0-46.72,21.38-46.72,50.82s20.48,50.18,47.23,50.18c12.93,0,25.09-5.12,34.43-14.85v-16.26c0-8.32,2.05-11.01,12.29-11.39v-3.84h-36.48v3.84c12.93.38,15.36,3.07,15.36,11.39v17.41c-6.53,3.97-14.46,6.14-22.27,6.14-20.99,0-40.32-16.77-40.32-45.95,0-23.17,14.21-42.63,36.23-42.63Z"/>
    <path d="M654.61,309.81c-12.67-.38-15.23-3.07-16-11.39l-6.78-66.05c-.9-8.32,1.54-11.01,14.21-11.39v-3.84h-26.11l-31.75,83.46-31.23-83.46h-26.5v3.84c12.67.38,15.1,3.07,14.21,11.39l-6.78,66.05c-.77,8.32-3.33,11.01-16,11.39v3.84h35.33v-3.84c-12.67-.38-15.1-3.07-14.21-11.39l7.55-73.22,33.79,90.76h3.33l34.43-90.88,7.42,73.35c.9,8.32-1.41,11.01-14.21,11.39v3.84h39.3v-3.84Z"/>
    <path d="M657.8,246.7h4.1c4.86-16.51,13.57-24.71,29.06-24.71h6.66v76.42c0,8.19-2.43,11.01-15.49,11.39v3.84h39.94v-3.84c-13.06-.38-15.49-3.2-15.49-11.39v-76.42h6.66c15.49,0,24.32,8.19,29.06,24.71h4.1l-7.94-29.57h-72.71l-7.94,29.57Z"/>
    <polygon points="814.86 233.51 814.86 262.44 785.68 262.44 785.68 268.2 814.86 268.2 814.86 297.39 820.62 297.39 820.62 268.2 849.55 268.2 849.55 262.44 820.62 262.44 820.62 233.51 814.86 233.51"/>
    <path d="M900.11,316.21c21.25,0,34.43-19.33,34.43-50.56s-13.18-50.56-34.56-50.56-34.56,19.33-34.56,50.56,13.31,50.56,34.69,50.56ZM899.85,219.82c17.28,0,23.68,18.95,23.68,46.85,0,25.6-6.27,44.8-23.42,44.8s-23.55-19.71-23.55-46.85,5.76-44.8,23.3-44.8Z"/>
    <path d="M1002.89,309.81h-9.22c-9.09,0-11.26-1.92-11.26-10.24v-83.72h-3.97l-32.39,27.78,3.07,3.58,24.45-20.87v73.22c0,8.06-1.92,10.24-11.26,10.24h-10.88v3.84h51.46v-3.84Z"/>
    <path d="M1020.05,298.16c4.35,0,8.06-3.58,8.06-8.06s-3.71-8.19-8.06-8.19c-4.74,0-8.32,3.58-8.32,8.19s3.58,8.06,8.32,8.06Z"/>
    <path d="M1020.05,249c4.35,0,8.06-3.58,8.06-8.06s-3.71-8.19-8.06-8.19c-4.74,0-8.32,3.58-8.32,8.19s3.58,8.06,8.32,8.06Z"/>
    <path d="M1078.29,316.21c21.25,0,34.43-19.33,34.43-50.56s-13.18-50.56-34.56-50.56-34.56,19.33-34.56,50.56,13.31,50.56,34.69,50.56ZM1078.03,219.82c17.28,0,23.68,18.95,23.68,46.85,0,25.6-6.27,44.8-23.42,44.8s-23.55-19.71-23.55-46.85,5.76-44.8,23.3-44.8Z"/>
    <path d="M1163.54,316.21c21.25,0,34.43-19.33,34.43-50.56s-13.18-50.56-34.56-50.56-34.56,19.33-34.56,50.56,13.31,50.56,34.69,50.56ZM1163.28,219.82c17.28,0,23.68,18.95,23.68,46.85,0,25.6-6.27,44.8-23.42,44.8s-23.55-19.71-23.55-46.85,5.76-44.8,23.3-44.8Z"/>
    <path d="M1034.03,442.93l20.22-1.41.77-3.46c-8.32-.26-11.14-2.05-10.11-6.91l11.39-53.38-20.48,2.56-.77,3.46c9.47.38,11.01,2.69,9.98,7.17l-7.3,34.43c-8.06,8.58-13.57,11.65-19.84,11.65-6.78,0-12.16-3.84-12.16-12.42,0-2.05.26-3.97.77-6.14l8.58-40.71-20.48,2.56-.77,3.46c9.47.38,11.01,2.69,9.98,7.17l-6.53,30.34c-.38,2.18-.64,4.1-.64,5.76-.13,10.5,7.55,17.15,17.15,17.15,7.42,0,14.08-3.58,21.25-11.14h1.28l-2.43,9.86h.13Z"/>
    <polygon points="741.2 340.01 677.07 464.94 683.47 464.94 747.6 340.01 741.2 340.01"/>
    <path d="M1088.61,379.05l4.35-20.48h-3.46c-3.97,12.29-12.54,19.71-22.66,22.15l-.77,3.58h13.18l-8.58,38.53c-.64,2.56-.9,4.86-.9,6.91,0,9.98,6.14,14.46,13.95,14.46,8.32,0,15.23-5.63,20.86-16.13l-3.2-1.79c-4.22,7.04-9.09,11.01-14.34,11.01-6.02,0-8.32-3.71-8.32-9.09,0-2.05.38-4.48.9-7.17l7.81-36.74h23.3l1.15-5.25h-23.3Z"/>
    <path d="M985.04,438.19c-8.06-.64-11.01-1.54-9.98-6.78l6.53-30.72c.51-2.69.77-4.99.77-7.17,0-10.37-7.3-17.02-17.28-17.02-7.81,0-14.85,3.58-22.27,11.14h-1.28l2.69-11.14h-2.56c-5.76,3.58-12.67,5.76-18.94,6.66l-.64,3.46h11.52l-9.47,44.29c-1.02,4.48-3.2,6.78-12.93,7.3l-.77,3.46h31.23l.77-3.46c-8.06-.64-11.01-1.54-9.98-6.78l7.81-36.74c8.45-8.06,14.21-11.01,20.74-11.01s12.54,3.71,12.54,12.93c0,1.79-.26,3.84-.77,6.02l-6.02,28.29c-.9,4.48-3.07,6.78-12.8,7.3l-.64,3.46h30.98l.77-3.46Z"/>
    <path d="M873.32,438.19l-.77,3.46h31.23l.77-3.46c-8.06-.64-11.01-1.54-9.98-6.78l11.78-54.91h-2.56c-5.76,3.46-12.67,5.63-18.94,6.53l-.64,3.46h11.52l-9.47,44.42c-1.02,4.48-3.2,6.78-12.93,7.3Z"/>
    <path d="M345.34,444.21c8.32,0,15.36-3.97,21.89-11.14h1.28l-2.43,9.98,18.94-1.41.77-3.46c-5.89-.38-8.96-1.66-8.96-5.12,0-.51.13-1.15.26-1.79l11.39-52.99h-3.58c-1.79,1.79-3.46,3.46-5.25,4.99-5.89-4.35-12.29-6.78-19.46-6.78-22.02,0-36.61,21.51-36.61,42.24,0,14.98,8.19,25.47,21.76,25.47ZM360.06,380.97c7.94,0,13.82,4.35,16.77,11.9l-6.91,32.13c-4.86,5.76-11.9,12.16-20.48,12.16-10.88,0-16.26-8.58-16.26-19.84,0-14.08,8.58-36.35,26.88-36.35Z"/>
    <path d="M914.41,354.22c0-4.35-3.84-8.06-8.32-8.06s-8.19,3.71-8.19,8.06,3.71,8.19,8.19,8.19,8.32-3.71,8.32-8.19Z"/>
    <path d="M781.74,353.19l8.96,90.76h4.1l48.39-90.5v72.84c0,8.45-3.71,11.14-16.13,11.52l-.77,3.84h39.17l.77-3.84c-12.42-.38-14.08-2.82-14.08-11.26v-66.05c0-8.45,3.71-11.14,16.13-11.52l.77-3.84h-27.01l-43.91,82.18-8.19-82.18h-27.14l-.77,3.84c12.54.38,14.72,2.82,11.78,10.88l-25.35,66.82c-3.07,7.94-6.14,10.75-18.56,11.14l-.9,3.84h35.59l.77-3.84c-12.42-.38-14.72-2.82-11.65-10.88l28.03-73.73Z"/>
    <path d="M131.19,348.97c12.54.38,14.46,2.82,12.8,11.14l-14.08,66.31c-1.79,8.32-5.12,11.01-17.54,11.39l-.9,3.84h39.43l.77-3.84c-12.54-.38-14.46-2.82-12.67-11.14l6.4-29.95,37.51,44.93h14.72l.9-3.84c-1.66-.77-5.76-3.58-11.65-8.96l-34.95-31.49h10.75c10.5,0,17.02-.77,22.79-2.43,12.8-4.1,20.86-15.1,20.86-26.37,0-8.83-5.12-17.41-15.49-20.86-5.5-1.66-11.65-2.56-22.15-2.56h-36.61l-.9,3.84ZM155.26,349.99h9.86c9.6,0,14.72.51,18.43,1.92,8.32,2.56,11.65,9.34,11.65,16.38,0,8.83-5.12,18.82-16.26,22.27-3.97,1.28-9.22,1.92-18.82,1.92h-13.82l8.96-42.5Z"/>
    <path d="M127.51,340.01h-5.63c-27.65,20.35-40.45,51.71-40.58,76.42-.13,23.04,8.96,41.09,13.95,48.51h5.5c-6.14-12.03-10.88-26.37-10.75-43.52,0-22.02,7.17-54.4,37.51-81.41Z"/>
    <path d="M298.24,384.3h23.3l1.15-5.25h-23.3l4.35-20.48h-3.46c-3.97,12.29-12.54,19.71-22.66,22.15l-.77,3.58h13.18l-8.58,38.53c-.64,2.56-.9,4.86-.9,6.91,0,9.98,6.14,14.46,13.95,14.46,8.32,0,15.23-5.63,20.86-16.13l-3.2-1.79c-4.22,7.04-9.09,11.01-14.34,11.01-6.02,0-8.32-3.71-8.32-9.09,0-2.05.38-4.48.9-7.17l7.81-36.74Z"/>
    <path d="M268.82,403.5c0-16-10.62-27.01-25.86-27.01-21.89,0-35.46,22.15-35.46,40.32,0,16.51,11.14,27.39,26.24,27.39,22.91,0,35.07-23.94,35.07-40.71ZM217.49,417.2c0-13.57,6.91-35.97,24.45-35.97,11.39,0,16.9,9.73,16.9,22.27s-6.4,35.84-24.07,35.84c-11.52,0-17.28-9.73-17.28-22.15Z"/>
    <path d="M571.18,438.19c-8.06-.64-11.01-1.54-9.98-6.78l7.81-36.74c8.45-8.06,14.21-11.01,20.74-11.01s12.54,3.71,12.54,12.93c0,1.79-.26,3.84-.77,6.02l-6.02,28.29c-.9,4.48-3.07,6.78-12.8,7.3l-.64,3.46h30.98l.77-3.46c-8.06-.64-11.01-1.54-9.98-6.78l6.53-30.72c.51-2.69.77-4.99.77-7.17,0-10.37-7.3-17.02-17.28-17.02-7.81,0-14.85,3.58-22.27,11.14h-1.28l2.69-11.14h-2.56c-5.76,3.58-12.67,5.76-18.94,6.66l-.64,3.46h11.52l-9.47,44.29c-1.02,4.48-3.2,6.78-12.93,7.3l-.77,3.46h31.23l.77-3.46Z"/>
    <path d="M1182.74,340.01c6.14,12.03,10.88,26.37,10.75,43.52,0,22.02-7.17,54.4-37.51,81.41h5.63c27.65-20.35,40.45-51.71,40.58-76.42.13-23.04-8.96-41.09-13.95-48.51h-5.5Z"/>
    <path d="M660.1,407.98l-10.5-6.02c-5.63-3.33-8.19-6.4-8.19-10.75,0-6.14,5.25-10.24,12.54-10.24,8.45,0,15.23,5.38,22.27,19.46h3.58v-22.66h-2.94l-5.76,7.3c-4.99-6.27-11.9-8.7-18.18-8.7-11.14,0-20.22,7.3-20.35,17.41,0,7.55,4.61,12.54,12.16,16.77l9.98,5.76c6.02,3.46,9.6,6.4,9.6,11.39-.13,6.66-6.4,11.78-14.46,11.78-9.6,0-16.51-6.78-23.55-21.51h-3.46v24.96h2.94l6.14-7.94c5.25,6.4,12.03,9.22,18.94,9.22,12.8,0,21.76-8.96,21.89-18.94,0-7.68-4.86-12.54-12.67-17.28Z"/>
    <path d="M421.11,358.57c-3.97,12.29-12.54,19.71-22.66,22.15l-.77,3.58h13.18l-8.58,38.53c-.64,2.56-.9,4.86-.9,6.91,0,9.98,6.14,14.46,13.95,14.46,8.32,0,15.23-5.63,20.86-16.13l-3.2-1.79c-4.22,7.04-9.09,11.01-14.34,11.01-6.02,0-8.32-3.71-8.32-9.09,0-2.05.38-4.48.9-7.17l7.81-36.74h23.3l1.15-5.25h-23.3l4.35-20.48h-3.46Z"/>
    <path d="M1168.74,404.52c.38-2.05.64-4.1.64-5.89,0-13.31-9.47-22.15-22.66-22.15-21.12,0-34.31,22.02-34.31,40.32,0,16.26,9.6,27.39,24.58,27.39,11.01,0,20.1-5.89,28.03-16.9l-3.07-2.18c-6.4,8.06-13.82,11.39-21.63,11.39-11.78,0-18.43-8.7-18.43-21.76,0-3.2.51-6.78,1.28-10.24h45.57ZM1145.82,380.97c7.3,0,13.31,4.99,13.31,14.59,0,1.28-.13,2.69-.38,4.22h-34.05c3.71-10.11,11.01-18.82,21.12-18.82Z"/>
    <path d="M540.58,403.5c0-16-10.62-27.01-25.86-27.01-21.89,0-35.46,22.15-35.46,40.32,0,16.51,11.14,27.39,26.24,27.39,22.91,0,35.07-23.94,35.07-40.71ZM506.53,439.34c-11.52,0-17.28-9.73-17.28-22.15,0-13.57,6.91-35.97,24.45-35.97,11.39,0,16.9,9.73,16.9,22.27s-6.4,35.84-24.07,35.84Z"/>
    <path d="M479.8,354.22c0-4.35-3.84-8.06-8.32-8.06s-8.19,3.71-8.19,8.06,3.71,8.19,8.19,8.19,8.32-3.71,8.32-8.19Z"/>
    <path d="M438.71,438.19l-.77,3.46h31.23l.77-3.46c-8.06-.64-11.01-1.54-9.98-6.78l11.78-54.91h-2.56c-5.76,3.46-12.67,5.63-18.94,6.53l-.64,3.46h11.52l-9.47,44.42c-1.02,4.48-3.2,6.78-12.93,7.3Z"/>
    <path d="M697.4,572.21c11.01,0,20.1-5.76,28.03-16.9l-3.07-2.18c-6.4,8.06-13.82,11.39-21.63,11.39-11.01,0-18.43-7.94-18.43-21.63s8.06-33.79,24.45-33.79c6.66,0,11.26,3.2,11.01,10.62-.26,5.38,2.3,8.7,6.4,8.7s7.04-3.2,7.04-7.81c0-9.09-11.26-16.13-22.91-16.13-22.27,0-35.46,22.02-35.46,40.45,0,16.38,9.73,27.27,24.58,27.27Z"/>
    <path d="M834.36,531.12c1.66-8.32,6.66-14.46,14.34-14.21,2.82,0,4.86.9,7.17.9,4.22,0,7.17-3.46,7.17-6.91,0-3.71-3.46-6.4-7.55-6.4-5.89,0-11.39,4.48-17.02,12.29h-1.41l2.94-12.29h-2.56c-5.76,3.46-12.67,5.63-18.94,6.53l-.64,3.46h11.52l-9.47,44.42c-1.02,4.48-3.2,6.78-12.93,7.3l-.77,3.46h31.23l.77-3.46c-8.06-.64-11.01-1.54-9.98-6.78l6.14-28.29Z"/>
    <path d="M799.61,566.06c-8.32-.26-11.14-2.05-10.11-6.91l11.39-53.38-20.48,2.56-.77,3.46c9.47.38,11.01,2.69,9.98,7.17l-7.3,34.43c-8.06,8.58-13.57,11.65-19.84,11.65-6.78,0-12.16-3.84-12.16-12.42,0-2.05.26-3.97.77-6.14l8.58-40.71-20.48,2.56-.77,3.46c9.47.38,11.01,2.69,9.98,7.17l-6.53,30.34c-.38,2.18-.64,4.1-.64,5.76-.13,10.5,7.55,17.15,17.15,17.15,7.42,0,14.08-3.58,21.25-11.14h1.28l-2.43,9.86h.13l20.22-1.41.77-3.46Z"/>
    <path d="M584.25,566.19c-8.06-.64-11.01-1.54-9.98-6.78l6.14-28.29c1.66-8.32,6.66-14.46,14.34-14.21,2.82,0,4.86.9,7.17.9,4.22,0,7.17-3.46,7.17-6.91,0-3.71-3.46-6.4-7.55-6.4-5.89,0-11.39,4.48-17.02,12.29h-1.41l2.94-12.29h-2.56c-5.76,3.46-12.67,5.63-18.94,6.53l-.64,3.46h11.52l-9.47,44.42c-1.02,4.48-3.2,6.78-12.93,7.3l-.77,3.46h31.23l.77-3.46Z"/>
    <path d="M969.01,532.52c.38-2.05.64-4.1.64-5.89,0-13.31-9.47-22.15-22.66-22.15-21.12,0-34.31,22.02-34.31,40.32,0,16.26,9.6,27.39,24.58,27.39,11.01,0,20.1-5.89,28.03-16.9l-3.07-2.18c-6.4,8.06-13.82,11.39-21.63,11.39-11.78,0-18.43-8.7-18.43-21.76,0-3.2.51-6.78,1.28-10.24h45.57ZM946.09,508.97c7.3,0,13.31,4.99,13.31,14.59,0,1.28-.13,2.69-.38,4.22h-34.05c3.71-10.11,11.01-18.82,21.12-18.82Z"/>
    <path d="M381.52,558.89c-.9,4.48-3.07,6.78-12.8,7.3l-.64,3.46h30.98l.77-3.46c-8.06-.64-11.01-1.54-9.98-6.78l6.53-30.72c.51-2.69.77-4.99.77-7.17,0-10.37-7.3-17.02-17.28-17.02-7.81,0-14.85,3.58-22.27,11.14h-1.28l2.69-11.14h-2.56c-5.76,3.58-12.67,5.76-18.94,6.66l-.64,3.46h11.52l-9.47,44.29c-1.02,4.48-3.2,6.78-12.93,7.3l-.77,3.46h31.23l.77-3.46c-8.06-.64-11.01-1.54-9.98-6.78l7.81-36.74c8.45-8.06,14.21-11.01,20.74-11.01s12.54,3.71,12.54,12.93c0,1.79-.26,3.84-.77,6.02l-6.02,28.29Z"/>
    <path d="M885.42,531.12c1.66-8.32,6.66-14.46,14.34-14.21,2.82,0,4.86.9,7.17.9,4.22,0,7.17-3.46,7.17-6.91,0-3.71-3.46-6.4-7.55-6.4-5.89,0-11.39,4.48-17.02,12.29h-1.41l2.94-12.29h-2.56c-5.76,3.46-12.67,5.63-18.94,6.53l-.64,3.46h11.52l-9.47,44.42c-1.02,4.48-3.2,6.78-12.93,7.3l-.77,3.46h31.23l.77-3.46c-8.06-.64-11.01-1.54-9.98-6.78l6.14-28.29Z"/>
    <path d="M1033.24,559.41l6.53-30.72c.51-2.69.77-4.99.77-7.17,0-10.37-7.3-17.02-17.28-17.02-7.81,0-14.85,3.58-22.27,11.14h-1.28l2.69-11.14h-2.56c-5.76,3.58-12.67,5.76-18.94,6.66l-.64,3.46h11.52l-9.47,44.29c-1.02,4.48-3.2,6.78-12.93,7.3l-.77,3.46h31.23l.77-3.46c-8.06-.64-11.01-1.54-9.98-6.78l7.81-36.74c8.45-8.06,14.21-11.01,20.74-11.01s12.54,3.71,12.54,12.93c0,1.79-.26,3.84-.77,6.02l-6.02,28.29c-.9,4.48-3.07,6.78-12.8,7.3l-.64,3.46h30.98l.77-3.46c-8.06-.64-11.01-1.54-9.98-6.78Z"/>
    <path d="M1103.98,528.43c4.1,0,7.04-3.2,7.04-7.81,0-9.09-11.26-16.13-22.91-16.13-22.27,0-35.46,22.02-35.46,40.45,0,16.38,9.73,27.27,24.58,27.27,11.01,0,20.1-5.76,28.03-16.9l-3.07-2.18c-6.4,8.06-13.82,11.39-21.63,11.39-11.01,0-18.43-7.94-18.43-21.63s8.06-33.79,24.45-33.79c6.66,0,11.26,3.2,11.01,10.62-.26,5.38,2.3,8.7,6.4,8.7Z"/>
    <path d="M306.13,566.19c-8.06-.64-11.01-1.54-9.98-6.78l6.14-28.29c1.66-8.32,6.66-14.46,14.34-14.21,2.82,0,4.86.9,7.17.9,4.22,0,7.17-3.46,7.17-6.91,0-3.71-3.46-6.4-7.55-6.4-5.89,0-11.39,4.48-17.02,12.29h-1.41l2.94-12.29h-2.56c-5.76,3.46-12.67,5.63-18.94,6.53l-.64,3.46h11.52l-9.47,44.42c-1.02,4.48-3.2,6.78-12.93,7.3l-.77,3.46h31.23l.77-3.46Z"/>
    <path d="M90.26,476.97c12.54.38,14.46,2.82,12.8,11.14l-14.08,66.31c-1.79,8.32-5.12,11.01-17.54,11.39l-.9,3.84h78.47l10.75-29.57h-4.22c-6.27,16.26-15.74,24.58-31.11,24.58h-28.55l8.7-40.71h16.9c8.32,0,10.62,2.69,8.45,17.15h3.84l7.04-39.55h-3.97c-2.94,14.59-6.02,17.41-14.34,17.41h-16.9l8.7-40.96h24.45c15.49,0,22.15,8.06,22.4,24.71h3.97v-29.57h-73.99l-.9,3.84Z"/>
    <path d="M664,532.52c.38-2.05.64-4.1.64-5.89,0-13.31-9.47-22.15-22.66-22.15-21.12,0-34.31,22.02-34.31,40.32,0,16.26,9.6,27.39,24.58,27.39,11.01,0,20.1-5.89,28.03-16.9l-3.07-2.18c-6.4,8.06-13.82,11.39-21.63,11.39-11.78,0-18.43-8.7-18.43-21.76,0-3.2.51-6.78,1.28-10.24h45.57ZM641.08,508.97c7.3,0,13.31,4.99,13.31,14.59,0,1.28-.13,2.69-.38,4.22h-34.05c3.71-10.11,11.01-18.82,21.12-18.82Z"/>
    <path d="M274.54,532.52c.38-2.05.64-4.1.64-5.89,0-13.31-9.47-22.15-22.66-22.15-21.12,0-34.31,22.02-34.31,40.32,0,16.26,9.6,27.39,24.58,27.39,11.01,0,20.1-5.89,28.03-16.9l-3.07-2.18c-6.4,8.06-13.82,11.39-21.63,11.39-11.78,0-18.43-8.7-18.43-21.76,0-3.2.51-6.78,1.28-10.24h45.57ZM251.63,508.97c7.3,0,13.31,4.99,13.31,14.59,0,1.28-.13,2.69-.38,4.22h-34.05c3.71-10.11,11.01-18.82,21.12-18.82Z"/>
    <path d="M518.34,471.21h-2.56c-5.76,3.58-12.67,5.63-18.82,6.53l-.77,3.46h11.52l-16.51,77.7c-.9,4.48-3.07,6.78-12.8,7.3l-.77,3.46h31.11l.77-3.46c-8.06-.64-11.01-1.54-9.86-6.78l18.69-88.2Z"/>
    <path d="M474.4,506.28h-3.58c-1.79,1.79-3.46,3.46-5.25,4.99-5.89-4.35-12.29-6.78-19.46-6.78-22.02,0-36.61,21.51-36.61,42.24,0,14.98,8.19,25.47,21.76,25.47,8.32,0,15.36-3.97,21.89-11.14h1.28l-2.43,9.98,18.94-1.41.77-3.46c-5.89-.38-8.96-1.66-8.96-5.12,0-.51.13-1.15.26-1.79l11.39-52.99ZM455.84,553.01c-4.86,5.76-11.9,12.16-20.48,12.16-10.88,0-16.26-8.58-16.26-19.84,0-14.08,8.58-36.35,26.88-36.35,7.94,0,13.82,4.35,16.77,11.9l-6.91,32.13Z"/>
    <path d="M1188.46,513.84c0,4.48,3.58,8.06,8.19,8.06s8.19-3.58,8.19-8.06-3.71-8.19-8.19-8.19-8.19,3.58-8.19,8.19Z"/>
    <path d="M206.65,554.29c-4.22,7.04-9.09,11.01-14.34,11.01-6.02,0-8.32-3.71-8.32-9.09,0-2.05.38-4.48.9-7.17l7.81-36.74h23.3l1.15-5.25h-23.3l4.35-20.48h-3.46c-3.97,12.29-12.54,19.71-22.66,22.15l-.77,3.58h13.18l-8.58,38.53c-.64,2.56-.9,4.86-.9,6.91,0,9.98,6.14,14.46,13.95,14.46,8.32,0,15.23-5.63,20.86-16.13l-3.2-1.79Z"/>
    <path d="M1178.09,562.99c0,4.48,3.58,8.06,8.19,8.06s8.19-3.58,8.19-8.06-3.71-8.19-8.19-8.19-8.19,3.58-8.19,8.19Z"/>
    <path d="M1166.45,553.13c-6.4,8.06-13.82,11.39-21.63,11.39-11.78,0-18.43-8.7-18.43-21.76,0-3.2.51-6.78,1.28-10.24h45.57c.38-2.05.64-4.1.64-5.89,0-13.31-9.47-22.15-22.66-22.15-21.12,0-34.31,22.02-34.31,40.32,0,16.26,9.6,27.39,24.58,27.39,11.01,0,20.1-5.89,28.03-16.9l-3.07-2.18ZM1150.32,508.97c7.3,0,13.31,4.99,13.31,14.59,0,1.28-.13,2.69-.38,4.22h-34.05c3.71-10.11,11.01-18.82,21.12-18.82Z"/>
    <path d="M108.31,653.36h8.19c10.5,0,16.9-.77,22.4-2.56,12.03-3.84,17.92-13.82,17.92-23.55s-5.89-19.71-17.92-23.68c-5.5-1.66-11.9-2.43-22.4-2.43h-39.3v3.84c12.67.38,15.1,3.07,15.1,11.39v66.05c0,8.19-2.43,11.01-15.1,11.39v3.84h39.17v-3.84c-12.67-.38-15.1-3.2-15.1-11.39v-29.57l45.19,44.8h16.64v-3.84c-1.79-.51-6.78-3.71-13.7-9.09l-41.09-31.36ZM101.27,605.99h12.16c9.6,0,14.85.64,18.69,2.05,9.6,2.82,13.44,11.01,13.44,19.2s-3.84,16.26-13.44,19.46c-3.84,1.15-9.09,1.79-18.69,1.79h-12.16v-42.5Z"/>
    <path d="M194.45,610.22c0-4.35-3.71-8.06-8.19-8.06s-8.19,3.71-8.19,8.06,3.71,8.19,8.19,8.19,8.19-3.71,8.19-8.19Z"/>
    <path d="M190.48,687.02v-54.53h-2.56c-4.99,3.46-11.26,5.63-17.28,6.53v3.46h11.52v44.55c0,4.48-1.92,6.66-11.39,7.17v3.46h30.85v-3.46c-9.22-.51-11.14-2.69-11.14-7.17Z"/>
    <path d="M247.82,636.59c-3.71-1.66-7.94-2.82-12.93-2.82-14.72,0-25.22,9.47-25.22,22.66,0,7.3,3.2,13.7,8.96,17.41v1.15c-7.04,2.56-11.26,5.89-11.26,11.52,0,6.14,5.12,9.98,11.39,10.62v1.41c-8.96,4.1-14.08,8.45-14.08,15.23,0,11.39,13.57,15.23,24.96,15.23,15.23,0,39.43-7.17,39.43-24.19,0-9.47-7.55-15.1-18.56-15.1h-26.88c-4.99,0-8.7-2.05-8.7-6.14,0-3.46,2.82-5.12,7.94-7.04,3.33,1.66,7.42,2.56,12.03,2.56,14.34,0,24.96-9.22,24.96-22.27,0-6.02-2.43-11.78-6.53-15.1v-1.41h17.54v-10.75h-2.56c-5.76,3.46-12.54,5.89-20.48,7.04ZM227.09,698.03h21.25c7.42,0,12.54,3.71,12.54,10.24,0,11.52-17.02,16.13-28.16,16.13-9.34,0-18.31-3.2-18.31-12.42,0-7.3,5.5-10.5,12.67-13.95ZM235.15,674.73c-10.62,0-15.62-9.86-15.62-19.46,0-10.5,6.02-17.15,14.85-17.15,10.24,0,15.74,8.83,15.74,19.2s-6.02,17.41-14.98,17.41Z"/>
    <path d="M297.49,687.02v-54.53h-2.56c-4.99,3.46-11.26,5.63-17.28,6.53v3.46h11.52v44.55c0,4.48-1.92,6.66-11.39,7.17v3.46h30.85v-3.46c-9.22-.51-11.14-2.69-11.14-7.17Z"/>
    <path d="M285.07,610.22c0,4.48,3.71,8.19,8.19,8.19s8.19-3.71,8.19-8.19-3.71-8.06-8.19-8.06-8.19,3.71-8.19,8.06Z"/>
    <path d="M368.53,687.41v-88.2h-2.56c-4.99,3.58-11.26,5.63-17.28,6.53v3.46h11.52v27.91c-5.63-3.07-11.26-4.61-16.9-4.61-17.02,0-31.23,13.95-31.23,35.97,0,18.95,10.5,31.75,26.11,31.75,8.45,0,15.62-3.97,20.99-11.14h1.28l-.26,9.98,19.71-1.41.13-3.46c-7.94-.38-11.52-2.05-11.52-6.78ZM360.21,681.9c-4.99,7.3-11.65,11.14-18.94,11.14-12.67,0-19.71-11.14-19.71-26.5,0-17.54,8.83-29.44,21.76-29.57,6.91-.13,12.8,3.07,16.9,8.96v35.97Z"/>
    <path d="M406.54,687.02v-54.53h-2.56c-4.99,3.46-11.26,5.63-17.28,6.53v3.46h11.52v44.55c0,4.48-1.92,6.66-11.39,7.17v3.46h30.85v-3.46c-9.22-.51-11.14-2.69-11.14-7.17Z"/>
    <path d="M402.32,618.41c4.48,0,8.19-3.71,8.19-8.19s-3.71-8.06-8.19-8.06-8.19,3.71-8.19,8.06,3.71,8.19,8.19,8.19Z"/>
    <path d="M447.88,693.04c-8.19,0-9.6-7.81-9.73-14.59v-2.82l.13-35.33h23.17v-5.25h-23.04v-20.48h-3.46c-1.54,11.52-8.32,19.07-17.41,22.27v3.46h12.67l-.64,38.79v1.79c0,12.42,6.14,19.33,15.87,19.33,8.96,0,15.49-6.4,19.07-18.05l-3.46-1.15c-2.94,7.94-7.3,12.03-13.18,12.03Z"/>
    <path d="M510.73,638.51l3.58.26c3.2.26,5.76,1.02,5.76,3.71,0,1.02-.51,2.3-1.28,4.1l-15.62,38.4-15.74-38.15c-.77-2.05-1.28-3.2-1.28-4.35,0-2.43,2.43-3.46,5.76-3.71l3.58-.26v-3.46h-27.91v3.46c5.25.26,8.19,2.56,10.37,7.55l20.74,49.79-4.86,11.26c-3.2,7.55-6.4,11.52-10.62,11.52-1.66,0-3.07-.64-4.99-1.92-2.05-1.41-3.58-2.05-5.63-2.05-3.58,0-6.78,2.94-6.78,6.66,0,4.1,3.97,7.68,9.73,7.68,3.07,0,6.27-.9,8.96-2.43,5.63-3.07,9.86-8.71,13.31-16.9l26.37-63.62c2.18-5.12,4.99-7.3,10.37-7.55v-3.46h-23.81v3.46Z"/>
    <path d="M612.87,599.08c-21.25,0-34.56,19.33-34.56,50.56s13.31,50.56,34.69,50.56,34.43-19.33,34.43-50.56-13.19-50.56-34.56-50.56ZM613,695.47c-17.28,0-23.55-19.71-23.55-46.85s5.76-44.8,23.3-44.8,23.68,18.94,23.68,46.85c0,25.6-6.27,44.8-23.43,44.8Z"/>
    <path d="M662.02,682.8c-4.74,0-8.32,3.58-8.32,8.19s3.58,8.06,8.32,8.06c4.35,0,8.06-3.58,8.06-8.06s-3.71-8.19-8.06-8.19Z"/>
    <path d="M715.53,637.23c-7.3,0-15.75,2.43-22.53,8.32l-.9-.26,5.5-35.97h43.78l1.28-8.19h-49.79l-6.53,49.79,3.97,1.28c6.02-5.25,13.95-8.45,21.5-8.45,14.21,0,24.32,10.62,24.32,24.32s-11.14,23.81-25.22,23.81c-11.14,0-21.25-6.53-27.39-15.74l-3.2,2.05c7.3,12.93,19.46,22.02,33.41,22.02,18.69,0,33.15-13.95,33.15-31.62s-14.08-31.36-31.36-31.36Z"/>
    <path d="M892.04,601.13h-35.33v3.84c12.8.38,15.1,3.07,15.1,11.39v66.95l-60.93-82.18h-23.04v3.84c12.67.38,15.1,3.07,15.1,11.39v66.05c0,8.19-2.43,11.01-15.1,11.39v3.84h35.33v-3.84c-12.8-.38-15.11-3.2-15.11-11.39v-69.89l64.77,87.43h4.1v-83.59c0-8.32,2.43-11.01,15.11-11.39v-3.84Z"/>
    <polygon points="924.29 596.01 886.79 720.94 892.68 720.94 930.18 596.01 924.29 596.01"/>
    <path d="M1031.82,687.02v-32.39c0-6.91-1.66-12.29-5.12-16.13-3.58-3.97-8.96-6.02-14.85-6.02-9.09,0-16,4.86-20.74,12.03h-1.41c-.77-2.3-1.92-4.22-3.58-6.02-3.58-3.97-8.96-6.02-14.85-6.02-8.83,0-15.49,4.61-20.35,11.14h-1.28l.26-11.14h-2.56c-4.99,3.46-11.26,5.63-17.28,6.53v3.46h11.52v44.55c0,4.48-1.92,6.66-11.39,7.17v3.46h31.11v-3.46c-9.34-.51-11.39-2.69-11.39-7.17v-36.35c4.35-6.14,10.75-10.75,18.43-10.75,4.35,0,7.94,1.41,10.62,4.48,2.69,2.94,3.84,7.42,3.84,12.8v29.83c0,4.48-2.05,6.66-11.39,7.17v3.46h30.85v-3.46c-9.22-.51-11.14-2.69-11.14-7.17v-33.28l-.13-3.46c4.1-5.89,10.37-10.37,18.05-10.37,4.35,0,7.94,1.41,10.62,4.48,2.69,2.94,3.84,7.42,3.84,12.8v29.83c0,4.48-1.92,6.66-11.26,7.17v3.46h30.98v-3.46c-9.47-.51-11.39-2.69-11.39-7.17Z"/>
    <path d="M1151.62,687.02v-32.39c0-6.91-1.66-12.29-5.12-16.13-3.58-3.97-8.96-6.02-14.85-6.02-9.09,0-16,4.86-20.74,12.03h-1.41c-.77-2.3-1.92-4.22-3.58-6.02-3.58-3.97-8.96-6.02-14.85-6.02-8.83,0-15.49,4.61-20.35,11.14h-1.28l.26-11.14h-2.56c-4.99,3.46-11.26,5.63-17.28,6.53v3.46h11.52v44.55c0,4.48-1.92,6.66-11.39,7.17v3.46h31.11v-3.46c-9.34-.51-11.39-2.69-11.39-7.17v-36.35c4.35-6.14,10.75-10.75,18.43-10.75,4.35,0,7.94,1.41,10.62,4.48,2.69,2.94,3.84,7.42,3.84,12.8v29.83c0,4.48-2.05,6.66-11.39,7.17v3.46h30.85v-3.46c-9.22-.51-11.14-2.69-11.14-7.17v-33.28l-.13-3.46c4.1-5.89,10.37-10.37,18.05-10.37,4.35,0,7.94,1.41,10.62,4.48,2.69,2.94,3.84,7.42,3.84,12.8v29.83c0,4.48-1.92,6.66-11.26,7.17v3.46h30.98v-3.46c-9.47-.51-11.39-2.69-11.39-7.17Z"/>
    <path d="M1189.14,647.21h-16l11.52-9.09c10.88-8.45,15.49-15.23,15.49-22.27,0-8.96-7.68-15.74-16.51-15.74s-15.1,6.02-19.71,14.21l2.82,1.79c3.84-5.25,8.58-8.7,14.08-8.7,6.4,0,10.5,4.48,10.5,10.88,0,6.02-3.71,11.14-11.39,18.05l-15.87,14.21v3.46h35.97l4.1-15.49h-3.46c-1.92,6.14-4.99,8.7-11.52,8.7Z"/>
  </g>
</svg>