<?xml version="1.0" encoding="UTF-8"?>
<svg id="Layer_1" xmlns="http://www.w3.org/2000/svg" xmlns:xlink="http://www.w3.org/1999/xlink" version="1.1" viewBox="0 0 1280 800">
  <!-- Generator: Adobe Illustrator 29.8.2, SVG Export Plug-In . SVG Version: 2.1.1 Build 3)  -->
  <defs>
    <style>
      .st0, .st1 {
        fill: none;
      }

      .st2 {
        clip-path: url(#clippath-1);
      }

      .st3 {
        clip-path: url(#clippath-3);
      }

      .st4 {
        clip-path: url(#clippath-4);
      }

      .st5 {
        clip-path: url(#clippath-2);
      }

      .st6 {
        clip-path: url(#clippath-5);
      }

      .st7 {
        fill: #fff;
      }

      .st8 {
        opacity: .9;
      }

      .st1 {
        stroke: #fff;
        stroke-width: .5px;
      }

      .st9 {
        clip-path: url(#clippath);
      }
    </style>
    <clipPath id="clippath">
      <rect class="st0" width="1280" height="800"/>
    </clipPath>
    <clipPath id="clippath-1">
      <rect class="st0" width="1280" height="800"/>
    </clipPath>
    <clipPath id="clippath-2">
      <rect class="st0" x="169.63" y="145.96" width="330.42" height="153.6"/>
    </clipPath>
    <clipPath id="clippath-3">
      <rect class="st0" x="720.42" y="486.44" width="439.84" height="153.6"/>
    </clipPath>
    <clipPath id="clippath-4">
      <rect class="st0" x="256.14" y="524.43" width="157.4" height="77.61"/>
    </clipPath>
    <clipPath id="clippath-5">
      <rect class="st0" x="707.01" y="173.54" width="466.66" height="98.44"/>
    </clipPath>
  </defs>
  <g class="st9">
    <g>
      <rect width="1280" height="800"/>
      <g class="st2">
        <g>
          <g class="st8">
            <g class="st5">
              <g>
                <path class="st7" d="M192.33,264.93c-2.97,1.44-5.58,5.4-5.58,10.16v21.94h11.15v-21.94c0-4.77-2.52-8.72-5.58-10.16"/>
                <path class="st7" d="M197.91,254.68v-21.94h-11.15v21.94c0,4.94,2.52,8.9,5.57,10.25,3.06-1.35,5.58-5.31,5.58-10.25"/>
                <path class="st7" d="M220.12,260.34h-17.71c-2.43,0-4.49,2.07-4.49,4.59s2.07,4.59,4.49,4.59h17.71c2.52,0,4.59-2.07,4.59-4.59s-2.07-4.59-4.59-4.59"/>
                <path class="st7" d="M224.7,275.09v21.94h11.06v-21.94c0-4.77-2.43-8.72-5.49-10.07h-.09c-3.06,1.44-5.49,5.4-5.49,10.07"/>
                <path class="st7" d="M224.7,254.68c0,4.85,2.34,8.81,5.49,10.34l.09-.09c3.06-1.35,5.49-5.31,5.49-10.25v-21.94h-11.06v21.94h-.01Z"/>
                <path class="st7" d="M289.8,273.92c-1.98,9.17-8.9,15.47-18.34,15.47-10.34,0-16.64-7.1-18.34-15.47-.99-4.77-3.06-7.73-5.67-8.99-2.97,1.44-5.3,4.59-5.3,8.81,0,12.5,14.3,24.82,29.31,24.82,14.03,0,29.31-11.51,29.31-24.82,0-4.23-2.34-7.37-5.31-8.81-2.61,1.26-4.68,4.23-5.67,8.99"/>
                <path class="st7" d="M300.87,256.21c0-13.58-15.83-24.91-29.4-24.91-14.48,0-29.4,12.23-29.4,24.91,0,4.05,2.16,7.38,5.39,8.72,2.61-1.17,4.68-4.14,5.67-8.99,1.71-8.36,8-15.47,18.34-15.47s16.46,6.47,18.34,15.47c.99,4.86,3.06,7.82,5.67,8.99,3.24-1.35,5.39-4.68,5.39-8.72"/>
                <path class="st7" d="M349.87,275.09c0,2.16-.72,5.3-2.07,7.64-.99,1.8-2.52,3.24-4.5,4.41-2.07,1.17-4.86,1.71-8.54,1.71s-6.48-.54-8.45-1.71c-2.07-1.17-3.51-2.61-4.49-4.41-1.71-2.97-2.07-6.03-2.07-7.64,0-4.77-2.52-8.72-5.57-10.16-3.06,1.44-5.76,5.4-5.67,10.16.09,3.69.63,6.92,1.8,9.62,1.26,3.06,3.06,5.58,5.39,7.64,2.25,2.07,5.03,3.69,8.27,4.67,3.24.99,6.83,1.53,10.79,1.53s7.55-.54,10.79-1.53c3.24-.99,6.03-2.61,8.36-4.67,2.25-2.07,4.05-4.59,5.31-7.64,1.17-2.79,1.89-5.93,1.89-9.62,0-4.77-2.52-8.72-5.58-10.07h-.09c-3.06,1.44-5.58,5.4-5.58,10.07"/>
                <path class="st7" d="M349.87,254.68c0,4.85,2.43,8.81,5.58,10.34l.09-.09c3.06-1.35,5.58-5.3,5.58-10.25v-21.94h-11.24v21.94h0Z"/>
                <path class="st7" d="M319.75,254.68v-21.94h-11.24v21.94c0,4.95,2.52,8.9,5.67,10.25,3.06-1.35,5.57-5.3,5.57-10.25"/>
                <path class="st7" d="M395.28,262.14h-8.63c-2.97,0-4.86,2.25-4.86,4.59s1.89,4.5,4.86,4.5h20.77c-2.43-6.12-6.39-9.08-12.14-9.08"/>
                <path class="st7" d="M422.98,290.11l-1.71-6.74c-2.07-8.27-6.2-12.14-12.95-12.14h-.9c.54,1.53,1.08,3.24,1.44,5.12l2.25,11.06c.54,2.7,1.26,7.91,2.97,9.62h12.14c-1.35-1.17-2.34-3.33-3.24-6.92"/>
                <path class="st7" d="M376.22,266.73c-3.06,1.44-5.66,5.4-5.66,10.16v20.14h11.24v-20.14c0-4.77-2.52-8.81-5.58-10.16"/>
                <path class="st7" d="M381.8,256.48v-14.57h16.72c8.27,0,13.04,2.7,13.04,10.34,0,6.21-3.69,8.45-3.69,11.87,0,2.43,1.89,4.41,4.41,4.41,5.48,0,10.61-9.35,10.61-16.9,0-13.31-9.26-18.88-22.57-18.88h-29.76v23.74c0,4.95,2.52,8.81,5.67,10.25,3.06-1.35,5.58-5.3,5.58-10.25"/>
                <path class="st7" d="M468.66,261.51c-4.14-.99-8.36.09-10.25,2.61.45,3.06,3.33,6.21,8.09,7.64,3.06.9,5.31,3.42,5.31,7.91,0,6.83-6.65,9.71-13.58,9.71-9.35,0-16.28-4.23-16.28-13.76h-11.24c.36,15.38,11.42,22.93,26.8,22.93,13.67,0,25.54-6.38,25.54-20.14,0-8.27-5.22-14.48-14.39-16.9"/>
                <path class="st7" d="M450.68,256.66c-3.06-.9-6.29-3.42-6.29-7.82,0-6.56,6.65-8.36,11.78-8.36,8.09,0,13.31,3.15,13.85,11.33h11.24c0-13.4-11.24-20.41-24.64-20.41-12.41,0-23.47,6.38-23.47,18.79,0,9.08,5.85,14.03,14.75,16.46,4.41,1.17,8.54-.09,10.52-2.52-.54-3.06-3.42-6.2-7.73-7.46"/>
                <path class="st7" d="M197.87,193.15c0,2.52,2.07,4.59,4.59,4.59h29.67v-9.17h-29.67c-2.52,0-4.59,2.07-4.59,4.59"/>
                <path class="st7" d="M235.64,215.54h-37.77v-12.23c0-4.77-2.52-8.72-5.58-10.16-3.06,1.44-5.66,5.39-5.66,10.16v21.94h49.01v-9.71h0Z"/>
                <path class="st7" d="M197.87,182.9v-12.23h36.87v-9.71h-48.11v21.94c0,4.95,2.52,8.9,5.66,10.25,3.06-1.35,5.58-5.31,5.58-10.25"/>
                <path class="st7" d="M278.44,210.05c2.34,0,4.32-1.89,4.32-4.22s-1.98-4.32-4.32-4.32h-13.76c-2.43,0-4.32,1.89-4.32,4.32s1.89,4.22,4.32,4.22h13.76Z"/>
                <path class="st7" d="M289.41,191.62l-11.78-30.66h-11.96l-11.69,30.66c-1.53,3.96-1.17,8.81,1.08,11.06,3.33-.18,6.83-3.42,8.27-7.55l8.09-23.11h.27l8.09,23.11c1.44,4.14,4.77,7.37,8.27,7.55,2.43-2.25,2.88-7.1,1.35-11.06"/>
                <path class="st7" d="M288.06,202.68c-2.43,2.34-3.42,6.74-1.89,10.97l4.14,11.6h12.05l-5.85-15.29c-1.62-4.23-5.13-7.1-8.45-7.28"/>
                <path class="st7" d="M246.88,209.96l-5.85,15.29h11.6l4.14-11.6c1.53-4.23.54-8.63-1.71-10.97-3.15.18-6.56,3.06-8.18,7.28"/>
                <path class="st7" d="M332.93,190.36h-8.63c-2.97,0-4.86,2.25-4.86,4.59s1.89,4.49,4.86,4.49h20.77c-2.43-6.11-6.38-9.08-12.14-9.08"/>
                <path class="st7" d="M360.63,218.33l-1.71-6.74c-2.07-8.27-6.2-12.14-12.95-12.14h-.9c.54,1.53,1.08,3.24,1.44,5.13l2.25,11.06c.54,2.7,1.26,7.91,2.97,9.62h12.14c-1.35-1.17-2.34-3.33-3.24-6.92"/>
                <path class="st7" d="M319.45,205.11c0-4.77-2.52-8.81-5.58-10.16-3.06,1.44-5.67,5.39-5.67,10.16v20.14h11.24v-20.14h.01Z"/>
                <path class="st7" d="M319.45,184.7v-14.57h16.72c8.27,0,13.04,2.7,13.04,10.34,0,6.2-3.69,8.45-3.69,11.87,0,2.43,1.89,4.41,4.41,4.41,5.48,0,10.61-9.35,10.61-16.9,0-13.31-9.26-18.88-22.57-18.88h-29.76v23.74c0,4.95,2.52,8.81,5.67,10.25,3.06-1.35,5.58-5.31,5.58-10.25"/>
                <path class="st7" d="M414.94,215.54h-32.64v-12.23c0-4.77-2.52-8.72-5.58-10.16-3.06,1.44-5.66,5.39-5.66,10.16v21.94h43.88v-9.71Z"/>
                <path class="st7" d="M382.3,182.9v-21.94h-11.24v21.94c0,4.95,2.52,8.9,5.66,10.25,3.06-1.35,5.58-5.31,5.58-10.25"/>
                <path class="st7" d="M427.35,204.84v20.41h11.24v-20.41c0-4.77-2.52-8.81-5.58-10.16-3.06,1.44-5.67,5.4-5.67,10.16"/>
                <path class="st7" d="M450.91,179.84l11.69-18.88h-12.59l-16.72,28.77-17-28.77h-13.04l11.69,18.88c5.21,8.36,10.16,12.41,18.07,14.84,7.91-2.43,12.77-6.47,17.89-14.84"/>
                <path class="st7" d="M474.65,185.54c3.87,0,7.01-3.15,7.01-7.1s-3.14-7.01-7.01-7.01-7.1,3.15-7.1,7.01,3.15,7.1,7.1,7.1"/>
                <path class="st7" d="M474.65,217.01c3.87,0,7.01-3.15,7.01-7.1s-3.14-7.01-7.01-7.01-7.1,3.15-7.1,7.01,3.15,7.1,7.1,7.1"/>
              </g>
            </g>
          </g>
          <g class="st8">
            <g class="st3">
              <g>
                <path class="st7" d="M892.68,596.26c0,4.73,2.28,8.59,5.35,10.08l.09-.09c2.98-1.32,5.35-5.17,5.35-9.99v-21.39h-10.78v21.39h0Z"/>
                <path class="st7" d="M866.55,596.26v-21.39h-10.87v21.39c0,4.82,2.45,8.68,5.44,9.99,2.98-1.32,5.44-5.17,5.44-9.99"/>
                <path class="st7" d="M892.68,616.16v21.39h10.78v-21.39c0-4.65-2.37-8.51-5.35-9.82h-.09c-2.98,1.4-5.35,5.26-5.35,9.82"/>
                <path class="st7" d="M888.21,601.78h-17.27c-2.37,0-4.38,2.02-4.38,4.47s2.02,4.47,4.38,4.47h17.27c2.46,0,4.47-2.02,4.47-4.47s-2.02-4.47-4.47-4.47"/>
                <path class="st7" d="M861.12,606.25c-2.89,1.4-5.44,5.26-5.44,9.91v21.39h10.87v-21.39c0-4.65-2.46-8.51-5.44-9.91"/>
                <path class="st7" d="M966.94,597.75c0-13.24-15.43-24.29-28.67-24.29-14.12,0-28.67,11.92-28.67,24.29,0,3.95,2.1,7.19,5.26,8.51,2.54-1.14,4.56-4.03,5.53-8.77,1.66-8.15,7.8-15.08,17.89-15.08s16.04,6.31,17.88,15.08c.96,4.73,2.98,7.63,5.52,8.77,3.16-1.32,5.26-4.56,5.26-8.51"/>
                <path class="st7" d="M956.16,615.02c-1.93,8.94-8.68,15.08-17.89,15.08-10.08,0-16.22-6.93-17.89-15.08-.96-4.65-2.98-7.54-5.52-8.77-2.89,1.4-5.17,4.47-5.17,8.59,0,12.19,13.94,24.2,28.58,24.2,13.68,0,28.58-11.22,28.58-24.2,0-4.12-2.28-7.19-5.17-8.59-2.54,1.23-4.56,4.12-5.52,8.77"/>
                <path class="st7" d="M984.92,596.26v-21.39h-10.96v21.39c0,4.82,2.45,8.68,5.52,10,2.98-1.32,5.43-5.17,5.43-10"/>
                <path class="st7" d="M1014.29,616.16c0,2.1-.7,5.17-2.02,7.45-.97,1.75-2.46,3.16-4.38,4.3-2.02,1.14-4.74,1.67-8.33,1.67s-6.31-.53-8.24-1.67c-2.02-1.14-3.42-2.54-4.38-4.3-1.67-2.89-2.02-5.87-2.02-7.45,0-4.65-2.45-8.51-5.43-9.91-2.98,1.4-5.61,5.26-5.52,9.91.09,3.59.61,6.75,1.75,9.38,1.23,2.98,2.98,5.44,5.26,7.45,2.19,2.02,4.91,3.6,8.07,4.56,3.16.96,6.66,1.49,10.52,1.49s7.36-.53,10.52-1.49c3.16-.96,5.88-2.54,8.15-4.56,2.19-2.02,3.95-4.47,5.17-7.45,1.14-2.72,1.84-5.79,1.84-9.38,0-4.65-2.45-8.51-5.44-9.82h-.09c-2.98,1.4-5.44,5.26-5.44,9.82"/>
                <path class="st7" d="M1014.29,596.26c0,4.74,2.37,8.59,5.44,10.08l.09-.09c2.98-1.32,5.44-5.17,5.44-10v-21.39h-10.96v21.39h-.01Z"/>
                <path class="st7" d="M1044.54,598.01v-14.2h16.31c8.07,0,12.71,2.63,12.71,10.08,0,6.05-3.6,8.24-3.6,11.57,0,2.37,1.84,4.3,4.3,4.3,5.35,0,10.34-9.12,10.34-16.48,0-12.98-9.03-18.41-22.01-18.41h-29.02v23.15c0,4.82,2.45,8.59,5.52,9.99,2.98-1.32,5.44-5.17,5.44-9.99"/>
                <path class="st7" d="M1057.69,603.53h-8.42c-2.89,0-4.73,2.19-4.73,4.47s1.84,4.39,4.73,4.39h20.25c-2.37-5.96-6.23-8.86-11.84-8.86"/>
                <path class="st7" d="M1084.69,630.8l-1.67-6.58c-2.02-8.07-6.05-11.84-12.62-11.84h-.88c.53,1.49,1.05,3.16,1.4,5l2.19,10.78c.53,2.63,1.23,7.71,2.9,9.38h11.83c-1.31-1.14-2.28-3.24-3.16-6.75"/>
                <path class="st7" d="M1039.1,608.01c-2.98,1.4-5.52,5.26-5.52,9.91v19.64h10.96v-19.64c0-4.65-2.45-8.59-5.44-9.91"/>
                <path class="st7" d="M1111.7,598.19c-2.98-.88-6.14-3.33-6.14-7.63,0-6.4,6.49-8.15,11.49-8.15,7.89,0,12.98,3.07,13.5,11.05h10.96c0-13.07-10.96-19.9-24.02-19.9-12.1,0-22.89,6.22-22.89,18.32,0,8.86,5.7,13.68,14.38,16.04,4.3,1.14,8.33-.09,10.26-2.46-.53-2.98-3.33-6.05-7.54-7.28"/>
                <path class="st7" d="M1129.23,602.92c-4.03-.96-8.15.09-9.99,2.54.44,2.98,3.24,6.05,7.89,7.45,2.98.88,5.17,3.33,5.17,7.72,0,6.66-6.49,9.47-13.24,9.47-9.12,0-15.87-4.12-15.87-13.42h-10.96c.35,14.99,11.14,22.36,26.13,22.36,13.33,0,24.9-6.23,24.9-19.64,0-8.07-5.08-14.12-14.03-16.48"/>
                <path class="st7" d="M748.38,532.83c0,2.45,2.02,4.47,4.47,4.47h28.93v-8.94h-28.93c-2.46,0-4.47,2.02-4.47,4.47"/>
                <path class="st7" d="M748.38,522.83v-11.92h35.95v-9.47h-46.91v21.39c0,4.82,2.46,8.68,5.52,9.99,2.98-1.32,5.44-5.17,5.44-9.99"/>
                <path class="st7" d="M748.38,542.73c0-4.65-2.46-8.51-5.44-9.91-2.98,1.4-5.52,5.26-5.52,9.91v21.39h47.78v-9.47h-36.82v-11.92h0Z"/>
                <path class="st7" d="M796.16,549.22l-5.7,14.91h11.31l4.03-11.31c1.49-4.12.53-8.42-1.67-10.7-3.07.18-6.4,2.98-7.98,7.1"/>
                <path class="st7" d="M837.56,531.34l-11.46-29.9h-11.64l-11.38,29.9c-1.49,3.86-1.14,8.59,1.05,10.78,3.24-.18,6.65-3.33,8.05-7.36l7.88-22.53h.26l7.87,22.53c1.4,4.03,4.64,7.19,8.05,7.36,2.36-2.19,2.8-6.93,1.31-10.78"/>
                <path class="st7" d="M836.32,542.12c-2.37,2.28-3.33,6.58-1.84,10.7l4.03,11.31h11.75l-5.7-14.91c-1.58-4.12-5-6.93-8.24-7.1"/>
                <path class="st7" d="M826.94,540.98h-13.41c-2.37,0-4.21,1.84-4.21,4.21s1.84,4.12,4.21,4.12h13.41c2.28,0,4.21-1.84,4.21-4.12s-1.93-4.21-4.21-4.21"/>
                <path class="st7" d="M892.78,538.96h-.88c.53,1.49,1.05,3.16,1.4,5l2.19,10.78c.53,2.63,1.23,7.71,2.9,9.38h11.84c-1.32-1.14-2.28-3.24-3.16-6.75l-1.67-6.58c-2.02-8.07-6.05-11.84-12.62-11.84"/>
                <path class="st7" d="M866.92,544.49c0-4.65-2.46-8.59-5.44-9.91-2.98,1.4-5.52,5.26-5.52,9.91v19.64h10.96v-19.64Z"/>
                <path class="st7" d="M866.92,524.59v-14.2h16.31c8.07,0,12.71,2.63,12.71,10.08,0,6.05-3.6,8.24-3.6,11.57,0,2.37,1.84,4.3,4.3,4.3,5.35,0,10.35-9.12,10.35-16.48,0-12.98-9.03-18.41-22.01-18.41h-29.02v23.15c0,4.82,2.46,8.59,5.52,9.99,2.98-1.32,5.44-5.17,5.44-9.99"/>
                <path class="st7" d="M880.07,530.11h-8.42c-2.89,0-4.73,2.19-4.73,4.47s1.84,4.38,4.73,4.38h20.25c-2.37-5.96-6.22-8.86-11.84-8.86"/>
                <path class="st7" d="M928.64,522.83v-21.39h-10.96v21.39c0,4.82,2.45,8.68,5.52,9.99,2.98-1.32,5.44-5.17,5.44-9.99"/>
                <path class="st7" d="M960.47,554.66h-31.83v-11.93c0-4.65-2.45-8.51-5.43-9.91-2.98,1.4-5.52,5.26-5.52,9.91v21.39h42.78v-9.47h0Z"/>
                <path class="st7" d="M995.54,519.85l11.4-18.41h-12.28l-16.31,28.06-16.57-28.06h-12.71l11.4,18.41c5.09,8.15,9.91,12.1,17.62,14.47,7.72-2.37,12.45-6.31,17.45-14.47"/>
                <path class="st7" d="M972.57,544.22v19.9h10.96v-19.9c0-4.65-2.46-8.59-5.44-9.91-2.98,1.4-5.52,5.26-5.52,9.91"/>
                <path class="st7" d="M1020,542.33c-3.86,0-6.93,3.07-6.93,6.84s3.07,6.93,6.93,6.93,6.84-3.07,6.84-6.93-3.07-6.84-6.84-6.84"/>
                <path class="st7" d="M1020,511.64c-3.86,0-6.93,3.07-6.93,6.84s3.07,6.93,6.93,6.93,6.84-3.07,6.84-6.93-3.07-6.84-6.84-6.84"/>
              </g>
            </g>
          </g>
          <g class="st8">
            <g class="st4">
              <g>
                <path class="st7" d="M283.91,570.28c0,2.41,1.98,4.4,4.39,4.4h28.44v-8.79h-28.44c-2.41,0-4.39,1.98-4.39,4.4"/>
                <path class="st7" d="M283.91,580.02c0-4.57-2.41-8.36-5.34-9.74-2.93,1.38-5.43,5.17-5.43,9.74v21.03h46.96v-9.31h-36.19v-11.72h0Z"/>
                <path class="st7" d="M283.91,560.46v-11.72h35.33v-9.31h-46.1v21.02c0,4.74,2.41,8.53,5.43,9.82,2.93-1.29,5.34-5.08,5.34-9.82"/>
                <path class="st7" d="M334.67,579.62c-3.79,0-6.81,3.02-6.81,6.72s3.02,6.81,6.81,6.81,6.72-3.02,6.72-6.81-3.02-6.72-6.72-6.72"/>
                <path class="st7" d="M334.67,549.46c-3.79,0-6.81,3.02-6.81,6.72s3.02,6.81,6.81,6.81,6.72-3.01,6.72-6.81-3.02-6.72-6.72-6.72"/>
                <path class="st7" d="M354.92,570.28c-2.84,1.38-5.34,5.17-5.34,9.74v21.03h10.69v-21.03c0-4.57-2.41-8.36-5.34-9.74"/>
                <path class="st7" d="M396.54,560.46v-21.02h-10.6v21.02c0,4.65,2.24,8.44,5.26,9.91l.09-.09c2.93-1.29,5.26-5.08,5.26-9.82"/>
                <path class="st7" d="M385.94,580.02v21.02h10.6v-21.02c0-4.57-2.33-8.36-5.26-9.65h-.09c-2.93,1.38-5.26,5.17-5.26,9.65"/>
                <path class="st7" d="M360.26,560.46v-21.02h-10.69v21.02c0,4.74,2.41,8.53,5.34,9.82,2.93-1.29,5.34-5.08,5.34-9.82"/>
                <path class="st7" d="M381.54,565.89h-16.98c-2.33,0-4.31,1.98-4.31,4.4s1.98,4.4,4.31,4.4h16.98c2.41,0,4.39-1.98,4.39-4.4s-1.98-4.4-4.39-4.4"/>
              </g>
            </g>
          </g>
          <g class="st8">
            <g class="st6">
              <g>
                <path class="st7" d="M766.35,238h-9.82c-1.8,5.32-5.5,8.02-11.26,8.02-6.4,0-10.18-3.87-11.8-9.55-.9-3.24-2.61-5.68-5.32-6.94-2.97-1.53-4.14-4.15-4.14-7.03.09-8.83,8.65-17.3,21.44-17.3,14.78,0,21.71,11.8,21.71,22.71,0,2.43-.45,4.78-.63,5.5h-28.56c-2.16,0-3.87-1.62-3.87-3.78s1.8-3.87,3.87-3.87h19.19c0-6.94-4.86-12.25-11.53-12.25s-10.54,3.6-12.16,9.28c-.9,3.24-2.61,5.5-5.32,6.76-2.79,1.44-4.14,3.96-4.14,6.85,0,9.55,9.01,17.93,21.26,17.93,10.9,0,19.37-6.31,21.08-16.31"/>
                <path class="st7" d="M806.45,252.96h9.91v-14.06c0-4.5-2.25-8.11-5.14-9.37-2.16.99-3.87,3.42-4.68,6.49-1.62,6.4-5.95,9.82-11.62,10-6.13.18-10.54-4.05-11.8-9.73-.72-3.24-2.52-5.77-4.87-6.76-3.24,1.35-4.68,4.42-4.68,7.84,0,9.19,8.92,16.94,18.11,16.94,7.66,0,12.79-4.05,14.51-7.84h.27v6.49h-.01ZM806.45,206.56h9.91v13.6c0,4.51-2.25,8.11-5.14,9.37-2.16-.99-3.87-3.42-4.68-6.49-1.62-6.13-5.95-9.37-11.62-9.55-6.13-.18-10.54,3.6-11.8,9.28-.72,3.24-2.52,5.77-4.87,6.76-3.24-1.35-4.68-4.41-4.68-7.84,0-9.19,8.92-16.49,18.11-16.49,7.66,0,12.79,4.05,14.51,7.84h.27v-6.49h-.01Z"/>
                <path class="st7" d="M824.47,220.16c0,4.51,2.25,8.11,5.14,9.37,2.88,1.26,5.14,4.87,5.14,9.28v14.15h-10.27v-14.15c0-4.41,2.34-8.02,5.14-9.28,2.88-1.26,5.14-4.86,5.14-9.37v-4.14c0-.27,0-.54.09-.9.72-4.78,6.58-9.91,13.15-9.91,1.53,0,2.97.18,3.78.45v9.46h-17.39v-8.56h-9.91v13.6h-.01Z"/>
                <path class="st7" d="M867.45,252.96v-14.15c0-4.41-2.25-8.02-5.14-9.28-2.79,1.26-5.14,4.86-5.14,9.28v14.15h10.28ZM857.18,188.63h10.27v31.53c0,4.51-2.25,8.11-5.14,9.37-2.88-1.26-5.14-4.87-5.14-9.37v-31.53h.01Z"/>
                <path class="st7" d="M900.97,270.98v-11.44c0-4.78-1.98-9.28-5.23-10.18-3.24.99-5.23,5.41-5.23,10.18v11.44h10.46ZM872.4,206.56h10.99l12.25,38.56,11.89-38.56h10.45l-10.54,31.53c-1.98,6.04-5.05,9.28-11.71,11.26-7.03-1.98-10.36-5.23-12.43-11.26l-10.9-31.53Z"/>
                <path class="st7" d="M920.25,245.48c0-3.87,3.15-7.03,7.12-7.03s7.03,3.15,7.03,7.03-3.15,7.12-7.03,7.12-7.12-3.15-7.12-7.12M920.25,213.95c0-3.87,3.15-7.03,7.12-7.03s7.03,3.15,7.03,7.03-3.15,7.12-7.03,7.12-7.12-3.15-7.12-7.12"/>
                <path class="st7" d="M980.7,252.96v-14.15c0-4.41-2.25-8.02-5.14-9.28-2.79,1.26-5.14,4.87-5.14,9.28v14.15h10.28ZM950.07,252.96v-14.15c0-4.41-2.25-8.02-5.14-9.28-2.79,1.26-5.14,4.87-5.14,9.28v14.15h10.28ZM964.13,205.21c5.32,0,9.19,1.62,11.98,4.68,3.06,3.24,4.42,8.11,4.42,11.26,0,3.87-2.07,7.12-4.96,8.38-2.52-1.08-4.51-3.87-5.05-7.57-.72-4.96-3.69-8.47-10.36-8.47-5.77,0-9.19,3.96-10.18,9.01-.63,3.33-2.7,6.04-5.04,7.03-2.88-1.26-5.14-4.86-5.14-9.37v-31.62h10.27v18.02c0,3.06-.09,4.32-.18,6.49h.18c3.42-5.77,8.83-7.84,14.06-7.84"/>
                <path class="st7" d="M1024.58,249.36c6.4-5.41,9.82-16.13,2.34-19.82-2.7,1.26-4.41,3.7-5.32,6.94-1.62,5.68-5.5,9.55-12.16,9.55s-10.54-3.87-12.16-9.55c-.9-3.24-2.61-5.68-5.32-6.94-7.48,3.7-4.05,14.42,2.34,19.82,3.69,3.15,9.19,4.95,15.14,4.95s11.44-1.8,15.14-4.95M994.22,210.07c3.78-3.24,9.28-4.86,15.23-4.86s11.44,1.62,15.23,4.86c6.31,5.32,9.73,15.77,2.25,19.46-2.7-1.26-4.41-3.51-5.32-6.76-1.62-5.68-5.5-9.28-12.16-9.28s-10.54,3.6-12.16,9.28c-.9,3.24-2.61,5.5-5.32,6.76-7.48-3.69-4.05-14.15,2.25-19.46"/>
                <path class="st7" d="M1068.82,220.25v-13.7h10.27v13.7c0,4.41-2.34,8.02-5.14,9.28-2.88-1.26-5.14-4.87-5.14-9.28M1068.82,246.47h.18c-.09,2.16-.18,3.42-.18,6.31v.18h10.27v-14.06c0-4.5-2.25-8.11-5.14-9.37-2.34.99-4.33,3.78-5.05,7.48-.99,5.14-4.42,9.01-10.18,9.01-6.67,0-9.64-3.51-10.36-8.47-.63-4.05-2.52-6.94-5.05-8.02-2.88,1.26-4.95,4.5-4.95,8.83,0,3.15,1.35,8.02,4.41,11.26,2.7,2.97,6.67,4.68,11.98,4.68s10.63-2.07,14.06-7.84M1038.19,220.25v-13.7h10.27v13.7c0,4.41-2.34,8.02-5.14,9.28-2.88-1.26-5.14-4.87-5.14-9.28"/>
                <path class="st7" d="M1087.21,220.16c0,4.51,2.25,8.11,5.14,9.37,2.88,1.26,5.14,4.87,5.14,9.28v14.15h-10.27v-14.15c0-4.41,2.34-8.02,5.14-9.28,2.88-1.26,5.14-4.86,5.14-9.37v-4.14c0-.27,0-.54.09-.9.72-4.78,6.58-9.91,13.16-9.91,1.53,0,2.97.18,3.78.45v9.46h-17.39v-8.56h-9.91v13.6h-.02Z"/>
                <path class="st7" d="M1128.65,231.16c3.33.81,6.58-.18,8.2-2.34-.36-2.25-2.25-4.51-5.05-5.59-2.43-.99-4.68-2.25-4.68-5.23,0-4.14,4.86-5.22,8.56-5.22,5.77,0,8.92,1.98,9.64,6.85h9.91c-.81-9.28-8.2-14.51-19.01-14.51-9.37,0-18.56,4.05-18.56,13.52,0,7.21,4.5,10.81,10.99,12.52M1116.31,237.82h9.55c.36,5.95,4.51,8.83,11.08,8.83,4.42,0,10.18-1.17,10.18-6.49-.09-2.79-1.8-4.51-4.59-5.41-3.06-1.08-5.32-3.42-5.68-5.95,1.53-2.16,4.78-3.06,7.93-2.25,7.57,1.98,11.89,5.86,11.89,12.61,0,10-9.19,15.05-20.09,15.05-11.44,0-20.18-5.32-20.27-16.4"/>
              </g>
            </g>
          </g>
        </g>
      </g>
      <path class="st1" d="M640,736.08V63.92M44.09,400h1191.83"/>
    </g>
  </g>
</svg>