<?xml version="1.0" encoding="UTF-8"?>
<svg id="Layer_1" xmlns="http://www.w3.org/2000/svg" xmlns:xlink="http://www.w3.org/1999/xlink" version="1.1" viewBox="0 0 1280 800">
  <!-- Generator: Adobe Illustrator 29.8.2, SVG Export Plug-In . SVG Version: 2.1.1 Build 3)  -->
  <defs>
    <style>
      .st0, .st1 {
        fill: none;
      }

      .st2 {
        clip-path: url(#clippath-1);
      }

      .st3 {
        fill: #fff;
      }

      .st4 {
        clip-path: url(#clippath);
      }

      .st1 {
        stroke: #fff;
      }
    </style>
    <clipPath id="clippath">
      <rect class="st0" width="1280" height="800"/>
    </clipPath>
    <clipPath id="clippath-1">
      <rect class="st0" width="1280" height="800"/>
    </clipPath>
  </defs>
  <g class="st4">
    <rect x="-3" y="-3" width="1286" height="806"/>
  </g>
  <g class="st2">
    <path class="st3" d="M183.49,260.05c-3.07,1.49-5.78,5.59-5.78,10.53v22.73h11.55v-22.73c0-4.94-2.61-9.04-5.78-10.53"/>
    <path class="st3" d="M189.27,249.43v-22.73h-11.56v22.73c0,5.12,2.61,9.22,5.78,10.62,3.17-1.4,5.78-5.5,5.78-10.62"/>
    <path class="st3" d="M212.28,255.3h-18.35c-2.52,0-4.66,2.14-4.66,4.75s2.14,4.75,4.66,4.75h18.35c2.61,0,4.75-2.14,4.75-4.75s-2.14-4.75-4.75-4.75"/>
    <path class="st3" d="M217.03,270.58v22.73h11.46v-22.73c0-4.94-2.52-9.04-5.68-10.44h-.09c-3.17,1.49-5.68,5.59-5.68,10.44"/>
    <path class="st3" d="M217.03,249.43c0,5.03,2.42,9.13,5.68,10.71l.09-.09c3.17-1.4,5.68-5.5,5.68-10.62v-22.73h-11.46v22.73Z"/>
    <path class="st3" d="M284.49,269.37c-2.05,9.5-9.22,16.03-19.01,16.03-10.72,0-17.24-7.36-19.01-16.03-1.02-4.94-3.17-8.01-5.87-9.32-3.08,1.49-5.5,4.75-5.5,9.13,0,12.95,14.82,25.72,30.38,25.72,14.53,0,30.37-11.93,30.37-25.72,0-4.38-2.42-7.64-5.5-9.13-2.7,1.3-4.85,4.38-5.87,9.32"/>
    <path class="st3" d="M295.95,251.01c0-14.07-16.4-25.81-30.47-25.81-15,0-30.47,12.67-30.47,25.81,0,4.19,2.24,7.64,5.59,9.04,2.7-1.21,4.85-4.29,5.87-9.32,1.77-8.67,8.29-16.03,19.01-16.03s17.05,6.71,19.01,16.03c1.02,5.03,3.17,8.11,5.87,9.32,3.36-1.4,5.59-4.85,5.59-9.04"/>
    <path class="st3" d="M346.73,270.58c0,2.24-.75,5.5-2.14,7.92-1.02,1.86-2.61,3.35-4.66,4.57-2.14,1.21-5.03,1.77-8.85,1.77s-6.71-.56-8.76-1.77c-2.14-1.21-3.63-2.7-4.66-4.57-1.77-3.07-2.14-6.24-2.14-7.92,0-4.94-2.61-9.04-5.77-10.53-3.17,1.49-5.96,5.59-5.87,10.53.09,3.82.65,7.17,1.86,9.97,1.3,3.17,3.17,5.78,5.59,7.92,2.33,2.14,5.22,3.82,8.57,4.85,3.35,1.02,7.08,1.58,11.18,1.58s7.83-.56,11.18-1.58c3.35-1.03,6.24-2.7,8.67-4.85,2.33-2.14,4.19-4.75,5.5-7.92,1.21-2.89,1.95-6.15,1.95-9.97,0-4.94-2.61-9.04-5.78-10.44h-.09c-3.17,1.49-5.78,5.59-5.78,10.44"/>
    <path class="st3" d="M346.73,249.43c0,5.03,2.52,9.13,5.78,10.71l.09-.09c3.17-1.4,5.78-5.5,5.78-10.62v-22.73h-11.65v22.73Z"/>
    <path class="st3" d="M315.51,249.43v-22.73h-11.64v22.73c0,5.12,2.61,9.22,5.87,10.62,3.17-1.4,5.77-5.5,5.77-10.62"/>
    <path class="st3" d="M393.78,257.16h-8.94c-3.08,0-5.03,2.33-5.03,4.75s1.96,4.66,5.03,4.66h21.52c-2.52-6.34-6.62-9.41-12.58-9.41"/>
    <path class="st3" d="M422.48,286.14l-1.77-6.99c-2.14-8.57-6.43-12.58-13.42-12.58h-.93c.56,1.58,1.12,3.36,1.49,5.31l2.33,11.46c.56,2.8,1.3,8.2,3.08,9.97h12.58c-1.4-1.21-2.42-3.45-3.35-7.17"/>
    <path class="st3" d="M374.03,261.91c-3.17,1.49-5.87,5.59-5.87,10.53v20.87h11.65v-20.87c0-4.94-2.61-9.13-5.78-10.53"/>
    <path class="st3" d="M379.8,251.29v-15.09h17.33c8.57,0,13.51,2.8,13.51,10.71,0,6.43-3.82,8.76-3.82,12.3,0,2.51,1.96,4.57,4.57,4.57,5.68,0,10.99-9.69,10.99-17.52,0-13.79-9.6-19.57-23.39-19.57h-30.84v24.6c0,5.13,2.61,9.13,5.87,10.62,3.17-1.4,5.78-5.5,5.78-10.62"/>
    <path class="st3" d="M469.81,256.51c-4.29-1.03-8.67.09-10.62,2.7.46,3.17,3.45,6.43,8.38,7.92,3.17.93,5.5,3.54,5.5,8.2,0,7.08-6.89,10.06-14.07,10.06-9.69,0-16.87-4.38-16.87-14.26h-11.64c.37,15.93,11.83,23.76,27.77,23.76,14.16,0,26.46-6.62,26.46-20.87,0-8.57-5.4-15-14.91-17.52"/>
    <path class="st3" d="M451.17,251.48c-3.17-.93-6.52-3.54-6.52-8.1,0-6.8,6.9-8.67,12.21-8.67,8.39,0,13.79,3.26,14.35,11.74h11.65c0-13.88-11.65-21.15-25.53-21.15-12.86,0-24.32,6.61-24.32,19.47,0,9.41,6.06,14.54,15.28,17.05,4.57,1.21,8.85-.09,10.9-2.61-.56-3.17-3.54-6.43-8.01-7.73"/>
    <path class="st3" d="M189.23,185.67c0,2.61,2.14,4.75,4.75,4.75h30.75v-9.5h-30.75c-2.61,0-4.75,2.14-4.75,4.75"/>
    <path class="st3" d="M228.36,208.87h-39.13v-12.67c0-4.94-2.61-9.04-5.78-10.53-3.17,1.49-5.87,5.59-5.87,10.53v22.73h50.78v-10.06Z"/>
    <path class="st3" d="M189.23,175.05v-12.67h38.2v-10.06h-49.85v22.73c0,5.12,2.61,9.22,5.87,10.62,3.17-1.4,5.78-5.5,5.78-10.62"/>
    <path class="st3" d="M272.71,203.19c2.42,0,4.47-1.96,4.47-4.38s-2.05-4.47-4.47-4.47h-14.26c-2.52,0-4.47,1.96-4.47,4.47s1.96,4.38,4.47,4.38h14.26Z"/>
    <path class="st3" d="M284.08,184.09l-12.2-31.77h-12.39l-12.11,31.77c-1.58,4.1-1.21,9.13,1.12,11.46,3.45-.19,7.08-3.54,8.57-7.83l8.39-23.94h.28l8.39,23.94c1.49,4.29,4.94,7.64,8.57,7.83,2.51-2.33,2.98-7.36,1.4-11.46"/>
    <path class="st3" d="M282.68,195.55c-2.52,2.42-3.54,6.99-1.96,11.37l4.29,12.02h12.49l-6.06-15.84c-1.68-4.38-5.31-7.36-8.76-7.55"/>
    <path class="st3" d="M240.01,203.09l-6.06,15.84h12.02l4.29-12.02c1.58-4.38.56-8.95-1.77-11.37-3.26.19-6.8,3.17-8.48,7.55"/>
    <path class="st3" d="M329.18,182.78h-8.94c-3.08,0-5.03,2.33-5.03,4.75s1.96,4.66,5.03,4.66h21.52c-2.52-6.34-6.61-9.41-12.58-9.41"/>
    <path class="st3" d="M357.87,211.76l-1.77-6.99c-2.14-8.57-6.43-12.58-13.42-12.58h-.93c.56,1.58,1.12,3.35,1.49,5.31l2.33,11.46c.56,2.8,1.31,8.2,3.08,9.97h12.58c-1.4-1.21-2.42-3.45-3.35-7.17"/>
    <path class="st3" d="M315.2,198.06c0-4.94-2.61-9.13-5.78-10.53-3.17,1.49-5.87,5.59-5.87,10.53v20.87h11.65v-20.87Z"/>
    <path class="st3" d="M315.2,176.91v-15.09h17.33c8.57,0,13.51,2.8,13.51,10.71,0,6.43-3.82,8.76-3.82,12.3,0,2.52,1.96,4.57,4.57,4.57,5.68,0,10.99-9.69,10.99-17.52,0-13.79-9.6-19.57-23.39-19.57h-30.84v24.6c0,5.12,2.61,9.13,5.87,10.62,3.17-1.4,5.78-5.5,5.78-10.62"/>
    <path class="st3" d="M414.15,208.87h-33.82v-12.67c0-4.94-2.61-9.04-5.78-10.53-3.17,1.49-5.87,5.59-5.87,10.53v22.73h45.47v-10.06Z"/>
    <path class="st3" d="M380.33,175.05v-22.73h-11.65v22.73c0,5.12,2.61,9.22,5.87,10.62,3.17-1.4,5.78-5.5,5.78-10.62"/>
    <path class="st3" d="M427.01,197.78v21.15h11.65v-21.15c0-4.94-2.61-9.13-5.78-10.53-3.17,1.49-5.87,5.59-5.87,10.53"/>
    <path class="st3" d="M451.42,171.88l12.11-19.57h-13.05l-17.33,29.81-17.61-29.81h-13.51l12.11,19.57c5.4,8.66,10.53,12.86,18.73,15.37,8.2-2.52,13.23-6.71,18.54-15.37"/>
    <path class="st3" d="M476.02,177.78c4.01,0,7.27-3.26,7.27-7.36s-3.26-7.27-7.27-7.27-7.36,3.26-7.36,7.27,3.26,7.36,7.36,7.36"/>
    <path class="st3" d="M476.02,210.39c4.01,0,7.27-3.26,7.27-7.36s-3.26-7.27-7.27-7.27-7.36,3.26-7.36,7.27,3.26,7.36,7.36,7.36"/>
    <path class="st3" d="M909.16,603.35c0,4.9,2.36,8.9,5.54,10.45l.09-.09c3.09-1.36,5.54-5.36,5.54-10.36v-22.17h-11.17v22.17Z"/>
    <path class="st3" d="M882.09,603.35v-22.17h-11.27v22.17c0,5,2.54,8.99,5.63,10.36,3.09-1.36,5.63-5.36,5.63-10.36"/>
    <path class="st3" d="M909.16,623.97v22.17h11.17v-22.17c0-4.82-2.45-8.81-5.54-10.18h-.09c-3.09,1.45-5.54,5.45-5.54,10.18"/>
    <path class="st3" d="M904.53,609.08h-17.9c-2.45,0-4.54,2.09-4.54,4.63s2.09,4.63,4.54,4.63h17.9c2.54,0,4.63-2.09,4.63-4.63s-2.09-4.63-4.63-4.63"/>
    <path class="st3" d="M876.45,613.71c-3,1.45-5.63,5.45-5.63,10.27v22.17h11.27v-22.17c0-4.82-2.54-8.81-5.63-10.27"/>
    <path class="st3" d="M986.11,604.9c0-13.72-15.99-25.17-29.71-25.17-14.63,0-29.71,12.36-29.71,25.17,0,4.09,2.18,7.45,5.45,8.81,2.64-1.18,4.73-4.18,5.72-9.09,1.73-8.45,8.09-15.63,18.53-15.63s16.62,6.54,18.53,15.63c1,4.9,3.09,7.9,5.72,9.09,3.27-1.36,5.45-4.73,5.45-8.81"/>
    <path class="st3" d="M974.93,622.79c-2,9.27-8.99,15.63-18.53,15.63-10.45,0-16.81-7.18-18.53-15.63-1-4.82-3.09-7.81-5.72-9.08-3,1.45-5.36,4.63-5.36,8.9,0,12.63,14.44,25.07,29.62,25.07,14.17,0,29.62-11.63,29.62-25.07,0-4.27-2.36-7.45-5.36-8.9-2.63,1.27-4.72,4.27-5.72,9.08"/>
    <path class="st3" d="M1004.73,603.35v-22.17h-11.35v22.17c0,5,2.54,8.99,5.72,10.36,3.09-1.36,5.63-5.36,5.63-10.36"/>
    <path class="st3" d="M1035.16,623.98c0,2.18-.73,5.36-2.09,7.72-1,1.82-2.54,3.27-4.54,4.45-2.09,1.18-4.91,1.73-8.63,1.73s-6.54-.55-8.54-1.73c-2.09-1.18-3.54-2.63-4.54-4.45-1.73-3-2.09-6.09-2.09-7.72,0-4.82-2.54-8.81-5.63-10.27-3.09,1.45-5.81,5.45-5.72,10.27.09,3.72.64,7,1.82,9.72,1.27,3.09,3.09,5.63,5.45,7.72,2.27,2.09,5.09,3.72,8.36,4.72,3.27,1,6.9,1.54,10.9,1.54s7.63-.54,10.9-1.54c3.27-1,6.09-2.63,8.45-4.72,2.27-2.09,4.09-4.63,5.36-7.72,1.18-2.82,1.91-6,1.91-9.72,0-4.82-2.54-8.81-5.63-10.18h-.09c-3.09,1.45-5.63,5.45-5.63,10.18"/>
    <path class="st3" d="M1035.16,603.35c0,4.91,2.45,8.9,5.63,10.45l.09-.09c3.09-1.36,5.63-5.36,5.63-10.36v-22.17h-11.35v22.17Z"/>
    <path class="st3" d="M1066.51,605.17v-14.72h16.9c8.36,0,13.17,2.72,13.17,10.45,0,6.27-3.73,8.54-3.73,11.99,0,2.45,1.91,4.45,4.45,4.45,5.54,0,10.72-9.45,10.72-17.08,0-13.44-9.36-19.08-22.8-19.08h-30.07v23.98c0,5,2.54,8.9,5.72,10.36,3.09-1.36,5.63-5.36,5.63-10.36"/>
    <path class="st3" d="M1080.13,610.89h-8.72c-3,0-4.91,2.27-4.91,4.63s1.91,4.54,4.91,4.54h20.98c-2.45-6.18-6.45-9.18-12.26-9.18"/>
    <path class="st3" d="M1108.11,639.15l-1.73-6.81c-2.09-8.36-6.27-12.26-13.08-12.26h-.91c.55,1.54,1.09,3.27,1.45,5.18l2.27,11.17c.54,2.73,1.27,7.99,3,9.72h12.26c-1.36-1.18-2.36-3.36-3.27-6.99"/>
    <path class="st3" d="M1060.87,615.53c-3.09,1.46-5.72,5.45-5.72,10.27v20.35h11.36v-20.35c0-4.82-2.54-8.9-5.63-10.27"/>
    <path class="st3" d="M1136.1,605.35c-3.09-.91-6.36-3.45-6.36-7.9,0-6.63,6.72-8.45,11.9-8.45,8.18,0,13.45,3.18,13.99,11.45h11.35c0-13.54-11.35-20.62-24.89-20.62-12.54,0-23.71,6.45-23.71,18.99,0,9.18,5.91,14.17,14.9,16.63,4.45,1.18,8.63-.09,10.63-2.54-.55-3.09-3.45-6.27-7.81-7.54"/>
    <path class="st3" d="M1154.26,610.26c-4.18-1-8.45.09-10.36,2.63.45,3.09,3.36,6.27,8.18,7.72,3.09.91,5.36,3.45,5.36,7.99,0,6.9-6.72,9.81-13.72,9.81-9.45,0-16.44-4.27-16.44-13.9h-11.35c.36,15.54,11.54,23.17,27.07,23.17,13.81,0,25.8-6.45,25.8-20.35,0-8.36-5.27-14.63-14.54-17.08"/>
    <path class="st3" d="M759.64,537.63c0,2.54,2.09,4.63,4.63,4.63h29.98v-9.27h-29.98c-2.54,0-4.63,2.09-4.63,4.63"/>
    <path class="st3" d="M759.64,527.27v-12.36h37.25v-9.81h-48.6v22.17c0,4.99,2.54,8.99,5.72,10.36,3.09-1.36,5.63-5.36,5.63-10.36"/>
    <path class="st3" d="M759.64,547.9c0-4.81-2.54-8.81-5.63-10.27-3.09,1.45-5.72,5.45-5.72,10.27v22.17h49.51v-9.81h-38.16v-12.35Z"/>
    <path class="st3" d="M809.15,554.62l-5.91,15.44h11.72l4.18-11.72c1.54-4.27.54-8.72-1.73-11.08-3.18.18-6.63,3.09-8.27,7.36"/>
    <path class="st3" d="M852.05,536.09l-11.88-30.98h-12.06l-11.79,30.98c-1.54,4-1.18,8.9,1.09,11.17,3.35-.18,6.89-3.45,8.34-7.63l8.16-23.35h.27l8.16,23.35c1.45,4.18,4.8,7.45,8.34,7.63,2.45-2.27,2.9-7.18,1.36-11.17"/>
    <path class="st3" d="M850.76,547.26c-2.45,2.36-3.45,6.81-1.91,11.08l4.18,11.72h12.17l-5.91-15.44c-1.64-4.27-5.18-7.18-8.54-7.36"/>
    <path class="st3" d="M841.04,546.08h-13.9c-2.45,0-4.36,1.91-4.36,4.36s1.91,4.27,4.36,4.27h13.9c2.36,0,4.36-1.91,4.36-4.27s-2-4.36-4.36-4.36"/>
    <path class="st3" d="M909.27,543.99h-.91c.54,1.54,1.09,3.27,1.45,5.18l2.27,11.17c.54,2.73,1.27,7.99,3,9.72h12.26c-1.36-1.18-2.36-3.36-3.27-6.99l-1.73-6.81c-2.09-8.36-6.27-12.26-13.08-12.26"/>
    <path class="st3" d="M882.47,549.71c0-4.82-2.54-8.9-5.63-10.27-3.09,1.45-5.72,5.45-5.72,10.27v20.35h11.36v-20.35Z"/>
    <path class="st3" d="M882.47,529.09v-14.72h16.9c8.36,0,13.17,2.73,13.17,10.45,0,6.27-3.73,8.54-3.73,11.99,0,2.45,1.91,4.45,4.45,4.45,5.54,0,10.72-9.45,10.72-17.08,0-13.44-9.36-19.08-22.8-19.08h-30.07v23.98c0,5,2.54,8.9,5.72,10.36,3.09-1.36,5.63-5.36,5.63-10.36"/>
    <path class="st3" d="M896.09,534.81h-8.72c-3,0-4.9,2.27-4.9,4.63s1.91,4.54,4.9,4.54h20.98c-2.45-6.18-6.45-9.18-12.26-9.18"/>
    <path class="st3" d="M946.42,527.27v-22.17h-11.35v22.17c0,5,2.54,8.99,5.72,10.36,3.09-1.36,5.63-5.36,5.63-10.36"/>
    <path class="st3" d="M979.4,560.25h-32.98v-12.36c0-4.82-2.54-8.81-5.63-10.27-3.09,1.45-5.72,5.45-5.72,10.27v22.17h44.33v-9.81Z"/>
    <path class="st3" d="M1015.74,524.18l11.81-19.08h-12.72l-16.9,29.07-17.17-29.07h-13.17l11.81,19.08c5.27,8.45,10.26,12.54,18.26,14.99,7.99-2.45,12.9-6.54,18.08-14.99"/>
    <path class="st3" d="M991.94,549.44v20.62h11.36v-20.62c0-4.81-2.54-8.9-5.63-10.26-3.09,1.45-5.72,5.45-5.72,10.26"/>
    <path class="st3" d="M1041.09,547.47c-4,0-7.18,3.18-7.18,7.09s3.18,7.18,7.18,7.18,7.09-3.18,7.09-7.18-3.18-7.09-7.09-7.09"/>
    <path class="st3" d="M1041.09,515.68c-4,0-7.18,3.18-7.18,7.09s3.18,7.18,7.18,7.18,7.09-3.18,7.09-7.18-3.18-7.09-7.09-7.09"/>
    <path class="st3" d="M278.38,576.44c0,2.5,2.05,4.55,4.55,4.55h29.46v-9.11h-29.46c-2.5,0-4.55,2.05-4.55,4.55"/>
    <path class="st3" d="M278.38,586.53c0-4.73-2.5-8.66-5.54-10.09-3.04,1.43-5.62,5.36-5.62,10.09v21.79h48.66v-9.64h-37.5v-12.14Z"/>
    <path class="st3" d="M278.38,566.26v-12.14h36.61v-9.64h-47.77v21.79c0,4.91,2.5,8.84,5.62,10.18,3.04-1.34,5.54-5.27,5.54-10.18"/>
    <path class="st3" d="M330.97,586.11c-3.93,0-7.05,3.12-7.05,6.96s3.13,7.05,7.05,7.05,6.96-3.12,6.96-7.05-3.12-6.96-6.96-6.96"/>
    <path class="st3" d="M330.97,554.86c-3.93,0-7.05,3.13-7.05,6.96s3.13,7.05,7.05,7.05,6.96-3.12,6.96-7.05-3.12-6.96-6.96-6.96"/>
    <path class="st3" d="M351.95,576.44c-2.95,1.43-5.54,5.36-5.54,10.09v21.79h11.07v-21.79c0-4.73-2.5-8.66-5.54-10.09"/>
    <path class="st3" d="M395.08,566.26v-21.79h-10.98v21.79c0,4.82,2.32,8.75,5.45,10.27l.09-.09c3.04-1.34,5.45-5.27,5.45-10.18"/>
    <path class="st3" d="M384.1,586.53v21.79h10.98v-21.79c0-4.73-2.41-8.66-5.44-10h-.09c-3.04,1.43-5.45,5.35-5.45,10"/>
    <path class="st3" d="M357.49,566.26v-21.79h-11.07v21.79c0,4.91,2.5,8.84,5.54,10.18,3.04-1.34,5.54-5.27,5.54-10.18"/>
    <path class="st3" d="M379.54,571.89h-17.59c-2.41,0-4.46,2.05-4.46,4.55s2.05,4.55,4.46,4.55h17.59c2.5,0,4.55-2.06,4.55-4.55s-2.05-4.55-4.55-4.55"/>
    <path class="st3" d="M778.26,232.15h-10.18c-1.87,5.51-5.69,8.31-11.67,8.31-6.63,0-10.55-4.02-12.23-9.9-.93-3.36-2.71-5.88-5.51-7.19-3.08-1.59-4.29-4.29-4.29-7.28.09-9.15,8.96-17.92,22.22-17.92,15.31,0,22.5,12.23,22.5,23.53,0,2.52-.47,4.95-.65,5.7h-29.59c-2.24,0-4.02-1.68-4.02-3.92s1.87-4.01,4.02-4.01h19.88c0-7.19-5.04-12.7-11.95-12.7s-10.92,3.73-12.6,9.62c-.93,3.36-2.71,5.7-5.51,7-2.89,1.49-4.29,4.11-4.29,7.1,0,9.9,9.34,18.58,22.03,18.58,11.3,0,20.07-6.54,21.85-16.9"/>
    <path class="st3" d="M819.81,247.64h10.27v-14.56c0-4.67-2.33-8.4-5.32-9.71-2.24,1.03-4.01,3.55-4.85,6.72-1.68,6.63-6.16,10.17-12.04,10.36-6.35.19-10.92-4.2-12.23-10.08-.75-3.36-2.61-5.97-5.04-7-3.36,1.4-4.85,4.57-4.85,8.12,0,9.52,9.24,17.55,18.77,17.55,7.93,0,13.26-4.2,15.03-8.12h.28v6.72ZM819.81,199.56h10.27v14.1c0,4.67-2.33,8.4-5.32,9.71-2.24-1.03-4.01-3.55-4.85-6.72-1.68-6.35-6.16-9.71-12.04-9.89-6.35-.19-10.92,3.73-12.23,9.61-.75,3.36-2.61,5.97-5.04,7-3.36-1.4-4.85-4.58-4.85-8.12,0-9.52,9.24-17.08,18.77-17.08,7.93,0,13.26,4.2,15.03,8.12h.28v-6.72Z"/>
    <path class="st3" d="M838.48,213.66c0,4.67,2.33,8.4,5.32,9.71,2.99,1.31,5.32,5.04,5.32,9.62v14.66h-10.64v-14.66c0-4.57,2.43-8.31,5.32-9.62,2.99-1.31,5.32-5.04,5.32-9.71v-4.29c0-.28,0-.56.09-.93.75-4.95,6.82-10.27,13.63-10.27,1.59,0,3.08.19,3.92.47v9.8h-18.02v-8.87h-10.27v14.1Z"/>
    <path class="st3" d="M883.01,247.64v-14.66c0-4.58-2.33-8.31-5.32-9.62-2.89,1.31-5.32,5.04-5.32,9.62v14.66h10.64ZM872.37,180.99h10.64v32.67c0,4.67-2.33,8.4-5.32,9.71-2.99-1.31-5.32-5.04-5.32-9.71v-32.67Z"/>
    <path class="st3" d="M917.74,266.31v-11.86c0-4.95-2.05-9.61-5.41-10.55-3.36,1.03-5.42,5.6-5.42,10.55v11.86h10.83ZM888.15,199.56h11.39l12.7,39.96,12.32-39.96h10.83l-10.92,32.67c-2.05,6.26-5.23,9.62-12.14,11.67-7.28-2.05-10.74-5.41-12.88-11.67l-11.3-32.67Z"/>
    <path class="st3" d="M937.72,239.89c0-4.01,3.27-7.28,7.38-7.28s7.28,3.27,7.28,7.28-3.27,7.38-7.28,7.38-7.38-3.27-7.38-7.38M937.72,207.22c0-4.01,3.27-7.28,7.38-7.28s7.28,3.27,7.28,7.28-3.27,7.38-7.28,7.38-7.38-3.27-7.38-7.38"/>
    <path class="st3" d="M1000.36,247.64v-14.66c0-4.58-2.33-8.31-5.32-9.62-2.89,1.31-5.32,5.04-5.32,9.62v14.66h10.64ZM968.62,247.64v-14.66c0-4.58-2.33-8.31-5.32-9.62-2.89,1.31-5.32,5.04-5.32,9.62v14.66h10.64ZM983.19,198.16c5.51,0,9.52,1.68,12.42,4.85,3.17,3.36,4.57,8.4,4.57,11.67,0,4.01-2.15,7.38-5.13,8.68-2.61-1.12-4.67-4.02-5.23-7.84-.75-5.13-3.83-8.78-10.74-8.78-5.98,0-9.52,4.11-10.55,9.34-.65,3.46-2.8,6.26-5.23,7.28-2.99-1.31-5.32-5.04-5.32-9.71v-32.77h10.64v18.67c0,3.17-.09,4.48-.19,6.72h.19c3.55-5.98,9.15-8.12,14.56-8.12"/>
    <path class="st3" d="M1045.83,243.91c6.63-5.6,10.18-16.71,2.43-20.54-2.8,1.31-4.57,3.83-5.51,7.19-1.68,5.88-5.69,9.9-12.6,9.9s-10.92-4.02-12.6-9.9c-.93-3.36-2.71-5.88-5.51-7.19-7.75,3.83-4.2,14.94,2.43,20.54,3.83,3.27,9.52,5.14,15.68,5.14s11.86-1.87,15.68-5.14M1014.37,203.21c3.92-3.36,9.61-5.04,15.78-5.04s11.86,1.68,15.78,5.04c6.54,5.51,10.08,16.34,2.33,20.16-2.8-1.31-4.57-3.64-5.51-7-1.68-5.88-5.69-9.62-12.6-9.62s-10.92,3.73-12.6,9.62c-.93,3.36-2.71,5.69-5.51,7-7.75-3.83-4.2-14.66,2.33-20.16"/>
    <path class="st3" d="M1091.67,213.75v-14.19h10.64v14.19c0,4.57-2.43,8.31-5.32,9.61-2.99-1.31-5.32-5.04-5.32-9.61M1091.67,240.92h.19c-.09,2.24-.19,3.55-.19,6.54v.19h10.64v-14.56c0-4.67-2.34-8.4-5.32-9.71-2.43,1.03-4.48,3.92-5.23,7.75-1.03,5.32-4.57,9.34-10.55,9.34-6.91,0-9.99-3.64-10.74-8.78-.65-4.2-2.61-7.19-5.23-8.31-2.99,1.31-5.14,4.67-5.14,9.15,0,3.27,1.4,8.31,4.57,11.67,2.8,3.08,6.91,4.85,12.42,4.85s11.02-2.15,14.56-8.12M1059.93,213.75v-14.19h10.64v14.19c0,4.57-2.43,8.31-5.32,9.61-2.99-1.31-5.32-5.04-5.32-9.61"/>
    <path class="st3" d="M1110.72,213.66c0,4.67,2.33,8.4,5.32,9.71,2.99,1.31,5.32,5.04,5.32,9.62v14.66h-10.64v-14.66c0-4.57,2.43-8.31,5.32-9.62,2.99-1.31,5.32-5.04,5.32-9.71v-4.29c0-.28,0-.56.09-.93.75-4.95,6.82-10.27,13.63-10.27,1.59,0,3.08.19,3.92.47v9.8h-18.02v-8.87h-10.27v14.1Z"/>
    <path class="st3" d="M1153.66,225.05c3.45.84,6.81-.19,8.49-2.43-.37-2.33-2.33-4.67-5.23-5.79-2.52-1.03-4.85-2.33-4.85-5.41,0-4.29,5.04-5.41,8.87-5.41,5.97,0,9.24,2.05,9.99,7.1h10.27c-.84-9.62-8.5-15.03-19.7-15.03-9.71,0-19.23,4.2-19.23,14,0,7.47,4.67,11.2,11.39,12.98M1140.87,231.96h9.9c.37,6.16,4.67,9.15,11.48,9.15,4.57,0,10.55-1.21,10.55-6.72-.09-2.89-1.87-4.67-4.76-5.6-3.17-1.12-5.51-3.55-5.88-6.16,1.59-2.24,4.95-3.17,8.21-2.33,7.84,2.05,12.32,6.07,12.32,13.07,0,10.36-9.52,15.59-20.82,15.59-11.86,0-20.91-5.51-21.01-16.99"/>
  </g>
  <path class="st1" d="M640,736.08V63.92M44.09,400h1191.83"/>
</svg>