<?xml version="1.0" encoding="UTF-8"?>
<svg id="Layer_1" xmlns="http://www.w3.org/2000/svg" version="1.1" viewBox="0 0 1280 800">
  <!-- Generator: Adobe Illustrator 29.8.2, SVG Export Plug-In . SVG Version: 2.1.1 Build 3)  -->
  <defs>
    <style>
      .st0 {
        fill: #fbfbfb;
      }
    </style>
  </defs>
  <rect class="st0" width="1280" height="800"/>
  <g>
    <path d="M107.01,209.42h38.09c11.02,0,20.84-2.28,29.46-6.83,8.62-4.55,15.33-10.86,20.12-18.92,4.79-8.06,7.19-17.13,7.19-27.19s-2.4-19.64-7.19-27.79-11.5-14.49-20.12-19.04c-8.62-4.55-18.45-6.83-29.46-6.83h-63.96v167.69h25.87v-61.09ZM146.06,123.66c7.19,0,12.82.8,16.89,2.4,4.07,1.6,6.98,4.31,8.74,8.15,1.76,3.83,2.64,9.1,2.64,15.81.16,4.15.16,8.23,0,12.22,0,6.71-.88,11.98-2.64,15.81-1.76,3.83-4.67,6.55-8.74,8.14-4.07,1.6-9.7,2.4-16.89,2.4h-39.05v-64.92h39.05Z"/>
    <path d="M250.71,228.11h59.57l13.04,42.4h25.63l-52.22-167.69h-30.9l-53.42,167.69h25.15l13.15-42.4ZM266.31,177.8c5.75-18.21,10.14-34.5,13.17-48.87h2.16c1.28,6.71,2.79,13.18,4.55,19.4,1.28,4.95,2.64,9.9,4.07,14.85,1.44,4.95,2.95,9.82,4.55,14.61l8.99,29.23h-46.55l9.06-29.23Z"/>
    <path d="M452.56,245.11c-4.55,3.83-12.1,5.75-22.64,5.75h-6.71c-8.47,0-15.05-1.32-19.76-3.95-4.71-2.63-8.07-6.62-10.06-11.98-2-5.35-3.16-12.42-3.47-21.2h-26.35c.32,11.34,3.15,21.52,8.5,30.54,5.35,9.02,12.65,16.09,21.92,21.2,9.26,5.11,19.88,7.67,31.86,7.67,11.18,0,21.4-2.24,30.66-6.71,9.26-4.47,16.61-10.78,22.04-18.92,5.43-8.15,8.14-17.49,8.14-28.03,0-12.3-3.95-22.16-11.86-29.58-7.9-7.43-19.21-12.42-33.9-14.97l-23-4.07c-8.95-1.59-15.25-4.07-18.92-7.43-3.68-3.35-5.51-8.62-5.51-15.81v-2.87c0-7.82,2.11-13.49,6.35-17.01,4.23-3.51,11.06-5.27,20.48-5.27h6.23c8.14,0,14.37,1.08,18.69,3.23,4.31,2.16,7.38,5.55,9.22,10.18,1.83,4.63,2.91,11.02,3.23,19.16h26.11c-.32-10.54-3.04-20-8.15-28.39-5.11-8.38-12.14-14.89-21.08-19.52-8.95-4.63-19.01-6.95-30.18-6.95-10.22,0-19.64,2.08-28.27,6.23-8.62,4.15-15.49,10.02-20.6,17.61-5.11,7.59-7.67,16.33-7.67,26.23,0,11.82,3.87,21.48,11.62,28.99,7.74,7.51,18.48,12.54,32.22,15.09l21.56,3.83c9.74,1.76,16.53,4.47,20.36,8.15,3.83,3.68,5.75,9.34,5.75,17.01v2.87c0,8.78-2.28,15.09-6.83,18.92Z"/>
    <path d="M618.56,189.9c-7.9-7.43-19.21-12.42-33.9-14.97l-23-4.07c-8.95-1.59-15.25-4.07-18.92-7.43-3.68-3.35-5.51-8.62-5.51-15.81v-2.87c0-7.82,2.11-13.49,6.35-17.01,4.23-3.51,11.06-5.27,20.48-5.27h6.23c8.14,0,14.37,1.08,18.69,3.23,4.31,2.16,7.38,5.55,9.22,10.18,1.83,4.63,2.91,11.02,3.23,19.16h26.11c-.32-10.54-3.04-20-8.15-28.39-5.11-8.38-12.14-14.89-21.08-19.52-8.95-4.63-19.01-6.95-30.18-6.95-10.22,0-19.64,2.08-28.27,6.23-8.62,4.15-15.49,10.02-20.6,17.61-5.11,7.59-7.67,16.33-7.67,26.23,0,11.82,3.87,21.48,11.62,28.99,7.74,7.51,18.48,12.54,32.22,15.09l21.56,3.83c9.74,1.76,16.53,4.47,20.36,8.15,3.83,3.68,5.75,9.34,5.75,17.01v2.87c0,8.78-2.28,15.09-6.83,18.92-4.55,3.83-12.1,5.75-22.64,5.75h-6.71c-8.47,0-15.05-1.32-19.76-3.95-4.71-2.63-8.07-6.62-10.06-11.98-2-5.35-3.16-12.42-3.47-21.2h-26.35c.32,11.34,3.15,21.52,8.5,30.54,5.35,9.02,12.65,16.09,21.92,21.2,9.26,5.11,19.88,7.67,31.86,7.67,11.18,0,21.4-2.24,30.66-6.71,9.26-4.47,16.61-10.78,22.04-18.92,5.43-8.15,8.14-17.49,8.14-28.03,0-12.3-3.95-22.16-11.86-29.58Z"/>
    <path d="M694.86,270.51l16.35-127.68h2.19l15.24,127.68h31.86l17.73-167.69h-21.56l-12.94,141.57h-1.92c0-1.76-.16-4.23-.48-7.43-.16-7.03-.52-14.05-1.08-21.08-.56-7.03-1.32-13.81-2.28-20.36l-9.82-75.46h-30.9l-10.54,75.46c-1.6,11.02-2.87,25.31-3.83,42.88-.16,2.56-.24,4.55-.24,5.99h-2.16l-12.22-141.57h-22.28l17.01,167.69h31.86Z"/>
    <path d="M855.83,273.14c13.09,0,24.19-3.27,33.3-9.82,9.1-6.55,16.09-16.25,20.96-29.11,4.87-12.85,7.31-28.7,7.31-47.55,0-28.27-5.35-49.74-16.05-64.44-10.7-14.69-25.87-22.04-45.51-22.04-13.1,0-24.28,3.32-33.54,9.94-9.26,6.63-16.33,16.37-21.2,29.23-4.87,12.86-7.31,28.63-7.31,47.31,0,28.11,5.43,49.55,16.29,64.32,10.86,14.77,26.11,22.16,45.75,22.16ZM822.29,171.57c.16-3.19.24-6.15.24-8.86.32-10.54,1.64-18.64,3.95-24.31,2.31-5.67,5.59-9.62,9.82-11.86,4.23-2.23,9.94-3.35,17.13-3.35h4.31c7.19,0,12.89,1.12,17.13,3.35,4.23,2.24,7.5,6.19,9.82,11.86,2.31,5.67,3.63,13.77,3.95,24.31.48,12.3.56,25.31.24,39.05,0,3.04-.08,5.99-.24,8.86-.32,10.54-1.64,18.65-3.95,24.31-2.32,5.67-5.59,9.62-9.82,11.86-4.23,2.24-9.94,3.35-17.13,3.35h-4.31c-7.19,0-12.94-1.12-17.25-3.35-4.31-2.23-7.59-6.19-9.82-11.86-2.24-5.67-3.51-13.77-3.83-24.31-.48-12.3-.56-25.31-.24-39.05Z"/>
    <path d="M969.62,203.19h35.45c10.06,0,17.25,1.92,21.56,5.75,4.31,3.83,6.47,10.38,6.47,19.64v41.92h25.63v-41.92c0-11.34-2.56-19.76-7.67-25.27-4.2-4.53-10.67-7.68-19.4-9.46v-2.04c4.36-1.28,8.35-3.15,11.98-5.63,5.59-3.83,9.9-8.82,12.94-14.97,3.03-6.15,4.55-12.89,4.55-20.24,0-9.74-2.52-18.24-7.55-25.51-5.03-7.27-12.02-12.85-20.96-16.77-8.95-3.91-19.01-5.87-30.18-5.87h-58.93v167.69h26.11v-67.31ZM1006.99,123.66c6.55,0,11.74.72,15.57,2.16,3.83,1.44,6.55,3.87,8.14,7.31,1.59,3.44,2.47,8.26,2.63,14.49v10.54c-.16,6.23-1.04,11.1-2.63,14.61-1.6,3.51-4.27,5.99-8.03,7.43-3.75,1.44-8.98,2.16-15.69,2.16h-37.37v-58.69h37.37Z"/>
    <path d="M1177.9,260.33c9.5-6.79,16.45-16.37,20.84-28.75,4.39-12.37,6.59-27.35,6.59-44.92,0-26.99-5.23-47.71-15.69-62.16-10.46-14.45-26.55-21.68-48.27-21.68h-53.42v167.69h53.9c14.53,0,26.55-3.39,36.05-10.18ZM1114.06,249.67v-126h26.11c8.62,0,15.45,1.04,20.48,3.11,5.03,2.08,8.94,5.99,11.74,11.74,2.79,5.75,4.27,14.06,4.43,24.91.48,15.49.48,30.98,0,46.47-.16,10.86-1.64,19.16-4.43,24.91-2.8,5.75-6.71,9.66-11.74,11.74-5.03,2.08-11.86,3.11-20.48,3.11h-26.11Z"/>
    <polygon points="171.87 597.97 114.38 597.97 127.13 525.39 100.78 525.39 71.08 693.07 97.67 693.07 110.67 619.05 168.17 619.05 155.16 693.07 181.51 693.07 210.97 525.39 184.62 525.39 171.87 597.97"/>
    <polygon points="265.11 525.39 248.82 525.39 219.12 693.07 235.65 693.07 245.47 693.07 331.23 693.07 334.82 672.23 249.13 672.23 258.47 619.05 333.38 619.05 337.22 597.97 262.18 597.97 271.27 546.23 353.5 546.23 357.1 525.39 274.93 525.39 265.11 525.39"/>
    <path d="M384.4,525.39l-8.38,47.43h22.04l4.55-26.59h72.34l-.05,2.25c-20.11,17.39-36.98,37.56-50.62,60.51-14.61,24.59-25.43,52.62-32.46,84.08h26.83c6.55-30.02,16.53-56.45,29.94-79.29,13.41-22.84,31.62-43.84,54.62-63l4.31-25.39h-123.13Z"/>
    <polygon points="563.59 525.39 537 525.39 507.29 693.07 619.16 693.07 622.75 672.23 537.7 672.23 563.59 525.39"/>
    <path d="M729.35,522.75c-18.53,0-33.58,5.91-45.16,17.73-11.58,11.82-19.85,26.07-24.79,42.76-4.95,16.69-7.43,32.94-7.43,48.75,0,20.76,4.47,36.57,13.42,47.43,8.94,10.86,21.72,16.29,38.33,16.29,18.21,0,33.06-5.83,44.56-17.49,11.5-11.66,19.76-25.83,24.79-42.52,5.03-16.69,7.55-33.1,7.55-49.23,0-20.76-4.43-36.57-13.3-47.43-8.86-10.86-21.52-16.29-37.97-16.29ZM687.19,584.32c2.23-10.54,4.83-18.6,7.79-24.19,2.95-5.59,6.75-9.46,11.38-11.62,4.63-2.16,10.62-3.23,17.97-3.23h4.31c7.5,0,13.37,1.12,17.61,3.35,4.23,2.24,7.03,6.35,8.38,12.34.08.35.15.7.22,1.07l-76.61,69.08c2.52-16.13,5.51-31.73,8.96-46.79ZM745.4,634.14c-2.24,10.54-4.83,18.61-7.79,24.2-2.96,5.59-6.75,9.46-11.38,11.62-4.63,2.16-10.62,3.23-17.97,3.23h-4.31c-7.51,0-13.34-1.16-17.49-3.47-4.15-2.31-6.99-6.47-8.5-12.46-.1-.39-.19-.8-.28-1.21l76.47-68.95c-2.38,15.3-5.3,30.97-8.76,47.05Z"/>
    <path d="M858.95,620.25h-1.92l-8.86-94.86h-33.06l-29.46,167.68h22.28l15.57-93.9c2.71-16.29,4.95-32.66,6.71-49.11h1.92l9.34,93.9h25.39l40.72-93.9h1.92c-4.31,18.37-7.75,34.74-10.3,49.11l-17.73,93.9h23l29.46-167.68h-34.5l-40.48,94.86Z"/>
    <path d="M1056.93,590.42c6.31-7.26,9.46-15.69,9.46-25.27,0-7.67-2.36-14.73-7.07-21.2-4.71-6.47-11.02-11.58-18.92-15.33-7.91-3.75-16.73-5.63-26.47-5.63-10.22,0-19.64,2.2-28.27,6.59-8.62,4.39-15.77,10.66-21.44,18.8-5.67,8.15-9.46,17.81-11.38,28.99h26.83c1.44-8.78,3.27-15.37,5.51-19.76,2.23-4.39,5.27-7.38,9.1-8.98,3.83-1.59,9.1-2.4,15.81-2.4h4.55c7.19,0,12.61.8,16.29,2.4,3.67,1.6,5.99,4.31,6.95,8.14s.88,9.19-.24,16.05c-1.28,6.55-2.96,11.5-5.03,14.85-2.08,3.35-4.95,5.63-8.62,6.83-3.68,1.2-8.86,1.88-15.57,2.04l-17.25.24-3.83,21.32,17.25.24c7.98.16,13.85,1.04,17.61,2.63,3.75,1.6,6.19,4.23,7.31,7.91,1.12,3.68,1.04,9.1-.24,16.29-1.12,7.51-2.92,13.22-5.39,17.13-2.48,3.92-5.79,6.59-9.94,8.03-4.15,1.44-9.82,2.16-17.01,2.16h-4.55c-7.67,0-13.65-.92-17.97-2.75-4.31-1.83-7.19-5.27-8.62-10.3-1.44-5.03-1.28-12.34.48-21.92h-27.07c-1.12,11.34.4,21.44,4.55,30.3,4.15,8.86,10.58,15.73,19.28,20.6,8.7,4.87,19.04,7.31,31.02,7.31s22.56-2.36,32.22-7.07c9.66-4.71,17.33-11.06,23-19.04,5.67-7.98,8.5-16.85,8.5-26.59,0-8.78-2.32-16.13-6.95-22.04-4.63-5.91-10.78-10.06-18.45-12.46v-1.92c10.06-3.51,18.24-8.9,24.55-16.17Z"/>
    <path d="M1176.11,608.51v-1.92c10.06-3.51,18.24-8.9,24.55-16.17,6.31-7.26,9.46-15.69,9.46-25.27,0-7.67-2.36-14.73-7.07-21.2-4.71-6.47-11.02-11.58-18.92-15.33-7.91-3.75-16.73-5.63-26.47-5.63-10.22,0-19.64,2.2-28.27,6.59-8.62,4.39-15.77,10.66-21.44,18.8-5.67,8.15-9.46,17.81-11.38,28.99h26.83c1.44-8.78,3.27-15.37,5.51-19.76,2.23-4.39,5.27-7.38,9.1-8.98,3.83-1.59,9.1-2.4,15.81-2.4h4.55c7.19,0,12.61.8,16.29,2.4,3.67,1.6,5.99,4.31,6.95,8.14s.88,9.19-.24,16.05c-1.28,6.55-2.96,11.5-5.03,14.85-2.08,3.35-4.95,5.63-8.62,6.83-3.68,1.2-8.86,1.88-15.57,2.04l-17.25.24-3.83,21.32,17.25.24c7.98.16,13.85,1.04,17.61,2.63,3.75,1.6,6.19,4.23,7.31,7.91,1.12,3.68,1.04,9.1-.24,16.29-1.12,7.51-2.92,13.22-5.39,17.13-2.48,3.92-5.79,6.59-9.94,8.03-4.15,1.44-9.82,2.16-17.01,2.16h-4.55c-7.67,0-13.65-.92-17.97-2.75-4.31-1.83-7.19-5.27-8.62-10.3-1.44-5.03-1.28-12.34.48-21.92h-27.07c-1.12,11.34.4,21.44,4.55,30.3,4.15,8.86,10.58,15.73,19.28,20.6,8.7,4.87,19.04,7.31,31.02,7.31s22.56-2.36,32.22-7.07c9.66-4.71,17.33-11.06,23-19.04,5.67-7.98,8.5-16.85,8.5-26.59,0-8.78-2.32-16.13-6.95-22.04-4.63-5.91-10.78-10.06-18.45-12.46Z"/>
    <polygon points="184.24 340.21 145.28 355.87 148.06 314.1 125.07 314.1 127.85 355.87 88.9 340.21 81.71 362.25 122.43 372.48 95.6 404.89 114.29 418.55 136.57 382.9 158.84 418.55 177.53 404.89 150.7 372.48 191.42 362.25 184.24 340.21"/>
    <polygon points="327.96 387.89 289.01 403.54 291.79 361.77 268.79 361.77 271.58 403.54 232.62 387.89 225.44 409.92 266.16 420.15 239.33 452.56 258.02 466.22 280.29 430.57 302.57 466.22 321.26 452.56 294.43 420.15 335.15 409.92 327.96 387.89"/>
    <polygon points="383.06 404.89 401.74 418.55 424.02 382.9 446.3 418.55 464.98 404.89 438.16 372.48 478.88 362.25 471.69 340.21 432.73 355.87 435.52 314.1 412.52 314.1 415.31 355.87 376.35 340.21 369.16 362.25 409.88 372.48 383.06 404.89"/>
    <polygon points="513.61 460.95 513.61 481.79 621.89 481.79 621.89 460.95 580.68 460.95 580.68 334.94 621.89 334.94 621.89 314.1 513.61 314.1 513.61 334.94 554.81 334.94 554.81 460.95 513.61 460.95"/>
    <path d="M739.62,456.4c-4.55,3.83-12.1,5.75-22.64,5.75h-6.71c-8.47,0-15.05-1.32-19.76-3.95-4.71-2.63-8.07-6.62-10.06-11.98-2-5.35-3.16-12.42-3.47-21.2h-26.35c.32,11.34,3.15,21.52,8.5,30.54,5.35,9.02,12.66,16.09,21.92,21.2,9.26,5.11,19.88,7.67,31.86,7.67,11.18,0,21.4-2.24,30.66-6.71,9.26-4.47,16.61-10.78,22.04-18.92,5.43-8.14,8.14-17.49,8.14-28.03,0-12.3-3.95-22.16-11.86-29.58-7.91-7.43-19.21-12.42-33.9-14.97l-23-4.07c-8.95-1.59-15.25-4.07-18.92-7.43-3.68-3.35-5.51-8.62-5.51-15.81v-2.87c0-7.82,2.12-13.49,6.35-17.01,4.23-3.51,11.06-5.27,20.48-5.27h6.23c8.15,0,14.37,1.08,18.69,3.23,4.31,2.16,7.38,5.55,9.22,10.18,1.83,4.63,2.91,11.02,3.23,19.16h26.11c-.32-10.54-3.04-20-8.14-28.39-5.11-8.38-12.14-14.89-21.08-19.52-8.95-4.63-19.01-6.95-30.18-6.95-10.22,0-19.64,2.08-28.27,6.23-8.62,4.15-15.49,10.02-20.6,17.61-5.11,7.59-7.67,16.33-7.67,26.23,0,11.82,3.87,21.48,11.62,28.99,7.74,7.51,18.48,12.54,32.22,15.09l21.56,3.83c9.74,1.76,16.53,4.47,20.36,8.15,3.83,3.67,5.75,9.34,5.75,17.01v2.87c0,8.79-2.28,15.09-6.83,18.92Z"/>
    <polygon points="902.87 387.89 863.92 403.54 866.7 361.77 843.71 361.77 846.49 403.54 807.53 387.89 800.35 409.92 841.07 420.15 814.24 452.56 832.93 466.22 855.2 430.57 877.48 466.22 896.17 452.56 869.34 420.15 910.06 409.92 902.87 387.89"/>
    <polygon points="1046.6 340.21 1007.65 355.87 1010.43 314.1 987.43 314.1 990.22 355.87 951.26 340.21 944.07 362.25 984.79 372.48 957.97 404.89 976.65 418.55 998.93 382.9 1021.21 418.55 1039.89 404.89 1013.07 372.48 1053.79 362.25 1046.6 340.21"/>
    <polygon points="1101.7 452.56 1120.38 466.22 1142.66 430.57 1164.94 466.22 1183.62 452.56 1156.8 420.15 1197.52 409.92 1190.33 387.89 1151.37 403.54 1154.16 361.77 1131.16 361.77 1133.95 403.54 1094.99 387.89 1087.8 409.92 1128.52 420.15 1101.7 452.56"/>
  </g>
</svg>