<?xml version="1.0" encoding="UTF-8"?>
<svg id="Layer_1" xmlns="http://www.w3.org/2000/svg" version="1.1" viewBox="0 0 1280 800">
  <!-- Generator: Adobe Illustrator 29.8.2, SVG Export Plug-In . SVG Version: 2.1.1 Build 3)  -->
  <defs>
    <style>
      .st0 {
        fill: #fbfbfb;
      }
    </style>
  </defs>
  <rect class="st0" width="1280" height="800"/>
  <g>
    <polygon points="111.48 192.73 158.87 192.73 158.87 181.25 111.48 181.25 111.48 151.95 152.93 151.95 152.93 140.33 111.48 140.33 111.48 111.82 156.89 111.82 156.89 100.33 111.48 100.33 106.2 100.33 97.22 100.33 97.22 192.73 106.2 192.73 111.48 192.73"/>
    <path d="M185.86,189.5c4.36,2.95,9.22,4.42,14.59,4.42,4.31,0,8.03-.9,11.15-2.71,3.12-1.8,5.61-4.2,7.46-7.19h1.06v8.71h13.73v-95.04h-13.86v37.09h-1.06c-1.85-2.81-4.29-5.08-7.33-6.8-3.04-1.72-6.71-2.57-11.02-2.57-5.37,0-10.23,1.47-14.59,4.42-4.36,2.95-7.79,7.04-10.3,12.28-2.51,5.24-3.76,11.07-3.76,17.49s1.23,12.39,3.7,17.62c2.46,5.24,5.87,9.33,10.23,12.28ZM186.98,153.53c.18-5.89,1.43-10.1,3.76-12.61,2.33-2.51,6.18-3.76,11.55-3.76h2.51c5.37,0,9.22,1.25,11.55,3.76,2.33,2.51,3.58,6.71,3.76,12.61.09,4.05.09,8.14,0,12.28-.18,5.9-1.43,10.1-3.76,12.61-2.33,2.51-6.18,3.76-11.55,3.76h-2.51c-5.37,0-9.22-1.25-11.55-3.76-2.33-2.51-3.59-6.71-3.76-12.61-.09-4.14-.09-8.23,0-12.28Z"/>
    <path d="M265.06,189.24c4.36,2.95,9.22,4.42,14.59,4.42,4.31,0,8.01-.88,11.09-2.64,3.08-1.76,5.54-4.09,7.39-7h1.06v9.77c0,3.87-.46,6.91-1.39,9.11-.92,2.2-2.6,3.81-5.02,4.82-2.42,1.01-5.96,1.52-10.63,1.52-3.52,0-6.32-.33-8.38-.99-2.07-.66-3.65-1.85-4.75-3.56-1.1-1.72-1.7-4.16-1.78-7.33h-14.52c.26,4.49,1.76,8.51,4.49,12.08,2.73,3.56,6.31,6.31,10.76,8.25,4.44,1.93,9.31,2.9,14.59,2.9,5.89,0,11.15-1.19,15.77-3.56,4.62-2.38,8.23-5.66,10.82-9.83,2.59-4.18,3.89-8.96,3.89-14.32v-66.26h-13.73v8.32h-1.06c-1.85-2.9-4.31-5.21-7.39-6.93-3.08-1.72-6.78-2.57-11.09-2.57-5.37,0-10.23,1.47-14.59,4.42-4.36,2.95-7.79,7.04-10.3,12.28-2.51,5.24-3.76,11.07-3.76,17.49s1.23,12.23,3.7,17.42c2.46,5.19,5.87,9.26,10.23,12.21ZM266.18,153.53c.18-5.89,1.43-10.1,3.76-12.61,2.33-2.51,6.18-3.76,11.55-3.76h2.51c5.37,0,9.22,1.25,11.55,3.76,2.33,2.51,3.58,6.71,3.76,12.61.18,4.05.18,8.1,0,12.14-.18,5.9-1.43,10.1-3.76,12.61-2.33,2.51-6.18,3.76-11.55,3.76h-2.51c-5.37,0-9.22-1.25-11.55-3.76-2.33-2.51-3.59-6.71-3.76-12.61-.09-4.05-.09-8.1,0-12.14Z"/>
    <path d="M346.77,189.9c4.8,2.86,10.23,4.29,16.3,4.29,5.19,0,9.97-1.04,14.32-3.1,4.36-2.07,7.96-4.93,10.82-8.58,2.86-3.65,4.64-7.72,5.35-12.21h-14.12c-.62,4.67-1.98,7.9-4.09,9.7-2.11,1.8-5.68,2.71-10.69,2.71h-2.9c-5.54,0-9.46-1.32-11.75-3.96-2.29-2.64-3.52-7.17-3.7-13.6-.01-.62-.01-1.23-.02-1.85h47.8c.79-7.04.13-13.46-1.98-19.27-2.11-5.81-5.63-10.41-10.56-13.79-4.93-3.39-11.04-5.08-18.35-5.08-6.25,0-11.77,1.45-16.57,4.36-4.8,2.9-8.49,7-11.09,12.28-2.6,5.28-3.89,11.22-3.89,17.82s1.32,12.8,3.96,18.08c2.64,5.28,6.36,9.35,11.15,12.21ZM350.07,140.33c2.33-2.46,6.22-3.7,11.68-3.7h3.04c5.37,0,9.19,1.23,11.48,3.7,2.29,2.46,3.43,6.65,3.43,12.54v.79h-33.4c0-.26,0-.53,0-.79.18-5.9,1.43-10.08,3.76-12.54Z"/>
    <path d="M521.6,194.19c6.51,0,12.19-1.47,17.03-4.42,4.84-2.95,8.69-7.24,11.55-12.87,2.86-5.63,4.42-12.32,4.69-20.06h-14.78c-.09,6.78-.62,11.88-1.58,15.31-.97,3.43-2.64,5.85-5.02,7.26-2.38,1.41-5.9,2.11-10.56,2.11h-2.51c-3.96,0-7.15-.61-9.57-1.85-2.42-1.23-4.29-3.41-5.61-6.53-1.32-3.12-2.07-7.59-2.24-13.4-.26-6.78-.31-13.95-.13-21.52.09-1.76.13-3.39.13-4.88.18-5.81.92-10.27,2.24-13.4,1.32-3.12,3.19-5.3,5.61-6.53,2.42-1.23,5.61-1.85,9.57-1.85h2.51c4.66,0,8.18.71,10.56,2.11,2.38,1.41,4.05,3.83,5.02,7.26.97,3.43,1.5,8.58,1.58,15.44h14.92c-.26-7.83-1.78-14.56-4.55-20.2-2.77-5.63-6.62-9.92-11.55-12.87-4.93-2.95-10.69-4.42-17.29-4.42-7.13,0-13.29,1.85-18.48,5.54-5.19,3.7-9.15,9.09-11.88,16.17-2.73,7.08-4.09,15.73-4.09,25.94,0,15.4,3.06,27.19,9.17,35.38,6.12,8.18,14.54,12.28,25.28,12.28Z"/>
    <path d="M583.9,189.83c4.75,2.9,10.16,4.36,16.24,4.36s11.53-1.45,16.37-4.36c4.84-2.9,8.65-6.97,11.42-12.21,2.77-5.23,4.16-11.24,4.16-18.02s-1.34-12.78-4.03-18.02c-2.69-5.23-6.4-9.28-11.15-12.14-4.75-2.86-10.16-4.29-16.24-4.29s-11.64,1.43-16.43,4.29c-4.8,2.86-8.58,6.91-11.35,12.14-2.77,5.24-4.16,11.24-4.16,18.02s1.34,12.78,4.03,18.02c2.68,5.24,6.4,9.31,11.15,12.21ZM583.77,153.4c.18-5.98,1.43-10.23,3.76-12.74,2.33-2.51,6.22-3.76,11.68-3.76h2.38c5.46,0,9.35,1.25,11.68,3.76,2.33,2.51,3.58,6.75,3.76,12.74.18,4.14.18,8.32,0,12.54-.18,5.9-1.43,10.12-3.76,12.67-2.33,2.55-6.23,3.83-11.68,3.83h-2.38c-5.46,0-9.35-1.27-11.68-3.83-2.33-2.55-3.59-6.78-3.76-12.67-.09-4.22-.09-8.4,0-12.54Z"/>
    <path d="M659.67,143.5c0-2.2.59-3.91,1.78-5.15,1.19-1.23,3.06-1.85,5.61-1.85s4.42.62,5.61,1.85c1.19,1.23,1.78,2.95,1.78,5.15v49.24h11.48v-49.24c0-2.2.59-3.91,1.78-5.15,1.19-1.23,3.1-1.85,5.74-1.85s4.51.59,5.61,1.78c1.1,1.19,1.65,2.93,1.65,5.21v49.24h12.41v-51.35c0-3.17-.57-5.98-1.72-8.45-1.14-2.46-2.79-4.38-4.95-5.74-2.16-1.36-4.69-2.05-7.59-2.05-3.35,0-6.25.88-8.71,2.64-1.82,1.3-3.26,3.06-4.31,5.28h-1.3c-.68-1.84-1.68-3.39-3.04-4.62-2.42-2.2-5.43-3.3-9.04-3.3-3.17,0-5.85.86-8.05,2.57-1.7,1.32-3.07,3.11-4.14,5.35h-1.27v-6.47h-11.88v66.13h12.54v-49.24Z"/>
    <path d="M743.49,184.42h1.06c1.85,2.9,4.27,5.21,7.26,6.93,2.99,1.72,6.6,2.57,10.82,2.57,5.37,0,10.21-1.47,14.52-4.42,4.31-2.95,7.7-7.04,10.16-12.28,2.46-5.23,3.7-11.11,3.7-17.62s-1.21-12.25-3.63-17.49c-2.42-5.23-5.79-9.33-10.1-12.28-4.31-2.95-9.15-4.42-14.52-4.42-4.22,0-7.88.9-10.96,2.71-3.08,1.8-5.54,4.2-7.39,7.19h-1.06v-8.71h-13.73v92.53h13.86v-34.72ZM743.36,153.53c.17-5.89,1.41-10.1,3.7-12.61,2.29-2.51,6.07-3.76,11.35-3.76h2.51c5.37,0,9.17,1.25,11.42,3.76,2.24,2.51,3.45,6.71,3.63,12.61.18,4.05.18,8.14,0,12.28-.18,5.9-1.39,10.1-3.63,12.61-2.24,2.51-6.05,3.76-11.42,3.76h-2.51c-5.28,0-9.06-1.25-11.35-3.76-2.29-2.51-3.52-6.71-3.7-12.61-.09-4.14-.09-8.23,0-12.28Z"/>
    <path d="M820.18,191.35c3.34,1.89,7.13,2.84,11.35,2.84,5.28,0,9.79-1.39,13.53-4.16,2.19-1.63,3.99-3.64,5.41-6.01h1.12v8.71h13.99v-66.13h-13.99v41.58c0,4.4-1.08,7.83-3.23,10.3-2.16,2.46-5.17,3.7-9.04,3.7h-3.7c-4.22,0-7.35-1.06-9.37-3.17-2.03-2.11-3.04-5.32-3.04-9.64v-42.77h-13.86v42.77c0,5.28.97,9.79,2.9,13.53,1.93,3.74,4.57,6.56,7.92,8.45Z"/>
    <path d="M904.13,169.77c0,4.84.94,8.98,2.84,12.41,1.89,3.43,4.62,6.05,8.18,7.85,3.56,1.8,7.81,2.71,12.74,2.71h20.59v-10.82h-22.97c-2.55,0-4.42-.64-5.61-1.91-1.19-1.27-1.78-3.28-1.78-6.01v-36.7h29.04v-10.69h-29.04v-20.99h-13.99v20.99h-20.72v10.69h20.72v32.47Z"/>
    <rect x="990.19" y="92.02" width="17.95" height="17.42"/>
    <polygon points="1006.69 126.6 970.39 126.6 970.39 137.29 992.83 137.29 992.83 181.91 967.62 181.91 967.62 192.73 1029.13 192.73 1029.13 181.91 1006.69 181.91 1006.69 126.6"/>
    <path d="M1061.73,151.15c0-4.4,1.1-7.83,3.3-10.3,2.2-2.46,5.32-3.7,9.37-3.7h3.7c4.31,0,7.48,1.06,9.5,3.17,2.02,2.11,3.04,5.28,3.04,9.5v42.9h13.99v-42.9c0-5.19-.99-9.66-2.97-13.4-1.98-3.74-4.67-6.55-8.05-8.45-3.39-1.89-7.19-2.84-11.42-2.84-5.37,0-9.97,1.39-13.79,4.16-2.25,1.63-4.07,3.64-5.48,6.01h-1.19v-8.71h-13.86v66.13h13.86v-41.58Z"/>
    <path d="M1136.25,189.24c4.36,2.95,9.22,4.42,14.59,4.42,4.31,0,8.01-.88,11.09-2.64,3.08-1.76,5.54-4.09,7.39-7h1.06v9.77c0,3.87-.46,6.91-1.39,9.11-.92,2.2-2.6,3.81-5.02,4.82-2.42,1.01-5.96,1.52-10.63,1.52-3.52,0-6.32-.33-8.38-.99-2.07-.66-3.65-1.85-4.75-3.56-1.1-1.72-1.7-4.16-1.78-7.33h-14.52c.26,4.49,1.76,8.51,4.49,12.08,2.73,3.56,6.31,6.31,10.76,8.25,4.44,1.93,9.31,2.9,14.59,2.9,5.89,0,11.15-1.19,15.77-3.56s8.23-5.66,10.82-9.83c2.59-4.18,3.89-8.96,3.89-14.32v-66.26h-13.73v8.32h-1.06c-1.85-2.9-4.31-5.21-7.39-6.93-3.08-1.72-6.78-2.57-11.09-2.57-5.37,0-10.23,1.47-14.59,4.42-4.36,2.95-7.79,7.04-10.3,12.28-2.51,5.24-3.76,11.07-3.76,17.49s1.23,12.23,3.7,17.42c2.46,5.19,5.87,9.26,10.23,12.21ZM1137.37,153.53c.18-5.89,1.43-10.1,3.76-12.61,2.33-2.51,6.18-3.76,11.55-3.76h2.51c5.37,0,9.22,1.25,11.55,3.76,2.33,2.51,3.58,6.71,3.76,12.61.18,4.05.18,8.1,0,12.14-.18,5.9-1.43,10.1-3.76,12.61-2.33,2.51-6.18,3.76-11.55,3.76h-2.51c-5.37,0-9.22-1.25-11.55-3.76-2.33-2.51-3.59-6.71-3.76-12.61-.09-4.05-.09-8.1,0-12.14Z"/>
    <path d="M104.75,318c5.02,2.82,10.91,4.22,17.69,4.22s12.94-1.37,18.48-4.09,9.94-6.47,13.2-11.22c3.25-4.75,4.88-9.99,4.88-15.71s-1.85-10.96-5.54-14.92c-3.7-3.96-8.8-6.6-15.31-7.92l-12.01-2.51c-4.75-.97-8.03-2.44-9.83-4.42-1.8-1.98-2.31-5.08-1.52-9.31l.26-1.58c.61-3.96,2.18-6.84,4.69-8.65,2.51-1.8,6.31-2.71,11.42-2.71h3.43c4.4,0,7.72.59,9.97,1.78s3.67,3.1,4.29,5.74c.61,2.64.66,6.12.13,10.43h14.39c.79-5.72,0-10.89-2.38-15.51-2.38-4.62-5.94-8.23-10.69-10.82-4.75-2.59-10.21-3.89-16.37-3.89s-11.93,1.3-17.03,3.89c-5.1,2.6-9.15,6.12-12.14,10.56-2.99,4.44-4.49,9.39-4.49,14.85,0,5.9,1.78,10.78,5.35,14.65,3.56,3.87,8.56,6.51,14.98,7.92l11.22,2.24c5.02,1.06,8.36,2.6,10.03,4.62,1.67,2.03,2.2,5.24,1.58,9.64l-.26,1.58c-.71,4.58-2.53,7.9-5.48,9.97-2.95,2.07-7.33,3.1-13.13,3.1h-3.7c-4.84,0-8.45-.73-10.82-2.18s-3.87-3.65-4.49-6.6c-.62-2.95-.62-6.84,0-11.68h-14.39c-.79,6.25.02,11.86,2.44,16.83,2.42,4.97,6.14,8.87,11.15,11.68Z"/>
    <path d="M193.03,276.81c1.01-3.34,2.53-6.03,4.58-8.04,2.42-2.38,5.61-3.56,9.57-3.56h3.7c4.31,0,7.37,1.1,9.17,3.3,1.8,2.2,2.22,5.54,1.25,10.03l-8.98,42.24h14.26l8.71-41.05c1.06-5.37.86-10.08-.59-14.12-1.45-4.05-3.85-7.13-7.19-9.24-3.35-2.11-7.22-3.17-11.62-3.17-4.75,0-9.04,1.28-12.87,3.83-2.14,1.43-4.06,3.24-5.78,5.41h-1.16l7.8-36.7h-14.12l-20.2,95.04h14.12l9.34-43.97Z"/>
    <path d="M261.5,318.33c3.56,2.42,7.63,3.63,12.21,3.63,3.87,0,7.35-.79,10.43-2.38,3.08-1.58,5.94-3.78,8.58-6.6h1.06l-1.58,7.79h13.99l13.99-66.13h-13.99l-1.98,9.5h-1.06c-1.76-3.25-4.18-5.85-7.26-7.79-3.08-1.93-6.91-2.9-11.48-2.9-6.34,0-12.14,1.89-17.42,5.68-5.28,3.78-9.44,8.82-12.47,15.11-3.04,6.29-4.55,12.87-4.55,19.73,0,5.28,1.03,10.05,3.1,14.32,2.07,4.27,4.88,7.61,8.45,10.03ZM264.6,292.66c.88-4.31,1.8-8.4,2.77-12.28,1.41-5.54,3.45-9.46,6.14-11.75,2.68-2.29,6.71-3.43,12.08-3.43h2.51c5.37,0,9,1.34,10.89,4.03,1.89,2.69,2.31,7.06,1.25,13.13-.71,4.05-1.58,8.14-2.64,12.28-1.32,5.63-3.32,9.64-6.01,12.01-2.69,2.38-6.58,3.56-11.68,3.56h-2.51c-5.54,0-9.33-1.36-11.35-4.09-2.03-2.73-2.51-7.21-1.45-13.46Z"/>
    <path d="M383.26,264.15h-1.06c-1.85-3.25-4.29-5.85-7.33-7.79-3.04-1.93-6.84-2.9-11.42-2.9-6.25,0-12.01,1.89-17.29,5.68-5.28,3.78-9.44,8.82-12.47,15.11-3.04,6.29-4.55,12.87-4.55,19.73,0,5.28,1.01,10.05,3.04,14.32,2.02,4.27,4.84,7.61,8.45,10.03,3.61,2.42,7.74,3.63,12.41,3.63,3.78,0,7.24-.79,10.36-2.38,3.12-1.58,6.05-3.83,8.78-6.73h1.06l-1.58,7.92h13.99l19.54-95.04h-14.26l-7.66,38.41ZM379.44,282.36c-.71,4.05-1.58,8.14-2.64,12.28-1.32,5.63-3.32,9.64-6.01,12.01-2.69,2.38-6.58,3.56-11.68,3.56h-2.51c-5.54,0-9.33-1.36-11.35-4.09-2.03-2.73-2.51-7.21-1.45-13.46.88-4.31,1.8-8.4,2.77-12.28,1.41-5.54,3.45-9.46,6.14-11.75,2.68-2.29,6.71-3.43,12.08-3.43h2.51c5.37,0,9,1.34,10.89,4.03,1.89,2.69,2.31,7.06,1.25,13.13Z"/>
    <path d="M422.27,318.66c4.18,2.38,9.04,3.56,14.59,3.56,7.04,0,13.42-1.89,19.14-5.68,5.72-3.78,10.27-8.82,13.66-15.11,3.39-6.29,5.08-12.91,5.08-19.87,0-5.63-1.12-10.58-3.37-14.85-2.24-4.27-5.44-7.59-9.57-9.97-4.14-2.38-8.98-3.56-14.52-3.56-7.04,0-13.46,1.87-19.27,5.61-5.81,3.74-10.38,8.73-13.73,14.98-3.35,6.25-5.02,12.94-5.02,20.06,0,5.54,1.12,10.47,3.37,14.78,2.24,4.31,5.46,7.66,9.64,10.03ZM423.92,292.92c.79-4.22,1.67-8.4,2.64-12.54,1.41-5.63,3.48-9.61,6.2-11.95,2.73-2.33,6.82-3.5,12.28-3.5h2.38c5.54,0,9.33,1.37,11.35,4.09,2.02,2.73,2.46,7.22,1.32,13.46-.71,4.14-1.58,8.32-2.64,12.54-1.41,5.54-3.48,9.5-6.2,11.88-2.73,2.38-6.82,3.56-12.28,3.56h-2.38c-5.63,0-9.44-1.36-11.42-4.09-1.98-2.73-2.4-7.21-1.25-13.46Z"/>
    <polygon points="533.35 308.63 532.16 308.63 533.87 264.41 517.37 264.41 501.93 308.63 500.74 308.63 502.19 254.64 490.05 254.64 489.92 320.77 507.34 320.77 523.05 275.23 524.11 275.23 522.39 320.77 539.68 320.77 565.16 254.64 552.62 254.64 533.35 308.63"/>
    <polygon points="671.02 228.37 662.04 228.37 645.68 320.77 654.78 320.77 660.2 320.77 707.45 320.77 709.43 309.29 662.21 309.29 667.36 279.99 708.64 279.99 710.75 268.37 669.4 268.37 674.41 239.86 719.73 239.86 721.71 228.37 676.43 228.37 671.02 228.37"/>
    <path d="M779,256.82c-4.22-2.42-9.15-3.63-14.78-3.63-6.95,0-13.33,1.87-19.14,5.61-5.81,3.74-10.34,8.73-13.6,14.98-3.26,6.25-4.88,12.89-4.88,19.93,0,5.54,1.1,10.49,3.3,14.85,2.2,4.36,5.39,7.72,9.57,10.1,4.18,2.38,9.04,3.56,14.59,3.56s11-1.17,15.84-3.5c4.84-2.33,8.93-5.61,12.28-9.83,3.34-4.22,5.72-9.06,7.13-14.52h-14.39c-1.06,4.22-2.33,7.48-3.83,9.77-1.5,2.29-3.41,3.92-5.74,4.88-2.33.97-5.35,1.45-9.04,1.45h-2.51c-5.63,0-9.44-1.36-11.42-4.09-1.98-2.73-2.4-7.21-1.25-13.46.79-4.22,1.67-8.4,2.64-12.54,1.41-5.72,3.45-9.72,6.14-12.01,2.68-2.29,6.8-3.43,12.34-3.43h2.51c3.52,0,6.29.48,8.32,1.45,2.02.97,3.37,2.62,4.03,4.95.66,2.33.68,5.57.07,9.7h14.39c.18-5.28-.81-10.03-2.97-14.26-2.16-4.22-5.35-7.54-9.57-9.97Z"/>
    <path d="M857.8,256.75c-4.14-2.38-8.98-3.56-14.52-3.56-7.04,0-13.46,1.87-19.27,5.61-5.81,3.74-10.38,8.73-13.73,14.98-3.35,6.25-5.02,12.94-5.02,20.06,0,5.54,1.12,10.47,3.37,14.78,2.24,4.31,5.46,7.66,9.64,10.03,4.18,2.38,9.04,3.56,14.59,3.56,7.04,0,13.42-1.89,19.14-5.68,5.72-3.78,10.27-8.82,13.66-15.11,3.39-6.29,5.08-12.91,5.08-19.87,0-5.63-1.12-10.58-3.37-14.85-2.24-4.27-5.43-7.59-9.57-9.97ZM856.08,282.49c-.71,4.14-1.58,8.32-2.64,12.54-1.41,5.54-3.48,9.5-6.2,11.88-2.73,2.38-6.82,3.56-12.28,3.56h-2.38c-5.63,0-9.44-1.36-11.42-4.09-1.98-2.73-2.4-7.21-1.25-13.46.79-4.22,1.67-8.4,2.64-12.54,1.41-5.63,3.47-9.61,6.2-11.95,2.73-2.33,6.82-3.5,12.28-3.5h2.38c5.54,0,9.33,1.37,11.35,4.09,2.02,2.73,2.46,7.22,1.32,13.46Z"/>
    <path d="M905.68,277.24c1-3.55,2.57-6.38,4.72-8.48,2.42-2.38,5.61-3.56,9.57-3.56h3.7c4.31,0,7.37,1.1,9.17,3.3,1.8,2.2,2.22,5.54,1.25,10.03l-8.98,42.24h14.26l8.58-40.92c1.14-5.37.99-10.08-.46-14.12-1.45-4.05-3.85-7.15-7.19-9.31-3.35-2.16-7.22-3.23-11.62-3.23-4.75,0-9.04,1.28-12.87,3.83-2.14,1.43-4.06,3.24-5.78,5.41h-1.22l1.65-7.79h-14.12l-13.99,66.13h14.12l9.21-43.53Z"/>
    <path d="M1016.2,256.75c-4.14-2.38-8.98-3.56-14.52-3.56-7.04,0-13.46,1.87-19.27,5.61-5.81,3.74-10.38,8.73-13.73,14.98-3.35,6.25-5.02,12.94-5.02,20.06,0,5.54,1.12,10.47,3.37,14.78,2.24,4.31,5.46,7.66,9.64,10.03,4.18,2.38,9.04,3.56,14.59,3.56,7.04,0,13.42-1.89,19.14-5.68,5.72-3.78,10.27-8.82,13.66-15.11,3.39-6.29,5.08-12.91,5.08-19.87,0-5.63-1.12-10.58-3.37-14.85-2.24-4.27-5.43-7.59-9.57-9.97ZM1014.48,282.49c-.71,4.14-1.58,8.32-2.64,12.54-1.41,5.54-3.48,9.5-6.2,11.88-2.73,2.38-6.82,3.56-12.28,3.56h-2.38c-5.63,0-9.44-1.36-11.42-4.09-1.98-2.73-2.4-7.21-1.25-13.46.79-4.22,1.67-8.4,2.64-12.54,1.41-5.63,3.47-9.61,6.2-11.95,2.73-2.33,6.82-3.5,12.28-3.5h2.38c5.54,0,9.33,1.37,11.35,4.09,2.02,2.73,2.46,7.22,1.32,13.46Z"/>
    <path d="M1059.21,271.44l.02.1c.44-2.29,1.32-4.03,2.64-5.21s3.21-1.78,5.68-1.78,4.36.62,5.41,1.85c1.06,1.23,1.32,2.95.79,5.15l-10.43,49.24h11.62l10.63-50.04c.48-1.88,1.28-3.37,2.43-4.41,1.32-1.19,3.3-1.78,5.94-1.78s4.44.62,5.41,1.85c.97,1.23,1.19,2.95.66,5.15l-10.43,49.24h12.67l10.82-51.08c.61-3.17.53-6.03-.26-8.58-.79-2.55-2.22-4.51-4.29-5.87-2.07-1.36-4.55-2.05-7.46-2.05-3.17,0-6.03.88-8.58,2.64-1.87,1.29-3.55,3.01-5.04,5.15h-1.45c-.39-1.73-1.17-3.21-2.35-4.42-2.2-2.24-5.15-3.37-8.84-3.37-2.99,0-5.61.81-7.85,2.44-1.73,1.25-3.34,3-4.83,5.21h-1.3l1.32-6.2h-12.14l-13.99,66.13h12.8l10.41-49.34Z"/>
    <path d="M1179.74,254.64l-27.85,49.37h-1.19l-7.39-49.37h-14.26l12.57,66.83-6.23,9.73c-1.14,1.93-2.38,3.28-3.7,4.03-1.32.75-3.04,1.12-5.15,1.12h-18.35l-2.38,10.82h15.44c6.95,0,12.58-1.37,16.9-4.09,4.31-2.73,8.4-7.39,12.28-13.99l44.22-74.45h-14.92Z"/>
    <polygon points="155.04 367.9 155.04 356.41 95.38 356.41 95.38 367.9 118.08 367.9 118.08 437.33 95.38 437.33 95.38 448.81 155.04 448.81 155.04 437.33 132.34 437.33 132.34 367.9 155.04 367.9"/>
    <path d="M233.45,448.81v-42.9c0-5.19-.99-9.66-2.97-13.4-1.98-3.74-4.67-6.55-8.05-8.45-3.39-1.89-7.19-2.84-11.42-2.84-5.37,0-9.97,1.39-13.79,4.16-2.25,1.63-4.06,3.64-5.48,6.01h-1.19v-8.71h-13.86v66.13h13.86v-41.58c0-4.4,1.1-7.83,3.3-10.3,2.2-2.46,5.32-3.7,9.37-3.7h3.7c4.31,0,7.48,1.06,9.5,3.17,2.02,2.11,3.04,5.28,3.04,9.5v42.9h13.99Z"/>
    <path d="M288.56,366.51c1.19-1.27,3.1-1.91,5.74-1.91h25.34v-10.82h-22.84c-7.39,0-13.22,2.05-17.49,6.14-4.27,4.09-6.4,9.75-6.4,16.96v5.81h-21.38v10.69h21.38v55.44h13.86v-55.44h28.38v-10.69h-28.38v-10.16c0-2.73.59-4.73,1.78-6.01Z"/>
    <path d="M347.62,382.68v55.31h-16.9v10.82h61.64v-10.82h-30.89v-23.23c0-6.95,1.45-12.1,4.36-15.44,2.9-3.34,7.21-5.02,12.94-5.02h16.63v-12.41h-10.56c-6.07,0-11.02,1.41-14.85,4.22-2.84,2.09-5.18,4.91-7.03,8.45h-1.49v-11.88h-13.86Z"/>
    <path d="M423.06,445.65c4.18,2.9,8.86,4.36,14.06,4.36,4.4,0,8.29-.92,11.68-2.77,3.39-1.85,6.01-4.22,7.85-7.13h1.06v8.71h13.73v-66.13h-13.73v8.45h-1.06c-1.85-2.9-4.36-5.23-7.52-7-3.17-1.76-6.95-2.64-11.35-2.64-5.28,0-10.05,1.47-14.32,4.42-4.27,2.95-7.66,7.06-10.16,12.34-2.51,5.28-3.76,11.13-3.76,17.56s1.21,12.5,3.63,17.69c2.42,5.19,5.72,9.24,9.9,12.14ZM424.58,409.48c.18-5.89,1.43-10.08,3.76-12.54,2.33-2.46,6.18-3.7,11.55-3.7h2.51c5.37,0,9.22,1.25,11.55,3.76,2.33,2.51,3.58,6.71,3.76,12.61.09,4.05.09,8.14,0,12.28-.18,5.9-1.43,10.1-3.76,12.61-2.33,2.51-6.18,3.76-11.55,3.76h-2.51c-5.37,0-9.22-1.28-11.55-3.83-2.33-2.55-3.59-6.78-3.76-12.67-.09-4.14-.09-8.23,0-12.28Z"/>
    <path d="M533.54,437.13c-2.24,1.19-5.92,1.78-11.02,1.78-3.96,0-7.04-.31-9.24-.92-2.2-.61-3.83-1.83-4.88-3.63-1.06-1.8-1.67-4.46-1.85-7.99h-14.26c.35,4.67,1.87,8.82,4.55,12.47,2.68,3.65,6.2,6.47,10.56,8.45,4.36,1.98,9.26,2.97,14.72,2.97,5.02,0,9.66-.88,13.93-2.64,4.27-1.76,7.7-4.29,10.3-7.59,2.59-3.3,3.89-7.24,3.89-11.81,0-4.84-1.54-8.71-4.62-11.62-3.08-2.9-7.57-4.88-13.46-5.94l-16.9-2.77c-2.9-.53-4.91-1.39-6.01-2.57-1.1-1.19-1.65-2.84-1.65-4.95,0-2.9,1.03-4.93,3.1-6.07,2.07-1.14,5.52-1.72,10.36-1.72,3.7,0,6.58.33,8.65.99,2.07.66,3.58,1.78,4.55,3.37.97,1.58,1.5,3.83,1.58,6.73h13.86c-.44-4.31-1.94-8.18-4.49-11.62-2.55-3.43-5.94-6.09-10.16-7.99-4.22-1.89-8.8-2.84-13.73-2.84s-9.15.86-13.2,2.57c-4.05,1.72-7.33,4.18-9.83,7.39-2.51,3.21-3.76,6.93-3.76,11.15,0,4.58,1.56,8.34,4.69,11.29,3.12,2.95,7.46,4.91,13,5.87l16.1,2.64c3.25.62,5.5,1.52,6.73,2.71,1.23,1.19,1.85,2.93,1.85,5.21,0,3.52-1.12,5.87-3.37,7.06Z"/>
    <path d="M587.33,425.85c0,4.84.94,8.98,2.84,12.41,1.89,3.43,4.62,6.05,8.18,7.85,3.56,1.8,7.81,2.71,12.74,2.71h20.59v-10.82h-22.97c-2.55,0-4.42-.64-5.61-1.91-1.19-1.27-1.78-3.28-1.78-6.01v-36.7h29.04v-10.69h-29.04v-20.99h-13.99v20.99h-20.72v10.69h20.72v32.47Z"/>
    <path d="M664.42,382.68v55.31h-16.9v10.82h61.64v-10.82h-30.89v-23.23c0-6.95,1.45-12.1,4.36-15.44,2.9-3.34,7.21-5.02,12.94-5.02h16.63v-12.41h-10.56c-6.07,0-11.02,1.41-14.85,4.22-2.84,2.09-5.18,4.91-7.03,8.45h-1.49v-11.88h-13.86Z"/>
    <path d="M730.16,382.68v42.77c0,5.28.97,9.79,2.9,13.53,1.93,3.74,4.57,6.56,7.92,8.45,3.34,1.89,7.13,2.84,11.35,2.84,5.28,0,9.79-1.39,13.53-4.16,2.2-1.63,3.99-3.64,5.41-6.01h1.12v8.71h13.99v-66.13h-13.99v41.58c0,4.4-1.08,7.83-3.23,10.3-2.16,2.46-5.17,3.7-9.04,3.7h-3.7c-4.22,0-7.35-1.06-9.37-3.17-2.03-2.11-3.04-5.32-3.04-9.64v-42.77h-13.86Z"/>
    <path d="M825.59,396.74c2.38-2.51,6.34-3.76,11.88-3.76h2.51c3.7,0,6.62.48,8.78,1.45,2.16.97,3.72,2.6,4.69,4.88.97,2.29,1.54,5.54,1.72,9.77h14.52c-.35-5.37-1.89-10.16-4.62-14.39-2.73-4.22-6.36-7.52-10.89-9.9-4.53-2.38-9.62-3.56-15.25-3.56-6.16,0-11.68,1.43-16.57,4.29-4.88,2.86-8.69,6.91-11.42,12.14-2.73,5.24-4.09,11.24-4.09,18.02s1.32,12.78,3.96,18.02c2.64,5.24,6.36,9.31,11.15,12.21,4.8,2.9,10.27,4.36,16.43,4.36,5.63,0,10.78-1.19,15.44-3.56,4.66-2.38,8.4-5.7,11.22-9.97,2.82-4.27,4.4-9.04,4.75-14.32h-14.39c-.26,4.05-.92,7.24-1.98,9.57-1.06,2.33-2.66,4.01-4.82,5.02-2.16,1.01-5.04,1.52-8.65,1.52h-2.51c-5.54,0-9.5-1.27-11.88-3.83-2.38-2.55-3.65-6.78-3.83-12.67-.09-4.22-.09-8.4,0-12.54.17-5.98,1.45-10.23,3.83-12.74Z"/>
    <path d="M906.97,438.25c1.89,3.43,4.62,6.05,8.18,7.85,3.56,1.8,7.81,2.71,12.74,2.71h20.59v-10.82h-22.97c-2.55,0-4.42-.64-5.61-1.91-1.19-1.27-1.78-3.28-1.78-6.01v-36.7h29.04v-10.69h-29.04v-20.99h-13.99v20.99h-20.72v10.69h20.72v32.47c0,4.84.94,8.98,2.84,12.41Z"/>
    <path d="M967.75,382.68v42.77c0,5.28.97,9.79,2.9,13.53,1.93,3.74,4.57,6.56,7.92,8.45,3.34,1.89,7.13,2.84,11.35,2.84,5.28,0,9.79-1.39,13.53-4.16,2.2-1.63,3.99-3.64,5.41-6.01h1.12v8.71h13.99v-66.13h-13.99v41.58c0,4.4-1.08,7.83-3.23,10.3-2.16,2.46-5.17,3.7-9.04,3.7h-3.7c-4.22,0-7.35-1.06-9.37-3.17-2.03-2.11-3.04-5.32-3.04-9.64v-42.77h-13.86Z"/>
    <path d="M1078.63,399.31c2.9-3.34,7.21-5.02,12.94-5.02h16.63v-12.41h-10.56c-6.07,0-11.02,1.41-14.85,4.22-2.84,2.09-5.18,4.91-7.03,8.45h-1.49v-11.88h-13.86v55.31h-16.9v10.82h61.64v-10.82h-30.89v-23.23c0-6.95,1.45-12.1,4.36-15.44Z"/>
    <path d="M1184.1,400.11c-2.11-5.81-5.63-10.41-10.56-13.79-4.93-3.39-11.04-5.08-18.35-5.08-6.25,0-11.77,1.45-16.57,4.36-4.8,2.9-8.49,7-11.09,12.28-2.6,5.28-3.89,11.22-3.89,17.82s1.32,12.8,3.96,18.08c2.64,5.28,6.36,9.35,11.15,12.21,4.8,2.86,10.23,4.29,16.3,4.29,5.19,0,9.97-1.04,14.32-3.1,4.36-2.07,7.96-4.93,10.82-8.58,2.86-3.65,4.64-7.72,5.35-12.21h-14.12c-.62,4.67-1.98,7.9-4.09,9.7-2.11,1.8-5.68,2.71-10.69,2.71h-2.9c-5.54,0-9.46-1.32-11.75-3.96-2.29-2.64-3.52-7.17-3.7-13.6-.01-.62-.01-1.23-.02-1.85h47.8c.79-7.04.13-13.46-1.98-19.27ZM1142.05,396.41c2.33-2.46,6.22-3.7,11.68-3.7h3.04c5.37,0,9.19,1.23,11.48,3.7,2.29,2.46,3.43,6.65,3.43,12.54v.79h-33.41c0-.26,0-.53,0-.79.18-5.89,1.43-10.08,3.76-12.54Z"/>
    <path d="M145.14,533.95c-2.03,11.71-3.35,20.77-3.96,27.19h-1.19l-15.58-76.69h-19.93l-16.24,92.4h13.07l8.58-49.5c1.32-8.1,2.68-17.16,4.09-27.19h1.06l15.71,76.69h19.8l16.24-92.4h-13.07l-8.58,49.5Z"/>
    <polygon points="193.58 484.45 187.51 484.45 171.14 576.85 185.66 576.85 192.74 536.59 234.64 536.59 236.75 525.11 194.76 525.11 199.88 495.94 246.12 495.94 248.1 484.45 201.9 484.45 193.58 484.45"/>
    <path d="M309.15,487.56c-4.62-3.04-10.19-4.55-16.7-4.55-9.95,0-18.08,3.21-24.42,9.64-6.34,6.42-10.87,14.19-13.6,23.3-2.73,9.11-4.09,17.89-4.09,26.33,0,11.62,2.44,20.53,7.33,26.73,4.88,6.2,11.99,9.31,21.32,9.31,6.6,0,12.52-1.45,17.75-4.36,5.23-2.9,9.64-7.15,13.2-12.74,3.56-5.59,6.14-12.34,7.72-20.26h-14.78c-1.41,6.95-2.88,12.1-4.42,15.44-1.54,3.35-3.56,5.72-6.07,7.13-2.51,1.41-6.05,2.11-10.63,2.11h-2.51c-3.87,0-6.95-.62-9.24-1.85-2.29-1.23-3.85-3.47-4.69-6.73-.84-3.25-.86-7.83-.07-13.73.88-6.78,2.11-13.95,3.7-21.52.35-1.76.7-3.39,1.06-4.88,1.23-5.72,2.68-10.1,4.36-13.13,1.67-3.04,3.72-5.15,6.14-6.34,2.42-1.19,5.56-1.78,9.44-1.78h2.51c4.49,0,7.9.73,10.23,2.18,2.33,1.45,3.81,3.94,4.42,7.46.61,3.52.44,8.58-.53,15.18h14.65c.79-7.57.13-14.19-1.98-19.87-2.11-5.68-5.48-10.03-10.1-13.07Z"/>
    <polygon points="414.55 495.94 443.24 495.94 428.94 576.85 443.46 576.85 457.76 495.94 486.36 495.94 488.34 484.45 416.53 484.45 414.55 495.94"/>
    <path d="M543.64,514.35c-4.4-3.39-10.03-5.08-16.9-5.08s-13.33,1.87-19.14,5.61c-5.81,3.74-10.34,8.73-13.6,14.98-3.26,6.25-4.88,12.89-4.88,19.93,0,5.54,1.1,10.49,3.3,14.85,2.2,4.36,5.39,7.72,9.57,10.1,4.18,2.38,9.04,3.56,14.59,3.56,5.1,0,9.97-1.04,14.59-3.1,4.62-2.07,8.58-4.9,11.88-8.51,3.3-3.61,5.61-7.7,6.93-12.28h-14.12c-1.32,4.75-3.23,8.01-5.74,9.77-2.51,1.76-6.31,2.64-11.42,2.64h-2.77c-5.63,0-9.46-1.39-11.48-4.16-2.03-2.77-2.42-7.28-1.19-13.53.11-.57.24-1.15.35-1.72h48.63c1.67-6.86,1.76-13.24.26-19.14-1.5-5.89-4.44-10.54-8.84-13.93ZM506.02,536.33c1.32-5.63,3.34-9.64,6.07-12.01,2.73-2.38,6.86-3.56,12.41-3.56h2.64c5.46,0,9.13,1.25,11.02,3.76,1.89,2.51,2.26,6.71,1.12,12.61l-.13.66h-33.47c.12-.49.22-.97.34-1.45Z"/>
    <path d="M620.6,512.9c-4.22-2.42-9.15-3.63-14.78-3.63-6.95,0-13.33,1.87-19.14,5.61-5.81,3.74-10.34,8.73-13.6,14.98-3.26,6.25-4.88,12.89-4.88,19.93,0,5.54,1.1,10.49,3.3,14.85,2.2,4.36,5.39,7.72,9.57,10.1,4.18,2.38,9.04,3.56,14.59,3.56s11-1.17,15.84-3.5c4.84-2.33,8.93-5.61,12.28-9.83,3.34-4.22,5.72-9.06,7.13-14.52h-14.39c-1.06,4.22-2.33,7.48-3.83,9.77-1.5,2.29-3.41,3.92-5.74,4.88-2.33.97-5.35,1.45-9.04,1.45h-2.51c-5.63,0-9.44-1.36-11.42-4.09-1.98-2.73-2.4-7.21-1.25-13.46.79-4.22,1.67-8.4,2.64-12.54,1.41-5.72,3.45-9.72,6.14-12.01,2.68-2.29,6.8-3.43,12.34-3.43h2.51c3.52,0,6.29.48,8.32,1.45,2.02.97,3.37,2.62,4.03,4.95.66,2.33.68,5.57.07,9.7h14.39c.18-5.28-.81-10.03-2.97-14.26-2.16-4.22-5.35-7.54-9.57-9.97Z"/>
    <path d="M658.88,576.85l9.34-43.97c1.01-3.34,2.53-6.02,4.58-8.03,2.42-2.38,5.61-3.56,9.57-3.56h3.7c4.31,0,7.37,1.1,9.17,3.3,1.8,2.2,2.22,5.54,1.25,10.03l-8.98,42.24h14.26l8.71-41.05c1.06-5.37.86-10.08-.59-14.12-1.45-4.05-3.85-7.13-7.19-9.24-3.35-2.11-7.22-3.17-11.62-3.17-4.75,0-9.04,1.28-12.87,3.83-2.14,1.43-4.06,3.24-5.78,5.41h-1.16l7.8-36.7h-14.12l-20.2,95.04h14.12Z"/>
    <path d="M781.9,512.5c-3.35-2.16-7.22-3.23-11.62-3.23-4.75,0-9.04,1.28-12.87,3.83-2.14,1.43-4.06,3.24-5.78,5.41h-1.22l1.65-7.79h-14.12l-13.99,66.13h14.12l9.21-43.53c1-3.55,2.57-6.37,4.72-8.48,2.42-2.38,5.61-3.56,9.57-3.56h3.7c4.31,0,7.37,1.1,9.17,3.3,1.8,2.2,2.22,5.54,1.25,10.03l-8.98,42.24h14.26l8.58-40.92c1.14-5.37.99-10.08-.46-14.12-1.45-4.05-3.85-7.15-7.19-9.31Z"/>
    <path d="M857.8,512.83c-4.14-2.38-8.98-3.56-14.52-3.56-7.04,0-13.46,1.87-19.27,5.61-5.81,3.74-10.38,8.73-13.73,14.98-3.35,6.25-5.02,12.94-5.02,20.06,0,5.54,1.12,10.47,3.37,14.78,2.24,4.31,5.46,7.66,9.64,10.03,4.18,2.38,9.04,3.56,14.59,3.56,7.04,0,13.42-1.89,19.14-5.68,5.72-3.78,10.27-8.82,13.66-15.11,3.39-6.29,5.08-12.91,5.08-19.87,0-5.63-1.12-10.58-3.37-14.85-2.24-4.27-5.43-7.59-9.57-9.97ZM856.08,538.57c-.71,4.14-1.58,8.32-2.64,12.54-1.41,5.54-3.48,9.5-6.2,11.88-2.73,2.38-6.82,3.56-12.28,3.56h-2.38c-5.63,0-9.44-1.36-11.42-4.09-1.98-2.73-2.4-7.21-1.25-13.46.79-4.22,1.67-8.4,2.64-12.54,1.41-5.63,3.47-9.61,6.2-11.95,2.73-2.33,6.82-3.5,12.28-3.5h2.38c5.54,0,9.33,1.37,11.35,4.09,2.02,2.73,2.46,7.22,1.32,13.46Z"/>
    <polygon points="946.24 566.03 921.55 566.03 938.98 481.81 902.68 481.81 900.3 492.64 922.49 492.64 907.3 566.03 881.95 566.03 879.58 576.85 943.86 576.85 946.24 566.03"/>
    <path d="M1016.2,512.83c-4.14-2.38-8.98-3.56-14.52-3.56-7.04,0-13.46,1.87-19.27,5.61-5.81,3.74-10.38,8.73-13.73,14.98-3.35,6.25-5.02,12.94-5.02,20.06,0,5.54,1.12,10.47,3.37,14.78,2.24,4.31,5.46,7.66,9.64,10.03,4.18,2.38,9.04,3.56,14.59,3.56,7.04,0,13.42-1.89,19.14-5.68,5.72-3.78,10.27-8.82,13.66-15.11,3.39-6.29,5.08-12.91,5.08-19.87,0-5.63-1.12-10.58-3.37-14.85-2.24-4.27-5.43-7.59-9.57-9.97ZM1014.48,538.57c-.71,4.14-1.58,8.32-2.64,12.54-1.41,5.54-3.48,9.5-6.2,11.88-2.73,2.38-6.82,3.56-12.28,3.56h-2.38c-5.63,0-9.44-1.36-11.42-4.09-1.98-2.73-2.4-7.21-1.25-13.46.79-4.22,1.67-8.4,2.64-12.54,1.41-5.63,3.47-9.61,6.2-11.95,2.73-2.33,6.82-3.5,12.28-3.5h2.38c5.54,0,9.33,1.37,11.35,4.09,2.02,2.73,2.46,7.22,1.32,13.46Z"/>
    <path d="M1063.85,604.71c5.9,0,11.22-1.19,15.97-3.56s8.73-5.66,11.95-9.83c3.21-4.18,5.39-9,6.53-14.45l13.73-66.13h-13.86l-1.98,9.5h-1.06c-1.67-3.25-4.07-5.85-7.19-7.79-3.12-1.93-6.93-2.9-11.42-2.9-6.42,0-12.3,1.91-17.62,5.74-5.33,3.83-9.48,8.91-12.47,15.25-2.99,6.34-4.49,12.89-4.49,19.67,0,5.28.99,10.03,2.97,14.26,1.98,4.22,4.75,7.52,8.32,9.9,3.56,2.38,7.68,3.56,12.34,3.56,3.87,0,7.37-.79,10.49-2.38,3.12-1.58,5.96-3.74,8.51-6.47h1.06l-1.72,8.84c-.79,3.87-1.8,6.91-3.04,9.11-1.23,2.2-3.15,3.81-5.74,4.82-2.6,1.01-6.23,1.52-10.89,1.52-3.52,0-6.29-.33-8.32-.99-2.03-.66-3.43-1.87-4.22-3.63-.79-1.76-.97-4.18-.53-7.26h-14.39c-.35,4.49.59,8.49,2.84,12.01,2.24,3.52,5.5,6.27,9.77,8.25,4.27,1.98,9.08,2.97,14.45,2.97ZM1083.58,562.53c-2.69,2.33-6.58,3.5-11.68,3.5h-2.51c-5.54,0-9.33-1.34-11.35-4.03-2.03-2.68-2.51-7.15-1.45-13.4.79-3.96,1.72-8.01,2.77-12.14,1.41-5.54,3.45-9.46,6.14-11.75,2.68-2.29,6.71-3.43,12.08-3.43h2.51c5.37,0,9,1.34,10.89,4.03,1.89,2.69,2.31,7.06,1.25,13.13-.62,4.05-1.5,8.18-2.64,12.41-1.32,5.46-3.32,9.35-6.01,11.68Z"/>
    <path d="M1151.89,560.09h-1.19l-7.39-49.37h-14.26l12.57,66.83-6.23,9.73c-1.14,1.93-2.38,3.28-3.7,4.03-1.32.75-3.04,1.12-5.15,1.12h-18.35l-2.38,10.82h15.44c6.95,0,12.58-1.37,16.9-4.09,4.31-2.73,8.4-7.39,12.28-13.99l44.22-74.45h-14.92l-27.85,49.37Z"/>
    <path d="M125.34,611.04c-7.22,0-13.38,1.83-18.48,5.48-5.1,3.65-9,9.02-11.68,16.1-2.69,7.08-4.03,15.77-4.03,26.07,0,15.49,2.99,27.3,8.98,35.44,5.98,8.14,14.39,12.21,25.21,12.21,7.21,0,13.33-1.8,18.35-5.41,5.02-3.61,8.86-8.95,11.55-16.04,2.68-7.08,4.03-15.82,4.03-26.2,0-15.58-2.95-27.41-8.84-35.51-5.9-8.1-14.26-12.14-25.08-12.14ZM143.56,667.01c0,1.67-.05,3.3-.13,4.88-.18,5.81-.9,10.28-2.18,13.4-1.28,3.12-3.08,5.3-5.41,6.53-2.33,1.23-5.48,1.85-9.44,1.85h-2.38c-3.96,0-7.13-.62-9.5-1.85-2.38-1.23-4.18-3.41-5.41-6.53-1.23-3.12-1.94-7.59-2.11-13.4-.26-6.78-.31-13.95-.13-21.52.09-1.76.13-3.39.13-4.88.18-5.81.9-10.27,2.18-13.4,1.27-3.12,3.08-5.3,5.41-6.53,2.33-1.23,5.48-1.85,9.44-1.85h2.38c3.96,0,7.11.62,9.44,1.85,2.33,1.23,4.14,3.41,5.41,6.53,1.27,3.12,2,7.59,2.18,13.4.26,6.78.31,13.95.13,21.52Z"/>
    <path d="M222.43,640.15c-3.39-1.89-7.19-2.84-11.42-2.84-5.37,0-9.97,1.39-13.79,4.16-2.25,1.63-4.07,3.64-5.48,6.01h-1.19v-8.71h-13.86v66.13h13.86v-41.58c0-4.4,1.1-7.83,3.3-10.3,2.2-2.46,5.32-3.7,9.37-3.7h3.7c4.31,0,7.48,1.06,9.5,3.17,2.02,2.11,3.04,5.28,3.04,9.5v42.9h13.99v-42.9c0-5.19-.99-9.66-2.97-13.4-1.98-3.74-4.67-6.55-8.05-8.45Z"/>
    <polygon points="292.45 609.85 256.15 609.85 256.15 620.68 278.59 620.68 278.59 694.07 252.59 694.07 252.59 704.89 316.87 704.89 316.87 694.07 292.45 694.07 292.45 609.85"/>
    <polygon points="373.1 638.76 336.8 638.76 336.8 649.45 359.24 649.45 359.24 694.07 334.03 694.07 334.03 704.89 395.54 704.89 395.54 694.07 373.1 694.07 373.1 638.76"/>
    <rect x="356.6" y="604.18" width="17.95" height="17.42"/>
    <path d="M460.02,640.15c-3.39-1.89-7.19-2.84-11.42-2.84-5.37,0-9.97,1.39-13.79,4.16-2.25,1.63-4.07,3.64-5.48,6.01h-1.19v-8.71h-13.86v66.13h13.86v-41.58c0-4.4,1.1-7.83,3.3-10.3,2.2-2.46,5.32-3.7,9.37-3.7h3.7c4.31,0,7.48,1.06,9.5,3.17,2.02,2.11,3.04,5.28,3.04,9.5v42.9h13.99v-42.9c0-5.19-.99-9.66-2.97-13.4-1.98-3.74-4.67-6.55-8.05-8.45Z"/>
    <path d="M539.95,642.39c-4.93-3.39-11.04-5.08-18.35-5.08-6.25,0-11.77,1.45-16.57,4.36-4.8,2.9-8.49,7-11.09,12.28-2.6,5.28-3.89,11.22-3.89,17.82s1.32,12.8,3.96,18.08c2.64,5.28,6.36,9.35,11.15,12.21,4.8,2.86,10.23,4.29,16.3,4.29,5.19,0,9.97-1.04,14.32-3.1,4.36-2.07,7.96-4.93,10.82-8.58,2.86-3.65,4.64-7.72,5.35-12.21h-14.12c-.62,4.67-1.98,7.9-4.09,9.7-2.11,1.8-5.68,2.71-10.69,2.71h-2.9c-5.54,0-9.46-1.32-11.75-3.96-2.29-2.64-3.52-7.17-3.7-13.6-.01-.62-.01-1.23-.02-1.85h47.8c.79-7.04.13-13.46-1.98-19.27-2.11-5.81-5.63-10.41-10.56-13.79ZM508.46,652.49c2.33-2.46,6.22-3.7,11.68-3.7h3.04c5.37,0,9.19,1.23,11.48,3.7,2.29,2.46,3.43,6.65,3.43,12.54v.79h-33.4c0-.26,0-.53,0-.79.18-5.89,1.43-10.08,3.76-12.54Z"/>
    <path d="M697.68,657.15v-.99c3.7-1.14,6.85-3.34,9.44-6.58,2.95-3.7,4.42-8.05,4.42-13.07,0-4.57-1.3-8.69-3.89-12.34-2.6-3.65-6.05-6.51-10.36-8.58-4.31-2.07-9.02-3.1-14.12-3.1h-34.32v92.4h34.19c5.98,0,11.37-1.1,16.17-3.3,4.79-2.2,8.56-5.3,11.29-9.31,2.73-4,4.09-8.47,4.09-13.4,0-5.63-1.74-10.49-5.21-14.59-3.15-3.71-7.05-6.08-11.68-7.15ZM683.03,623.71c3.34,0,5.98.42,7.92,1.25,1.93.84,3.37,2.11,4.29,3.83.92,1.72,1.39,4.03,1.39,6.93v3.96c0,4.31-1.04,7.37-3.1,9.17-2.07,1.8-5.57,2.71-10.49,2.71h-20.33v-27.85h20.33ZM699.53,680.47c0,4.75-1.1,8.14-3.3,10.16-2.2,2.03-6.03,3.04-11.48,3.04h-22.04v-31.15h22.04c5.46,0,9.28,1.01,11.48,3.04,2.2,2.03,3.3,5.41,3.3,10.16v4.75Z"/>
    <path d="M774.51,647.21h-1.06c-1.85-2.9-4.36-5.24-7.52-7-3.17-1.76-6.95-2.64-11.35-2.64-5.28,0-10.05,1.47-14.32,4.42-4.27,2.95-7.66,7.06-10.16,12.34-2.51,5.28-3.76,11.13-3.76,17.56s1.21,12.5,3.63,17.69c2.42,5.19,5.72,9.24,9.9,12.14,4.18,2.9,8.86,4.36,14.06,4.36,4.4,0,8.29-.92,11.68-2.77,3.39-1.85,6.01-4.22,7.85-7.13h1.06v8.71h13.73v-66.13h-13.73v8.45ZM774.51,677.97c-.18,5.9-1.43,10.1-3.76,12.61-2.33,2.51-6.18,3.76-11.55,3.76h-2.51c-5.37,0-9.22-1.28-11.55-3.83-2.33-2.55-3.59-6.78-3.76-12.67-.09-4.14-.09-8.23,0-12.28.18-5.89,1.43-10.08,3.76-12.54,2.33-2.46,6.18-3.7,11.55-3.7h2.51c5.37,0,9.22,1.25,11.55,3.76,2.33,2.51,3.58,6.71,3.76,12.61.09,4.05.09,8.14,0,12.28Z"/>
    <path d="M856.02,640.15c-3.39-1.89-7.19-2.84-11.42-2.84-5.37,0-9.97,1.39-13.79,4.16-2.25,1.63-4.07,3.64-5.48,6.01h-1.19v-8.71h-13.86v66.13h13.86v-41.58c0-4.4,1.1-7.83,3.3-10.3,2.2-2.46,5.32-3.7,9.37-3.7h3.7c4.31,0,7.48,1.06,9.5,3.17,2.02,2.11,3.04,5.28,3.04,9.5v42.9h13.99v-42.9c0-5.19-.99-9.66-2.97-13.4-1.98-3.74-4.67-6.55-8.05-8.45Z"/>
    <polygon points="950.06 638.76 932.51 638.76 905.37 665.29 904.13 665.29 904.13 609.85 890.27 609.85 890.27 704.89 904.13 704.89 904.13 676.12 905.81 676.12 934.22 704.89 952.84 704.89 917.73 669.91 950.06 638.76"/>
    <rect x="990.19" y="604.18" width="17.95" height="17.42"/>
    <polygon points="1006.69 638.76 970.39 638.76 970.39 649.45 992.83 649.45 992.83 694.07 967.62 694.07 967.62 704.89 1029.13 704.89 1029.13 694.07 1006.69 694.07 1006.69 638.76"/>
    <path d="M1093.61,640.15c-3.39-1.89-7.19-2.84-11.42-2.84-5.37,0-9.97,1.39-13.79,4.16-2.25,1.63-4.07,3.64-5.48,6.01h-1.19v-8.71h-13.86v66.13h13.86v-41.58c0-4.4,1.1-7.83,3.3-10.3,2.2-2.46,5.32-3.7,9.37-3.7h3.7c4.31,0,7.48,1.06,9.5,3.17,2.02,2.11,3.04,5.28,3.04,9.5v42.9h13.99v-42.9c0-5.19-.99-9.66-2.97-13.4-1.98-3.74-4.67-6.55-8.05-8.45Z"/>
    <path d="M1170.5,647.08h-1.06c-1.85-2.9-4.31-5.21-7.39-6.93-3.08-1.72-6.78-2.57-11.09-2.57-5.37,0-10.23,1.47-14.59,4.42-4.36,2.95-7.79,7.04-10.3,12.28-2.51,5.24-3.76,11.07-3.76,17.49s1.23,12.23,3.7,17.42c2.46,5.19,5.87,9.26,10.23,12.21,4.36,2.95,9.22,4.42,14.59,4.42,4.31,0,8.01-.88,11.09-2.64,3.08-1.76,5.54-4.09,7.39-7h1.06v9.77c0,3.87-.46,6.91-1.39,9.11-.92,2.2-2.6,3.81-5.02,4.82-2.42,1.01-5.96,1.52-10.63,1.52-3.52,0-6.32-.33-8.38-.99-2.07-.66-3.65-1.85-4.75-3.56-1.1-1.72-1.7-4.16-1.78-7.33h-14.52c.26,4.49,1.76,8.51,4.49,12.08,2.73,3.56,6.31,6.31,10.76,8.25,4.44,1.93,9.31,2.9,14.59,2.9,5.89,0,11.15-1.19,15.77-3.56s8.23-5.66,10.82-9.83c2.59-4.18,3.89-8.96,3.89-14.32v-66.26h-13.73v8.32ZM1170.5,677.83c-.18,5.9-1.43,10.1-3.76,12.61-2.33,2.51-6.18,3.76-11.55,3.76h-2.51c-5.37,0-9.22-1.25-11.55-3.76-2.33-2.51-3.59-6.71-3.76-12.61-.09-4.05-.09-8.1,0-12.14.18-5.89,1.43-10.1,3.76-12.61,2.33-2.51,6.18-3.76,11.55-3.76h2.51c5.37,0,9.22,1.25,11.55,3.76,2.33,2.51,3.58,6.71,3.76,12.61.18,4.05.18,8.1,0,12.14Z"/>
  </g>
</svg>