<?xml version="1.0" encoding="UTF-8"?>
<svg id="Layer_1" xmlns="http://www.w3.org/2000/svg" version="1.1" viewBox="0 0 1280 800">
  <!-- Generator: Adobe Illustrator 29.8.2, SVG Export Plug-In . SVG Version: 2.1.1 Build 3)  -->
  <defs>
    <style>
      .st0 {
        fill: #fbfbfb;
      }
    </style>
  </defs>
  <rect class="st0" width="1280" height="800"/>
  <g>
    <path d="M173.6,109.65c-8.62-4.55-18.37-6.83-29.23-6.83h-62.52v167.69h22.52v-62.04h40c10.86,0,20.6-2.23,29.23-6.71,8.62-4.47,15.37-10.7,20.24-18.68,4.87-7.98,7.31-17.01,7.31-27.07s-2.44-19.36-7.31-27.43c-4.87-8.06-11.62-14.37-20.24-18.92ZM177.2,161.27c0,7.19-.96,12.86-2.87,17.01-1.92,4.15-5.03,7.11-9.34,8.86-4.31,1.76-10.22,2.63-17.73,2.63h-42.88v-68.27h42.88c7.5,0,13.42.88,17.73,2.63,4.31,1.76,7.43,4.71,9.34,8.86,1.92,4.15,2.87,9.9,2.87,17.25v11.02Z"/>
    <path d="M268.22,102.82l-55.58,167.69h22.52l14.08-43.36h62.87l14.08,43.36h22.52l-54.38-167.69h-26.11ZM306.05,208.46h-50.74l9.8-30.18c6.55-20.12,11.42-37.13,14.61-51.02h1.92c1.44,6.71,3.11,13.42,5.03,20.12,1.44,5.11,2.95,10.26,4.55,15.45,1.59,5.19,3.27,10.34,5.03,15.45l9.8,30.18Z"/>
    <path d="M453.87,246.67c-4.79,4.07-12.62,6.11-23.48,6.11h-6.95c-8.95,0-15.89-1.44-20.84-4.31-4.95-2.87-8.5-7.1-10.66-12.7-2.16-5.59-3.39-12.94-3.71-22.04h-23.48c.32,11.34,3.11,21.52,8.38,30.54,5.27,9.02,12.49,16.05,21.68,21.08,9.18,5.03,19.6,7.55,31.26,7.55,10.86,0,20.84-2.24,29.94-6.71,9.1-4.47,16.29-10.7,21.56-18.68,5.27-7.98,7.91-17.09,7.91-27.31,0-12.13-3.92-21.88-11.74-29.23-7.83-7.34-18.92-12.3-33.3-14.85l-22.28-4.07c-9.58-1.76-16.33-4.43-20.24-8.02-3.92-3.59-5.87-9.22-5.87-16.89v-2.87c0-8.3,2.23-14.33,6.71-18.09,4.47-3.75,11.58-5.63,21.32-5.63h6.47c8.46,0,14.97,1.16,19.52,3.47,4.55,2.32,7.82,5.91,9.82,10.78,2,4.87,3.15,11.62,3.47,20.24h23c-.32-10.54-2.96-19.96-7.91-28.27-4.95-8.3-11.82-14.77-20.6-19.4-8.78-4.63-18.69-6.95-29.7-6.95-9.9,0-19.04,2.04-27.43,6.11-8.38,4.07-15.05,9.82-20,17.25-4.95,7.43-7.43,16.01-7.43,25.75,0,11.66,3.83,21.2,11.5,28.63,7.67,7.43,18.36,12.42,32.1,14.97l20.6,3.83c10.22,1.92,17.37,4.83,21.44,8.74,4.07,3.92,6.11,9.94,6.11,18.09v3.11c0,9.1-2.4,15.69-7.19,19.76Z"/>
    <path d="M617.48,190.98c-7.83-7.34-18.92-12.3-33.3-14.85l-22.28-4.07c-9.58-1.76-16.33-4.43-20.24-8.02-3.92-3.59-5.87-9.22-5.87-16.89v-2.87c0-8.3,2.23-14.33,6.71-18.09,4.47-3.75,11.58-5.63,21.32-5.63h6.47c8.46,0,14.97,1.16,19.52,3.47,4.55,2.32,7.82,5.91,9.82,10.78,2,4.87,3.15,11.62,3.47,20.24h23c-.32-10.54-2.96-19.96-7.91-28.27-4.95-8.3-11.82-14.77-20.6-19.4-8.78-4.63-18.69-6.95-29.7-6.95-9.9,0-19.04,2.04-27.43,6.11-8.38,4.07-15.05,9.82-20,17.25-4.95,7.43-7.43,16.01-7.43,25.75,0,11.66,3.83,21.2,11.5,28.63,7.67,7.43,18.36,12.42,32.1,14.97l20.6,3.83c10.22,1.92,17.37,4.83,21.44,8.74,4.07,3.92,6.11,9.94,6.11,18.09v3.11c0,9.1-2.4,15.69-7.19,19.76-4.79,4.07-12.62,6.11-23.48,6.11h-6.95c-8.95,0-15.89-1.44-20.84-4.31-4.95-2.87-8.5-7.1-10.66-12.7-2.16-5.59-3.39-12.94-3.71-22.04h-23.48c.32,11.34,3.11,21.52,8.38,30.54,5.27,9.02,12.49,16.05,21.68,21.08,9.18,5.03,19.6,7.55,31.26,7.55,10.86,0,20.84-2.24,29.94-6.71,9.1-4.47,16.29-10.7,21.56-18.68,5.27-7.98,7.91-17.09,7.91-27.31,0-12.13-3.92-21.88-11.74-29.23Z"/>
    <path d="M743.49,246.07h-1.92c0-1.92-.16-4.63-.48-8.14-.32-7.19-.8-14.37-1.44-21.56-.64-7.19-1.44-14.29-2.4-21.32l-10.3-75.46h-28.51l-11.02,75.46c-1.76,11.82-3.2,26.67-4.31,44.56-.32,2.87-.48,5.03-.48,6.47h-1.92l-13.65-143.25h-20.12l18.21,167.69h28.03l18.17-130.31h1.87l16.84,130.31h28.27l18.92-167.69h-19.64l-14.13,143.25Z"/>
    <path d="M855.83,100.43c-12.94,0-24,3.32-33.18,9.94-9.19,6.63-16.13,16.37-20.84,29.23-4.71,12.86-7.07,28.55-7.07,47.07,0,27.95,5.31,49.31,15.93,64.08,10.62,14.77,25.67,22.16,45.16,22.16,12.94,0,23.91-3.27,32.94-9.82,9.02-6.55,15.89-16.25,20.6-29.1,4.71-12.85,7.07-28.63,7.07-47.31,0-28.11-5.23-49.5-15.69-64.2-10.46-14.69-25.43-22.04-44.92-22.04ZM891.76,200.8c0,2.72-.08,5.51-.24,8.38-.32,11.34-1.72,20.08-4.19,26.23-2.48,6.15-6.03,10.42-10.66,12.82-4.63,2.4-10.86,3.59-18.68,3.59h-4.79c-7.83,0-14.05-1.2-18.69-3.59-4.63-2.4-8.19-6.67-10.66-12.82-2.48-6.15-3.87-14.89-4.19-26.23-.48-10.86-.56-23.08-.24-36.65.16-2.87.24-5.67.24-8.38.32-11.34,1.71-20.08,4.19-26.23,2.47-6.15,6.03-10.42,10.66-12.82,4.63-2.4,10.86-3.59,18.69-3.59h4.79c7.82,0,14.05,1.2,18.68,3.59,4.63,2.4,8.18,6.67,10.66,12.82,2.47,6.15,3.87,14.89,4.19,26.23.48,10.86.56,23.08.24,36.65Z"/>
    <path d="M1031.42,108.57c-8.95-3.83-18.92-5.75-29.94-5.75h-57.25v167.69h22.52v-68.51h38.09c10.86,0,18.68,2.12,23.48,6.35,4.79,4.23,7.19,11.22,7.19,20.96v41.2h22.28v-41.2c0-11.34-2.48-19.76-7.43-25.27-4.3-4.78-11.01-8.09-20.12-9.92v-1.69c4.99-1.35,9.54-3.54,13.65-6.6,5.27-3.91,9.34-8.9,12.22-14.97,2.87-6.07,4.31-12.7,4.31-19.88,0-9.9-2.6-18.48-7.79-25.75-5.19-7.27-12.26-12.82-21.2-16.65ZM1035.73,157.2c0,6.71-.88,11.94-2.63,15.69-1.76,3.75-4.59,6.43-8.5,8.02-3.92,1.6-9.38,2.4-16.41,2.4h-41.44v-61.8h41.44c6.86,0,12.3.8,16.29,2.4,3.99,1.6,6.86,4.27,8.62,8.02,1.75,3.75,2.63,8.9,2.63,15.45v9.82Z"/>
    <path d="M1177.66,260.21c9.34-6.86,16.13-16.49,20.36-28.87,4.23-12.37,6.35-27.27,6.35-44.68,0-26.83-5.11-47.51-15.33-62.04-10.22-14.53-26.27-21.8-48.15-21.8h-51.98v167.69h52.46c14.85,0,26.95-3.43,36.29-10.3ZM1111.43,251.82V121.51h27.79c9.42,0,16.89,1.12,22.4,3.35,5.51,2.24,9.78,6.47,12.82,12.7,3.03,6.23,4.71,15.25,5.03,27.07.48,14.69.48,29.39,0,44.08-.32,11.82-2,20.84-5.03,27.07-3.04,6.23-7.31,10.46-12.82,12.7-5.51,2.24-12.98,3.35-22.4,3.35h-27.79Z"/>
    <polygon points="145.39 356.01 148.21 314.1 125.7 314.1 128.51 356.01 89.52 340.45 82.58 361.77 123.33 372.1 96.47 404.41 114.44 417.59 136.95 381.94 159.47 417.59 177.44 404.41 150.58 372.1 191.33 361.77 184.38 340.45 145.39 356.01"/>
    <polygon points="226.31 409.45 267.06 419.78 240.2 452.09 258.17 465.26 280.69 429.61 303.2 465.26 321.17 452.09 294.31 419.78 335.06 409.45 328.12 388.13 289.13 403.68 291.94 361.77 269.43 361.77 272.25 403.68 233.25 388.13 226.31 409.45"/>
    <path d="M761.95,401.54c-7.83-7.34-19.09-12.3-33.78-14.85l-22.52-4.07c-9.26-1.76-15.77-4.35-19.52-7.79-3.75-3.43-5.63-8.82-5.63-16.17v-2.64c0-8.14,2.16-14.01,6.47-17.61s11.26-5.39,20.84-5.39h6.23c8.3,0,14.65,1.12,19.04,3.35,4.39,2.24,7.55,5.71,9.46,10.42,1.92,4.71,3.03,11.22,3.35,19.52h24.91c-.32-10.54-2.99-19.96-8.02-28.27-5.03-8.3-12.02-14.81-20.96-19.52-8.95-4.71-19.01-7.07-30.18-7.07-10.06,0-19.37,2.08-27.91,6.23-8.55,4.15-15.33,9.98-20.36,17.49-5.03,7.51-7.55,16.21-7.55,26.11,0,11.82,3.87,21.44,11.62,28.87,7.74,7.43,18.48,12.42,32.22,14.97l21.08,3.83c9.9,1.92,16.85,4.75,20.84,8.5,3.99,3.75,5.99,9.54,5.99,17.37v2.87c0,8.95-2.32,15.37-6.95,19.28-4.63,3.92-12.3,5.87-23,5.87h-6.71c-8.78,0-15.57-1.4-20.36-4.19-4.79-2.79-8.23-6.86-10.3-12.22-2.08-5.35-3.2-12.49-3.35-21.44h-25.39c.32,11.34,3.11,21.52,8.38,30.54,5.27,9.02,12.54,16.09,21.8,21.2,9.26,5.11,19.8,7.67,31.62,7.67,11.02,0,21.16-2.28,30.42-6.83,9.26-4.55,16.57-10.86,21.92-18.92,5.35-8.06,8.02-17.29,8.02-27.67,0-12.3-3.92-22.12-11.74-29.46Z"/>
    <polygon points="471.85 340.45 432.86 356.01 435.68 314.1 413.16 314.1 415.98 356.01 376.99 340.45 370.04 361.77 410.8 372.1 383.93 404.41 401.9 417.59 424.42 381.94 446.93 417.59 464.9 404.41 438.04 372.1 478.79 361.77 471.85 340.45"/>
    <polygon points="514.49 461.67 514.49 481.79 621.81 481.79 621.81 461.67 580.6 461.67 580.6 334.23 621.81 334.23 621.81 314.1 514.49 314.1 514.49 334.23 555.69 334.23 555.69 461.67 514.49 461.67"/>
    <polygon points="801.23 409.45 841.99 419.78 815.13 452.09 833.09 465.26 855.61 429.61 878.13 465.26 896.09 452.09 869.23 419.78 909.99 409.45 903.04 388.13 864.05 403.68 866.87 361.77 844.35 361.77 847.17 403.68 808.18 388.13 801.23 409.45"/>
    <polygon points="944.96 361.77 985.72 372.1 958.86 404.41 976.82 417.59 999.34 381.94 1021.86 417.59 1039.83 404.41 1012.96 372.1 1053.72 361.77 1046.77 340.45 1007.78 356.01 1010.6 314.1 988.08 314.1 990.9 356.01 951.91 340.45 944.96 361.77"/>
    <polygon points="1102.59 452.09 1120.56 465.26 1143.07 429.61 1165.59 465.26 1183.56 452.09 1156.7 419.78 1197.45 409.45 1190.5 388.13 1151.51 403.68 1154.33 361.77 1131.81 361.77 1134.63 403.68 1095.64 388.13 1088.7 409.45 1129.45 419.78 1102.59 452.09"/>
    <polygon points="168.57 599.17 105.33 599.17 105.33 525.39 82.82 525.39 82.82 693.07 105.33 693.07 105.33 617.85 168.57 617.85 168.57 693.07 191.09 693.07 191.09 525.39 168.57 525.39 168.57 599.17"/>
    <polygon points="253.85 617.85 330.27 617.85 330.27 599.17 253.85 599.17 253.85 544.07 337.45 544.07 337.45 525.39 253.85 525.39 246.19 525.39 231.33 525.39 231.33 693.07 246.19 693.07 253.85 693.07 341.05 693.07 341.05 674.39 253.85 674.39 253.85 617.85"/>
    <path d="M366.44,570.9h18.92v-26.83h77.61v2.28c-16.55,17.51-29.73,37.95-39.53,61.33-10.54,25.15-17.09,53.62-19.64,85.4h22.52c2.4-30.98,8.46-58.45,18.21-82.41,9.74-23.96,24.19-45.51,43.36-64.68v-20.6h-121.45v45.51Z"/>
    <polygon points="542.27 525.39 519.75 525.39 519.75 693.07 629.22 693.07 629.22 674.39 542.27 674.39 542.27 525.39"/>
    <path d="M712.1,522.99c-13.1,0-24.24,3.32-33.42,9.94-9.19,6.63-16.17,16.37-20.96,29.22-4.79,12.86-7.19,28.55-7.19,47.07,0,27.79,5.35,49.11,16.05,63.96,10.7,14.85,25.87,22.28,45.51,22.28,13.09,0,24.19-3.27,33.3-9.82,9.1-6.55,16.01-16.25,20.72-29.11,4.71-12.85,7.07-28.63,7.07-47.31,0-28.11-5.27-49.5-15.81-64.2-10.54-14.69-25.63-22.04-45.28-22.04ZM675.21,586.71c.32-11.5,1.76-20.36,4.31-26.59,2.55-6.23,6.19-10.54,10.9-12.94,4.71-2.4,11.06-3.59,19.04-3.59h4.79c7.98,0,14.37,1.2,19.16,3.59s8.42,6.71,10.9,12.94c.08.19.15.4.22.6l-69.12,75.95c-.1-1.59-.17-3.22-.22-4.93-.48-15.01-.48-30.02,0-45.04ZM748.52,631.75c-.32,11.5-1.72,20.36-4.19,26.59-2.48,6.23-6.11,10.54-10.9,12.94s-11.18,3.59-19.16,3.59h-4.79c-7.99,0-14.34-1.2-19.04-3.59-4.71-2.4-8.35-6.71-10.9-12.94-.09-.22-.18-.46-.27-.68l69.04-75.87c.09,1.59.17,3.22.22,4.93.48,15.01.48,30.03,0,45.04Z"/>
    <path d="M856.79,622.41h-1.92l-27.31-97.02h-29.94v167.68h19.64l-.72-93.66c-.32-18.84-.88-35.85-1.68-51.02h1.92l27.07,96.06h23l27.07-96.06h1.92c-.8,15.17-1.36,32.18-1.68,51.02l-.72,93.66h20.12v-167.68h-29.46l-27.31,97.02Z"/>
    <path d="M1028.07,607.79v-1.92c7.82-2.71,14.01-7.34,18.56-13.89,4.55-6.55,6.83-13.97,6.83-22.28s-2.4-16.29-7.19-23.48-11.34-12.85-19.64-17.01c-8.31-4.15-17.41-6.23-27.31-6.23s-19.52,2.36-27.91,7.07c-8.38,4.71-14.97,11.18-19.76,19.4-4.79,8.23-7.19,17.37-7.19,27.43h23.48c0-9.1.88-15.93,2.63-20.48,1.75-4.55,4.59-7.7,8.5-9.46,3.91-1.76,9.7-2.64,17.37-2.64h4.79c7.19,0,12.73.8,16.65,2.4,3.91,1.6,6.75,4.35,8.5,8.26,1.75,3.92,2.63,9.54,2.63,16.89,0,6.87-.8,12.14-2.4,15.81-1.6,3.68-4.23,6.19-7.91,7.55-3.68,1.36-8.95,2.12-15.81,2.28l-17.25.24v19.64l17.25.24c8.3.16,14.57.96,18.8,2.4,4.23,1.44,7.22,4.04,8.98,7.79,1.75,3.75,2.63,9.38,2.63,16.89,0,8.14-1,14.29-2.99,18.45-2,4.15-5.23,7.03-9.7,8.62-4.47,1.6-11.02,2.4-19.64,2.4h-4.79c-8.31,0-14.65-.96-19.04-2.87-4.39-1.92-7.51-5.39-9.34-10.42-1.84-5.03-2.75-12.65-2.75-22.88h-23.96c0,11.18,2.52,21.16,7.55,29.94,5.03,8.78,12.01,15.57,20.96,20.36,8.94,4.79,19.08,7.19,30.42,7.19s20.92-2.24,29.7-6.71c8.78-4.47,15.69-10.54,20.72-18.21,5.03-7.67,7.55-16.13,7.55-25.39s-2.63-17.45-7.91-24.07c-5.27-6.62-12.62-11.06-22.04-13.29Z"/>
    <path d="M1171.79,607.79v-1.92c7.82-2.71,14.01-7.34,18.56-13.89,4.55-6.55,6.83-13.97,6.83-22.28s-2.4-16.29-7.19-23.48-11.34-12.85-19.64-17.01c-8.31-4.15-17.41-6.23-27.31-6.23s-19.52,2.36-27.91,7.07c-8.38,4.71-14.97,11.18-19.76,19.4-4.79,8.23-7.19,17.37-7.19,27.43h23.48c0-9.1.88-15.93,2.63-20.48,1.75-4.55,4.59-7.7,8.5-9.46,3.91-1.76,9.7-2.64,17.37-2.64h4.79c7.19,0,12.73.8,16.65,2.4,3.91,1.6,6.75,4.35,8.5,8.26,1.75,3.92,2.63,9.54,2.63,16.89,0,6.87-.8,12.14-2.4,15.81-1.6,3.68-4.23,6.19-7.91,7.55-3.68,1.36-8.95,2.12-15.81,2.28l-17.25.24v19.64l17.25.24c8.3.16,14.57.96,18.8,2.4,4.23,1.44,7.22,4.04,8.98,7.79,1.75,3.75,2.63,9.38,2.63,16.89,0,8.14-1,14.29-2.99,18.45-2,4.15-5.23,7.03-9.7,8.62-4.47,1.6-11.02,2.4-19.64,2.4h-4.79c-8.31,0-14.65-.96-19.04-2.87-4.39-1.92-7.51-5.39-9.34-10.42-1.84-5.03-2.75-12.65-2.75-22.88h-23.96c0,11.18,2.52,21.16,7.55,29.94,5.03,8.78,12.01,15.57,20.96,20.36,8.94,4.79,19.08,7.19,30.42,7.19s20.92-2.24,29.7-6.71c8.78-4.47,15.69-10.54,20.72-18.21,5.03-7.67,7.55-16.13,7.55-25.39s-2.63-17.45-7.91-24.07c-5.27-6.62-12.62-11.06-22.04-13.29Z"/>
  </g>
</svg>