<?xml version="1.0" encoding="UTF-8"?>
<svg id="Layer_1" xmlns="http://www.w3.org/2000/svg" xmlns:xlink="http://www.w3.org/1999/xlink" version="1.1" viewBox="0 0 1280 800">
  <!-- Generator: Adobe Illustrator 29.8.2, SVG Export Plug-In . SVG Version: 2.1.1 Build 3)  -->
  <defs>
    <style>
      .st0 {
        fill: none;
      }

      .st1 {
        fill: #fff;
      }

      .st2 {
        clip-path: url(#clippath);
      }
    </style>
    <clipPath id="clippath">
      <rect class="st0" width="1280" height="800"/>
    </clipPath>
  </defs>
  <g class="st2">
    <rect x="-3" y="-3" width="1286" height="806"/>
  </g>
  <g>
    <path class="st1" d="M249.81,126.8c-.12-6.45-.35-12.47-.7-18.04h.7l9.24,34.5h9.33l9.24-34.5h.7c-.35,5.57-.59,11.59-.7,18.04l-.35,34.5h8.27v-61.6h-12.23l-9.06,34.85h-.7l-9.15-34.85h-12.32v61.6h8.1l-.35-34.5Z"/>
    <polygon class="st1" points="307.45 161.3 339.04 161.3 339.04 153.64 307.45 153.64 307.45 134.1 335.08 134.1 335.08 126.36 307.45 126.36 307.45 107.35 337.73 107.35 337.73 99.7 307.45 99.7 303.93 99.7 297.95 99.7 297.95 161.3 303.93 161.3 307.45 161.3"/>
    <path class="st1" d="M413.5,161.3v-32.03h-23.94v7.3h14.92l-.05,4.22c-.06,3.29-.47,5.85-1.23,7.7-.76,1.85-1.98,3.18-3.65,4-1.67.82-3.92,1.23-6.73,1.23h-1.85c-2.76,0-4.97-.41-6.64-1.23-1.67-.82-2.93-2.29-3.78-4.4-.85-2.11-1.34-5.07-1.45-8.89-.18-5.87-.18-11.7,0-17.51.12-3.87.63-6.85,1.54-8.93.91-2.08,2.21-3.53,3.92-4.36,1.7-.82,3.93-1.23,6.69-1.23h1.67c2.64,0,4.72.44,6.25,1.32,1.52.88,2.64,2.3,3.34,4.27.7,1.97,1.08,4.71,1.14,8.23h9.86c-.23-4.63-1.32-8.62-3.26-11.97-1.94-3.34-4.5-5.9-7.7-7.66-3.2-1.76-6.79-2.64-10.78-2.64-5.1,0-9.39,1.33-12.85,4-3.46,2.67-6.04,6.4-7.74,11.18-1.7,4.78-2.55,10.31-2.55,16.59s.79,11.6,2.38,16.32c1.58,4.72,4.02,8.45,7.3,11.18,3.28,2.73,7.3,4.09,12.06,4.09,3.58,0,6.69-.75,9.33-2.24,2.05-1.16,3.65-2.76,4.82-4.8h.81v6.25h8.18Z"/>
    <path class="st1" d="M463.92,154.08h-20.59v-15.49c0-4.63.97-8.07,2.9-10.3,1.94-2.23,4.81-3.34,8.62-3.34h11.09v-8.27h-7.04c-4.05,0-7.35.94-9.9,2.82-1.89,1.39-3.45,3.27-4.68,5.63h-.99v-7.92h-9.24v36.87h-11.26v7.22h41.1v-7.22Z"/>
    <path class="st1" d="M516.63,161.3v-44.09h-9.15v5.63h-.7c-1.23-1.94-2.9-3.49-5.02-4.66-2.11-1.17-4.63-1.76-7.57-1.76-3.52,0-6.7.98-9.55,2.95-2.85,1.97-5.1,4.71-6.78,8.23-1.67,3.52-2.51,7.42-2.51,11.7s.81,8.33,2.42,11.79c1.61,3.46,3.81,6.16,6.6,8.1,2.79,1.94,5.91,2.9,9.37,2.9,2.93,0,5.53-.62,7.79-1.85,2.26-1.23,4-2.82,5.24-4.75h.7v5.81h9.15ZM504.97,151.75c-1.55,1.67-4.12,2.51-7.7,2.51h-1.67c-3.58,0-6.15-.85-7.7-2.55-1.56-1.7-2.39-4.52-2.51-8.45-.06-2.76-.06-5.48,0-8.18.12-3.93.95-6.72,2.51-8.36,1.55-1.64,4.12-2.46,7.7-2.46h1.67c3.58,0,6.15.84,7.7,2.51,1.55,1.67,2.39,4.47,2.51,8.4.06,2.7.06,5.43,0,8.18-.12,3.93-.95,6.73-2.51,8.4Z"/>
    <path class="st1" d="M571.28,139.21c0-4.28-.81-8.17-2.42-11.66-1.61-3.49-3.86-6.22-6.73-8.18-2.88-1.96-6.1-2.95-9.68-2.95-2.82,0-5.25.6-7.3,1.8-2.05,1.2-3.7,2.8-4.93,4.8h-.7v-5.81h-9.15v61.69h9.24v-23.14h.7c1.23,1.94,2.84,3.48,4.84,4.62,1.99,1.14,4.4,1.72,7.22,1.72,3.58,0,6.8-.98,9.68-2.95,2.87-1.97,5.13-4.69,6.78-8.18,1.64-3.49,2.46-7.41,2.46-11.75ZM561.25,143.34c-.12,3.93-.92,6.73-2.42,8.4-1.5,1.67-4.03,2.51-7.61,2.51h-1.67c-3.52,0-6.04-.84-7.57-2.51-1.53-1.67-2.35-4.47-2.46-8.4-.06-2.76-.06-5.48,0-8.18.12-3.93.94-6.73,2.46-8.4,1.52-1.67,4.05-2.51,7.57-2.51h1.67c3.58,0,6.12.84,7.61,2.51s2.3,4.47,2.42,8.4c.12,2.7.12,5.43,0,8.18Z"/>
    <path class="st1" d="M621.96,161.3v-28.6c0-3.46-.66-6.44-1.98-8.93-1.32-2.49-3.11-4.37-5.37-5.63-2.26-1.26-4.8-1.89-7.61-1.89-3.58,0-6.64.92-9.2,2.77-1.5,1.08-2.71,2.42-3.65,4h-.79v-25.08h-9.24v63.36h9.24v-27.72c0-2.93.73-5.22,2.2-6.86,1.47-1.64,3.55-2.46,6.25-2.46h2.46c2.87,0,4.99.7,6.34,2.11,1.35,1.41,2.02,3.52,2.02,6.34v28.6h9.33Z"/>
    <path class="st1" d="M663.42,126.8c-.12-6.45-.35-12.47-.7-18.04h.7l9.24,34.5h9.33l9.24-34.5h.7c-.35,5.57-.59,11.59-.7,18.04l-.35,34.5h8.27v-61.6h-12.23l-9.06,34.85h-.7l-9.15-34.85h-12.32v61.6h8.1l-.35-34.5Z"/>
    <path class="st1" d="M740.95,159.36c3.23-1.94,5.76-4.65,7.61-8.14,1.85-3.49,2.77-7.49,2.77-12.01s-.89-8.52-2.68-12.01c-1.79-3.49-4.27-6.19-7.44-8.1-3.17-1.91-6.78-2.86-10.82-2.86s-7.76.95-10.96,2.86c-3.2,1.91-5.72,4.61-7.57,8.1-1.85,3.49-2.77,7.5-2.77,12.01s.89,8.52,2.68,12.01c1.79,3.49,4.27,6.2,7.44,8.14s6.78,2.9,10.82,2.9,7.69-.97,10.91-2.9ZM721.63,151.88c-1.56-1.7-2.39-4.52-2.51-8.45-.06-2.82-.06-5.6,0-8.36.12-3.99.95-6.82,2.51-8.49,1.55-1.67,4.15-2.51,7.79-2.51h1.58c3.64,0,6.23.84,7.79,2.51,1.55,1.67,2.39,4.5,2.51,8.49.12,2.76.12,5.54,0,8.36-.12,3.93-.95,6.75-2.51,8.45-1.56,1.7-4.15,2.55-7.79,2.55h-1.58c-3.64,0-6.23-.85-7.79-2.55Z"/>
    <path class="st1" d="M782.22,124.25h2.46c2.87,0,4.99.7,6.34,2.11,1.35,1.41,2.02,3.52,2.02,6.34v28.6h9.33v-28.6c0-3.46-.66-6.44-1.98-8.93-1.32-2.49-3.11-4.37-5.37-5.63-2.26-1.26-4.8-1.89-7.61-1.89-3.58,0-6.64.92-9.2,2.77-1.5,1.08-2.71,2.42-3.65,4h-.79v-5.81h-9.24v44.09h9.24v-27.72c0-2.93.73-5.22,2.2-6.86,1.47-1.64,3.55-2.46,6.25-2.46Z"/>
    <path class="st1" d="M846.54,159.36c3.23-1.94,5.76-4.65,7.61-8.14,1.85-3.49,2.77-7.49,2.77-12.01s-.89-8.52-2.68-12.01c-1.79-3.49-4.27-6.19-7.44-8.1-3.17-1.91-6.78-2.86-10.82-2.86s-7.76.95-10.96,2.86c-3.2,1.91-5.72,4.61-7.57,8.1-1.85,3.49-2.77,7.5-2.77,12.01s.89,8.52,2.68,12.01c1.79,3.49,4.27,6.2,7.44,8.14s6.78,2.9,10.82,2.9,7.69-.97,10.91-2.9ZM827.23,151.88c-1.56-1.7-2.39-4.52-2.51-8.45-.06-2.82-.06-5.6,0-8.36.12-3.99.95-6.82,2.51-8.49,1.55-1.67,4.15-2.51,7.79-2.51h1.58c3.64,0,6.23.84,7.79,2.51,1.55,1.67,2.39,4.5,2.51,8.49.12,2.76.12,5.54,0,8.36-.12,3.93-.95,6.75-2.51,8.45-1.56,1.7-4.15,2.55-7.79,2.55h-1.58c-3.64,0-6.23-.85-7.79-2.55Z"/>
    <path class="st1" d="M927.51,106.82c-3.93-5.4-9.53-8.1-16.81-8.1-4.87,0-9.01,1.22-12.41,3.65-3.4,2.44-6,6.01-7.79,10.74-1.79,4.72-2.68,10.52-2.68,17.38,0,10.27,1.99,18.13,5.98,23.58,3.99,5.46,9.62,8.18,16.9,8.18,4.87,0,8.99-1.2,12.36-3.61,3.37-2.4,5.94-5.97,7.7-10.69,1.76-4.72,2.64-10.54,2.64-17.47,0-10.38-1.97-18.27-5.9-23.67ZM898.21,121.7c.12-3.93.6-6.95,1.45-9.06.85-2.11,2.08-3.58,3.7-4.4,1.61-.82,3.77-1.23,6.47-1.23h1.58c2.7,0,4.87.41,6.51,1.23,1.64.82,2.87,2.29,3.7,4.4.1.26.2.54.29.83l-23.71,25.42c-.16-5.73-.16-11.46,0-17.19ZM923.02,139.3c-.12,3.93-.59,6.95-1.41,9.06-.82,2.11-2.05,3.58-3.7,4.4-1.64.82-3.81,1.23-6.51,1.23h-1.58c-2.7,0-4.86-.41-6.47-1.23-1.61-.82-2.85-2.29-3.7-4.4-.11-.27-.21-.56-.31-.86l23.68-25.4c.16,5.73.16,11.46,0,17.19Z"/>
    <path class="st1" d="M963.5,98.73c-4.87,0-9.01,1.22-12.41,3.65-3.4,2.44-6,6.01-7.79,10.74-1.79,4.72-2.68,10.52-2.68,17.38,0,10.27,1.99,18.13,5.98,23.58,3.99,5.46,9.62,8.18,16.9,8.18,4.87,0,8.99-1.2,12.36-3.61,3.37-2.4,5.94-5.97,7.7-10.69,1.76-4.72,2.64-10.54,2.64-17.47,0-10.38-1.97-18.27-5.9-23.67-3.93-5.4-9.53-8.1-16.81-8.1ZM951.01,121.7c.12-3.93.6-6.95,1.45-9.06.85-2.11,2.08-3.58,3.7-4.4,1.61-.82,3.77-1.23,6.47-1.23h1.58c2.7,0,4.87.41,6.51,1.23,1.64.82,2.87,2.29,3.7,4.4.1.26.2.54.29.83l-23.71,25.42c-.16-5.73-.16-11.46,0-17.19ZM975.82,139.3c-.12,3.93-.59,6.95-1.41,9.06-.82,2.11-2.05,3.58-3.7,4.4-1.64.82-3.81,1.23-6.51,1.23h-1.58c-2.7,0-4.86-.41-6.47-1.23-1.61-.82-2.85-2.29-3.7-4.4-.11-.27-.21-.56-.31-.86l23.68-25.4c.16,5.73.16,11.46,0,17.19Z"/>
    <polygon class="st1" points="1039.97 153.64 1025.19 153.64 1025.19 99.7 1013.49 99.7 998 113.16 998 123.98 1014.58 109.73 1015.77 109.73 1015.69 153.64 997.21 153.64 997.21 161.3 1039.97 161.3 1039.97 153.64"/>
    <path class="st1" d="M271.55,183.74h-21.65v61.6h9.59v-24.73h13.02c3.7,0,6.34.7,7.92,2.11,1.58,1.41,2.38,3.81,2.38,7.22v15.4h9.42v-15.4c0-4.17-.94-7.26-2.82-9.28-1.54-1.66-3.93-2.81-7.13-3.46v-.78c1.6-.47,3.07-1.13,4.4-2.04,2.05-1.41,3.64-3.24,4.75-5.5,1.11-2.26,1.67-4.74,1.67-7.44,0-3.58-.92-6.7-2.77-9.37-1.85-2.67-4.42-4.72-7.7-6.16-3.29-1.44-6.98-2.16-11.09-2.16ZM282.9,204.06c-.06,2.29-.38,4.08-.97,5.37-.59,1.29-1.57,2.2-2.95,2.73-1.38.53-3.3.79-5.76.79h-13.73v-21.56h13.73c2.41,0,4.31.26,5.72.79,1.41.53,2.4,1.42,2.99,2.68.59,1.26.91,3.04.97,5.32v3.87Z"/>
    <path class="st1" d="M335.7,203.67c-3.29-2.26-7.36-3.39-12.23-3.39-4.17,0-7.85.97-11.04,2.9-3.2,1.94-5.66,4.66-7.39,8.18-1.73,3.52-2.6,7.48-2.6,11.88s.88,8.54,2.64,12.06c1.76,3.52,4.24,6.23,7.44,8.14,3.2,1.91,6.82,2.86,10.87,2.86,3.46,0,6.64-.69,9.55-2.07,2.9-1.38,5.31-3.28,7.22-5.72,1.91-2.43,3.09-5.15,3.56-8.14h-9.42c-.41,3.11-1.32,5.27-2.73,6.47-1.41,1.2-3.78,1.8-7.13,1.8h-1.94c-3.7,0-6.31-.88-7.83-2.64-1.53-1.76-2.35-4.78-2.46-9.06,0-.41,0-.82-.01-1.23h31.87c.53-4.69.09-8.98-1.32-12.85s-3.76-6.94-7.04-9.2ZM314.71,210.4c1.55-1.64,4.15-2.46,7.79-2.46h2.02c3.58,0,6.13.82,7.66,2.46,1.52,1.64,2.29,4.43,2.29,8.36v.53h-22.27c0-.18,0-.35,0-.53.12-3.93.95-6.72,2.51-8.36Z"/>
    <path class="st1" d="M363.64,243c2.9,1.97,6.14,2.95,9.72,2.95,2.87,0,5.34-.59,7.39-1.76,2.05-1.17,3.7-2.73,4.93-4.66h.7v6.51c0,2.58-.31,4.6-.92,6.07-.62,1.47-1.73,2.54-3.34,3.21-1.61.67-3.98,1.01-7.08,1.01-2.35,0-4.21-.22-5.59-.66-1.38-.44-2.44-1.23-3.17-2.38-.73-1.14-1.13-2.77-1.19-4.88h-9.68c.18,2.99,1.17,5.68,2.99,8.05,1.82,2.38,4.21,4.21,7.17,5.5,2.96,1.29,6.2,1.94,9.72,1.94,3.93,0,7.44-.79,10.52-2.38s5.48-3.77,7.22-6.56c1.73-2.79,2.6-5.97,2.6-9.55v-44.18h-9.15v5.54h-.7c-1.23-1.94-2.88-3.48-4.93-4.62-2.05-1.14-4.52-1.72-7.39-1.72-3.58,0-6.82.98-9.72,2.95-2.9,1.97-5.19,4.69-6.86,8.18-1.67,3.49-2.51,7.38-2.51,11.66s.82,8.15,2.46,11.62c1.64,3.46,3.92,6.18,6.82,8.14ZM364.39,219.2c.12-3.93.95-6.73,2.51-8.4,1.55-1.67,4.12-2.51,7.7-2.51h1.67c3.58,0,6.15.84,7.7,2.51,1.55,1.67,2.39,4.47,2.51,8.4.12,2.7.12,5.4,0,8.1-.12,3.93-.95,6.73-2.51,8.4-1.55,1.67-4.12,2.51-7.7,2.51h-1.67c-3.58,0-6.15-.84-7.7-2.51-1.56-1.67-2.39-4.47-2.51-8.4-.06-2.7-.06-5.4,0-8.1Z"/>
    <path class="st1" d="M409.71,201.25v28.51c0,3.52.64,6.53,1.94,9.02,1.29,2.49,3.05,4.37,5.28,5.63,2.23,1.26,4.75,1.89,7.57,1.89,3.52,0,6.53-.92,9.02-2.77,1.46-1.08,2.66-2.42,3.61-4h.75v5.81h9.33v-44.09h-9.33v27.72c0,2.93-.72,5.22-2.16,6.86-1.44,1.64-3.45,2.46-6.03,2.46h-2.46c-2.82,0-4.9-.7-6.25-2.11-1.35-1.41-2.02-3.55-2.02-6.42v-28.51h-9.24Z"/>
    <polygon class="st1" points="463.3 181.98 463.3 189.19 478.26 189.19 478.26 238.12 460.92 238.12 460.92 245.34 503.78 245.34 503.78 238.12 487.5 238.12 487.5 181.98 463.3 181.98"/>
    <path class="st1" d="M512.75,223.34c0,4.4.81,8.33,2.42,11.79,1.61,3.46,3.81,6.16,6.6,8.1,2.79,1.94,5.91,2.9,9.37,2.9,2.93,0,5.53-.62,7.79-1.85,2.26-1.23,4-2.82,5.24-4.75h.7v5.81h9.15v-44.09h-9.15v5.63h-.7c-1.23-1.94-2.9-3.49-5.02-4.66-2.11-1.17-4.63-1.76-7.57-1.76-3.52,0-6.7.98-9.55,2.95-2.85,1.97-5.1,4.71-6.78,8.23-1.67,3.52-2.51,7.42-2.51,11.7ZM522.79,219.11c.12-3.93.95-6.72,2.51-8.36,1.55-1.64,4.12-2.46,7.7-2.46h1.67c3.58,0,6.15.84,7.7,2.51,1.55,1.67,2.39,4.47,2.51,8.4.06,2.7.06,5.43,0,8.18-.12,3.93-.95,6.73-2.51,8.4-1.55,1.67-4.12,2.51-7.7,2.51h-1.67c-3.58,0-6.15-.85-7.7-2.55-1.56-1.7-2.39-4.52-2.51-8.45-.06-2.76-.06-5.48,0-8.18Z"/>
    <path class="st1" d="M565.82,245.34h41.1v-7.22h-20.59v-15.49c0-4.63.97-8.07,2.9-10.3,1.94-2.23,4.81-3.34,8.62-3.34h11.09v-8.27h-7.04c-4.05,0-7.35.94-9.9,2.82-1.89,1.39-3.45,3.27-4.68,5.63h-.99v-7.92h-9.24v36.87h-11.26v7.22Z"/>
    <path class="st1" d="M646.17,182.77c-6.75,0-12.23,2.14-16.46,6.42-4.22,4.28-7.23,9.48-9.02,15.58-1.79,6.1-2.68,12.06-2.68,17.86,0,7.63,1.63,13.48,4.88,17.56,3.26,4.08,7.99,6.12,14.21,6.12,6.63,0,12.03-2.11,16.19-6.34,4.16-4.22,7.17-9.39,9.02-15.49,1.85-6.1,2.77-12.11,2.77-18.04,0-7.57-1.61-13.4-4.84-17.51-3.23-4.11-7.92-6.16-14.08-6.16ZM655.41,206.09c-.7,4.64-1.53,9.42-2.46,14.34-.24,1.06-.47,2.14-.7,3.26-.82,3.81-1.79,6.73-2.9,8.76s-2.49,3.43-4.14,4.22c-1.64.79-3.78,1.19-6.42,1.19h-1.58c-2.7,0-4.83-.41-6.38-1.23-1.56-.82-2.6-2.32-3.12-4.49-.53-2.17-.53-5.22,0-9.15.65-4.52,1.47-9.3,2.46-14.34.29-1.17.53-2.26.7-3.26.82-3.81,1.79-6.73,2.9-8.76,1.11-2.02,2.51-3.43,4.18-4.22s3.83-1.19,6.47-1.19h1.58c2.7,0,4.81.41,6.34,1.23,1.53.82,2.55,2.3,3.08,4.44.53,2.14.53,5.21,0,9.2Z"/>
    <path class="st1" d="M686.74,206.35h-.7l5.02-24.38h-9.42l-13.02,63.36h9.33l1.23-6.16h.7c1.06,2.05,2.62,3.73,4.71,5.02,2.08,1.29,4.62,1.94,7.61,1.94,4.28,0,8.2-1.28,11.75-3.83,3.55-2.55,6.32-5.94,8.32-10.16,1.99-4.22,2.99-8.65,2.99-13.29,0-3.46-.66-6.6-1.98-9.42-1.32-2.82-3.18-5.02-5.59-6.6-2.41-1.58-5.13-2.38-8.18-2.38-2.52,0-4.83.53-6.91,1.58-2.08,1.06-4.03,2.49-5.85,4.31ZM696.94,208.29c3.7,0,6.22.91,7.57,2.73,1.35,1.82,1.67,4.81.97,8.98-.53,2.82-1.14,5.54-1.85,8.18-.94,3.7-2.3,6.31-4.09,7.83-1.79,1.53-4.47,2.29-8.05,2.29h-1.67c-3.52,0-5.93-.89-7.22-2.68-1.29-1.79-1.58-4.71-.88-8.76.47-2.76,1.06-5.48,1.76-8.18.88-3.75,2.21-6.42,4-8.01,1.79-1.58,4.38-2.38,7.79-2.38h1.67Z"/>
    <polygon class="st1" points="764.97 238.12 748.51 238.12 760.13 181.98 735.93 181.98 734.34 189.19 749.14 189.19 739.01 238.12 722.11 238.12 720.53 245.34 763.38 245.34 764.97 238.12"/>
    <polygon class="st1" points="801.31 189.81 813.46 189.81 815.92 178.19 803.77 178.19 801.31 189.81"/>
    <polygon class="st1" points="809.93 201.25 785.73 201.25 784.15 208.38 798.95 208.38 792.69 238.12 776.23 238.12 774.65 245.34 815.66 245.34 817.24 238.12 802.1 238.12 809.93 201.25"/>
    <path class="st1" d="M840.07,204.29c-3.55,2.55-6.32,5.94-8.32,10.16-2,4.22-2.99,8.62-2.99,13.2,0,3.52.66,6.69,1.98,9.5,1.32,2.82,3.18,5.02,5.59,6.6,2.4,1.58,5.13,2.38,8.18,2.38,2.52,0,4.83-.53,6.91-1.58,2.08-1.06,4.03-2.49,5.85-4.31h.7l-4.66,22.7h9.42l12.67-61.69h-9.33l-1.23,6.16h-.7c-1.06-2.11-2.63-3.8-4.71-5.06-2.08-1.26-4.62-1.89-7.61-1.89-4.28,0-8.2,1.28-11.75,3.83ZM854.2,208.29c3.58,0,6,.9,7.26,2.68,1.26,1.79,1.54,4.71.84,8.76-.47,2.7-1.06,5.43-1.76,8.18-.88,3.75-2.21,6.42-4,8.01-1.79,1.58-4.39,2.38-7.79,2.38h-1.67c-3.7,0-6.22-.91-7.57-2.73-1.35-1.82-1.67-4.81-.97-8.98.59-2.87,1.2-5.6,1.85-8.18.94-3.7,2.3-6.31,4.09-7.83,1.79-1.52,4.47-2.29,8.05-2.29h1.67Z"/>
    <path class="st1" d="M911.51,229.84c-.66,2.58-1.72,4.62-3.19,6.09-1.58,1.58-3.64,2.38-6.16,2.38h-2.46c-2.76,0-4.74-.75-5.94-2.24-1.2-1.5-1.48-3.74-.84-6.73l5.9-28.07h-9.42l-5.9,27.98c-.76,3.7-.68,6.82.26,9.37.94,2.55,2.49,4.47,4.66,5.76,2.17,1.29,4.72,1.94,7.66,1.94,3.34,0,6.26-.85,8.76-2.55,1.37-.93,2.61-2.11,3.74-3.52h.73l-1.08,5.1h9.5l9.42-44.09h-9.59l-6.05,28.59Z"/>
    <path class="st1" d="M944,243.93c2.79,1.58,6.03,2.38,9.72,2.38,3.4,0,6.64-.69,9.72-2.07,3.08-1.38,5.72-3.27,7.92-5.68,2.2-2.4,3.74-5.13,4.62-8.18h-9.42c-.88,3.17-2.16,5.34-3.83,6.51-1.67,1.17-4.21,1.76-7.61,1.76h-1.85c-3.75,0-6.31-.92-7.66-2.77s-1.61-4.85-.79-9.02c.07-.38.16-.76.23-1.14h32.42c1.11-4.58,1.17-8.83.18-12.76-1-3.93-2.96-7.02-5.9-9.28-2.93-2.26-6.69-3.39-11.26-3.39s-8.89,1.25-12.76,3.74c-3.87,2.49-6.89,5.82-9.06,9.99-2.17,4.17-3.26,8.6-3.26,13.29,0,3.7.73,7,2.2,9.9,1.47,2.9,3.59,5.15,6.38,6.73ZM950.73,210.31c1.82-1.58,4.58-2.38,8.27-2.38h1.76c3.64,0,6.08.84,7.35,2.51,1.26,1.67,1.51,4.47.75,8.4l-.09.44h-22.31c.08-.32.14-.64.22-.97.88-3.75,2.23-6.42,4.05-8.01Z"/>
    <path class="st1" d="M998.17,229.72c3.46,2.2,7.27,3.3,11.44,3.3s8.05-1.08,11.48-3.26c3.43-2.17,6.15-5.18,8.14-9.02,1.99-3.84,2.99-8.11,2.99-12.8s-1-8.96-2.99-12.8c-2-3.84-4.72-6.86-8.18-9.06-3.46-2.2-7.28-3.3-11.44-3.3s-8.05,1.09-11.48,3.26c-3.43,2.17-6.15,5.19-8.14,9.06-2,3.87-2.99,8.16-2.99,12.85s1,8.95,2.99,12.76c1.99,3.81,4.72,6.82,8.18,9.02ZM994.04,202.57c.12-3.87,1.28-7.02,3.48-9.46,2.2-2.43,5.24-3.65,9.11-3.65h5.98c3.87,0,6.91,1.22,9.11,3.65,2.2,2.44,3.36,5.59,3.48,9.46.06,3.58.06,7.16,0,10.74-.12,3.87-1.28,7.03-3.48,9.46-2.2,2.44-5.24,3.65-9.11,3.65h-5.98c-3.87,0-6.91-1.22-9.11-3.65-2.2-2.43-3.36-5.59-3.48-9.46-.06-3.58-.06-7.16,0-10.74Z"/>
    <path class="st1" d="M1006.27,210.93h4.4c1.17,0,1.99.22,2.46.66.47.44.7,1.22.7,2.33v6.78h5.46v-6.78c0-1.58-.41-2.83-1.23-3.74-.59-.65-1.53-1.11-2.82-1.39v-.3c1.01-.32,1.87-.81,2.55-1.52,1.17-1.23,1.76-2.76,1.76-4.58,0-2.17-.81-3.94-2.42-5.32-1.61-1.38-3.8-2.07-6.56-2.07h-9.86v25.7h5.54v-9.77ZM1010.23,199.14c1.41,0,2.36.21,2.86.62.5.41.75,1.14.75,2.2v2.02c0,1.06-.25,1.79-.75,2.2-.5.41-1.45.62-2.86.62h-3.96v-7.66h3.96Z"/>
    <path class="st1" d="M212.15,297.7l-19.62,61.6h9.24l4.83-15.58h21.88l4.79,15.58h9.42l-19.18-61.6h-11.35ZM209,335.98l3.33-10.74c2.11-6.69,3.72-12.67,4.84-17.95h.79c.47,2.46,1.03,4.84,1.67,7.13.47,1.82.97,3.64,1.5,5.46.53,1.82,1.08,3.61,1.67,5.37l3.3,10.74h-17.1Z"/>
    <path class="st1" d="M282.46,327.47v-.66c2.47-.76,4.57-2.22,6.29-4.39,1.96-2.46,2.95-5.37,2.95-8.71,0-3.05-.87-5.79-2.6-8.23-1.73-2.43-4.03-4.34-6.91-5.72-2.88-1.38-6.01-2.07-9.42-2.07h-22.88v61.6h22.79c3.99,0,7.58-.73,10.78-2.2,3.2-1.47,5.71-3.53,7.52-6.2,1.82-2.67,2.73-5.65,2.73-8.93,0-3.75-1.16-7-3.48-9.72-2.1-2.47-4.7-4.06-7.79-4.77ZM272.69,305.18c2.23,0,3.99.28,5.28.84,1.29.56,2.24,1.41,2.86,2.55.62,1.14.92,2.68.92,4.62v2.64c0,2.88-.69,4.91-2.07,6.12-1.38,1.2-3.71,1.8-7,1.8h-13.55v-18.57h13.55ZM283.69,343.02c0,3.17-.73,5.43-2.2,6.78-1.47,1.35-4.02,2.02-7.66,2.02h-14.7v-20.77h14.7c3.64,0,6.19.68,7.66,2.02,1.47,1.35,2.2,3.61,2.2,6.78v3.17Z"/>
    <path class="st1" d="M323.47,360.26c4.34,0,8.12-.98,11.35-2.95,3.23-1.96,5.79-4.82,7.7-8.58,1.91-3.75,2.95-8.21,3.12-13.38h-9.86c-.06,4.52-.41,7.92-1.06,10.21-.65,2.29-1.76,3.9-3.34,4.84-1.58.94-3.93,1.41-7.04,1.41h-1.67c-2.64,0-4.77-.41-6.38-1.23-1.61-.82-2.86-2.27-3.74-4.36-.88-2.08-1.38-5.06-1.5-8.93-.18-4.52-.21-9.3-.09-14.34.06-1.17.09-2.26.09-3.26.12-3.87.62-6.85,1.5-8.93.88-2.08,2.13-3.53,3.74-4.36,1.61-.82,3.74-1.23,6.38-1.23h1.67c3.11,0,5.46.47,7.04,1.41,1.58.94,2.7,2.55,3.34,4.84.64,2.29,1,5.72,1.06,10.3h9.94c-.18-5.22-1.19-9.71-3.04-13.46-1.85-3.75-4.42-6.61-7.7-8.58-3.29-1.96-7.13-2.95-11.53-2.95-4.75,0-8.86,1.23-12.32,3.7-3.46,2.46-6.1,6.06-7.92,10.78-1.82,4.72-2.73,10.49-2.73,17.29,0,10.27,2.04,18.13,6.12,23.58,4.08,5.46,9.69,8.18,16.85,8.18Z"/>
    <path class="st1" d="M375.39,297.7h-19.62v61.6h19.8c5.34,0,9.75-1.25,13.24-3.74,3.49-2.49,6.04-6.01,7.66-10.56,1.61-4.55,2.42-10.05,2.42-16.5,0-9.91-1.92-17.53-5.76-22.84-3.84-5.31-9.75-7.96-17.73-7.96ZM388.41,337.03c-.06,3.99-.6,7.04-1.63,9.15-1.03,2.11-2.46,3.55-4.31,4.31-1.85.76-4.36,1.14-7.52,1.14h-9.59v-46.29h9.59c3.17,0,5.68.38,7.52,1.14,1.85.76,3.28,2.2,4.31,4.31,1.03,2.11,1.57,5.16,1.63,9.15.18,5.69.18,11.38,0,17.07Z"/>
    <polygon class="st1" points="449.92 305.35 449.92 297.7 419.65 297.7 416.13 297.7 410.15 297.7 410.15 359.3 416.13 359.3 419.65 359.3 451.24 359.3 451.24 351.64 419.65 351.64 419.65 332.1 447.28 332.1 447.28 324.36 419.65 324.36 419.65 305.35 449.92 305.35"/>
    <polygon class="st1" points="503.78 305.35 503.78 297.7 472.89 297.7 467.43 297.7 463.39 297.7 463.39 359.3 472.89 359.3 472.89 332.46 500.96 332.46 500.96 324.8 472.89 324.8 472.89 305.35 503.78 305.35"/>
    <path class="st1" d="M523.62,310.76c.91-2.08,2.21-3.53,3.92-4.36,1.7-.82,3.93-1.23,6.69-1.23h1.67c2.64,0,4.72.44,6.25,1.32,1.52.88,2.64,2.3,3.34,4.27.7,1.97,1.08,4.71,1.14,8.23h9.86c-.23-4.63-1.32-8.62-3.26-11.97-1.94-3.34-4.5-5.9-7.7-7.66-3.2-1.76-6.79-2.64-10.78-2.64-5.1,0-9.39,1.33-12.85,4-3.46,2.67-6.04,6.4-7.74,11.18-1.7,4.78-2.55,10.31-2.55,16.59s.79,11.6,2.38,16.32c1.58,4.72,4.02,8.45,7.3,11.18,3.28,2.73,7.3,4.09,12.06,4.09,3.58,0,6.69-.75,9.33-2.24,2.05-1.16,3.65-2.76,4.82-4.8h.81v6.25h8.18v-32.03h-23.94v7.3h14.92l-.05,4.22c-.06,3.29-.47,5.85-1.23,7.7-.76,1.85-1.98,3.18-3.65,4-1.67.82-3.92,1.23-6.73,1.23h-1.85c-2.76,0-4.97-.41-6.64-1.23-1.67-.82-2.93-2.29-3.78-4.4-.85-2.11-1.34-5.07-1.45-8.89-.18-5.87-.18-11.7,0-17.51.12-3.87.63-6.85,1.54-8.93Z"/>
    <polygon class="st1" points="566.96 297.7 566.96 359.3 576.55 359.3 576.55 332.1 597.85 332.1 597.85 359.3 607.44 359.3 607.44 297.7 597.85 297.7 597.85 324.36 576.55 324.36 576.55 297.7 566.96 297.7"/>
    <polygon class="st1" points="620.11 351.64 620.11 359.3 659.89 359.3 659.89 351.64 644.75 351.64 644.75 305.35 659.89 305.35 659.89 297.7 620.11 297.7 620.11 305.35 635.25 305.35 635.25 351.64 620.11 351.64"/>
    <path class="st1" d="M670.89,337.65c0,4.58.89,8.57,2.68,11.97,1.79,3.4,4.27,6.03,7.44,7.88,3.17,1.85,6.75,2.77,10.74,2.77,4.63,0,8.55-.98,11.75-2.95,3.2-1.96,5.59-4.72,7.17-8.27,1.58-3.55,2.38-7.61,2.38-12.19v-39.16h-9.59v43.56c0,2.64-.35,4.72-1.06,6.25-.7,1.53-1.83,2.64-3.39,3.34-1.55.7-3.65,1.06-6.29,1.06h-1.32c-2.52,0-4.5-.32-5.94-.97-1.44-.65-2.48-1.67-3.12-3.08-.65-1.41-.97-3.34-.97-5.81v-4.4h-10.47Z"/>
    <polygon class="st1" points="769.62 297.7 758.18 297.7 735.21 324.36 734.42 324.36 734.42 297.7 724.92 297.7 724.92 359.3 734.42 359.3 734.42 331.31 735.21 331.31 758.53 359.3 770.68 359.3 743.98 327.31 769.62 297.7"/>
    <polygon class="st1" points="780 297.7 780 359.3 821.01 359.3 821.01 351.64 789.6 351.64 789.6 297.7 780 297.7"/>
    <path class="st1" d="M864.66,359.3h8.27v-61.6h-12.23l-9.06,34.85h-.7l-9.15-34.85h-12.32v61.6h8.1l-.35-34.5c-.12-6.45-.35-12.47-.7-18.04h.7l9.24,34.5h9.33l9.24-34.5h.7c-.35,5.57-.59,11.59-.7,18.04l-.35,34.5Z"/>
    <path class="st1" d="M896.78,297.7h-13.55v61.6h8.62l-.09-33c-.06-6.45-.24-12.5-.53-18.13h.7l19.27,51.13h13.55v-61.6h-8.62l.09,33c0,6.45.18,12.5.53,18.13h-.79l-19.18-51.13Z"/>
    <path class="st1" d="M956.88,360.26c4.81,0,8.89-1.2,12.23-3.61,3.34-2.4,5.91-5.97,7.7-10.69,1.79-4.72,2.68-10.54,2.68-17.47,0-10.38-1.97-18.27-5.9-23.67-3.93-5.4-9.5-8.1-16.72-8.1-4.81,0-8.92,1.22-12.32,3.65-3.4,2.44-6,6.01-7.79,10.74-1.79,4.72-2.68,10.52-2.68,17.38,0,10.33,1.99,18.2,5.98,23.63,3.99,5.43,9.59,8.14,16.81,8.14ZM944.56,322.95c.06-1.17.09-2.26.09-3.26.12-3.87.6-6.85,1.45-8.93.85-2.08,2.05-3.53,3.61-4.36,1.55-.82,3.65-1.23,6.29-1.23h1.58c2.64,0,4.74.41,6.29,1.23,1.55.82,2.76,2.27,3.61,4.36.85,2.08,1.33,5.06,1.45,8.93.18,4.52.21,9.3.09,14.34,0,1.11-.03,2.2-.09,3.26-.12,3.87-.6,6.85-1.45,8.93-.85,2.08-2.05,3.54-3.61,4.36-1.56.82-3.65,1.23-6.29,1.23h-1.58c-2.64,0-4.75-.41-6.34-1.23-1.58-.82-2.79-2.27-3.61-4.36-.82-2.08-1.29-5.06-1.41-8.93-.18-4.52-.21-9.3-.09-14.34Z"/>
    <path class="st1" d="M1023.41,300.21c-3.17-1.67-6.78-2.51-10.82-2.51h-23.5v61.6h9.5v-22.44h13.99c4.05,0,7.66-.84,10.82-2.51,3.17-1.67,5.63-3.99,7.39-6.95,1.76-2.96,2.64-6.29,2.64-9.99s-.88-7.22-2.64-10.21c-1.76-2.99-4.22-5.32-7.39-7ZM1023.32,319.52c0,2.46-.32,4.4-.97,5.81-.65,1.41-1.72,2.41-3.21,2.99-1.5.59-3.56.88-6.2.88h-14.34v-23.85h14.34c2.64,0,4.71.29,6.2.88,1.5.59,2.57,1.58,3.21,2.99.64,1.41.97,3.34.97,5.81.06,1.53.06,3.02,0,4.49Z"/>
    <path class="st1" d="M1074.71,356.66c3.34-2.4,5.91-5.97,7.7-10.69,1.79-4.72,2.68-10.54,2.68-17.47,0-10.38-1.97-18.27-5.9-23.67-3.93-5.4-9.5-8.1-16.72-8.1-4.81,0-8.92,1.22-12.32,3.65-3.4,2.44-6,6.01-7.79,10.74-1.79,4.72-2.68,10.52-2.68,17.38,0,10.33,1.99,18.2,5.98,23.63,3.03,4.12,6.99,6.67,11.88,7.66v1.88c0,3.23.6,5.97,1.8,8.23,1.2,2.26,2.95,3.99,5.24,5.19,2.29,1.2,5.04,1.8,8.27,1.8h9.15v-7.22h-10.74c-1.82,0-3.15-.43-4-1.28-.85-.85-1.28-2.19-1.28-4v-4.37c3.31-.46,6.22-1.58,8.71-3.37ZM1051.7,346.23c-.85-2.08-1.33-5.06-1.45-8.93-.18-4.52-.21-9.3-.09-14.34.06-1.17.09-2.26.09-3.26.12-3.87.6-6.85,1.45-8.93.85-2.08,2.05-3.53,3.61-4.36,1.55-.82,3.65-1.23,6.29-1.23h1.58c2.64,0,4.74.41,6.29,1.23,1.55.82,2.76,2.27,3.61,4.36.85,2.08,1.33,5.06,1.45,8.93.18,4.52.21,9.3.09,14.34,0,1.11-.03,2.2-.09,3.26-.12,3.87-.6,6.85-1.45,8.93-.85,2.08-2.05,3.54-3.61,4.36-1.56.82-3.65,1.23-6.29,1.23h-1.58c-2.64,0-4.74-.41-6.29-1.23-1.56-.82-2.76-2.27-3.61-4.36Z"/>
    <path class="st1" d="M441.04,383.89c-3.29-1.44-6.98-2.16-11.09-2.16h-21.65v61.6h9.59v-24.73h13.02c3.7,0,6.34.7,7.92,2.11s2.38,3.81,2.38,7.22v15.4h9.42v-15.4c0-4.16-.94-7.26-2.82-9.28-1.54-1.66-3.93-2.81-7.13-3.46v-.78c1.6-.47,3.07-1.13,4.4-2.04,2.05-1.41,3.64-3.24,4.75-5.5,1.11-2.26,1.67-4.74,1.67-7.44,0-3.58-.92-6.7-2.77-9.37-1.85-2.67-4.42-4.72-7.7-6.16ZM441.3,402.06c-.06,2.29-.38,4.08-.97,5.37-.59,1.29-1.57,2.2-2.95,2.73-1.38.53-3.3.79-5.76.79h-13.73v-21.56h13.73c2.41,0,4.31.26,5.72.79,1.41.53,2.4,1.42,2.99,2.68.59,1.26.91,3.04.97,5.32v3.87Z"/>
    <path class="st1" d="M491.95,434.01c-1.67,1.41-4.44,2.11-8.32,2.11h-2.46c-3.11,0-5.53-.48-7.26-1.45-1.73-.97-2.96-2.43-3.7-4.4-.73-1.96-1.16-4.56-1.28-7.79h-9.68c.12,4.17,1.16,7.91,3.12,11.22,1.96,3.31,4.65,5.91,8.05,7.79,3.4,1.88,7.3,2.82,11.7,2.82,4.11,0,7.86-.82,11.26-2.46,3.4-1.64,6.1-3.96,8.1-6.95,1.99-2.99,2.99-6.42,2.99-10.3,0-4.52-1.45-8.14-4.36-10.87-2.9-2.73-7.06-4.56-12.45-5.5l-8.45-1.5c-3.29-.58-5.6-1.5-6.95-2.73-1.35-1.23-2.02-3.17-2.02-5.81v-1.06c0-2.87.78-4.96,2.33-6.25,1.55-1.29,4.06-1.94,7.52-1.94h2.29c2.99,0,5.28.4,6.86,1.19s2.71,2.04,3.39,3.74c.67,1.7,1.07,4.05,1.19,7.04h9.59c-.12-3.87-1.12-7.35-2.99-10.43-1.88-3.08-4.46-5.47-7.74-7.17-3.29-1.7-6.98-2.55-11.09-2.55-3.75,0-7.22.76-10.38,2.29-3.17,1.53-5.69,3.68-7.57,6.47-1.88,2.79-2.82,6-2.82,9.64,0,4.34,1.42,7.89,4.27,10.65,2.85,2.76,6.79,4.61,11.84,5.54l7.92,1.41c3.58.65,6.07,1.64,7.48,2.99,1.41,1.35,2.11,3.43,2.11,6.25v1.06c0,3.23-.84,5.54-2.51,6.95Z"/>
    <polygon class="st1" points="510.47 389.39 529.65 389.39 529.65 443.34 539.16 443.34 539.16 389.39 558.34 389.39 558.34 381.74 510.47 381.74 510.47 389.39"/>
    <path class="st1" d="M608.85,381.74h-9.42v43.56c0,2.7-.34,4.81-1.01,6.34-.68,1.53-1.8,2.63-3.39,3.3-1.58.68-3.78,1.01-6.6,1.01h-2.38c-2.76,0-4.91-.34-6.47-1.01-1.56-.67-2.68-1.77-3.39-3.3-.7-1.52-1.06-3.64-1.06-6.34v-43.56h-9.59v39.34c0,5.81,1.04,10.44,3.12,13.9,2.08,3.46,4.75,5.88,8.01,7.26,3.26,1.38,6.79,2.07,10.6,2.07,4.52,0,8.39-.98,11.62-2.95,3.23-1.96,5.69-4.71,7.39-8.23,1.7-3.52,2.55-7.54,2.55-12.06v-39.34Z"/>
    <path class="st1" d="M645.02,415.79c-.7,2.23-1.36,4.5-1.98,6.82-.62,2.32-1.22,4.65-1.8,7-.18.76-.5,2.14-.97,4.14h-.7c-.53-2.46-1.17-5.22-1.94-8.27-.76-3.05-1.56-5.95-2.38-8.71-.12-.23-.23-.56-.35-.97l-9.77-34.06h-9.77l18.48,61.6h11.97l18.83-61.6h-9.42l-10.21,34.06Z"/>
    <path class="st1" d="M717.18,381.74h-7.92l-4.75,52.01h-.7c0-.65-.06-1.55-.18-2.73-.06-2.58-.19-5.16-.4-7.74-.21-2.58-.48-5.07-.84-7.48l-3.61-27.72h-11.35l-3.87,27.72c-.59,4.05-1.06,9.3-1.41,15.75-.06.94-.09,1.67-.09,2.2h-.79l-4.49-52.01h-8.18l6.25,61.6h11.7l6-46.9h.8l5.6,46.9h11.7l6.51-61.6Z"/>
    <polygon class="st1" points="769.8 381.74 758.98 381.74 745.93 403.83 745.12 403.83 732.31 381.74 721.31 381.74 740.24 412.46 720.87 443.34 731.7 443.34 745.3 420.46 746.12 420.46 759.24 443.34 770.42 443.34 751.15 411.85 769.8 381.74"/>
    <polygon class="st1" points="798.94 406.73 798.1 406.73 784.85 381.74 774.11 381.74 793.65 416.26 793.65 435.68 778.6 435.68 778.6 443.34 818.2 443.34 818.2 435.68 803.15 435.68 803.15 416.28 822.78 381.74 812.22 381.74 798.94 406.73"/>
    <polygon class="st1" points="828.58 434.54 828.58 443.34 873.2 443.34 873.2 435.68 839.85 435.68 839.85 434.89 873.11 390.54 873.11 381.74 829.9 381.74 829.9 389.39 861.76 389.39 861.76 390.1 828.58 434.54"/>
    <path class="st1" d="M228.08,488.92h-.7c-1.23-1.94-2.9-3.49-5.02-4.66-2.11-1.17-4.63-1.76-7.57-1.76-3.52,0-6.7.98-9.55,2.95-2.85,1.97-5.1,4.71-6.78,8.23-1.67,3.52-2.51,7.42-2.51,11.7s.81,8.33,2.42,11.79c1.61,3.46,3.81,6.16,6.6,8.1,2.79,1.94,5.91,2.9,9.37,2.9,2.93,0,5.53-.62,7.79-1.85,2.26-1.23,4-2.82,5.24-4.75h.7v5.81h9.15v-44.09h-9.15v5.63ZM228.08,509.42c-.12,3.93-.95,6.73-2.51,8.4-1.55,1.67-4.12,2.51-7.7,2.51h-1.67c-3.58,0-6.15-.85-7.7-2.55-1.56-1.7-2.39-4.52-2.51-8.45-.06-2.76-.06-5.48,0-8.18.12-3.93.95-6.72,2.51-8.36,1.55-1.64,4.12-2.46,7.7-2.46h1.67c3.58,0,6.15.84,7.7,2.51,1.55,1.67,2.39,4.47,2.51,8.4.06,2.7.06,5.43,0,8.18Z"/>
    <path class="st1" d="M250.78,464.02v63.36h9.15v-5.54h.7c1.23,1.88,2.87,3.4,4.93,4.58,2.05,1.17,4.52,1.76,7.39,1.76,3.58,0,6.82-.98,9.72-2.95,2.9-1.96,5.19-4.69,6.86-8.18,1.67-3.49,2.51-7.41,2.51-11.75s-.82-8.17-2.46-11.66c-1.64-3.49-3.92-6.22-6.82-8.18-2.9-1.96-6.15-2.95-9.72-2.95-2.88,0-5.34.6-7.39,1.8-2.05,1.2-3.7,2.77-4.93,4.71h-.7v-24.99h-9.24ZM262.48,492.84c1.58-1.67,4.14-2.51,7.66-2.51h1.67c3.58,0,6.14.84,7.7,2.51,1.55,1.67,2.39,4.47,2.51,8.4.12,2.7.12,5.43,0,8.18-.12,3.93-.95,6.73-2.51,8.4-1.56,1.67-4.12,2.51-7.7,2.51h-1.67c-3.52,0-6.07-.84-7.66-2.51s-2.44-4.47-2.55-8.4c-.06-2.76-.06-5.48,0-8.18.12-3.93.97-6.73,2.55-8.4Z"/>
    <path class="st1" d="M312.51,525.44c3.2,1.94,6.85,2.9,10.96,2.9,3.75,0,7.19-.79,10.3-2.38,3.11-1.58,5.6-3.8,7.48-6.64,1.88-2.84,2.93-6.03,3.17-9.55h-9.59c-.18,2.7-.62,4.83-1.32,6.38-.7,1.55-1.77,2.67-3.21,3.34-1.44.67-3.36,1.01-5.76,1.01h-1.67c-3.7,0-6.34-.85-7.92-2.55-1.58-1.7-2.44-4.52-2.55-8.45-.06-2.82-.06-5.6,0-8.36.12-3.99.97-6.82,2.55-8.49s4.22-2.51,7.92-2.51h1.67c2.46,0,4.41.32,5.85.97,1.44.65,2.48,1.73,3.12,3.26.65,1.53,1.03,3.7,1.14,6.51h9.68c-.24-3.58-1.26-6.78-3.08-9.59-1.82-2.82-4.24-5.02-7.26-6.6-3.02-1.58-6.41-2.38-10.16-2.38-4.11,0-7.79.95-11.04,2.86-3.26,1.91-5.79,4.61-7.61,8.1-1.82,3.49-2.73,7.5-2.73,12.01s.88,8.52,2.64,12.01c1.76,3.49,4.24,6.2,7.44,8.14Z"/>
    <path class="st1" d="M363.64,525.22c2.9,1.97,6.14,2.95,9.72,2.95,2.87,0,5.35-.6,7.44-1.8,2.08-1.2,3.74-2.8,4.97-4.8h.7v5.81h9.15v-63.36h-9.24v24.73h-.7c-1.23-1.88-2.86-3.39-4.88-4.53-2.02-1.14-4.47-1.72-7.35-1.72-3.58,0-6.82.98-9.72,2.95-2.9,1.97-5.19,4.69-6.86,8.18-1.67,3.49-2.51,7.38-2.51,11.66s.82,8.26,2.46,11.75c1.64,3.49,3.92,6.22,6.82,8.18ZM364.39,501.24c.12-3.93.95-6.73,2.51-8.4,1.55-1.67,4.12-2.51,7.7-2.51h1.67c3.58,0,6.15.84,7.7,2.51,1.55,1.67,2.39,4.47,2.51,8.4.06,2.7.06,5.43,0,8.18-.12,3.93-.95,6.73-2.51,8.4-1.55,1.67-4.12,2.51-7.7,2.51h-1.67c-3.58,0-6.15-.84-7.7-2.51-1.56-1.67-2.39-4.47-2.51-8.4-.06-2.76-.06-5.48,0-8.18Z"/>
    <path class="st1" d="M441.3,485.71c-3.29-2.26-7.36-3.39-12.23-3.39-4.17,0-7.85.97-11.04,2.9-3.2,1.94-5.66,4.66-7.39,8.18-1.73,3.52-2.6,7.48-2.6,11.88s.88,8.54,2.64,12.06,4.24,6.23,7.44,8.14c3.2,1.91,6.82,2.86,10.87,2.86,3.46,0,6.64-.69,9.55-2.07,2.9-1.38,5.31-3.29,7.22-5.72,1.91-2.43,3.09-5.15,3.56-8.14h-9.42c-.41,3.11-1.32,5.27-2.73,6.47-1.41,1.2-3.78,1.8-7.13,1.8h-1.94c-3.7,0-6.31-.88-7.83-2.64-1.53-1.76-2.35-4.78-2.46-9.06,0-.41,0-.82-.01-1.23h31.87c.53-4.69.09-8.98-1.32-12.85s-3.76-6.94-7.04-9.2ZM420.31,492.44c1.55-1.64,4.15-2.46,7.79-2.46h2.02c3.58,0,6.13.82,7.66,2.46,1.52,1.64,2.29,4.43,2.29,8.36v.53h-22.27c0-.18,0-.35,0-.53.12-3.93.95-6.72,2.51-8.36Z"/>
    <path class="st1" d="M478.74,468.11c-2.85,2.73-4.27,6.5-4.27,11.31v3.87h-14.26v7.13h14.26v36.96h9.24v-36.96h18.92v-7.13h-18.92v-6.78c0-1.82.4-3.15,1.19-4,.79-.85,2.07-1.28,3.83-1.28h16.9v-7.22h-15.22c-4.93,0-8.82,1.36-11.66,4.09Z"/>
    <path class="st1" d="M543.86,534.15c-.62,1.47-1.73,2.54-3.34,3.21-1.61.67-3.98,1.01-7.08,1.01-2.35,0-4.21-.22-5.59-.66-1.38-.44-2.44-1.23-3.17-2.38-.73-1.14-1.13-2.77-1.19-4.88h-9.68c.18,2.99,1.17,5.68,2.99,8.05,1.82,2.38,4.21,4.21,7.17,5.5,2.96,1.29,6.2,1.94,9.72,1.94,3.93,0,7.44-.79,10.52-2.38s5.48-3.77,7.22-6.56c1.73-2.79,2.6-5.97,2.6-9.55v-44.18h-9.15v5.54h-.7c-1.23-1.94-2.88-3.48-4.93-4.62-2.05-1.14-4.52-1.72-7.39-1.72-3.58,0-6.82.98-9.72,2.95-2.9,1.97-5.19,4.69-6.86,8.18-1.67,3.49-2.51,7.38-2.51,11.66s.82,8.16,2.46,11.62c1.64,3.46,3.92,6.17,6.82,8.14,2.9,1.97,6.14,2.95,9.72,2.95,2.87,0,5.34-.59,7.39-1.76,2.05-1.17,3.7-2.73,4.93-4.66h.7v6.51c0,2.58-.31,4.6-.92,6.07ZM542.36,517.74c-1.55,1.67-4.12,2.51-7.7,2.51h-1.67c-3.58,0-6.15-.84-7.7-2.51-1.56-1.67-2.39-4.47-2.51-8.4-.06-2.7-.06-5.4,0-8.1.12-3.93.95-6.73,2.51-8.4,1.55-1.67,4.12-2.51,7.7-2.51h1.67c3.58,0,6.15.84,7.7,2.51,1.55,1.67,2.39,4.47,2.51,8.4.12,2.7.12,5.4,0,8.1-.12,3.93-.95,6.73-2.51,8.4Z"/>
    <path class="st1" d="M606.56,498.78c0-3.46-.66-6.44-1.98-8.93-1.32-2.49-3.11-4.37-5.37-5.63-2.26-1.26-4.8-1.89-7.61-1.89-3.58,0-6.64.92-9.2,2.77-1.5,1.08-2.71,2.42-3.65,4h-.79v-25.08h-9.24v63.36h9.24v-27.72c0-2.93.73-5.22,2.2-6.86,1.47-1.64,3.55-2.46,6.25-2.46h2.46c2.87,0,4.99.7,6.34,2.11,1.35,1.41,2.02,3.52,2.02,6.34v28.6h9.33v-28.6Z"/>
    <polygon class="st1" points="620.81 520.16 620.81 527.38 661.82 527.38 661.82 520.16 646.86 520.16 646.86 483.29 622.66 483.29 622.66 490.42 637.62 490.42 637.62 520.16 620.81 520.16"/>
    <rect class="st1" x="635.86" y="460.23" width="11.97" height="11.62"/>
    <path class="st1" d="M693.46,536.44c-.79.82-2.04,1.23-3.74,1.23h-17.51v7.3h15.75c5.04,0,8.98-1.36,11.79-4.09,2.82-2.73,4.22-6.53,4.22-11.4v-46.2h-27.46v7.13h18.13v42.24c0,1.7-.4,2.96-1.19,3.78Z"/>
    <rect class="st1" x="692.8" y="460.23" width="11.97" height="11.62"/>
    <polygon class="st1" points="767.51 483.29 755.81 483.29 737.71 500.98 736.89 500.98 736.89 464.02 727.65 464.02 727.65 527.38 736.89 527.38 736.89 508.19 738 508.19 756.95 527.38 769.36 527.38 745.96 504.06 767.51 483.29"/>
    <polygon class="st1" points="777.72 520.16 777.72 527.38 820.57 527.38 820.57 520.16 804.29 520.16 804.29 464.02 780.09 464.02 780.09 471.23 795.05 471.23 795.05 520.16 777.72 520.16"/>
    <path class="st1" d="M873.55,493.14c0-2.11-.38-3.99-1.14-5.63-.76-1.64-1.86-2.92-3.3-3.83-1.44-.91-3.12-1.36-5.06-1.36-2.23,0-4.17.59-5.81,1.76-1.21.87-2.17,2.04-2.87,3.52h-.87c-.45-1.23-1.12-2.26-2.03-3.08-1.61-1.46-3.62-2.2-6.03-2.2-2.11,0-3.9.57-5.37,1.72-1.13.88-2.05,2.07-2.76,3.56h-.85v-4.31h-7.92v44.09h8.36v-32.82c0-1.47.4-2.61,1.19-3.43.79-.82,2.04-1.23,3.74-1.23s2.95.41,3.74,1.23c.79.82,1.19,1.97,1.19,3.43v32.82h7.66v-32.82c0-1.47.4-2.61,1.19-3.43.79-.82,2.07-1.23,3.83-1.23s3.01.4,3.74,1.19c.73.79,1.1,1.95,1.1,3.48v32.82h8.27v-34.23Z"/>
    <path class="st1" d="M923.35,527.38v-28.6c0-3.46-.66-6.44-1.98-8.93-1.32-2.49-3.11-4.37-5.37-5.63-2.26-1.26-4.8-1.89-7.61-1.89-3.58,0-6.64.92-9.2,2.77-1.5,1.08-2.71,2.42-3.65,4h-.79v-5.81h-9.24v44.09h9.24v-27.72c0-2.93.73-5.22,2.2-6.86,1.47-1.64,3.55-2.46,6.25-2.46h2.46c2.87,0,4.99.7,6.34,2.11,1.35,1.41,2.02,3.52,2.02,6.34v28.6h9.33Z"/>
    <path class="st1" d="M967.79,485.18c-3.17-1.91-6.78-2.86-10.82-2.86s-7.76.95-10.96,2.86c-3.2,1.91-5.72,4.61-7.57,8.1-1.85,3.49-2.77,7.5-2.77,12.01s.89,8.52,2.68,12.01c1.79,3.49,4.27,6.2,7.44,8.14,3.17,1.94,6.78,2.9,10.82,2.9s7.69-.97,10.91-2.9c3.23-1.94,5.76-4.65,7.61-8.14,1.85-3.49,2.77-7.49,2.77-12.01s-.89-8.52-2.68-12.01c-1.79-3.49-4.27-6.19-7.44-8.1ZM967.88,509.51c-.12,3.93-.95,6.75-2.51,8.45-1.56,1.7-4.15,2.55-7.79,2.55h-1.58c-3.64,0-6.23-.85-7.79-2.55-1.56-1.7-2.39-4.52-2.51-8.45-.06-2.82-.06-5.6,0-8.36.12-3.99.95-6.82,2.51-8.49,1.55-1.67,4.15-2.51,7.79-2.51h1.58c3.64,0,6.23.84,7.79,2.51,1.55,1.67,2.39,4.5,2.51,8.49.12,2.76.12,5.54,0,8.36Z"/>
    <path class="st1" d="M990.15,483.29v61.69h9.24v-23.14h.7c1.23,1.94,2.84,3.48,4.84,4.62,1.99,1.14,4.4,1.72,7.22,1.72,3.58,0,6.8-.98,9.68-2.95,2.87-1.96,5.13-4.69,6.78-8.18,1.64-3.49,2.46-7.41,2.46-11.75s-.81-8.17-2.42-11.66c-1.61-3.49-3.86-6.22-6.73-8.18-2.88-1.96-6.1-2.95-9.68-2.95-2.82,0-5.25.6-7.3,1.8-2.05,1.2-3.7,2.8-4.93,4.8h-.7v-5.81h-9.15ZM1001.76,492.84c1.52-1.67,4.05-2.51,7.57-2.51h1.67c3.58,0,6.12.84,7.61,2.51s2.3,4.47,2.42,8.4c.12,2.7.12,5.43,0,8.18-.12,3.93-.92,6.73-2.42,8.4s-4.03,2.51-7.61,2.51h-1.67c-3.52,0-6.04-.84-7.57-2.51-1.53-1.67-2.35-4.47-2.46-8.4-.06-2.76-.06-5.48,0-8.18.12-3.93.94-6.73,2.46-8.4Z"/>
    <path class="st1" d="M1072.86,488.83h-.7c-1.23-1.94-2.88-3.48-4.93-4.62-2.05-1.14-4.52-1.72-7.39-1.72-3.58,0-6.82.98-9.72,2.95-2.9,1.97-5.19,4.69-6.86,8.18-1.67,3.49-2.51,7.38-2.51,11.66s.82,8.26,2.46,11.75c1.64,3.49,3.92,6.22,6.82,8.18,2.9,1.97,6.14,2.95,9.72,2.95,2.87,0,5.34-.6,7.39-1.8,2.05-1.2,3.7-2.77,4.93-4.71h.7v23.32h9.24v-61.69h-9.15v5.54ZM1072.86,509.42c-.12,3.93-.95,6.73-2.51,8.4-1.56,1.67-4.12,2.51-7.7,2.51h-1.67c-3.58,0-6.15-.84-7.7-2.51-1.55-1.67-2.39-4.47-2.51-8.4-.06-2.76-.06-5.48,0-8.18.12-3.93.95-6.73,2.51-8.4,1.55-1.67,4.12-2.51,7.7-2.51h1.67c3.58,0,6.14.84,7.7,2.51,1.55,1.67,2.39,4.47,2.51,8.4.06,2.7.06,5.43,0,8.18Z"/>
    <path class="st1" d="M430.83,578.42c1.94-2.23,4.81-3.34,8.62-3.34h11.09v-8.27h-7.04c-4.05,0-7.35.94-9.9,2.82-1.89,1.39-3.45,3.27-4.68,5.63h-.99v-7.92h-9.24v36.87h-11.26v7.22h41.1v-7.22h-20.59v-15.49c0-4.63.97-8.07,2.9-10.3Z"/>
    <path class="st1" d="M489.83,603.63c-1.5.79-3.95,1.19-7.35,1.19-2.64,0-4.69-.21-6.16-.62-1.47-.41-2.55-1.22-3.26-2.42-.7-1.2-1.11-2.98-1.23-5.32h-9.5c.23,3.11,1.25,5.88,3.04,8.32,1.79,2.43,4.14,4.31,7.04,5.63,2.9,1.32,6.17,1.98,9.81,1.98,3.34,0,6.44-.59,9.28-1.76,2.85-1.17,5.13-2.86,6.86-5.06,1.73-2.2,2.6-4.83,2.6-7.88,0-3.23-1.03-5.81-3.08-7.74-2.05-1.94-5.05-3.26-8.98-3.96l-11.26-1.85c-1.94-.35-3.27-.92-4-1.72-.73-.79-1.1-1.89-1.1-3.3,0-1.94.69-3.29,2.07-4.05,1.38-.76,3.68-1.14,6.91-1.14,2.46,0,4.38.22,5.76.66,1.38.44,2.39,1.19,3.04,2.24.65,1.06,1,2.55,1.06,4.49h9.24c-.29-2.87-1.29-5.46-2.99-7.74-1.7-2.29-3.96-4.06-6.78-5.32-2.82-1.26-5.87-1.89-9.15-1.89s-6.1.57-8.8,1.72c-2.7,1.14-4.88,2.79-6.56,4.93-1.67,2.14-2.51,4.62-2.51,7.44,0,3.05,1.04,5.56,3.12,7.52,2.08,1.97,4.97,3.27,8.67,3.92l10.74,1.76c2.17.41,3.67,1.01,4.49,1.8.82.79,1.23,1.95,1.23,3.48,0,2.35-.75,3.92-2.24,4.71Z"/>
    <path class="st1" d="M511.88,574.46h13.82v21.65c0,3.23.63,5.98,1.89,8.27,1.26,2.29,3.08,4.03,5.46,5.24,2.38,1.2,5.21,1.8,8.49,1.8h13.73v-7.22h-15.31c-1.7,0-2.95-.42-3.74-1.28-.79-.85-1.19-2.18-1.19-4v-24.46h19.36v-7.13h-19.36v-13.99h-9.33v13.99h-13.82v7.13Z"/>
    <path class="st1" d="M605.6,611.42v-44.09h-9.33v27.72c0,2.93-.72,5.22-2.16,6.86-1.44,1.64-3.45,2.46-6.03,2.46h-2.46c-2.82,0-4.9-.7-6.25-2.11-1.35-1.41-2.02-3.55-2.02-6.42v-28.51h-9.24v28.51c0,3.52.64,6.53,1.94,9.02,1.29,2.49,3.05,4.37,5.28,5.63,2.23,1.26,4.75,1.89,7.57,1.89,3.52,0,6.53-.92,9.02-2.77,1.46-1.09,2.66-2.42,3.61-4h.75v5.81h9.33Z"/>
    <polygon class="st1" points="634.02 611.42 645.72 611.42 661.91 567.33 652.41 567.33 640.53 602.44 639.83 602.44 628.21 567.33 618.18 567.33 634.02 611.42"/>
    <polygon class="st1" points="704.07 603.32 703.27 603.32 698.35 573.84 687.52 573.84 682.42 603.32 681.62 603.32 676.43 567.33 668.25 567.33 675.82 611.42 687.26 611.42 692.54 581.06 693.24 581.06 698.35 611.42 709.61 611.42 717.35 567.33 709.52 567.33 704.07 603.32"/>
    <polygon class="st1" points="766.99 567.33 756.69 567.33 746.14 581.85 745.21 581.85 734.95 567.33 724.22 567.33 740.17 588.71 723.69 611.42 734.16 611.42 745.22 595.67 746.21 595.67 756.69 611.42 767.51 611.42 751.17 588.52 766.99 567.33"/>
    <path class="st1" d="M790.44,621.05c-.73.5-1.8.75-3.21.75h-13.02v7.22h10.3c4.34,0,7.86-.97,10.56-2.9,2.7-1.94,4.81-5.02,6.34-9.24l18.92-49.54h-9.5l-11.53,32.91h-.79l-11.88-32.91h-10.03l18.13,45.35-2.37,5.69c-.53,1.29-1.16,2.18-1.89,2.68Z"/>
    <polygon class="st1" points="832.28 603.58 832.28 611.42 870.29 611.42 870.29 604.2 843.89 604.2 843.89 603.5 869.59 575.34 869.59 567.33 832.89 567.33 832.89 574.46 858.15 574.46 858.15 575.25 832.28 603.58"/>
    <path class="st1" d="M270.49,632.89c-4.87,0-9.01,1.22-12.41,3.65-3.4,2.44-6,6.01-7.79,10.74-1.79,4.72-2.68,10.52-2.68,17.38,0,10.27,1.99,18.13,5.98,23.58,3.99,5.46,9.62,8.18,16.9,8.18,4.87,0,8.99-1.2,12.36-3.61,3.37-2.41,5.94-5.97,7.7-10.69,1.76-4.72,2.64-10.54,2.64-17.47,0-10.38-1.97-18.27-5.9-23.67-3.93-5.4-9.53-8.1-16.81-8.1ZM258,655.86c.12-3.93.6-6.95,1.45-9.06.85-2.11,2.08-3.58,3.7-4.4,1.61-.82,3.77-1.23,6.47-1.23h1.58c2.7,0,4.87.41,6.51,1.23,1.64.82,2.87,2.29,3.7,4.4.1.26.2.54.29.83l-23.71,25.42c-.16-5.73-.16-11.46,0-17.19ZM282.81,673.46c-.12,3.93-.59,6.95-1.41,9.06-.82,2.11-2.05,3.58-3.7,4.4-1.64.82-3.81,1.23-6.51,1.23h-1.58c-2.7,0-4.85-.41-6.47-1.23-1.61-.82-2.85-2.29-3.7-4.4-.11-.27-.21-.56-.31-.86l23.68-25.4c.16,5.73.16,11.46,0,17.19Z"/>
    <polygon class="st1" points="332.18 633.86 320.48 633.86 304.99 647.32 304.99 658.15 321.57 643.89 322.77 643.89 322.68 687.8 304.2 687.8 304.2 695.46 346.97 695.46 346.97 687.8 332.18 687.8 332.18 633.86"/>
    <path class="st1" d="M367.56,686.9l16.63-15.38c4.52-4.17,7.8-7.8,9.86-10.91,2.05-3.11,3.05-6.39,2.99-9.86,0-3.4-.88-6.45-2.64-9.15-1.76-2.7-4.2-4.81-7.3-6.34-3.11-1.52-6.66-2.29-10.65-2.29s-7.58.81-10.78,2.42c-3.2,1.61-5.74,4.06-7.61,7.35-1.88,3.29-2.82,7.25-2.82,11.88h9.94c0-3.7.35-6.5,1.06-8.4.7-1.91,1.76-3.18,3.17-3.83,1.41-.64,3.31-.97,5.72-.97h1.94c3.28,0,5.7.76,7.26,2.29,1.55,1.53,2.33,3.81,2.33,6.86,0,2.76-.69,5.19-2.07,7.3-1.38,2.11-3.89,4.9-7.52,8.36l-21.3,19.89v9.33h41.62v-7.66h-29.83v-.9Z"/>
    <path class="st1" d="M439.54,664.04v-.7c2.93-1,5.28-2.7,7.04-5.1,1.76-2.41,2.64-5.16,2.64-8.27s-.9-5.97-2.68-8.58c-1.79-2.61-4.24-4.66-7.35-6.16-3.11-1.5-6.54-2.24-10.3-2.24s-7.39.87-10.56,2.6c-3.17,1.73-5.65,4.11-7.44,7.13-1.79,3.02-2.68,6.44-2.68,10.25h9.77c0-3.23.29-5.65.88-7.26.59-1.61,1.55-2.71,2.9-3.3,1.35-.58,3.34-.88,5.98-.88h1.67c2.46,0,4.37.28,5.72.84,1.35.56,2.32,1.53,2.9,2.9.59,1.38.88,3.3.88,5.76s-.28,4.25-.84,5.54c-.56,1.29-1.48,2.17-2.77,2.64-1.29.47-3.14.73-5.54.79l-6.34.09v7.83l6.51.09c2.87.06,5.04.35,6.51.88,1.47.53,2.51,1.45,3.12,2.77.62,1.32.92,3.27.92,5.85,0,2.82-.34,4.96-1.01,6.42-.67,1.47-1.79,2.49-3.34,3.08-1.56.59-3.8.88-6.73.88h-1.67c-2.88,0-5.08-.34-6.6-1.01-1.53-.67-2.6-1.91-3.21-3.7-.62-1.79-.92-4.5-.92-8.14h-9.94c0,4.17.92,7.89,2.77,11.18,1.85,3.29,4.44,5.81,7.79,7.57,3.34,1.76,7.16,2.64,11.44,2.64s7.8-.81,11.09-2.42c3.29-1.61,5.88-3.83,7.79-6.64,1.91-2.82,2.86-5.95,2.86-9.42s-1.01-6.51-3.04-8.98c-2.02-2.46-4.77-4.11-8.23-4.93Z"/>
    <path class="st1" d="M496.03,633.86h-12.06l-25.17,38.72v6.78h28.07l-.08,16.1h9.24v-16.1h8.62v-7.66h-8.62v-37.84ZM468.58,671.7l17.78-27.37h.7l-.14,27.37h-18.34Z"/>
    <path class="st1" d="M546.94,657.22c-2.96-1.79-6.23-2.68-9.81-2.68-3.11,0-5.93.69-8.45,2.07-1.62.89-2.95,1.99-3.99,3.3h-.89l2.36-18.39h26.9v-7.66h-35.02l-3.61,35.2h9.06c.76-2.29,1.91-3.9,3.43-4.84,1.52-.94,3.9-1.41,7.13-1.41h1.06c4.05,0,6.97.75,8.76,2.24,1.79,1.5,2.68,4.06,2.68,7.7v5.19c0,3.58-.87,6.16-2.6,7.74-1.73,1.58-4.62,2.38-8.67,2.38h-1.23c-2.93,0-5.22-.37-6.86-1.1-1.64-.73-2.83-1.99-3.56-3.78-.73-1.79-1.1-4.36-1.1-7.7h-9.86c0,4.05.97,7.67,2.9,10.87,1.94,3.2,4.58,5.68,7.92,7.44,3.34,1.76,7.07,2.64,11.18,2.64s7.73-.92,11.04-2.77c3.31-1.85,5.92-4.38,7.83-7.61,1.91-3.23,2.86-6.86,2.86-10.91s-.84-7.38-2.51-10.52c-1.67-3.14-3.99-5.6-6.95-7.39Z"/>
    <path class="st1" d="M599.61,658.32c-2.99-1.76-6.28-2.64-9.86-2.64-3.93,0-7.32.96-10.16,2.86-1.44.97-2.62,2.13-3.54,3.48h-.74c.1-3.63.33-6.69.68-9.15.5-3.52,1.63-6.34,3.39-8.45.94-1.17,2.08-1.98,3.43-2.42,1.35-.44,3.11-.66,5.28-.66,3.64,0,6.19.7,7.66,2.11,1.47,1.41,2.32,3.81,2.55,7.22h9.77c-.23-3.23-1.23-6.2-2.99-8.93-1.76-2.73-4.12-4.87-7.08-6.42-2.96-1.55-6.23-2.33-9.81-2.33-2.88,0-5.56.5-8.05,1.5-2.49,1-4.68,2.46-6.56,4.4-2.82,2.82-4.85,6.6-6.12,11.35-1.26,4.75-1.89,10.06-1.89,15.93s.62,10.68,1.85,14.78,3.11,7.39,5.63,9.86c1.82,1.88,3.96,3.29,6.42,4.22,2.46.94,5.16,1.41,8.1,1.41,4.22,0,7.99-.94,11.31-2.82,3.31-1.88,5.88-4.41,7.7-7.61,1.82-3.2,2.73-6.67,2.73-10.43s-.87-7.13-2.6-10.12c-1.73-2.99-4.09-5.37-7.08-7.13ZM599.08,679c0,3.23-.82,5.52-2.46,6.86-1.64,1.35-4.31,2.02-8.01,2.02h-1.76c-3.52,0-6.1-.72-7.74-2.16-1.64-1.44-2.55-3.62-2.73-6.56-.06-1.7-.15-3.46-.26-5.28-.06-3.4.78-5.88,2.51-7.44,1.73-1.55,4.47-2.33,8.23-2.33h1.76c3.7,0,6.36.67,8.01,2.02,1.64,1.35,2.46,3.61,2.46,6.78.06,2,.06,4.02,0,6.07Z"/>
    <path class="st1" d="M618.35,651.28h8.01v-9.77h27.28v.93c-6.07,6.32-10.89,13.65-14.43,22.04-3.81,9.04-6.22,19.36-7.22,30.98h9.68c.88-11.15,3.05-21,6.51-29.57,3.46-8.56,8.62-16.31,15.49-23.23v-8.8h-45.32v17.42Z"/>
    <path class="st1" d="M704.24,664.04v-.7c2.87-.7,5.16-2.3,6.86-4.8,1.7-2.49,2.55-5.29,2.55-8.4s-.94-6.07-2.82-8.71c-1.88-2.64-4.4-4.72-7.57-6.25-3.17-1.52-6.63-2.29-10.38-2.29s-7.13.75-10.3,2.24-5.71,3.56-7.61,6.2c-1.91,2.64-2.86,5.57-2.86,8.8s.87,5.97,2.6,8.4c1.73,2.44,4,4.03,6.82,4.8v.7c-3.4.82-6.13,2.54-8.18,5.15-2.05,2.61-3.08,5.62-3.08,9.02s.98,6.48,2.95,9.24c1.96,2.76,4.65,4.94,8.05,6.56,3.4,1.61,7.22,2.42,11.44,2.42s7.82-.79,11.31-2.38c3.49-1.58,6.28-3.77,8.36-6.56,2.08-2.79,3.12-5.91,3.12-9.37s-1.03-6.39-3.08-8.98c-2.05-2.58-4.78-4.28-8.18-5.1ZM682.06,647.76c.18-2.35.98-4,2.42-4.97,1.44-.97,3.68-1.45,6.73-1.45h3.17c3.05,0,5.31.48,6.78,1.45,1.47.97,2.29,2.63,2.46,4.97.06,1.06.06,2.46,0,4.22v1.06c-.12,2.41-.89,4.15-2.33,5.24-1.44,1.09-3.74,1.63-6.91,1.63h-3.17c-3.05,0-5.3-.51-6.73-1.54-1.44-1.03-2.24-2.68-2.42-4.97-.12-1.99-.12-3.87,0-5.63ZM705.3,680.67c-.18,2.58-1.1,4.44-2.77,5.59-1.67,1.14-4.27,1.72-7.79,1.72h-3.7c-3.58,0-6.2-.57-7.88-1.72-1.67-1.14-2.57-3.01-2.68-5.59-.12-2.23-.12-4.02,0-5.37.12-2.7,1.01-4.62,2.68-5.76s4.3-1.72,7.88-1.72h3.7c3.58,0,6.19.57,7.83,1.72,1.64,1.14,2.55,3.07,2.73,5.76.12,2.17.12,3.96,0,5.37Z"/>
    <path class="st1" d="M759.77,638.52c-1.82-1.88-3.96-3.29-6.42-4.22-2.46-.94-5.16-1.41-8.1-1.41-4.22,0-7.99.94-11.31,2.82-3.32,1.88-5.88,4.42-7.7,7.61-1.82,3.2-2.73,6.67-2.73,10.43s.87,7.13,2.6,10.12c1.73,2.99,4.09,5.37,7.08,7.13s6.28,2.64,9.86,2.64c3.93,0,7.32-.95,10.16-2.86,1.44-.97,2.62-2.13,3.54-3.48h.74c-.11,3.63-.33,6.69-.68,9.15-.5,3.52-1.63,6.34-3.39,8.45-.94,1.17-2.08,1.98-3.43,2.42-1.35.44-3.11.66-5.28.66-3.64,0-6.19-.7-7.66-2.11-1.47-1.41-2.32-3.81-2.55-7.22h-9.77c.23,3.23,1.23,6.2,2.99,8.93s4.12,4.87,7.08,6.42c2.96,1.55,6.23,2.33,9.81,2.33,2.87,0,5.56-.5,8.05-1.5,2.49-1,4.68-2.46,6.56-4.4,2.82-2.82,4.85-6.6,6.12-11.35,1.26-4.75,1.89-10.06,1.89-15.93s-.62-10.68-1.85-14.78c-1.23-4.11-3.11-7.39-5.63-9.86ZM744.19,665.18c-3.7,0-6.37-.67-8.01-2.02-1.64-1.35-2.46-3.61-2.46-6.78-.06-1.99-.06-4.02,0-6.07,0-3.23.82-5.51,2.46-6.86,1.64-1.35,4.31-2.02,8.01-2.02h1.76c3.52,0,6.1.72,7.74,2.16,1.64,1.44,2.55,3.62,2.73,6.56.06,1.7.15,3.46.26,5.28.06,3.4-.78,5.88-2.51,7.44-1.73,1.55-4.47,2.33-8.23,2.33h-1.76Z"/>
    <path class="st1" d="M816.09,651.37h-8.98v8.54h-8.54c-3.29,0-5.62-.6-7-1.8-1.38-1.2-2.07-3.24-2.07-6.12v-2.64c0-2.87.69-4.93,2.07-6.16,1.38-1.23,3.71-1.85,7-1.85h8.45v-7.48h-8.54c-3.4,0-6.54.69-9.42,2.07-2.88,1.38-5.18,3.29-6.91,5.72-1.73,2.43-2.6,5.18-2.6,8.23,0,3.34.98,6.25,2.95,8.71,1.72,2.16,3.82,3.62,6.29,4.39v.68c-1.95.47-3.74,1.26-5.32,2.42-1.85,1.35-3.3,3.08-4.36,5.19-1.06,2.11-1.58,4.4-1.58,6.86,0,3.29.91,6.26,2.73,8.93,1.82,2.67,4.33,4.74,7.52,6.2,3.2,1.47,6.79,2.2,10.78,2.2h17.51v-28.25h6.69v-7.3h-6.69v-8.54ZM807.11,688.07h-9.68c-3.58,0-6.12-.67-7.61-2.02-1.5-1.35-2.24-3.64-2.24-6.86v-3.17c0-3.17.73-5.43,2.2-6.78,1.47-1.35,4.02-2.02,7.66-2.02h9.68v20.86Z"/>
    <polygon class="st1" points="865.03 633.86 851.71 658.85 850.87 658.85 837.66 633.86 826.92 633.86 844.25 664.48 830.88 664.48 830.88 671.17 846.46 671.17 846.46 676.89 830.88 676.89 830.88 683.58 846.46 683.58 846.46 695.46 855.96 695.46 855.96 683.58 871.54 683.58 871.54 676.89 855.96 676.89 855.96 671.17 871.54 671.17 871.54 664.48 858.12 664.48 875.59 633.86 865.03 633.86"/>
    <path class="st1" d="M922.53,665.58c-2.9-2.49-7.08-4.21-12.54-5.15l-2.02-.36v-16.85c1.64.16,3,.49,4.05.97,1.58.73,2.68,1.88,3.3,3.43.62,1.56.98,3.74,1.1,6.56h9.42c-.18-3.64-1.19-6.91-3.04-9.81-1.85-2.9-4.42-5.16-7.7-6.78-2.18-1.07-4.56-1.78-7.13-2.14v-7.76h-6.86v7.62c-2.69.27-5.21.94-7.57,2.01-3.17,1.44-5.68,3.46-7.52,6.07-1.85,2.61-2.77,5.62-2.77,9.02,0,3.99,1.39,7.25,4.18,9.77,2.79,2.52,6.76,4.22,11.92,5.1l1.76.31v18.5c-2.02-.18-3.68-.6-4.97-1.26-1.79-.91-3.05-2.29-3.78-4.14-.73-1.85-1.16-4.27-1.28-7.26h-9.5c.12,3.93,1.16,7.48,3.12,10.65,1.96,3.17,4.68,5.63,8.14,7.39,2.52,1.28,5.28,2.09,8.27,2.44v7.68h6.86v-7.68c2.75-.32,5.35-1.02,7.79-2.13,3.43-1.55,6.14-3.74,8.14-6.56,1.99-2.82,2.99-6.04,2.99-9.68,0-4.17-1.45-7.49-4.36-9.99ZM894.46,656.43c-1.38-1.08-2.07-2.77-2.07-5.06v-.97c0-1.7.38-3.08,1.14-4.14.76-1.06,1.92-1.85,3.48-2.38,1.12-.38,2.49-.62,4.09-.73v15.68c-3.12-.58-5.34-1.38-6.64-2.41ZM917.03,678.12c0,2.88-.85,4.94-2.55,6.2-1.41,1.04-3.59,1.65-6.51,1.83v-17.3c3.31.69,5.64,1.58,6.95,2.67,1.41,1.17,2.11,3.02,2.11,5.54v1.06Z"/>
    <path class="st1" d="M953.64,642.57c1.35-.82,3.17-1.23,5.46-1.23h1.67c2.7,0,4.72.46,6.07,1.36,1.35.91,2.27,2.52,2.77,4.84.5,2.32.78,5.76.84,10.34h10.03c-.12-5.22-1.04-9.71-2.77-13.46-1.73-3.75-4.11-6.61-7.13-8.58-3.02-1.96-6.59-2.95-10.69-2.95-4.4,0-8.18,1.23-11.35,3.7s-5.6,6.06-7.3,10.78c-.82,2.27-1.43,4.78-1.86,7.52h-6.68v6.69h6.05c-.04,1-.07,2.03-.07,3.08,0,.88.03,1.71.06,2.55h-6.04v6.69h6.6c.82,5.87,2.46,10.66,4.97,14.34,3.72,5.46,8.93,8.18,15.62,8.18,4.05,0,7.6-.98,10.65-2.95,3.05-1.96,5.44-4.82,7.17-8.58,1.73-3.75,2.65-8.21,2.77-13.38h-10.03c-.06,4.58-.34,7.99-.84,10.25-.5,2.26-1.42,3.86-2.77,4.8s-3.37,1.41-6.07,1.41h-1.67c-2.29,0-4.11-.41-5.46-1.23-1.35-.82-2.39-2.27-3.12-4.36-.71-2-1.12-4.84-1.26-8.49h11.42l1.14-6.69h-12.73c-.01-1.95,0-3.81.02-5.63h13.77l1.23-6.69h-14.83c.16-3.4.56-6.06,1.24-7.96.73-2.08,1.77-3.53,3.12-4.36Z"/>
    <path class="st1" d="M1021.67,663.73v-.82c2.49-.67,4.58-2.02,6.29-4.06,1.96-2.35,2.95-5.1,2.95-8.27,0-2.93-.87-5.56-2.6-7.88-1.73-2.32-4.03-4.14-6.91-5.46-1.35-.62-2.76-1.09-4.22-1.42v-8.13h-6.86v7.57h-6.95v-7.57h-6.86v7.57h-7.39v58.78h7.57v7.57h6.86v-7.57h6.95v7.57h6.86v-8.06c1.88-.35,3.66-.89,5.32-1.62,3.2-1.41,5.71-3.37,7.52-5.9,1.82-2.52,2.73-5.34,2.73-8.45,0-3.64-1.16-6.75-3.48-9.33-2.09-2.32-4.68-3.83-7.79-4.54ZM1020.04,645.83c.62,1.06.92,2.46.92,4.22v2.99c0,2.46-.69,4.22-2.07,5.28-1.38,1.06-3.71,1.58-7,1.58h-13.55v-17.16h13.55c2.23,0,3.99.25,5.28.75,1.29.5,2.24,1.28,2.86,2.33ZM1022.9,678.38c0,2.93-.75,5.03-2.24,6.29-1.5,1.26-4.03,1.89-7.61,1.89h-14.7v-19.36h14.7c3.7,0,6.26.59,7.7,1.76,1.44,1.17,2.16,3.17,2.16,5.98v3.43Z"/>
  </g>
</svg>