<?xml version="1.0" encoding="UTF-8"?>
<svg id="Layer_1" xmlns="http://www.w3.org/2000/svg" version="1.1" viewBox="0 0 1280 800">
  <!-- Generator: Adobe Illustrator 29.8.2, SVG Export Plug-In . SVG Version: 2.1.1 Build 3)  -->
  <defs>
    <style>
      .st0 {
        fill: #fbfbfb;
      }
    </style>
  </defs>
  <rect class="st0" width="1280" height="800"/>
  <g>
    <polygon points="110.42 192.73 158.47 192.73 158.47 182.44 110.42 182.44 110.42 151.29 152.53 151.29 152.53 140.99 110.42 140.99 110.42 110.63 156.49 110.63 156.49 100.33 110.42 100.33 106.2 100.33 98.02 100.33 98.02 192.73 106.2 192.73 110.42 192.73"/>
    <path d="M186.59,189.37c4.4,2.95,9.33,4.42,14.78,4.42,4.4,0,8.14-.9,11.22-2.71,3.08-1.8,5.59-4.16,7.52-7.06h1.06v8.71h11.88v-95.04h-11.88v37.36h-1.06c-1.94-2.82-4.44-5.08-7.52-6.8-3.08-1.72-6.82-2.57-11.22-2.57-5.46,0-10.38,1.47-14.78,4.42-4.4,2.95-7.85,7.02-10.36,12.21-2.51,5.19-3.76,11-3.76,17.42s1.25,12.23,3.76,17.42c2.51,5.19,5.96,9.26,10.36,12.21ZM185.27,154.19c.18-6.34,1.54-10.84,4.09-13.53,2.55-2.68,6.73-4.03,12.54-4.03h2.64c5.89,0,10.12,1.34,12.67,4.03,2.55,2.69,3.92,7.19,4.09,13.53.18,3.7.18,7.39,0,11.09-.18,6.34-1.54,10.85-4.09,13.53-2.55,2.69-6.78,4.03-12.67,4.03h-2.64c-5.81,0-9.99-1.34-12.54-4.03-2.55-2.68-3.92-7.19-4.09-13.53-.09-3.7-.09-7.39,0-11.09Z"/>
    <path d="M265.79,189.24c4.4,2.95,9.33,4.42,14.78,4.42,4.4,0,8.14-.88,11.22-2.64,3.08-1.76,5.59-4.09,7.52-7h1.06v9.11c0,4.22-.51,7.52-1.52,9.9-1.01,2.38-2.84,4.11-5.48,5.21-2.64,1.1-6.47,1.65-11.48,1.65-3.78,0-6.8-.35-9.04-1.06-2.24-.71-3.96-1.96-5.15-3.76-1.19-1.8-1.83-4.42-1.91-7.85h-12.41c.18,4.4,1.58,8.38,4.22,11.95,2.64,3.56,6.14,6.34,10.49,8.32s9.13,2.97,14.32,2.97c5.72,0,10.84-1.21,15.38-3.63,4.53-2.42,8.07-5.76,10.63-10.03,2.55-4.27,3.83-9.09,3.83-14.45v-65.6h-11.88v8.32h-1.06c-1.94-2.82-4.44-5.08-7.52-6.8-3.08-1.72-6.82-2.57-11.22-2.57-5.46,0-10.38,1.47-14.78,4.42-4.4,2.95-7.85,7.02-10.36,12.21-2.51,5.19-3.76,11-3.76,17.42s1.25,12.21,3.76,17.36,5.96,9.2,10.36,12.14ZM264.47,154.19c.18-6.34,1.54-10.84,4.09-13.53,2.55-2.68,6.73-4.03,12.54-4.03h2.64c5.89,0,10.12,1.34,12.67,4.03,2.55,2.69,3.92,7.19,4.09,13.53.18,3.7.18,7.39,0,11.09-.18,6.34-1.54,10.87-4.09,13.6-2.55,2.73-6.78,4.09-12.67,4.09h-2.64c-5.81,0-9.99-1.36-12.54-4.09-2.55-2.73-3.92-7.26-4.09-13.6-.09-3.7-.09-7.39,0-11.09Z"/>
    <path d="M347.23,189.76c4.66,2.86,9.94,4.29,15.84,4.29,5.02,0,9.64-1.01,13.86-3.04,4.22-2.02,7.74-4.84,10.56-8.45,2.81-3.61,4.57-7.66,5.28-12.14h-12.14c-.62,4.84-2.07,8.18-4.36,10.03-2.29,1.85-6.12,2.77-11.48,2.77h-3.04c-5.99,0-10.21-1.41-12.67-4.22-2.46-2.82-3.83-7.7-4.09-14.65,0-.4,0-.79-.01-1.19h48.33c.79-6.78.22-13.02-1.72-18.74-1.94-5.72-5.3-10.32-10.1-13.79-4.8-3.48-10.85-5.21-18.15-5.21-6.16,0-11.57,1.47-16.24,4.42-4.67,2.95-8.27,7.04-10.82,12.28-2.55,5.24-3.83,11.11-3.83,17.62s1.3,12.65,3.89,17.89c2.59,5.24,6.22,9.29,10.89,12.14ZM349.14,140.2c2.51-2.64,6.71-3.96,12.61-3.96h3.3c5.72,0,9.81,1.32,12.28,3.96,2.46,2.64,3.7,7.13,3.7,13.46v.26h-36.04c0-.09,0-.18,0-.26.26-6.34,1.65-10.82,4.16-13.46Z"/>
    <path d="M521.6,194.05c6.42,0,12.03-1.45,16.83-4.36,4.79-2.9,8.58-7.13,11.35-12.67,2.77-5.54,4.29-12.1,4.55-19.67h-12.67c-.09,6.78-.64,11.93-1.65,15.44-1.01,3.52-2.82,6.01-5.41,7.46-2.6,1.45-6.45,2.18-11.55,2.18h-2.64c-4.4,0-7.92-.66-10.56-1.98-2.64-1.32-4.67-3.67-6.07-7.06-1.41-3.39-2.2-8.2-2.38-14.45-.26-5.98-.31-12.72-.13-20.2.09-1.58.13-3.12.13-4.62.18-6.25.97-11.07,2.38-14.45,1.41-3.39,3.43-5.74,6.07-7.06s6.16-1.98,10.56-1.98h2.64c5.1,0,8.95.75,11.55,2.24,2.59,1.5,4.4,4.01,5.41,7.52,1.01,3.52,1.56,8.71,1.65,15.58h12.8c-.18-7.66-1.63-14.26-4.36-19.8-2.73-5.54-6.53-9.79-11.42-12.74-4.88-2.95-10.58-4.42-17.09-4.42-7.04,0-13.11,1.85-18.22,5.54-5.1,3.7-9,9.09-11.68,16.17-2.69,7.08-4.03,15.69-4.03,25.81,0,15.31,2.99,27.06,8.98,35.24,5.98,8.18,14.3,12.28,24.95,12.28Z"/>
    <path d="M584.23,189.7c4.62,2.9,9.92,4.36,15.91,4.36s11.22-1.45,15.97-4.36c4.75-2.9,8.47-6.95,11.15-12.14,2.68-5.19,4.03-11.13,4.03-17.82s-1.3-12.63-3.89-17.82c-2.6-5.19-6.23-9.24-10.89-12.14-4.67-2.9-9.95-4.36-15.84-4.36s-11.33,1.45-16.04,4.36c-4.71,2.9-8.4,6.95-11.09,12.14-2.69,5.19-4.03,11.13-4.03,17.82s1.3,12.63,3.89,17.82c2.59,5.19,6.2,9.24,10.82,12.14ZM582.32,154.19c.18-6.42,1.54-11,4.09-13.73,2.55-2.73,6.78-4.09,12.67-4.09h2.64c5.89,0,10.12,1.37,12.67,4.09,2.55,2.73,3.92,7.31,4.09,13.73.18,3.7.18,7.39,0,11.09-.18,6.42-1.54,11-4.09,13.73-2.55,2.73-6.78,4.09-12.67,4.09h-2.64c-5.9,0-10.12-1.36-12.67-4.09-2.55-2.73-3.92-7.3-4.09-13.73-.09-3.7-.09-7.39,0-11.09Z"/>
    <path d="M658.88,143.37c0-2.29.64-4.09,1.91-5.41,1.27-1.32,3.32-1.98,6.14-1.98s4.86.66,6.14,1.98c1.27,1.32,1.91,3.12,1.91,5.41v49.37h10.56v-49.37c0-2.29.64-4.09,1.91-5.41,1.27-1.32,3.37-1.98,6.27-1.98s4.95.64,6.14,1.91c1.19,1.28,1.78,3.1,1.78,5.48v49.37h11.09v-50.95c0-3.17-.59-5.98-1.78-8.45-1.19-2.46-2.88-4.4-5.08-5.81-2.2-1.41-4.75-2.11-7.66-2.11-3.26,0-6.12.84-8.58,2.51-1.82,1.24-3.28,2.91-4.38,5.02h-1.4c-.69-1.68-1.66-3.09-2.93-4.22-2.46-2.2-5.5-3.3-9.11-3.3-2.99,0-5.59.79-7.79,2.38-1.71,1.23-3.16,2.95-4.34,5.15h-1.21v-6.2h-10.69v66h11.09v-49.37Z"/>
    <path d="M776.55,130.1c-4.36-2.95-9.26-4.42-14.72-4.42-4.31,0-7.99.9-11.02,2.71-3.04,1.8-5.52,4.16-7.46,7.06h-1.06v-8.71h-11.88v92.4h11.88v-34.72h1.06c1.93,2.82,4.42,5.08,7.46,6.8,3.04,1.72,6.71,2.57,11.02,2.57,5.46,0,10.36-1.47,14.72-4.42,4.36-2.95,7.77-7.02,10.23-12.21,2.46-5.19,3.7-11,3.7-17.42s-1.23-12.23-3.7-17.42c-2.46-5.19-5.87-9.26-10.23-12.21ZM777.67,165.28c-.18,6.34-1.5,10.85-3.96,13.53-2.46,2.69-6.6,4.03-12.41,4.03h-2.64c-5.81,0-9.97-1.34-12.47-4.03-2.51-2.68-3.85-7.19-4.03-13.53-.09-3.7-.09-7.39,0-11.09.18-6.34,1.52-10.84,4.03-13.53,2.51-2.68,6.67-4.03,12.47-4.03h2.64c5.81,0,9.94,1.34,12.41,4.03,2.46,2.69,3.78,7.19,3.96,13.53.18,3.7.18,7.39,0,11.09Z"/>
    <path d="M821.1,191.15c3.43,1.93,7.26,2.9,11.48,2.9,5.28,0,9.83-1.39,13.66-4.16,2.16-1.57,3.94-3.49,5.36-5.74h1.18v8.58h11.88v-66h-11.88v41.32c0,4.75-1.19,8.45-3.56,11.09-2.38,2.64-5.68,3.96-9.9,3.96h-3.96c-4.58,0-7.97-1.12-10.16-3.37-2.2-2.24-3.3-5.65-3.3-10.23v-42.77h-11.88v41.71c0,5.46.99,10.12,2.97,13.99,1.98,3.87,4.69,6.78,8.12,8.71Z"/>
    <path d="M905.05,169.63c0,4.84.9,9,2.71,12.47,1.8,3.48,4.44,6.12,7.92,7.92,3.48,1.8,7.63,2.71,12.47,2.71h19.93v-9.77h-23.36c-2.64,0-4.6-.68-5.87-2.05-1.28-1.36-1.91-3.45-1.91-6.27v-38.15h29.83v-9.77h-29.83v-21.12h-11.88v21.12h-21.38v9.77h21.38v33.13Z"/>
    <rect x="990.98" y="92.41" width="16.1" height="16.63"/>
    <polygon points="1005.63 126.73 970.92 126.73 970.92 136.5 993.75 136.5 993.75 182.97 968.54 182.97 968.54 192.73 1028.47 192.73 1028.47 182.97 1005.63 182.97 1005.63 126.73"/>
    <path d="M1060.55,151.42c0-4.75,1.21-8.45,3.63-11.09,2.42-2.64,5.79-3.96,10.1-3.96h3.96c4.66,0,8.12,1.12,10.36,3.37,2.24,2.24,3.37,5.66,3.37,10.23v42.77h11.88v-41.71c0-5.46-1.01-10.12-3.04-13.99-2.02-3.87-4.75-6.78-8.18-8.71-3.43-1.93-7.31-2.9-11.62-2.9-5.37,0-9.99,1.39-13.86,4.16-2.19,1.57-3.98,3.49-5.41,5.74h-1.19v-8.58h-11.88v66h11.88v-41.32Z"/>
    <path d="M1136.97,189.24c4.4,2.95,9.33,4.42,14.78,4.42,4.4,0,8.14-.88,11.22-2.64,3.08-1.76,5.59-4.09,7.52-7h1.06v9.11c0,4.22-.51,7.52-1.52,9.9-1.01,2.38-2.84,4.11-5.48,5.21-2.64,1.1-6.47,1.65-11.48,1.65-3.78,0-6.8-.35-9.04-1.06-2.24-.71-3.96-1.96-5.15-3.76-1.19-1.8-1.83-4.42-1.91-7.85h-12.41c.17,4.4,1.58,8.38,4.22,11.95,2.64,3.56,6.14,6.34,10.49,8.32,4.36,1.98,9.13,2.97,14.32,2.97,5.72,0,10.84-1.21,15.38-3.63,4.53-2.42,8.07-5.76,10.63-10.03,2.55-4.27,3.83-9.09,3.83-14.45v-65.6h-11.88v8.32h-1.06c-1.94-2.82-4.44-5.08-7.52-6.8-3.08-1.72-6.82-2.57-11.22-2.57-5.46,0-10.38,1.47-14.78,4.42-4.4,2.95-7.85,7.02-10.36,12.21-2.51,5.19-3.76,11-3.76,17.42s1.25,12.21,3.76,17.36,5.96,9.2,10.36,12.14ZM1135.65,154.19c.18-6.34,1.54-10.84,4.09-13.53,2.55-2.68,6.73-4.03,12.54-4.03h2.64c5.89,0,10.12,1.34,12.67,4.03,2.55,2.69,3.91,7.19,4.09,13.53.17,3.7.17,7.39,0,11.09-.18,6.34-1.54,10.87-4.09,13.6-2.55,2.73-6.78,4.09-12.67,4.09h-2.64c-5.81,0-9.99-1.36-12.54-4.09-2.55-2.73-3.92-7.26-4.09-13.6-.09-3.7-.09-7.39,0-11.09Z"/>
    <path d="M134.05,268.77l-12.28-2.24c-5.28-.97-9-2.44-11.15-4.42-2.16-1.98-3.23-5.08-3.23-9.31v-1.58c0-4.57,1.23-7.9,3.7-9.97,2.46-2.07,6.38-3.1,11.75-3.1h3.56c4.66,0,8.25.64,10.76,1.91,2.51,1.28,4.31,3.26,5.41,5.94,1.1,2.69,1.74,6.4,1.91,11.15h12.67c-.18-5.81-1.63-11-4.36-15.58-2.73-4.57-6.51-8.14-11.35-10.69-4.84-2.55-10.3-3.83-16.37-3.83-5.46,0-10.49,1.12-15.11,3.37s-8.3,5.41-11.02,9.5c-2.73,4.09-4.09,8.82-4.09,14.19,0,6.42,2.11,11.68,6.34,15.77,4.22,4.09,10.12,6.84,17.69,8.25l11.35,2.11c5.63,1.06,9.57,2.66,11.81,4.82,2.24,2.16,3.37,5.48,3.37,9.97v1.72c0,5.02-1.32,8.65-3.96,10.89-2.64,2.24-6.95,3.37-12.94,3.37h-3.83c-4.93,0-8.76-.79-11.48-2.38-2.73-1.58-4.69-3.91-5.87-7-1.19-3.08-1.87-7.13-2.05-12.14h-12.94c.18,6.25,1.72,11.86,4.62,16.83,2.9,4.97,6.88,8.84,11.95,11.62,5.06,2.77,10.8,4.16,17.23,4.16,5.98,0,11.48-1.23,16.5-3.7,5.02-2.46,8.98-5.89,11.88-10.3,2.9-4.4,4.36-9.42,4.36-15.05,0-6.69-2.16-12.06-6.47-16.1-4.31-4.05-10.43-6.77-18.35-8.18Z"/>
    <path d="M232.66,279.06c0-5.46-1.01-10.12-3.04-13.99-2.03-3.87-4.75-6.78-8.18-8.71-3.43-1.93-7.31-2.9-11.62-2.9-5.37,0-9.99,1.39-13.86,4.16-2.19,1.57-3.98,3.49-5.41,5.74h-1.19v-37.62h-11.88v95.04h11.88v-41.32c0-4.75,1.21-8.45,3.63-11.09,2.42-2.64,5.79-3.96,10.1-3.96h3.96c4.66,0,8.12,1.12,10.36,3.37s3.37,5.66,3.37,10.23v42.77h11.88v-41.71Z"/>
    <path d="M265.26,317.47c4.22,2.9,8.98,4.36,14.26,4.36,4.49,0,8.45-.92,11.88-2.77,3.43-1.85,6.07-4.18,7.92-7h1.06v8.71h11.88v-66h-11.88v8.45h-1.06c-1.94-2.82-4.51-5.1-7.72-6.86-3.21-1.76-7.02-2.64-11.42-2.64-5.37,0-10.21,1.47-14.52,4.42-4.31,2.95-7.72,7.04-10.23,12.28-2.51,5.24-3.76,11.07-3.76,17.49s1.21,12.34,3.63,17.49c2.42,5.15,5.74,9.17,9.97,12.08ZM264.47,282.1c.18-6.34,1.54-10.82,4.09-13.46,2.55-2.64,6.73-3.96,12.54-3.96h2.64c5.89,0,10.12,1.34,12.67,4.03,2.55,2.69,3.92,7.19,4.09,13.53.18,3.7.18,7.39,0,11.09-.18,6.34-1.54,10.85-4.09,13.53-2.55,2.69-6.78,4.03-12.67,4.03h-2.64c-5.81,0-9.99-1.36-12.54-4.09-2.55-2.73-3.92-7.26-4.09-13.6-.09-3.7-.09-7.39,0-11.09Z"/>
    <path d="M344.98,317.41c4.4,2.95,9.33,4.42,14.78,4.42,4.4,0,8.14-.9,11.22-2.71,3.08-1.8,5.59-4.16,7.52-7.06h1.06v8.71h11.88v-95.04h-11.88v37.36h-1.06c-1.94-2.82-4.44-5.08-7.52-6.8-3.08-1.72-6.82-2.57-11.22-2.57-5.46,0-10.38,1.47-14.78,4.42-4.4,2.95-7.85,7.02-10.36,12.21-2.51,5.19-3.76,11-3.76,17.42s1.25,12.23,3.76,17.42c2.51,5.19,5.96,9.26,10.36,12.21ZM343.66,282.23c.18-6.34,1.54-10.84,4.09-13.53,2.55-2.68,6.73-4.03,12.54-4.03h2.64c5.89,0,10.12,1.34,12.67,4.03,2.55,2.69,3.92,7.19,4.09,13.53.18,3.7.18,7.39,0,11.09-.18,6.34-1.54,10.85-4.09,13.53-2.55,2.69-6.78,4.03-12.67,4.03h-2.64c-5.81,0-9.99-1.34-12.54-4.03-2.55-2.68-3.92-7.19-4.09-13.53-.09-3.7-.09-7.39,0-11.09Z"/>
    <path d="M425.83,317.74c4.62,2.9,9.92,4.36,15.91,4.36s11.22-1.45,15.97-4.36c4.75-2.9,8.47-6.95,11.15-12.14,2.68-5.19,4.03-11.13,4.03-17.82s-1.3-12.63-3.89-17.82c-2.6-5.19-6.23-9.24-10.89-12.14-4.67-2.9-9.95-4.36-15.84-4.36s-11.33,1.45-16.04,4.36c-4.71,2.9-8.4,6.95-11.09,12.14-2.69,5.19-4.03,11.13-4.03,17.82s1.3,12.63,3.89,17.82c2.59,5.19,6.2,9.24,10.82,12.14ZM423.92,282.23c.18-6.42,1.54-11,4.09-13.73,2.55-2.73,6.78-4.09,12.67-4.09h2.64c5.89,0,10.12,1.37,12.67,4.09,2.55,2.73,3.92,7.31,4.09,13.73.18,3.7.18,7.39,0,11.09-.18,6.42-1.54,11-4.09,13.73-2.55,2.73-6.78,4.09-12.67,4.09h-2.64c-5.9,0-10.12-1.36-12.67-4.09-2.55-2.73-3.92-7.3-4.09-13.73-.09-3.7-.09-7.39,0-11.09Z"/>
    <polygon points="537.97 309.69 536.91 309.69 528.86 265.33 513.81 265.33 505.49 309.69 504.44 309.69 495.86 254.77 484.77 254.77 496.91 320.77 512.23 320.77 520.81 275.89 521.86 275.89 530.18 320.77 545.23 320.77 557.63 254.77 546.94 254.77 537.97 309.69"/>
    <polygon points="710.88 238.67 710.88 228.37 664.82 228.37 660.59 228.37 652.41 228.37 652.41 320.77 660.59 320.77 664.82 320.77 712.86 320.77 712.86 310.48 664.82 310.48 664.82 279.33 706.92 279.33 706.92 269.03 664.82 269.03 664.82 238.67 710.88 238.67"/>
    <path d="M775.56,304.54c-1.14,2.38-2.88,4.07-5.21,5.08-2.33,1.01-5.48,1.52-9.44,1.52h-2.64c-5.99,0-10.28-1.36-12.87-4.09-2.6-2.73-3.98-7.3-4.16-13.73-.09-3.7-.09-7.39,0-11.09.18-6.42,1.56-11,4.16-13.73,2.59-2.73,6.88-4.09,12.87-4.09h2.64c4.05,0,7.24.51,9.57,1.52,2.33,1.01,4.03,2.69,5.08,5.02,1.06,2.33,1.67,5.61,1.85,9.83h12.28c-.26-5.19-1.74-9.88-4.42-14.06-2.69-4.18-6.23-7.44-10.63-9.77-4.4-2.33-9.33-3.5-14.78-3.5-5.99,0-11.38,1.45-16.17,4.36-4.8,2.9-8.54,6.95-11.22,12.14-2.68,5.19-4.03,11.13-4.03,17.82s1.3,12.63,3.89,17.82c2.59,5.19,6.25,9.24,10.96,12.14,4.71,2.9,10.05,4.36,16.04,4.36,5.46,0,10.45-1.17,14.98-3.5,4.53-2.33,8.18-5.59,10.96-9.77,2.77-4.18,4.29-8.86,4.55-14.06h-12.14c-.26,4.14-.97,7.39-2.11,9.77Z"/>
    <path d="M821.83,317.74c4.62,2.9,9.92,4.36,15.91,4.36s11.22-1.45,15.97-4.36c4.75-2.9,8.47-6.95,11.15-12.14,2.68-5.19,4.03-11.13,4.03-17.82s-1.3-12.63-3.89-17.82c-2.6-5.19-6.23-9.24-10.89-12.14-4.67-2.9-9.95-4.36-15.84-4.36s-11.33,1.45-16.04,4.36c-4.71,2.9-8.41,6.95-11.09,12.14-2.69,5.19-4.03,11.13-4.03,17.82s1.3,12.63,3.89,17.82c2.59,5.19,6.2,9.24,10.82,12.14ZM819.91,282.23c.18-6.42,1.54-11,4.09-13.73,2.55-2.73,6.78-4.09,12.67-4.09h2.64c5.89,0,10.12,1.37,12.67,4.09,2.55,2.73,3.92,7.31,4.09,13.73.18,3.7.18,7.39,0,11.09-.18,6.42-1.54,11-4.09,13.73-2.55,2.73-6.78,4.09-12.67,4.09h-2.64c-5.9,0-10.12-1.36-12.67-4.09-2.55-2.73-3.92-7.3-4.09-13.73-.09-3.7-.09-7.39,0-11.09Z"/>
    <path d="M945.44,320.77v-41.71c0-5.46-1.01-10.12-3.04-13.99-2.02-3.87-4.75-6.78-8.18-8.71-3.43-1.93-7.31-2.9-11.62-2.9-5.37,0-9.99,1.39-13.86,4.16-2.19,1.57-3.98,3.49-5.41,5.74h-1.19v-8.58h-11.88v66h11.88v-41.32c0-4.75,1.21-8.45,3.63-11.09,2.42-2.64,5.79-3.96,10.1-3.96h3.96c4.66,0,8.12,1.12,10.36,3.37,2.24,2.24,3.37,5.66,3.37,10.23v42.77h11.88Z"/>
    <path d="M1027.28,287.77c0-6.69-1.3-12.63-3.89-17.82-2.6-5.19-6.23-9.24-10.89-12.14-4.67-2.9-9.95-4.36-15.84-4.36s-11.33,1.45-16.04,4.36c-4.71,2.9-8.41,6.95-11.09,12.14-2.69,5.19-4.03,11.13-4.03,17.82s1.3,12.63,3.89,17.82c2.59,5.19,6.2,9.24,10.82,12.14,4.62,2.9,9.92,4.36,15.91,4.36s11.22-1.45,15.97-4.36c4.75-2.9,8.47-6.95,11.15-12.14,2.68-5.19,4.03-11.13,4.03-17.82ZM1014.48,293.32c-.18,6.42-1.54,11-4.09,13.73-2.55,2.73-6.78,4.09-12.67,4.09h-2.64c-5.9,0-10.12-1.36-12.67-4.09-2.55-2.73-3.92-7.3-4.09-13.73-.09-3.7-.09-7.39,0-11.09.18-6.42,1.54-11,4.09-13.73,2.55-2.73,6.78-4.09,12.67-4.09h2.64c5.89,0,10.12,1.37,12.67,4.09,2.55,2.73,3.92,7.31,4.09,13.73.18,3.7.18,7.39,0,11.09Z"/>
    <path d="M1101.86,255.57c-2.2-1.41-4.75-2.11-7.66-2.11-3.26,0-6.12.84-8.58,2.51-1.82,1.24-3.28,2.91-4.38,5.02h-1.4c-.69-1.68-1.66-3.09-2.93-4.22-2.46-2.2-5.5-3.3-9.11-3.3-2.99,0-5.59.79-7.79,2.38-1.71,1.23-3.16,2.95-4.34,5.15h-1.21v-6.2h-10.69v66h11.09v-49.37c0-2.29.64-4.09,1.91-5.41,1.27-1.32,3.32-1.98,6.14-1.98s4.86.66,6.14,1.98c1.27,1.32,1.91,3.12,1.91,5.41v49.37h10.56v-49.37c0-2.29.64-4.09,1.91-5.41,1.27-1.32,3.37-1.98,6.27-1.98s4.95.64,6.14,1.91c1.19,1.28,1.78,3.1,1.78,5.48v49.37h11.09v-50.95c0-3.17-.59-5.98-1.78-8.45-1.19-2.46-2.88-4.4-5.08-5.81Z"/>
    <path d="M1148.26,343.15c3.91-2.69,6.97-6.98,9.17-12.87l29.44-75.5h-12.54l-18.35,50.56h-1.06l-18.88-50.56h-13.2l27.32,67.43-4.22,9.92c-.88,2.02-1.87,3.41-2.97,4.16-1.1.75-2.71,1.12-4.82,1.12h-18.88v9.77h13.86c6.16,0,11.2-1.34,15.11-4.03Z"/>
    <polygon points="96.17 438.52 96.17 448.81 154.25 448.81 154.25 438.52 131.41 438.52 131.41 366.71 154.25 366.71 154.25 356.41 96.17 356.41 96.17 366.71 119 366.71 119 438.52 96.17 438.52"/>
    <path d="M232.66,448.81v-41.71c0-5.46-1.01-10.12-3.04-13.99-2.03-3.87-4.75-6.78-8.18-8.71-3.43-1.93-7.31-2.9-11.62-2.9-5.37,0-9.99,1.39-13.86,4.16-2.19,1.57-3.98,3.49-5.41,5.74h-1.19v-8.58h-11.88v66h11.88v-41.32c0-4.75,1.21-8.45,3.63-11.09,2.42-2.64,5.79-3.96,10.1-3.96h3.96c4.66,0,8.12,1.12,10.36,3.37s3.37,5.66,3.37,10.23v42.77h11.88Z"/>
    <path d="M279.84,359.98c-4.18,4.14-6.27,9.81-6.27,17.03v5.81h-21.65v9.77h21.65v56.23h11.88v-56.23h29.04v-9.77h-29.04v-10.96c0-2.82.64-4.9,1.91-6.27,1.27-1.36,3.23-2.05,5.87-2.05h25.87v-9.77h-22.18c-7.22,0-12.92,2.07-17.09,6.2Z"/>
    <path d="M369.01,386.31c-2.9,2.1-5.31,4.85-7.22,8.25h-1.5v-11.75h-11.88v56.23h-17.16v9.77h60.46v-9.77h-31.42v-23.1c0-7.74,1.63-13.51,4.88-17.29,3.25-3.78,8.05-5.68,14.39-5.68h15.31v-10.96h-10.82c-6.07,0-11.09,1.43-15.05,4.29Z"/>
    <path d="M423.66,445.51c4.22,2.9,8.98,4.36,14.26,4.36,4.49,0,8.45-.92,11.88-2.77,3.43-1.85,6.07-4.18,7.92-7h1.06v8.71h11.88v-66h-11.88v8.45h-1.06c-1.94-2.82-4.51-5.1-7.72-6.86-3.21-1.76-7.02-2.64-11.42-2.64-5.37,0-10.21,1.47-14.52,4.42-4.31,2.95-7.72,7.04-10.23,12.28-2.51,5.24-3.76,11.07-3.76,17.49s1.21,12.34,3.63,17.49c2.42,5.15,5.74,9.17,9.97,12.08ZM422.86,410.14c.18-6.34,1.54-10.82,4.09-13.46,2.55-2.64,6.73-3.96,12.54-3.96h2.64c5.89,0,10.12,1.34,12.67,4.03,2.55,2.69,3.92,7.19,4.09,13.53.18,3.7.18,7.39,0,11.09-.18,6.34-1.54,10.85-4.09,13.53-2.55,2.69-6.78,4.03-12.67,4.03h-2.64c-5.81,0-9.99-1.36-12.54-4.09-2.55-2.73-3.92-7.26-4.09-13.6-.09-3.7-.09-7.39,0-11.09Z"/>
    <path d="M534.2,437.66c-2.42,1.28-6.32,1.91-11.68,1.91-4.22,0-7.5-.33-9.83-.99-2.33-.66-4.05-1.91-5.15-3.76-1.1-1.85-1.74-4.62-1.91-8.32h-12.41c.26,4.58,1.69,8.67,4.29,12.28,2.59,3.61,6.03,6.4,10.3,8.38,4.27,1.98,9.04,2.97,14.32,2.97,4.93,0,9.46-.86,13.6-2.57,4.14-1.72,7.46-4.2,9.97-7.46,2.51-3.25,3.76-7.08,3.76-11.48,0-4.84-1.54-8.69-4.62-11.55-3.08-2.86-7.52-4.82-13.33-5.87l-16.63-2.9c-2.99-.53-5.08-1.43-6.27-2.71-1.19-1.27-1.78-3.01-1.78-5.21,0-3.08,1.12-5.23,3.37-6.47,2.24-1.23,5.92-1.85,11.02-1.85,3.96,0,7.04.35,9.24,1.06,2.2.71,3.81,1.89,4.82,3.56,1.01,1.67,1.6,4.05,1.78,7.13h11.88c-.35-4.31-1.78-8.16-4.29-11.55-2.51-3.39-5.81-6.03-9.9-7.92-4.09-1.89-8.51-2.84-13.27-2.84s-8.84.86-12.8,2.57c-3.96,1.72-7.15,4.16-9.57,7.33-2.42,3.17-3.63,6.78-3.63,10.82,0,4.58,1.54,8.29,4.62,11.15,3.08,2.86,7.35,4.78,12.8,5.74l15.97,2.77c3.34.62,5.68,1.54,7,2.77,1.32,1.23,1.98,3.08,1.98,5.54,0,3.7-1.21,6.18-3.63,7.46Z"/>
    <path d="M588.26,425.71c0,4.84.9,9,2.71,12.47,1.8,3.48,4.44,6.12,7.92,7.92,3.48,1.8,7.63,2.71,12.47,2.71h19.93v-9.77h-23.36c-2.64,0-4.6-.68-5.87-2.05-1.28-1.36-1.91-3.45-1.91-6.27v-38.15h29.83v-9.77h-29.83v-21.12h-11.88v21.12h-21.38v9.77h21.38v33.13Z"/>
    <path d="M708.51,439.05h-31.42v-23.1c0-7.74,1.63-13.51,4.88-17.29,3.25-3.78,8.05-5.68,14.39-5.68h15.31v-10.96h-10.82c-6.07,0-11.09,1.43-15.05,4.29-2.9,2.1-5.31,4.85-7.22,8.25h-1.5v-11.75h-11.88v56.23h-17.16v9.77h60.46v-9.77Z"/>
    <path d="M730.82,382.81v41.71c0,5.46.99,10.12,2.97,13.99,1.98,3.87,4.69,6.78,8.12,8.71s7.26,2.9,11.48,2.9c5.28,0,9.83-1.39,13.66-4.16,2.16-1.57,3.94-3.49,5.36-5.74h1.18v8.58h11.88v-66h-11.88v41.32c0,4.75-1.19,8.45-3.56,11.09-2.38,2.64-5.68,3.96-9.9,3.96h-3.96c-4.58,0-7.97-1.12-10.16-3.37-2.2-2.24-3.3-5.65-3.3-10.23v-42.77h-11.88Z"/>
    <path d="M854.76,432.58c-1.14,2.38-2.88,4.07-5.21,5.08-2.33,1.01-5.48,1.52-9.44,1.52h-2.64c-5.99,0-10.28-1.36-12.87-4.09-2.6-2.73-3.98-7.3-4.16-13.73-.09-3.7-.09-7.39,0-11.09.18-6.42,1.56-11,4.16-13.73,2.59-2.73,6.88-4.09,12.87-4.09h2.64c4.05,0,7.24.51,9.57,1.52,2.33,1.01,4.03,2.69,5.08,5.02,1.06,2.33,1.67,5.61,1.85,9.83h12.28c-.26-5.19-1.74-9.88-4.42-14.06-2.69-4.18-6.23-7.44-10.63-9.77-4.4-2.33-9.33-3.5-14.78-3.5-5.99,0-11.38,1.45-16.17,4.36-4.8,2.9-8.54,6.95-11.22,12.14-2.68,5.19-4.03,11.13-4.03,17.82s1.3,12.63,3.89,17.82c2.59,5.19,6.25,9.24,10.96,12.14,4.71,2.9,10.05,4.36,16.04,4.36,5.46,0,10.45-1.17,14.98-3.5,4.53-2.33,8.18-5.59,10.96-9.77,2.77-4.18,4.29-8.86,4.55-14.06h-12.14c-.26,4.14-.97,7.39-2.11,9.77Z"/>
    <path d="M905.05,425.71c0,4.84.9,9,2.71,12.47,1.8,3.48,4.44,6.12,7.92,7.92,3.48,1.8,7.63,2.71,12.47,2.71h19.93v-9.77h-23.36c-2.64,0-4.6-.68-5.87-2.05-1.28-1.36-1.91-3.45-1.91-6.27v-38.15h29.83v-9.77h-29.83v-21.12h-11.88v21.12h-21.38v9.77h21.38v33.13Z"/>
    <path d="M1023.06,448.81v-66h-11.88v41.32c0,4.75-1.19,8.45-3.56,11.09-2.38,2.64-5.68,3.96-9.9,3.96h-3.96c-4.58,0-7.97-1.12-10.16-3.37-2.2-2.24-3.3-5.65-3.3-10.23v-42.77h-11.88v41.71c0,5.46.99,10.12,2.97,13.99,1.98,3.87,4.69,6.78,8.12,8.71s7.26,2.9,11.48,2.9c5.28,0,9.83-1.39,13.66-4.16,2.16-1.57,3.94-3.49,5.36-5.74h1.18v8.58h11.88Z"/>
    <path d="M1081.8,386.31c-2.9,2.1-5.31,4.85-7.22,8.25h-1.5v-11.75h-11.88v56.23h-17.16v9.77h60.46v-9.77h-31.42v-23.1c0-7.74,1.63-13.51,4.88-17.29,3.25-3.78,8.05-5.68,14.39-5.68h15.31v-10.96h-10.82c-6.07,0-11.09,1.43-15.05,4.29Z"/>
    <path d="M1183.57,400.5c-1.94-5.72-5.3-10.32-10.1-13.79-4.8-3.48-10.85-5.21-18.15-5.21-6.16,0-11.57,1.47-16.24,4.42-4.67,2.95-8.27,7.04-10.82,12.28-2.55,5.24-3.83,11.11-3.83,17.62s1.3,12.65,3.89,17.89c2.59,5.24,6.22,9.29,10.89,12.14,4.66,2.86,9.94,4.29,15.84,4.29,5.02,0,9.64-1.01,13.86-3.04,4.22-2.02,7.74-4.84,10.56-8.45,2.82-3.61,4.57-7.66,5.28-12.14h-12.14c-.62,4.84-2.07,8.18-4.36,10.03-2.29,1.85-6.12,2.77-11.48,2.77h-3.04c-5.99,0-10.21-1.41-12.67-4.22-2.46-2.82-3.83-7.7-4.09-14.65,0-.4,0-.79-.01-1.19h48.33c.79-6.78.22-13.02-1.72-18.74ZM1141.13,396.28c2.51-2.64,6.71-3.96,12.61-3.96h3.3c5.72,0,9.81,1.32,12.28,3.96,2.46,2.64,3.7,7.13,3.7,13.46v.26h-36.04c0-.09,0-.18,0-.26.26-6.34,1.65-10.82,4.16-13.46Z"/>
    <path d="M94.58,576.85h11.62v-49.5c0-10.38-.18-19.75-.53-28.12h1.06l30.76,77.62h18.35v-92.4h-11.62v49.5c0,10.38.18,19.76.53,28.12h-1.06l-30.76-77.62h-18.35v92.4Z"/>
    <polygon points="184.21 484.45 178.01 484.45 178.01 576.85 190.42 576.85 190.42 535.54 232.92 535.54 232.92 525.24 190.42 525.24 190.42 494.75 237.14 494.75 237.14 484.45 190.42 484.45 184.21 484.45"/>
    <path d="M263.81,518.25c.18-6.25.97-11.06,2.38-14.45,1.41-3.39,3.43-5.74,6.07-7.06s6.16-1.98,10.56-1.98h2.64c5.1,0,8.95.75,11.55,2.24,2.59,1.5,4.4,4.01,5.41,7.52,1.01,3.52,1.56,8.71,1.65,15.58h12.8c-.18-7.66-1.63-14.26-4.36-19.8-2.73-5.54-6.53-9.79-11.42-12.74-4.88-2.95-10.58-4.42-17.09-4.42-7.04,0-13.11,1.85-18.22,5.54-5.1,3.7-9,9.09-11.68,16.17-2.69,7.08-4.03,15.69-4.03,25.81,0,15.31,2.99,27.06,8.98,35.24,5.98,8.18,14.3,12.28,24.95,12.28,6.42,0,12.03-1.45,16.83-4.36,4.79-2.9,8.58-7.13,11.35-12.67,2.77-5.54,4.29-12.1,4.55-19.67h-12.67c-.09,6.78-.64,11.93-1.65,15.44-1.01,3.52-2.82,6.01-5.41,7.46-2.6,1.45-6.45,2.18-11.55,2.18h-2.64c-4.4,0-7.92-.66-10.56-1.98-2.64-1.32-4.67-3.67-6.07-7.06-1.41-3.39-2.2-8.21-2.38-14.45-.26-5.98-.31-12.71-.13-20.2.09-1.58.13-3.12.13-4.62Z"/>
    <polygon points="406.36 494.75 435.8 494.75 435.8 576.85 448.21 576.85 448.21 494.75 477.64 494.75 477.64 484.45 406.36 484.45 406.36 494.75"/>
    <path d="M539.88,514.75c-4.8-3.47-10.85-5.21-18.15-5.21-6.16,0-11.57,1.47-16.24,4.42-4.67,2.95-8.27,7.04-10.82,12.28-2.55,5.24-3.83,11.11-3.83,17.62s1.3,12.65,3.89,17.89c2.59,5.24,6.22,9.29,10.89,12.14,4.66,2.86,9.94,4.29,15.84,4.29,5.02,0,9.64-1.01,13.86-3.04s7.74-4.84,10.56-8.45c2.81-3.61,4.57-7.66,5.28-12.14h-12.14c-.62,4.84-2.07,8.18-4.36,10.03-2.29,1.85-6.12,2.77-11.48,2.77h-3.04c-5.99,0-10.21-1.41-12.67-4.22-2.46-2.82-3.83-7.7-4.09-14.65,0-.4,0-.79-.01-1.19h48.33c.79-6.78.22-13.02-1.72-18.74-1.94-5.72-5.3-10.32-10.1-13.79ZM507.54,524.32c2.51-2.64,6.71-3.96,12.61-3.96h3.3c5.72,0,9.81,1.32,12.28,3.96,2.46,2.64,3.7,7.13,3.7,13.46v.26h-36.04c0-.09,0-.18,0-.26.26-6.34,1.65-10.82,4.16-13.46Z"/>
    <path d="M617.17,560.62c-1.14,2.38-2.88,4.07-5.21,5.08-2.33,1.01-5.48,1.52-9.44,1.52h-2.64c-5.99,0-10.28-1.36-12.87-4.09-2.6-2.73-3.98-7.3-4.16-13.73-.09-3.7-.09-7.39,0-11.09.18-6.42,1.56-11,4.16-13.73,2.59-2.73,6.88-4.09,12.87-4.09h2.64c4.05,0,7.24.51,9.57,1.52,2.33,1.01,4.03,2.69,5.08,5.02,1.06,2.33,1.67,5.61,1.85,9.83h12.28c-.26-5.19-1.74-9.88-4.42-14.06-2.69-4.18-6.23-7.44-10.63-9.77-4.4-2.33-9.33-3.5-14.78-3.5-5.99,0-11.37,1.45-16.17,4.36-4.8,2.9-8.54,6.95-11.22,12.14-2.69,5.19-4.03,11.13-4.03,17.82s1.3,12.63,3.89,17.82c2.59,5.19,6.25,9.24,10.96,12.14,4.71,2.9,10.05,4.36,16.04,4.36,5.46,0,10.45-1.17,14.98-3.5,4.53-2.33,8.18-5.59,10.96-9.77,2.77-4.18,4.29-8.86,4.55-14.06h-12.14c-.26,4.14-.97,7.39-2.11,9.77Z"/>
    <path d="M707.85,576.85v-41.71c0-5.46-1.01-10.12-3.04-13.99-2.02-3.87-4.75-6.78-8.18-8.71-3.43-1.93-7.31-2.9-11.62-2.9-5.37,0-9.99,1.39-13.86,4.16-2.19,1.57-3.98,3.49-5.41,5.74h-1.19v-37.62h-11.88v95.04h11.88v-41.32c0-4.75,1.21-8.45,3.63-11.09,2.42-2.64,5.79-3.96,10.1-3.96h3.96c4.66,0,8.12,1.12,10.36,3.37,2.24,2.24,3.37,5.66,3.37,10.23v42.77h11.88Z"/>
    <path d="M787.05,576.85v-41.71c0-5.46-1.01-10.12-3.04-13.99-2.02-3.87-4.75-6.78-8.18-8.71-3.43-1.93-7.31-2.9-11.62-2.9-5.37,0-9.99,1.39-13.86,4.16-2.19,1.57-3.98,3.49-5.41,5.74h-1.19v-8.58h-11.88v66h11.88v-41.32c0-4.75,1.21-8.45,3.63-11.09,2.42-2.64,5.79-3.96,10.1-3.96h3.96c4.66,0,8.12,1.12,10.36,3.37,2.24,2.24,3.37,5.66,3.37,10.23v42.77h11.88Z"/>
    <path d="M854.1,513.89c-4.67-2.9-9.95-4.36-15.84-4.36s-11.33,1.45-16.04,4.36c-4.71,2.9-8.41,6.95-11.09,12.14-2.69,5.19-4.03,11.13-4.03,17.82s1.3,12.63,3.89,17.82c2.59,5.19,6.2,9.24,10.82,12.14s9.92,4.36,15.91,4.36,11.22-1.45,15.97-4.36,8.47-6.95,11.15-12.14c2.68-5.19,4.03-11.13,4.03-17.82s-1.3-12.63-3.89-17.82c-2.6-5.19-6.23-9.24-10.89-12.14ZM856.08,549.4c-.18,6.42-1.54,11-4.09,13.73-2.55,2.73-6.78,4.09-12.67,4.09h-2.64c-5.9,0-10.12-1.36-12.67-4.09-2.55-2.73-3.92-7.3-4.09-13.73-.09-3.7-.09-7.39,0-11.09.18-6.42,1.54-11,4.09-13.73,2.55-2.73,6.78-4.09,12.67-4.09h2.64c5.89,0,10.12,1.37,12.67,4.09,2.55,2.73,3.92,7.31,4.09,13.73.18,3.7.18,7.39,0,11.09Z"/>
    <polygon points="949.8 567.09 924.98 567.09 924.98 481.81 890.27 481.81 890.27 491.58 913.1 491.58 913.1 567.09 886.84 567.09 886.84 576.85 949.8 576.85 949.8 567.09"/>
    <path d="M980.22,573.82c4.62,2.9,9.92,4.36,15.91,4.36s11.22-1.45,15.97-4.36,8.47-6.95,11.15-12.14c2.68-5.19,4.03-11.13,4.03-17.82s-1.3-12.63-3.89-17.82c-2.6-5.19-6.23-9.24-10.89-12.14-4.67-2.9-9.95-4.36-15.84-4.36s-11.33,1.45-16.04,4.36c-4.71,2.9-8.41,6.95-11.09,12.14-2.69,5.19-4.03,11.13-4.03,17.82s1.3,12.63,3.89,17.82c2.59,5.19,6.2,9.24,10.82,12.14ZM978.31,538.31c.18-6.42,1.54-11,4.09-13.73,2.55-2.73,6.78-4.09,12.67-4.09h2.64c5.89,0,10.12,1.37,12.67,4.09,2.55,2.73,3.92,7.31,4.09,13.73.18,3.7.18,7.39,0,11.09-.18,6.42-1.54,11-4.09,13.73-2.55,2.73-6.78,4.09-12.67,4.09h-2.64c-5.9,0-10.12-1.36-12.67-4.09-2.55-2.73-3.92-7.3-4.09-13.73-.09-3.7-.09-7.39,0-11.09Z"/>
    <path d="M1092.36,519.17h-1.06c-1.94-2.82-4.44-5.08-7.52-6.8-3.08-1.72-6.82-2.57-11.22-2.57-5.46,0-10.38,1.47-14.78,4.42-4.4,2.95-7.85,7.02-10.36,12.21-2.51,5.19-3.76,11-3.76,17.42s1.25,12.21,3.76,17.36c2.51,5.15,5.96,9.2,10.36,12.14,4.4,2.95,9.33,4.42,14.78,4.42,4.4,0,8.14-.88,11.22-2.64,3.08-1.76,5.59-4.09,7.52-7h1.06v9.11c0,4.22-.51,7.52-1.52,9.9-1.01,2.38-2.84,4.11-5.48,5.21-2.64,1.1-6.47,1.65-11.48,1.65-3.78,0-6.8-.35-9.04-1.06-2.24-.71-3.96-1.96-5.15-3.76-1.19-1.8-1.83-4.42-1.91-7.85h-12.41c.17,4.4,1.58,8.38,4.22,11.95,2.64,3.56,6.14,6.34,10.49,8.32,4.36,1.98,9.13,2.97,14.32,2.97,5.72,0,10.84-1.21,15.38-3.63,4.53-2.42,8.07-5.76,10.63-10.03,2.55-4.27,3.83-9.09,3.83-14.45v-65.6h-11.88v8.32ZM1092.49,549.4c-.18,6.34-1.54,10.87-4.09,13.6-2.55,2.73-6.78,4.09-12.67,4.09h-2.64c-5.81,0-9.99-1.36-12.54-4.09-2.55-2.73-3.92-7.26-4.09-13.6-.09-3.7-.09-7.39,0-11.09.18-6.34,1.54-10.84,4.09-13.53,2.55-2.68,6.73-4.03,12.54-4.03h2.64c5.89,0,10.12,1.34,12.67,4.03,2.55,2.69,3.91,7.19,4.09,13.53.17,3.7.17,7.39,0,11.09Z"/>
    <path d="M1155.98,561.41h-1.06l-18.88-50.56h-13.2l27.32,67.43-4.22,9.92c-.88,2.02-1.87,3.41-2.97,4.16-1.1.75-2.71,1.12-4.82,1.12h-18.88v9.77h13.86c6.16,0,11.2-1.34,15.11-4.03,3.91-2.69,6.97-6.98,9.17-12.87l29.44-75.5h-12.54l-18.35,50.56Z"/>
    <path d="M125.34,611.17c-7.13,0-13.22,1.83-18.28,5.48-5.06,3.65-8.89,9.02-11.48,16.1-2.6,7.08-3.89,15.73-3.89,25.94,0,15.4,2.92,27.17,8.78,35.31,5.85,8.14,14.14,12.21,24.88,12.21,7.13,0,13.18-1.8,18.15-5.41,4.97-3.61,8.76-8.95,11.35-16.04,2.59-7.08,3.89-15.77,3.89-26.07,0-15.49-2.88-27.28-8.65-35.38-5.76-8.09-14.01-12.14-24.75-12.14ZM145.14,666.48c0,1.5-.05,3.04-.13,4.62-.18,6.25-.95,11.07-2.31,14.45-1.37,3.39-3.32,5.74-5.87,7.06-2.55,1.32-5.99,1.98-10.3,1.98h-2.64c-4.31,0-7.74-.66-10.3-1.98-2.55-1.32-4.51-3.67-5.87-7.06-1.37-3.39-2.13-8.21-2.31-14.45-.26-5.98-.31-12.71-.13-20.2.09-1.58.13-3.12.13-4.62.18-6.25.94-11.06,2.31-14.45,1.36-3.39,3.32-5.74,5.87-7.06,2.55-1.32,5.98-1.98,10.3-1.98h2.64c4.31,0,7.74.66,10.3,1.98,2.55,1.32,4.51,3.68,5.87,7.06,1.36,3.39,2.13,8.21,2.31,14.45.26,5.99.31,12.72.13,20.2Z"/>
    <path d="M221.44,640.48c-3.43-1.93-7.31-2.9-11.62-2.9-5.37,0-9.99,1.39-13.86,4.16-2.19,1.57-3.98,3.49-5.41,5.74h-1.19v-8.58h-11.88v66h11.88v-41.32c0-4.75,1.21-8.45,3.63-11.09,2.42-2.64,5.79-3.96,10.1-3.96h3.96c4.66,0,8.12,1.12,10.36,3.37s3.37,5.66,3.37,10.23v42.77h11.88v-41.71c0-5.46-1.01-10.12-3.04-13.99-2.03-3.87-4.75-6.78-8.18-8.71Z"/>
    <polygon points="291.39 609.85 256.68 609.85 256.68 619.62 279.51 619.62 279.51 695.13 253.25 695.13 253.25 704.89 316.21 704.89 316.21 695.13 291.39 695.13 291.39 609.85"/>
    <polygon points="372.04 638.89 337.33 638.89 337.33 648.66 360.16 648.66 360.16 695.13 334.95 695.13 334.95 704.89 394.88 704.89 394.88 695.13 372.04 695.13 372.04 638.89"/>
    <rect x="357.39" y="604.57" width="16.1" height="16.63"/>
    <path d="M459.03,640.48c-3.43-1.93-7.31-2.9-11.62-2.9-5.37,0-9.99,1.39-13.86,4.16-2.19,1.57-3.98,3.49-5.41,5.74h-1.19v-8.58h-11.88v66h11.88v-41.32c0-4.75,1.21-8.45,3.63-11.09,2.42-2.64,5.79-3.96,10.1-3.96h3.96c4.66,0,8.12,1.12,10.36,3.37s3.37,5.66,3.37,10.23v42.77h11.88v-41.71c0-5.46-1.01-10.12-3.04-13.99-2.03-3.87-4.75-6.78-8.18-8.71Z"/>
    <path d="M539.88,642.79c-4.8-3.47-10.85-5.21-18.15-5.21-6.16,0-11.57,1.47-16.24,4.42-4.67,2.95-8.27,7.04-10.82,12.28-2.55,5.24-3.83,11.11-3.83,17.62s1.3,12.65,3.89,17.89c2.59,5.24,6.22,9.29,10.89,12.14,4.66,2.86,9.94,4.29,15.84,4.29,5.02,0,9.64-1.01,13.86-3.04s7.74-4.84,10.56-8.45c2.81-3.61,4.57-7.66,5.28-12.14h-12.14c-.62,4.84-2.07,8.18-4.36,10.03-2.29,1.85-6.12,2.77-11.48,2.77h-3.04c-5.99,0-10.21-1.41-12.67-4.22-2.46-2.82-3.83-7.7-4.09-14.65,0-.4,0-.79-.01-1.19h48.33c.79-6.78.22-13.02-1.72-18.74-1.94-5.72-5.3-10.32-10.1-13.79ZM507.54,652.36c2.51-2.64,6.71-3.96,12.61-3.96h3.3c5.72,0,9.81,1.32,12.28,3.96,2.46,2.64,3.7,7.13,3.7,13.46v.26h-36.04c0-.09,0-.18,0-.26.26-6.34,1.65-10.82,4.16-13.46Z"/>
    <path d="M697.55,657.07v-.97c3.58-1.11,6.59-3.25,9.04-6.45,2.86-3.74,4.29-8.07,4.29-13,0-4.57-1.3-8.71-3.89-12.41-2.6-3.7-6.05-6.58-10.36-8.65-4.31-2.07-9.02-3.1-14.12-3.1h-33.26v92.4h33.4c5.89,0,11.22-1.12,15.97-3.37s8.49-5.37,11.22-9.37c2.73-4,4.09-8.47,4.09-13.4,0-5.63-1.7-10.49-5.08-14.59-3.01-3.64-6.78-6-11.29-7.1ZM683.3,622.79c3.61,0,6.45.44,8.51,1.32,2.07.88,3.56,2.22,4.49,4.03.92,1.8,1.39,4.25,1.39,7.33v3.83c0,4.58-1.08,7.83-3.23,9.77-2.16,1.94-5.87,2.9-11.15,2.9h-21.91v-29.17h21.91ZM700.72,680.61c0,5.02-1.17,8.6-3.5,10.76-2.33,2.16-6.36,3.23-12.08,3.23h-23.76v-32.6h23.76c5.72,0,9.75,1.08,12.08,3.23,2.33,2.16,3.5,5.74,3.5,10.76v4.62Z"/>
    <path d="M775.56,647.34h-1.06c-1.94-2.82-4.51-5.1-7.72-6.86-3.21-1.76-7.02-2.64-11.42-2.64-5.37,0-10.21,1.47-14.52,4.42-4.31,2.95-7.72,7.04-10.23,12.28-2.51,5.24-3.76,11.07-3.76,17.49s1.21,12.34,3.63,17.49c2.42,5.15,5.74,9.17,9.97,12.08,4.22,2.9,8.98,4.36,14.26,4.36,4.49,0,8.45-.92,11.88-2.77,3.43-1.85,6.07-4.18,7.92-7h1.06v8.71h11.88v-66h-11.88v8.45ZM775.7,677.44c-.18,6.34-1.54,10.85-4.09,13.53-2.55,2.69-6.78,4.03-12.67,4.03h-2.64c-5.81,0-9.99-1.36-12.54-4.09-2.55-2.73-3.92-7.26-4.09-13.6-.09-3.7-.09-7.39,0-11.09.18-6.34,1.54-10.82,4.09-13.46,2.55-2.64,6.73-3.96,12.54-3.96h2.64c5.89,0,10.12,1.34,12.67,4.03,2.55,2.69,3.91,7.19,4.09,13.53.17,3.7.17,7.39,0,11.09Z"/>
    <path d="M855.03,640.48c-3.43-1.93-7.31-2.9-11.62-2.9-5.37,0-9.99,1.39-13.86,4.16-2.19,1.57-3.98,3.49-5.41,5.74h-1.19v-8.58h-11.88v66h11.88v-41.32c0-4.75,1.21-8.45,3.63-11.09,2.42-2.64,5.79-3.96,10.1-3.96h3.96c4.66,0,8.12,1.12,10.36,3.37,2.24,2.24,3.37,5.66,3.37,10.23v42.77h11.88v-41.71c0-5.46-1.01-10.12-3.04-13.99-2.02-3.87-4.75-6.78-8.18-8.71Z"/>
    <polygon points="949.14 638.89 933.43 638.89 904.32 665.69 903.07 665.69 903.07 609.85 891.19 609.85 891.19 704.89 903.07 704.89 903.07 675.59 904.41 675.59 935.54 704.89 952.31 704.89 915.06 669.91 949.14 638.89"/>
    <rect x="990.98" y="604.57" width="16.1" height="16.63"/>
    <polygon points="1005.63 638.89 970.92 638.89 970.92 648.66 993.75 648.66 993.75 695.13 968.54 695.13 968.54 704.89 1028.47 704.89 1028.47 695.13 1005.63 695.13 1005.63 638.89"/>
    <path d="M1092.62,640.48c-3.43-1.93-7.31-2.9-11.62-2.9-5.37,0-9.99,1.39-13.86,4.16-2.19,1.57-3.98,3.49-5.41,5.74h-1.19v-8.58h-11.88v66h11.88v-41.32c0-4.75,1.21-8.45,3.63-11.09,2.42-2.64,5.79-3.96,10.1-3.96h3.96c4.66,0,8.12,1.12,10.36,3.37,2.24,2.24,3.37,5.66,3.37,10.23v42.77h11.88v-41.71c0-5.46-1.01-10.12-3.04-13.99-2.02-3.87-4.75-6.78-8.18-8.71Z"/>
    <path d="M1171.56,647.21h-1.06c-1.94-2.82-4.44-5.08-7.52-6.8-3.08-1.72-6.82-2.57-11.22-2.57-5.46,0-10.38,1.47-14.78,4.42-4.4,2.95-7.85,7.02-10.36,12.21-2.51,5.19-3.76,11-3.76,17.42s1.25,12.21,3.76,17.36c2.51,5.15,5.96,9.2,10.36,12.14,4.4,2.95,9.33,4.42,14.78,4.42,4.4,0,8.14-.88,11.22-2.64,3.08-1.76,5.59-4.09,7.52-7h1.06v9.11c0,4.22-.51,7.52-1.52,9.9-1.01,2.38-2.84,4.11-5.48,5.21-2.64,1.1-6.47,1.65-11.48,1.65-3.78,0-6.8-.35-9.04-1.06-2.24-.71-3.96-1.96-5.15-3.76-1.19-1.8-1.83-4.42-1.91-7.85h-12.41c.17,4.4,1.58,8.38,4.22,11.95,2.64,3.56,6.14,6.34,10.49,8.32,4.36,1.98,9.13,2.97,14.32,2.97,5.72,0,10.84-1.21,15.38-3.63,4.53-2.42,8.07-5.76,10.63-10.03,2.55-4.27,3.83-9.09,3.83-14.45v-65.6h-11.88v8.32ZM1171.69,677.44c-.18,6.34-1.54,10.87-4.09,13.6-2.55,2.73-6.78,4.09-12.67,4.09h-2.64c-5.81,0-9.99-1.36-12.54-4.09-2.55-2.73-3.92-7.26-4.09-13.6-.09-3.7-.09-7.39,0-11.09.18-6.34,1.54-10.84,4.09-13.53,2.55-2.68,6.73-4.03,12.54-4.03h2.64c5.89,0,10.12,1.34,12.67,4.03,2.55,2.69,3.91,7.19,4.09,13.53.17,3.7.17,7.39,0,11.09Z"/>
  </g>
</svg>