<?xml version="1.0" encoding="UTF-8"?>
<svg id="Layer_1" xmlns="http://www.w3.org/2000/svg" xmlns:xlink="http://www.w3.org/1999/xlink" version="1.1" viewBox="0 0 1280 800">
  <!-- Generator: Adobe Illustrator 29.8.2, SVG Export Plug-In . SVG Version: 2.1.1 Build 3)  -->
  <defs>
    <style>
      .st0, .st1 {
        fill: none;
      }

      .st2 {
        clip-path: url(#clippath-1);
      }

      .st3 {
        clip-path: url(#clippath-3);
      }

      .st4 {
        clip-path: url(#clippath-4);
      }

      .st5 {
        clip-path: url(#clippath-2);
      }

      .st6 {
        clip-path: url(#clippath-7);
      }

      .st7 {
        clip-path: url(#clippath-6);
      }

      .st8 {
        clip-path: url(#clippath-9);
      }

      .st9 {
        clip-path: url(#clippath-8);
      }

      .st10 {
        clip-path: url(#clippath-5);
      }

      .st11 {
        fill: #fff;
      }

      .st1 {
        stroke: #fff;
        stroke-width: .5px;
      }

      .st12 {
        clip-path: url(#clippath);
      }
    </style>
    <clipPath id="clippath">
      <rect class="st0" width="1280" height="800"/>
    </clipPath>
    <clipPath id="clippath-1">
      <rect class="st0" width="1280" height="800"/>
    </clipPath>
    <clipPath id="clippath-2">
      <rect class="st0" width="1280" height="800"/>
    </clipPath>
    <clipPath id="clippath-3">
      <rect class="st0" width="1280" height="800"/>
    </clipPath>
    <clipPath id="clippath-4">
      <rect class="st0" width="1280" height="800"/>
    </clipPath>
    <clipPath id="clippath-5">
      <rect class="st0" width="1280" height="800"/>
    </clipPath>
    <clipPath id="clippath-6">
      <rect class="st0" width="1280" height="800"/>
    </clipPath>
    <clipPath id="clippath-7">
      <rect class="st0" width="1280" height="800"/>
    </clipPath>
    <clipPath id="clippath-8">
      <rect class="st0" width="1280" height="800"/>
    </clipPath>
    <clipPath id="clippath-9">
      <rect class="st0" width="1280" height="800"/>
    </clipPath>
  </defs>
  <g class="st12">
    <rect x="-3" y="-3" width="1286" height="806"/>
  </g>
  <path class="st11" d="M70.65,599.08v20.87h34.86v5.95h-40.81v-26.82h5.95ZM105.52,531.45v5.95h-34.86v20.87h-5.95v-26.82h40.81Z"/>
  <polygon class="st11" points="104.54 558.27 110.48 558.27 110.48 593.72 131.35 593.72 131.35 599.08 104.54 599.08 104.54 558.27"/>
  <polygon class="st11" points="138.3 558.27 163.95 558.27 163.95 563.63 144.25 563.63 144.25 575.88 162.2 575.88 162.2 581.24 144.25 581.24 144.25 593.72 164.83 593.72 164.83 599.08 138.3 599.08 138.3 558.27"/>
  <g class="st2">
    <path class="st11" d="M183.96,593.72c6.01,0,9.27-1.52,9.27-9.68v-10.73c0-8.16-3.26-9.68-9.27-9.68h-6.35v30.08h6.35ZM171.77,558.27h12.59c10.96,0,15.39,8.28,15.39,20.4s-4.14,20.4-15.27,20.4h-12.71v-40.81Z"/>
    <path class="st11" d="M210.32,595.99c-3.62-3.62-5.36-9.45-5.36-17.32s2.04-13.99,5.71-17.43c2.45-2.33,5.71-3.56,9.62-3.56,8.04,0,13.41,5.07,13.99,13.12h-6.41c-.06-5.48-1.75-7.46-7.06-7.46h-1.17c-5.42,0-8.16,1.69-8.16,9.85v10.96c0,8.1,2.62,9.85,8.04,9.85h1.28c5.42,0,7.58-1.92,7.58-7.81v-2.8h-10.21v-5.36h15.8v21.05h-5.36v-3.85h-.82c-1.63,3.03-4.84,4.43-8.34,4.43s-6.71-1.28-9.15-3.67"/>
  </g>
  <polygon class="st11" points="241.34 558.27 267 558.27 267 563.63 247.29 563.63 247.29 575.88 265.25 575.88 265.25 581.24 247.29 581.24 247.29 593.72 267.87 593.72 267.87 599.08 241.34 599.08 241.34 558.27"/>
  <g class="st5">
    <path class="st11" d="M290.27,577.45c4.6,0,6.18-1.46,6.18-5.71v-2.45c0-4.14-1.63-5.65-6.18-5.65h-9.33v13.82h9.33ZM289.68,582.81h-8.74v16.27h-5.83v-40.81h13.12c4.84,0,8.57,1.34,11.37,4.02,2.21,2.16,3.38,4.84,3.38,7.81,0,4.72-2.97,8.69-7.23,9.79v.82c4.66.7,6.18,3.15,6.18,9.56v8.8h-5.95v-9.74c0-4.66-1.8-6.53-6.3-6.53"/>
  </g>
  <rect class="st11" x="311.73" y="576.17" width="20.99" height="5.36"/>
  <polygon class="st11" points="342.64 558.27 351.91 558.27 364.21 592.43 364.97 592.43 364.56 558.27 370.39 558.27 370.39 599.08 361.12 599.08 348.76 564.92 348 564.92 348.47 599.08 342.64 599.08 342.64 558.27"/>
  <path class="st11" d="M396.34,583.8l-4.95-18.89h-.82l-5.19,18.89h10.96ZM406.6,599.08h-6.24l-2.62-9.91h-13.82l-2.74,9.91h-6.06l11.78-40.81h8.28l11.43,40.81Z"/>
  <polygon class="st11" points="411.34 558.27 420.61 558.27 432.91 592.43 433.66 592.43 433.26 558.27 439.09 558.27 439.09 599.08 429.82 599.08 417.46 564.92 416.7 564.92 417.17 599.08 411.34 599.08 411.34 558.27"/>
  <g class="st3">
    <path class="st11" d="M458.97,594.01h1.17c5.42,0,8.05-1.69,8.05-9.85v-10.96c0-8.16-2.62-9.85-8.05-9.85h-1.17c-5.42,0-8.05,1.69-8.05,9.85v10.96c0,8.1,2.62,9.85,8.05,9.85M444.4,578.68c0-13.58,5.48-20.99,15.22-20.99s15.1,7.41,15.1,20.99-5.42,20.99-15.1,20.99-15.22-7.64-15.22-20.99"/>
  </g>
  <rect class="st11" x="483.18" y="576.17" width="20.99" height="5.36"/>
  <g class="st4">
    <path class="st11" d="M512.92,586.08v-.82h6.3v.47c0,5.95,2.39,8.28,8.22,8.28h1.69c5.36,0,7.46-1.87,7.46-6.12v-.88c0-3.73-1.57-5.07-6.47-5.77l-5.54-.82c-3.44-.52-6.12-1.81-7.87-3.73-1.69-1.87-2.57-4.37-2.57-6.94,0-3.32,1.46-6.3,3.85-8.45,2.57-2.27,6.12-3.62,10.08-3.62,7.87,0,14.17,5.6,14.17,12.77v.52h-6.3v-.93c0-4.9-2.1-6.71-7.17-6.71h-1.57c-4.9,0-6.94,1.63-6.94,5.65v.88c0,3.15,1.57,4.43,5.89,5.07l5.83.87c3.15.47,5.71,1.46,7.52,2.92,2.33,1.92,3.61,4.72,3.61,7.99,0,3.67-1.58,6.88-4.2,9.21-2.74,2.33-6.47,3.73-10.73,3.73-8.74,0-15.28-5.83-15.28-13.58"/>
  </g>
  <path class="st11" d="M573.79,619.95v-20.87h5.95v26.82h-40.81v-5.95h34.86ZM579.74,531.45v26.82h-5.95v-20.87h-34.86v-5.95h40.81Z"/>
  <path class="st11" d="M705.95,241.73v20.87h34.86v5.95h-40.81v-26.82h5.95ZM740.81,174.1v5.95h-34.86v20.87h-5.95v-26.82h40.81Z"/>
  <polygon class="st11" points="739.83 200.92 745.77 200.92 745.77 236.37 766.65 236.37 766.65 241.73 739.83 241.73 739.83 200.92"/>
  <polygon class="st11" points="773.59 200.92 799.24 200.92 799.24 206.29 779.54 206.29 779.54 218.53 797.49 218.53 797.49 223.89 779.54 223.89 779.54 236.37 800.12 236.37 800.12 241.73 773.59 241.73 773.59 200.92"/>
  <g class="st10">
    <path class="st11" d="M819.25,236.37c6.01,0,9.27-1.52,9.27-9.68v-10.73c0-8.16-3.27-9.68-9.27-9.68h-6.35v30.08h6.35ZM807.07,200.92h12.59c10.96,0,15.39,8.28,15.39,20.41s-4.14,20.4-15.27,20.4h-12.71v-40.81Z"/>
    <path class="st11" d="M845.61,238.64c-3.61-3.61-5.36-9.45-5.36-17.32s2.04-13.99,5.71-17.43c2.45-2.33,5.71-3.56,9.62-3.56,8.05,0,13.41,5.07,13.99,13.12h-6.41c-.06-5.48-1.75-7.46-7.06-7.46h-1.17c-5.42,0-8.16,1.69-8.16,9.85v10.96c0,8.1,2.62,9.85,8.04,9.85h1.28c5.42,0,7.58-1.92,7.58-7.81v-2.8h-10.2v-5.36h15.8v21.05h-5.36v-3.85h-.82c-1.63,3.03-4.84,4.43-8.34,4.43s-6.71-1.28-9.15-3.67"/>
  </g>
  <polygon class="st11" points="876.63 200.92 902.29 200.92 902.29 206.29 882.58 206.29 882.58 218.53 900.54 218.53 900.54 223.89 882.58 223.89 882.58 236.37 903.16 236.37 903.16 241.73 876.63 241.73 876.63 200.92"/>
  <g class="st7">
    <path class="st11" d="M925.56,220.1c4.61,0,6.18-1.46,6.18-5.71v-2.45c0-4.14-1.63-5.66-6.18-5.66h-9.33v13.82h9.33ZM924.97,225.47h-8.74v16.27h-5.83v-40.81h13.12c4.84,0,8.57,1.34,11.37,4.02,2.21,2.16,3.38,4.84,3.38,7.81,0,4.72-2.97,8.69-7.23,9.79v.82c4.66.7,6.18,3.15,6.18,9.56v8.8h-5.95v-9.74c0-4.66-1.8-6.53-6.3-6.53"/>
  </g>
  <rect class="st11" x="947.02" y="218.82" width="20.99" height="5.36"/>
  <polygon class="st11" points="977.93 200.92 987.2 200.92 999.5 235.09 1000.26 235.09 999.85 200.92 1005.68 200.92 1005.68 241.73 996.41 241.73 984.05 207.57 983.3 207.57 983.76 241.73 977.93 241.73 977.93 200.92"/>
  <path class="st11" d="M1031.63,226.46l-4.95-18.89h-.82l-5.19,18.89h10.96ZM1041.89,241.73h-6.24l-2.62-9.91h-13.82l-2.74,9.91h-6.06l11.78-40.81h8.28l11.43,40.81Z"/>
  <polygon class="st11" points="1046.63 200.92 1055.9 200.92 1068.2 235.09 1068.95 235.09 1068.55 200.92 1074.38 200.92 1074.38 241.73 1065.11 241.73 1052.75 207.57 1051.99 207.57 1052.46 241.73 1046.63 241.73 1046.63 200.92"/>
  <g class="st6">
    <path class="st11" d="M1094.27,236.66h1.17c5.42,0,8.05-1.69,8.05-9.85v-10.96c0-8.16-2.62-9.85-8.05-9.85h-1.17c-5.42,0-8.05,1.69-8.05,9.85v10.96c0,8.1,2.62,9.85,8.05,9.85M1079.69,221.33c0-13.58,5.48-20.99,15.22-20.99s15.1,7.41,15.1,20.99-5.42,20.99-15.1,20.99-15.22-7.64-15.22-20.99"/>
  </g>
  <rect class="st11" x="1118.47" y="218.82" width="20.99" height="5.36"/>
  <polygon class="st11" points="1159.35 221.56 1147.57 200.92 1154.63 200.92 1162.79 216.66 1163.61 216.66 1172 200.92 1178.94 200.92 1167.22 221.09 1179.29 241.73 1172.18 241.73 1163.78 226.05 1162.96 226.05 1154.16 241.73 1147.22 241.73 1159.35 221.56"/>
  <path class="st11" d="M1209.08,262.6v-20.87h5.95v26.82h-40.81v-5.95h34.86ZM1215.03,174.1v26.82h-5.95v-20.87h-34.86v-5.95h40.81Z"/>
  <path class="st11" d="M911.68,599.08v20.87h34.86v5.95h-40.81v-26.82h5.95ZM946.55,531.45v5.95h-34.86v20.87h-5.95v-26.82h40.81Z"/>
  <polygon class="st11" points="945.56 558.27 951.51 558.27 951.51 593.72 972.38 593.72 972.38 599.08 945.56 599.08 945.56 558.27"/>
  <path class="st11" d="M1003.35,619.95v-20.87h5.95v26.82h-40.81v-5.95h34.86ZM1009.29,531.45v26.82h-5.95v-20.87h-34.86v-5.95h40.81Z"/>
  <path class="st11" d="M190.67,241.73v20.87h34.86v5.95h-40.81v-26.82h5.95ZM225.53,174.1v5.95h-34.86v20.87h-5.95v-26.82h40.81Z"/>
  <polygon class="st11" points="224.55 200.92 230.49 200.92 230.49 236.37 251.37 236.37 251.37 241.73 224.55 241.73 224.55 200.92"/>
  <polygon class="st11" points="258.31 200.92 283.97 200.92 283.97 206.29 264.26 206.29 264.26 218.53 282.22 218.53 282.22 223.89 264.26 223.89 264.26 236.37 284.84 236.37 284.84 241.73 258.31 241.73 258.31 200.92"/>
  <g class="st9">
    <path class="st11" d="M303.97,236.37c6.01,0,9.27-1.52,9.27-9.68v-10.73c0-8.16-3.27-9.68-9.27-9.68h-6.35v30.08h6.35ZM291.79,200.92h12.59c10.96,0,15.39,8.28,15.39,20.41s-4.14,20.4-15.28,20.4h-12.71v-40.81Z"/>
    <path class="st11" d="M330.33,238.64c-3.61-3.61-5.36-9.44-5.36-17.32s2.04-13.99,5.71-17.43c2.45-2.33,5.71-3.56,9.62-3.56,8.05,0,13.41,5.07,13.99,13.12h-6.41c-.06-5.48-1.75-7.46-7.06-7.46h-1.17c-5.42,0-8.16,1.69-8.16,9.85v10.96c0,8.1,2.62,9.85,8.05,9.85h1.28c5.42,0,7.58-1.92,7.58-7.81v-2.8h-10.2v-5.36h15.8v21.05h-5.36v-3.85h-.82c-1.63,3.03-4.84,4.43-8.34,4.43s-6.7-1.28-9.15-3.67"/>
  </g>
  <polygon class="st11" points="361.36 200.92 387.01 200.92 387.01 206.29 367.3 206.29 367.3 218.53 385.26 218.53 385.26 223.89 367.3 223.89 367.3 236.37 387.88 236.37 387.88 241.73 361.36 241.73 361.36 200.92"/>
  <g class="st8">
    <path class="st11" d="M410.28,220.1c4.61,0,6.18-1.46,6.18-5.71v-2.45c0-4.14-1.63-5.66-6.18-5.66h-9.33v13.82h9.33ZM409.69,225.47h-8.74v16.27h-5.83v-40.81h13.12c4.84,0,8.57,1.34,11.37,4.02,2.22,2.16,3.38,4.84,3.38,7.81,0,4.72-2.97,8.69-7.23,9.79v.82c4.66.7,6.18,3.15,6.18,9.56v8.8h-5.95v-9.74c0-4.66-1.81-6.53-6.3-6.53"/>
  </g>
  <path class="st11" d="M453.78,262.6v-20.87h5.95v26.82h-40.81v-5.95h34.86ZM459.73,174.1v26.82h-5.95v-20.87h-34.86v-5.95h40.81Z"/>
  <path class="st1" d="M640,736.08V63.92M44.09,400h1191.83"/>
</svg>