<?xml version="1.0" encoding="UTF-8"?>
<svg id="Layer_1" xmlns="http://www.w3.org/2000/svg" xmlns:xlink="http://www.w3.org/1999/xlink" version="1.1" viewBox="0 0 1280 800">
  <!-- Generator: Adobe Illustrator 29.8.2, SVG Export Plug-In . SVG Version: 2.1.1 Build 3)  -->
  <defs>
    <style>
      .st0 {
        fill: none;
      }

      .st1 {
        fill: #fff;
      }

      .st2 {
        clip-path: url(#clippath);
      }
    </style>
    <clipPath id="clippath">
      <rect class="st0" width="1280" height="800"/>
    </clipPath>
  </defs>
  <g class="st2">
    <rect x="-3" y="-3" width="1286" height="806"/>
  </g>
  <g>
    <path class="st1" d="M249.46,126.89c-.12-6.92-.32-13.17-.62-18.74h.7l9.94,35.29h8.45l9.94-35.29h.7c-.29,5.57-.5,11.82-.62,18.74l-.26,34.41h7.39v-61.6h-10.82l-10.03,35.64h-.7l-10.03-35.64h-11v61.6h7.22l-.26-34.41Z"/>
    <polygon class="st1" points="306.75 161.3 338.78 161.3 338.78 154.43 306.75 154.43 306.75 133.67 334.82 133.67 334.82 126.8 306.75 126.8 306.75 106.56 337.46 106.56 337.46 99.7 306.75 99.7 303.93 99.7 298.48 99.7 298.48 161.3 303.93 161.3 306.75 161.3"/>
    <path class="st1" d="M413.23,161.3v-31.68h-23.85v6.69h16.07l-.05,4.93c-.06,3.29-.5,5.88-1.32,7.79-.82,1.91-2.14,3.29-3.96,4.14-1.82.85-4.25,1.28-7.3,1.28h-1.94c-2.99,0-5.38-.44-7.17-1.32-1.79-.88-3.15-2.45-4.09-4.71-.94-2.26-1.47-5.47-1.58-9.64-.18-5.51-.18-11.03,0-16.54.12-4.17.67-7.38,1.67-9.64,1-2.26,2.42-3.83,4.27-4.71,1.85-.88,4.27-1.32,7.26-1.32h1.76c2.82,0,5.04.46,6.69,1.36,1.64.91,2.85,2.39,3.61,4.44.76,2.05,1.17,4.87,1.23,8.45h8.71c-.24-4.52-1.31-8.43-3.21-11.75-1.91-3.31-4.44-5.85-7.61-7.61-3.17-1.76-6.72-2.64-10.65-2.64-5.05,0-9.28,1.36-12.72,4.09-3.43,2.73-5.98,6.47-7.66,11.22s-2.51,10.21-2.51,16.37.78,11.43,2.33,16.15c1.55,4.72,3.96,8.46,7.22,11.22,3.26,2.76,7.32,4.14,12.19,4.14,3.64,0,6.81-.72,9.5-2.16,2.07-1.1,3.7-2.64,4.9-4.62h.73v6.07h7.48Z"/>
    <path class="st1" d="M463.48,154.78h-20.94v-15.4c0-5.16,1.08-9,3.26-11.53,2.17-2.52,5.37-3.78,9.59-3.78h10.21v-7.3h-7.22c-4.05,0-7.39.95-10.03,2.86-1.94,1.4-3.54,3.23-4.81,5.5h-1v-7.83h-7.92v37.49h-11.44v6.51h40.3v-6.51Z"/>
    <path class="st1" d="M516.1,161.3v-44h-7.92v5.63h-.7c-1.29-1.88-3.01-3.4-5.15-4.58-2.14-1.17-4.68-1.76-7.61-1.76-3.58,0-6.81.98-9.68,2.95-2.88,1.97-5.15,4.69-6.82,8.18-1.67,3.49-2.51,7.38-2.51,11.66s.81,8.23,2.42,11.66c1.61,3.43,3.83,6.12,6.64,8.05s5.98,2.9,9.5,2.9c2.99,0,5.63-.62,7.92-1.85,2.29-1.23,4.05-2.79,5.28-4.66h.7v5.81h7.92ZM505.54,152.01c-1.7,1.79-4.52,2.68-8.45,2.68h-1.76c-3.87,0-6.66-.91-8.36-2.73-1.7-1.82-2.61-4.84-2.73-9.06-.06-2.46-.06-4.93,0-7.39.12-4.22,1.03-7.22,2.73-8.98,1.7-1.76,4.49-2.64,8.36-2.64h1.76c3.93,0,6.75.9,8.45,2.68,1.7,1.79,2.61,4.8,2.73,9.02.12,2.46.12,4.93,0,7.39-.12,4.22-1.03,7.23-2.73,9.02Z"/>
    <path class="st1" d="M570.93,139.3c0-4.28-.82-8.15-2.46-11.62-1.64-3.46-3.92-6.17-6.82-8.14-2.9-1.96-6.17-2.95-9.81-2.95-2.88,0-5.32.6-7.35,1.8-2.02,1.2-3.68,2.77-4.97,4.71h-.7v-5.81h-7.92v61.6h7.92v-23.14h.7c1.29,1.88,2.95,3.39,4.97,4.53,2.02,1.14,4.47,1.72,7.35,1.72,3.64,0,6.91-.98,9.81-2.95,2.9-1.96,5.18-4.68,6.82-8.14,1.64-3.46,2.46-7.33,2.46-11.62ZM562.39,142.99c-.12,4.22-1,7.23-2.64,9.02-1.64,1.79-4.4,2.68-8.27,2.68h-1.76c-3.87,0-6.64-.89-8.32-2.68-1.67-1.79-2.57-4.8-2.68-9.02-.06-2.46-.06-4.93,0-7.39.12-4.22,1.01-7.23,2.68-9.02,1.67-1.79,4.44-2.68,8.32-2.68h1.76c3.87,0,6.63.9,8.27,2.68,1.64,1.79,2.52,4.8,2.64,9.02.12,2.46.12,4.93,0,7.39Z"/>
    <path class="st1" d="M621.44,161.3v-27.81c0-3.64-.68-6.75-2.02-9.33-1.35-2.58-3.17-4.52-5.46-5.81-2.29-1.29-4.87-1.94-7.74-1.94-3.58,0-6.66.92-9.24,2.77-1.46,1.04-2.65,2.33-3.61,3.83h-.79v-25.08h-7.92v63.36h7.92v-27.54c0-3.17.81-5.63,2.42-7.39,1.61-1.76,3.86-2.64,6.73-2.64h2.64c3.11,0,5.41.75,6.91,2.24s2.24,3.77,2.24,6.82v28.51h7.92Z"/>
    <path class="st1" d="M663.07,126.89c-.12-6.92-.32-13.17-.62-18.74h.7l9.94,35.29h8.45l9.94-35.29h.7c-.29,5.57-.5,11.82-.62,18.74l-.26,34.41h7.39v-61.6h-10.82l-10.03,35.64h-.7l-10.03-35.64h-11v61.6h7.22l-.26-34.41Z"/>
    <path class="st1" d="M740.68,159.27c3.17-1.94,5.65-4.63,7.44-8.1,1.79-3.46,2.68-7.42,2.68-11.88s-.87-8.42-2.6-11.88c-1.73-3.46-4.15-6.16-7.26-8.1-3.11-1.94-6.63-2.9-10.56-2.9s-7.55.97-10.69,2.9c-3.14,1.94-5.6,4.64-7.39,8.1-1.79,3.46-2.68,7.42-2.68,11.88s.87,8.42,2.6,11.88c1.73,3.46,4.14,6.16,7.22,8.1s6.61,2.9,10.6,2.9,7.48-.97,10.65-2.9ZM720.88,152.15c-1.7-1.82-2.61-4.87-2.73-9.15-.06-2.46-.06-4.93,0-7.39.12-4.28,1.03-7.33,2.73-9.15,1.7-1.82,4.52-2.73,8.45-2.73h1.76c3.93,0,6.75.91,8.45,2.73,1.7,1.82,2.61,4.87,2.73,9.15.12,2.46.12,4.93,0,7.39-.12,4.28-1.03,7.33-2.73,9.15-1.7,1.82-4.52,2.73-8.45,2.73h-1.76c-3.93,0-6.75-.91-8.45-2.73Z"/>
    <path class="st1" d="M782.13,123.72h2.64c3.11,0,5.41.75,6.91,2.24s2.24,3.77,2.24,6.82v28.51h7.92v-27.81c0-3.64-.68-6.75-2.02-9.33-1.35-2.58-3.17-4.52-5.46-5.81-2.29-1.29-4.87-1.94-7.74-1.94-3.58,0-6.66.92-9.24,2.77-1.46,1.04-2.65,2.33-3.61,3.83h-.79v-5.72h-7.92v44h7.92v-27.54c0-3.17.81-5.63,2.42-7.39,1.61-1.76,3.86-2.64,6.73-2.64Z"/>
    <path class="st1" d="M846.28,159.27c3.17-1.94,5.65-4.63,7.44-8.1,1.79-3.46,2.68-7.42,2.68-11.88s-.87-8.42-2.6-11.88c-1.73-3.46-4.15-6.16-7.26-8.1-3.11-1.94-6.63-2.9-10.56-2.9s-7.55.97-10.69,2.9c-3.14,1.94-5.6,4.64-7.39,8.1-1.79,3.46-2.68,7.42-2.68,11.88s.87,8.42,2.6,11.88c1.73,3.46,4.14,6.16,7.22,8.1s6.61,2.9,10.6,2.9,7.48-.97,10.65-2.9ZM826.48,152.15c-1.7-1.82-2.61-4.87-2.73-9.15-.06-2.46-.06-4.93,0-7.39.12-4.28,1.03-7.33,2.73-9.15,1.7-1.82,4.52-2.73,8.45-2.73h1.76c3.93,0,6.75.91,8.45,2.73,1.7,1.82,2.61,4.87,2.73,9.15.12,2.46.12,4.93,0,7.39-.12,4.28-1.03,7.33-2.73,9.15-1.7,1.82-4.52,2.73-8.45,2.73h-1.76c-3.93,0-6.75-.91-8.45-2.73Z"/>
    <path class="st1" d="M927.33,106.91c-3.87-5.4-9.42-8.1-16.63-8.1-4.81,0-8.9,1.22-12.28,3.65-3.37,2.44-5.94,6.01-7.7,10.74-1.76,4.72-2.64,10.49-2.64,17.29,0,10.21,1.96,18.04,5.9,23.5,3.93,5.46,9.5,8.18,16.72,8.18,4.81,0,8.89-1.2,12.23-3.61,3.34-2.4,5.88-5.97,7.61-10.69,1.73-4.72,2.6-10.52,2.6-17.38,0-10.33-1.94-18.19-5.81-23.58ZM897.15,122.23c.12-4.22.65-7.48,1.58-9.77s2.27-3.87,4-4.75c1.73-.88,4.06-1.32,7-1.32h1.76c2.93,0,5.28.44,7.04,1.32s3.09,2.46,4,4.75c.03.07.05.15.08.22l-25.39,27.9c-.04-.58-.06-1.18-.08-1.81-.18-5.51-.18-11.03,0-16.54ZM924.08,138.77c-.12,4.22-.63,7.48-1.54,9.77-.91,2.29-2.24,3.87-4,4.75-1.76.88-4.11,1.32-7.04,1.32h-1.76c-2.93,0-5.27-.44-7-1.32-1.73-.88-3.07-2.46-4-4.75-.03-.08-.06-.17-.09-.26l25.36-27.87c.03.58.06,1.18.08,1.81.18,5.52.18,11.03,0,16.54Z"/>
    <path class="st1" d="M963.5,98.82c-4.81,0-8.9,1.22-12.28,3.65-3.37,2.44-5.94,6.01-7.7,10.74-1.76,4.72-2.64,10.49-2.64,17.29,0,10.21,1.96,18.04,5.9,23.5,3.93,5.46,9.5,8.18,16.72,8.18,4.81,0,8.89-1.2,12.23-3.61,3.34-2.4,5.88-5.97,7.61-10.69,1.73-4.72,2.6-10.52,2.6-17.38,0-10.33-1.94-18.19-5.81-23.58-3.87-5.4-9.42-8.1-16.63-8.1ZM949.95,122.23c.12-4.22.65-7.48,1.58-9.77s2.27-3.87,4-4.75c1.73-.88,4.06-1.32,7-1.32h1.76c2.93,0,5.28.44,7.04,1.32s3.09,2.46,4,4.75c.03.07.05.15.08.22l-25.39,27.9c-.04-.58-.06-1.18-.08-1.81-.18-5.51-.18-11.03,0-16.54ZM976.88,138.77c-.12,4.22-.63,7.48-1.54,9.77-.91,2.29-2.24,3.87-4,4.75-1.76.88-4.11,1.32-7.04,1.32h-1.76c-2.93,0-5.27-.44-7-1.32-1.73-.88-3.07-2.46-4-4.75-.03-.08-.06-.17-.09-.26l25.36-27.87c.03.58.06,1.18.08,1.81.18,5.52.18,11.03,0,16.54Z"/>
    <polygon class="st1" points="1024.49 99.7 1013.84 99.7 998.53 113.25 998.53 123.02 1015.11 108.41 1016.39 108.41 1016.3 154.43 997.56 154.43 997.56 161.3 1039.97 161.3 1039.97 154.43 1024.49 154.43 1024.49 99.7"/>
    <path class="st1" d="M271.2,183.74h-21.03v61.6h8.27v-25.17h13.99c3.99,0,6.86.78,8.62,2.33,1.76,1.56,2.64,4.12,2.64,7.7v15.14h8.18v-15.14c0-4.16-.91-7.26-2.73-9.28-1.58-1.76-4.05-2.97-7.39-3.64v-.63c1.83-.5,3.51-1.3,5.02-2.42,1.94-1.44,3.43-3.27,4.49-5.5,1.06-2.23,1.58-4.66,1.58-7.3,0-3.64-.95-6.79-2.86-9.46-1.91-2.67-4.5-4.71-7.79-6.12-3.29-1.41-6.95-2.11-11-2.11ZM283.78,200.1v3.61c0,2.46-.32,4.39-.97,5.76-.65,1.38-1.69,2.36-3.12,2.95-1.44.59-3.45.88-6.03.88h-15.22v-22.7h15.22c2.52,0,4.52.29,5.98.88,1.47.59,2.52,1.57,3.17,2.95.64,1.38.97,3.27.97,5.68Z"/>
    <path class="st1" d="M335.66,203.93c-3.2-2.32-7.23-3.48-12.1-3.48-4.11,0-7.71.98-10.82,2.95-3.11,1.97-5.52,4.69-7.22,8.18-1.7,3.49-2.55,7.41-2.55,11.75s.86,8.43,2.6,11.92c1.73,3.49,4.15,6.19,7.26,8.1,3.11,1.91,6.63,2.86,10.56,2.86,3.34,0,6.42-.67,9.24-2.02,2.82-1.35,5.16-3.23,7.04-5.63,1.88-2.4,3.05-5.1,3.52-8.1h-8.1c-.41,3.23-1.38,5.46-2.9,6.69-1.53,1.23-4.08,1.85-7.66,1.85h-2.02c-3.99,0-6.81-.94-8.45-2.82-1.64-1.88-2.55-5.13-2.73-9.77,0-.27,0-.53,0-.79h32.22c.53-4.52.15-8.68-1.14-12.5-1.29-3.81-3.54-6.88-6.73-9.2ZM314.1,210.31c1.67-1.76,4.47-2.64,8.4-2.64h2.2c3.81,0,6.54.88,8.18,2.64,1.64,1.76,2.46,4.75,2.46,8.98v.18h-24.03c0-.06,0-.12,0-.18.18-4.22,1.1-7.22,2.77-8.98Z"/>
    <path class="st1" d="M364.12,243c2.93,1.97,6.22,2.95,9.86,2.95,2.93,0,5.43-.59,7.48-1.76,2.05-1.17,3.73-2.73,5.02-4.66h.7v6.07c0,2.82-.34,5.02-1.01,6.6-.68,1.58-1.89,2.74-3.65,3.48-1.76.73-4.31,1.1-7.66,1.1-2.52,0-4.53-.23-6.03-.7-1.5-.47-2.64-1.31-3.43-2.51-.79-1.2-1.22-2.95-1.28-5.24h-8.27c.12,2.93,1.06,5.59,2.82,7.96,1.76,2.38,4.09,4.22,7,5.54,2.9,1.32,6.09,1.98,9.55,1.98,3.81,0,7.23-.81,10.25-2.42,3.02-1.61,5.38-3.84,7.08-6.69,1.7-2.85,2.55-6.06,2.55-9.64v-43.74h-7.92v5.54h-.7c-1.29-1.88-2.96-3.39-5.02-4.53-2.05-1.14-4.55-1.72-7.48-1.72-3.64,0-6.92.98-9.86,2.95-2.93,1.97-5.24,4.68-6.91,8.14-1.67,3.46-2.51,7.33-2.51,11.62s.84,8.14,2.51,11.57c1.67,3.43,3.97,6.13,6.91,8.1ZM363.24,219.64c.12-4.22,1.03-7.23,2.73-9.02,1.7-1.79,4.49-2.68,8.36-2.68h1.76c3.93,0,6.75.9,8.45,2.68,1.7,1.79,2.61,4.8,2.73,9.02.12,2.46.12,4.93,0,7.39-.12,4.22-1.03,7.25-2.73,9.06-1.7,1.82-4.52,2.73-8.45,2.73h-1.76c-3.87,0-6.66-.91-8.36-2.73-1.7-1.82-2.61-4.84-2.73-9.06-.06-2.46-.06-4.93,0-7.39Z"/>
    <path class="st1" d="M410.15,201.34v27.81c0,3.64.66,6.75,1.98,9.33,1.32,2.58,3.12,4.52,5.41,5.81,2.29,1.29,4.84,1.94,7.66,1.94,3.52,0,6.56-.92,9.11-2.77,1.44-1.04,2.63-2.33,3.57-3.83h.78v5.72h7.92v-44h-7.92v27.54c0,3.17-.79,5.63-2.38,7.39-1.58,1.76-3.78,2.64-6.6,2.64h-2.64c-3.05,0-5.31-.75-6.78-2.24-1.47-1.5-2.2-3.77-2.2-6.82v-28.51h-7.92Z"/>
    <polygon class="st1" points="463.65 181.98 463.65 188.49 478.87 188.49 478.87 238.82 461.36 238.82 461.36 245.34 503.34 245.34 503.34 238.82 486.79 238.82 486.79 181.98 463.65 181.98"/>
    <path class="st1" d="M513.11,223.42c0,4.34.81,8.23,2.42,11.66,1.61,3.43,3.83,6.12,6.64,8.05s5.98,2.9,9.5,2.9c2.99,0,5.63-.62,7.92-1.85,2.29-1.23,4.05-2.79,5.28-4.66h.7v5.81h7.92v-44h-7.92v5.63h-.7c-1.29-1.88-3.01-3.4-5.15-4.58-2.14-1.17-4.68-1.76-7.61-1.76-3.58,0-6.81.98-9.68,2.95-2.88,1.97-5.15,4.69-6.82,8.18-1.67,3.49-2.51,7.38-2.51,11.66ZM521.64,219.55c.12-4.22,1.03-7.22,2.73-8.98,1.7-1.76,4.49-2.64,8.36-2.64h1.76c3.93,0,6.75.9,8.45,2.68,1.7,1.79,2.61,4.8,2.73,9.02.12,2.46.12,4.93,0,7.39-.12,4.22-1.03,7.23-2.73,9.02-1.7,1.79-4.52,2.68-8.45,2.68h-1.76c-3.87,0-6.66-.91-8.36-2.73-1.7-1.82-2.61-4.84-2.73-9.06-.06-2.46-.06-4.93,0-7.39Z"/>
    <path class="st1" d="M566.17,245.34h40.3v-6.51h-20.94v-15.4c0-5.16,1.08-9,3.26-11.53,2.17-2.52,5.37-3.78,9.59-3.78h10.21v-7.3h-7.22c-4.05,0-7.39.95-10.03,2.86-1.94,1.4-3.54,3.23-4.81,5.5h-1v-7.83h-7.92v37.49h-11.44v6.51Z"/>
    <path class="st1" d="M617.66,214.54c0,10.27,1.95,18.11,5.85,23.54,3.9,5.43,9.43,8.14,16.59,8.14,4.75,0,8.78-1.2,12.1-3.61,3.31-2.4,5.84-5.97,7.57-10.69,1.73-4.72,2.6-10.52,2.6-17.38,0-10.33-1.92-18.19-5.76-23.58-3.84-5.4-9.34-8.1-16.5-8.1-4.75,0-8.82,1.22-12.19,3.65-3.37,2.44-5.93,6.01-7.66,10.74-1.73,4.72-2.6,10.49-2.6,17.29ZM626.72,209.34c.06-1.06.09-2.08.09-3.08.12-4.17.63-7.38,1.54-9.64.91-2.26,2.21-3.83,3.92-4.71,1.7-.88,3.99-1.32,6.86-1.32h1.76c2.87,0,5.16.44,6.86,1.32,1.7.88,3.01,2.45,3.92,4.71.91,2.26,1.42,5.47,1.54,9.64.18,3.99.21,8.48.09,13.46,0,1-.03,2.02-.09,3.08-.12,4.17-.63,7.38-1.54,9.64-.91,2.26-2.21,3.83-3.92,4.71-1.7.88-3.99,1.32-6.86,1.32h-1.76c-2.88,0-5.16-.44-6.86-1.32-1.7-.88-3.01-2.45-3.92-4.71-.91-2.26-1.42-5.47-1.54-9.64-.18-3.99-.21-8.48-.09-13.46Z"/>
    <path class="st1" d="M687.35,202.44c-2.05,1.2-3.73,2.77-5.02,4.71h-.7v-25.17h-7.92v63.36h7.92v-5.54h.7c1.29,1.88,2.96,3.39,5.02,4.53,2.05,1.14,4.55,1.72,7.48,1.72,3.64,0,6.92-.98,9.86-2.95,2.93-1.96,5.24-4.68,6.91-8.14,1.67-3.46,2.51-7.33,2.51-11.62s-.84-8.15-2.51-11.62c-1.67-3.46-3.98-6.17-6.91-8.14-2.93-1.96-6.22-2.95-9.86-2.95-2.93,0-5.43.6-7.48,1.8ZM705.57,219.64c.12,2.46.12,4.93,0,7.39-.12,4.22-1.03,7.23-2.73,9.02-1.7,1.79-4.49,2.68-8.36,2.68h-1.76c-3.87,0-6.67-.89-8.4-2.68-1.73-1.79-2.66-4.8-2.77-9.02-.06-2.46-.06-4.93,0-7.39.12-4.22,1.04-7.23,2.77-9.02,1.73-1.79,4.53-2.68,8.4-2.68h1.76c3.87,0,6.66.9,8.36,2.68,1.7,1.79,2.61,4.8,2.73,9.02Z"/>
    <polygon class="st1" points="725.37 238.82 725.37 245.34 767.34 245.34 767.34 238.82 750.8 238.82 750.8 181.98 727.66 181.98 727.66 188.49 742.88 188.49 742.88 238.82 725.37 238.82"/>
    <rect class="st1" x="794.8" y="178.46" width="10.74" height="11.09"/>
    <polygon class="st1" points="804.57 201.34 781.42 201.34 781.42 207.85 796.65 207.85 796.65 238.82 779.84 238.82 779.84 245.34 819.79 245.34 819.79 238.82 804.57 238.82 804.57 201.34"/>
    <path class="st1" d="M839.33,203.58c-2.93,1.97-5.24,4.68-6.91,8.14-1.67,3.46-2.51,7.33-2.51,11.62s.84,8.16,2.51,11.62c1.67,3.46,3.97,6.17,6.91,8.14,2.93,1.97,6.22,2.95,9.86,2.95,2.93,0,5.43-.6,7.48-1.8,2.05-1.2,3.72-2.77,5.02-4.71h.7v23.41h7.92v-61.6h-7.92v5.54h-.7c-1.29-1.88-2.96-3.39-5.02-4.53-2.05-1.14-4.55-1.72-7.48-1.72-3.64,0-6.92.98-9.86,2.95ZM851.29,207.94c3.93,0,6.75.9,8.45,2.68,1.7,1.79,2.61,4.8,2.73,9.02.12,2.46.12,4.93,0,7.39-.12,4.22-1.03,7.23-2.73,9.02-1.7,1.79-4.52,2.68-8.45,2.68h-1.76c-3.87,0-6.66-.89-8.36-2.68-1.7-1.79-2.61-4.8-2.73-9.02-.06-2.46-.06-4.93,0-7.39.12-4.22,1.03-7.23,2.73-9.02,1.7-1.79,4.49-2.68,8.36-2.68h1.76Z"/>
    <path class="st1" d="M892.74,244.28c2.29,1.29,4.84,1.94,7.66,1.94,3.52,0,6.56-.92,9.11-2.77,1.44-1.04,2.63-2.33,3.57-3.83h.78v5.72h7.92v-44h-7.92v27.54c0,3.17-.79,5.63-2.38,7.39-1.58,1.76-3.78,2.64-6.6,2.64h-2.64c-3.05,0-5.31-.75-6.78-2.24-1.47-1.5-2.2-3.77-2.2-6.82v-28.51h-7.92v27.81c0,3.64.66,6.75,1.98,9.33,1.32,2.58,3.12,4.52,5.41,5.81Z"/>
    <path class="st1" d="M946.42,243.36c3.11,1.91,6.63,2.86,10.56,2.86,3.34,0,6.42-.67,9.24-2.02,2.82-1.35,5.16-3.23,7.04-5.63,1.88-2.4,3.05-5.1,3.52-8.1h-8.1c-.41,3.23-1.38,5.46-2.9,6.69-1.53,1.23-4.08,1.85-7.66,1.85h-2.02c-3.99,0-6.81-.94-8.45-2.82-1.64-1.88-2.55-5.13-2.73-9.77,0-.27,0-.53,0-.79h32.22c.53-4.52.15-8.68-1.14-12.5-1.29-3.81-3.54-6.88-6.73-9.2-3.2-2.32-7.23-3.48-12.1-3.48-4.11,0-7.71.98-10.82,2.95-3.11,1.97-5.51,4.69-7.22,8.18-1.7,3.49-2.55,7.41-2.55,11.75s.86,8.43,2.6,11.92c1.73,3.49,4.15,6.19,7.26,8.1ZM947.7,210.31c1.67-1.76,4.47-2.64,8.4-2.64h2.2c3.81,0,6.54.88,8.18,2.64,1.64,1.76,2.46,4.75,2.46,8.98v.18h-24.03c0-.06,0-.12,0-.18.18-4.22,1.1-7.22,2.77-8.98Z"/>
    <path class="st1" d="M998.22,229.72c3.43,2.2,7.23,3.3,11.4,3.3s7.96-1.08,11.4-3.26c3.43-2.17,6.14-5.18,8.14-9.02,1.99-3.84,2.99-8.11,2.99-12.8s-1-8.95-2.99-12.76c-2-3.81-4.71-6.82-8.14-9.02-3.43-2.2-7.23-3.3-11.4-3.3s-7.96,1.09-11.4,3.26c-3.43,2.17-6.15,5.18-8.14,9.02-2,3.84-2.99,8.11-2.99,12.8s1,8.95,2.99,12.76c1.99,3.81,4.71,6.82,8.14,9.02ZM994.04,202.66c.12-3.93,1.28-7.13,3.48-9.59s5.24-3.7,9.11-3.7h5.98c3.87,0,6.91,1.23,9.11,3.7s3.36,5.66,3.48,9.59c.12,3.52.12,7.04,0,10.56-.12,3.93-1.28,7.13-3.48,9.59-2.2,2.46-5.24,3.7-9.11,3.7h-5.98c-3.87,0-6.91-1.23-9.11-3.7-2.2-2.46-3.36-5.66-3.48-9.59-.06-3.52-.06-7.04,0-10.56Z"/>
    <path class="st1" d="M1006.09,210.93h4.58c1.23,0,2.08.22,2.55.66.47.44.7,1.25.7,2.42v6.69h5.28v-6.69c0-1.58-.41-2.83-1.23-3.74-.6-.66-1.54-1.12-2.82-1.4v-.32c1-.33,1.86-.83,2.55-1.54,1.17-1.2,1.76-2.71,1.76-4.53,0-2.17-.81-3.94-2.42-5.32-1.61-1.38-3.8-2.07-6.56-2.07h-9.68v25.61h5.28v-9.77ZM1010.32,199.14c1.41,0,2.36.21,2.86.62.5.41.75,1.17.75,2.29v1.94c0,1.11-.25,1.88-.75,2.29-.5.41-1.45.62-2.86.62h-4.22v-7.74h4.22Z"/>
    <path class="st1" d="M213.03,297.7l-20.42,61.6h8.27l5.17-15.93h23.1l5.17,15.93h8.27l-19.98-61.6h-9.59ZM226.93,336.5h-18.64l3.6-11.09c2.4-7.39,4.19-13.64,5.37-18.74h.7c.53,2.46,1.14,4.93,1.85,7.39.53,1.88,1.08,3.77,1.67,5.68.59,1.91,1.2,3.8,1.85,5.68l3.6,11.09Z"/>
    <path class="st1" d="M282.37,327.42v-.65c2.38-.74,4.4-2.17,6.03-4.3,1.91-2.49,2.86-5.38,2.86-8.67,0-3.05-.87-5.81-2.6-8.27-1.73-2.46-4.03-4.38-6.91-5.76-2.88-1.38-6.01-2.07-9.42-2.07h-22.18v61.6h22.26c3.93,0,7.48-.75,10.65-2.24,3.17-1.5,5.66-3.58,7.48-6.25,1.82-2.67,2.73-5.65,2.73-8.93,0-3.75-1.13-7-3.39-9.72-2.01-2.43-4.52-4-7.52-4.73ZM272.87,304.56c2.41,0,4.3.29,5.68.88,1.38.59,2.38,1.48,2.99,2.68.62,1.2.92,2.83.92,4.88v2.55c0,3.05-.72,5.22-2.16,6.51-1.44,1.29-3.92,1.94-7.44,1.94h-14.61v-19.45h14.61ZM284.48,343.1c0,3.34-.78,5.73-2.33,7.17-1.56,1.44-4.24,2.16-8.05,2.16h-15.84v-21.74h15.84c3.81,0,6.5.72,8.05,2.16,1.55,1.44,2.33,3.83,2.33,7.17v3.08Z"/>
    <path class="st1" d="M323.47,360.18c4.28,0,8.02-.97,11.22-2.9,3.2-1.94,5.72-4.75,7.57-8.45,1.85-3.7,2.86-8.07,3.04-13.11h-8.45c-.06,4.52-.43,7.95-1.1,10.3-.68,2.35-1.88,4-3.61,4.97-1.73.97-4.3,1.45-7.7,1.45h-1.76c-2.93,0-5.28-.44-7.04-1.32-1.76-.88-3.11-2.45-4.05-4.71-.94-2.26-1.47-5.47-1.58-9.64-.18-3.99-.21-8.48-.09-13.46.06-1.06.09-2.08.09-3.08.12-4.17.64-7.38,1.58-9.64.94-2.26,2.29-3.83,4.05-4.71,1.76-.88,4.11-1.32,7.04-1.32h1.76c3.4,0,5.97.5,7.7,1.5,1.73,1,2.93,2.67,3.61,5.02.67,2.35,1.04,5.81,1.1,10.38h8.54c-.12-5.1-1.09-9.5-2.9-13.2-1.82-3.7-4.36-6.53-7.61-8.49-3.26-1.96-7.06-2.95-11.4-2.95-4.69,0-8.74,1.23-12.14,3.7-3.4,2.46-6,6.06-7.79,10.78-1.79,4.72-2.68,10.46-2.68,17.2,0,10.21,1.99,18.04,5.98,23.5,3.99,5.46,9.53,8.18,16.63,8.18Z"/>
    <path class="st1" d="M375.21,297.7h-19.1v61.6h19.27c5.46,0,9.9-1.26,13.33-3.78,3.43-2.52,5.92-6.06,7.48-10.6,1.55-4.55,2.33-10.02,2.33-16.41,0-9.86-1.88-17.45-5.63-22.79-3.75-5.34-9.65-8.01-17.69-8.01ZM389.38,336.59c-.12,4.34-.73,7.66-1.85,9.94-1.12,2.29-2.68,3.84-4.71,4.66-2.02.82-4.77,1.23-8.23,1.23h-10.21v-47.87h10.21c3.46,0,6.2.41,8.23,1.23,2.02.82,3.59,2.38,4.71,4.66,1.11,2.29,1.73,5.6,1.85,9.94.18,5.4.18,10.79,0,16.19Z"/>
    <polygon class="st1" points="449.66 304.56 449.66 297.7 418.95 297.7 416.13 297.7 410.67 297.7 410.67 359.3 416.13 359.3 418.95 359.3 450.98 359.3 450.98 352.43 418.95 352.43 418.95 331.67 447.02 331.67 447.02 324.8 418.95 324.8 418.95 304.56 449.66 304.56"/>
    <polygon class="st1" points="468.14 297.7 464 297.7 464 359.3 472.27 359.3 472.27 331.75 500.61 331.75 500.61 324.89 472.27 324.89 472.27 304.56 503.43 304.56 503.43 297.7 472.27 297.7 468.14 297.7"/>
    <path class="st1" d="M522.7,310.59c1-2.26,2.42-3.83,4.27-4.71,1.85-.88,4.27-1.32,7.26-1.32h1.76c2.82,0,5.04.46,6.69,1.36,1.64.91,2.85,2.39,3.61,4.44.76,2.05,1.17,4.87,1.23,8.45h8.71c-.24-4.52-1.31-8.43-3.21-11.75-1.91-3.31-4.44-5.85-7.61-7.61-3.17-1.76-6.72-2.64-10.65-2.64-5.05,0-9.28,1.36-12.72,4.09-3.43,2.73-5.98,6.47-7.66,11.22s-2.51,10.21-2.51,16.37.78,11.43,2.33,16.15c1.55,4.72,3.96,8.46,7.22,11.22,3.26,2.76,7.32,4.14,12.19,4.14,3.64,0,6.81-.72,9.5-2.16,2.07-1.1,3.7-2.64,4.9-4.62h.73v6.07h7.48v-31.68h-23.85v6.69h16.07l-.05,4.93c-.06,3.29-.5,5.88-1.32,7.79-.82,1.91-2.14,3.29-3.96,4.14-1.82.85-4.25,1.28-7.3,1.28h-1.94c-2.99,0-5.38-.44-7.17-1.32-1.79-.88-3.15-2.45-4.09-4.71-.94-2.26-1.47-5.47-1.58-9.64-.18-5.51-.18-11.03,0-16.54.12-4.17.67-7.38,1.67-9.64Z"/>
    <polygon class="st1" points="607.09 359.3 607.09 297.7 598.82 297.7 598.82 324.8 575.58 324.8 575.58 297.7 567.31 297.7 567.31 359.3 575.58 359.3 575.58 331.67 598.82 331.67 598.82 359.3 607.09 359.3"/>
    <polygon class="st1" points="659.36 304.56 659.36 297.7 620.64 297.7 620.64 304.56 635.86 304.56 635.86 352.43 620.64 352.43 620.64 359.3 659.36 359.3 659.36 352.43 644.13 352.43 644.13 304.56 659.36 304.56"/>
    <path class="st1" d="M671.33,337.74c0,4.52.88,8.48,2.64,11.88,1.76,3.4,4.19,6.01,7.3,7.83,3.11,1.82,6.6,2.73,10.47,2.73,4.63,0,8.52-.98,11.66-2.95,3.14-1.96,5.47-4.71,7-8.23,1.52-3.52,2.29-7.6,2.29-12.23v-39.07h-8.27v43.65c0,2.82-.38,5.03-1.14,6.64-.76,1.61-2,2.79-3.7,3.52-1.7.73-3.99,1.1-6.86,1.1h-1.32c-2.7,0-4.84-.34-6.42-1.01-1.58-.67-2.73-1.76-3.43-3.26s-1.06-3.53-1.06-6.12v-4.49h-9.15Z"/>
    <polygon class="st1" points="769.45 297.7 759.24 297.7 734.33 324.8 733.63 324.8 733.63 297.7 725.36 297.7 725.36 359.3 733.63 359.3 733.63 330.87 734.33 330.87 759.59 359.3 770.5 359.3 742.06 327.4 769.45 297.7"/>
    <polygon class="st1" points="780.62 297.7 780.62 359.3 820.84 359.3 820.84 352.43 788.89 352.43 788.89 297.7 780.62 297.7"/>
    <path class="st1" d="M851.64,333.34h-.7l-10.03-35.64h-11v61.6h7.22l-.26-34.41c-.12-6.92-.32-13.17-.62-18.74h.7l9.94,35.29h8.45l9.94-35.29h.7c-.29,5.57-.5,11.82-.62,18.74l-.26,34.41h7.39v-61.6h-10.82l-10.03,35.64Z"/>
    <path class="st1" d="M891.32,326.3c0-6.92-.12-13.17-.35-18.74h.7l20.5,51.74h12.23v-61.6h-7.74v33c0,6.92.12,13.17.35,18.74h-.7l-20.5-51.74h-12.23v61.6h7.74v-33Z"/>
    <path class="st1" d="M956.88,360.18c4.75,0,8.78-1.2,12.1-3.61,3.31-2.4,5.84-5.97,7.57-10.69,1.73-4.72,2.6-10.52,2.6-17.38,0-10.33-1.92-18.19-5.76-23.58-3.84-5.4-9.34-8.1-16.5-8.1-4.75,0-8.82,1.22-12.19,3.65-3.37,2.44-5.93,6.01-7.66,10.74-1.73,4.72-2.6,10.49-2.6,17.29,0,10.27,1.95,18.11,5.85,23.54,3.9,5.43,9.43,8.14,16.59,8.14ZM943.51,323.3c.06-1.06.09-2.08.09-3.08.12-4.17.63-7.38,1.54-9.64.91-2.26,2.21-3.83,3.92-4.71,1.7-.88,3.99-1.32,6.86-1.32h1.76c2.87,0,5.16.44,6.86,1.32,1.7.88,3.01,2.45,3.92,4.71.91,2.26,1.42,5.47,1.54,9.64.18,3.99.21,8.48.09,13.46,0,1-.03,2.02-.09,3.08-.12,4.17-.63,7.38-1.54,9.64-.91,2.26-2.21,3.83-3.92,4.71-1.7.88-3.99,1.32-6.86,1.32h-1.76c-2.88,0-5.16-.44-6.86-1.32-1.7-.88-3.01-2.45-3.92-4.71-.91-2.26-1.42-5.47-1.54-9.64-.18-3.99-.21-8.48-.09-13.46Z"/>
    <path class="st1" d="M1023.06,300.21c-3.17-1.67-6.75-2.51-10.74-2.51h-22.97v61.6h8.27v-22.79h14.7c3.99,0,7.57-.82,10.74-2.46,3.17-1.64,5.65-3.93,7.44-6.86,1.79-2.93,2.68-6.25,2.68-9.94s-.9-7.11-2.68-10.08c-1.79-2.96-4.27-5.28-7.44-6.95ZM1024.38,319.17c0,2.64-.35,4.72-1.06,6.25-.7,1.53-1.85,2.61-3.43,3.26-1.58.65-3.76.97-6.51.97h-15.75v-25.08h15.75c2.76,0,4.93.32,6.51.97,1.58.65,2.73,1.73,3.43,3.26.7,1.53,1.06,3.64,1.06,6.34v4.05Z"/>
    <path class="st1" d="M1074.58,356.57c3.31-2.4,5.84-5.97,7.57-10.69,1.73-4.72,2.6-10.52,2.6-17.38,0-10.33-1.92-18.19-5.76-23.58-3.84-5.4-9.34-8.1-16.5-8.1-4.75,0-8.82,1.22-12.19,3.65-3.37,2.44-5.93,6.01-7.66,10.74-1.73,4.72-2.6,10.49-2.6,17.29,0,10.27,1.95,18.11,5.85,23.54,3.04,4.23,7.08,6.8,12.1,7.74v1.81c0,3.23.6,5.98,1.8,8.27,1.2,2.29,2.93,4.03,5.19,5.24,2.26,1.2,4.97,1.8,8.14,1.8h8.36v-6.51h-10.65c-1.88,0-3.26-.46-4.14-1.36-.88-.91-1.32-2.3-1.32-4.18v-4.84c3.51-.4,6.58-1.54,9.2-3.44ZM1050.73,346.4c-.91-2.26-1.42-5.47-1.54-9.64-.18-3.99-.21-8.48-.09-13.46.06-1.06.09-2.08.09-3.08.12-4.17.63-7.38,1.54-9.64.91-2.26,2.21-3.83,3.92-4.71,1.7-.88,3.99-1.32,6.86-1.32h1.76c2.87,0,5.16.44,6.86,1.32,1.7.88,3.01,2.45,3.92,4.71.91,2.26,1.42,5.47,1.54,9.64.18,3.99.21,8.48.09,13.46,0,1-.03,2.02-.09,3.08-.12,4.17-.63,7.38-1.54,9.64-.91,2.26-2.21,3.83-3.92,4.71-1.7.88-3.99,1.32-6.86,1.32h-1.76c-2.88,0-5.16-.44-6.86-1.32-1.7-.88-3.01-2.45-3.92-4.71Z"/>
    <path class="st1" d="M440.6,383.85c-3.29-1.41-6.95-2.11-11-2.11h-21.03v61.6h8.27v-25.17h13.99c3.99,0,6.86.78,8.62,2.33,1.76,1.55,2.64,4.12,2.64,7.7v15.14h8.18v-15.14c0-4.17-.91-7.26-2.73-9.28-1.58-1.76-4.05-2.97-7.39-3.64v-.63c1.83-.5,3.51-1.29,5.02-2.42,1.94-1.44,3.43-3.27,4.49-5.5,1.06-2.23,1.58-4.66,1.58-7.3,0-3.64-.95-6.79-2.86-9.46-1.91-2.67-4.5-4.71-7.79-6.12ZM442.18,401.71c0,2.46-.32,4.39-.97,5.76-.65,1.38-1.69,2.36-3.12,2.95-1.44.59-3.45.88-6.03.88h-15.22v-22.7h15.22c2.52,0,4.52.29,5.98.88,1.47.59,2.52,1.57,3.17,2.95.64,1.38.97,3.27.97,5.68v3.61Z"/>
    <path class="st1" d="M492.43,434.58c-1.76,1.5-4.64,2.24-8.62,2.24h-2.55c-3.29,0-5.84-.53-7.66-1.58-1.82-1.06-3.12-2.61-3.92-4.66-.79-2.05-1.25-4.75-1.36-8.1h-8.62c.12,4.17,1.14,7.91,3.08,11.22s4.59,5.9,7.96,7.74c3.37,1.85,7.2,2.77,11.48,2.77,3.99,0,7.66-.82,11-2.46,3.34-1.64,5.98-3.93,7.92-6.86,1.94-2.93,2.9-6.28,2.9-10.03,0-4.46-1.44-8.04-4.31-10.74-2.88-2.7-6.95-4.52-12.23-5.46l-8.18-1.5c-3.52-.64-6-1.63-7.44-2.95-1.44-1.32-2.16-3.39-2.16-6.2v-1.06c0-3.05.82-5.27,2.46-6.64,1.64-1.38,4.25-2.07,7.83-2.07h2.38c3.11,0,5.5.43,7.17,1.28,1.67.85,2.87,2.17,3.61,3.96.73,1.79,1.16,4.27,1.28,7.44h8.45c-.12-3.87-1.09-7.33-2.9-10.38-1.82-3.05-4.34-5.43-7.57-7.13-3.23-1.7-6.86-2.55-10.91-2.55-3.64,0-7,.75-10.08,2.24-3.08,1.5-5.53,3.61-7.35,6.34-1.82,2.73-2.73,5.88-2.73,9.46,0,4.28,1.41,7.79,4.22,10.52,2.82,2.73,6.75,4.56,11.79,5.5l7.57,1.41c3.75.7,6.38,1.77,7.88,3.21s2.24,3.65,2.24,6.64v1.14c0,3.34-.88,5.76-2.64,7.26Z"/>
    <polygon class="st1" points="510.64 388.6 530.27 388.6 530.27 443.34 538.54 443.34 538.54 388.6 558.16 388.6 558.16 381.74 510.64 381.74 510.64 388.6"/>
    <path class="st1" d="M576.86,442.15c3.2,1.38,6.64,2.07,10.34,2.07,4.46,0,8.29-.97,11.48-2.9,3.2-1.94,5.63-4.65,7.3-8.14,1.67-3.49,2.51-7.49,2.51-12.01v-39.42h-8.1v43.65c0,2.88-.38,5.12-1.14,6.73-.76,1.61-2.01,2.77-3.74,3.48-1.73.7-4.12,1.06-7.17,1.06h-2.29c-2.99,0-5.34-.35-7.04-1.06-1.7-.7-2.93-1.86-3.7-3.48-.76-1.61-1.14-3.86-1.14-6.73v-43.65h-8.27v39.42c0,5.75,1.03,10.34,3.08,13.77,2.05,3.43,4.68,5.84,7.88,7.22Z"/>
    <path class="st1" d="M645.46,415.62c-.76,2.35-1.48,4.69-2.16,7.04-.68,2.35-1.33,4.72-1.98,7.13-.23.76-.62,2.29-1.14,4.58h-.7c-.53-2.52-1.23-5.37-2.11-8.54-.88-3.17-1.76-6.22-2.64-9.15-.12-.23-.24-.59-.35-1.06l-10.3-33.88h-8.54l19.18,61.6h10.12l19.62-61.6h-8.36l-10.65,33.88Z"/>
    <path class="st1" d="M716.83,381.74h-7.22l-5.19,52.62h-.7c0-.7-.06-1.7-.18-2.99-.12-2.64-.29-5.28-.53-7.92-.24-2.64-.53-5.25-.88-7.83l-3.78-27.72h-10.47l-4.05,27.72c-.65,4.34-1.17,9.8-1.58,16.37-.12,1.06-.18,1.85-.18,2.38h-.7l-5.02-52.62h-7.39l6.69,61.6h10.3l6.68-47.87h.69l6.19,47.87h10.38l6.95-61.6Z"/>
    <polygon class="st1" points="769.36 381.74 759.77 381.74 745.86 404.97 745.11 404.97 731.52 381.74 721.75 381.74 740.94 412.5 721.31 443.34 730.91 443.34 745.37 419.31 746.13 419.31 760.12 443.34 769.98 443.34 750.36 411.81 769.36 381.74"/>
    <polygon class="st1" points="794.26 436.47 779.04 436.47 779.04 443.34 817.76 443.34 817.76 436.47 802.54 436.47 802.54 415.9 822.51 381.74 813.1 381.74 798.89 407.52 798.08 407.52 783.97 381.74 774.38 381.74 794.26 415.89 794.26 436.47"/>
    <polygon class="st1" points="830.17 388.6 863.08 388.6 863.08 389.22 828.67 435.59 828.67 443.34 872.93 443.34 872.93 436.47 838.53 436.47 838.53 435.77 872.93 389.39 872.93 381.74 830.17 381.74 830.17 388.6"/>
    <path class="st1" d="M228.78,489.01h-.7c-1.29-1.88-3.01-3.4-5.15-4.58-2.14-1.17-4.68-1.76-7.61-1.76-3.58,0-6.81.98-9.68,2.95-2.88,1.97-5.15,4.69-6.82,8.18-1.67,3.49-2.51,7.38-2.51,11.66s.81,8.23,2.42,11.66c1.61,3.43,3.83,6.12,6.64,8.05,2.82,1.94,5.98,2.9,9.5,2.9,2.99,0,5.63-.62,7.92-1.85,2.29-1.23,4.05-2.79,5.28-4.66h.7v5.81h7.92v-44h-7.92v5.63ZM228.87,509.07c-.12,4.22-1.03,7.23-2.73,9.02-1.7,1.79-4.52,2.68-8.45,2.68h-1.76c-3.87,0-6.66-.91-8.36-2.73-1.7-1.82-2.61-4.84-2.73-9.06-.06-2.46-.06-4.93,0-7.39.12-4.22,1.03-7.22,2.73-8.98,1.7-1.76,4.49-2.64,8.36-2.64h1.76c3.93,0,6.75.9,8.45,2.68,1.7,1.79,2.61,4.8,2.73,9.02.12,2.46.12,4.93,0,7.39Z"/>
    <path class="st1" d="M251.31,464.02v63.36h7.92v-5.54h.7c1.29,1.88,2.96,3.39,5.02,4.53,2.05,1.14,4.55,1.72,7.48,1.72,3.64,0,6.92-.98,9.86-2.95,2.93-1.96,5.24-4.68,6.91-8.14,1.67-3.46,2.51-7.33,2.51-11.62s-.84-8.15-2.51-11.62c-1.67-3.46-3.98-6.17-6.91-8.14-2.93-1.96-6.22-2.95-9.86-2.95-2.93,0-5.43.6-7.48,1.8-2.05,1.2-3.73,2.77-5.02,4.71h-.7v-25.17h-7.92ZM261.91,492.66c1.73-1.79,4.53-2.68,8.4-2.68h1.76c3.87,0,6.66.9,8.36,2.68,1.7,1.79,2.61,4.8,2.73,9.02.12,2.46.12,4.93,0,7.39-.12,4.22-1.03,7.23-2.73,9.02-1.7,1.79-4.49,2.68-8.36,2.68h-1.76c-3.87,0-6.67-.89-8.4-2.68-1.73-1.79-2.66-4.8-2.77-9.02-.06-2.46-.06-4.93,0-7.39.12-4.22,1.04-7.23,2.77-9.02Z"/>
    <path class="st1" d="M312.86,525.35c3.14,1.94,6.7,2.9,10.69,2.9,3.64,0,6.97-.78,9.99-2.33,3.02-1.55,5.46-3.72,7.3-6.51,1.85-2.79,2.86-5.91,3.04-9.37h-8.1c-.18,2.76-.65,4.93-1.41,6.51-.76,1.58-1.92,2.71-3.48,3.39-1.56.67-3.65,1.01-6.29,1.01h-1.76c-3.99,0-6.85-.91-8.58-2.73-1.73-1.82-2.65-4.87-2.77-9.15-.06-2.46-.06-4.93,0-7.39.12-4.28,1.04-7.33,2.77-9.15,1.73-1.82,4.59-2.73,8.58-2.73h1.76c2.7,0,4.82.34,6.38,1.01,1.55.68,2.68,1.79,3.39,3.34.7,1.55,1.11,3.74,1.23,6.56h8.18c-.18-3.46-1.16-6.58-2.95-9.37-1.79-2.79-4.15-4.96-7.08-6.51-2.93-1.55-6.22-2.33-9.86-2.33-3.99,0-7.58.97-10.78,2.9-3.2,1.94-5.69,4.63-7.48,8.1-1.79,3.46-2.68,7.42-2.68,11.88s.86,8.42,2.6,11.88c1.73,3.46,4.17,6.16,7.3,8.1Z"/>
    <path class="st1" d="M364.12,525.13c2.93,1.97,6.22,2.95,9.86,2.95,2.93,0,5.43-.6,7.48-1.8,2.05-1.2,3.73-2.77,5.02-4.71h.7v5.81h7.92v-63.36h-7.92v24.9h-.7c-1.29-1.88-2.96-3.39-5.02-4.53-2.05-1.14-4.55-1.72-7.48-1.72-3.64,0-6.92.98-9.86,2.95-2.93,1.97-5.24,4.68-6.91,8.14-1.67,3.46-2.51,7.33-2.51,11.62s.84,8.16,2.51,11.62c1.67,3.46,3.97,6.17,6.91,8.14ZM363.24,501.68c.12-4.22,1.03-7.23,2.73-9.02,1.7-1.79,4.49-2.68,8.36-2.68h1.76c3.93,0,6.75.9,8.45,2.68,1.7,1.79,2.61,4.8,2.73,9.02.12,2.46.12,4.93,0,7.39-.12,4.22-1.03,7.23-2.73,9.02-1.7,1.79-4.52,2.68-8.45,2.68h-1.76c-3.87,0-6.66-.89-8.36-2.68-1.7-1.79-2.61-4.8-2.73-9.02-.06-2.46-.06-4.93,0-7.39Z"/>
    <path class="st1" d="M441.25,485.97c-3.2-2.32-7.23-3.48-12.1-3.48-4.11,0-7.71.98-10.82,2.95-3.11,1.97-5.52,4.69-7.22,8.18-1.7,3.49-2.55,7.41-2.55,11.75s.86,8.43,2.6,11.92c1.73,3.49,4.15,6.19,7.26,8.1,3.11,1.91,6.63,2.86,10.56,2.86,3.34,0,6.42-.67,9.24-2.02,2.82-1.35,5.16-3.23,7.04-5.63,1.88-2.4,3.05-5.1,3.52-8.1h-8.1c-.41,3.23-1.38,5.46-2.9,6.69-1.53,1.23-4.08,1.85-7.66,1.85h-2.02c-3.99,0-6.81-.94-8.45-2.82-1.64-1.88-2.55-5.13-2.73-9.77,0-.27,0-.53,0-.79h32.22c.53-4.52.15-8.68-1.14-12.5-1.29-3.81-3.54-6.88-6.73-9.2ZM419.69,492.35c1.67-1.76,4.47-2.64,8.4-2.64h2.2c3.81,0,6.54.88,8.18,2.64,1.64,1.76,2.46,4.75,2.46,8.98v.18h-24.03c0-.06,0-.12,0-.18.18-4.22,1.1-7.22,2.77-8.98Z"/>
    <path class="st1" d="M479.09,468.15c-2.79,2.76-4.18,6.54-4.18,11.35v3.87h-14.43v6.51h14.43v37.49h7.92v-37.49h19.36v-6.51h-19.36v-7.3c0-1.88.42-3.27,1.28-4.18.85-.91,2.16-1.36,3.92-1.36h17.25v-6.51h-14.78c-4.81,0-8.61,1.38-11.4,4.14Z"/>
    <path class="st1" d="M544.56,534.24c-.68,1.58-1.89,2.74-3.65,3.48-1.76.73-4.31,1.1-7.66,1.1-2.52,0-4.53-.24-6.03-.7-1.5-.47-2.64-1.31-3.43-2.51-.79-1.2-1.22-2.95-1.28-5.24h-8.27c.12,2.93,1.06,5.59,2.82,7.96,1.76,2.38,4.09,4.22,7,5.54,2.9,1.32,6.09,1.98,9.55,1.98,3.81,0,7.23-.81,10.25-2.42,3.02-1.61,5.38-3.84,7.08-6.69,1.7-2.85,2.55-6.06,2.55-9.64v-43.74h-7.92v5.54h-.7c-1.29-1.88-2.96-3.39-5.02-4.53-2.05-1.14-4.55-1.72-7.48-1.72-3.64,0-6.92.98-9.86,2.95-2.93,1.97-5.24,4.68-6.91,8.14-1.67,3.46-2.51,7.33-2.51,11.62s.84,8.14,2.51,11.57c1.67,3.43,3.97,6.13,6.91,8.1,2.93,1.97,6.22,2.95,9.86,2.95,2.93,0,5.43-.59,7.48-1.76,2.05-1.17,3.73-2.73,5.02-4.66h.7v6.07c0,2.82-.34,5.02-1.01,6.6ZM542.94,518.14c-1.7,1.82-4.52,2.73-8.45,2.73h-1.76c-3.87,0-6.66-.91-8.36-2.73-1.7-1.82-2.61-4.84-2.73-9.06-.06-2.46-.06-4.93,0-7.39.12-4.22,1.03-7.23,2.73-9.02,1.7-1.79,4.49-2.68,8.36-2.68h1.76c3.93,0,6.75.9,8.45,2.68,1.7,1.79,2.61,4.8,2.73,9.02.12,2.46.12,4.93,0,7.39-.12,4.22-1.03,7.25-2.73,9.06Z"/>
    <path class="st1" d="M606.03,499.57c0-3.64-.68-6.75-2.02-9.33-1.35-2.58-3.17-4.52-5.46-5.81-2.29-1.29-4.87-1.94-7.74-1.94-3.58,0-6.66.92-9.24,2.77-1.46,1.04-2.65,2.33-3.61,3.83h-.79v-25.08h-7.92v63.36h7.92v-27.54c0-3.17.81-5.63,2.42-7.39,1.61-1.76,3.86-2.64,6.73-2.64h2.64c3.11,0,5.41.75,6.91,2.24s2.24,3.77,2.24,6.82v28.51h7.92v-27.81Z"/>
    <polygon class="st1" points="621.43 520.87 621.43 527.38 661.38 527.38 661.38 520.87 646.16 520.87 646.16 483.38 623.02 483.38 623.02 489.89 638.24 489.89 638.24 520.87 621.43 520.87"/>
    <rect class="st1" x="636.39" y="460.5" width="10.74" height="11.09"/>
    <path class="st1" d="M693.9,537.19c-.85.85-2.16,1.28-3.92,1.28h-17.42v6.51h14.96c4.87,0,8.68-1.38,11.44-4.14,2.76-2.76,4.14-6.57,4.14-11.44v-46.02h-26.05v6.51h18.13v43.38c0,1.76-.43,3.06-1.28,3.92Z"/>
    <rect class="st1" x="693.15" y="460.5" width="10.74" height="11.09"/>
    <polygon class="st1" points="766.89 483.38 756.42 483.38 737.01 501.24 736.18 501.24 736.18 464.02 728.26 464.02 728.26 527.38 736.18 527.38 736.18 507.84 737.07 507.84 757.83 527.38 769 527.38 744.17 504.05 766.89 483.38"/>
    <polygon class="st1" points="778.16 520.87 778.16 527.38 820.13 527.38 820.13 520.87 803.59 520.87 803.59 464.02 780.45 464.02 780.45 470.53 795.67 470.53 795.67 520.87 778.16 520.87"/>
    <path class="st1" d="M873.28,493.41c0-2.11-.4-3.99-1.19-5.63s-1.92-2.93-3.39-3.87c-1.47-.94-3.17-1.41-5.1-1.41-2.17,0-4.08.56-5.72,1.67-1.21.82-2.19,1.94-2.92,3.34h-.93c-.46-1.12-1.11-2.06-1.95-2.82-1.64-1.47-3.67-2.2-6.07-2.2-2,0-3.73.53-5.19,1.58-1.14.82-2.1,1.97-2.88,3.43h-.81v-4.14h-7.13v44h7.39v-32.91c0-1.52.42-2.73,1.28-3.61.85-.88,2.21-1.32,4.09-1.32s3.24.44,4.09,1.32c.85.88,1.28,2.08,1.28,3.61v32.91h7.04v-32.91c0-1.52.42-2.73,1.28-3.61.85-.88,2.24-1.32,4.18-1.32s3.3.43,4.09,1.28c.79.85,1.19,2.07,1.19,3.65v32.91h7.39v-33.97Z"/>
    <path class="st1" d="M922.83,527.38v-27.81c0-3.64-.68-6.75-2.02-9.33-1.35-2.58-3.17-4.52-5.46-5.81-2.29-1.29-4.87-1.94-7.74-1.94-3.58,0-6.66.92-9.24,2.77-1.46,1.04-2.65,2.33-3.61,3.83h-.79v-5.72h-7.92v44h7.92v-27.54c0-3.17.81-5.63,2.42-7.39,1.61-1.76,3.86-2.64,6.73-2.64h2.64c3.11,0,5.41.75,6.91,2.24s2.24,3.77,2.24,6.82v28.51h7.92Z"/>
    <path class="st1" d="M967.53,485.4c-3.11-1.94-6.63-2.9-10.56-2.9s-7.55.97-10.69,2.9c-3.14,1.94-5.6,4.63-7.39,8.1-1.79,3.46-2.68,7.42-2.68,11.88s.87,8.42,2.6,11.88c1.73,3.46,4.14,6.16,7.22,8.1,3.08,1.94,6.61,2.9,10.6,2.9s7.48-.97,10.65-2.9c3.17-1.94,5.65-4.63,7.44-8.1,1.79-3.46,2.68-7.42,2.68-11.88s-.87-8.42-2.6-11.88c-1.73-3.46-4.15-6.16-7.26-8.1ZM968.85,509.07c-.12,4.28-1.03,7.33-2.73,9.15-1.7,1.82-4.52,2.73-8.45,2.73h-1.76c-3.93,0-6.75-.91-8.45-2.73-1.7-1.82-2.61-4.87-2.73-9.15-.06-2.46-.06-4.93,0-7.39.12-4.28,1.03-7.33,2.73-9.15,1.7-1.82,4.52-2.73,8.45-2.73h1.76c3.93,0,6.75.91,8.45,2.73,1.7,1.82,2.61,4.87,2.73,9.15.12,2.46.12,4.93,0,7.39Z"/>
    <path class="st1" d="M990.67,483.38v61.6h7.92v-23.14h.7c1.29,1.88,2.95,3.39,4.97,4.53,2.02,1.14,4.47,1.72,7.35,1.72,3.64,0,6.91-.98,9.81-2.95,2.9-1.96,5.18-4.68,6.82-8.14,1.64-3.46,2.46-7.33,2.46-11.62s-.82-8.15-2.46-11.62c-1.64-3.46-3.92-6.17-6.82-8.14-2.9-1.96-6.18-2.95-9.81-2.95-2.88,0-5.32.6-7.35,1.8-2.02,1.2-3.68,2.77-4.97,4.71h-.7v-5.81h-7.92ZM1001.19,492.66c1.67-1.79,4.44-2.68,8.32-2.68h1.76c3.87,0,6.63.9,8.27,2.68,1.64,1.79,2.52,4.8,2.64,9.02.12,2.46.12,4.93,0,7.39-.12,4.22-1,7.23-2.64,9.02-1.64,1.79-4.4,2.68-8.27,2.68h-1.76c-3.87,0-6.64-.89-8.32-2.68-1.67-1.79-2.57-4.8-2.68-9.02-.06-2.46-.06-4.93,0-7.39.12-4.22,1.01-7.23,2.68-9.02Z"/>
    <path class="st1" d="M1073.57,488.92h-.7c-1.29-1.88-2.96-3.39-5.02-4.53-2.05-1.14-4.55-1.72-7.48-1.72-3.64,0-6.92.98-9.86,2.95-2.93,1.97-5.24,4.68-6.91,8.14-1.67,3.46-2.51,7.33-2.51,11.62s.84,8.16,2.51,11.62c1.67,3.46,3.97,6.17,6.91,8.14,2.93,1.97,6.22,2.95,9.86,2.95,2.93,0,5.43-.6,7.48-1.8,2.05-1.2,3.72-2.77,5.02-4.71h.7v23.41h7.92v-61.6h-7.92v5.54ZM1073.66,509.07c-.12,4.22-1.03,7.23-2.73,9.02-1.7,1.79-4.52,2.68-8.45,2.68h-1.76c-3.87,0-6.66-.89-8.36-2.68-1.7-1.79-2.61-4.8-2.73-9.02-.06-2.46-.06-4.93,0-7.39.12-4.22,1.03-7.23,2.73-9.02,1.7-1.79,4.49-2.68,8.36-2.68h1.76c3.93,0,6.75.9,8.45,2.68,1.7,1.79,2.61,4.8,2.73,9.02.12,2.46.12,4.93,0,7.39Z"/>
    <path class="st1" d="M430.39,577.98c2.17-2.52,5.37-3.78,9.59-3.78h10.21v-7.3h-7.22c-4.05,0-7.39.95-10.03,2.86-1.94,1.4-3.54,3.23-4.81,5.5h-1v-7.83h-7.92v37.49h-11.44v6.51h40.3v-6.51h-20.94v-15.4c0-5.16,1.08-9,3.26-11.53Z"/>
    <path class="st1" d="M490.27,603.98c-1.61.85-4.21,1.28-7.79,1.28-2.82,0-5-.22-6.56-.66-1.56-.44-2.7-1.28-3.43-2.51-.73-1.23-1.16-3.08-1.28-5.54h-8.27c.18,3.05,1.13,5.78,2.86,8.18,1.73,2.41,4.02,4.27,6.86,5.59,2.85,1.32,6.03,1.98,9.55,1.98,3.28,0,6.31-.57,9.06-1.72,2.76-1.14,4.97-2.8,6.64-4.97,1.67-2.17,2.51-4.72,2.51-7.66,0-3.23-1.03-5.79-3.08-7.7-2.05-1.91-5.02-3.21-8.89-3.92l-11.09-1.94c-2-.35-3.39-.95-4.18-1.8-.79-.85-1.19-2.01-1.19-3.48,0-2.05.75-3.49,2.24-4.31,1.5-.82,3.95-1.23,7.35-1.23,2.64,0,4.69.24,6.16.7,1.47.47,2.54,1.26,3.21,2.38.67,1.12,1.07,2.7,1.19,4.75h7.92c-.23-2.87-1.19-5.44-2.86-7.7-1.67-2.26-3.87-4.02-6.6-5.28-2.73-1.26-5.68-1.89-8.84-1.89s-5.9.57-8.54,1.72c-2.64,1.14-4.77,2.77-6.38,4.88-1.61,2.11-2.42,4.52-2.42,7.22,0,3.05,1.03,5.53,3.08,7.44,2.05,1.91,4.9,3.18,8.54,3.83l10.65,1.85c2.23.41,3.78,1.03,4.66,1.85s1.32,2.05,1.32,3.7c0,2.46-.81,4.12-2.42,4.97Z"/>
    <path class="st1" d="M512.05,573.93h14.26v22.09c0,3.23.6,6,1.8,8.32,1.2,2.32,2.96,4.08,5.28,5.28,2.32,1.2,5.09,1.8,8.32,1.8h13.29v-6.51h-15.58c-1.76,0-3.07-.45-3.92-1.36-.85-.91-1.28-2.3-1.28-4.18v-25.43h19.89v-6.51h-19.89v-14.08h-7.92v14.08h-14.26v6.51Z"/>
    <path class="st1" d="M604.98,611.42v-44h-7.92v27.54c0,3.17-.79,5.63-2.38,7.39-1.58,1.76-3.78,2.64-6.6,2.64h-2.64c-3.05,0-5.31-.75-6.78-2.24-1.47-1.5-2.2-3.77-2.2-6.82v-28.51h-7.92v27.81c0,3.64.66,6.75,1.98,9.33,1.32,2.58,3.12,4.52,5.41,5.81,2.29,1.29,4.84,1.94,7.66,1.94,3.52,0,6.56-.92,9.11-2.77,1.44-1.04,2.63-2.33,3.57-3.83h.78v5.72h7.92Z"/>
    <polygon class="st1" points="634.9 611.42 644.67 611.42 661.39 567.42 653.03 567.42 640.44 603.14 639.74 603.14 627.51 567.42 618.71 567.42 634.9 611.42"/>
    <polygon class="st1" points="703.98 604.03 703.27 604.03 697.91 574.46 687.87 574.46 682.33 604.03 681.62 604.03 675.91 567.42 668.51 567.42 676.61 611.42 686.82 611.42 692.54 581.5 693.24 581.5 698.79 611.42 708.82 611.42 717.09 567.42 709.96 567.42 703.98 604.03"/>
    <polygon class="st1" points="766.28 567.42 757.3 567.42 746.06 582.73 745.28 582.73 734.34 567.42 724.92 567.42 740.84 588.8 724.39 611.42 733.46 611.42 745.27 594.87 746.15 594.87 757.3 611.42 766.81 611.42 750.46 588.56 766.28 567.42"/>
    <path class="st1" d="M794.04,626.33c2.61-1.79,4.65-4.65,6.12-8.58l19.62-50.34h-8.36l-12.23,33.7h-.7l-12.58-33.7h-8.8l18.21,44.95-2.81,6.62c-.59,1.35-1.25,2.27-1.98,2.77-.73.5-1.8.75-3.21.75h-12.58v6.51h9.24c4.11,0,7.46-.89,10.08-2.68Z"/>
    <polygon class="st1" points="832.89 604.46 832.89 611.42 869.77 611.42 869.77 604.91 842.84 604.91 842.84 604.2 868.97 574.54 868.97 567.42 833.51 567.42 833.51 573.93 859.21 573.93 859.21 574.63 832.89 604.46"/>
    <path class="st1" d="M270.49,632.98c-4.81,0-8.9,1.22-12.28,3.65-3.37,2.44-5.94,6.01-7.7,10.74-1.76,4.72-2.64,10.49-2.64,17.29,0,10.21,1.96,18.04,5.9,23.5,3.93,5.46,9.5,8.18,16.72,8.18,4.81,0,8.89-1.2,12.23-3.61,3.34-2.41,5.88-5.97,7.61-10.69,1.73-4.72,2.6-10.52,2.6-17.38,0-10.33-1.94-18.19-5.81-23.58-3.87-5.4-9.42-8.1-16.63-8.1ZM256.94,656.38c.12-4.22.65-7.48,1.58-9.77.94-2.29,2.27-3.87,4-4.75,1.73-.88,4.06-1.32,7-1.32h1.76c2.93,0,5.28.44,7.04,1.32,1.76.88,3.09,2.46,4,4.75.03.07.05.15.08.22l-25.39,27.9c-.04-.58-.06-1.18-.08-1.81-.18-5.51-.18-11.03,0-16.54ZM283.87,672.93c-.12,4.22-.63,7.48-1.54,9.77-.91,2.29-2.24,3.87-4,4.75-1.76.88-4.11,1.32-7.04,1.32h-1.76c-2.93,0-5.27-.44-7-1.32-1.73-.88-3.07-2.46-4-4.75-.03-.08-.06-.17-.09-.26l25.36-27.86c.03.58.06,1.18.08,1.81.18,5.52.18,11.03,0,16.54Z"/>
    <polygon class="st1" points="331.48 633.86 320.83 633.86 305.52 647.41 305.52 657.18 322.1 642.57 323.38 642.57 323.29 688.59 304.55 688.59 304.55 695.46 346.97 695.46 346.97 688.59 331.48 688.59 331.48 633.86"/>
    <path class="st1" d="M366.32,687.73l16.98-16.04c4.69-4.4,8.08-8.14,10.16-11.22,2.08-3.08,3.09-6.32,3.04-9.72,0-3.34-.85-6.37-2.55-9.06-1.7-2.7-4.06-4.83-7.08-6.38-3.02-1.55-6.5-2.33-10.43-2.33s-7.38.79-10.52,2.38c-3.14,1.58-5.63,4.02-7.48,7.3-1.85,3.29-2.77,7.3-2.77,12.06h8.8c0-3.93.38-6.91,1.14-8.93.76-2.02,1.89-3.37,3.39-4.05,1.5-.67,3.53-1.01,6.12-1.01h2.11c3.46,0,6.04.81,7.74,2.42,1.7,1.61,2.55,4.06,2.55,7.35,0,2.88-.7,5.4-2.11,7.57-1.41,2.17-4.02,5.08-7.83,8.71l-21.38,20.33v8.36h40.83v-6.86h-30.71v-.86Z"/>
    <path class="st1" d="M439.36,664.13v-.7c2.87-1,5.15-2.7,6.82-5.1,1.67-2.41,2.51-5.13,2.51-8.18s-.88-5.98-2.64-8.62c-1.76-2.64-4.17-4.72-7.22-6.25-3.05-1.52-6.4-2.29-10.03-2.29s-7.17.87-10.25,2.6c-3.08,1.73-5.5,4.11-7.26,7.13-1.76,3.02-2.64,6.38-2.64,10.08h8.62c0-3.34.32-5.85.97-7.52.65-1.67,1.69-2.83,3.12-3.48,1.44-.65,3.56-.97,6.38-.97h1.76c2.64,0,4.68.29,6.12.88,1.44.59,2.48,1.6,3.12,3.04.64,1.44.97,3.51.97,6.2,0,2.52-.29,4.46-.88,5.81-.59,1.35-1.56,2.27-2.9,2.77-1.35.5-3.29.78-5.81.84l-6.34.09v7.22l6.34.09c3.05.06,5.35.35,6.91.88,1.55.53,2.65,1.48,3.3,2.86.64,1.38.97,3.45.97,6.2,0,2.99-.37,5.25-1.1,6.78-.73,1.53-1.92,2.58-3.56,3.17-1.64.59-4.05.88-7.22.88h-1.76c-3.05,0-5.38-.35-7-1.06-1.61-.7-2.76-1.98-3.43-3.83-.68-1.85-1.01-4.65-1.01-8.4h-8.8c0,4.11.92,7.77,2.77,11,1.85,3.23,4.41,5.72,7.7,7.48,3.29,1.76,7.01,2.64,11.18,2.64s7.68-.82,10.91-2.46c3.23-1.64,5.76-3.87,7.61-6.69,1.85-2.82,2.77-5.92,2.77-9.33s-.97-6.41-2.9-8.84c-1.94-2.43-4.64-4.06-8.1-4.88Z"/>
    <path class="st1" d="M495.59,633.86h-10.03l-26.4,39.34v5.81h28.36l-.11,16.46h8.18v-16.46h8.8v-6.86h-8.8v-38.28ZM467.96,672.14l19.1-28.51h.7l-.19,28.51h-19.61Z"/>
    <path class="st1" d="M546.37,657.26c-2.99-1.82-6.28-2.73-9.86-2.73-3.17,0-6.03.69-8.58,2.07-1.62.88-2.94,1.95-3.95,3.21h-.87l2.45-19.1h27.15v-6.86h-34.32l-3.7,34.94h8.01c.82-2.46,2.05-4.19,3.7-5.19,1.64-1,4.19-1.5,7.66-1.5h1.06c4.34,0,7.46.81,9.37,2.42,1.91,1.61,2.86,4.33,2.86,8.14v5.28c0,3.81-.94,6.57-2.82,8.27-1.88,1.7-5.02,2.55-9.42,2.55h-1.14c-3.11,0-5.54-.4-7.3-1.19-1.76-.79-3.04-2.11-3.83-3.96s-1.19-4.44-1.19-7.79h-8.89c0,3.87.97,7.38,2.9,10.52,1.94,3.14,4.58,5.59,7.92,7.35,3.34,1.76,7.01,2.64,11,2.64s7.63-.94,10.91-2.82c3.29-1.88,5.87-4.41,7.74-7.61,1.88-3.2,2.82-6.73,2.82-10.6s-.87-7.39-2.6-10.56c-1.73-3.17-4.09-5.66-7.08-7.48Z"/>
    <path class="st1" d="M599.12,658.41c-3.02-1.76-6.35-2.64-9.99-2.64-3.87,0-7.25.92-10.12,2.77-1.56,1-2.82,2.23-3.79,3.65h-.76c.08-3.63.29-6.75.63-9.33.5-3.7,1.69-6.66,3.56-8.89,1.06-1.29,2.32-2.17,3.78-2.64,1.47-.47,3.37-.7,5.72-.7,3.87,0,6.6.75,8.18,2.24,1.58,1.5,2.49,4.06,2.73,7.7h8.62c-.23-3.17-1.22-6.1-2.95-8.8-1.73-2.7-4.05-4.84-6.95-6.42-2.9-1.58-6.12-2.38-9.64-2.38-2.82,0-5.46.5-7.92,1.5-2.46,1-4.61,2.44-6.42,4.31-2.82,2.82-4.83,6.62-6.03,11.4-1.2,4.78-1.8,10.11-1.8,15.97s.59,10.56,1.76,14.61c1.17,4.05,2.96,7.3,5.37,9.77,1.76,1.94,3.87,3.39,6.34,4.36,2.46.97,5.16,1.45,8.1,1.45,4.11,0,7.79-.94,11.04-2.82,3.26-1.88,5.78-4.4,7.57-7.57,1.79-3.17,2.68-6.6,2.68-10.3s-.87-7.05-2.6-10.08c-1.73-3.02-4.11-5.41-7.13-7.17ZM599.78,679.18c0,3.34-.88,5.74-2.64,7.17-1.76,1.44-4.61,2.16-8.54,2.16h-1.76c-3.75,0-6.5-.75-8.23-2.24-1.73-1.5-2.68-3.8-2.86-6.91-.06-1.82-.15-3.64-.26-5.46-.12-3.58.75-6.19,2.6-7.83s4.77-2.46,8.76-2.46h1.76c3.93,0,6.78.72,8.54,2.16,1.76,1.44,2.64,3.83,2.64,7.17v6.25Z"/>
    <path class="st1" d="M618.7,650.58h6.95v-9.86h28.51v.86c-6.07,6.43-10.93,13.92-14.52,22.5-3.87,9.24-6.28,19.7-7.22,31.37h8.27c.88-11.38,3.11-21.47,6.69-30.27,3.58-8.8,8.89-16.72,15.93-23.76v-7.57h-44.62v16.72Z"/>
    <path class="st1" d="M703.89,664.13v-.7c2.93-.7,5.25-2.3,6.95-4.8,1.7-2.49,2.55-5.29,2.55-8.4s-.94-6.07-2.82-8.71c-1.88-2.64-4.39-4.72-7.52-6.25-3.14-1.52-6.53-2.29-10.16-2.29s-6.94.75-10.08,2.24c-3.14,1.5-5.66,3.56-7.57,6.2-1.91,2.64-2.86,5.57-2.86,8.8s.86,5.9,2.6,8.36c1.73,2.46,4.03,4.08,6.91,4.84v.7c-3.46.76-6.22,2.44-8.27,5.02-2.05,2.58-3.08,5.57-3.08,8.98s.98,6.41,2.95,9.2c1.96,2.79,4.63,4.99,8.01,6.6,3.37,1.61,7.11,2.42,11.22,2.42s7.63-.79,11.09-2.38c3.46-1.58,6.23-3.77,8.32-6.56,2.08-2.79,3.12-5.88,3.12-9.28s-1.03-6.39-3.08-8.98c-2.05-2.58-4.81-4.25-8.27-5.02ZM681.36,653.39c-.12-2.05-.12-4.02,0-5.9.18-2.41,1.03-4.12,2.55-5.15,1.53-1.03,3.9-1.54,7.13-1.54h3.43c3.23,0,5.63.51,7.22,1.54,1.58,1.03,2.46,2.74,2.64,5.15.12,1.06.12,2.52,0,4.4v1.06c-.12,2.58-.94,4.44-2.46,5.59-1.53,1.14-3.99,1.72-7.39,1.72h-3.43c-3.23,0-5.6-.54-7.13-1.63-1.53-1.08-2.38-2.83-2.55-5.24ZM706.18,680.76c-.18,2.76-1.17,4.74-2.99,5.94-1.82,1.2-4.64,1.8-8.45,1.8h-3.78c-3.81,0-6.62-.6-8.4-1.8-1.79-1.2-2.77-3.18-2.95-5.94-.12-2.23-.12-3.96,0-5.19.18-2.82,1.14-4.83,2.9-6.03,1.76-1.2,4.58-1.8,8.45-1.8h3.78c3.87,0,6.7.6,8.49,1.8,1.79,1.2,2.77,3.21,2.95,6.03.12,2.23.12,3.96,0,5.19Z"/>
    <path class="st1" d="M759.68,638.79c-1.76-1.94-3.87-3.39-6.34-4.36-2.46-.97-5.16-1.45-8.1-1.45-4.11,0-7.79.94-11.04,2.82-3.26,1.88-5.78,4.4-7.57,7.57-1.79,3.17-2.68,6.6-2.68,10.3s.87,7.05,2.6,10.08,4.11,5.41,7.13,7.17,6.35,2.64,9.99,2.64c3.87,0,7.25-.92,10.12-2.77,1.56-1,2.82-2.23,3.79-3.65h.76c-.08,3.63-.29,6.75-.63,9.33-.5,3.7-1.69,6.66-3.56,8.89-1.06,1.29-2.32,2.17-3.78,2.64-1.47.47-3.38.7-5.72.7-3.87,0-6.6-.75-8.18-2.24-1.58-1.5-2.49-4.06-2.73-7.7h-8.62c.23,3.17,1.22,6.1,2.95,8.8,1.73,2.7,4.05,4.84,6.95,6.42s6.12,2.38,9.64,2.38c2.82,0,5.46-.5,7.92-1.5,2.46-1,4.61-2.43,6.42-4.31,2.82-2.82,4.82-6.61,6.03-11.4,1.2-4.78,1.8-10.1,1.8-15.97s-.59-10.56-1.76-14.61c-1.17-4.05-2.96-7.3-5.37-9.77ZM745.95,665.71h-1.76c-3.93,0-6.78-.72-8.54-2.16-1.76-1.44-2.64-3.83-2.64-7.17v-6.25c0-3.34.88-5.73,2.64-7.17,1.76-1.44,4.6-2.16,8.54-2.16h1.76c3.75,0,6.5.75,8.23,2.24,1.73,1.5,2.68,3.8,2.86,6.91.06,1.82.15,3.64.26,5.46.12,3.58-.75,6.19-2.6,7.83-1.85,1.64-4.77,2.46-8.76,2.46Z"/>
    <path class="st1" d="M815.56,651.46h-7.92v8.71h-9.24c-3.52,0-6-.64-7.44-1.94-1.44-1.29-2.16-3.46-2.16-6.51v-2.55c0-3.05.72-5.22,2.16-6.51,1.44-1.29,3.92-1.94,7.44-1.94h8.8v-6.86h-8.27c-3.4,0-6.54.69-9.42,2.07-2.88,1.38-5.18,3.3-6.91,5.76-1.73,2.46-2.6,5.22-2.6,8.27,0,3.29.95,6.17,2.86,8.67,1.63,2.14,3.64,3.57,6.03,4.3v.65c-1.88.44-3.59,1.21-5.1,2.35-1.82,1.38-3.24,3.12-4.27,5.24-1.03,2.11-1.54,4.4-1.54,6.86,0,3.29.91,6.26,2.73,8.93,1.82,2.67,4.31,4.75,7.48,6.25s6.72,2.24,10.65,2.24h16.72v-28.6h7.13v-6.69h-7.13v-8.71ZM807.64,688.77h-10.47c-3.75,0-6.42-.73-8.01-2.2-1.58-1.47-2.38-3.9-2.38-7.3v-3.08c0-3.34.78-5.73,2.33-7.17,1.55-1.44,4.24-2.16,8.05-2.16h10.47v21.91Z"/>
    <polygon class="st1" points="865.91 633.86 851.74 659.64 850.85 659.64 836.78 633.86 827.19 633.86 845.02 664.48 831.06 664.48 831.06 670.64 847.08 670.64 847.08 676.8 831.06 676.8 831.06 682.96 847.08 682.96 847.08 695.46 855.35 695.46 855.35 682.96 871.36 682.96 871.36 676.8 855.35 676.8 855.35 670.64 871.36 670.64 871.36 664.48 857.42 664.48 875.32 633.86 865.91 633.86"/>
    <path class="st1" d="M922.14,665.98c-2.88-2.46-6.95-4.16-12.23-5.1l-2.2-.4v-17.87c1.86.17,3.39.52,4.58,1.07,1.7.79,2.89,2.01,3.56,3.65.67,1.64,1.07,3.93,1.19,6.86h8.27c-.12-3.64-1.09-6.89-2.9-9.77-1.82-2.87-4.34-5.12-7.57-6.73-2.19-1.09-4.56-1.81-7.13-2.16v-7.83h-6.34v7.69c-2.67.26-5.18.92-7.52,1.99-3.08,1.41-5.53,3.39-7.35,5.94-1.82,2.55-2.73,5.5-2.73,8.84,0,3.93,1.39,7.14,4.18,9.64,2.79,2.49,6.73,4.21,11.84,5.15l1.58.29v19.51c-2.3-.17-4.17-.63-5.59-1.37-1.85-.97-3.15-2.42-3.92-4.36-.76-1.94-1.2-4.46-1.32-7.57h-8.45c.12,3.93,1.14,7.47,3.08,10.6,1.94,3.14,4.6,5.59,8.01,7.35,2.5,1.3,5.23,2.11,8.18,2.45v7.76h6.34v-7.73c2.81-.3,5.46-1.02,7.92-2.17,3.34-1.55,5.98-3.71,7.92-6.47,1.94-2.76,2.9-5.9,2.9-9.42,0-4.11-1.44-7.39-4.31-9.86ZM894.15,656.69c-1.47-1.14-2.2-2.95-2.2-5.41v-1.06c0-1.82.4-3.28,1.19-4.4.79-1.11,1.99-1.95,3.61-2.51,1.25-.43,2.79-.69,4.62-.79v16.78c-3.39-.64-5.8-1.51-7.22-2.61ZM917.65,678.3c0,2.99-.91,5.16-2.73,6.51-1.57,1.17-3.98,1.83-7.22,1.98v-18.37c3.68.7,6.25,1.64,7.7,2.83,1.5,1.23,2.24,3.2,2.24,5.9v1.14Z"/>
    <path class="st1" d="M953.25,642.04c1.5-.88,3.5-1.32,6.03-1.32h1.76c2.93,0,5.15.48,6.64,1.45,1.5.97,2.52,2.64,3.08,5.02s.87,5.85.92,10.43h8.54c-.06-5.1-.92-9.5-2.6-13.2s-4-6.53-7-8.49c-2.99-1.96-6.51-2.95-10.56-2.95-4.34,0-8.07,1.23-11.18,3.7-3.11,2.46-5.5,6.06-7.17,10.78-.82,2.32-1.44,4.89-1.86,7.7h-6.99v6.16h6.42c-.05,1.09-.08,2.2-.08,3.34,0,.97.03,1.89.07,2.82h-6.4v6.16h6.91c.79,5.94,2.42,10.8,4.92,14.52,3.67,5.46,8.79,8.18,15.36,8.18,3.99,0,7.49-.98,10.52-2.95,3.02-1.96,5.37-4.78,7.04-8.45,1.67-3.67,2.54-8.02,2.6-13.07h-8.54c-.06,4.58-.37,8.02-.92,10.34-.56,2.32-1.58,3.96-3.08,4.93-1.5.97-3.71,1.45-6.64,1.45h-1.76c-2.52,0-4.53-.44-6.03-1.32-1.5-.88-2.66-2.45-3.48-4.71-.77-2.13-1.23-5.11-1.38-8.93h12.56l1.23-6.16h-13.96c-.02-2.15,0-4.19.02-6.16h15.09l1.23-6.16h-16.14c.17-3.57.62-6.37,1.36-8.4.82-2.26,1.98-3.83,3.48-4.71Z"/>
    <path class="st1" d="M1021.58,663.73v-.86c2.38-.68,4.4-2.01,6.03-4.02,1.91-2.35,2.86-5.07,2.86-8.18,0-2.93-.87-5.57-2.6-7.92-1.73-2.35-4.03-4.18-6.91-5.5-1.4-.64-2.87-1.13-4.4-1.46v-8.09h-6.34v7.57h-7.22v-7.57h-6.34v7.57h-7.3v58.78h7.48v7.57h6.34v-7.57h7.22v7.57h6.34v-8.02c1.96-.36,3.81-.92,5.54-1.71,3.17-1.44,5.66-3.42,7.48-5.94,1.82-2.52,2.73-5.34,2.73-8.45,0-3.64-1.13-6.75-3.39-9.33-2.01-2.29-4.52-3.77-7.52-4.45ZM1020.74,645.38c.62,1.12.92,2.61.92,4.49v2.99c0,2.64-.72,4.52-2.16,5.63-1.44,1.12-3.92,1.67-7.44,1.67h-14.61v-18.04h14.61c2.4,0,4.3.26,5.68.79,1.38.53,2.38,1.35,2.99,2.46ZM1023.69,678.56c0,3.05-.79,5.25-2.38,6.6-1.58,1.35-4.25,2.02-8.01,2.02h-15.84v-20.33h15.84c3.87,0,6.57.63,8.1,1.89,1.52,1.26,2.29,3.39,2.29,6.38v3.43Z"/>
  </g>
</svg>